<?xml version="1.0" encoding="UTF-8" standalone="no"?>
<!DOCTYPE svg PUBLIC "-//W3C//DTD SVG 1.1//EN"
 "http://www.w3.org/Graphics/SVG/1.1/DTD/svg11.dtd">
<!-- Generated by graphviz version 2.40.1 (20161225.0304)
 -->
<!-- Title: oneDegreeRelationshipsDiagramImplied Pages: 1 -->
<svg width="407pt" height="228pt"
 viewBox="0.00 0.00 407.00 228.20" xmlns="http://www.w3.org/2000/svg" xmlns:xlink="http://www.w3.org/1999/xlink">
<g id="graph0" class="graph" transform="scale(1 1) rotate(0) translate(4 224.2)">
<title>oneDegreeRelationshipsDiagramImplied</title>
<polygon fill="#ffffff" stroke="transparent" points="-4,4 -4,-224.2 403,-224.2 403,4 -4,4"/>
<text text-anchor="middle" x="72.4936" y="-7.3" font-family="Helvetica,sans-Serif" font-size="11.00" fill="#000000">Generated by SchemaSpy</text>
<!-- altersgruppen -->
<g id="node1" class="node">
<title>altersgruppen</title>
<g id="a_node1"><a xlink:href="../../tables/altersgruppen.html" xlink:title="altersgruppen" target="_top">
<polygon fill="#ffffff" stroke="transparent" points="222,-38.2 222,-216.2 391,-216.2 391,-38.2 222,-38.2"/>
<polygon fill="#f5f5f5" stroke="transparent" points="224.5,-191.2 224.5,-214.2 389.5,-214.2 389.5,-191.2 224.5,-191.2"/>
<polygon fill="none" stroke="#000000" points="224.5,-191.2 224.5,-214.2 389.5,-214.2 389.5,-191.2 224.5,-191.2"/>
<text text-anchor="start" x="229.5" y="-199.8" font-family="Helvetica,sans-Serif" font-weight="bold" font-size="11.00" fill="#000000">altersgruppen</text>
<text text-anchor="start" x="354.5437" y="-199.3" font-family="Helvetica,sans-Serif" font-size="11.00" fill="#000000">[table]</text>
<polygon fill="none" stroke="#000000" points="224.5,-169.2 224.5,-191.2 354.5,-191.2 354.5,-169.2 224.5,-169.2"/>
<image xlink:href="../../images/primaryKeys.png" width="11px" height="12px" preserveAspectRatio="xMinYMin meet" x="229.5" y="-186.2"/>
<text text-anchor="start" x="244.5" y="-176.3" font-family="Helvetica,sans-Serif" font-size="11.00" fill="#000000">id</text>
<polygon fill="none" stroke="#000000" points="354.5,-169.2 354.5,-191.2 389.5,-191.2 389.5,-169.2 354.5,-169.2"/>
<text text-anchor="start" x="357.0219" y="-176.9" font-family="Helvetica,sans-Serif" font-size="11.00" fill="#000000">int[10]</text>
<polygon fill="#ffffff" stroke="transparent" points="224.5,-147.2 224.5,-169.2 354.5,-169.2 354.5,-147.2 224.5,-147.2"/>
<polygon fill="none" stroke="#000000" points="224.5,-147.2 224.5,-169.2 354.5,-169.2 354.5,-147.2 224.5,-147.2"/>
<image xlink:href="../../images/foreignKeys.png" width="11px" height="12px" preserveAspectRatio="xMinYMin meet" x="229.5" y="-164.2"/>
<text text-anchor="start" x="244.5" y="-154.3" font-family="Helvetica,sans-Serif" font-size="11.00" fill="#000000">year</text>
<polygon fill="none" stroke="#000000" points="354.5,-147.2 354.5,-169.2 389.5,-169.2 389.5,-147.2 354.5,-147.2"/>
<text text-anchor="start" x="357.0219" y="-154.9" font-family="Helvetica,sans-Serif" font-size="11.00" fill="#000000">int[10]</text>
<polygon fill="#ffffff" stroke="transparent" points="224.5,-125.2 224.5,-147.2 354.5,-147.2 354.5,-125.2 224.5,-125.2"/>
<polygon fill="none" stroke="#000000" points="224.5,-125.2 224.5,-147.2 354.5,-147.2 354.5,-125.2 224.5,-125.2"/>
<text text-anchor="start" x="244.5" y="-132.3" font-family="Helvetica,sans-Serif" font-size="11.00" fill="#000000">startAlter</text>
<polygon fill="none" stroke="#000000" points="354.5,-125.2 354.5,-147.2 389.5,-147.2 389.5,-125.2 354.5,-125.2"/>
<text text-anchor="start" x="357.0219" y="-132.9" font-family="Helvetica,sans-Serif" font-size="11.00" fill="#000000">int[10]</text>
<polygon fill="#ffffff" stroke="transparent" points="224.5,-103.2 224.5,-125.2 354.5,-125.2 354.5,-103.2 224.5,-103.2"/>
<polygon fill="none" stroke="#000000" points="224.5,-103.2 224.5,-125.2 354.5,-125.2 354.5,-103.2 224.5,-103.2"/>
<text text-anchor="start" x="244.5" y="-110.3" font-family="Helvetica,sans-Serif" font-size="11.00" fill="#000000">endAlter</text>
<polygon fill="none" stroke="#000000" points="354.5,-103.2 354.5,-125.2 389.5,-125.2 389.5,-103.2 354.5,-103.2"/>
<text text-anchor="start" x="357.0219" y="-110.9" font-family="Helvetica,sans-Serif" font-size="11.00" fill="#000000">int[10]</text>
<polygon fill="none" stroke="#000000" points="224.5,-81.2 224.5,-103.2 354.5,-103.2 354.5,-81.2 224.5,-81.2"/>
<text text-anchor="start" x="244.5" y="-88.3" font-family="Helvetica,sans-Serif" font-size="11.00" fill="#000000">ergebnis</text>
<polygon fill="none" stroke="#000000" points="354.5,-81.2 354.5,-103.2 389.5,-103.2 389.5,-81.2 354.5,-81.2"/>
<text text-anchor="start" x="357.0219" y="-88.9" font-family="Helvetica,sans-Serif" font-size="11.00" fill="#000000">int[10]</text>
<polygon fill="none" stroke="#000000" points="224.5,-59.2 224.5,-81.2 354.5,-81.2 354.5,-59.2 224.5,-59.2"/>
<text text-anchor="start" x="244.5" y="-66.3" font-family="Helvetica,sans-Serif" font-size="11.00" fill="#000000">jahresergebnis</text>
<polygon fill="none" stroke="#000000" points="354.5,-59.2 354.5,-81.2 389.5,-81.2 389.5,-59.2 354.5,-59.2"/>
<text text-anchor="start" x="357.0219" y="-66.9" font-family="Helvetica,sans-Serif" font-size="11.00" fill="#000000">int[10]</text>
<polygon fill="#ffffff" stroke="transparent" points="224.5,-40.2 224.5,-59.2 389.5,-59.2 389.5,-40.2 224.5,-40.2"/>
<polygon fill="none" stroke="#000000" points="224.5,-40.2 224.5,-59.2 389.5,-59.2 389.5,-40.2 224.5,-40.2"/>
<polygon fill="#ffffff" stroke="transparent" points="225.5,-41.2 225.5,-58.2 274.5,-58.2 274.5,-41.2 225.5,-41.2"/>
<text text-anchor="start" x="227.5" y="-46.3" font-family="Helvetica,sans-Serif" font-size="11.00" fill="#000000">&lt; 1</text>
<polygon fill="#ffffff" stroke="transparent" points="274.5,-41.2 274.5,-58.2 340.5,-58.2 340.5,-41.2 274.5,-41.2"/>
<text text-anchor="start" x="291.3053" y="-46.3" font-family="Helvetica,sans-Serif" font-size="11.00" fill="#000000">0 rows</text>
<polygon fill="#ffffff" stroke="transparent" points="340.5,-41.2 340.5,-58.2 388.5,-58.2 388.5,-41.2 340.5,-41.2"/>
<text text-anchor="start" x="370.9053" y="-46.3" font-family="Helvetica,sans-Serif" font-size="11.00" fill="#000000">0 &gt;</text>
<polygon fill="#000000" stroke="#000000" points="274.5,-41.2 274.5,-58.2 274.5,-58.2 274.5,-41.2 274.5,-41.2"/>
<polygon fill="#000000" stroke="#000000" points="340.5,-41.2 340.5,-58.2 340.5,-58.2 340.5,-41.2 340.5,-41.2"/>
<polygon fill="none" stroke="#000000" stroke-width="2" points="223,-39.2 223,-215.2 390,-215.2 390,-39.2 223,-39.2"/>
</a>
</g>
</g>
<!-- jahresergebnisse -->
<g id="node2" class="node">
<title>jahresergebnisse</title>
<g id="a_node2"><a xlink:href="../../tables/jahresergebnisse.html" xlink:title="jahresergebnisse" target="_top">
<polygon fill="#ffffff" stroke="transparent" points="8,-109.7 8,-192.7 173,-192.7 173,-109.7 8,-109.7"/>
<polygon fill="#f5f5f5" stroke="transparent" points="8.5,-169.2 8.5,-192.2 173.5,-192.2 173.5,-169.2 8.5,-169.2"/>
<polygon fill="none" stroke="#000000" points="8.5,-169.2 8.5,-192.2 173.5,-192.2 173.5,-169.2 8.5,-169.2"/>
<text text-anchor="start" x="13.5" y="-177.8" font-family="Helvetica,sans-Serif" font-weight="bold" font-size="11.00" fill="#000000">jahresergebnisse</text>
<text text-anchor="start" x="139.0219" y="-177.3" font-family="Helvetica,sans-Serif" font-size="11.00" fill="#000000">[table]</text>
<polygon fill="none" stroke="#000000" points="8.5,-147.2 8.5,-169.2 173.5,-169.2 173.5,-147.2 8.5,-147.2"/>
<image xlink:href="../../images/primaryKeys.png" width="11px" height="12px" preserveAspectRatio="xMinYMin meet" x="13.5" y="-164.2"/>
<text text-anchor="start" x="37.5" y="-154.3" font-family="Helvetica,sans-Serif" font-size="11.00" fill="#000000">year</text>
<polygon fill="none" stroke="#000000" points="8.5,-128.2 8.5,-147.2 173.5,-147.2 173.5,-128.2 8.5,-128.2"/>
<text text-anchor="start" x="11.5" y="-134.3" font-family="Helvetica,sans-Serif" font-size="11.00" fill="#000000">...</text>
<polygon fill="#ffffff" stroke="transparent" points="8.5,-109.2 8.5,-128.2 173.5,-128.2 173.5,-109.2 8.5,-109.2"/>
<polygon fill="none" stroke="#000000" points="8.5,-109.2 8.5,-128.2 173.5,-128.2 173.5,-109.2 8.5,-109.2"/>
<polygon fill="#ffffff" stroke="transparent" points="9.5,-110.2 9.5,-127.2 52.5,-127.2 52.5,-110.2 9.5,-110.2"/>
<text text-anchor="start" x="11.5" y="-115.3" font-family="Helvetica,sans-Serif" font-size="11.00" fill="#000000"> &#160;</text>
<polygon fill="#ffffff" stroke="transparent" points="52.5,-110.2 52.5,-127.2 121.5,-127.2 121.5,-110.2 52.5,-110.2"/>
<text text-anchor="start" x="70.8053" y="-115.3" font-family="Helvetica,sans-Serif" font-size="11.00" fill="#000000">0 rows</text>
<polygon fill="#ffffff" stroke="transparent" points="121.5,-110.2 121.5,-127.2 172.5,-127.2 172.5,-110.2 121.5,-110.2"/>
<text text-anchor="start" x="154.9053" y="-115.3" font-family="Helvetica,sans-Serif" font-size="11.00" fill="#000000">1 &gt;</text>
<polygon fill="#000000" stroke="#000000" points="52.5,-110.2 52.5,-127.2 52.5,-127.2 52.5,-110.2 52.5,-110.2"/>
<polygon fill="#000000" stroke="#000000" points="121.5,-110.2 121.5,-127.2 121.5,-127.2 121.5,-110.2 121.5,-110.2"/>
</a>
</g>
</g>
<!-- altersgruppen&#45;&gt;jahresergebnisse -->
<g id="edge1" class="edge">
<title>altersgruppen:w&#45;&gt;jahresergebnisse:e</title>
<path fill="none" stroke="#000000" stroke-dasharray="5,2" d="M209.776,-158.2C197.7815,-158.2 190.3229,-158.2 173.5,-158.2"/>
<polygon fill="#000000" stroke="#000000" points="216.5,-158.2001 224.5,-161.8 220.5,-158.2 224.5,-158.2 224.5,-158.2 224.5,-158.2 220.5,-158.2 224.5,-154.6 216.5,-158.2001 216.5,-158.2001"/>
<ellipse fill="none" stroke="#000000" cx="213.3" cy="-158.2001" rx="3.2" ry="3.2"/>
</g>
</g>
</svg>
