<?xml version="1.0" encoding="UTF-8" standalone="no"?>
<!DOCTYPE svg PUBLIC "-//W3C//DTD SVG 1.1//EN"
 "http://www.w3.org/Graphics/SVG/1.1/DTD/svg11.dtd">
<!-- Generated by graphviz version 2.40.1 (20161225.0304)
 -->
<!-- Title: twoDegreesRelationshipsDiagram Pages: 1 -->
<svg width="926pt" height="440pt"
 viewBox="0.00 0.00 926.00 440.20" xmlns="http://www.w3.org/2000/svg" xmlns:xlink="http://www.w3.org/1999/xlink">
<g id="graph0" class="graph" transform="scale(1 1) rotate(0) translate(4 436.2)">
<title>twoDegreesRelationshipsDiagram</title>
<polygon fill="#ffffff" stroke="transparent" points="-4,4 -4,-436.2 922,-436.2 922,4 -4,4"/>
<text text-anchor="middle" x="72.4936" y="-7.3" font-family="Helvetica,sans-Serif" font-size="11.00" fill="#000000">Generated by SchemaSpy</text>
<!-- ausgabegruppe_ausgabetagzeit -->
<g id="node1" class="node">
<title>ausgabegruppe_ausgabetagzeit</title>
<g id="a_node1"><a xlink:href="../../tables/ausgabegruppe_ausgabetagzeit.html" xlink:title="ausgabegruppe_ausgabetagzeit" target="_top">
<polygon fill="#ffffff" stroke="transparent" points="271,-310.7 271,-396.7 544,-396.7 544,-310.7 271,-310.7"/>
<polygon fill="#f5f5f5" stroke="transparent" points="271.5,-373.7 271.5,-396.7 544.5,-396.7 544.5,-373.7 271.5,-373.7"/>
<polygon fill="none" stroke="#000000" points="271.5,-373.7 271.5,-396.7 544.5,-396.7 544.5,-373.7 271.5,-373.7"/>
<text text-anchor="start" x="276.5" y="-382.3" font-family="Helvetica,sans-Serif" font-weight="bold" font-size="11.00" fill="#000000">ausgabegruppe_ausgabetagzeit</text>
<text text-anchor="start" x="510.0219" y="-381.8" font-family="Helvetica,sans-Serif" font-size="11.00" fill="#000000">[table]</text>
<polygon fill="#ffffff" stroke="transparent" points="271.5,-351.7 271.5,-373.7 544.5,-373.7 544.5,-351.7 271.5,-351.7"/>
<polygon fill="none" stroke="#000000" points="271.5,-351.7 271.5,-373.7 544.5,-373.7 544.5,-351.7 271.5,-351.7"/>
<image xlink:href="../../images/foreignKeys.png" width="11px" height="12px" preserveAspectRatio="xMinYMin meet" x="276.5" y="-368.7"/>
<text text-anchor="start" x="300.5" y="-358.8" font-family="Helvetica,sans-Serif" font-size="11.00" fill="#000000">ausgabeTagZeitId</text>
<polygon fill="#ffffff" stroke="transparent" points="271.5,-329.7 271.5,-351.7 544.5,-351.7 544.5,-329.7 271.5,-329.7"/>
<polygon fill="none" stroke="#000000" points="271.5,-329.7 271.5,-351.7 544.5,-351.7 544.5,-329.7 271.5,-329.7"/>
<image xlink:href="../../images/foreignKeys.png" width="11px" height="12px" preserveAspectRatio="xMinYMin meet" x="276.5" y="-346.7"/>
<text text-anchor="start" x="300.5" y="-336.8" font-family="Helvetica,sans-Serif" font-size="11.00" fill="#000000">ausgabegruppeId</text>
<polygon fill="#ffffff" stroke="transparent" points="271.5,-310.7 271.5,-329.7 544.5,-329.7 544.5,-310.7 271.5,-310.7"/>
<polygon fill="none" stroke="#000000" points="271.5,-310.7 271.5,-329.7 544.5,-329.7 544.5,-310.7 271.5,-310.7"/>
<polygon fill="#ffffff" stroke="transparent" points="272.5,-311.7 272.5,-328.7 360.5,-328.7 360.5,-311.7 272.5,-311.7"/>
<text text-anchor="start" x="274.5" y="-316.8" font-family="Helvetica,sans-Serif" font-size="11.00" fill="#000000">&lt; 2</text>
<polygon fill="#ffffff" stroke="transparent" points="360.5,-311.7 360.5,-328.7 465.5,-328.7 465.5,-311.7 360.5,-311.7"/>
<text text-anchor="start" x="396.8053" y="-316.8" font-family="Helvetica,sans-Serif" font-size="11.00" fill="#000000">0 rows</text>
<polygon fill="#ffffff" stroke="transparent" points="465.5,-311.7 465.5,-328.7 543.5,-328.7 543.5,-311.7 465.5,-311.7"/>
<text text-anchor="start" x="535.3862" y="-316.8" font-family="Helvetica,sans-Serif" font-size="11.00" fill="#000000"> &#160;</text>
<polygon fill="#000000" stroke="#000000" points="360.5,-311.7 360.5,-328.7 360.5,-328.7 360.5,-311.7 360.5,-311.7"/>
<polygon fill="#000000" stroke="#000000" points="465.5,-311.7 465.5,-328.7 465.5,-328.7 465.5,-311.7 465.5,-311.7"/>
</a>
</g>
</g>
<!-- ausgabegruppe -->
<g id="node2" class="node">
<title>ausgabegruppe</title>
<g id="a_node2"><a xlink:href="../../tables/ausgabegruppe.html" xlink:title="ausgabegruppe" target="_top">
<polygon fill="#ffffff" stroke="transparent" points="8,-211.7 8,-345.7 222,-345.7 222,-211.7 8,-211.7"/>
<polygon fill="#f5f5f5" stroke="transparent" points="10,-320.7 10,-343.7 220,-343.7 220,-320.7 10,-320.7"/>
<polygon fill="none" stroke="#000000" points="10,-320.7 10,-343.7 220,-343.7 220,-320.7 10,-320.7"/>
<text text-anchor="start" x="15" y="-329.3" font-family="Helvetica,sans-Serif" font-weight="bold" font-size="11.00" fill="#000000">ausgabegruppe</text>
<text text-anchor="start" x="185.0437" y="-328.8" font-family="Helvetica,sans-Serif" font-size="11.00" fill="#000000">[table]</text>
<polygon fill="none" stroke="#000000" points="10,-298.7 10,-320.7 159,-320.7 159,-298.7 10,-298.7"/>
<image xlink:href="../../images/primaryKeys.png" width="11px" height="12px" preserveAspectRatio="xMinYMin meet" x="15" y="-315.7"/>
<text text-anchor="start" x="30" y="-305.8" font-family="Helvetica,sans-Serif" font-size="11.00" fill="#000000">ausgabegruppeId</text>
<polygon fill="none" stroke="#000000" points="159,-298.7 159,-320.7 220,-320.7 220,-298.7 159,-298.7"/>
<text text-anchor="start" x="162" y="-306.4" font-family="Helvetica,sans-Serif" font-size="11.00" fill="#000000">int[10]</text>
<polygon fill="none" stroke="#000000" points="10,-276.7 10,-298.7 159,-298.7 159,-276.7 10,-276.7"/>
<text text-anchor="start" x="30" y="-283.8" font-family="Helvetica,sans-Serif" font-size="11.00" fill="#000000">name</text>
<polygon fill="none" stroke="#000000" points="159,-276.7 159,-298.7 220,-298.7 220,-276.7 159,-276.7"/>
<text text-anchor="start" x="161.994" y="-284.4" font-family="Helvetica,sans-Serif" font-size="11.00" fill="#000000">varchar[50]</text>
<polygon fill="none" stroke="#000000" points="10,-254.7 10,-276.7 159,-276.7 159,-254.7 10,-254.7"/>
<text text-anchor="start" x="30" y="-261.8" font-family="Helvetica,sans-Serif" font-size="11.00" fill="#000000">aktiv</text>
<polygon fill="none" stroke="#000000" points="159,-254.7 159,-276.7 220,-276.7 220,-254.7 159,-254.7"/>
<text text-anchor="start" x="162" y="-262.4" font-family="Helvetica,sans-Serif" font-size="11.00" fill="#000000">bit[1]</text>
<polygon fill="none" stroke="#000000" points="10,-232.7 10,-254.7 159,-254.7 159,-232.7 10,-232.7"/>
<text text-anchor="start" x="30" y="-239.8" font-family="Helvetica,sans-Serif" font-size="11.00" fill="#000000">anzeigeFarbe</text>
<polygon fill="none" stroke="#000000" points="159,-232.7 159,-254.7 220,-254.7 220,-232.7 159,-232.7"/>
<text text-anchor="start" x="162" y="-240.4" font-family="Helvetica,sans-Serif" font-size="11.00" fill="#000000">varchar[7]</text>
<polygon fill="#ffffff" stroke="transparent" points="10,-213.7 10,-232.7 220,-232.7 220,-213.7 10,-213.7"/>
<polygon fill="none" stroke="#000000" points="10,-213.7 10,-232.7 220,-232.7 220,-213.7 10,-213.7"/>
<polygon fill="#ffffff" stroke="transparent" points="11,-214.7 11,-231.7 73,-231.7 73,-214.7 11,-214.7"/>
<text text-anchor="start" x="13" y="-219.8" font-family="Helvetica,sans-Serif" font-size="11.00" fill="#000000">&lt; 0</text>
<polygon fill="#ffffff" stroke="transparent" points="73,-214.7 73,-231.7 158,-231.7 158,-214.7 73,-214.7"/>
<text text-anchor="start" x="96.2478" y="-219.8" font-family="Helvetica,sans-Serif" font-size="11.00" fill="#000000">24 rows</text>
<polygon fill="#ffffff" stroke="transparent" points="158,-214.7 158,-231.7 219,-231.7 219,-214.7 158,-214.7"/>
<text text-anchor="start" x="201.4053" y="-219.8" font-family="Helvetica,sans-Serif" font-size="11.00" fill="#000000">2 &gt;</text>
<polygon fill="#000000" stroke="#000000" points="73,-214.7 73,-231.7 73,-231.7 73,-214.7 73,-214.7"/>
<polygon fill="#000000" stroke="#000000" points="158,-214.7 158,-231.7 158,-231.7 158,-214.7 158,-214.7"/>
<polygon fill="none" stroke="#000000" stroke-width="2" points="9,-212.7 9,-344.7 221,-344.7 221,-212.7 9,-212.7"/>
</a>
</g>
</g>
<!-- ausgabegruppe_ausgabetagzeit&#45;&gt;ausgabegruppe -->
<g id="edge1" class="edge">
<title>ausgabegruppe_ausgabetagzeit:w&#45;&gt;ausgabegruppe:e</title>
<path fill="none" stroke="#000000" d="M257.4805,-336.8988C244.2585,-328.6209 240.8716,-309.7 220,-309.7"/>
<polygon fill="#000000" stroke="#000000" points="263.7788,-338.6064 270.5579,-344.1745 267.6394,-339.6532 271.5,-340.7 271.5,-340.7 271.5,-340.7 267.6394,-339.6532 272.4421,-337.2255 263.7788,-338.6064 263.7788,-338.6064"/>
<ellipse fill="none" stroke="#000000" cx="260.6903" cy="-337.769" rx="3.2" ry="3.2"/>
</g>
<!-- ausgabetagzeit -->
<g id="node3" class="node">
<title>ausgabetagzeit</title>
<g id="a_node3"><a xlink:href="../../tables/ausgabetagzeit.html" xlink:title="ausgabetagzeit" target="_top">
<polygon fill="#ffffff" stroke="transparent" points="39,-367.2 39,-428.2 191,-428.2 191,-367.2 39,-367.2"/>
<polygon fill="#f5f5f5" stroke="transparent" points="39,-404.7 39,-427.7 191,-427.7 191,-404.7 39,-404.7"/>
<polygon fill="none" stroke="#000000" points="39,-404.7 39,-427.7 191,-427.7 191,-404.7 39,-404.7"/>
<text text-anchor="start" x="44" y="-413.3" font-family="Helvetica,sans-Serif" font-weight="bold" font-size="11.00" fill="#000000">ausgabetagzeit</text>
<text text-anchor="start" x="156.5219" y="-412.8" font-family="Helvetica,sans-Serif" font-size="11.00" fill="#000000">[table]</text>
<polygon fill="none" stroke="#000000" points="39,-385.7 39,-404.7 191,-404.7 191,-385.7 39,-385.7"/>
<text text-anchor="start" x="42" y="-391.8" font-family="Helvetica,sans-Serif" font-size="11.00" fill="#000000">...</text>
<polygon fill="#ffffff" stroke="transparent" points="39,-366.7 39,-385.7 191,-385.7 191,-366.7 39,-366.7"/>
<polygon fill="none" stroke="#000000" points="39,-366.7 39,-385.7 191,-385.7 191,-366.7 39,-366.7"/>
<polygon fill="#ffffff" stroke="transparent" points="40,-367.7 40,-384.7 79,-384.7 79,-367.7 40,-367.7"/>
<text text-anchor="start" x="42" y="-372.8" font-family="Helvetica,sans-Serif" font-size="11.00" fill="#000000"> &#160;</text>
<polygon fill="#ffffff" stroke="transparent" points="79,-367.7 79,-384.7 143,-384.7 143,-367.7 79,-367.7"/>
<text text-anchor="start" x="94.8053" y="-372.8" font-family="Helvetica,sans-Serif" font-size="11.00" fill="#000000">0 rows</text>
<polygon fill="#ffffff" stroke="transparent" points="143,-367.7 143,-384.7 190,-384.7 190,-367.7 143,-367.7"/>
<text text-anchor="start" x="172.4053" y="-372.8" font-family="Helvetica,sans-Serif" font-size="11.00" fill="#000000">1 &gt;</text>
<polygon fill="#000000" stroke="#000000" points="79,-367.7 79,-384.7 79,-384.7 79,-367.7 79,-367.7"/>
<polygon fill="#000000" stroke="#000000" points="143,-367.7 143,-384.7 143,-384.7 143,-367.7 143,-367.7"/>
</a>
</g>
</g>
<!-- ausgabegruppe_ausgabetagzeit&#45;&gt;ausgabetagzeit -->
<g id="edge2" class="edge">
<title>ausgabegruppe_ausgabetagzeit:w&#45;&gt;ausgabetagzeit:e</title>
<path fill="none" stroke="#000000" d="M257.1393,-364.4205C231.323,-371.0672 224.0867,-394.7 191,-394.7"/>
<polygon fill="#000000" stroke="#000000" points="263.5568,-363.6517 271.9283,-366.2744 267.5284,-363.1758 271.5,-362.7 271.5,-362.7 271.5,-362.7 267.5284,-363.1758 271.0717,-359.1256 263.5568,-363.6517 263.5568,-363.6517"/>
<ellipse fill="none" stroke="#000000" cx="260.3795" cy="-364.0323" rx="3.2" ry="3.2"/>
</g>
<!-- einkauf -->
<g id="node4" class="node">
<title>einkauf</title>
<g id="a_node4"><a xlink:href="../../tables/einkauf.html" xlink:title="einkauf" target="_top">
<polygon fill="#ffffff" stroke="transparent" points="808.5,-79.2 808.5,-140.2 901.5,-140.2 901.5,-79.2 808.5,-79.2"/>
<polygon fill="#f5f5f5" stroke="transparent" points="809,-116.7 809,-139.7 902,-139.7 902,-116.7 809,-116.7"/>
<polygon fill="none" stroke="#000000" points="809,-116.7 809,-139.7 902,-139.7 902,-116.7 809,-116.7"/>
<text text-anchor="start" x="814" y="-125.3" font-family="Helvetica,sans-Serif" font-weight="bold" font-size="11.00" fill="#000000">einkauf</text>
<text text-anchor="start" x="867.5219" y="-124.8" font-family="Helvetica,sans-Serif" font-size="11.00" fill="#000000">[table]</text>
<polygon fill="none" stroke="#000000" points="809,-97.7 809,-116.7 902,-116.7 902,-97.7 809,-97.7"/>
<text text-anchor="start" x="812" y="-103.8" font-family="Helvetica,sans-Serif" font-size="11.00" fill="#000000">...</text>
<polygon fill="#ffffff" stroke="transparent" points="809,-78.7 809,-97.7 902,-97.7 902,-78.7 809,-78.7"/>
<polygon fill="none" stroke="#000000" points="809,-78.7 809,-97.7 902,-97.7 902,-78.7 809,-78.7"/>
<polygon fill="#ffffff" stroke="transparent" points="810,-79.7 810,-96.7 831,-96.7 831,-79.7 810,-79.7"/>
<text text-anchor="start" x="812" y="-84.8" font-family="Helvetica,sans-Serif" font-size="11.00" fill="#000000">&lt; 4</text>
<polygon fill="#ffffff" stroke="transparent" points="831,-79.7 831,-96.7 890,-96.7 890,-79.7 831,-79.7"/>
<text text-anchor="start" x="833.6045" y="-84.8" font-family="Helvetica,sans-Serif" font-size="11.00" fill="#000000">3,276 rows</text>
<polygon fill="#ffffff" stroke="transparent" points="890,-79.7 890,-96.7 901,-96.7 901,-79.7 890,-79.7"/>
<text text-anchor="start" x="892.8862" y="-84.8" font-family="Helvetica,sans-Serif" font-size="11.00" fill="#000000"> &#160;</text>
<polygon fill="#000000" stroke="#000000" points="831,-79.7 831,-96.7 831,-96.7 831,-79.7 831,-79.7"/>
<polygon fill="#000000" stroke="#000000" points="890,-79.7 890,-96.7 890,-96.7 890,-79.7 890,-79.7"/>
</a>
</g>
</g>
<!-- verteilstelle -->
<g id="node5" class="node">
<title>verteilstelle</title>
<g id="a_node5"><a xlink:href="../../tables/verteilstelle.html" xlink:title="verteilstelle" target="_top">
<polygon fill="#ffffff" stroke="transparent" points="51.5,-38.2 51.5,-99.2 178.5,-99.2 178.5,-38.2 51.5,-38.2"/>
<polygon fill="#f5f5f5" stroke="transparent" points="52,-75.7 52,-98.7 179,-98.7 179,-75.7 52,-75.7"/>
<polygon fill="none" stroke="#000000" points="52,-75.7 52,-98.7 179,-98.7 179,-75.7 52,-75.7"/>
<text text-anchor="start" x="57" y="-84.3" font-family="Helvetica,sans-Serif" font-weight="bold" font-size="11.00" fill="#000000">verteilstelle</text>
<text text-anchor="start" x="144.5219" y="-83.8" font-family="Helvetica,sans-Serif" font-size="11.00" fill="#000000">[table]</text>
<polygon fill="none" stroke="#000000" points="52,-56.7 52,-75.7 179,-75.7 179,-56.7 52,-56.7"/>
<text text-anchor="start" x="55" y="-62.8" font-family="Helvetica,sans-Serif" font-size="11.00" fill="#000000">...</text>
<polygon fill="#ffffff" stroke="transparent" points="52,-37.7 52,-56.7 179,-56.7 179,-37.7 52,-37.7"/>
<polygon fill="none" stroke="#000000" points="52,-37.7 52,-56.7 179,-56.7 179,-37.7 52,-37.7"/>
<polygon fill="#ffffff" stroke="transparent" points="53,-38.7 53,-55.7 83,-55.7 83,-38.7 53,-38.7"/>
<text text-anchor="start" x="55" y="-43.8" font-family="Helvetica,sans-Serif" font-size="11.00" fill="#000000"> &#160;</text>
<polygon fill="#ffffff" stroke="transparent" points="83,-38.7 83,-55.7 139,-55.7 139,-38.7 83,-38.7"/>
<text text-anchor="start" x="94.8053" y="-43.8" font-family="Helvetica,sans-Serif" font-size="11.00" fill="#000000">0 rows</text>
<polygon fill="#ffffff" stroke="transparent" points="139,-38.7 139,-55.7 178,-55.7 178,-38.7 139,-38.7"/>
<text text-anchor="start" x="160.4053" y="-43.8" font-family="Helvetica,sans-Serif" font-size="11.00" fill="#000000">2 &gt;</text>
<polygon fill="#000000" stroke="#000000" points="83,-38.7 83,-55.7 83,-55.7 83,-38.7 83,-38.7"/>
<polygon fill="#000000" stroke="#000000" points="139,-38.7 139,-55.7 139,-55.7 139,-38.7 139,-38.7"/>
</a>
</g>
</g>
<!-- einkauf&#45;&gt;verteilstelle -->
<g id="edge3" class="edge">
<title>einkauf:w&#45;&gt;verteilstelle:e</title>
<path fill="none" stroke="#000000" d="M794.4156,-105.7884C782.6167,-104.1433 775.5086,-100.5813 759,-97.7 667.0837,-81.6573 644.9788,-70.5051 552,-62.7 424.0057,-51.9555 391.424,-60.4074 263,-62.7 225.6488,-63.3668 216.3571,-65.7 179,-65.7"/>
<polygon fill="#000000" stroke="#000000" points="801.0156,-106.2009 808.7754,-110.293 805.0078,-106.4504 809,-106.7 809,-106.7 809,-106.7 805.0078,-106.4504 809.2246,-103.107 801.0156,-106.2009 801.0156,-106.2009"/>
<ellipse fill="none" stroke="#000000" cx="797.8218" cy="-106.0012" rx="3.2" ry="3.2"/>
</g>
<!-- haushalt -->
<g id="node6" class="node">
<title>haushalt</title>
<g id="a_node6"><a xlink:href="../../tables/haushalt.html" xlink:title="haushalt" target="_top">
<polygon fill="#ffffff" stroke="transparent" points="312,-73.2 312,-222.2 503,-222.2 503,-73.2 312,-73.2"/>
<polygon fill="#f5f5f5" stroke="transparent" points="312.5,-198.7 312.5,-221.7 503.5,-221.7 503.5,-198.7 312.5,-198.7"/>
<polygon fill="none" stroke="#000000" points="312.5,-198.7 312.5,-221.7 503.5,-221.7 503.5,-198.7 312.5,-198.7"/>
<text text-anchor="start" x="317.5" y="-207.3" font-family="Helvetica,sans-Serif" font-weight="bold" font-size="11.00" fill="#000000">haushalt</text>
<text text-anchor="start" x="468.5437" y="-206.8" font-family="Helvetica,sans-Serif" font-size="11.00" fill="#000000">[table]</text>
<polygon fill="none" stroke="#000000" points="312.5,-176.7 312.5,-198.7 503.5,-198.7 503.5,-176.7 312.5,-176.7"/>
<image xlink:href="../../images/primaryKeys.png" width="11px" height="12px" preserveAspectRatio="xMinYMin meet" x="317.5" y="-193.7"/>
<text text-anchor="start" x="332.5" y="-183.8" font-family="Helvetica,sans-Serif" font-size="11.00" fill="#000000">kundennummer</text>
<polygon fill="#ffffff" stroke="transparent" points="312.5,-154.7 312.5,-176.7 503.5,-176.7 503.5,-154.7 312.5,-154.7"/>
<polygon fill="none" stroke="#000000" points="312.5,-154.7 312.5,-176.7 503.5,-176.7 503.5,-154.7 312.5,-154.7"/>
<image xlink:href="../../images/foreignKeys.png" width="11px" height="12px" preserveAspectRatio="xMinYMin meet" x="317.5" y="-171.7"/>
<text text-anchor="start" x="332.5" y="-161.8" font-family="Helvetica,sans-Serif" font-size="11.00" fill="#000000">plz</text>
<polygon fill="#ffffff" stroke="transparent" points="312.5,-132.7 312.5,-154.7 503.5,-154.7 503.5,-132.7 312.5,-132.7"/>
<polygon fill="none" stroke="#000000" points="312.5,-132.7 312.5,-154.7 503.5,-154.7 503.5,-132.7 312.5,-132.7"/>
<image xlink:href="../../images/foreignKeys.png" width="11px" height="12px" preserveAspectRatio="xMinYMin meet" x="317.5" y="-149.7"/>
<text text-anchor="start" x="332.5" y="-139.8" font-family="Helvetica,sans-Serif" font-size="11.00" fill="#000000">verteilstellenId</text>
<polygon fill="#ffffff" stroke="transparent" points="312.5,-110.7 312.5,-132.7 503.5,-132.7 503.5,-110.7 312.5,-110.7"/>
<polygon fill="none" stroke="#000000" points="312.5,-110.7 312.5,-132.7 503.5,-132.7 503.5,-110.7 312.5,-110.7"/>
<image xlink:href="../../images/foreignKeys.png" width="11px" height="12px" preserveAspectRatio="xMinYMin meet" x="317.5" y="-127.7"/>
<text text-anchor="start" x="332.5" y="-117.8" font-family="Helvetica,sans-Serif" font-size="11.00" fill="#000000">ausgabeGruppeId</text>
<polygon fill="none" stroke="#000000" points="312.5,-91.7 312.5,-110.7 503.5,-110.7 503.5,-91.7 312.5,-91.7"/>
<text text-anchor="start" x="315.5" y="-97.8" font-family="Helvetica,sans-Serif" font-size="11.00" fill="#000000">...</text>
<polygon fill="#ffffff" stroke="transparent" points="312.5,-72.7 312.5,-91.7 503.5,-91.7 503.5,-72.7 312.5,-72.7"/>
<polygon fill="none" stroke="#000000" points="312.5,-72.7 312.5,-91.7 503.5,-91.7 503.5,-72.7 312.5,-72.7"/>
<polygon fill="#ffffff" stroke="transparent" points="313.5,-73.7 313.5,-90.7 367.5,-90.7 367.5,-73.7 313.5,-73.7"/>
<text text-anchor="start" x="315.5" y="-78.8" font-family="Helvetica,sans-Serif" font-size="11.00" fill="#000000">&lt; 3</text>
<polygon fill="#ffffff" stroke="transparent" points="367.5,-73.7 367.5,-90.7 449.5,-90.7 449.5,-73.7 367.5,-73.7"/>
<text text-anchor="start" x="386.1904" y="-78.8" font-family="Helvetica,sans-Serif" font-size="11.00" fill="#000000">639 rows</text>
<polygon fill="#ffffff" stroke="transparent" points="449.5,-73.7 449.5,-90.7 502.5,-90.7 502.5,-73.7 449.5,-73.7"/>
<text text-anchor="start" x="484.9053" y="-78.8" font-family="Helvetica,sans-Serif" font-size="11.00" fill="#000000">3 &gt;</text>
<polygon fill="#000000" stroke="#000000" points="367.5,-73.7 367.5,-90.7 367.5,-90.7 367.5,-73.7 367.5,-73.7"/>
<polygon fill="#000000" stroke="#000000" points="449.5,-73.7 449.5,-90.7 449.5,-90.7 449.5,-73.7 449.5,-73.7"/>
</a>
</g>
</g>
<!-- einkauf&#45;&gt;haushalt -->
<g id="edge4" class="edge">
<title>einkauf:w&#45;&gt;haushalt:e</title>
<path fill="none" stroke="#000000" d="M794.5883,-106.5422C705.9661,-104.5996 673.1868,-85.9628 585,-120.7 541.3717,-137.8854 550.391,-187.7 503.5,-187.7"/>
<polygon fill="#000000" stroke="#000000" points="801.0005,-106.6124 808.9606,-110.2998 805.0002,-106.6562 809,-106.7 809,-106.7 809,-106.7 805.0002,-106.6562 809.0394,-103.1002 801.0005,-106.6124 801.0005,-106.6124"/>
<ellipse fill="none" stroke="#000000" cx="797.8007" cy="-106.5773" rx="3.2" ry="3.2"/>
</g>
<!-- familienmitglied -->
<g id="node7" class="node">
<title>familienmitglied</title>
<g id="a_node7"><a xlink:href="../../tables/familienmitglied.html" xlink:title="familienmitglied" target="_top">
<polygon fill="#ffffff" stroke="transparent" points="593,-131.2 593,-192.2 751,-192.2 751,-131.2 593,-131.2"/>
<polygon fill="#f5f5f5" stroke="transparent" points="593,-168.7 593,-191.7 751,-191.7 751,-168.7 593,-168.7"/>
<polygon fill="none" stroke="#000000" points="593,-168.7 593,-191.7 751,-191.7 751,-168.7 593,-168.7"/>
<text text-anchor="start" x="598" y="-177.3" font-family="Helvetica,sans-Serif" font-weight="bold" font-size="11.00" fill="#000000">familienmitglied</text>
<text text-anchor="start" x="716.5219" y="-176.8" font-family="Helvetica,sans-Serif" font-size="11.00" fill="#000000">[table]</text>
<polygon fill="none" stroke="#000000" points="593,-149.7 593,-168.7 751,-168.7 751,-149.7 593,-149.7"/>
<text text-anchor="start" x="596" y="-155.8" font-family="Helvetica,sans-Serif" font-size="11.00" fill="#000000">...</text>
<polygon fill="#ffffff" stroke="transparent" points="593,-130.7 593,-149.7 751,-149.7 751,-130.7 593,-130.7"/>
<polygon fill="none" stroke="#000000" points="593,-130.7 593,-149.7 751,-149.7 751,-130.7 593,-130.7"/>
<polygon fill="#ffffff" stroke="transparent" points="594,-131.7 594,-148.7 634,-148.7 634,-131.7 594,-131.7"/>
<text text-anchor="start" x="596" y="-136.8" font-family="Helvetica,sans-Serif" font-size="11.00" fill="#000000">&lt; 3</text>
<polygon fill="#ffffff" stroke="transparent" points="634,-131.7 634,-148.7 711,-148.7 711,-131.7 634,-131.7"/>
<text text-anchor="start" x="645.6045" y="-136.8" font-family="Helvetica,sans-Serif" font-size="11.00" fill="#000000">1,525 rows</text>
<polygon fill="#ffffff" stroke="transparent" points="711,-131.7 711,-148.7 750,-148.7 750,-131.7 711,-131.7"/>
<text text-anchor="start" x="732.4053" y="-136.8" font-family="Helvetica,sans-Serif" font-size="11.00" fill="#000000">3 &gt;</text>
<polygon fill="#000000" stroke="#000000" points="634,-131.7 634,-148.7 634,-148.7 634,-131.7 634,-131.7"/>
<polygon fill="#000000" stroke="#000000" points="711,-131.7 711,-148.7 711,-148.7 711,-131.7 711,-131.7"/>
</a>
</g>
</g>
<!-- einkauf&#45;&gt;familienmitglied -->
<g id="edge5" class="edge">
<title>einkauf:w&#45;&gt;familienmitglied:e</title>
<path fill="none" stroke="#000000" d="M795.0014,-110.6085C776.8616,-122.7016 779.8058,-158.7 751,-158.7"/>
<polygon fill="#000000" stroke="#000000" points="801.2947,-108.8514 809.9681,-110.1674 805.1473,-107.7757 809,-106.7 809,-106.7 809,-106.7 805.1473,-107.7757 808.0319,-103.2326 801.2947,-108.8514 801.2947,-108.8514"/>
<ellipse fill="none" stroke="#000000" cx="798.2126" cy="-109.7119" rx="3.2" ry="3.2"/>
</g>
<!-- haushalt&#45;&gt;ausgabegruppe -->
<g id="edge7" class="edge">
<title>haushalt:w&#45;&gt;ausgabegruppe:e</title>
<path fill="none" stroke="#000000" d="M297.9804,-123.5607C229.7223,-143.0858 307.6654,-309.7 220,-309.7"/>
<polygon fill="#000000" stroke="#000000" points="304.5649,-122.7169 312.9576,-125.2708 308.5324,-122.2085 312.5,-121.7 312.5,-121.7 312.5,-121.7 308.5324,-122.2085 312.0424,-118.1292 304.5649,-122.7169 304.5649,-122.7169"/>
<ellipse fill="none" stroke="#000000" cx="301.3908" cy="-123.1237" rx="3.2" ry="3.2"/>
</g>
<!-- haushalt&#45;&gt;verteilstelle -->
<g id="edge9" class="edge">
<title>haushalt:w&#45;&gt;verteilstelle:e</title>
<path fill="none" stroke="#000000" d="M297.9972,-142.4112C243.9598,-132.2698 242.484,-65.7 179,-65.7"/>
<polygon fill="#000000" stroke="#000000" points="304.5314,-142.9918 312.1813,-147.2859 308.5157,-143.3459 312.5,-143.7 312.5,-143.7 312.5,-143.7 308.5157,-143.3459 312.8187,-140.1141 304.5314,-142.9918 304.5314,-142.9918"/>
<ellipse fill="none" stroke="#000000" cx="301.344" cy="-142.7086" rx="3.2" ry="3.2"/>
</g>
<!-- plz -->
<g id="node8" class="node">
<title>plz</title>
<g id="a_node8"><a xlink:href="../../tables/plz.html" xlink:title="plz" target="_top">
<polygon fill="#ffffff" stroke="transparent" points="78.5,-129.2 78.5,-190.2 151.5,-190.2 151.5,-129.2 78.5,-129.2"/>
<polygon fill="#f5f5f5" stroke="transparent" points="79,-166.7 79,-189.7 152,-189.7 152,-166.7 79,-166.7"/>
<polygon fill="none" stroke="#000000" points="79,-166.7 79,-189.7 152,-189.7 152,-166.7 79,-166.7"/>
<text text-anchor="start" x="84" y="-175.3" font-family="Helvetica,sans-Serif" font-weight="bold" font-size="11.00" fill="#000000">plz</text>
<text text-anchor="start" x="117.0437" y="-174.8" font-family="Helvetica,sans-Serif" font-size="11.00" fill="#000000">[table]</text>
<polygon fill="none" stroke="#000000" points="79,-147.7 79,-166.7 152,-166.7 152,-147.7 79,-147.7"/>
<text text-anchor="start" x="82" y="-153.8" font-family="Helvetica,sans-Serif" font-size="11.00" fill="#000000">...</text>
<polygon fill="#ffffff" stroke="transparent" points="79,-128.7 79,-147.7 152,-147.7 152,-128.7 79,-128.7"/>
<polygon fill="none" stroke="#000000" points="79,-128.7 79,-147.7 152,-147.7 152,-128.7 79,-128.7"/>
<polygon fill="#ffffff" stroke="transparent" points="80,-129.7 80,-146.7 90,-146.7 90,-129.7 80,-129.7"/>
<text text-anchor="start" x="81.9431" y="-134.8" font-family="Helvetica,sans-Serif" font-size="11.00" fill="#000000"> &#160;</text>
<polygon fill="#ffffff" stroke="transparent" points="90,-129.7 90,-146.7 132,-146.7 132,-129.7 90,-129.7"/>
<text text-anchor="start" x="91.7478" y="-134.8" font-family="Helvetica,sans-Serif" font-size="11.00" fill="#000000">29 rows</text>
<polygon fill="#ffffff" stroke="transparent" points="132,-129.7 132,-146.7 151,-146.7 151,-129.7 132,-129.7"/>
<text text-anchor="start" x="133.7027" y="-134.8" font-family="Helvetica,sans-Serif" font-size="11.00" fill="#000000">2 &gt;</text>
<polygon fill="#000000" stroke="#000000" points="90,-129.7 90,-146.7 90,-146.7 90,-129.7 90,-129.7"/>
<polygon fill="#000000" stroke="#000000" points="132,-129.7 132,-146.7 132,-146.7 132,-129.7 132,-129.7"/>
</a>
</g>
</g>
<!-- haushalt&#45;&gt;plz -->
<g id="edge8" class="edge">
<title>haushalt:w&#45;&gt;plz:e</title>
<path fill="none" stroke="#000000" d="M297.8137,-165.5658C238.2284,-164.4462 218.2823,-156.7 152,-156.7"/>
<polygon fill="#000000" stroke="#000000" points="304.5003,-165.6268 312.4671,-169.2998 308.5002,-165.6634 312.5,-165.7 312.5,-165.7 312.5,-165.7 308.5002,-165.6634 312.5329,-162.1002 304.5003,-165.6268 304.5003,-165.6268"/>
<ellipse fill="none" stroke="#000000" cx="301.3005" cy="-165.5976" rx="3.2" ry="3.2"/>
</g>
<!-- familienmitglied&#45;&gt;haushalt -->
<g id="edge6" class="edge">
<title>familienmitglied:w&#45;&gt;haushalt:e</title>
<path fill="none" stroke="#000000" d="M578.4675,-160.0214C549.075,-165.6947 539.9238,-187.7 503.5,-187.7"/>
<polygon fill="#000000" stroke="#000000" points="585.0329,-159.4245 593.326,-162.2852 589.0164,-159.0622 593,-158.7 593,-158.7 593,-158.7 589.0164,-159.0622 592.674,-155.1148 585.0329,-159.4245 585.0329,-159.4245"/>
<ellipse fill="none" stroke="#000000" cx="581.846" cy="-159.7143" rx="3.2" ry="3.2"/>
</g>
<!-- vollmacht -->
<g id="node9" class="node">
<title>vollmacht</title>
<g id="a_node9"><a xlink:href="../../tables/vollmacht.html" xlink:title="vollmacht" target="_top">
<polygon fill="#ffffff" stroke="transparent" points="800,-175.2 800,-236.2 910,-236.2 910,-175.2 800,-175.2"/>
<polygon fill="#f5f5f5" stroke="transparent" points="800,-212.7 800,-235.7 910,-235.7 910,-212.7 800,-212.7"/>
<polygon fill="none" stroke="#000000" points="800,-212.7 800,-235.7 910,-235.7 910,-212.7 800,-212.7"/>
<text text-anchor="start" x="805" y="-221.3" font-family="Helvetica,sans-Serif" font-weight="bold" font-size="11.00" fill="#000000">vollmacht</text>
<text text-anchor="start" x="875.5219" y="-220.8" font-family="Helvetica,sans-Serif" font-size="11.00" fill="#000000">[table]</text>
<polygon fill="none" stroke="#000000" points="800,-193.7 800,-212.7 910,-212.7 910,-193.7 800,-193.7"/>
<text text-anchor="start" x="803" y="-199.8" font-family="Helvetica,sans-Serif" font-size="11.00" fill="#000000">...</text>
<polygon fill="#ffffff" stroke="transparent" points="800,-174.7 800,-193.7 910,-193.7 910,-174.7 800,-174.7"/>
<polygon fill="none" stroke="#000000" points="800,-174.7 800,-193.7 910,-193.7 910,-174.7 800,-174.7"/>
<polygon fill="#ffffff" stroke="transparent" points="801,-175.7 801,-192.7 835,-192.7 835,-175.7 801,-175.7"/>
<text text-anchor="start" x="803" y="-180.8" font-family="Helvetica,sans-Serif" font-size="11.00" fill="#000000">&lt; 2</text>
<polygon fill="#ffffff" stroke="transparent" points="835,-175.7 835,-192.7 885,-192.7 885,-175.7 835,-175.7"/>
<text text-anchor="start" x="843.8053" y="-180.8" font-family="Helvetica,sans-Serif" font-size="11.00" fill="#000000">0 rows</text>
<polygon fill="#ffffff" stroke="transparent" points="885,-175.7 885,-192.7 909,-192.7 909,-175.7 885,-175.7"/>
<text text-anchor="start" x="900.8862" y="-180.8" font-family="Helvetica,sans-Serif" font-size="11.00" fill="#000000"> &#160;</text>
<polygon fill="#000000" stroke="#000000" points="835,-175.7 835,-192.7 835,-192.7 835,-175.7 835,-175.7"/>
<polygon fill="#000000" stroke="#000000" points="885,-175.7 885,-192.7 885,-192.7 885,-175.7 885,-175.7"/>
</a>
</g>
</g>
<!-- vollmacht&#45;&gt;haushalt -->
<g id="edge11" class="edge">
<title>vollmacht:w&#45;&gt;haushalt:e</title>
<path fill="none" stroke="#000000" d="M785.4566,-202.7686C701.6861,-203.5676 675.1419,-210.9262 585,-202.7 548.3218,-199.3528 540.3306,-187.7 503.5,-187.7"/>
<polygon fill="#000000" stroke="#000000" points="792.0001,-202.7378 800.017,-206.3 796,-202.7189 800,-202.7 800,-202.7 800,-202.7 796,-202.7189 799.983,-199.1 792.0001,-202.7378 792.0001,-202.7378"/>
<ellipse fill="none" stroke="#000000" cx="788.8001" cy="-202.7529" rx="3.2" ry="3.2"/>
</g>
<!-- vollmacht&#45;&gt;familienmitglied -->
<g id="edge10" class="edge">
<title>vollmacht:w&#45;&gt;familienmitglied:e</title>
<path fill="none" stroke="#000000" d="M786.3171,-197.9912C773.0046,-186.6404 774.324,-158.7 751,-158.7"/>
<polygon fill="#000000" stroke="#000000" points="792.4354,-200.0967 798.8285,-206.1041 796.2177,-201.3984 800,-202.7 800,-202.7 800,-202.7 796.2177,-201.3984 801.1715,-199.2959 792.4354,-200.0967 792.4354,-200.0967"/>
<ellipse fill="none" stroke="#000000" cx="789.4096" cy="-199.0554" rx="3.2" ry="3.2"/>
</g>
</g>
</svg>
