<?xml version="1.0" encoding="UTF-8" standalone="no"?>
<!DOCTYPE svg PUBLIC "-//W3C//DTD SVG 1.1//EN"
 "http://www.w3.org/Graphics/SVG/1.1/DTD/svg11.dtd">
<!-- Generated by graphviz version 2.40.1 (20161225.0304)
 -->
<!-- Title: oneDegreeRelationshipsDiagram Pages: 1 -->
<svg width="520pt" height="285pt"
 viewBox="0.00 0.00 520.00 284.70" xmlns="http://www.w3.org/2000/svg" xmlns:xlink="http://www.w3.org/1999/xlink">
<g id="graph0" class="graph" transform="scale(1 1) rotate(0) translate(4 280.7)">
<title>oneDegreeRelationshipsDiagram</title>
<polygon fill="#ffffff" stroke="transparent" points="-4,4 -4,-280.7 516,-280.7 516,4 -4,4"/>
<text text-anchor="middle" x="72.4936" y="-7.3" font-family="Helvetica,sans-Serif" font-size="11.00" fill="#000000">Generated by SchemaSpy</text>
<!-- ausgabegruppe_ausgabetagzeit -->
<g id="node1" class="node">
<title>ausgabegruppe_ausgabetagzeit</title>
<g id="a_node1"><a xlink:href="../../tables/ausgabegruppe_ausgabetagzeit.html" xlink:title="ausgabegruppe_ausgabetagzeit" target="_top">
<polygon fill="#ffffff" stroke="transparent" points="210,-119.7 210,-209.7 504,-209.7 504,-119.7 210,-119.7"/>
<polygon fill="#f5f5f5" stroke="transparent" points="212,-184.7 212,-207.7 502,-207.7 502,-184.7 212,-184.7"/>
<polygon fill="none" stroke="#000000" points="212,-184.7 212,-207.7 502,-207.7 502,-184.7 212,-184.7"/>
<text text-anchor="start" x="217" y="-193.3" font-family="Helvetica,sans-Serif" font-weight="bold" font-size="11.00" fill="#000000">ausgabegruppe_ausgabetagzeit</text>
<text text-anchor="start" x="467.0437" y="-192.8" font-family="Helvetica,sans-Serif" font-size="11.00" fill="#000000">[table]</text>
<polygon fill="#ffffff" stroke="transparent" points="212,-162.7 212,-184.7 467,-184.7 467,-162.7 212,-162.7"/>
<polygon fill="none" stroke="#000000" points="212,-162.7 212,-184.7 467,-184.7 467,-162.7 212,-162.7"/>
<image xlink:href="../../images/foreignKeys.png" width="11px" height="12px" preserveAspectRatio="xMinYMin meet" x="217" y="-179.7"/>
<text text-anchor="start" x="232" y="-169.8" font-family="Helvetica,sans-Serif" font-size="11.00" fill="#000000">ausgabeTagZeitId</text>
<polygon fill="none" stroke="#000000" points="467,-162.7 467,-184.7 502,-184.7 502,-162.7 467,-162.7"/>
<text text-anchor="start" x="469.5219" y="-170.4" font-family="Helvetica,sans-Serif" font-size="11.00" fill="#000000">int[10]</text>
<polygon fill="#ffffff" stroke="transparent" points="212,-140.7 212,-162.7 467,-162.7 467,-140.7 212,-140.7"/>
<polygon fill="none" stroke="#000000" points="212,-140.7 212,-162.7 467,-162.7 467,-140.7 212,-140.7"/>
<image xlink:href="../../images/foreignKeys.png" width="11px" height="12px" preserveAspectRatio="xMinYMin meet" x="217" y="-157.7"/>
<text text-anchor="start" x="232" y="-147.8" font-family="Helvetica,sans-Serif" font-size="11.00" fill="#000000">ausgabegruppeId</text>
<polygon fill="none" stroke="#000000" points="467,-140.7 467,-162.7 502,-162.7 502,-140.7 467,-140.7"/>
<text text-anchor="start" x="469.5219" y="-148.4" font-family="Helvetica,sans-Serif" font-size="11.00" fill="#000000">int[10]</text>
<polygon fill="#ffffff" stroke="transparent" points="212,-121.7 212,-140.7 502,-140.7 502,-121.7 212,-121.7"/>
<polygon fill="none" stroke="#000000" points="212,-121.7 212,-140.7 502,-140.7 502,-121.7 212,-121.7"/>
<polygon fill="#ffffff" stroke="transparent" points="213,-122.7 213,-139.7 304,-139.7 304,-122.7 213,-122.7"/>
<text text-anchor="start" x="215" y="-127.8" font-family="Helvetica,sans-Serif" font-size="11.00" fill="#000000">&lt; 2</text>
<polygon fill="#ffffff" stroke="transparent" points="304,-122.7 304,-139.7 411,-139.7 411,-122.7 304,-122.7"/>
<text text-anchor="start" x="341.3053" y="-127.8" font-family="Helvetica,sans-Serif" font-size="11.00" fill="#000000">0 rows</text>
<polygon fill="#ffffff" stroke="transparent" points="411,-122.7 411,-139.7 501,-139.7 501,-122.7 411,-122.7"/>
<text text-anchor="start" x="483.4053" y="-127.8" font-family="Helvetica,sans-Serif" font-size="11.00" fill="#000000">0 &gt;</text>
<polygon fill="#000000" stroke="#000000" points="304,-122.7 304,-139.7 304,-139.7 304,-122.7 304,-122.7"/>
<polygon fill="#000000" stroke="#000000" points="411,-122.7 411,-139.7 411,-139.7 411,-122.7 411,-122.7"/>
<polygon fill="none" stroke="#000000" stroke-width="2" points="211,-120.7 211,-208.7 503,-208.7 503,-120.7 211,-120.7"/>
</a>
</g>
</g>
<!-- ausgabegruppe -->
<g id="node2" class="node">
<title>ausgabegruppe</title>
<g id="a_node2"><a xlink:href="../../tables/ausgabegruppe.html" xlink:title="ausgabegruppe" target="_top">
<polygon fill="#ffffff" stroke="transparent" points="8,-38.2 8,-121.2 161,-121.2 161,-38.2 8,-38.2"/>
<polygon fill="#f5f5f5" stroke="transparent" points="8.5,-97.7 8.5,-120.7 161.5,-120.7 161.5,-97.7 8.5,-97.7"/>
<polygon fill="none" stroke="#000000" points="8.5,-97.7 8.5,-120.7 161.5,-120.7 161.5,-97.7 8.5,-97.7"/>
<text text-anchor="start" x="13.5" y="-106.3" font-family="Helvetica,sans-Serif" font-weight="bold" font-size="11.00" fill="#000000">ausgabegruppe</text>
<text text-anchor="start" x="127.0219" y="-105.8" font-family="Helvetica,sans-Serif" font-size="11.00" fill="#000000">[table]</text>
<polygon fill="none" stroke="#000000" points="8.5,-75.7 8.5,-97.7 161.5,-97.7 161.5,-75.7 8.5,-75.7"/>
<image xlink:href="../../images/primaryKeys.png" width="11px" height="12px" preserveAspectRatio="xMinYMin meet" x="13.5" y="-92.7"/>
<text text-anchor="start" x="30.5" y="-82.8" font-family="Helvetica,sans-Serif" font-size="11.00" fill="#000000">ausgabegruppeId</text>
<polygon fill="none" stroke="#000000" points="8.5,-56.7 8.5,-75.7 161.5,-75.7 161.5,-56.7 8.5,-56.7"/>
<text text-anchor="start" x="11.5" y="-62.8" font-family="Helvetica,sans-Serif" font-size="11.00" fill="#000000">...</text>
<polygon fill="#ffffff" stroke="transparent" points="8.5,-37.7 8.5,-56.7 161.5,-56.7 161.5,-37.7 8.5,-37.7"/>
<polygon fill="none" stroke="#000000" points="8.5,-37.7 8.5,-56.7 161.5,-56.7 161.5,-37.7 8.5,-37.7"/>
<polygon fill="#ffffff" stroke="transparent" points="9.5,-38.7 9.5,-55.7 46.5,-55.7 46.5,-38.7 9.5,-38.7"/>
<text text-anchor="start" x="11.5" y="-43.8" font-family="Helvetica,sans-Serif" font-size="11.00" fill="#000000"> &#160;</text>
<polygon fill="#ffffff" stroke="transparent" points="46.5,-38.7 46.5,-55.7 115.5,-55.7 115.5,-38.7 46.5,-38.7"/>
<text text-anchor="start" x="61.7478" y="-43.8" font-family="Helvetica,sans-Serif" font-size="11.00" fill="#000000">24 rows</text>
<polygon fill="#ffffff" stroke="transparent" points="115.5,-38.7 115.5,-55.7 160.5,-55.7 160.5,-38.7 115.5,-38.7"/>
<text text-anchor="start" x="142.9053" y="-43.8" font-family="Helvetica,sans-Serif" font-size="11.00" fill="#000000">2 &gt;</text>
<polygon fill="#000000" stroke="#000000" points="46.5,-38.7 46.5,-55.7 46.5,-55.7 46.5,-38.7 46.5,-38.7"/>
<polygon fill="#000000" stroke="#000000" points="115.5,-38.7 115.5,-55.7 115.5,-55.7 115.5,-38.7 115.5,-38.7"/>
</a>
</g>
</g>
<!-- ausgabegruppe_ausgabetagzeit&#45;&gt;ausgabegruppe -->
<g id="edge1" class="edge">
<title>ausgabegruppe_ausgabetagzeit:w&#45;&gt;ausgabegruppe:e</title>
<path fill="none" stroke="#000000" d="M198.2553,-147.0254C181.2595,-132.1214 192.0812,-86.7 161.5,-86.7"/>
<polygon fill="#000000" stroke="#000000" points="204.4261,-149.124 210.8408,-155.1083 208.213,-150.412 212,-151.7 212,-151.7 212,-151.7 208.213,-150.412 213.1592,-148.2917 204.4261,-149.124 204.4261,-149.124"/>
<ellipse fill="none" stroke="#000000" cx="201.3965" cy="-148.0936" rx="3.2" ry="3.2"/>
</g>
<!-- ausgabetagzeit -->
<g id="node3" class="node">
<title>ausgabetagzeit</title>
<g id="a_node3"><a xlink:href="../../tables/ausgabetagzeit.html" xlink:title="ausgabetagzeit" target="_top">
<polygon fill="#ffffff" stroke="transparent" points="8.5,-142.7 8.5,-272.7 160.5,-272.7 160.5,-142.7 8.5,-142.7"/>
<polygon fill="#f5f5f5" stroke="transparent" points="8.5,-249.7 8.5,-272.7 160.5,-272.7 160.5,-249.7 8.5,-249.7"/>
<polygon fill="none" stroke="#000000" points="8.5,-249.7 8.5,-272.7 160.5,-272.7 160.5,-249.7 8.5,-249.7"/>
<text text-anchor="start" x="13.5" y="-258.3" font-family="Helvetica,sans-Serif" font-weight="bold" font-size="11.00" fill="#000000">ausgabetagzeit</text>
<text text-anchor="start" x="126.0219" y="-257.8" font-family="Helvetica,sans-Serif" font-size="11.00" fill="#000000">[table]</text>
<polygon fill="none" stroke="#000000" points="8.5,-227.7 8.5,-249.7 160.5,-249.7 160.5,-227.7 8.5,-227.7"/>
<image xlink:href="../../images/primaryKeys.png" width="11px" height="12px" preserveAspectRatio="xMinYMin meet" x="13.5" y="-244.7"/>
<text text-anchor="start" x="28.5" y="-234.8" font-family="Helvetica,sans-Serif" font-size="11.00" fill="#000000">ausgabeTagZeitId</text>
<polygon fill="#ffffff" stroke="transparent" points="8.5,-205.7 8.5,-227.7 160.5,-227.7 160.5,-205.7 8.5,-205.7"/>
<polygon fill="none" stroke="#000000" points="8.5,-205.7 8.5,-227.7 160.5,-227.7 160.5,-205.7 8.5,-205.7"/>
<text text-anchor="start" x="28.5" y="-212.8" font-family="Helvetica,sans-Serif" font-size="11.00" fill="#000000">ausgabeTag</text>
<polygon fill="#ffffff" stroke="transparent" points="8.5,-183.7 8.5,-205.7 160.5,-205.7 160.5,-183.7 8.5,-183.7"/>
<polygon fill="none" stroke="#000000" points="8.5,-183.7 8.5,-205.7 160.5,-205.7 160.5,-183.7 8.5,-183.7"/>
<text text-anchor="start" x="28.5" y="-190.8" font-family="Helvetica,sans-Serif" font-size="11.00" fill="#000000">startZeit</text>
<polygon fill="#ffffff" stroke="transparent" points="8.5,-161.7 8.5,-183.7 160.5,-183.7 160.5,-161.7 8.5,-161.7"/>
<polygon fill="none" stroke="#000000" points="8.5,-161.7 8.5,-183.7 160.5,-183.7 160.5,-161.7 8.5,-161.7"/>
<text text-anchor="start" x="28.5" y="-168.8" font-family="Helvetica,sans-Serif" font-size="11.00" fill="#000000">endZeit</text>
<polygon fill="#ffffff" stroke="transparent" points="8.5,-142.7 8.5,-161.7 160.5,-161.7 160.5,-142.7 8.5,-142.7"/>
<polygon fill="none" stroke="#000000" points="8.5,-142.7 8.5,-161.7 160.5,-161.7 160.5,-142.7 8.5,-142.7"/>
<polygon fill="#ffffff" stroke="transparent" points="9.5,-143.7 9.5,-160.7 48.5,-160.7 48.5,-143.7 9.5,-143.7"/>
<text text-anchor="start" x="11.5" y="-148.8" font-family="Helvetica,sans-Serif" font-size="11.00" fill="#000000"> &#160;</text>
<polygon fill="#ffffff" stroke="transparent" points="48.5,-143.7 48.5,-160.7 112.5,-160.7 112.5,-143.7 48.5,-143.7"/>
<text text-anchor="start" x="64.3053" y="-148.8" font-family="Helvetica,sans-Serif" font-size="11.00" fill="#000000">0 rows</text>
<polygon fill="#ffffff" stroke="transparent" points="112.5,-143.7 112.5,-160.7 159.5,-160.7 159.5,-143.7 112.5,-143.7"/>
<text text-anchor="start" x="141.9053" y="-148.8" font-family="Helvetica,sans-Serif" font-size="11.00" fill="#000000">1 &gt;</text>
<polygon fill="#000000" stroke="#000000" points="48.5,-143.7 48.5,-160.7 48.5,-160.7 48.5,-143.7 48.5,-143.7"/>
<polygon fill="#000000" stroke="#000000" points="112.5,-143.7 112.5,-160.7 112.5,-160.7 112.5,-143.7 112.5,-143.7"/>
</a>
</g>
</g>
<!-- ausgabegruppe_ausgabetagzeit&#45;&gt;ausgabetagzeit -->
<g id="edge2" class="edge">
<title>ausgabegruppe_ausgabetagzeit:w&#45;&gt;ausgabetagzeit:e</title>
<path fill="none" stroke="#000000" d="M198.1076,-178.3746C180.8418,-193.2786 191.3105,-238.7 160.5,-238.7"/>
<polygon fill="#000000" stroke="#000000" points="204.4177,-176.2514 213.1481,-177.112 208.2089,-174.9757 212,-173.7 212,-173.7 212,-173.7 208.2089,-174.9757 210.8519,-170.288 204.4177,-176.2514 204.4177,-176.2514"/>
<ellipse fill="none" stroke="#000000" cx="201.3848" cy="-177.2719" rx="3.2" ry="3.2"/>
</g>
</g>
</svg>
