<?xml version="1.0" encoding="UTF-8" standalone="no"?>
<!DOCTYPE svg PUBLIC "-//W3C//DTD SVG 1.1//EN"
 "http://www.w3.org/Graphics/SVG/1.1/DTD/svg11.dtd">
<!-- Generated by graphviz version 2.40.1 (20161225.0304)
 -->
<!-- Title: oneDegreeRelationshipsDiagram Pages: 1 -->
<svg width="541pt" height="184pt"
 viewBox="0.00 0.00 541.00 184.20" xmlns="http://www.w3.org/2000/svg" xmlns:xlink="http://www.w3.org/1999/xlink">
<g id="graph0" class="graph" transform="scale(1 1) rotate(0) translate(4 180.2)">
<title>oneDegreeRelationshipsDiagram</title>
<polygon fill="#ffffff" stroke="transparent" points="-4,4 -4,-180.2 537,-180.2 537,4 -4,4"/>
<text text-anchor="middle" x="72.4936" y="-7.3" font-family="Helvetica,sans-Serif" font-size="11.00" fill="#000000">Generated by SchemaSpy</text>
<!-- ausgabegruppe_ausgabetagzeit -->
<g id="node1" class="node">
<title>ausgabegruppe_ausgabetagzeit</title>
<g id="a_node1"><a xlink:href="../../tables/ausgabegruppe_ausgabetagzeit.html" xlink:title="ausgabegruppe_ausgabetagzeit" target="_top">
<polygon fill="#ffffff" stroke="transparent" points="252,-84.2 252,-170.2 525,-170.2 525,-84.2 252,-84.2"/>
<polygon fill="#f5f5f5" stroke="transparent" points="252.5,-147.2 252.5,-170.2 525.5,-170.2 525.5,-147.2 252.5,-147.2"/>
<polygon fill="none" stroke="#000000" points="252.5,-147.2 252.5,-170.2 525.5,-170.2 525.5,-147.2 252.5,-147.2"/>
<text text-anchor="start" x="257.5" y="-155.8" font-family="Helvetica,sans-Serif" font-weight="bold" font-size="11.00" fill="#000000">ausgabegruppe_ausgabetagzeit</text>
<text text-anchor="start" x="491.0219" y="-155.3" font-family="Helvetica,sans-Serif" font-size="11.00" fill="#000000">[table]</text>
<polygon fill="#ffffff" stroke="transparent" points="252.5,-125.2 252.5,-147.2 525.5,-147.2 525.5,-125.2 252.5,-125.2"/>
<polygon fill="none" stroke="#000000" points="252.5,-125.2 252.5,-147.2 525.5,-147.2 525.5,-125.2 252.5,-125.2"/>
<image xlink:href="../../images/foreignKeys.png" width="11px" height="12px" preserveAspectRatio="xMinYMin meet" x="257.5" y="-142.2"/>
<text text-anchor="start" x="281.5" y="-132.3" font-family="Helvetica,sans-Serif" font-size="11.00" fill="#000000">ausgabeTagZeitId</text>
<polygon fill="#ffffff" stroke="transparent" points="252.5,-103.2 252.5,-125.2 525.5,-125.2 525.5,-103.2 252.5,-103.2"/>
<polygon fill="none" stroke="#000000" points="252.5,-103.2 252.5,-125.2 525.5,-125.2 525.5,-103.2 252.5,-103.2"/>
<image xlink:href="../../images/foreignKeys.png" width="11px" height="12px" preserveAspectRatio="xMinYMin meet" x="257.5" y="-120.2"/>
<text text-anchor="start" x="281.5" y="-110.3" font-family="Helvetica,sans-Serif" font-size="11.00" fill="#000000">ausgabegruppeId</text>
<polygon fill="#ffffff" stroke="transparent" points="252.5,-84.2 252.5,-103.2 525.5,-103.2 525.5,-84.2 252.5,-84.2"/>
<polygon fill="none" stroke="#000000" points="252.5,-84.2 252.5,-103.2 525.5,-103.2 525.5,-84.2 252.5,-84.2"/>
<polygon fill="#ffffff" stroke="transparent" points="253.5,-85.2 253.5,-102.2 341.5,-102.2 341.5,-85.2 253.5,-85.2"/>
<text text-anchor="start" x="255.5" y="-90.3" font-family="Helvetica,sans-Serif" font-size="11.00" fill="#000000">&lt; 2</text>
<polygon fill="#ffffff" stroke="transparent" points="341.5,-85.2 341.5,-102.2 446.5,-102.2 446.5,-85.2 341.5,-85.2"/>
<text text-anchor="start" x="377.8053" y="-90.3" font-family="Helvetica,sans-Serif" font-size="11.00" fill="#000000">0 rows</text>
<polygon fill="#ffffff" stroke="transparent" points="446.5,-85.2 446.5,-102.2 524.5,-102.2 524.5,-85.2 446.5,-85.2"/>
<text text-anchor="start" x="516.3862" y="-90.3" font-family="Helvetica,sans-Serif" font-size="11.00" fill="#000000"> &#160;</text>
<polygon fill="#000000" stroke="#000000" points="341.5,-85.2 341.5,-102.2 341.5,-102.2 341.5,-85.2 341.5,-85.2"/>
<polygon fill="#000000" stroke="#000000" points="446.5,-85.2 446.5,-102.2 446.5,-102.2 446.5,-85.2 446.5,-85.2"/>
</a>
</g>
</g>
<!-- ausgabetagzeit -->
<g id="node2" class="node">
<title>ausgabetagzeit</title>
<g id="a_node2"><a xlink:href="../../tables/ausgabetagzeit.html" xlink:title="ausgabetagzeit" target="_top">
<polygon fill="#ffffff" stroke="transparent" points="8,-38.2 8,-172.2 203,-172.2 203,-38.2 8,-38.2"/>
<polygon fill="#f5f5f5" stroke="transparent" points="10.5,-147.2 10.5,-170.2 201.5,-170.2 201.5,-147.2 10.5,-147.2"/>
<polygon fill="none" stroke="#000000" points="10.5,-147.2 10.5,-170.2 201.5,-170.2 201.5,-147.2 10.5,-147.2"/>
<text text-anchor="start" x="15.5" y="-155.8" font-family="Helvetica,sans-Serif" font-weight="bold" font-size="11.00" fill="#000000">ausgabetagzeit</text>
<text text-anchor="start" x="166.5437" y="-155.3" font-family="Helvetica,sans-Serif" font-size="11.00" fill="#000000">[table]</text>
<polygon fill="none" stroke="#000000" points="10.5,-125.2 10.5,-147.2 162.5,-147.2 162.5,-125.2 10.5,-125.2"/>
<image xlink:href="../../images/primaryKeys.png" width="11px" height="12px" preserveAspectRatio="xMinYMin meet" x="15.5" y="-142.2"/>
<text text-anchor="start" x="30.5" y="-132.3" font-family="Helvetica,sans-Serif" font-size="11.00" fill="#000000">ausgabeTagZeitId</text>
<polygon fill="none" stroke="#000000" points="162.5,-125.2 162.5,-147.2 201.5,-147.2 201.5,-125.2 162.5,-125.2"/>
<text text-anchor="start" x="165.5" y="-132.9" font-family="Helvetica,sans-Serif" font-size="11.00" fill="#000000">int[10]</text>
<polygon fill="#ffffff" stroke="transparent" points="10.5,-103.2 10.5,-125.2 162.5,-125.2 162.5,-103.2 10.5,-103.2"/>
<polygon fill="none" stroke="#000000" points="10.5,-103.2 10.5,-125.2 162.5,-125.2 162.5,-103.2 10.5,-103.2"/>
<text text-anchor="start" x="30.5" y="-110.3" font-family="Helvetica,sans-Serif" font-size="11.00" fill="#000000">ausgabeTag</text>
<polygon fill="none" stroke="#000000" points="162.5,-103.2 162.5,-125.2 201.5,-125.2 201.5,-103.2 162.5,-103.2"/>
<text text-anchor="start" x="165.5" y="-110.9" font-family="Helvetica,sans-Serif" font-size="11.00" fill="#000000">int[10]</text>
<polygon fill="#ffffff" stroke="transparent" points="10.5,-81.2 10.5,-103.2 162.5,-103.2 162.5,-81.2 10.5,-81.2"/>
<polygon fill="none" stroke="#000000" points="10.5,-81.2 10.5,-103.2 162.5,-103.2 162.5,-81.2 10.5,-81.2"/>
<text text-anchor="start" x="30.5" y="-88.3" font-family="Helvetica,sans-Serif" font-size="11.00" fill="#000000">startZeit</text>
<polygon fill="none" stroke="#000000" points="162.5,-81.2 162.5,-103.2 201.5,-103.2 201.5,-81.2 162.5,-81.2"/>
<text text-anchor="start" x="165.4984" y="-88.9" font-family="Helvetica,sans-Serif" font-size="11.00" fill="#000000">time[8]</text>
<polygon fill="#ffffff" stroke="transparent" points="10.5,-59.2 10.5,-81.2 162.5,-81.2 162.5,-59.2 10.5,-59.2"/>
<polygon fill="none" stroke="#000000" points="10.5,-59.2 10.5,-81.2 162.5,-81.2 162.5,-59.2 10.5,-59.2"/>
<text text-anchor="start" x="30.5" y="-66.3" font-family="Helvetica,sans-Serif" font-size="11.00" fill="#000000">endZeit</text>
<polygon fill="none" stroke="#000000" points="162.5,-59.2 162.5,-81.2 201.5,-81.2 201.5,-59.2 162.5,-59.2"/>
<text text-anchor="start" x="165.4984" y="-66.9" font-family="Helvetica,sans-Serif" font-size="11.00" fill="#000000">time[8]</text>
<polygon fill="#ffffff" stroke="transparent" points="10.5,-40.2 10.5,-59.2 201.5,-59.2 201.5,-40.2 10.5,-40.2"/>
<polygon fill="none" stroke="#000000" points="10.5,-40.2 10.5,-59.2 201.5,-59.2 201.5,-40.2 10.5,-40.2"/>
<polygon fill="#ffffff" stroke="transparent" points="11.5,-41.2 11.5,-58.2 69.5,-58.2 69.5,-41.2 11.5,-41.2"/>
<text text-anchor="start" x="13.5" y="-46.3" font-family="Helvetica,sans-Serif" font-size="11.00" fill="#000000">&lt; 0</text>
<polygon fill="#ffffff" stroke="transparent" points="69.5,-41.2 69.5,-58.2 143.5,-58.2 143.5,-41.2 69.5,-41.2"/>
<text text-anchor="start" x="90.3053" y="-46.3" font-family="Helvetica,sans-Serif" font-size="11.00" fill="#000000">0 rows</text>
<polygon fill="#ffffff" stroke="transparent" points="143.5,-41.2 143.5,-58.2 200.5,-58.2 200.5,-41.2 143.5,-41.2"/>
<text text-anchor="start" x="182.9053" y="-46.3" font-family="Helvetica,sans-Serif" font-size="11.00" fill="#000000">1 &gt;</text>
<polygon fill="#000000" stroke="#000000" points="69.5,-41.2 69.5,-58.2 69.5,-58.2 69.5,-41.2 69.5,-41.2"/>
<polygon fill="#000000" stroke="#000000" points="143.5,-41.2 143.5,-58.2 143.5,-58.2 143.5,-41.2 143.5,-41.2"/>
<polygon fill="none" stroke="#000000" stroke-width="2" points="9,-39.2 9,-171.2 202,-171.2 202,-39.2 9,-39.2"/>
</a>
</g>
</g>
<!-- ausgabegruppe_ausgabetagzeit&#45;&gt;ausgabetagzeit -->
<g id="edge1" class="edge">
<title>ausgabegruppe_ausgabetagzeit:w&#45;&gt;ausgabetagzeit:e</title>
<path fill="none" stroke="#000000" d="M237.776,-136.2C225.7815,-136.2 218.3229,-136.2 201.5,-136.2"/>
<polygon fill="#000000" stroke="#000000" points="244.5,-136.2001 252.5,-139.8 248.5,-136.2 252.5,-136.2 252.5,-136.2 252.5,-136.2 248.5,-136.2 252.5,-132.6 244.5,-136.2001 244.5,-136.2001"/>
<ellipse fill="none" stroke="#000000" cx="241.3" cy="-136.2001" rx="3.2" ry="3.2"/>
</g>
</g>
</svg>
