<?xml version="1.0" encoding="UTF-8" standalone="no"?>
<!DOCTYPE svg PUBLIC "-//W3C//DTD SVG 1.1//EN"
 "http://www.w3.org/Graphics/SVG/1.1/DTD/svg11.dtd">
<!-- Generated by graphviz version 2.40.1 (20161225.0304)
 -->
<!-- Title: oneDegreeRelationshipsDiagram Pages: 1 -->
<svg width="560pt" height="307pt"
 viewBox="0.00 0.00 560.00 306.70" xmlns="http://www.w3.org/2000/svg" xmlns:xlink="http://www.w3.org/1999/xlink">
<g id="graph0" class="graph" transform="scale(1 1) rotate(0) translate(4 302.7)">
<title>oneDegreeRelationshipsDiagram</title>
<polygon fill="#ffffff" stroke="transparent" points="-4,4 -4,-302.7 556,-302.7 556,4 -4,4"/>
<text text-anchor="middle" x="72.4936" y="-7.3" font-family="Helvetica,sans-Serif" font-size="11.00" fill="#000000">Generated by SchemaSpy</text>
<!-- ausgabegruppe_ausgabetagzeit -->
<g id="node1" class="node">
<title>ausgabegruppe_ausgabetagzeit</title>
<g id="a_node1"><a xlink:href="../../tables/ausgabegruppe_ausgabetagzeit.html" xlink:title="ausgabegruppe_ausgabetagzeit" target="_top">
<polygon fill="#ffffff" stroke="transparent" points="271,-208.7 271,-294.7 544,-294.7 544,-208.7 271,-208.7"/>
<polygon fill="#f5f5f5" stroke="transparent" points="271.5,-271.7 271.5,-294.7 544.5,-294.7 544.5,-271.7 271.5,-271.7"/>
<polygon fill="none" stroke="#000000" points="271.5,-271.7 271.5,-294.7 544.5,-294.7 544.5,-271.7 271.5,-271.7"/>
<text text-anchor="start" x="276.5" y="-280.3" font-family="Helvetica,sans-Serif" font-weight="bold" font-size="11.00" fill="#000000">ausgabegruppe_ausgabetagzeit</text>
<text text-anchor="start" x="510.0219" y="-279.8" font-family="Helvetica,sans-Serif" font-size="11.00" fill="#000000">[table]</text>
<polygon fill="#ffffff" stroke="transparent" points="271.5,-249.7 271.5,-271.7 544.5,-271.7 544.5,-249.7 271.5,-249.7"/>
<polygon fill="none" stroke="#000000" points="271.5,-249.7 271.5,-271.7 544.5,-271.7 544.5,-249.7 271.5,-249.7"/>
<image xlink:href="../../images/foreignKeys.png" width="11px" height="12px" preserveAspectRatio="xMinYMin meet" x="276.5" y="-266.7"/>
<text text-anchor="start" x="300.5" y="-256.8" font-family="Helvetica,sans-Serif" font-size="11.00" fill="#000000">ausgabeTagZeitId</text>
<polygon fill="#ffffff" stroke="transparent" points="271.5,-227.7 271.5,-249.7 544.5,-249.7 544.5,-227.7 271.5,-227.7"/>
<polygon fill="none" stroke="#000000" points="271.5,-227.7 271.5,-249.7 544.5,-249.7 544.5,-227.7 271.5,-227.7"/>
<image xlink:href="../../images/foreignKeys.png" width="11px" height="12px" preserveAspectRatio="xMinYMin meet" x="276.5" y="-244.7"/>
<text text-anchor="start" x="300.5" y="-234.8" font-family="Helvetica,sans-Serif" font-size="11.00" fill="#000000">ausgabegruppeId</text>
<polygon fill="#ffffff" stroke="transparent" points="271.5,-208.7 271.5,-227.7 544.5,-227.7 544.5,-208.7 271.5,-208.7"/>
<polygon fill="none" stroke="#000000" points="271.5,-208.7 271.5,-227.7 544.5,-227.7 544.5,-208.7 271.5,-208.7"/>
<polygon fill="#ffffff" stroke="transparent" points="272.5,-209.7 272.5,-226.7 360.5,-226.7 360.5,-209.7 272.5,-209.7"/>
<text text-anchor="start" x="274.5" y="-214.8" font-family="Helvetica,sans-Serif" font-size="11.00" fill="#000000">&lt; 2</text>
<polygon fill="#ffffff" stroke="transparent" points="360.5,-209.7 360.5,-226.7 465.5,-226.7 465.5,-209.7 360.5,-209.7"/>
<text text-anchor="start" x="396.8053" y="-214.8" font-family="Helvetica,sans-Serif" font-size="11.00" fill="#000000">0 rows</text>
<polygon fill="#ffffff" stroke="transparent" points="465.5,-209.7 465.5,-226.7 543.5,-226.7 543.5,-209.7 465.5,-209.7"/>
<text text-anchor="start" x="535.3862" y="-214.8" font-family="Helvetica,sans-Serif" font-size="11.00" fill="#000000"> &#160;</text>
<polygon fill="#000000" stroke="#000000" points="360.5,-209.7 360.5,-226.7 360.5,-226.7 360.5,-209.7 360.5,-209.7"/>
<polygon fill="#000000" stroke="#000000" points="465.5,-209.7 465.5,-226.7 465.5,-226.7 465.5,-209.7 465.5,-209.7"/>
</a>
</g>
</g>
<!-- ausgabegruppe -->
<g id="node2" class="node">
<title>ausgabegruppe</title>
<g id="a_node2"><a xlink:href="../../tables/ausgabegruppe.html" xlink:title="ausgabegruppe" target="_top">
<polygon fill="#ffffff" stroke="transparent" points="8,-64.7 8,-198.7 222,-198.7 222,-64.7 8,-64.7"/>
<polygon fill="#f5f5f5" stroke="transparent" points="10,-173.7 10,-196.7 220,-196.7 220,-173.7 10,-173.7"/>
<polygon fill="none" stroke="#000000" points="10,-173.7 10,-196.7 220,-196.7 220,-173.7 10,-173.7"/>
<text text-anchor="start" x="15" y="-182.3" font-family="Helvetica,sans-Serif" font-weight="bold" font-size="11.00" fill="#000000">ausgabegruppe</text>
<text text-anchor="start" x="185.0437" y="-181.8" font-family="Helvetica,sans-Serif" font-size="11.00" fill="#000000">[table]</text>
<polygon fill="none" stroke="#000000" points="10,-151.7 10,-173.7 159,-173.7 159,-151.7 10,-151.7"/>
<image xlink:href="../../images/primaryKeys.png" width="11px" height="12px" preserveAspectRatio="xMinYMin meet" x="15" y="-168.7"/>
<text text-anchor="start" x="30" y="-158.8" font-family="Helvetica,sans-Serif" font-size="11.00" fill="#000000">ausgabegruppeId</text>
<polygon fill="none" stroke="#000000" points="159,-151.7 159,-173.7 220,-173.7 220,-151.7 159,-151.7"/>
<text text-anchor="start" x="162" y="-159.4" font-family="Helvetica,sans-Serif" font-size="11.00" fill="#000000">int[10]</text>
<polygon fill="none" stroke="#000000" points="10,-129.7 10,-151.7 159,-151.7 159,-129.7 10,-129.7"/>
<text text-anchor="start" x="30" y="-136.8" font-family="Helvetica,sans-Serif" font-size="11.00" fill="#000000">name</text>
<polygon fill="none" stroke="#000000" points="159,-129.7 159,-151.7 220,-151.7 220,-129.7 159,-129.7"/>
<text text-anchor="start" x="161.994" y="-137.4" font-family="Helvetica,sans-Serif" font-size="11.00" fill="#000000">varchar[50]</text>
<polygon fill="none" stroke="#000000" points="10,-107.7 10,-129.7 159,-129.7 159,-107.7 10,-107.7"/>
<text text-anchor="start" x="30" y="-114.8" font-family="Helvetica,sans-Serif" font-size="11.00" fill="#000000">aktiv</text>
<polygon fill="none" stroke="#000000" points="159,-107.7 159,-129.7 220,-129.7 220,-107.7 159,-107.7"/>
<text text-anchor="start" x="162" y="-115.4" font-family="Helvetica,sans-Serif" font-size="11.00" fill="#000000">bit[1]</text>
<polygon fill="none" stroke="#000000" points="10,-85.7 10,-107.7 159,-107.7 159,-85.7 10,-85.7"/>
<text text-anchor="start" x="30" y="-92.8" font-family="Helvetica,sans-Serif" font-size="11.00" fill="#000000">anzeigeFarbe</text>
<polygon fill="none" stroke="#000000" points="159,-85.7 159,-107.7 220,-107.7 220,-85.7 159,-85.7"/>
<text text-anchor="start" x="162" y="-93.4" font-family="Helvetica,sans-Serif" font-size="11.00" fill="#000000">varchar[7]</text>
<polygon fill="#ffffff" stroke="transparent" points="10,-66.7 10,-85.7 220,-85.7 220,-66.7 10,-66.7"/>
<polygon fill="none" stroke="#000000" points="10,-66.7 10,-85.7 220,-85.7 220,-66.7 10,-66.7"/>
<polygon fill="#ffffff" stroke="transparent" points="11,-67.7 11,-84.7 73,-84.7 73,-67.7 11,-67.7"/>
<text text-anchor="start" x="13" y="-72.8" font-family="Helvetica,sans-Serif" font-size="11.00" fill="#000000">&lt; 0</text>
<polygon fill="#ffffff" stroke="transparent" points="73,-67.7 73,-84.7 158,-84.7 158,-67.7 73,-67.7"/>
<text text-anchor="start" x="96.2478" y="-72.8" font-family="Helvetica,sans-Serif" font-size="11.00" fill="#000000">24 rows</text>
<polygon fill="#ffffff" stroke="transparent" points="158,-67.7 158,-84.7 219,-84.7 219,-67.7 158,-67.7"/>
<text text-anchor="start" x="201.4053" y="-72.8" font-family="Helvetica,sans-Serif" font-size="11.00" fill="#000000">2 &gt;</text>
<polygon fill="#000000" stroke="#000000" points="73,-67.7 73,-84.7 73,-84.7 73,-67.7 73,-67.7"/>
<polygon fill="#000000" stroke="#000000" points="158,-67.7 158,-84.7 158,-84.7 158,-67.7 158,-67.7"/>
<polygon fill="none" stroke="#000000" stroke-width="2" points="9,-65.7 9,-197.7 221,-197.7 221,-65.7 9,-65.7"/>
</a>
</g>
</g>
<!-- ausgabegruppe_ausgabetagzeit&#45;&gt;ausgabegruppe -->
<g id="edge1" class="edge">
<title>ausgabegruppe_ausgabetagzeit:w&#45;&gt;ausgabegruppe:e</title>
<path fill="none" stroke="#000000" d="M257.5534,-234.1735C238.0726,-217.8121 254.7458,-162.7 220,-162.7"/>
<polygon fill="#000000" stroke="#000000" points="263.8907,-236.2303 270.3886,-242.1242 267.6954,-237.4651 271.5,-238.7 271.5,-238.7 271.5,-238.7 267.6954,-237.4651 272.6114,-235.2758 263.8907,-236.2303 263.8907,-236.2303"/>
<ellipse fill="none" stroke="#000000" cx="260.847" cy="-235.2424" rx="3.2" ry="3.2"/>
</g>
<!-- haushalt -->
<g id="node3" class="node">
<title>haushalt</title>
<g id="a_node3"><a xlink:href="../../tables/haushalt.html" xlink:title="haushalt" target="_top">
<polygon fill="#ffffff" stroke="transparent" points="312,-38.2 312,-187.2 503,-187.2 503,-38.2 312,-38.2"/>
<polygon fill="#f5f5f5" stroke="transparent" points="312.5,-163.7 312.5,-186.7 503.5,-186.7 503.5,-163.7 312.5,-163.7"/>
<polygon fill="none" stroke="#000000" points="312.5,-163.7 312.5,-186.7 503.5,-186.7 503.5,-163.7 312.5,-163.7"/>
<text text-anchor="start" x="317.5" y="-172.3" font-family="Helvetica,sans-Serif" font-weight="bold" font-size="11.00" fill="#000000">haushalt</text>
<text text-anchor="start" x="468.5437" y="-171.8" font-family="Helvetica,sans-Serif" font-size="11.00" fill="#000000">[table]</text>
<polygon fill="none" stroke="#000000" points="312.5,-141.7 312.5,-163.7 503.5,-163.7 503.5,-141.7 312.5,-141.7"/>
<image xlink:href="../../images/primaryKeys.png" width="11px" height="12px" preserveAspectRatio="xMinYMin meet" x="317.5" y="-158.7"/>
<text text-anchor="start" x="332.5" y="-148.8" font-family="Helvetica,sans-Serif" font-size="11.00" fill="#000000">kundennummer</text>
<polygon fill="#ffffff" stroke="transparent" points="312.5,-119.7 312.5,-141.7 503.5,-141.7 503.5,-119.7 312.5,-119.7"/>
<polygon fill="none" stroke="#000000" points="312.5,-119.7 312.5,-141.7 503.5,-141.7 503.5,-119.7 312.5,-119.7"/>
<image xlink:href="../../images/foreignKeys.png" width="11px" height="12px" preserveAspectRatio="xMinYMin meet" x="317.5" y="-136.7"/>
<text text-anchor="start" x="332.5" y="-126.8" font-family="Helvetica,sans-Serif" font-size="11.00" fill="#000000">plz</text>
<polygon fill="#ffffff" stroke="transparent" points="312.5,-97.7 312.5,-119.7 503.5,-119.7 503.5,-97.7 312.5,-97.7"/>
<polygon fill="none" stroke="#000000" points="312.5,-97.7 312.5,-119.7 503.5,-119.7 503.5,-97.7 312.5,-97.7"/>
<image xlink:href="../../images/foreignKeys.png" width="11px" height="12px" preserveAspectRatio="xMinYMin meet" x="317.5" y="-114.7"/>
<text text-anchor="start" x="332.5" y="-104.8" font-family="Helvetica,sans-Serif" font-size="11.00" fill="#000000">verteilstellenId</text>
<polygon fill="#ffffff" stroke="transparent" points="312.5,-75.7 312.5,-97.7 503.5,-97.7 503.5,-75.7 312.5,-75.7"/>
<polygon fill="none" stroke="#000000" points="312.5,-75.7 312.5,-97.7 503.5,-97.7 503.5,-75.7 312.5,-75.7"/>
<image xlink:href="../../images/foreignKeys.png" width="11px" height="12px" preserveAspectRatio="xMinYMin meet" x="317.5" y="-92.7"/>
<text text-anchor="start" x="332.5" y="-82.8" font-family="Helvetica,sans-Serif" font-size="11.00" fill="#000000">ausgabeGruppeId</text>
<polygon fill="none" stroke="#000000" points="312.5,-56.7 312.5,-75.7 503.5,-75.7 503.5,-56.7 312.5,-56.7"/>
<text text-anchor="start" x="315.5" y="-62.8" font-family="Helvetica,sans-Serif" font-size="11.00" fill="#000000">...</text>
<polygon fill="#ffffff" stroke="transparent" points="312.5,-37.7 312.5,-56.7 503.5,-56.7 503.5,-37.7 312.5,-37.7"/>
<polygon fill="none" stroke="#000000" points="312.5,-37.7 312.5,-56.7 503.5,-56.7 503.5,-37.7 312.5,-37.7"/>
<polygon fill="#ffffff" stroke="transparent" points="313.5,-38.7 313.5,-55.7 367.5,-55.7 367.5,-38.7 313.5,-38.7"/>
<text text-anchor="start" x="315.5" y="-43.8" font-family="Helvetica,sans-Serif" font-size="11.00" fill="#000000">&lt; 3</text>
<polygon fill="#ffffff" stroke="transparent" points="367.5,-38.7 367.5,-55.7 449.5,-55.7 449.5,-38.7 367.5,-38.7"/>
<text text-anchor="start" x="386.1904" y="-43.8" font-family="Helvetica,sans-Serif" font-size="11.00" fill="#000000">639 rows</text>
<polygon fill="#ffffff" stroke="transparent" points="449.5,-38.7 449.5,-55.7 502.5,-55.7 502.5,-38.7 449.5,-38.7"/>
<text text-anchor="start" x="484.9053" y="-43.8" font-family="Helvetica,sans-Serif" font-size="11.00" fill="#000000">3 &gt;</text>
<polygon fill="#000000" stroke="#000000" points="367.5,-38.7 367.5,-55.7 367.5,-55.7 367.5,-38.7 367.5,-38.7"/>
<polygon fill="#000000" stroke="#000000" points="449.5,-38.7 449.5,-55.7 449.5,-55.7 449.5,-38.7 449.5,-38.7"/>
</a>
</g>
</g>
<!-- haushalt&#45;&gt;ausgabegruppe -->
<g id="edge2" class="edge">
<title>haushalt:w&#45;&gt;ausgabegruppe:e</title>
<path fill="none" stroke="#000000" d="M298.2247,-88.8926C261.4265,-101.3536 267.8038,-162.7 220,-162.7"/>
<polygon fill="#000000" stroke="#000000" points="304.5927,-87.9145 313.0465,-90.2583 308.5464,-87.3073 312.5,-86.7 312.5,-86.7 312.5,-86.7 308.5464,-87.3073 311.9535,-83.1417 304.5927,-87.9145 304.5927,-87.9145"/>
<ellipse fill="none" stroke="#000000" cx="301.4298" cy="-88.4004" rx="3.2" ry="3.2"/>
</g>
</g>
</svg>
