<?xml version="1.0" encoding="UTF-8" standalone="no"?>
<!DOCTYPE svg PUBLIC "-//W3C//DTD SVG 1.1//EN"
 "http://www.w3.org/Graphics/SVG/1.1/DTD/svg11.dtd">
<!-- Generated by graphviz version 2.40.1 (20161225.0304)
 -->
<!-- Title: twoDegreesRelationshipsDiagram Pages: 1 -->
<svg width="520pt" height="285pt"
 viewBox="0.00 0.00 520.00 284.70" xmlns="http://www.w3.org/2000/svg" xmlns:xlink="http://www.w3.org/1999/xlink">
<g id="graph0" class="graph" transform="scale(1 1) rotate(0) translate(4 280.7)">
<title>twoDegreesRelationshipsDiagram</title>
<polygon fill="#ffffff" stroke="transparent" points="-4,4 -4,-280.7 516,-280.7 516,4 -4,4"/>
<text text-anchor="middle" x="72.4936" y="-7.3" font-family="Helvetica,sans-Serif" font-size="11.00" fill="#000000">Generated by SchemaSpy</text>
<!-- ausgabegruppe_ausgabetagzeit -->
<g id="node1" class="node">
<title>ausgabegruppe_ausgabetagzeit</title>
<g id="a_node1"><a xlink:href="../../tables/ausgabegruppe_ausgabetagzeit.html" xlink:title="ausgabegruppe_ausgabetagzeit" target="_top">
<polygon fill="#ffffff" stroke="transparent" points="210,-162.7 210,-252.7 504,-252.7 504,-162.7 210,-162.7"/>
<polygon fill="#f5f5f5" stroke="transparent" points="212,-227.7 212,-250.7 502,-250.7 502,-227.7 212,-227.7"/>
<polygon fill="none" stroke="#000000" points="212,-227.7 212,-250.7 502,-250.7 502,-227.7 212,-227.7"/>
<text text-anchor="start" x="217" y="-236.3" font-family="Helvetica,sans-Serif" font-weight="bold" font-size="11.00" fill="#000000">ausgabegruppe_ausgabetagzeit</text>
<text text-anchor="start" x="467.0437" y="-235.8" font-family="Helvetica,sans-Serif" font-size="11.00" fill="#000000">[table]</text>
<polygon fill="#ffffff" stroke="transparent" points="212,-205.7 212,-227.7 467,-227.7 467,-205.7 212,-205.7"/>
<polygon fill="none" stroke="#000000" points="212,-205.7 212,-227.7 467,-227.7 467,-205.7 212,-205.7"/>
<image xlink:href="../../images/foreignKeys.png" width="11px" height="12px" preserveAspectRatio="xMinYMin meet" x="217" y="-222.7"/>
<text text-anchor="start" x="232" y="-212.8" font-family="Helvetica,sans-Serif" font-size="11.00" fill="#000000">ausgabeTagZeitId</text>
<polygon fill="none" stroke="#000000" points="467,-205.7 467,-227.7 502,-227.7 502,-205.7 467,-205.7"/>
<text text-anchor="start" x="469.5219" y="-213.4" font-family="Helvetica,sans-Serif" font-size="11.00" fill="#000000">int[10]</text>
<polygon fill="#ffffff" stroke="transparent" points="212,-183.7 212,-205.7 467,-205.7 467,-183.7 212,-183.7"/>
<polygon fill="none" stroke="#000000" points="212,-183.7 212,-205.7 467,-205.7 467,-183.7 212,-183.7"/>
<image xlink:href="../../images/foreignKeys.png" width="11px" height="12px" preserveAspectRatio="xMinYMin meet" x="217" y="-200.7"/>
<text text-anchor="start" x="232" y="-190.8" font-family="Helvetica,sans-Serif" font-size="11.00" fill="#000000">ausgabegruppeId</text>
<polygon fill="none" stroke="#000000" points="467,-183.7 467,-205.7 502,-205.7 502,-183.7 467,-183.7"/>
<text text-anchor="start" x="469.5219" y="-191.4" font-family="Helvetica,sans-Serif" font-size="11.00" fill="#000000">int[10]</text>
<polygon fill="#ffffff" stroke="transparent" points="212,-164.7 212,-183.7 502,-183.7 502,-164.7 212,-164.7"/>
<polygon fill="none" stroke="#000000" points="212,-164.7 212,-183.7 502,-183.7 502,-164.7 212,-164.7"/>
<polygon fill="#ffffff" stroke="transparent" points="213,-165.7 213,-182.7 304,-182.7 304,-165.7 213,-165.7"/>
<text text-anchor="start" x="215" y="-170.8" font-family="Helvetica,sans-Serif" font-size="11.00" fill="#000000">&lt; 2</text>
<polygon fill="#ffffff" stroke="transparent" points="304,-165.7 304,-182.7 411,-182.7 411,-165.7 304,-165.7"/>
<text text-anchor="start" x="341.3053" y="-170.8" font-family="Helvetica,sans-Serif" font-size="11.00" fill="#000000">0 rows</text>
<polygon fill="#ffffff" stroke="transparent" points="411,-165.7 411,-182.7 501,-182.7 501,-165.7 411,-165.7"/>
<text text-anchor="start" x="483.4053" y="-170.8" font-family="Helvetica,sans-Serif" font-size="11.00" fill="#000000">0 &gt;</text>
<polygon fill="#000000" stroke="#000000" points="304,-165.7 304,-182.7 304,-182.7 304,-165.7 304,-165.7"/>
<polygon fill="#000000" stroke="#000000" points="411,-165.7 411,-182.7 411,-182.7 411,-165.7 411,-165.7"/>
<polygon fill="none" stroke="#000000" stroke-width="2" points="211,-163.7 211,-251.7 503,-251.7 503,-163.7 211,-163.7"/>
</a>
</g>
</g>
<!-- ausgabegruppe -->
<g id="node2" class="node">
<title>ausgabegruppe</title>
<g id="a_node2"><a xlink:href="../../tables/ausgabegruppe.html" xlink:title="ausgabegruppe" target="_top">
<polygon fill="#ffffff" stroke="transparent" points="8,-38.2 8,-121.2 161,-121.2 161,-38.2 8,-38.2"/>
<polygon fill="#f5f5f5" stroke="transparent" points="8.5,-97.7 8.5,-120.7 161.5,-120.7 161.5,-97.7 8.5,-97.7"/>
<polygon fill="none" stroke="#000000" points="8.5,-97.7 8.5,-120.7 161.5,-120.7 161.5,-97.7 8.5,-97.7"/>
<text text-anchor="start" x="13.5" y="-106.3" font-family="Helvetica,sans-Serif" font-weight="bold" font-size="11.00" fill="#000000">ausgabegruppe</text>
<text text-anchor="start" x="127.0219" y="-105.8" font-family="Helvetica,sans-Serif" font-size="11.00" fill="#000000">[table]</text>
<polygon fill="none" stroke="#000000" points="8.5,-75.7 8.5,-97.7 161.5,-97.7 161.5,-75.7 8.5,-75.7"/>
<image xlink:href="../../images/primaryKeys.png" width="11px" height="12px" preserveAspectRatio="xMinYMin meet" x="13.5" y="-92.7"/>
<text text-anchor="start" x="30.5" y="-82.8" font-family="Helvetica,sans-Serif" font-size="11.00" fill="#000000">ausgabegruppeId</text>
<polygon fill="none" stroke="#000000" points="8.5,-56.7 8.5,-75.7 161.5,-75.7 161.5,-56.7 8.5,-56.7"/>
<text text-anchor="start" x="11.5" y="-62.8" font-family="Helvetica,sans-Serif" font-size="11.00" fill="#000000">...</text>
<polygon fill="#ffffff" stroke="transparent" points="8.5,-37.7 8.5,-56.7 161.5,-56.7 161.5,-37.7 8.5,-37.7"/>
<polygon fill="none" stroke="#000000" points="8.5,-37.7 8.5,-56.7 161.5,-56.7 161.5,-37.7 8.5,-37.7"/>
<polygon fill="#ffffff" stroke="transparent" points="9.5,-38.7 9.5,-55.7 46.5,-55.7 46.5,-38.7 9.5,-38.7"/>
<text text-anchor="start" x="11.5" y="-43.8" font-family="Helvetica,sans-Serif" font-size="11.00" fill="#000000"> &#160;</text>
<polygon fill="#ffffff" stroke="transparent" points="46.5,-38.7 46.5,-55.7 115.5,-55.7 115.5,-38.7 46.5,-38.7"/>
<text text-anchor="start" x="61.7478" y="-43.8" font-family="Helvetica,sans-Serif" font-size="11.00" fill="#000000">24 rows</text>
<polygon fill="#ffffff" stroke="transparent" points="115.5,-38.7 115.5,-55.7 160.5,-55.7 160.5,-38.7 115.5,-38.7"/>
<text text-anchor="start" x="142.9053" y="-43.8" font-family="Helvetica,sans-Serif" font-size="11.00" fill="#000000">2 &gt;</text>
<polygon fill="#000000" stroke="#000000" points="46.5,-38.7 46.5,-55.7 46.5,-55.7 46.5,-38.7 46.5,-38.7"/>
<polygon fill="#000000" stroke="#000000" points="115.5,-38.7 115.5,-55.7 115.5,-55.7 115.5,-38.7 115.5,-38.7"/>
</a>
</g>
</g>
<!-- ausgabegruppe_ausgabetagzeit&#45;&gt;ausgabegruppe -->
<g id="edge1" class="edge">
<title>ausgabegruppe_ausgabetagzeit:w&#45;&gt;ausgabegruppe:e</title>
<path fill="none" stroke="#000000" d="M197.8526,-190.8562C170.1888,-171.6172 208.4857,-86.7 161.5,-86.7"/>
<polygon fill="#000000" stroke="#000000" points="204.2799,-192.6024 211.0561,-198.1741 208.1399,-193.6512 212,-194.7 212,-194.7 212,-194.7 208.1399,-193.6512 212.9439,-191.2259 204.2799,-192.6024 204.2799,-192.6024"/>
<ellipse fill="none" stroke="#000000" cx="201.1918" cy="-191.7634" rx="3.2" ry="3.2"/>
</g>
<!-- ausgabetagzeit -->
<g id="node3" class="node">
<title>ausgabetagzeit</title>
<g id="a_node3"><a xlink:href="../../tables/ausgabetagzeit.html" xlink:title="ausgabetagzeit" target="_top">
<polygon fill="#ffffff" stroke="transparent" points="8.5,-142.7 8.5,-272.7 160.5,-272.7 160.5,-142.7 8.5,-142.7"/>
<polygon fill="#f5f5f5" stroke="transparent" points="8.5,-249.7 8.5,-272.7 160.5,-272.7 160.5,-249.7 8.5,-249.7"/>
<polygon fill="none" stroke="#000000" points="8.5,-249.7 8.5,-272.7 160.5,-272.7 160.5,-249.7 8.5,-249.7"/>
<text text-anchor="start" x="13.5" y="-258.3" font-family="Helvetica,sans-Serif" font-weight="bold" font-size="11.00" fill="#000000">ausgabetagzeit</text>
<text text-anchor="start" x="126.0219" y="-257.8" font-family="Helvetica,sans-Serif" font-size="11.00" fill="#000000">[table]</text>
<polygon fill="none" stroke="#000000" points="8.5,-227.7 8.5,-249.7 160.5,-249.7 160.5,-227.7 8.5,-227.7"/>
<image xlink:href="../../images/primaryKeys.png" width="11px" height="12px" preserveAspectRatio="xMinYMin meet" x="13.5" y="-244.7"/>
<text text-anchor="start" x="28.5" y="-234.8" font-family="Helvetica,sans-Serif" font-size="11.00" fill="#000000">ausgabeTagZeitId</text>
<polygon fill="#ffffff" stroke="transparent" points="8.5,-205.7 8.5,-227.7 160.5,-227.7 160.5,-205.7 8.5,-205.7"/>
<polygon fill="none" stroke="#000000" points="8.5,-205.7 8.5,-227.7 160.5,-227.7 160.5,-205.7 8.5,-205.7"/>
<text text-anchor="start" x="28.5" y="-212.8" font-family="Helvetica,sans-Serif" font-size="11.00" fill="#000000">ausgabeTag</text>
<polygon fill="#ffffff" stroke="transparent" points="8.5,-183.7 8.5,-205.7 160.5,-205.7 160.5,-183.7 8.5,-183.7"/>
<polygon fill="none" stroke="#000000" points="8.5,-183.7 8.5,-205.7 160.5,-205.7 160.5,-183.7 8.5,-183.7"/>
<text text-anchor="start" x="28.5" y="-190.8" font-family="Helvetica,sans-Serif" font-size="11.00" fill="#000000">startZeit</text>
<polygon fill="#ffffff" stroke="transparent" points="8.5,-161.7 8.5,-183.7 160.5,-183.7 160.5,-161.7 8.5,-161.7"/>
<polygon fill="none" stroke="#000000" points="8.5,-161.7 8.5,-183.7 160.5,-183.7 160.5,-161.7 8.5,-161.7"/>
<text text-anchor="start" x="28.5" y="-168.8" font-family="Helvetica,sans-Serif" font-size="11.00" fill="#000000">endZeit</text>
<polygon fill="#ffffff" stroke="transparent" points="8.5,-142.7 8.5,-161.7 160.5,-161.7 160.5,-142.7 8.5,-142.7"/>
<polygon fill="none" stroke="#000000" points="8.5,-142.7 8.5,-161.7 160.5,-161.7 160.5,-142.7 8.5,-142.7"/>
<polygon fill="#ffffff" stroke="transparent" points="9.5,-143.7 9.5,-160.7 48.5,-160.7 48.5,-143.7 9.5,-143.7"/>
<text text-anchor="start" x="11.5" y="-148.8" font-family="Helvetica,sans-Serif" font-size="11.00" fill="#000000"> &#160;</text>
<polygon fill="#ffffff" stroke="transparent" points="48.5,-143.7 48.5,-160.7 112.5,-160.7 112.5,-143.7 48.5,-143.7"/>
<text text-anchor="start" x="64.3053" y="-148.8" font-family="Helvetica,sans-Serif" font-size="11.00" fill="#000000">0 rows</text>
<polygon fill="#ffffff" stroke="transparent" points="112.5,-143.7 112.5,-160.7 159.5,-160.7 159.5,-143.7 112.5,-143.7"/>
<text text-anchor="start" x="141.9053" y="-148.8" font-family="Helvetica,sans-Serif" font-size="11.00" fill="#000000">1 &gt;</text>
<polygon fill="#000000" stroke="#000000" points="48.5,-143.7 48.5,-160.7 48.5,-160.7 48.5,-143.7 48.5,-143.7"/>
<polygon fill="#000000" stroke="#000000" points="112.5,-143.7 112.5,-160.7 112.5,-160.7 112.5,-143.7 112.5,-143.7"/>
</a>
</g>
</g>
<!-- ausgabegruppe_ausgabetagzeit&#45;&gt;ausgabetagzeit -->
<g id="edge2" class="edge">
<title>ausgabegruppe_ausgabetagzeit:w&#45;&gt;ausgabetagzeit:e</title>
<path fill="none" stroke="#000000" d="M197.7209,-219.759C185.031,-225.804 179.5563,-238.7 160.5,-238.7"/>
<polygon fill="#000000" stroke="#000000" points="204.1775,-218.3759 212.7541,-220.2201 208.0887,-217.5379 212,-216.7 212,-216.7 212,-216.7 208.0887,-217.5379 211.2459,-213.1799 204.1775,-218.3759 204.1775,-218.3759"/>
<ellipse fill="none" stroke="#000000" cx="201.0485" cy="-219.0462" rx="3.2" ry="3.2"/>
</g>
<!-- haushalt -->
<g id="node4" class="node">
<title>haushalt</title>
<g id="a_node4"><a xlink:href="../../tables/haushalt.html" xlink:title="haushalt" target="_top">
<polygon fill="#ffffff" stroke="transparent" points="306,-59.2 306,-120.2 408,-120.2 408,-59.2 306,-59.2"/>
<polygon fill="#f5f5f5" stroke="transparent" points="306,-96.7 306,-119.7 408,-119.7 408,-96.7 306,-96.7"/>
<polygon fill="none" stroke="#000000" points="306,-96.7 306,-119.7 408,-119.7 408,-96.7 306,-96.7"/>
<text text-anchor="start" x="311" y="-105.3" font-family="Helvetica,sans-Serif" font-weight="bold" font-size="11.00" fill="#000000">haushalt</text>
<text text-anchor="start" x="373.5219" y="-104.8" font-family="Helvetica,sans-Serif" font-size="11.00" fill="#000000">[table]</text>
<polygon fill="none" stroke="#000000" points="306,-77.7 306,-96.7 408,-96.7 408,-77.7 306,-77.7"/>
<text text-anchor="start" x="309" y="-83.8" font-family="Helvetica,sans-Serif" font-size="11.00" fill="#000000">...</text>
<polygon fill="#ffffff" stroke="transparent" points="306,-58.7 306,-77.7 408,-77.7 408,-58.7 306,-58.7"/>
<polygon fill="none" stroke="#000000" points="306,-58.7 306,-77.7 408,-77.7 408,-58.7 306,-58.7"/>
<polygon fill="#ffffff" stroke="transparent" points="307,-59.7 307,-76.7 331,-76.7 331,-59.7 307,-59.7"/>
<text text-anchor="start" x="309" y="-64.8" font-family="Helvetica,sans-Serif" font-size="11.00" fill="#000000">&lt; 3</text>
<polygon fill="#ffffff" stroke="transparent" points="331,-59.7 331,-76.7 384,-76.7 384,-59.7 331,-59.7"/>
<text text-anchor="start" x="335.1904" y="-64.8" font-family="Helvetica,sans-Serif" font-size="11.00" fill="#000000">639 rows</text>
<polygon fill="#ffffff" stroke="transparent" points="384,-59.7 384,-76.7 407,-76.7 407,-59.7 384,-59.7"/>
<text text-anchor="start" x="389.4053" y="-64.8" font-family="Helvetica,sans-Serif" font-size="11.00" fill="#000000">3 &gt;</text>
<polygon fill="#000000" stroke="#000000" points="331,-59.7 331,-76.7 331,-76.7 331,-59.7 331,-59.7"/>
<polygon fill="#000000" stroke="#000000" points="384,-59.7 384,-76.7 384,-76.7 384,-59.7 384,-59.7"/>
</a>
</g>
</g>
<!-- haushalt&#45;&gt;ausgabegruppe -->
<g id="edge3" class="edge">
<title>haushalt:w&#45;&gt;ausgabegruppe:e</title>
<path fill="none" stroke="#000000" d="M291.4488,-86.7C238.8975,-86.7 220.5794,-86.7 161.5,-86.7"/>
<polygon fill="#000000" stroke="#000000" points="298,-86.7001 306,-90.3 302,-86.7 306,-86.7 306,-86.7 306,-86.7 302,-86.7 306,-83.1 298,-86.7001 298,-86.7001"/>
<ellipse fill="none" stroke="#000000" cx="294.8" cy="-86.7001" rx="3.2" ry="3.2"/>
</g>
</g>
</svg>
