<?xml version="1.0" encoding="UTF-8" standalone="no"?>
<!DOCTYPE svg PUBLIC "-//W3C//DTD SVG 1.1//EN"
 "http://www.w3.org/Graphics/SVG/1.1/DTD/svg11.dtd">
<!-- Generated by graphviz version 2.40.1 (20161225.0304)
 -->
<!-- Title: twoDegreesRelationshipsDiagram Pages: 1 -->
<svg width="541pt" height="267pt"
 viewBox="0.00 0.00 541.00 266.70" xmlns="http://www.w3.org/2000/svg" xmlns:xlink="http://www.w3.org/1999/xlink">
<g id="graph0" class="graph" transform="scale(1 1) rotate(0) translate(4 262.7)">
<title>twoDegreesRelationshipsDiagram</title>
<polygon fill="#ffffff" stroke="transparent" points="-4,4 -4,-262.7 537,-262.7 537,4 -4,4"/>
<text text-anchor="middle" x="72.4936" y="-7.3" font-family="Helvetica,sans-Serif" font-size="11.00" fill="#000000">Generated by SchemaSpy</text>
<!-- ausgabegruppe_ausgabetagzeit -->
<g id="node1" class="node">
<title>ausgabegruppe_ausgabetagzeit</title>
<g id="a_node1"><a xlink:href="../../tables/ausgabegruppe_ausgabetagzeit.html" xlink:title="ausgabegruppe_ausgabetagzeit" target="_top">
<polygon fill="#ffffff" stroke="transparent" points="252,-100.7 252,-186.7 525,-186.7 525,-100.7 252,-100.7"/>
<polygon fill="#f5f5f5" stroke="transparent" points="252.5,-163.7 252.5,-186.7 525.5,-186.7 525.5,-163.7 252.5,-163.7"/>
<polygon fill="none" stroke="#000000" points="252.5,-163.7 252.5,-186.7 525.5,-186.7 525.5,-163.7 252.5,-163.7"/>
<text text-anchor="start" x="257.5" y="-172.3" font-family="Helvetica,sans-Serif" font-weight="bold" font-size="11.00" fill="#000000">ausgabegruppe_ausgabetagzeit</text>
<text text-anchor="start" x="491.0219" y="-171.8" font-family="Helvetica,sans-Serif" font-size="11.00" fill="#000000">[table]</text>
<polygon fill="#ffffff" stroke="transparent" points="252.5,-141.7 252.5,-163.7 525.5,-163.7 525.5,-141.7 252.5,-141.7"/>
<polygon fill="none" stroke="#000000" points="252.5,-141.7 252.5,-163.7 525.5,-163.7 525.5,-141.7 252.5,-141.7"/>
<image xlink:href="../../images/foreignKeys.png" width="11px" height="12px" preserveAspectRatio="xMinYMin meet" x="257.5" y="-158.7"/>
<text text-anchor="start" x="281.5" y="-148.8" font-family="Helvetica,sans-Serif" font-size="11.00" fill="#000000">ausgabeTagZeitId</text>
<polygon fill="#ffffff" stroke="transparent" points="252.5,-119.7 252.5,-141.7 525.5,-141.7 525.5,-119.7 252.5,-119.7"/>
<polygon fill="none" stroke="#000000" points="252.5,-119.7 252.5,-141.7 525.5,-141.7 525.5,-119.7 252.5,-119.7"/>
<image xlink:href="../../images/foreignKeys.png" width="11px" height="12px" preserveAspectRatio="xMinYMin meet" x="257.5" y="-136.7"/>
<text text-anchor="start" x="281.5" y="-126.8" font-family="Helvetica,sans-Serif" font-size="11.00" fill="#000000">ausgabegruppeId</text>
<polygon fill="#ffffff" stroke="transparent" points="252.5,-100.7 252.5,-119.7 525.5,-119.7 525.5,-100.7 252.5,-100.7"/>
<polygon fill="none" stroke="#000000" points="252.5,-100.7 252.5,-119.7 525.5,-119.7 525.5,-100.7 252.5,-100.7"/>
<polygon fill="#ffffff" stroke="transparent" points="253.5,-101.7 253.5,-118.7 341.5,-118.7 341.5,-101.7 253.5,-101.7"/>
<text text-anchor="start" x="255.5" y="-106.8" font-family="Helvetica,sans-Serif" font-size="11.00" fill="#000000">&lt; 2</text>
<polygon fill="#ffffff" stroke="transparent" points="341.5,-101.7 341.5,-118.7 446.5,-118.7 446.5,-101.7 341.5,-101.7"/>
<text text-anchor="start" x="377.8053" y="-106.8" font-family="Helvetica,sans-Serif" font-size="11.00" fill="#000000">0 rows</text>
<polygon fill="#ffffff" stroke="transparent" points="446.5,-101.7 446.5,-118.7 524.5,-118.7 524.5,-101.7 446.5,-101.7"/>
<text text-anchor="start" x="516.3862" y="-106.8" font-family="Helvetica,sans-Serif" font-size="11.00" fill="#000000"> &#160;</text>
<polygon fill="#000000" stroke="#000000" points="341.5,-101.7 341.5,-118.7 341.5,-118.7 341.5,-101.7 341.5,-101.7"/>
<polygon fill="#000000" stroke="#000000" points="446.5,-101.7 446.5,-118.7 446.5,-118.7 446.5,-101.7 446.5,-101.7"/>
</a>
</g>
</g>
<!-- ausgabegruppe -->
<g id="node2" class="node">
<title>ausgabegruppe</title>
<g id="a_node2"><a xlink:href="../../tables/ausgabegruppe.html" xlink:title="ausgabegruppe" target="_top">
<polygon fill="#ffffff" stroke="transparent" points="29,-38.2 29,-99.2 182,-99.2 182,-38.2 29,-38.2"/>
<polygon fill="#f5f5f5" stroke="transparent" points="29.5,-75.7 29.5,-98.7 182.5,-98.7 182.5,-75.7 29.5,-75.7"/>
<polygon fill="none" stroke="#000000" points="29.5,-75.7 29.5,-98.7 182.5,-98.7 182.5,-75.7 29.5,-75.7"/>
<text text-anchor="start" x="34.5" y="-84.3" font-family="Helvetica,sans-Serif" font-weight="bold" font-size="11.00" fill="#000000">ausgabegruppe</text>
<text text-anchor="start" x="148.0219" y="-83.8" font-family="Helvetica,sans-Serif" font-size="11.00" fill="#000000">[table]</text>
<polygon fill="none" stroke="#000000" points="29.5,-56.7 29.5,-75.7 182.5,-75.7 182.5,-56.7 29.5,-56.7"/>
<text text-anchor="start" x="32.5" y="-62.8" font-family="Helvetica,sans-Serif" font-size="11.00" fill="#000000">...</text>
<polygon fill="#ffffff" stroke="transparent" points="29.5,-37.7 29.5,-56.7 182.5,-56.7 182.5,-37.7 29.5,-37.7"/>
<polygon fill="none" stroke="#000000" points="29.5,-37.7 29.5,-56.7 182.5,-56.7 182.5,-37.7 29.5,-37.7"/>
<polygon fill="#ffffff" stroke="transparent" points="30.5,-38.7 30.5,-55.7 67.5,-55.7 67.5,-38.7 30.5,-38.7"/>
<text text-anchor="start" x="32.5" y="-43.8" font-family="Helvetica,sans-Serif" font-size="11.00" fill="#000000"> &#160;</text>
<polygon fill="#ffffff" stroke="transparent" points="67.5,-38.7 67.5,-55.7 136.5,-55.7 136.5,-38.7 67.5,-38.7"/>
<text text-anchor="start" x="82.7478" y="-43.8" font-family="Helvetica,sans-Serif" font-size="11.00" fill="#000000">24 rows</text>
<polygon fill="#ffffff" stroke="transparent" points="136.5,-38.7 136.5,-55.7 181.5,-55.7 181.5,-38.7 136.5,-38.7"/>
<text text-anchor="start" x="163.9053" y="-43.8" font-family="Helvetica,sans-Serif" font-size="11.00" fill="#000000">2 &gt;</text>
<polygon fill="#000000" stroke="#000000" points="67.5,-38.7 67.5,-55.7 67.5,-55.7 67.5,-38.7 67.5,-38.7"/>
<polygon fill="#000000" stroke="#000000" points="136.5,-38.7 136.5,-55.7 136.5,-55.7 136.5,-38.7 136.5,-38.7"/>
</a>
</g>
</g>
<!-- ausgabegruppe_ausgabetagzeit&#45;&gt;ausgabegruppe -->
<g id="edge1" class="edge">
<title>ausgabegruppe_ausgabetagzeit:w&#45;&gt;ausgabegruppe:e</title>
<path fill="none" stroke="#000000" d="M238.351,-127.5649C212.9933,-114.5809 219.3169,-65.7 182.5,-65.7"/>
<polygon fill="#000000" stroke="#000000" points="244.6894,-128.9693 251.7212,-134.2148 248.5947,-129.8347 252.5,-130.7 252.5,-130.7 252.5,-130.7 248.5947,-129.8347 253.2788,-127.1852 244.6894,-128.9693 244.6894,-128.9693"/>
<ellipse fill="none" stroke="#000000" cx="241.5652" cy="-128.277" rx="3.2" ry="3.2"/>
</g>
<!-- ausgabetagzeit -->
<g id="node3" class="node">
<title>ausgabetagzeit</title>
<g id="a_node3"><a xlink:href="../../tables/ausgabetagzeit.html" xlink:title="ausgabetagzeit" target="_top">
<polygon fill="#ffffff" stroke="transparent" points="8,-120.7 8,-254.7 203,-254.7 203,-120.7 8,-120.7"/>
<polygon fill="#f5f5f5" stroke="transparent" points="10.5,-229.7 10.5,-252.7 201.5,-252.7 201.5,-229.7 10.5,-229.7"/>
<polygon fill="none" stroke="#000000" points="10.5,-229.7 10.5,-252.7 201.5,-252.7 201.5,-229.7 10.5,-229.7"/>
<text text-anchor="start" x="15.5" y="-238.3" font-family="Helvetica,sans-Serif" font-weight="bold" font-size="11.00" fill="#000000">ausgabetagzeit</text>
<text text-anchor="start" x="166.5437" y="-237.8" font-family="Helvetica,sans-Serif" font-size="11.00" fill="#000000">[table]</text>
<polygon fill="none" stroke="#000000" points="10.5,-207.7 10.5,-229.7 162.5,-229.7 162.5,-207.7 10.5,-207.7"/>
<image xlink:href="../../images/primaryKeys.png" width="11px" height="12px" preserveAspectRatio="xMinYMin meet" x="15.5" y="-224.7"/>
<text text-anchor="start" x="30.5" y="-214.8" font-family="Helvetica,sans-Serif" font-size="11.00" fill="#000000">ausgabeTagZeitId</text>
<polygon fill="none" stroke="#000000" points="162.5,-207.7 162.5,-229.7 201.5,-229.7 201.5,-207.7 162.5,-207.7"/>
<text text-anchor="start" x="165.5" y="-215.4" font-family="Helvetica,sans-Serif" font-size="11.00" fill="#000000">int[10]</text>
<polygon fill="#ffffff" stroke="transparent" points="10.5,-185.7 10.5,-207.7 162.5,-207.7 162.5,-185.7 10.5,-185.7"/>
<polygon fill="none" stroke="#000000" points="10.5,-185.7 10.5,-207.7 162.5,-207.7 162.5,-185.7 10.5,-185.7"/>
<text text-anchor="start" x="30.5" y="-192.8" font-family="Helvetica,sans-Serif" font-size="11.00" fill="#000000">ausgabeTag</text>
<polygon fill="none" stroke="#000000" points="162.5,-185.7 162.5,-207.7 201.5,-207.7 201.5,-185.7 162.5,-185.7"/>
<text text-anchor="start" x="165.5" y="-193.4" font-family="Helvetica,sans-Serif" font-size="11.00" fill="#000000">int[10]</text>
<polygon fill="#ffffff" stroke="transparent" points="10.5,-163.7 10.5,-185.7 162.5,-185.7 162.5,-163.7 10.5,-163.7"/>
<polygon fill="none" stroke="#000000" points="10.5,-163.7 10.5,-185.7 162.5,-185.7 162.5,-163.7 10.5,-163.7"/>
<text text-anchor="start" x="30.5" y="-170.8" font-family="Helvetica,sans-Serif" font-size="11.00" fill="#000000">startZeit</text>
<polygon fill="none" stroke="#000000" points="162.5,-163.7 162.5,-185.7 201.5,-185.7 201.5,-163.7 162.5,-163.7"/>
<text text-anchor="start" x="165.4984" y="-171.4" font-family="Helvetica,sans-Serif" font-size="11.00" fill="#000000">time[8]</text>
<polygon fill="#ffffff" stroke="transparent" points="10.5,-141.7 10.5,-163.7 162.5,-163.7 162.5,-141.7 10.5,-141.7"/>
<polygon fill="none" stroke="#000000" points="10.5,-141.7 10.5,-163.7 162.5,-163.7 162.5,-141.7 10.5,-141.7"/>
<text text-anchor="start" x="30.5" y="-148.8" font-family="Helvetica,sans-Serif" font-size="11.00" fill="#000000">endZeit</text>
<polygon fill="none" stroke="#000000" points="162.5,-141.7 162.5,-163.7 201.5,-163.7 201.5,-141.7 162.5,-141.7"/>
<text text-anchor="start" x="165.4984" y="-149.4" font-family="Helvetica,sans-Serif" font-size="11.00" fill="#000000">time[8]</text>
<polygon fill="#ffffff" stroke="transparent" points="10.5,-122.7 10.5,-141.7 201.5,-141.7 201.5,-122.7 10.5,-122.7"/>
<polygon fill="none" stroke="#000000" points="10.5,-122.7 10.5,-141.7 201.5,-141.7 201.5,-122.7 10.5,-122.7"/>
<polygon fill="#ffffff" stroke="transparent" points="11.5,-123.7 11.5,-140.7 69.5,-140.7 69.5,-123.7 11.5,-123.7"/>
<text text-anchor="start" x="13.5" y="-128.8" font-family="Helvetica,sans-Serif" font-size="11.00" fill="#000000">&lt; 0</text>
<polygon fill="#ffffff" stroke="transparent" points="69.5,-123.7 69.5,-140.7 143.5,-140.7 143.5,-123.7 69.5,-123.7"/>
<text text-anchor="start" x="90.3053" y="-128.8" font-family="Helvetica,sans-Serif" font-size="11.00" fill="#000000">0 rows</text>
<polygon fill="#ffffff" stroke="transparent" points="143.5,-123.7 143.5,-140.7 200.5,-140.7 200.5,-123.7 143.5,-123.7"/>
<text text-anchor="start" x="182.9053" y="-128.8" font-family="Helvetica,sans-Serif" font-size="11.00" fill="#000000">1 &gt;</text>
<polygon fill="#000000" stroke="#000000" points="69.5,-123.7 69.5,-140.7 69.5,-140.7 69.5,-123.7 69.5,-123.7"/>
<polygon fill="#000000" stroke="#000000" points="143.5,-123.7 143.5,-140.7 143.5,-140.7 143.5,-123.7 143.5,-123.7"/>
<polygon fill="none" stroke="#000000" stroke-width="2" points="9,-121.7 9,-253.7 202,-253.7 202,-121.7 9,-121.7"/>
</a>
</g>
</g>
<!-- ausgabegruppe_ausgabetagzeit&#45;&gt;ausgabetagzeit -->
<g id="edge2" class="edge">
<title>ausgabegruppe_ausgabetagzeit:w&#45;&gt;ausgabetagzeit:e</title>
<path fill="none" stroke="#000000" d="M238.5846,-157.4466C221.402,-172.5798 232.4886,-218.7 201.5,-218.7"/>
<polygon fill="#000000" stroke="#000000" points="244.9284,-155.2827 253.6622,-156.1072 248.7142,-153.9914 252.5,-152.7 252.5,-152.7 252.5,-152.7 248.7142,-153.9914 251.3378,-149.2928 244.9284,-155.2827 244.9284,-155.2827"/>
<ellipse fill="none" stroke="#000000" cx="241.8997" cy="-156.3158" rx="3.2" ry="3.2"/>
</g>
</g>
</svg>
