<?xml version="1.0" encoding="UTF-8" standalone="no"?>
<!DOCTYPE svg PUBLIC "-//W3C//DTD SVG 1.1//EN"
 "http://www.w3.org/Graphics/SVG/1.1/DTD/svg11.dtd">
<!-- Generated by graphviz version 2.40.1 (20161225.0304)
 -->
<!-- Title: twoDegreesRelationshipsDiagram Pages: 1 -->
<svg width="608pt" height="342pt"
 viewBox="0.00 0.00 608.00 341.70" xmlns="http://www.w3.org/2000/svg" xmlns:xlink="http://www.w3.org/1999/xlink">
<g id="graph0" class="graph" transform="scale(1 1) rotate(0) translate(4 337.7)">
<title>twoDegreesRelationshipsDiagram</title>
<polygon fill="#ffffff" stroke="transparent" points="-4,4 -4,-337.7 604,-337.7 604,4 -4,4"/>
<text text-anchor="middle" x="72.4936" y="-7.3" font-family="Helvetica,sans-Serif" font-size="11.00" fill="#000000">Generated by SchemaSpy</text>
<!-- bescheid -->
<g id="node1" class="node">
<title>bescheid</title>
<g id="a_node1"><a xlink:href="../../tables/bescheid.html" xlink:title="bescheid" target="_top">
<polygon fill="#ffffff" stroke="transparent" points="485,-104.7 485,-165.7 589,-165.7 589,-104.7 485,-104.7"/>
<polygon fill="#f5f5f5" stroke="transparent" points="485,-142.2 485,-165.2 589,-165.2 589,-142.2 485,-142.2"/>
<polygon fill="none" stroke="#000000" points="485,-142.2 485,-165.2 589,-165.2 589,-142.2 485,-142.2"/>
<text text-anchor="start" x="490" y="-150.8" font-family="Helvetica,sans-Serif" font-weight="bold" font-size="11.00" fill="#000000">bescheid</text>
<text text-anchor="start" x="554.5219" y="-150.3" font-family="Helvetica,sans-Serif" font-size="11.00" fill="#000000">[table]</text>
<polygon fill="none" stroke="#000000" points="485,-123.2 485,-142.2 589,-142.2 589,-123.2 485,-123.2"/>
<text text-anchor="start" x="488" y="-129.3" font-family="Helvetica,sans-Serif" font-size="11.00" fill="#000000">...</text>
<polygon fill="#ffffff" stroke="transparent" points="485,-104.2 485,-123.2 589,-123.2 589,-104.2 485,-104.2"/>
<polygon fill="none" stroke="#000000" points="485,-104.2 485,-123.2 589,-123.2 589,-104.2 485,-104.2"/>
<polygon fill="#ffffff" stroke="transparent" points="486,-105.2 486,-122.2 511,-122.2 511,-105.2 486,-105.2"/>
<text text-anchor="start" x="488" y="-110.3" font-family="Helvetica,sans-Serif" font-size="11.00" fill="#000000">&lt; 2</text>
<polygon fill="#ffffff" stroke="transparent" points="511,-105.2 511,-122.2 573,-122.2 573,-105.2 511,-105.2"/>
<text text-anchor="start" x="515.1045" y="-110.3" font-family="Helvetica,sans-Serif" font-size="11.00" fill="#000000">1,280 rows</text>
<polygon fill="#ffffff" stroke="transparent" points="573,-105.2 573,-122.2 588,-122.2 588,-105.2 573,-105.2"/>
<text text-anchor="start" x="579.8862" y="-110.3" font-family="Helvetica,sans-Serif" font-size="11.00" fill="#000000"> &#160;</text>
<polygon fill="#000000" stroke="#000000" points="511,-105.2 511,-122.2 511,-122.2 511,-105.2 511,-105.2"/>
<polygon fill="#000000" stroke="#000000" points="573,-105.2 573,-122.2 573,-122.2 573,-105.2 573,-105.2"/>
</a>
</g>
</g>
<!-- familienmitglied -->
<g id="node2" class="node">
<title>familienmitglied</title>
<g id="a_node2"><a xlink:href="../../tables/familienmitglied.html" xlink:title="familienmitglied" target="_top">
<polygon fill="#ffffff" stroke="transparent" points="261,-95.7 261,-244.7 433,-244.7 433,-95.7 261,-95.7"/>
<polygon fill="#f5f5f5" stroke="transparent" points="261,-221.2 261,-244.2 433,-244.2 433,-221.2 261,-221.2"/>
<polygon fill="none" stroke="#000000" points="261,-221.2 261,-244.2 433,-244.2 433,-221.2 261,-221.2"/>
<text text-anchor="start" x="266" y="-229.8" font-family="Helvetica,sans-Serif" font-weight="bold" font-size="11.00" fill="#000000">familienmitglied</text>
<text text-anchor="start" x="398.0437" y="-229.3" font-family="Helvetica,sans-Serif" font-size="11.00" fill="#000000">[table]</text>
<polygon fill="none" stroke="#000000" points="261,-199.2 261,-221.2 433,-221.2 433,-199.2 261,-199.2"/>
<image xlink:href="../../images/primaryKeys.png" width="11px" height="12px" preserveAspectRatio="xMinYMin meet" x="266" y="-216.2"/>
<text text-anchor="start" x="281" y="-206.3" font-family="Helvetica,sans-Serif" font-size="11.00" fill="#000000">personId</text>
<polygon fill="#ffffff" stroke="transparent" points="261,-177.2 261,-199.2 433,-199.2 433,-177.2 261,-177.2"/>
<polygon fill="none" stroke="#000000" points="261,-177.2 261,-199.2 433,-199.2 433,-177.2 261,-177.2"/>
<image xlink:href="../../images/foreignKeys.png" width="11px" height="12px" preserveAspectRatio="xMinYMin meet" x="266" y="-194.2"/>
<text text-anchor="start" x="281" y="-184.3" font-family="Helvetica,sans-Serif" font-size="11.00" fill="#000000">haushaltId</text>
<polygon fill="#ffffff" stroke="transparent" points="261,-155.2 261,-177.2 433,-177.2 433,-155.2 261,-155.2"/>
<polygon fill="none" stroke="#000000" points="261,-155.2 261,-177.2 433,-177.2 433,-155.2 261,-155.2"/>
<image xlink:href="../../images/foreignKeys.png" width="11px" height="12px" preserveAspectRatio="xMinYMin meet" x="266" y="-172.2"/>
<text text-anchor="start" x="281" y="-162.3" font-family="Helvetica,sans-Serif" font-size="11.00" fill="#000000">nation</text>
<polygon fill="#ffffff" stroke="transparent" points="261,-133.2 261,-155.2 433,-155.2 433,-133.2 261,-133.2"/>
<polygon fill="none" stroke="#000000" points="261,-133.2 261,-155.2 433,-155.2 433,-133.2 261,-133.2"/>
<image xlink:href="../../images/foreignKeys.png" width="11px" height="12px" preserveAspectRatio="xMinYMin meet" x="266" y="-150.2"/>
<text text-anchor="start" x="281" y="-140.3" font-family="Helvetica,sans-Serif" font-size="11.00" fill="#000000">berechtigungId</text>
<polygon fill="none" stroke="#000000" points="261,-114.2 261,-133.2 433,-133.2 433,-114.2 261,-114.2"/>
<text text-anchor="start" x="264" y="-120.3" font-family="Helvetica,sans-Serif" font-size="11.00" fill="#000000">...</text>
<polygon fill="#ffffff" stroke="transparent" points="261,-95.2 261,-114.2 433,-114.2 433,-95.2 261,-95.2"/>
<polygon fill="none" stroke="#000000" points="261,-95.2 261,-114.2 433,-114.2 433,-95.2 261,-95.2"/>
<polygon fill="#ffffff" stroke="transparent" points="262,-96.2 262,-113.2 306,-113.2 306,-96.2 262,-96.2"/>
<text text-anchor="start" x="264" y="-101.3" font-family="Helvetica,sans-Serif" font-size="11.00" fill="#000000">&lt; 3</text>
<polygon fill="#ffffff" stroke="transparent" points="306,-96.2 306,-113.2 388,-113.2 388,-96.2 306,-96.2"/>
<text text-anchor="start" x="320.1045" y="-101.3" font-family="Helvetica,sans-Serif" font-size="11.00" fill="#000000">1,525 rows</text>
<polygon fill="#ffffff" stroke="transparent" points="388,-96.2 388,-113.2 432,-113.2 432,-96.2 388,-96.2"/>
<text text-anchor="start" x="414.4053" y="-101.3" font-family="Helvetica,sans-Serif" font-size="11.00" fill="#000000">3 &gt;</text>
<polygon fill="#000000" stroke="#000000" points="306,-96.2 306,-113.2 306,-113.2 306,-96.2 306,-96.2"/>
<polygon fill="#000000" stroke="#000000" points="388,-96.2 388,-113.2 388,-113.2 388,-96.2 388,-96.2"/>
</a>
</g>
</g>
<!-- bescheid&#45;&gt;familienmitglied -->
<g id="edge1" class="edge">
<title>bescheid:w&#45;&gt;familienmitglied:e</title>
<path fill="none" stroke="#000000" d="M471.0682,-136.6171C450.8669,-153.1175 468.6424,-210.2 433,-210.2"/>
<polygon fill="#000000" stroke="#000000" points="477.3741,-134.6178 486.088,-135.6317 481.1871,-133.4089 485,-132.2 485,-132.2 485,-132.2 481.1871,-133.4089 483.912,-128.7683 477.3741,-134.6178 477.3741,-134.6178"/>
<ellipse fill="none" stroke="#000000" cx="474.3237" cy="-135.585" rx="3.2" ry="3.2"/>
</g>
<!-- haushalt -->
<g id="node4" class="node">
<title>haushalt</title>
<g id="a_node4"><a xlink:href="../../tables/haushalt.html" xlink:title="haushalt" target="_top">
<polygon fill="#ffffff" stroke="transparent" points="59,-241.7 59,-302.7 161,-302.7 161,-241.7 59,-241.7"/>
<polygon fill="#f5f5f5" stroke="transparent" points="59,-279.2 59,-302.2 161,-302.2 161,-279.2 59,-279.2"/>
<polygon fill="none" stroke="#000000" points="59,-279.2 59,-302.2 161,-302.2 161,-279.2 59,-279.2"/>
<text text-anchor="start" x="64" y="-287.8" font-family="Helvetica,sans-Serif" font-weight="bold" font-size="11.00" fill="#000000">haushalt</text>
<text text-anchor="start" x="126.5219" y="-287.3" font-family="Helvetica,sans-Serif" font-size="11.00" fill="#000000">[table]</text>
<polygon fill="none" stroke="#000000" points="59,-260.2 59,-279.2 161,-279.2 161,-260.2 59,-260.2"/>
<text text-anchor="start" x="62" y="-266.3" font-family="Helvetica,sans-Serif" font-size="11.00" fill="#000000">...</text>
<polygon fill="#ffffff" stroke="transparent" points="59,-241.2 59,-260.2 161,-260.2 161,-241.2 59,-241.2"/>
<polygon fill="none" stroke="#000000" points="59,-241.2 59,-260.2 161,-260.2 161,-241.2 59,-241.2"/>
<polygon fill="#ffffff" stroke="transparent" points="60,-242.2 60,-259.2 84,-259.2 84,-242.2 60,-242.2"/>
<text text-anchor="start" x="62" y="-247.3" font-family="Helvetica,sans-Serif" font-size="11.00" fill="#000000">&lt; 3</text>
<polygon fill="#ffffff" stroke="transparent" points="84,-242.2 84,-259.2 137,-259.2 137,-242.2 84,-242.2"/>
<text text-anchor="start" x="88.1904" y="-247.3" font-family="Helvetica,sans-Serif" font-size="11.00" fill="#000000">639 rows</text>
<polygon fill="#ffffff" stroke="transparent" points="137,-242.2 137,-259.2 160,-259.2 160,-242.2 137,-242.2"/>
<text text-anchor="start" x="142.4053" y="-247.3" font-family="Helvetica,sans-Serif" font-size="11.00" fill="#000000">3 &gt;</text>
<polygon fill="#000000" stroke="#000000" points="84,-242.2 84,-259.2 84,-259.2 84,-242.2 84,-242.2"/>
<polygon fill="#000000" stroke="#000000" points="137,-242.2 137,-259.2 137,-259.2 137,-242.2 137,-242.2"/>
</a>
</g>
</g>
<!-- familienmitglied&#45;&gt;haushalt -->
<g id="edge5" class="edge">
<title>familienmitglied:w&#45;&gt;haushalt:e</title>
<path fill="none" stroke="#000000" d="M249.4004,-197.1779C223.3429,-218.2672 162.4173,-269.2 161,-269.2"/>
<polygon fill="#000000" stroke="#000000" points="254.6736,-193.0966 263.2035,-191.0469 257.8368,-190.6483 261,-188.2 261,-188.2 261,-188.2 257.8368,-190.6483 258.7965,-185.3531 254.6736,-193.0966 254.6736,-193.0966"/>
<ellipse fill="none" stroke="#000000" cx="252.143" cy="-195.0552" rx="3.2" ry="3.2"/>
</g>
<!-- berechtigung -->
<g id="node5" class="node">
<title>berechtigung</title>
<g id="a_node5"><a xlink:href="../../tables/berechtigung.html" xlink:title="berechtigung" target="_top">
<polygon fill="#ffffff" stroke="transparent" points="8,-38.2 8,-128.2 212,-128.2 212,-38.2 8,-38.2"/>
<polygon fill="#f5f5f5" stroke="transparent" points="10,-103.2 10,-126.2 210,-126.2 210,-103.2 10,-103.2"/>
<polygon fill="none" stroke="#000000" points="10,-103.2 10,-126.2 210,-126.2 210,-103.2 10,-103.2"/>
<text text-anchor="start" x="15" y="-111.8" font-family="Helvetica,sans-Serif" font-weight="bold" font-size="11.00" fill="#000000">berechtigung</text>
<text text-anchor="start" x="175.0437" y="-111.3" font-family="Helvetica,sans-Serif" font-size="11.00" fill="#000000">[table]</text>
<polygon fill="none" stroke="#000000" points="10,-81.2 10,-103.2 143,-103.2 143,-81.2 10,-81.2"/>
<image xlink:href="../../images/primaryKeys.png" width="11px" height="12px" preserveAspectRatio="xMinYMin meet" x="15" y="-98.2"/>
<text text-anchor="start" x="30" y="-88.3" font-family="Helvetica,sans-Serif" font-size="11.00" fill="#000000">berechtigungId</text>
<polygon fill="none" stroke="#000000" points="143,-81.2 143,-103.2 210,-103.2 210,-81.2 143,-81.2"/>
<text text-anchor="start" x="146" y="-88.9" font-family="Helvetica,sans-Serif" font-size="11.00" fill="#000000">int[10]</text>
<polygon fill="none" stroke="#000000" points="10,-59.2 10,-81.2 143,-81.2 143,-59.2 10,-59.2"/>
<text text-anchor="start" x="30" y="-66.3" font-family="Helvetica,sans-Serif" font-size="11.00" fill="#000000">name</text>
<polygon fill="none" stroke="#000000" points="143,-59.2 143,-81.2 210,-81.2 210,-59.2 143,-59.2"/>
<text text-anchor="start" x="145.9365" y="-66.9" font-family="Helvetica,sans-Serif" font-size="11.00" fill="#000000">varchar[100]</text>
<polygon fill="#ffffff" stroke="transparent" points="10,-40.2 10,-59.2 210,-59.2 210,-40.2 10,-40.2"/>
<polygon fill="none" stroke="#000000" points="10,-40.2 10,-59.2 210,-59.2 210,-40.2 10,-40.2"/>
<polygon fill="#ffffff" stroke="transparent" points="11,-41.2 11,-58.2 72,-58.2 72,-41.2 11,-41.2"/>
<text text-anchor="start" x="13" y="-46.3" font-family="Helvetica,sans-Serif" font-size="11.00" fill="#000000">&lt; 0</text>
<polygon fill="#ffffff" stroke="transparent" points="72,-41.2 72,-58.2 149,-58.2 149,-41.2 72,-41.2"/>
<text text-anchor="start" x="94.3053" y="-46.3" font-family="Helvetica,sans-Serif" font-size="11.00" fill="#000000">5 rows</text>
<polygon fill="#ffffff" stroke="transparent" points="149,-41.2 149,-58.2 209,-58.2 209,-41.2 149,-41.2"/>
<text text-anchor="start" x="191.4053" y="-46.3" font-family="Helvetica,sans-Serif" font-size="11.00" fill="#000000">1 &gt;</text>
<polygon fill="#000000" stroke="#000000" points="72,-41.2 72,-58.2 72,-58.2 72,-41.2 72,-41.2"/>
<polygon fill="#000000" stroke="#000000" points="149,-41.2 149,-58.2 149,-58.2 149,-41.2 149,-41.2"/>
<polygon fill="none" stroke="#000000" stroke-width="2" points="9,-39.2 9,-127.2 211,-127.2 211,-39.2 9,-39.2"/>
</a>
</g>
</g>
<!-- familienmitglied&#45;&gt;berechtigung -->
<g id="edge4" class="edge">
<title>familienmitglied:w&#45;&gt;berechtigung:e</title>
<path fill="none" stroke="#000000" d="M247.0468,-139.4012C232.161,-126.5281 236.3017,-92.2 210,-92.2"/>
<polygon fill="#000000" stroke="#000000" points="253.4349,-141.5982 259.8292,-147.6043 257.2175,-142.8991 261,-144.2 261,-144.2 261,-144.2 257.2175,-142.8991 262.1708,-140.7957 253.4349,-141.5982 253.4349,-141.5982"/>
<ellipse fill="none" stroke="#000000" cx="250.4089" cy="-140.5574" rx="3.2" ry="3.2"/>
</g>
<!-- nation -->
<g id="node6" class="node">
<title>nation</title>
<g id="a_node6"><a xlink:href="../../tables/nation.html" xlink:title="nation" target="_top">
<polygon fill="#ffffff" stroke="transparent" points="67.5,-149.7 67.5,-210.7 152.5,-210.7 152.5,-149.7 67.5,-149.7"/>
<polygon fill="#f5f5f5" stroke="transparent" points="68,-187.2 68,-210.2 153,-210.2 153,-187.2 68,-187.2"/>
<polygon fill="none" stroke="#000000" points="68,-187.2 68,-210.2 153,-210.2 153,-187.2 68,-187.2"/>
<text text-anchor="start" x="73" y="-195.8" font-family="Helvetica,sans-Serif" font-weight="bold" font-size="11.00" fill="#000000">nation</text>
<text text-anchor="start" x="118.5219" y="-195.3" font-family="Helvetica,sans-Serif" font-size="11.00" fill="#000000">[table]</text>
<polygon fill="none" stroke="#000000" points="68,-168.2 68,-187.2 153,-187.2 153,-168.2 68,-168.2"/>
<text text-anchor="start" x="71" y="-174.3" font-family="Helvetica,sans-Serif" font-size="11.00" fill="#000000">...</text>
<polygon fill="#ffffff" stroke="transparent" points="68,-149.2 68,-168.2 153,-168.2 153,-149.2 68,-149.2"/>
<polygon fill="none" stroke="#000000" points="68,-149.2 68,-168.2 153,-168.2 153,-149.2 68,-149.2"/>
<polygon fill="#ffffff" stroke="transparent" points="69,-150.2 69,-167.2 81,-167.2 81,-150.2 69,-150.2"/>
<text text-anchor="start" x="71" y="-155.3" font-family="Helvetica,sans-Serif" font-size="11.00" fill="#000000"> &#160;</text>
<polygon fill="#ffffff" stroke="transparent" points="81,-150.2 81,-167.2 131,-167.2 131,-150.2 81,-150.2"/>
<text text-anchor="start" x="83.6904" y="-155.3" font-family="Helvetica,sans-Serif" font-size="11.00" fill="#000000">190 rows</text>
<polygon fill="#ffffff" stroke="transparent" points="131,-150.2 131,-167.2 152,-167.2 152,-150.2 131,-150.2"/>
<text text-anchor="start" x="134.4053" y="-155.3" font-family="Helvetica,sans-Serif" font-size="11.00" fill="#000000">1 &gt;</text>
<polygon fill="#000000" stroke="#000000" points="81,-150.2 81,-167.2 81,-167.2 81,-150.2 81,-150.2"/>
<polygon fill="#000000" stroke="#000000" points="131,-150.2 131,-167.2 131,-167.2 131,-150.2 131,-150.2"/>
</a>
</g>
</g>
<!-- familienmitglied&#45;&gt;nation -->
<g id="edge6" class="edge">
<title>familienmitglied:w&#45;&gt;nation:e</title>
<path fill="none" stroke="#000000" d="M246.3911,-166.566C209.7957,-168.4747 195.9712,-177.2 153,-177.2"/>
<polygon fill="#000000" stroke="#000000" points="253.0025,-166.4004 261.0902,-169.7989 257.0013,-166.3002 261,-166.2 261,-166.2 261,-166.2 257.0013,-166.3002 260.9098,-162.6011 253.0025,-166.4004 253.0025,-166.4004"/>
<ellipse fill="none" stroke="#000000" cx="249.8035" cy="-166.4806" rx="3.2" ry="3.2"/>
</g>
<!-- einkauf -->
<g id="node3" class="node">
<title>einkauf</title>
<g id="a_node3"><a xlink:href="../../tables/einkauf.html" xlink:title="einkauf" target="_top">
<polygon fill="#ffffff" stroke="transparent" points="490.5,-186.7 490.5,-247.7 583.5,-247.7 583.5,-186.7 490.5,-186.7"/>
<polygon fill="#f5f5f5" stroke="transparent" points="491,-224.2 491,-247.2 584,-247.2 584,-224.2 491,-224.2"/>
<polygon fill="none" stroke="#000000" points="491,-224.2 491,-247.2 584,-247.2 584,-224.2 491,-224.2"/>
<text text-anchor="start" x="496" y="-232.8" font-family="Helvetica,sans-Serif" font-weight="bold" font-size="11.00" fill="#000000">einkauf</text>
<text text-anchor="start" x="549.5219" y="-232.3" font-family="Helvetica,sans-Serif" font-size="11.00" fill="#000000">[table]</text>
<polygon fill="none" stroke="#000000" points="491,-205.2 491,-224.2 584,-224.2 584,-205.2 491,-205.2"/>
<text text-anchor="start" x="494" y="-211.3" font-family="Helvetica,sans-Serif" font-size="11.00" fill="#000000">...</text>
<polygon fill="#ffffff" stroke="transparent" points="491,-186.2 491,-205.2 584,-205.2 584,-186.2 491,-186.2"/>
<polygon fill="none" stroke="#000000" points="491,-186.2 491,-205.2 584,-205.2 584,-186.2 491,-186.2"/>
<polygon fill="#ffffff" stroke="transparent" points="492,-187.2 492,-204.2 513,-204.2 513,-187.2 492,-187.2"/>
<text text-anchor="start" x="494" y="-192.3" font-family="Helvetica,sans-Serif" font-size="11.00" fill="#000000">&lt; 4</text>
<polygon fill="#ffffff" stroke="transparent" points="513,-187.2 513,-204.2 572,-204.2 572,-187.2 513,-187.2"/>
<text text-anchor="start" x="515.6045" y="-192.3" font-family="Helvetica,sans-Serif" font-size="11.00" fill="#000000">3,276 rows</text>
<polygon fill="#ffffff" stroke="transparent" points="572,-187.2 572,-204.2 583,-204.2 583,-187.2 572,-187.2"/>
<text text-anchor="start" x="574.8862" y="-192.3" font-family="Helvetica,sans-Serif" font-size="11.00" fill="#000000"> &#160;</text>
<polygon fill="#000000" stroke="#000000" points="513,-187.2 513,-204.2 513,-204.2 513,-187.2 513,-187.2"/>
<polygon fill="#000000" stroke="#000000" points="572,-187.2 572,-204.2 572,-204.2 572,-187.2 572,-187.2"/>
</a>
</g>
</g>
<!-- einkauf&#45;&gt;familienmitglied -->
<g id="edge3" class="edge">
<title>einkauf:w&#45;&gt;familienmitglied:e</title>
<path fill="none" stroke="#000000" d="M476.4363,-213.7095C461.4612,-212.6414 453.1867,-210.2 433,-210.2"/>
<polygon fill="#000000" stroke="#000000" points="483.0045,-213.9307 490.8788,-217.798 487.0023,-214.0653 491,-214.2 491,-214.2 491,-214.2 487.0023,-214.0653 491.1212,-210.602 483.0045,-213.9307 483.0045,-213.9307"/>
<ellipse fill="none" stroke="#000000" cx="479.8063" cy="-213.8229" rx="3.2" ry="3.2"/>
</g>
<!-- einkauf&#45;&gt;haushalt -->
<g id="edge2" class="edge">
<title>einkauf:w&#45;&gt;haushalt:e</title>
<path fill="none" stroke="#000000" d="M476.7653,-217.8132C463.1628,-226.2276 462.1548,-247.0341 441,-255.2 324.7596,-300.0699 285.5999,-269.2 161,-269.2"/>
<polygon fill="#000000" stroke="#000000" points="483.2459,-216.1683 491.8857,-217.6893 487.1229,-215.1841 491,-214.2 491,-214.2 491,-214.2 487.1229,-215.1841 490.1143,-210.7107 483.2459,-216.1683 483.2459,-216.1683"/>
<ellipse fill="none" stroke="#000000" cx="480.1443" cy="-216.9556" rx="3.2" ry="3.2"/>
</g>
<!-- vollmacht -->
<g id="node7" class="node">
<title>vollmacht</title>
<g id="a_node7"><a xlink:href="../../tables/vollmacht.html" xlink:title="vollmacht" target="_top">
<polygon fill="#ffffff" stroke="transparent" points="482,-268.7 482,-329.7 592,-329.7 592,-268.7 482,-268.7"/>
<polygon fill="#f5f5f5" stroke="transparent" points="482,-306.2 482,-329.2 592,-329.2 592,-306.2 482,-306.2"/>
<polygon fill="none" stroke="#000000" points="482,-306.2 482,-329.2 592,-329.2 592,-306.2 482,-306.2"/>
<text text-anchor="start" x="487" y="-314.8" font-family="Helvetica,sans-Serif" font-weight="bold" font-size="11.00" fill="#000000">vollmacht</text>
<text text-anchor="start" x="557.5219" y="-314.3" font-family="Helvetica,sans-Serif" font-size="11.00" fill="#000000">[table]</text>
<polygon fill="none" stroke="#000000" points="482,-287.2 482,-306.2 592,-306.2 592,-287.2 482,-287.2"/>
<text text-anchor="start" x="485" y="-293.3" font-family="Helvetica,sans-Serif" font-size="11.00" fill="#000000">...</text>
<polygon fill="#ffffff" stroke="transparent" points="482,-268.2 482,-287.2 592,-287.2 592,-268.2 482,-268.2"/>
<polygon fill="none" stroke="#000000" points="482,-268.2 482,-287.2 592,-287.2 592,-268.2 482,-268.2"/>
<polygon fill="#ffffff" stroke="transparent" points="483,-269.2 483,-286.2 517,-286.2 517,-269.2 483,-269.2"/>
<text text-anchor="start" x="485" y="-274.3" font-family="Helvetica,sans-Serif" font-size="11.00" fill="#000000">&lt; 2</text>
<polygon fill="#ffffff" stroke="transparent" points="517,-269.2 517,-286.2 567,-286.2 567,-269.2 517,-269.2"/>
<text text-anchor="start" x="525.8053" y="-274.3" font-family="Helvetica,sans-Serif" font-size="11.00" fill="#000000">0 rows</text>
<polygon fill="#ffffff" stroke="transparent" points="567,-269.2 567,-286.2 591,-286.2 591,-269.2 567,-269.2"/>
<text text-anchor="start" x="582.8862" y="-274.3" font-family="Helvetica,sans-Serif" font-size="11.00" fill="#000000"> &#160;</text>
<polygon fill="#000000" stroke="#000000" points="517,-269.2 517,-286.2 517,-286.2 517,-269.2 517,-269.2"/>
<polygon fill="#000000" stroke="#000000" points="567,-269.2 567,-286.2 567,-286.2 567,-269.2 567,-269.2"/>
</a>
</g>
</g>
<!-- vollmacht&#45;&gt;familienmitglied -->
<g id="edge7" class="edge">
<title>vollmacht:w&#45;&gt;familienmitglied:e</title>
<path fill="none" stroke="#000000" d="M468.1855,-291.817C447.1172,-274.2919 470.9766,-210.2 433,-210.2"/>
<polygon fill="#000000" stroke="#000000" points="474.3746,-293.7806 480.9113,-299.6314 478.1873,-294.9903 482,-296.2 482,-296.2 482,-296.2 478.1873,-294.9903 483.0887,-292.7686 474.3746,-293.7806 474.3746,-293.7806"/>
<ellipse fill="none" stroke="#000000" cx="471.3244" cy="-292.8129" rx="3.2" ry="3.2"/>
</g>
<!-- vollmacht&#45;&gt;haushalt -->
<g id="edge8" class="edge">
<title>vollmacht:w&#45;&gt;haushalt:e</title>
<path fill="none" stroke="#000000" d="M467.5813,-296.1456C377.2887,-295.4436 349.6713,-288.0395 253,-279.2 212.0411,-275.4548 202.1297,-269.2 161,-269.2"/>
<polygon fill="#000000" stroke="#000000" points="474.0001,-296.1698 481.9864,-299.8 478,-296.1849 482,-296.2 482,-296.2 482,-296.2 478,-296.1849 482.0136,-292.6 474.0001,-296.1698 474.0001,-296.1698"/>
<ellipse fill="none" stroke="#000000" cx="470.8001" cy="-296.1577" rx="3.2" ry="3.2"/>
</g>
</g>
</svg>
