<?xml version="1.0" encoding="UTF-8" standalone="no"?>
<!DOCTYPE svg PUBLIC "-//W3C//DTD SVG 1.1//EN"
 "http://www.w3.org/Graphics/SVG/1.1/DTD/svg11.dtd">
<!-- Generated by graphviz version 2.40.1 (20161225.0304)
 -->
<!-- Title: oneDegreeRelationshipsDiagram Pages: 1 -->
<svg width="449pt" height="205pt"
 viewBox="0.00 0.00 449.00 204.70" xmlns="http://www.w3.org/2000/svg" xmlns:xlink="http://www.w3.org/1999/xlink">
<g id="graph0" class="graph" transform="scale(1 1) rotate(0) translate(4 200.7)">
<title>oneDegreeRelationshipsDiagram</title>
<polygon fill="#ffffff" stroke="transparent" points="-4,4 -4,-200.7 445,-200.7 445,4 -4,4"/>
<text text-anchor="middle" x="72.4936" y="-7.3" font-family="Helvetica,sans-Serif" font-size="11.00" fill="#000000">Generated by SchemaSpy</text>
<!-- familienmitglied -->
<g id="node1" class="node">
<title>familienmitglied</title>
<g id="a_node1"><a xlink:href="../../tables/familienmitglied.html" xlink:title="familienmitglied" target="_top">
<polygon fill="#ffffff" stroke="transparent" points="261,-43.7 261,-192.7 433,-192.7 433,-43.7 261,-43.7"/>
<polygon fill="#f5f5f5" stroke="transparent" points="261,-169.2 261,-192.2 433,-192.2 433,-169.2 261,-169.2"/>
<polygon fill="none" stroke="#000000" points="261,-169.2 261,-192.2 433,-192.2 433,-169.2 261,-169.2"/>
<text text-anchor="start" x="266" y="-177.8" font-family="Helvetica,sans-Serif" font-weight="bold" font-size="11.00" fill="#000000">familienmitglied</text>
<text text-anchor="start" x="398.0437" y="-177.3" font-family="Helvetica,sans-Serif" font-size="11.00" fill="#000000">[table]</text>
<polygon fill="none" stroke="#000000" points="261,-147.2 261,-169.2 433,-169.2 433,-147.2 261,-147.2"/>
<image xlink:href="../../images/primaryKeys.png" width="11px" height="12px" preserveAspectRatio="xMinYMin meet" x="266" y="-164.2"/>
<text text-anchor="start" x="281" y="-154.3" font-family="Helvetica,sans-Serif" font-size="11.00" fill="#000000">personId</text>
<polygon fill="#ffffff" stroke="transparent" points="261,-125.2 261,-147.2 433,-147.2 433,-125.2 261,-125.2"/>
<polygon fill="none" stroke="#000000" points="261,-125.2 261,-147.2 433,-147.2 433,-125.2 261,-125.2"/>
<image xlink:href="../../images/foreignKeys.png" width="11px" height="12px" preserveAspectRatio="xMinYMin meet" x="266" y="-142.2"/>
<text text-anchor="start" x="281" y="-132.3" font-family="Helvetica,sans-Serif" font-size="11.00" fill="#000000">haushaltId</text>
<polygon fill="#ffffff" stroke="transparent" points="261,-103.2 261,-125.2 433,-125.2 433,-103.2 261,-103.2"/>
<polygon fill="none" stroke="#000000" points="261,-103.2 261,-125.2 433,-125.2 433,-103.2 261,-103.2"/>
<image xlink:href="../../images/foreignKeys.png" width="11px" height="12px" preserveAspectRatio="xMinYMin meet" x="266" y="-120.2"/>
<text text-anchor="start" x="281" y="-110.3" font-family="Helvetica,sans-Serif" font-size="11.00" fill="#000000">nation</text>
<polygon fill="#ffffff" stroke="transparent" points="261,-81.2 261,-103.2 433,-103.2 433,-81.2 261,-81.2"/>
<polygon fill="none" stroke="#000000" points="261,-81.2 261,-103.2 433,-103.2 433,-81.2 261,-81.2"/>
<image xlink:href="../../images/foreignKeys.png" width="11px" height="12px" preserveAspectRatio="xMinYMin meet" x="266" y="-98.2"/>
<text text-anchor="start" x="281" y="-88.3" font-family="Helvetica,sans-Serif" font-size="11.00" fill="#000000">berechtigungId</text>
<polygon fill="none" stroke="#000000" points="261,-62.2 261,-81.2 433,-81.2 433,-62.2 261,-62.2"/>
<text text-anchor="start" x="264" y="-68.3" font-family="Helvetica,sans-Serif" font-size="11.00" fill="#000000">...</text>
<polygon fill="#ffffff" stroke="transparent" points="261,-43.2 261,-62.2 433,-62.2 433,-43.2 261,-43.2"/>
<polygon fill="none" stroke="#000000" points="261,-43.2 261,-62.2 433,-62.2 433,-43.2 261,-43.2"/>
<polygon fill="#ffffff" stroke="transparent" points="262,-44.2 262,-61.2 306,-61.2 306,-44.2 262,-44.2"/>
<text text-anchor="start" x="264" y="-49.3" font-family="Helvetica,sans-Serif" font-size="11.00" fill="#000000">&lt; 3</text>
<polygon fill="#ffffff" stroke="transparent" points="306,-44.2 306,-61.2 388,-61.2 388,-44.2 306,-44.2"/>
<text text-anchor="start" x="320.1045" y="-49.3" font-family="Helvetica,sans-Serif" font-size="11.00" fill="#000000">1,525 rows</text>
<polygon fill="#ffffff" stroke="transparent" points="388,-44.2 388,-61.2 432,-61.2 432,-44.2 388,-44.2"/>
<text text-anchor="start" x="414.4053" y="-49.3" font-family="Helvetica,sans-Serif" font-size="11.00" fill="#000000">3 &gt;</text>
<polygon fill="#000000" stroke="#000000" points="306,-44.2 306,-61.2 306,-61.2 306,-44.2 306,-44.2"/>
<polygon fill="#000000" stroke="#000000" points="388,-44.2 388,-61.2 388,-61.2 388,-44.2 388,-44.2"/>
</a>
</g>
</g>
<!-- berechtigung -->
<g id="node2" class="node">
<title>berechtigung</title>
<g id="a_node2"><a xlink:href="../../tables/berechtigung.html" xlink:title="berechtigung" target="_top">
<polygon fill="#ffffff" stroke="transparent" points="8,-38.2 8,-128.2 212,-128.2 212,-38.2 8,-38.2"/>
<polygon fill="#f5f5f5" stroke="transparent" points="10,-103.2 10,-126.2 210,-126.2 210,-103.2 10,-103.2"/>
<polygon fill="none" stroke="#000000" points="10,-103.2 10,-126.2 210,-126.2 210,-103.2 10,-103.2"/>
<text text-anchor="start" x="15" y="-111.8" font-family="Helvetica,sans-Serif" font-weight="bold" font-size="11.00" fill="#000000">berechtigung</text>
<text text-anchor="start" x="175.0437" y="-111.3" font-family="Helvetica,sans-Serif" font-size="11.00" fill="#000000">[table]</text>
<polygon fill="none" stroke="#000000" points="10,-81.2 10,-103.2 143,-103.2 143,-81.2 10,-81.2"/>
<image xlink:href="../../images/primaryKeys.png" width="11px" height="12px" preserveAspectRatio="xMinYMin meet" x="15" y="-98.2"/>
<text text-anchor="start" x="30" y="-88.3" font-family="Helvetica,sans-Serif" font-size="11.00" fill="#000000">berechtigungId</text>
<polygon fill="none" stroke="#000000" points="143,-81.2 143,-103.2 210,-103.2 210,-81.2 143,-81.2"/>
<text text-anchor="start" x="146" y="-88.9" font-family="Helvetica,sans-Serif" font-size="11.00" fill="#000000">int[10]</text>
<polygon fill="none" stroke="#000000" points="10,-59.2 10,-81.2 143,-81.2 143,-59.2 10,-59.2"/>
<text text-anchor="start" x="30" y="-66.3" font-family="Helvetica,sans-Serif" font-size="11.00" fill="#000000">name</text>
<polygon fill="none" stroke="#000000" points="143,-59.2 143,-81.2 210,-81.2 210,-59.2 143,-59.2"/>
<text text-anchor="start" x="145.9365" y="-66.9" font-family="Helvetica,sans-Serif" font-size="11.00" fill="#000000">varchar[100]</text>
<polygon fill="#ffffff" stroke="transparent" points="10,-40.2 10,-59.2 210,-59.2 210,-40.2 10,-40.2"/>
<polygon fill="none" stroke="#000000" points="10,-40.2 10,-59.2 210,-59.2 210,-40.2 10,-40.2"/>
<polygon fill="#ffffff" stroke="transparent" points="11,-41.2 11,-58.2 72,-58.2 72,-41.2 11,-41.2"/>
<text text-anchor="start" x="13" y="-46.3" font-family="Helvetica,sans-Serif" font-size="11.00" fill="#000000">&lt; 0</text>
<polygon fill="#ffffff" stroke="transparent" points="72,-41.2 72,-58.2 149,-58.2 149,-41.2 72,-41.2"/>
<text text-anchor="start" x="94.3053" y="-46.3" font-family="Helvetica,sans-Serif" font-size="11.00" fill="#000000">5 rows</text>
<polygon fill="#ffffff" stroke="transparent" points="149,-41.2 149,-58.2 209,-58.2 209,-41.2 149,-41.2"/>
<text text-anchor="start" x="191.4053" y="-46.3" font-family="Helvetica,sans-Serif" font-size="11.00" fill="#000000">1 &gt;</text>
<polygon fill="#000000" stroke="#000000" points="72,-41.2 72,-58.2 72,-58.2 72,-41.2 72,-41.2"/>
<polygon fill="#000000" stroke="#000000" points="149,-41.2 149,-58.2 149,-58.2 149,-41.2 149,-41.2"/>
<polygon fill="none" stroke="#000000" stroke-width="2" points="9,-39.2 9,-127.2 211,-127.2 211,-39.2 9,-39.2"/>
</a>
</g>
</g>
<!-- familienmitglied&#45;&gt;berechtigung -->
<g id="edge1" class="edge">
<title>familienmitglied:w&#45;&gt;berechtigung:e</title>
<path fill="none" stroke="#000000" d="M246.276,-92.2C234.2815,-92.2 226.8229,-92.2 210,-92.2"/>
<polygon fill="#000000" stroke="#000000" points="253,-92.2001 261,-95.8 257,-92.2 261,-92.2 261,-92.2 261,-92.2 257,-92.2 261,-88.6 253,-92.2001 253,-92.2001"/>
<ellipse fill="none" stroke="#000000" cx="249.8" cy="-92.2001" rx="3.2" ry="3.2"/>
</g>
</g>
</svg>
