<?xml version="1.0" encoding="UTF-8" standalone="no"?>
<!DOCTYPE svg PUBLIC "-//W3C//DTD SVG 1.1//EN"
 "http://www.w3.org/Graphics/SVG/1.1/DTD/svg11.dtd">
<!-- Generated by graphviz version 2.40.1 (20161225.0304)
 -->
<!-- Title: oneDegreeRelationshipsDiagram Pages: 1 -->
<svg width="244pt" height="162pt"
 viewBox="0.00 0.00 244.00 162.20" xmlns="http://www.w3.org/2000/svg" xmlns:xlink="http://www.w3.org/1999/xlink">
<g id="graph0" class="graph" transform="scale(1 1) rotate(0) translate(4 158.2)">
<title>oneDegreeRelationshipsDiagram</title>
<polygon fill="#ffffff" stroke="transparent" points="-4,4 -4,-158.2 240,-158.2 240,4 -4,4"/>
<text text-anchor="middle" x="72.4936" y="-7.3" font-family="Helvetica,sans-Serif" font-size="11.00" fill="#000000">Generated by SchemaSpy</text>
<!-- bescheidstatistik -->
<g id="node1" class="node">
<title>bescheidstatistik</title>
<g id="a_node1"><a xlink:href="../../tables/bescheidstatistik.html" xlink:title="bescheidstatistik" target="_top">
<polygon fill="#ffffff" stroke="transparent" points="8,-38.2 8,-150.2 228,-150.2 228,-38.2 8,-38.2"/>
<polygon fill="#f5f5f5" stroke="transparent" points="10,-125.2 10,-148.2 226,-148.2 226,-125.2 10,-125.2"/>
<polygon fill="none" stroke="#000000" points="10,-125.2 10,-148.2 226,-148.2 226,-125.2 10,-125.2"/>
<text text-anchor="start" x="15" y="-133.8" font-family="Helvetica,sans-Serif" font-weight="bold" font-size="11.00" fill="#000000">bescheidstatistik</text>
<text text-anchor="start" x="191.0437" y="-133.3" font-family="Helvetica,sans-Serif" font-size="11.00" fill="#000000">[table]</text>
<polygon fill="none" stroke="#000000" points="10,-103.2 10,-125.2 159,-125.2 159,-103.2 10,-103.2"/>
<image xlink:href="../../images/primaryKeys.png" width="11px" height="12px" preserveAspectRatio="xMinYMin meet" x="15" y="-120.2"/>
<text text-anchor="start" x="30" y="-110.3" font-family="Helvetica,sans-Serif" font-size="11.00" fill="#000000">id</text>
<polygon fill="none" stroke="#000000" points="159,-103.2 159,-125.2 226,-125.2 226,-103.2 159,-103.2"/>
<text text-anchor="start" x="162" y="-110.9" font-family="Helvetica,sans-Serif" font-size="11.00" fill="#000000">int[10]</text>
<polygon fill="#ffffff" stroke="transparent" points="10,-81.2 10,-103.2 159,-103.2 159,-81.2 10,-81.2"/>
<polygon fill="none" stroke="#000000" points="10,-81.2 10,-103.2 159,-103.2 159,-81.2 10,-81.2"/>
<text text-anchor="start" x="30" y="-88.3" font-family="Helvetica,sans-Serif" font-size="11.00" fill="#000000">bescheidartName</text>
<polygon fill="none" stroke="#000000" points="159,-81.2 159,-103.2 226,-103.2 226,-81.2 159,-81.2"/>
<text text-anchor="start" x="161.9365" y="-88.9" font-family="Helvetica,sans-Serif" font-size="11.00" fill="#000000">varchar[255]</text>
<polygon fill="none" stroke="#000000" points="10,-59.2 10,-81.2 159,-81.2 159,-59.2 10,-59.2"/>
<text text-anchor="start" x="30" y="-66.3" font-family="Helvetica,sans-Serif" font-size="11.00" fill="#000000">anzahlPersonen</text>
<polygon fill="none" stroke="#000000" points="159,-59.2 159,-81.2 226,-81.2 226,-59.2 159,-59.2"/>
<text text-anchor="start" x="162" y="-66.9" font-family="Helvetica,sans-Serif" font-size="11.00" fill="#000000">int[10]</text>
<polygon fill="#ffffff" stroke="transparent" points="10,-40.2 10,-59.2 226,-59.2 226,-40.2 10,-40.2"/>
<polygon fill="none" stroke="#000000" points="10,-40.2 10,-59.2 226,-59.2 226,-40.2 10,-40.2"/>
<polygon fill="#ffffff" stroke="transparent" points="11,-41.2 11,-58.2 77,-58.2 77,-41.2 11,-41.2"/>
<text text-anchor="start" x="13" y="-46.3" font-family="Helvetica,sans-Serif" font-size="11.00" fill="#000000">&lt; 0</text>
<polygon fill="#ffffff" stroke="transparent" points="77,-41.2 77,-58.2 160,-58.2 160,-41.2 77,-41.2"/>
<text text-anchor="start" x="102.3053" y="-46.3" font-family="Helvetica,sans-Serif" font-size="11.00" fill="#000000">8 rows</text>
<polygon fill="#ffffff" stroke="transparent" points="160,-41.2 160,-58.2 225,-58.2 225,-41.2 160,-41.2"/>
<text text-anchor="start" x="207.4053" y="-46.3" font-family="Helvetica,sans-Serif" font-size="11.00" fill="#000000">0 &gt;</text>
<polygon fill="#000000" stroke="#000000" points="77,-41.2 77,-58.2 77,-58.2 77,-41.2 77,-41.2"/>
<polygon fill="#000000" stroke="#000000" points="160,-41.2 160,-58.2 160,-58.2 160,-41.2 160,-41.2"/>
<polygon fill="none" stroke="#000000" stroke-width="2" points="9,-39.2 9,-149.2 227,-149.2 227,-39.2 9,-39.2"/>
</a>
</g>
</g>
</g>
</svg>
