<?xml version="1.0" encoding="UTF-8" standalone="no"?>
<!DOCTYPE svg PUBLIC "-//W3C//DTD SVG 1.1//EN"
 "http://www.w3.org/Graphics/SVG/1.1/DTD/svg11.dtd">
<!-- Generated by graphviz version 2.40.1 (20161225.0304)
 -->
<!-- Title: twoDegreesRelationshipsDiagram Pages: 1 -->
<svg width="601pt" height="415pt"
 viewBox="0.00 0.00 601.00 414.70" xmlns="http://www.w3.org/2000/svg" xmlns:xlink="http://www.w3.org/1999/xlink">
<g id="graph0" class="graph" transform="scale(1 1) rotate(0) translate(4 410.7)">
<title>twoDegreesRelationshipsDiagram</title>
<polygon fill="#ffffff" stroke="transparent" points="-4,4 -4,-410.7 597,-410.7 597,4 -4,4"/>
<text text-anchor="middle" x="72.4936" y="-7.3" font-family="Helvetica,sans-Serif" font-size="11.00" fill="#000000">Generated by SchemaSpy</text>
<!-- bescheid -->
<g id="node1" class="node">
<title>bescheid</title>
<g id="a_node1"><a xlink:href="../../tables/bescheid.html" xlink:title="bescheid" target="_top">
<polygon fill="#ffffff" stroke="transparent" points="415,-246.7 415,-402.7 585,-402.7 585,-246.7 415,-246.7"/>
<polygon fill="#f5f5f5" stroke="transparent" points="417,-377.7 417,-400.7 583,-400.7 583,-377.7 417,-377.7"/>
<polygon fill="none" stroke="#000000" points="417,-377.7 417,-400.7 583,-400.7 583,-377.7 417,-377.7"/>
<text text-anchor="start" x="422" y="-386.3" font-family="Helvetica,sans-Serif" font-weight="bold" font-size="11.00" fill="#000000">bescheid</text>
<text text-anchor="start" x="548.0437" y="-385.8" font-family="Helvetica,sans-Serif" font-size="11.00" fill="#000000">[table]</text>
<polygon fill="none" stroke="#000000" points="417,-355.7 417,-377.7 538,-377.7 538,-355.7 417,-355.7"/>
<image xlink:href="../../images/primaryKeys.png" width="11px" height="12px" preserveAspectRatio="xMinYMin meet" x="422" y="-372.7"/>
<text text-anchor="start" x="437" y="-362.8" font-family="Helvetica,sans-Serif" font-size="11.00" fill="#000000">bescheidId</text>
<polygon fill="none" stroke="#000000" points="538,-355.7 538,-377.7 583,-377.7 583,-355.7 538,-355.7"/>
<text text-anchor="start" x="541" y="-363.4" font-family="Helvetica,sans-Serif" font-size="11.00" fill="#000000">int[10]</text>
<polygon fill="#ffffff" stroke="transparent" points="417,-333.7 417,-355.7 538,-355.7 538,-333.7 417,-333.7"/>
<polygon fill="none" stroke="#000000" points="417,-333.7 417,-355.7 538,-355.7 538,-333.7 417,-333.7"/>
<image xlink:href="../../images/foreignKeys.png" width="11px" height="12px" preserveAspectRatio="xMinYMin meet" x="422" y="-350.7"/>
<text text-anchor="start" x="437" y="-340.8" font-family="Helvetica,sans-Serif" font-size="11.00" fill="#000000">personId</text>
<polygon fill="none" stroke="#000000" points="538,-333.7 538,-355.7 583,-355.7 583,-333.7 538,-333.7"/>
<text text-anchor="start" x="541" y="-341.4" font-family="Helvetica,sans-Serif" font-size="11.00" fill="#000000">int[10]</text>
<polygon fill="#ffffff" stroke="transparent" points="417,-311.7 417,-333.7 538,-333.7 538,-311.7 417,-311.7"/>
<polygon fill="none" stroke="#000000" points="417,-311.7 417,-333.7 538,-333.7 538,-311.7 417,-311.7"/>
<image xlink:href="../../images/foreignKeys.png" width="11px" height="12px" preserveAspectRatio="xMinYMin meet" x="422" y="-328.7"/>
<text text-anchor="start" x="437" y="-318.8" font-family="Helvetica,sans-Serif" font-size="11.00" fill="#000000">bescheidartId</text>
<polygon fill="none" stroke="#000000" points="538,-311.7 538,-333.7 583,-333.7 583,-311.7 538,-311.7"/>
<text text-anchor="start" x="541" y="-319.4" font-family="Helvetica,sans-Serif" font-size="11.00" fill="#000000">int[10]</text>
<polygon fill="none" stroke="#000000" points="417,-289.7 417,-311.7 538,-311.7 538,-289.7 417,-289.7"/>
<text text-anchor="start" x="437" y="-296.8" font-family="Helvetica,sans-Serif" font-size="11.00" fill="#000000">gueltigAb</text>
<polygon fill="none" stroke="#000000" points="538,-289.7 538,-311.7 583,-311.7 583,-289.7 538,-289.7"/>
<text text-anchor="start" x="540.6274" y="-297.4" font-family="Helvetica,sans-Serif" font-size="11.00" fill="#000000">date[10]</text>
<polygon fill="none" stroke="#000000" points="417,-267.7 417,-289.7 538,-289.7 538,-267.7 417,-267.7"/>
<text text-anchor="start" x="437" y="-274.8" font-family="Helvetica,sans-Serif" font-size="11.00" fill="#000000">gueltigBis</text>
<polygon fill="none" stroke="#000000" points="538,-267.7 538,-289.7 583,-289.7 583,-267.7 538,-267.7"/>
<text text-anchor="start" x="540.6274" y="-275.4" font-family="Helvetica,sans-Serif" font-size="11.00" fill="#000000">date[10]</text>
<polygon fill="#ffffff" stroke="transparent" points="417,-248.7 417,-267.7 583,-267.7 583,-248.7 417,-248.7"/>
<polygon fill="none" stroke="#000000" points="417,-248.7 417,-267.7 583,-267.7 583,-248.7 417,-248.7"/>
<polygon fill="#ffffff" stroke="transparent" points="418,-249.7 418,-266.7 460,-266.7 460,-249.7 418,-249.7"/>
<text text-anchor="start" x="420" y="-254.8" font-family="Helvetica,sans-Serif" font-size="11.00" fill="#000000">&lt; 2</text>
<polygon fill="#ffffff" stroke="transparent" points="460,-249.7 460,-266.7 540,-266.7 540,-249.7 460,-249.7"/>
<text text-anchor="start" x="473.1045" y="-254.8" font-family="Helvetica,sans-Serif" font-size="11.00" fill="#000000">1,280 rows</text>
<polygon fill="#ffffff" stroke="transparent" points="540,-249.7 540,-266.7 582,-266.7 582,-249.7 540,-249.7"/>
<text text-anchor="start" x="564.4053" y="-254.8" font-family="Helvetica,sans-Serif" font-size="11.00" fill="#000000">0 &gt;</text>
<polygon fill="#000000" stroke="#000000" points="460,-249.7 460,-266.7 460,-266.7 460,-249.7 460,-249.7"/>
<polygon fill="#000000" stroke="#000000" points="540,-249.7 540,-266.7 540,-266.7 540,-249.7 540,-249.7"/>
<polygon fill="none" stroke="#000000" stroke-width="2" points="416,-247.7 416,-401.7 584,-401.7 584,-247.7 416,-247.7"/>
</a>
</g>
</g>
<!-- bescheidart -->
<g id="node2" class="node">
<title>bescheidart</title>
<g id="a_node2"><a xlink:href="../../tables/bescheidart.html" xlink:title="bescheidart" target="_top">
<polygon fill="#ffffff" stroke="transparent" points="217.5,-275.2 217.5,-358.2 342.5,-358.2 342.5,-275.2 217.5,-275.2"/>
<polygon fill="#f5f5f5" stroke="transparent" points="218,-334.7 218,-357.7 343,-357.7 343,-334.7 218,-334.7"/>
<polygon fill="none" stroke="#000000" points="218,-334.7 218,-357.7 343,-357.7 343,-334.7 218,-334.7"/>
<text text-anchor="start" x="223" y="-343.3" font-family="Helvetica,sans-Serif" font-weight="bold" font-size="11.00" fill="#000000">bescheidart</text>
<text text-anchor="start" x="308.5219" y="-342.8" font-family="Helvetica,sans-Serif" font-size="11.00" fill="#000000">[table]</text>
<polygon fill="none" stroke="#000000" points="218,-312.7 218,-334.7 343,-334.7 343,-312.7 218,-312.7"/>
<image xlink:href="../../images/primaryKeys.png" width="11px" height="12px" preserveAspectRatio="xMinYMin meet" x="223" y="-329.7"/>
<text text-anchor="start" x="239" y="-319.8" font-family="Helvetica,sans-Serif" font-size="11.00" fill="#000000">bescheidArtId</text>
<polygon fill="none" stroke="#000000" points="218,-293.7 218,-312.7 343,-312.7 343,-293.7 218,-293.7"/>
<text text-anchor="start" x="221" y="-299.8" font-family="Helvetica,sans-Serif" font-size="11.00" fill="#000000">...</text>
<polygon fill="#ffffff" stroke="transparent" points="218,-274.7 218,-293.7 343,-293.7 343,-274.7 218,-274.7"/>
<polygon fill="none" stroke="#000000" points="218,-274.7 218,-293.7 343,-293.7 343,-274.7 218,-274.7"/>
<polygon fill="#ffffff" stroke="transparent" points="219,-275.7 219,-292.7 247,-292.7 247,-275.7 219,-275.7"/>
<text text-anchor="start" x="221" y="-280.8" font-family="Helvetica,sans-Serif" font-size="11.00" fill="#000000"> &#160;</text>
<polygon fill="#ffffff" stroke="transparent" points="247,-275.7 247,-292.7 306,-292.7 306,-275.7 247,-275.7"/>
<text text-anchor="start" x="257.2478" y="-280.8" font-family="Helvetica,sans-Serif" font-size="11.00" fill="#000000">18 rows</text>
<polygon fill="#ffffff" stroke="transparent" points="306,-275.7 306,-292.7 342,-292.7 342,-275.7 306,-275.7"/>
<text text-anchor="start" x="324.4053" y="-280.8" font-family="Helvetica,sans-Serif" font-size="11.00" fill="#000000">1 &gt;</text>
<polygon fill="#000000" stroke="#000000" points="247,-275.7 247,-292.7 247,-292.7 247,-275.7 247,-275.7"/>
<polygon fill="#000000" stroke="#000000" points="306,-275.7 306,-292.7 306,-292.7 306,-275.7 306,-275.7"/>
</a>
</g>
</g>
<!-- bescheid&#45;&gt;bescheidart -->
<g id="edge1" class="edge">
<title>bescheid:w&#45;&gt;bescheidart:e</title>
<path fill="none" stroke="#000000" d="M402.5856,-322.7719C380.748,-323.0012 370.4956,-323.7 343,-323.7"/>
<polygon fill="#000000" stroke="#000000" points="409.0001,-322.74 417.018,-326.3 413,-322.72 417,-322.7 417,-322.7 417,-322.7 413,-322.72 416.982,-319.1 409.0001,-322.74 409.0001,-322.74"/>
<ellipse fill="none" stroke="#000000" cx="405.8001" cy="-322.756" rx="3.2" ry="3.2"/>
</g>
<!-- familienmitglied -->
<g id="node3" class="node">
<title>familienmitglied</title>
<g id="a_node3"><a xlink:href="../../tables/familienmitglied.html" xlink:title="familienmitglied" target="_top">
<polygon fill="#ffffff" stroke="transparent" points="194,-77.2 194,-226.2 366,-226.2 366,-77.2 194,-77.2"/>
<polygon fill="#f5f5f5" stroke="transparent" points="194,-202.7 194,-225.7 366,-225.7 366,-202.7 194,-202.7"/>
<polygon fill="none" stroke="#000000" points="194,-202.7 194,-225.7 366,-225.7 366,-202.7 194,-202.7"/>
<text text-anchor="start" x="199" y="-211.3" font-family="Helvetica,sans-Serif" font-weight="bold" font-size="11.00" fill="#000000">familienmitglied</text>
<text text-anchor="start" x="331.0437" y="-210.8" font-family="Helvetica,sans-Serif" font-size="11.00" fill="#000000">[table]</text>
<polygon fill="none" stroke="#000000" points="194,-180.7 194,-202.7 366,-202.7 366,-180.7 194,-180.7"/>
<image xlink:href="../../images/primaryKeys.png" width="11px" height="12px" preserveAspectRatio="xMinYMin meet" x="199" y="-197.7"/>
<text text-anchor="start" x="214" y="-187.8" font-family="Helvetica,sans-Serif" font-size="11.00" fill="#000000">personId</text>
<polygon fill="#ffffff" stroke="transparent" points="194,-158.7 194,-180.7 366,-180.7 366,-158.7 194,-158.7"/>
<polygon fill="none" stroke="#000000" points="194,-158.7 194,-180.7 366,-180.7 366,-158.7 194,-158.7"/>
<image xlink:href="../../images/foreignKeys.png" width="11px" height="12px" preserveAspectRatio="xMinYMin meet" x="199" y="-175.7"/>
<text text-anchor="start" x="214" y="-165.8" font-family="Helvetica,sans-Serif" font-size="11.00" fill="#000000">haushaltId</text>
<polygon fill="#ffffff" stroke="transparent" points="194,-136.7 194,-158.7 366,-158.7 366,-136.7 194,-136.7"/>
<polygon fill="none" stroke="#000000" points="194,-136.7 194,-158.7 366,-158.7 366,-136.7 194,-136.7"/>
<image xlink:href="../../images/foreignKeys.png" width="11px" height="12px" preserveAspectRatio="xMinYMin meet" x="199" y="-153.7"/>
<text text-anchor="start" x="214" y="-143.8" font-family="Helvetica,sans-Serif" font-size="11.00" fill="#000000">nation</text>
<polygon fill="#ffffff" stroke="transparent" points="194,-114.7 194,-136.7 366,-136.7 366,-114.7 194,-114.7"/>
<polygon fill="none" stroke="#000000" points="194,-114.7 194,-136.7 366,-136.7 366,-114.7 194,-114.7"/>
<image xlink:href="../../images/foreignKeys.png" width="11px" height="12px" preserveAspectRatio="xMinYMin meet" x="199" y="-131.7"/>
<text text-anchor="start" x="214" y="-121.8" font-family="Helvetica,sans-Serif" font-size="11.00" fill="#000000">berechtigungId</text>
<polygon fill="none" stroke="#000000" points="194,-95.7 194,-114.7 366,-114.7 366,-95.7 194,-95.7"/>
<text text-anchor="start" x="197" y="-101.8" font-family="Helvetica,sans-Serif" font-size="11.00" fill="#000000">...</text>
<polygon fill="#ffffff" stroke="transparent" points="194,-76.7 194,-95.7 366,-95.7 366,-76.7 194,-76.7"/>
<polygon fill="none" stroke="#000000" points="194,-76.7 194,-95.7 366,-95.7 366,-76.7 194,-76.7"/>
<polygon fill="#ffffff" stroke="transparent" points="195,-77.7 195,-94.7 239,-94.7 239,-77.7 195,-77.7"/>
<text text-anchor="start" x="197" y="-82.8" font-family="Helvetica,sans-Serif" font-size="11.00" fill="#000000">&lt; 3</text>
<polygon fill="#ffffff" stroke="transparent" points="239,-77.7 239,-94.7 321,-94.7 321,-77.7 239,-77.7"/>
<text text-anchor="start" x="253.1045" y="-82.8" font-family="Helvetica,sans-Serif" font-size="11.00" fill="#000000">1,525 rows</text>
<polygon fill="#ffffff" stroke="transparent" points="321,-77.7 321,-94.7 365,-94.7 365,-77.7 321,-77.7"/>
<text text-anchor="start" x="347.4053" y="-82.8" font-family="Helvetica,sans-Serif" font-size="11.00" fill="#000000">3 &gt;</text>
<polygon fill="#000000" stroke="#000000" points="239,-77.7 239,-94.7 239,-94.7 239,-77.7 239,-77.7"/>
<polygon fill="#000000" stroke="#000000" points="321,-77.7 321,-94.7 321,-94.7 321,-77.7 321,-77.7"/>
</a>
</g>
</g>
<!-- bescheid&#45;&gt;familienmitglied -->
<g id="edge2" class="edge">
<title>bescheid:w&#45;&gt;familienmitglied:e</title>
<path fill="none" stroke="#000000" d="M402.7676,-341.9138C359.0613,-321.1772 431.9384,-191.7 366,-191.7"/>
<polygon fill="#000000" stroke="#000000" points="409.149,-343.163 416.3084,-348.2329 413.0745,-343.9315 417,-344.7 417,-344.7 417,-344.7 413.0745,-343.9315 417.6916,-341.1671 409.149,-343.163 409.149,-343.163"/>
<ellipse fill="none" stroke="#000000" cx="406.0086" cy="-342.5482" rx="3.2" ry="3.2"/>
</g>
<!-- haushalt -->
<g id="node5" class="node">
<title>haushalt</title>
<g id="a_node5"><a xlink:href="../../tables/haushalt.html" xlink:title="haushalt" target="_top">
<polygon fill="#ffffff" stroke="transparent" points="25.5,-202.2 25.5,-263.2 127.5,-263.2 127.5,-202.2 25.5,-202.2"/>
<polygon fill="#f5f5f5" stroke="transparent" points="25.5,-239.7 25.5,-262.7 127.5,-262.7 127.5,-239.7 25.5,-239.7"/>
<polygon fill="none" stroke="#000000" points="25.5,-239.7 25.5,-262.7 127.5,-262.7 127.5,-239.7 25.5,-239.7"/>
<text text-anchor="start" x="30.5" y="-248.3" font-family="Helvetica,sans-Serif" font-weight="bold" font-size="11.00" fill="#000000">haushalt</text>
<text text-anchor="start" x="93.0219" y="-247.8" font-family="Helvetica,sans-Serif" font-size="11.00" fill="#000000">[table]</text>
<polygon fill="none" stroke="#000000" points="25.5,-220.7 25.5,-239.7 127.5,-239.7 127.5,-220.7 25.5,-220.7"/>
<text text-anchor="start" x="28.5" y="-226.8" font-family="Helvetica,sans-Serif" font-size="11.00" fill="#000000">...</text>
<polygon fill="#ffffff" stroke="transparent" points="25.5,-201.7 25.5,-220.7 127.5,-220.7 127.5,-201.7 25.5,-201.7"/>
<polygon fill="none" stroke="#000000" points="25.5,-201.7 25.5,-220.7 127.5,-220.7 127.5,-201.7 25.5,-201.7"/>
<polygon fill="#ffffff" stroke="transparent" points="26.5,-202.7 26.5,-219.7 50.5,-219.7 50.5,-202.7 26.5,-202.7"/>
<text text-anchor="start" x="28.5" y="-207.8" font-family="Helvetica,sans-Serif" font-size="11.00" fill="#000000">&lt; 3</text>
<polygon fill="#ffffff" stroke="transparent" points="50.5,-202.7 50.5,-219.7 103.5,-219.7 103.5,-202.7 50.5,-202.7"/>
<text text-anchor="start" x="54.6904" y="-207.8" font-family="Helvetica,sans-Serif" font-size="11.00" fill="#000000">639 rows</text>
<polygon fill="#ffffff" stroke="transparent" points="103.5,-202.7 103.5,-219.7 126.5,-219.7 126.5,-202.7 103.5,-202.7"/>
<text text-anchor="start" x="108.9053" y="-207.8" font-family="Helvetica,sans-Serif" font-size="11.00" fill="#000000">3 &gt;</text>
<polygon fill="#000000" stroke="#000000" points="50.5,-202.7 50.5,-219.7 50.5,-219.7 50.5,-202.7 50.5,-202.7"/>
<polygon fill="#000000" stroke="#000000" points="103.5,-202.7 103.5,-219.7 103.5,-219.7 103.5,-202.7 103.5,-202.7"/>
</a>
</g>
</g>
<!-- familienmitglied&#45;&gt;haushalt -->
<g id="edge6" class="edge">
<title>familienmitglied:w&#45;&gt;haushalt:e</title>
<path fill="none" stroke="#000000" d="M179.7367,-173.0978C156.878,-185.7904 161.5541,-229.7 127.5,-229.7"/>
<polygon fill="#000000" stroke="#000000" points="186.2178,-171.5539 194.8343,-173.202 190.1089,-170.627 194,-169.7 194,-169.7 194,-169.7 190.1089,-170.627 193.1657,-166.198 186.2178,-171.5539 186.2178,-171.5539"/>
<ellipse fill="none" stroke="#000000" cx="183.1049" cy="-172.2955" rx="3.2" ry="3.2"/>
</g>
<!-- berechtigung -->
<g id="node6" class="node">
<title>berechtigung</title>
<g id="a_node6"><a xlink:href="../../tables/berechtigung.html" xlink:title="berechtigung" target="_top">
<polygon fill="#ffffff" stroke="transparent" points="8,-38.2 8,-99.2 145,-99.2 145,-38.2 8,-38.2"/>
<polygon fill="#f5f5f5" stroke="transparent" points="8.5,-75.7 8.5,-98.7 145.5,-98.7 145.5,-75.7 8.5,-75.7"/>
<polygon fill="none" stroke="#000000" points="8.5,-75.7 8.5,-98.7 145.5,-98.7 145.5,-75.7 8.5,-75.7"/>
<text text-anchor="start" x="13.5" y="-84.3" font-family="Helvetica,sans-Serif" font-weight="bold" font-size="11.00" fill="#000000">berechtigung</text>
<text text-anchor="start" x="111.0219" y="-83.8" font-family="Helvetica,sans-Serif" font-size="11.00" fill="#000000">[table]</text>
<polygon fill="none" stroke="#000000" points="8.5,-56.7 8.5,-75.7 145.5,-75.7 145.5,-56.7 8.5,-56.7"/>
<text text-anchor="start" x="11.5" y="-62.8" font-family="Helvetica,sans-Serif" font-size="11.00" fill="#000000">...</text>
<polygon fill="#ffffff" stroke="transparent" points="8.5,-37.7 8.5,-56.7 145.5,-56.7 145.5,-37.7 8.5,-37.7"/>
<polygon fill="none" stroke="#000000" points="8.5,-37.7 8.5,-56.7 145.5,-56.7 145.5,-37.7 8.5,-37.7"/>
<polygon fill="#ffffff" stroke="transparent" points="9.5,-38.7 9.5,-55.7 43.5,-55.7 43.5,-38.7 9.5,-38.7"/>
<text text-anchor="start" x="11.5" y="-43.8" font-family="Helvetica,sans-Serif" font-size="11.00" fill="#000000"> &#160;</text>
<polygon fill="#ffffff" stroke="transparent" points="43.5,-38.7 43.5,-55.7 102.5,-55.7 102.5,-38.7 43.5,-38.7"/>
<text text-anchor="start" x="56.8053" y="-43.8" font-family="Helvetica,sans-Serif" font-size="11.00" fill="#000000">5 rows</text>
<polygon fill="#ffffff" stroke="transparent" points="102.5,-38.7 102.5,-55.7 144.5,-55.7 144.5,-38.7 102.5,-38.7"/>
<text text-anchor="start" x="126.9053" y="-43.8" font-family="Helvetica,sans-Serif" font-size="11.00" fill="#000000">1 &gt;</text>
<polygon fill="#000000" stroke="#000000" points="43.5,-38.7 43.5,-55.7 43.5,-55.7 43.5,-38.7 43.5,-38.7"/>
<polygon fill="#000000" stroke="#000000" points="102.5,-38.7 102.5,-55.7 102.5,-55.7 102.5,-38.7 102.5,-38.7"/>
</a>
</g>
</g>
<!-- familienmitglied&#45;&gt;berechtigung -->
<g id="edge5" class="edge">
<title>familienmitglied:w&#45;&gt;berechtigung:e</title>
<path fill="none" stroke="#000000" d="M180.1513,-120.5844C165.1711,-106.0748 173.6279,-65.7 145.5,-65.7"/>
<polygon fill="#000000" stroke="#000000" points="186.4956,-122.9279 192.7526,-129.077 190.2478,-124.314 194,-125.7 194,-125.7 194,-125.7 190.2478,-124.314 195.2474,-122.323 186.4956,-122.9279 186.4956,-122.9279"/>
<ellipse fill="none" stroke="#000000" cx="183.4939" cy="-121.8191" rx="3.2" ry="3.2"/>
</g>
<!-- nation -->
<g id="node7" class="node">
<title>nation</title>
<g id="a_node7"><a xlink:href="../../tables/nation.html" xlink:title="nation" target="_top">
<polygon fill="#ffffff" stroke="transparent" points="34,-120.2 34,-181.2 119,-181.2 119,-120.2 34,-120.2"/>
<polygon fill="#f5f5f5" stroke="transparent" points="34.5,-157.7 34.5,-180.7 119.5,-180.7 119.5,-157.7 34.5,-157.7"/>
<polygon fill="none" stroke="#000000" points="34.5,-157.7 34.5,-180.7 119.5,-180.7 119.5,-157.7 34.5,-157.7"/>
<text text-anchor="start" x="39.5" y="-166.3" font-family="Helvetica,sans-Serif" font-weight="bold" font-size="11.00" fill="#000000">nation</text>
<text text-anchor="start" x="85.0219" y="-165.8" font-family="Helvetica,sans-Serif" font-size="11.00" fill="#000000">[table]</text>
<polygon fill="none" stroke="#000000" points="34.5,-138.7 34.5,-157.7 119.5,-157.7 119.5,-138.7 34.5,-138.7"/>
<text text-anchor="start" x="37.5" y="-144.8" font-family="Helvetica,sans-Serif" font-size="11.00" fill="#000000">...</text>
<polygon fill="#ffffff" stroke="transparent" points="34.5,-119.7 34.5,-138.7 119.5,-138.7 119.5,-119.7 34.5,-119.7"/>
<polygon fill="none" stroke="#000000" points="34.5,-119.7 34.5,-138.7 119.5,-138.7 119.5,-119.7 34.5,-119.7"/>
<polygon fill="#ffffff" stroke="transparent" points="35.5,-120.7 35.5,-137.7 47.5,-137.7 47.5,-120.7 35.5,-120.7"/>
<text text-anchor="start" x="37.5" y="-125.8" font-family="Helvetica,sans-Serif" font-size="11.00" fill="#000000"> &#160;</text>
<polygon fill="#ffffff" stroke="transparent" points="47.5,-120.7 47.5,-137.7 97.5,-137.7 97.5,-120.7 47.5,-120.7"/>
<text text-anchor="start" x="50.1903" y="-125.8" font-family="Helvetica,sans-Serif" font-size="11.00" fill="#000000">190 rows</text>
<polygon fill="#ffffff" stroke="transparent" points="97.5,-120.7 97.5,-137.7 118.5,-137.7 118.5,-120.7 97.5,-120.7"/>
<text text-anchor="start" x="100.9053" y="-125.8" font-family="Helvetica,sans-Serif" font-size="11.00" fill="#000000">1 &gt;</text>
<polygon fill="#000000" stroke="#000000" points="47.5,-120.7 47.5,-137.7 47.5,-137.7 47.5,-120.7 47.5,-120.7"/>
<polygon fill="#000000" stroke="#000000" points="97.5,-120.7 97.5,-137.7 97.5,-137.7 97.5,-120.7 97.5,-120.7"/>
</a>
</g>
</g>
<!-- familienmitglied&#45;&gt;nation -->
<g id="edge7" class="edge">
<title>familienmitglied:w&#45;&gt;nation:e</title>
<path fill="none" stroke="#000000" d="M179.4891,-147.7C157.5043,-147.7 147.1788,-147.7 119.5,-147.7"/>
<polygon fill="#000000" stroke="#000000" points="186,-147.7001 194,-151.3 190,-147.7 194,-147.7 194,-147.7 194,-147.7 190,-147.7 194,-144.1 186,-147.7001 186,-147.7001"/>
<ellipse fill="none" stroke="#000000" cx="182.8" cy="-147.7001" rx="3.2" ry="3.2"/>
</g>
<!-- einkauf -->
<g id="node4" class="node">
<title>einkauf</title>
<g id="a_node4"><a xlink:href="../../tables/einkauf.html" xlink:title="einkauf" target="_top">
<polygon fill="#ffffff" stroke="transparent" points="453.5,-164.2 453.5,-225.2 546.5,-225.2 546.5,-164.2 453.5,-164.2"/>
<polygon fill="#f5f5f5" stroke="transparent" points="454,-201.7 454,-224.7 547,-224.7 547,-201.7 454,-201.7"/>
<polygon fill="none" stroke="#000000" points="454,-201.7 454,-224.7 547,-224.7 547,-201.7 454,-201.7"/>
<text text-anchor="start" x="459" y="-210.3" font-family="Helvetica,sans-Serif" font-weight="bold" font-size="11.00" fill="#000000">einkauf</text>
<text text-anchor="start" x="512.5219" y="-209.8" font-family="Helvetica,sans-Serif" font-size="11.00" fill="#000000">[table]</text>
<polygon fill="none" stroke="#000000" points="454,-182.7 454,-201.7 547,-201.7 547,-182.7 454,-182.7"/>
<text text-anchor="start" x="457" y="-188.8" font-family="Helvetica,sans-Serif" font-size="11.00" fill="#000000">...</text>
<polygon fill="#ffffff" stroke="transparent" points="454,-163.7 454,-182.7 547,-182.7 547,-163.7 454,-163.7"/>
<polygon fill="none" stroke="#000000" points="454,-163.7 454,-182.7 547,-182.7 547,-163.7 454,-163.7"/>
<polygon fill="#ffffff" stroke="transparent" points="455,-164.7 455,-181.7 476,-181.7 476,-164.7 455,-164.7"/>
<text text-anchor="start" x="457" y="-169.8" font-family="Helvetica,sans-Serif" font-size="11.00" fill="#000000">&lt; 4</text>
<polygon fill="#ffffff" stroke="transparent" points="476,-164.7 476,-181.7 535,-181.7 535,-164.7 476,-164.7"/>
<text text-anchor="start" x="478.6045" y="-169.8" font-family="Helvetica,sans-Serif" font-size="11.00" fill="#000000">3,276 rows</text>
<polygon fill="#ffffff" stroke="transparent" points="535,-164.7 535,-181.7 546,-181.7 546,-164.7 535,-164.7"/>
<text text-anchor="start" x="537.8862" y="-169.8" font-family="Helvetica,sans-Serif" font-size="11.00" fill="#000000"> &#160;</text>
<polygon fill="#000000" stroke="#000000" points="476,-164.7 476,-181.7 476,-181.7 476,-164.7 476,-164.7"/>
<polygon fill="#000000" stroke="#000000" points="535,-164.7 535,-181.7 535,-181.7 535,-164.7 535,-164.7"/>
</a>
</g>
</g>
<!-- einkauf&#45;&gt;familienmitglied -->
<g id="edge4" class="edge">
<title>einkauf:w&#45;&gt;familienmitglied:e</title>
<path fill="none" stroke="#000000" d="M439.4533,-191.7C411.667,-191.7 399.7639,-191.7 366,-191.7"/>
<polygon fill="#000000" stroke="#000000" points="446,-191.7001 454,-195.3 450,-191.7 454,-191.7 454,-191.7 454,-191.7 450,-191.7 454,-188.1 446,-191.7001 446,-191.7001"/>
<ellipse fill="none" stroke="#000000" cx="442.8" cy="-191.7001" rx="3.2" ry="3.2"/>
</g>
<!-- einkauf&#45;&gt;haushalt -->
<g id="edge3" class="edge">
<title>einkauf:w&#45;&gt;haushalt:e</title>
<path fill="none" stroke="#000000" d="M439.3635,-193.493C412.5334,-200.7234 408.0677,-227.7759 374,-236.7 293.1716,-257.8731 269.4075,-241.6725 186,-236.7 159.8609,-235.1417 153.6855,-229.7 127.5,-229.7"/>
<polygon fill="#000000" stroke="#000000" points="446.0594,-192.6728 454.4378,-195.2733 450.0297,-192.1864 454,-191.7 454,-191.7 454,-191.7 450.0297,-192.1864 453.5622,-188.1267 446.0594,-192.6728 446.0594,-192.6728"/>
<ellipse fill="none" stroke="#000000" cx="442.8831" cy="-193.0619" rx="3.2" ry="3.2"/>
</g>
<!-- vollmacht -->
<g id="node8" class="node">
<title>vollmacht</title>
<g id="a_node8"><a xlink:href="../../tables/vollmacht.html" xlink:title="vollmacht" target="_top">
<polygon fill="#ffffff" stroke="transparent" points="445,-54.2 445,-115.2 555,-115.2 555,-54.2 445,-54.2"/>
<polygon fill="#f5f5f5" stroke="transparent" points="445,-91.7 445,-114.7 555,-114.7 555,-91.7 445,-91.7"/>
<polygon fill="none" stroke="#000000" points="445,-91.7 445,-114.7 555,-114.7 555,-91.7 445,-91.7"/>
<text text-anchor="start" x="450" y="-100.3" font-family="Helvetica,sans-Serif" font-weight="bold" font-size="11.00" fill="#000000">vollmacht</text>
<text text-anchor="start" x="520.5219" y="-99.8" font-family="Helvetica,sans-Serif" font-size="11.00" fill="#000000">[table]</text>
<polygon fill="none" stroke="#000000" points="445,-72.7 445,-91.7 555,-91.7 555,-72.7 445,-72.7"/>
<text text-anchor="start" x="448" y="-78.8" font-family="Helvetica,sans-Serif" font-size="11.00" fill="#000000">...</text>
<polygon fill="#ffffff" stroke="transparent" points="445,-53.7 445,-72.7 555,-72.7 555,-53.7 445,-53.7"/>
<polygon fill="none" stroke="#000000" points="445,-53.7 445,-72.7 555,-72.7 555,-53.7 445,-53.7"/>
<polygon fill="#ffffff" stroke="transparent" points="446,-54.7 446,-71.7 480,-71.7 480,-54.7 446,-54.7"/>
<text text-anchor="start" x="448" y="-59.8" font-family="Helvetica,sans-Serif" font-size="11.00" fill="#000000">&lt; 2</text>
<polygon fill="#ffffff" stroke="transparent" points="480,-54.7 480,-71.7 530,-71.7 530,-54.7 480,-54.7"/>
<text text-anchor="start" x="488.8053" y="-59.8" font-family="Helvetica,sans-Serif" font-size="11.00" fill="#000000">0 rows</text>
<polygon fill="#ffffff" stroke="transparent" points="530,-54.7 530,-71.7 554,-71.7 554,-54.7 530,-54.7"/>
<text text-anchor="start" x="545.8862" y="-59.8" font-family="Helvetica,sans-Serif" font-size="11.00" fill="#000000"> &#160;</text>
<polygon fill="#000000" stroke="#000000" points="480,-54.7 480,-71.7 480,-71.7 480,-54.7 480,-54.7"/>
<polygon fill="#000000" stroke="#000000" points="530,-54.7 530,-71.7 530,-71.7 530,-54.7 530,-54.7"/>
</a>
</g>
</g>
<!-- vollmacht&#45;&gt;familienmitglied -->
<g id="edge8" class="edge">
<title>vollmacht:w&#45;&gt;familienmitglied:e</title>
<path fill="none" stroke="#000000" d="M430.8347,-84.3106C391.5508,-100.9684 420.6653,-191.7 366,-191.7"/>
<polygon fill="#000000" stroke="#000000" points="437.1325,-83.15 445.6525,-85.2404 441.0662,-82.425 445,-81.7 445,-81.7 445,-81.7 441.0662,-82.425 444.3475,-78.1596 437.1325,-83.15 437.1325,-83.15"/>
<ellipse fill="none" stroke="#000000" cx="433.9855" cy="-83.73" rx="3.2" ry="3.2"/>
</g>
<!-- vollmacht&#45;&gt;haushalt -->
<g id="edge9" class="edge">
<title>vollmacht:w&#45;&gt;haushalt:e</title>
<path fill="none" stroke="#000000" d="M430.3783,-80.7689C409.7044,-77.9409 400.5642,-69.4754 374,-66.7 290.8968,-58.0173 252.1952,-15.7124 186,-66.7 125.0231,-113.6682 204.4688,-229.7 127.5,-229.7"/>
<polygon fill="#000000" stroke="#000000" points="437.0162,-81.1916 444.7712,-85.2927 441.0081,-81.4458 445,-81.7 445,-81.7 445,-81.7 441.0081,-81.4458 445.2288,-78.1073 437.0162,-81.1916 437.0162,-81.1916"/>
<ellipse fill="none" stroke="#000000" cx="433.8226" cy="-80.9882" rx="3.2" ry="3.2"/>
</g>
</g>
</svg>
