<?xml version="1.0" encoding="UTF-8" standalone="no"?>
<!DOCTYPE svg PUBLIC "-//W3C//DTD SVG 1.1//EN"
 "http://www.w3.org/Graphics/SVG/1.1/DTD/svg11.dtd">
<!-- Generated by graphviz version 2.40.1 (20161225.0304)
 -->
<!-- Title: twoDegreesRelationshipsDiagram Pages: 1 -->
<svg width="382pt" height="245pt"
 viewBox="0.00 0.00 382.00 244.70" xmlns="http://www.w3.org/2000/svg" xmlns:xlink="http://www.w3.org/1999/xlink">
<g id="graph0" class="graph" transform="scale(1 1) rotate(0) translate(4 240.7)">
<title>twoDegreesRelationshipsDiagram</title>
<polygon fill="#ffffff" stroke="transparent" points="-4,4 -4,-240.7 378,-240.7 378,4 -4,4"/>
<text text-anchor="middle" x="72.4936" y="-7.3" font-family="Helvetica,sans-Serif" font-size="11.00" fill="#000000">Generated by SchemaSpy</text>
<!-- bescheid -->
<g id="node1" class="node">
<title>bescheid</title>
<g id="a_node1"><a xlink:href="../../tables/bescheid.html" xlink:title="bescheid" target="_top">
<polygon fill="#ffffff" stroke="transparent" points="245,-96.7 245,-223.7 366,-223.7 366,-96.7 245,-96.7"/>
<polygon fill="#f5f5f5" stroke="transparent" points="245.5,-200.2 245.5,-223.2 366.5,-223.2 366.5,-200.2 245.5,-200.2"/>
<polygon fill="none" stroke="#000000" points="245.5,-200.2 245.5,-223.2 366.5,-223.2 366.5,-200.2 245.5,-200.2"/>
<text text-anchor="start" x="250.5" y="-208.8" font-family="Helvetica,sans-Serif" font-weight="bold" font-size="11.00" fill="#000000">bescheid</text>
<text text-anchor="start" x="331.5437" y="-208.3" font-family="Helvetica,sans-Serif" font-size="11.00" fill="#000000">[table]</text>
<polygon fill="none" stroke="#000000" points="245.5,-178.2 245.5,-200.2 366.5,-200.2 366.5,-178.2 245.5,-178.2"/>
<image xlink:href="../../images/primaryKeys.png" width="11px" height="12px" preserveAspectRatio="xMinYMin meet" x="250.5" y="-195.2"/>
<text text-anchor="start" x="265.5" y="-185.3" font-family="Helvetica,sans-Serif" font-size="11.00" fill="#000000">bescheidId</text>
<polygon fill="#ffffff" stroke="transparent" points="245.5,-156.2 245.5,-178.2 366.5,-178.2 366.5,-156.2 245.5,-156.2"/>
<polygon fill="none" stroke="#000000" points="245.5,-156.2 245.5,-178.2 366.5,-178.2 366.5,-156.2 245.5,-156.2"/>
<image xlink:href="../../images/foreignKeys.png" width="11px" height="12px" preserveAspectRatio="xMinYMin meet" x="250.5" y="-173.2"/>
<text text-anchor="start" x="265.5" y="-163.3" font-family="Helvetica,sans-Serif" font-size="11.00" fill="#000000">personId</text>
<polygon fill="#ffffff" stroke="transparent" points="245.5,-134.2 245.5,-156.2 366.5,-156.2 366.5,-134.2 245.5,-134.2"/>
<polygon fill="none" stroke="#000000" points="245.5,-134.2 245.5,-156.2 366.5,-156.2 366.5,-134.2 245.5,-134.2"/>
<image xlink:href="../../images/foreignKeys.png" width="11px" height="12px" preserveAspectRatio="xMinYMin meet" x="250.5" y="-151.2"/>
<text text-anchor="start" x="265.5" y="-141.3" font-family="Helvetica,sans-Serif" font-size="11.00" fill="#000000">bescheidartId</text>
<polygon fill="none" stroke="#000000" points="245.5,-115.2 245.5,-134.2 366.5,-134.2 366.5,-115.2 245.5,-115.2"/>
<text text-anchor="start" x="248.5" y="-121.3" font-family="Helvetica,sans-Serif" font-size="11.00" fill="#000000">...</text>
<polygon fill="#ffffff" stroke="transparent" points="245.5,-96.2 245.5,-115.2 366.5,-115.2 366.5,-96.2 245.5,-96.2"/>
<polygon fill="none" stroke="#000000" points="245.5,-96.2 245.5,-115.2 366.5,-115.2 366.5,-96.2 245.5,-96.2"/>
<polygon fill="#ffffff" stroke="transparent" points="246.5,-97.2 246.5,-114.2 276.5,-114.2 276.5,-97.2 246.5,-97.2"/>
<text text-anchor="start" x="248.5" y="-102.3" font-family="Helvetica,sans-Serif" font-size="11.00" fill="#000000">&lt; 2</text>
<polygon fill="#ffffff" stroke="transparent" points="276.5,-97.2 276.5,-114.2 344.5,-114.2 344.5,-97.2 276.5,-97.2"/>
<text text-anchor="start" x="283.6045" y="-102.3" font-family="Helvetica,sans-Serif" font-size="11.00" fill="#000000">1,280 rows</text>
<polygon fill="#ffffff" stroke="transparent" points="344.5,-97.2 344.5,-114.2 365.5,-114.2 365.5,-97.2 344.5,-97.2"/>
<text text-anchor="start" x="357.3862" y="-102.3" font-family="Helvetica,sans-Serif" font-size="11.00" fill="#000000"> &#160;</text>
<polygon fill="#000000" stroke="#000000" points="276.5,-97.2 276.5,-114.2 276.5,-114.2 276.5,-97.2 276.5,-97.2"/>
<polygon fill="#000000" stroke="#000000" points="344.5,-97.2 344.5,-114.2 344.5,-114.2 344.5,-97.2 344.5,-97.2"/>
</a>
</g>
</g>
<!-- bescheidart -->
<g id="node2" class="node">
<title>bescheidart</title>
<g id="a_node2"><a xlink:href="../../tables/bescheidart.html" xlink:title="bescheidart" target="_top">
<polygon fill="#ffffff" stroke="transparent" points="8,-38.2 8,-150.2 196,-150.2 196,-38.2 8,-38.2"/>
<polygon fill="#f5f5f5" stroke="transparent" points="10,-125.2 10,-148.2 194,-148.2 194,-125.2 10,-125.2"/>
<polygon fill="none" stroke="#000000" points="10,-125.2 10,-148.2 194,-148.2 194,-125.2 10,-125.2"/>
<text text-anchor="start" x="15" y="-133.8" font-family="Helvetica,sans-Serif" font-weight="bold" font-size="11.00" fill="#000000">bescheidart</text>
<text text-anchor="start" x="159.0437" y="-133.3" font-family="Helvetica,sans-Serif" font-size="11.00" fill="#000000">[table]</text>
<polygon fill="none" stroke="#000000" points="10,-103.2 10,-125.2 133,-125.2 133,-103.2 10,-103.2"/>
<image xlink:href="../../images/primaryKeys.png" width="11px" height="12px" preserveAspectRatio="xMinYMin meet" x="15" y="-120.2"/>
<text text-anchor="start" x="30" y="-110.3" font-family="Helvetica,sans-Serif" font-size="11.00" fill="#000000">bescheidArtId</text>
<polygon fill="none" stroke="#000000" points="133,-103.2 133,-125.2 194,-125.2 194,-103.2 133,-103.2"/>
<text text-anchor="start" x="136" y="-110.9" font-family="Helvetica,sans-Serif" font-size="11.00" fill="#000000">int[10]</text>
<polygon fill="none" stroke="#000000" points="10,-81.2 10,-103.2 133,-103.2 133,-81.2 10,-81.2"/>
<text text-anchor="start" x="30" y="-88.3" font-family="Helvetica,sans-Serif" font-size="11.00" fill="#000000">name</text>
<polygon fill="none" stroke="#000000" points="133,-81.2 133,-103.2 194,-103.2 194,-81.2 133,-81.2"/>
<text text-anchor="start" x="135.994" y="-88.9" font-family="Helvetica,sans-Serif" font-size="11.00" fill="#000000">varchar[50]</text>
<polygon fill="none" stroke="#000000" points="10,-59.2 10,-81.2 133,-81.2 133,-59.2 10,-59.2"/>
<text text-anchor="start" x="30" y="-66.3" font-family="Helvetica,sans-Serif" font-size="11.00" fill="#000000">aktiv</text>
<polygon fill="none" stroke="#000000" points="133,-59.2 133,-81.2 194,-81.2 194,-59.2 133,-59.2"/>
<text text-anchor="start" x="136" y="-66.9" font-family="Helvetica,sans-Serif" font-size="11.00" fill="#000000">bit[1]</text>
<polygon fill="#ffffff" stroke="transparent" points="10,-40.2 10,-59.2 194,-59.2 194,-40.2 10,-40.2"/>
<polygon fill="none" stroke="#000000" points="10,-40.2 10,-59.2 194,-59.2 194,-40.2 10,-40.2"/>
<polygon fill="#ffffff" stroke="transparent" points="11,-41.2 11,-58.2 64,-58.2 64,-41.2 11,-41.2"/>
<text text-anchor="start" x="13" y="-46.3" font-family="Helvetica,sans-Serif" font-size="11.00" fill="#000000">&lt; 0</text>
<polygon fill="#ffffff" stroke="transparent" points="64,-41.2 64,-58.2 140,-58.2 140,-41.2 64,-41.2"/>
<text text-anchor="start" x="82.7478" y="-46.3" font-family="Helvetica,sans-Serif" font-size="11.00" fill="#000000">18 rows</text>
<polygon fill="#ffffff" stroke="transparent" points="140,-41.2 140,-58.2 193,-58.2 193,-41.2 140,-41.2"/>
<text text-anchor="start" x="175.4053" y="-46.3" font-family="Helvetica,sans-Serif" font-size="11.00" fill="#000000">1 &gt;</text>
<polygon fill="#000000" stroke="#000000" points="64,-41.2 64,-58.2 64,-58.2 64,-41.2 64,-41.2"/>
<polygon fill="#000000" stroke="#000000" points="140,-41.2 140,-58.2 140,-58.2 140,-41.2 140,-41.2"/>
<polygon fill="none" stroke="#000000" stroke-width="2" points="9,-39.2 9,-149.2 195,-149.2 195,-39.2 9,-39.2"/>
</a>
</g>
</g>
<!-- bescheid&#45;&gt;bescheidart -->
<g id="edge1" class="edge">
<title>bescheid:w&#45;&gt;bescheidart:e</title>
<path fill="none" stroke="#000000" d="M231.4805,-141.3988C218.2585,-133.1209 214.8716,-114.2 194,-114.2"/>
<polygon fill="#000000" stroke="#000000" points="237.7788,-143.1064 244.5579,-148.6745 241.6394,-144.1532 245.5,-145.2 245.5,-145.2 245.5,-145.2 241.6394,-144.1532 246.4421,-141.7255 237.7788,-143.1064 237.7788,-143.1064"/>
<ellipse fill="none" stroke="#000000" cx="234.6903" cy="-142.269" rx="3.2" ry="3.2"/>
</g>
<!-- familienmitglied -->
<g id="node3" class="node">
<title>familienmitglied</title>
<g id="a_node3"><a xlink:href="../../tables/familienmitglied.html" xlink:title="familienmitglied" target="_top">
<polygon fill="#ffffff" stroke="transparent" points="23,-171.7 23,-232.7 181,-232.7 181,-171.7 23,-171.7"/>
<polygon fill="#f5f5f5" stroke="transparent" points="23,-209.2 23,-232.2 181,-232.2 181,-209.2 23,-209.2"/>
<polygon fill="none" stroke="#000000" points="23,-209.2 23,-232.2 181,-232.2 181,-209.2 23,-209.2"/>
<text text-anchor="start" x="28" y="-217.8" font-family="Helvetica,sans-Serif" font-weight="bold" font-size="11.00" fill="#000000">familienmitglied</text>
<text text-anchor="start" x="146.5219" y="-217.3" font-family="Helvetica,sans-Serif" font-size="11.00" fill="#000000">[table]</text>
<polygon fill="none" stroke="#000000" points="23,-190.2 23,-209.2 181,-209.2 181,-190.2 23,-190.2"/>
<text text-anchor="start" x="26" y="-196.3" font-family="Helvetica,sans-Serif" font-size="11.00" fill="#000000">...</text>
<polygon fill="#ffffff" stroke="transparent" points="23,-171.2 23,-190.2 181,-190.2 181,-171.2 23,-171.2"/>
<polygon fill="none" stroke="#000000" points="23,-171.2 23,-190.2 181,-190.2 181,-171.2 23,-171.2"/>
<polygon fill="#ffffff" stroke="transparent" points="24,-172.2 24,-189.2 64,-189.2 64,-172.2 24,-172.2"/>
<text text-anchor="start" x="26" y="-177.3" font-family="Helvetica,sans-Serif" font-size="11.00" fill="#000000">&lt; 3</text>
<polygon fill="#ffffff" stroke="transparent" points="64,-172.2 64,-189.2 141,-189.2 141,-172.2 64,-172.2"/>
<text text-anchor="start" x="75.6045" y="-177.3" font-family="Helvetica,sans-Serif" font-size="11.00" fill="#000000">1,525 rows</text>
<polygon fill="#ffffff" stroke="transparent" points="141,-172.2 141,-189.2 180,-189.2 180,-172.2 141,-172.2"/>
<text text-anchor="start" x="162.4053" y="-177.3" font-family="Helvetica,sans-Serif" font-size="11.00" fill="#000000">3 &gt;</text>
<polygon fill="#000000" stroke="#000000" points="64,-172.2 64,-189.2 64,-189.2 64,-172.2 64,-172.2"/>
<polygon fill="#000000" stroke="#000000" points="141,-172.2 141,-189.2 141,-189.2 141,-172.2 141,-172.2"/>
</a>
</g>
</g>
<!-- bescheid&#45;&gt;familienmitglied -->
<g id="edge2" class="edge">
<title>bescheid:w&#45;&gt;familienmitglied:e</title>
<path fill="none" stroke="#000000" d="M231.2026,-169.8187C212.3506,-177.4612 207.3756,-199.2 181,-199.2"/>
<polygon fill="#000000" stroke="#000000" points="237.6309,-168.6413 246.1486,-170.7411 241.5655,-167.9207 245.5,-167.2 245.5,-167.2 245.5,-167.2 241.5655,-167.9207 244.8514,-163.6589 237.6309,-168.6413 237.6309,-168.6413"/>
<ellipse fill="none" stroke="#000000" cx="234.4833" cy="-169.2179" rx="3.2" ry="3.2"/>
</g>
</g>
</svg>
