<?xml version="1.0" encoding="UTF-8" standalone="no"?>
<!DOCTYPE svg PUBLIC "-//W3C//DTD SVG 1.1//EN"
 "http://www.w3.org/Graphics/SVG/1.1/DTD/svg11.dtd">
<!-- Generated by graphviz version 2.40.1 (20161225.0304)
 -->
<!-- Title: oneDegreeRelationshipsDiagram Pages: 1 -->
<svg width="382pt" height="205pt"
 viewBox="0.00 0.00 382.00 204.70" xmlns="http://www.w3.org/2000/svg" xmlns:xlink="http://www.w3.org/1999/xlink">
<g id="graph0" class="graph" transform="scale(1 1) rotate(0) translate(4 200.7)">
<title>oneDegreeRelationshipsDiagram</title>
<polygon fill="#ffffff" stroke="transparent" points="-4,4 -4,-200.7 378,-200.7 378,4 -4,4"/>
<text text-anchor="middle" x="72.4936" y="-7.3" font-family="Helvetica,sans-Serif" font-size="11.00" fill="#000000">Generated by SchemaSpy</text>
<!-- bescheid -->
<g id="node1" class="node">
<title>bescheid</title>
<g id="a_node1"><a xlink:href="../../tables/bescheid.html" xlink:title="bescheid" target="_top">
<polygon fill="#ffffff" stroke="transparent" points="245,-65.7 245,-192.7 366,-192.7 366,-65.7 245,-65.7"/>
<polygon fill="#f5f5f5" stroke="transparent" points="245.5,-169.2 245.5,-192.2 366.5,-192.2 366.5,-169.2 245.5,-169.2"/>
<polygon fill="none" stroke="#000000" points="245.5,-169.2 245.5,-192.2 366.5,-192.2 366.5,-169.2 245.5,-169.2"/>
<text text-anchor="start" x="250.5" y="-177.8" font-family="Helvetica,sans-Serif" font-weight="bold" font-size="11.00" fill="#000000">bescheid</text>
<text text-anchor="start" x="331.5437" y="-177.3" font-family="Helvetica,sans-Serif" font-size="11.00" fill="#000000">[table]</text>
<polygon fill="none" stroke="#000000" points="245.5,-147.2 245.5,-169.2 366.5,-169.2 366.5,-147.2 245.5,-147.2"/>
<image xlink:href="../../images/primaryKeys.png" width="11px" height="12px" preserveAspectRatio="xMinYMin meet" x="250.5" y="-164.2"/>
<text text-anchor="start" x="265.5" y="-154.3" font-family="Helvetica,sans-Serif" font-size="11.00" fill="#000000">bescheidId</text>
<polygon fill="#ffffff" stroke="transparent" points="245.5,-125.2 245.5,-147.2 366.5,-147.2 366.5,-125.2 245.5,-125.2"/>
<polygon fill="none" stroke="#000000" points="245.5,-125.2 245.5,-147.2 366.5,-147.2 366.5,-125.2 245.5,-125.2"/>
<image xlink:href="../../images/foreignKeys.png" width="11px" height="12px" preserveAspectRatio="xMinYMin meet" x="250.5" y="-142.2"/>
<text text-anchor="start" x="265.5" y="-132.3" font-family="Helvetica,sans-Serif" font-size="11.00" fill="#000000">personId</text>
<polygon fill="#ffffff" stroke="transparent" points="245.5,-103.2 245.5,-125.2 366.5,-125.2 366.5,-103.2 245.5,-103.2"/>
<polygon fill="none" stroke="#000000" points="245.5,-103.2 245.5,-125.2 366.5,-125.2 366.5,-103.2 245.5,-103.2"/>
<image xlink:href="../../images/foreignKeys.png" width="11px" height="12px" preserveAspectRatio="xMinYMin meet" x="250.5" y="-120.2"/>
<text text-anchor="start" x="265.5" y="-110.3" font-family="Helvetica,sans-Serif" font-size="11.00" fill="#000000">bescheidartId</text>
<polygon fill="none" stroke="#000000" points="245.5,-84.2 245.5,-103.2 366.5,-103.2 366.5,-84.2 245.5,-84.2"/>
<text text-anchor="start" x="248.5" y="-90.3" font-family="Helvetica,sans-Serif" font-size="11.00" fill="#000000">...</text>
<polygon fill="#ffffff" stroke="transparent" points="245.5,-65.2 245.5,-84.2 366.5,-84.2 366.5,-65.2 245.5,-65.2"/>
<polygon fill="none" stroke="#000000" points="245.5,-65.2 245.5,-84.2 366.5,-84.2 366.5,-65.2 245.5,-65.2"/>
<polygon fill="#ffffff" stroke="transparent" points="246.5,-66.2 246.5,-83.2 276.5,-83.2 276.5,-66.2 246.5,-66.2"/>
<text text-anchor="start" x="248.5" y="-71.3" font-family="Helvetica,sans-Serif" font-size="11.00" fill="#000000">&lt; 2</text>
<polygon fill="#ffffff" stroke="transparent" points="276.5,-66.2 276.5,-83.2 344.5,-83.2 344.5,-66.2 276.5,-66.2"/>
<text text-anchor="start" x="283.6045" y="-71.3" font-family="Helvetica,sans-Serif" font-size="11.00" fill="#000000">1,280 rows</text>
<polygon fill="#ffffff" stroke="transparent" points="344.5,-66.2 344.5,-83.2 365.5,-83.2 365.5,-66.2 344.5,-66.2"/>
<text text-anchor="start" x="357.3862" y="-71.3" font-family="Helvetica,sans-Serif" font-size="11.00" fill="#000000"> &#160;</text>
<polygon fill="#000000" stroke="#000000" points="276.5,-66.2 276.5,-83.2 276.5,-83.2 276.5,-66.2 276.5,-66.2"/>
<polygon fill="#000000" stroke="#000000" points="344.5,-66.2 344.5,-83.2 344.5,-83.2 344.5,-66.2 344.5,-66.2"/>
</a>
</g>
</g>
<!-- bescheidart -->
<g id="node2" class="node">
<title>bescheidart</title>
<g id="a_node2"><a xlink:href="../../tables/bescheidart.html" xlink:title="bescheidart" target="_top">
<polygon fill="#ffffff" stroke="transparent" points="8,-38.2 8,-150.2 196,-150.2 196,-38.2 8,-38.2"/>
<polygon fill="#f5f5f5" stroke="transparent" points="10,-125.2 10,-148.2 194,-148.2 194,-125.2 10,-125.2"/>
<polygon fill="none" stroke="#000000" points="10,-125.2 10,-148.2 194,-148.2 194,-125.2 10,-125.2"/>
<text text-anchor="start" x="15" y="-133.8" font-family="Helvetica,sans-Serif" font-weight="bold" font-size="11.00" fill="#000000">bescheidart</text>
<text text-anchor="start" x="159.0437" y="-133.3" font-family="Helvetica,sans-Serif" font-size="11.00" fill="#000000">[table]</text>
<polygon fill="none" stroke="#000000" points="10,-103.2 10,-125.2 133,-125.2 133,-103.2 10,-103.2"/>
<image xlink:href="../../images/primaryKeys.png" width="11px" height="12px" preserveAspectRatio="xMinYMin meet" x="15" y="-120.2"/>
<text text-anchor="start" x="30" y="-110.3" font-family="Helvetica,sans-Serif" font-size="11.00" fill="#000000">bescheidArtId</text>
<polygon fill="none" stroke="#000000" points="133,-103.2 133,-125.2 194,-125.2 194,-103.2 133,-103.2"/>
<text text-anchor="start" x="136" y="-110.9" font-family="Helvetica,sans-Serif" font-size="11.00" fill="#000000">int[10]</text>
<polygon fill="none" stroke="#000000" points="10,-81.2 10,-103.2 133,-103.2 133,-81.2 10,-81.2"/>
<text text-anchor="start" x="30" y="-88.3" font-family="Helvetica,sans-Serif" font-size="11.00" fill="#000000">name</text>
<polygon fill="none" stroke="#000000" points="133,-81.2 133,-103.2 194,-103.2 194,-81.2 133,-81.2"/>
<text text-anchor="start" x="135.994" y="-88.9" font-family="Helvetica,sans-Serif" font-size="11.00" fill="#000000">varchar[50]</text>
<polygon fill="none" stroke="#000000" points="10,-59.2 10,-81.2 133,-81.2 133,-59.2 10,-59.2"/>
<text text-anchor="start" x="30" y="-66.3" font-family="Helvetica,sans-Serif" font-size="11.00" fill="#000000">aktiv</text>
<polygon fill="none" stroke="#000000" points="133,-59.2 133,-81.2 194,-81.2 194,-59.2 133,-59.2"/>
<text text-anchor="start" x="136" y="-66.9" font-family="Helvetica,sans-Serif" font-size="11.00" fill="#000000">bit[1]</text>
<polygon fill="#ffffff" stroke="transparent" points="10,-40.2 10,-59.2 194,-59.2 194,-40.2 10,-40.2"/>
<polygon fill="none" stroke="#000000" points="10,-40.2 10,-59.2 194,-59.2 194,-40.2 10,-40.2"/>
<polygon fill="#ffffff" stroke="transparent" points="11,-41.2 11,-58.2 64,-58.2 64,-41.2 11,-41.2"/>
<text text-anchor="start" x="13" y="-46.3" font-family="Helvetica,sans-Serif" font-size="11.00" fill="#000000">&lt; 0</text>
<polygon fill="#ffffff" stroke="transparent" points="64,-41.2 64,-58.2 140,-58.2 140,-41.2 64,-41.2"/>
<text text-anchor="start" x="82.7478" y="-46.3" font-family="Helvetica,sans-Serif" font-size="11.00" fill="#000000">18 rows</text>
<polygon fill="#ffffff" stroke="transparent" points="140,-41.2 140,-58.2 193,-58.2 193,-41.2 140,-41.2"/>
<text text-anchor="start" x="175.4053" y="-46.3" font-family="Helvetica,sans-Serif" font-size="11.00" fill="#000000">1 &gt;</text>
<polygon fill="#000000" stroke="#000000" points="64,-41.2 64,-58.2 64,-58.2 64,-41.2 64,-41.2"/>
<polygon fill="#000000" stroke="#000000" points="140,-41.2 140,-58.2 140,-58.2 140,-41.2 140,-41.2"/>
<polygon fill="none" stroke="#000000" stroke-width="2" points="9,-39.2 9,-149.2 195,-149.2 195,-39.2 9,-39.2"/>
</a>
</g>
</g>
<!-- bescheid&#45;&gt;bescheidart -->
<g id="edge1" class="edge">
<title>bescheid:w&#45;&gt;bescheidart:e</title>
<path fill="none" stroke="#000000" d="M231.0156,-114.2C218.6771,-114.2 211.1667,-114.2 194,-114.2"/>
<polygon fill="#000000" stroke="#000000" points="237.5,-114.2001 245.5,-117.8 241.5,-114.2 245.5,-114.2 245.5,-114.2 245.5,-114.2 241.5,-114.2 245.5,-110.6 237.5,-114.2001 237.5,-114.2001"/>
<ellipse fill="none" stroke="#000000" cx="234.3" cy="-114.2001" rx="3.2" ry="3.2"/>
</g>
</g>
</svg>
