<?xml version="1.0" encoding="UTF-8" standalone="no"?>
<!DOCTYPE svg PUBLIC "-//W3C//DTD SVG 1.1//EN"
 "http://www.w3.org/Graphics/SVG/1.1/DTD/svg11.dtd">
<!-- Generated by graphviz version 2.40.1 (20161225.0304)
 -->
<!-- Title: oneDegreeRelationshipsDiagram Pages: 1 -->
<svg width="415pt" height="303pt"
 viewBox="0.00 0.00 415.00 303.20" xmlns="http://www.w3.org/2000/svg" xmlns:xlink="http://www.w3.org/1999/xlink">
<g id="graph0" class="graph" transform="scale(1 1) rotate(0) translate(4 299.2)">
<title>oneDegreeRelationshipsDiagram</title>
<polygon fill="#ffffff" stroke="transparent" points="-4,4 -4,-299.2 411,-299.2 411,4 -4,4"/>
<text text-anchor="middle" x="72.4936" y="-7.3" font-family="Helvetica,sans-Serif" font-size="11.00" fill="#000000">Generated by SchemaSpy</text>
<!-- bescheid -->
<g id="node1" class="node">
<title>bescheid</title>
<g id="a_node1"><a xlink:href="../../tables/bescheid.html" xlink:title="bescheid" target="_top">
<polygon fill="#ffffff" stroke="transparent" points="229,-84.7 229,-240.7 399,-240.7 399,-84.7 229,-84.7"/>
<polygon fill="#f5f5f5" stroke="transparent" points="231,-215.7 231,-238.7 397,-238.7 397,-215.7 231,-215.7"/>
<polygon fill="none" stroke="#000000" points="231,-215.7 231,-238.7 397,-238.7 397,-215.7 231,-215.7"/>
<text text-anchor="start" x="236" y="-224.3" font-family="Helvetica,sans-Serif" font-weight="bold" font-size="11.00" fill="#000000">bescheid</text>
<text text-anchor="start" x="362.0437" y="-223.8" font-family="Helvetica,sans-Serif" font-size="11.00" fill="#000000">[table]</text>
<polygon fill="none" stroke="#000000" points="231,-193.7 231,-215.7 352,-215.7 352,-193.7 231,-193.7"/>
<image xlink:href="../../images/primaryKeys.png" width="11px" height="12px" preserveAspectRatio="xMinYMin meet" x="236" y="-210.7"/>
<text text-anchor="start" x="251" y="-200.8" font-family="Helvetica,sans-Serif" font-size="11.00" fill="#000000">bescheidId</text>
<polygon fill="none" stroke="#000000" points="352,-193.7 352,-215.7 397,-215.7 397,-193.7 352,-193.7"/>
<text text-anchor="start" x="355" y="-201.4" font-family="Helvetica,sans-Serif" font-size="11.00" fill="#000000">int[10]</text>
<polygon fill="#ffffff" stroke="transparent" points="231,-171.7 231,-193.7 352,-193.7 352,-171.7 231,-171.7"/>
<polygon fill="none" stroke="#000000" points="231,-171.7 231,-193.7 352,-193.7 352,-171.7 231,-171.7"/>
<image xlink:href="../../images/foreignKeys.png" width="11px" height="12px" preserveAspectRatio="xMinYMin meet" x="236" y="-188.7"/>
<text text-anchor="start" x="251" y="-178.8" font-family="Helvetica,sans-Serif" font-size="11.00" fill="#000000">personId</text>
<polygon fill="none" stroke="#000000" points="352,-171.7 352,-193.7 397,-193.7 397,-171.7 352,-171.7"/>
<text text-anchor="start" x="355" y="-179.4" font-family="Helvetica,sans-Serif" font-size="11.00" fill="#000000">int[10]</text>
<polygon fill="#ffffff" stroke="transparent" points="231,-149.7 231,-171.7 352,-171.7 352,-149.7 231,-149.7"/>
<polygon fill="none" stroke="#000000" points="231,-149.7 231,-171.7 352,-171.7 352,-149.7 231,-149.7"/>
<image xlink:href="../../images/foreignKeys.png" width="11px" height="12px" preserveAspectRatio="xMinYMin meet" x="236" y="-166.7"/>
<text text-anchor="start" x="251" y="-156.8" font-family="Helvetica,sans-Serif" font-size="11.00" fill="#000000">bescheidartId</text>
<polygon fill="none" stroke="#000000" points="352,-149.7 352,-171.7 397,-171.7 397,-149.7 352,-149.7"/>
<text text-anchor="start" x="355" y="-157.4" font-family="Helvetica,sans-Serif" font-size="11.00" fill="#000000">int[10]</text>
<polygon fill="none" stroke="#000000" points="231,-127.7 231,-149.7 352,-149.7 352,-127.7 231,-127.7"/>
<text text-anchor="start" x="251" y="-134.8" font-family="Helvetica,sans-Serif" font-size="11.00" fill="#000000">gueltigAb</text>
<polygon fill="none" stroke="#000000" points="352,-127.7 352,-149.7 397,-149.7 397,-127.7 352,-127.7"/>
<text text-anchor="start" x="354.6274" y="-135.4" font-family="Helvetica,sans-Serif" font-size="11.00" fill="#000000">date[10]</text>
<polygon fill="none" stroke="#000000" points="231,-105.7 231,-127.7 352,-127.7 352,-105.7 231,-105.7"/>
<text text-anchor="start" x="251" y="-112.8" font-family="Helvetica,sans-Serif" font-size="11.00" fill="#000000">gueltigBis</text>
<polygon fill="none" stroke="#000000" points="352,-105.7 352,-127.7 397,-127.7 397,-105.7 352,-105.7"/>
<text text-anchor="start" x="354.6274" y="-113.4" font-family="Helvetica,sans-Serif" font-size="11.00" fill="#000000">date[10]</text>
<polygon fill="#ffffff" stroke="transparent" points="231,-86.7 231,-105.7 397,-105.7 397,-86.7 231,-86.7"/>
<polygon fill="none" stroke="#000000" points="231,-86.7 231,-105.7 397,-105.7 397,-86.7 231,-86.7"/>
<polygon fill="#ffffff" stroke="transparent" points="232,-87.7 232,-104.7 274,-104.7 274,-87.7 232,-87.7"/>
<text text-anchor="start" x="234" y="-92.8" font-family="Helvetica,sans-Serif" font-size="11.00" fill="#000000">&lt; 2</text>
<polygon fill="#ffffff" stroke="transparent" points="274,-87.7 274,-104.7 354,-104.7 354,-87.7 274,-87.7"/>
<text text-anchor="start" x="287.1045" y="-92.8" font-family="Helvetica,sans-Serif" font-size="11.00" fill="#000000">1,280 rows</text>
<polygon fill="#ffffff" stroke="transparent" points="354,-87.7 354,-104.7 396,-104.7 396,-87.7 354,-87.7"/>
<text text-anchor="start" x="378.4053" y="-92.8" font-family="Helvetica,sans-Serif" font-size="11.00" fill="#000000">0 &gt;</text>
<polygon fill="#000000" stroke="#000000" points="274,-87.7 274,-104.7 274,-104.7 274,-87.7 274,-87.7"/>
<polygon fill="#000000" stroke="#000000" points="354,-87.7 354,-104.7 354,-104.7 354,-87.7 354,-87.7"/>
<polygon fill="none" stroke="#000000" stroke-width="2" points="230,-85.7 230,-239.7 398,-239.7 398,-85.7 230,-85.7"/>
</a>
</g>
</g>
<!-- bescheidart -->
<g id="node2" class="node">
<title>bescheidart</title>
<g id="a_node2"><a xlink:href="../../tables/bescheidart.html" xlink:title="bescheidart" target="_top">
<polygon fill="#ffffff" stroke="transparent" points="31.5,-38.2 31.5,-121.2 156.5,-121.2 156.5,-38.2 31.5,-38.2"/>
<polygon fill="#f5f5f5" stroke="transparent" points="32,-97.7 32,-120.7 157,-120.7 157,-97.7 32,-97.7"/>
<polygon fill="none" stroke="#000000" points="32,-97.7 32,-120.7 157,-120.7 157,-97.7 32,-97.7"/>
<text text-anchor="start" x="37" y="-106.3" font-family="Helvetica,sans-Serif" font-weight="bold" font-size="11.00" fill="#000000">bescheidart</text>
<text text-anchor="start" x="122.5219" y="-105.8" font-family="Helvetica,sans-Serif" font-size="11.00" fill="#000000">[table]</text>
<polygon fill="none" stroke="#000000" points="32,-75.7 32,-97.7 157,-97.7 157,-75.7 32,-75.7"/>
<image xlink:href="../../images/primaryKeys.png" width="11px" height="12px" preserveAspectRatio="xMinYMin meet" x="37" y="-92.7"/>
<text text-anchor="start" x="53" y="-82.8" font-family="Helvetica,sans-Serif" font-size="11.00" fill="#000000">bescheidArtId</text>
<polygon fill="none" stroke="#000000" points="32,-56.7 32,-75.7 157,-75.7 157,-56.7 32,-56.7"/>
<text text-anchor="start" x="35" y="-62.8" font-family="Helvetica,sans-Serif" font-size="11.00" fill="#000000">...</text>
<polygon fill="#ffffff" stroke="transparent" points="32,-37.7 32,-56.7 157,-56.7 157,-37.7 32,-37.7"/>
<polygon fill="none" stroke="#000000" points="32,-37.7 32,-56.7 157,-56.7 157,-37.7 32,-37.7"/>
<polygon fill="#ffffff" stroke="transparent" points="33,-38.7 33,-55.7 61,-55.7 61,-38.7 33,-38.7"/>
<text text-anchor="start" x="35" y="-43.8" font-family="Helvetica,sans-Serif" font-size="11.00" fill="#000000"> &#160;</text>
<polygon fill="#ffffff" stroke="transparent" points="61,-38.7 61,-55.7 120,-55.7 120,-38.7 61,-38.7"/>
<text text-anchor="start" x="71.2478" y="-43.8" font-family="Helvetica,sans-Serif" font-size="11.00" fill="#000000">18 rows</text>
<polygon fill="#ffffff" stroke="transparent" points="120,-38.7 120,-55.7 156,-55.7 156,-38.7 120,-38.7"/>
<text text-anchor="start" x="138.4053" y="-43.8" font-family="Helvetica,sans-Serif" font-size="11.00" fill="#000000">1 &gt;</text>
<polygon fill="#000000" stroke="#000000" points="61,-38.7 61,-55.7 61,-55.7 61,-38.7 61,-38.7"/>
<polygon fill="#000000" stroke="#000000" points="120,-38.7 120,-55.7 120,-55.7 120,-38.7 120,-38.7"/>
</a>
</g>
</g>
<!-- bescheid&#45;&gt;bescheidart -->
<g id="edge1" class="edge">
<title>bescheid:w&#45;&gt;bescheidart:e</title>
<path fill="none" stroke="#000000" d="M216.7533,-157.7075C188.1344,-143.8632 197.8796,-86.7 157,-86.7"/>
<polygon fill="#000000" stroke="#000000" points="223.1709,-159.0554 230.2599,-164.2231 227.0854,-159.8777 231,-160.7 231,-160.7 231,-160.7 227.0854,-159.8777 231.7401,-157.1769 223.1709,-159.0554 223.1709,-159.0554"/>
<ellipse fill="none" stroke="#000000" cx="220.0392" cy="-158.3976" rx="3.2" ry="3.2"/>
</g>
<!-- familienmitglied -->
<g id="node3" class="node">
<title>familienmitglied</title>
<g id="a_node3"><a xlink:href="../../tables/familienmitglied.html" xlink:title="familienmitglied" target="_top">
<polygon fill="#ffffff" stroke="transparent" points="8,-142.2 8,-291.2 180,-291.2 180,-142.2 8,-142.2"/>
<polygon fill="#f5f5f5" stroke="transparent" points="8,-267.7 8,-290.7 180,-290.7 180,-267.7 8,-267.7"/>
<polygon fill="none" stroke="#000000" points="8,-267.7 8,-290.7 180,-290.7 180,-267.7 8,-267.7"/>
<text text-anchor="start" x="13" y="-276.3" font-family="Helvetica,sans-Serif" font-weight="bold" font-size="11.00" fill="#000000">familienmitglied</text>
<text text-anchor="start" x="145.0437" y="-275.8" font-family="Helvetica,sans-Serif" font-size="11.00" fill="#000000">[table]</text>
<polygon fill="none" stroke="#000000" points="8,-245.7 8,-267.7 180,-267.7 180,-245.7 8,-245.7"/>
<image xlink:href="../../images/primaryKeys.png" width="11px" height="12px" preserveAspectRatio="xMinYMin meet" x="13" y="-262.7"/>
<text text-anchor="start" x="28" y="-252.8" font-family="Helvetica,sans-Serif" font-size="11.00" fill="#000000">personId</text>
<polygon fill="#ffffff" stroke="transparent" points="8,-223.7 8,-245.7 180,-245.7 180,-223.7 8,-223.7"/>
<polygon fill="none" stroke="#000000" points="8,-223.7 8,-245.7 180,-245.7 180,-223.7 8,-223.7"/>
<image xlink:href="../../images/foreignKeys.png" width="11px" height="12px" preserveAspectRatio="xMinYMin meet" x="13" y="-240.7"/>
<text text-anchor="start" x="28" y="-230.8" font-family="Helvetica,sans-Serif" font-size="11.00" fill="#000000">haushaltId</text>
<polygon fill="#ffffff" stroke="transparent" points="8,-201.7 8,-223.7 180,-223.7 180,-201.7 8,-201.7"/>
<polygon fill="none" stroke="#000000" points="8,-201.7 8,-223.7 180,-223.7 180,-201.7 8,-201.7"/>
<image xlink:href="../../images/foreignKeys.png" width="11px" height="12px" preserveAspectRatio="xMinYMin meet" x="13" y="-218.7"/>
<text text-anchor="start" x="28" y="-208.8" font-family="Helvetica,sans-Serif" font-size="11.00" fill="#000000">nation</text>
<polygon fill="#ffffff" stroke="transparent" points="8,-179.7 8,-201.7 180,-201.7 180,-179.7 8,-179.7"/>
<polygon fill="none" stroke="#000000" points="8,-179.7 8,-201.7 180,-201.7 180,-179.7 8,-179.7"/>
<image xlink:href="../../images/foreignKeys.png" width="11px" height="12px" preserveAspectRatio="xMinYMin meet" x="13" y="-196.7"/>
<text text-anchor="start" x="28" y="-186.8" font-family="Helvetica,sans-Serif" font-size="11.00" fill="#000000">berechtigungId</text>
<polygon fill="none" stroke="#000000" points="8,-160.7 8,-179.7 180,-179.7 180,-160.7 8,-160.7"/>
<text text-anchor="start" x="11" y="-166.8" font-family="Helvetica,sans-Serif" font-size="11.00" fill="#000000">...</text>
<polygon fill="#ffffff" stroke="transparent" points="8,-141.7 8,-160.7 180,-160.7 180,-141.7 8,-141.7"/>
<polygon fill="none" stroke="#000000" points="8,-141.7 8,-160.7 180,-160.7 180,-141.7 8,-141.7"/>
<polygon fill="#ffffff" stroke="transparent" points="9,-142.7 9,-159.7 53,-159.7 53,-142.7 9,-142.7"/>
<text text-anchor="start" x="11" y="-147.8" font-family="Helvetica,sans-Serif" font-size="11.00" fill="#000000">&lt; 3</text>
<polygon fill="#ffffff" stroke="transparent" points="53,-142.7 53,-159.7 135,-159.7 135,-142.7 53,-142.7"/>
<text text-anchor="start" x="67.1045" y="-147.8" font-family="Helvetica,sans-Serif" font-size="11.00" fill="#000000">1,525 rows</text>
<polygon fill="#ffffff" stroke="transparent" points="135,-142.7 135,-159.7 179,-159.7 179,-142.7 135,-142.7"/>
<text text-anchor="start" x="161.4053" y="-147.8" font-family="Helvetica,sans-Serif" font-size="11.00" fill="#000000">3 &gt;</text>
<polygon fill="#000000" stroke="#000000" points="53,-142.7 53,-159.7 53,-159.7 53,-142.7 53,-142.7"/>
<polygon fill="#000000" stroke="#000000" points="135,-142.7 135,-159.7 135,-159.7 135,-142.7 135,-142.7"/>
</a>
</g>
</g>
<!-- bescheid&#45;&gt;familienmitglied -->
<g id="edge2" class="edge">
<title>bescheid:w&#45;&gt;familienmitglied:e</title>
<path fill="none" stroke="#000000" d="M217.0503,-187.329C198.2607,-203.5294 213.8581,-256.7 180,-256.7"/>
<polygon fill="#000000" stroke="#000000" points="223.4071,-185.2196 232.1338,-186.1168 227.2036,-183.9598 231,-182.7 231,-182.7 231,-182.7 227.2036,-183.9598 229.8662,-179.2832 223.4071,-185.2196 223.4071,-185.2196"/>
<ellipse fill="none" stroke="#000000" cx="220.37" cy="-186.2275" rx="3.2" ry="3.2"/>
</g>
</g>
</svg>
