<?xml version="1.0" encoding="UTF-8" standalone="no"?>
<!DOCTYPE svg PUBLIC "-//W3C//DTD SVG 1.1//EN"
 "http://www.w3.org/Graphics/SVG/1.1/DTD/svg11.dtd">
<!-- Generated by graphviz version 2.40.1 (20161225.0304)
 -->
<!-- Title: oneDegreeRelationshipsDiagram Pages: 1 -->
<svg width="330pt" height="250pt"
 viewBox="0.00 0.00 330.00 250.20" xmlns="http://www.w3.org/2000/svg" xmlns:xlink="http://www.w3.org/1999/xlink">
<g id="graph0" class="graph" transform="scale(1 1) rotate(0) translate(4 246.2)">
<title>oneDegreeRelationshipsDiagram</title>
<polygon fill="#ffffff" stroke="transparent" points="-4,4 -4,-246.2 326,-246.2 326,4 -4,4"/>
<text text-anchor="middle" x="72.4936" y="-7.3" font-family="Helvetica,sans-Serif" font-size="11.00" fill="#000000">Generated by SchemaSpy</text>
<!-- deleted_MemberOfTheFamily -->
<g id="node1" class="node">
<title>deleted_MemberOfTheFamily</title>
<g id="a_node1"><a xlink:href="../../tables/deleted_MemberOfTheFamily.html" xlink:title="deleted_MemberOfTheFamily" target="_top">
<polygon fill="#ffffff" stroke="transparent" points="8,-38.2 8,-238.2 314,-238.2 314,-38.2 8,-38.2"/>
<polygon fill="#f5f5f5" stroke="transparent" points="10,-213.2 10,-236.2 312,-236.2 312,-213.2 10,-213.2"/>
<polygon fill="none" stroke="#000000" points="10,-213.2 10,-236.2 312,-236.2 312,-213.2 10,-213.2"/>
<text text-anchor="start" x="15" y="-221.8" font-family="Helvetica,sans-Serif" font-weight="bold" font-size="11.00" fill="#000000">deleted_MemberOfTheFamily</text>
<text text-anchor="start" x="277.0437" y="-221.3" font-family="Helvetica,sans-Serif" font-size="11.00" fill="#000000">[table]</text>
<polygon fill="none" stroke="#000000" points="10,-191.2 10,-213.2 245,-213.2 245,-191.2 10,-191.2"/>
<image xlink:href="../../images/primaryKeys.png" width="11px" height="12px" preserveAspectRatio="xMinYMin meet" x="15" y="-208.2"/>
<text text-anchor="start" x="30" y="-198.3" font-family="Helvetica,sans-Serif" font-size="11.00" fill="#000000">Id</text>
<polygon fill="none" stroke="#000000" points="245,-191.2 245,-213.2 312,-213.2 312,-191.2 245,-191.2"/>
<text text-anchor="start" x="248" y="-198.9" font-family="Helvetica,sans-Serif" font-size="11.00" fill="#000000">int[10]</text>
<polygon fill="none" stroke="#000000" points="10,-169.2 10,-191.2 245,-191.2 245,-169.2 10,-169.2"/>
<text text-anchor="start" x="30" y="-176.3" font-family="Helvetica,sans-Serif" font-size="11.00" fill="#000000">householdId</text>
<polygon fill="none" stroke="#000000" points="245,-169.2 245,-191.2 312,-191.2 312,-169.2 245,-169.2"/>
<text text-anchor="start" x="248" y="-176.9" font-family="Helvetica,sans-Serif" font-size="11.00" fill="#000000">int[10]</text>
<polygon fill="none" stroke="#000000" points="10,-147.2 10,-169.2 245,-169.2 245,-147.2 10,-147.2"/>
<text text-anchor="start" x="30" y="-154.3" font-family="Helvetica,sans-Serif" font-size="11.00" fill="#000000">firstName</text>
<polygon fill="none" stroke="#000000" points="245,-147.2 245,-169.2 312,-169.2 312,-147.2 245,-147.2"/>
<text text-anchor="start" x="248" y="-154.9" font-family="Helvetica,sans-Serif" font-size="11.00" fill="#000000">varchar[30]</text>
<polygon fill="none" stroke="#000000" points="10,-125.2 10,-147.2 245,-147.2 245,-125.2 10,-125.2"/>
<text text-anchor="start" x="30" y="-132.3" font-family="Helvetica,sans-Serif" font-size="11.00" fill="#000000">surname</text>
<polygon fill="none" stroke="#000000" points="245,-125.2 245,-147.2 312,-147.2 312,-125.2 245,-125.2"/>
<text text-anchor="start" x="248" y="-132.9" font-family="Helvetica,sans-Serif" font-size="11.00" fill="#000000">varchar[30]</text>
<polygon fill="none" stroke="#000000" points="10,-103.2 10,-125.2 245,-125.2 245,-103.2 10,-103.2"/>
<text text-anchor="start" x="30" y="-110.3" font-family="Helvetica,sans-Serif" font-size="11.00" fill="#000000">birthday</text>
<polygon fill="none" stroke="#000000" points="245,-103.2 245,-125.2 312,-125.2 312,-103.2 245,-103.2"/>
<text text-anchor="start" x="248" y="-110.9" font-family="Helvetica,sans-Serif" font-size="11.00" fill="#000000">date[10]</text>
<polygon fill="none" stroke="#000000" points="10,-81.2 10,-103.2 245,-103.2 245,-81.2 10,-81.2"/>
<text text-anchor="start" x="30" y="-88.3" font-family="Helvetica,sans-Serif" font-size="11.00" fill="#000000">reasonDelete</text>
<polygon fill="none" stroke="#000000" points="245,-81.2 245,-103.2 312,-103.2 312,-81.2 245,-81.2"/>
<text text-anchor="start" x="247.9365" y="-88.9" font-family="Helvetica,sans-Serif" font-size="11.00" fill="#000000">varchar[255]</text>
<polygon fill="none" stroke="#000000" points="10,-59.2 10,-81.2 245,-81.2 245,-59.2 10,-59.2"/>
<text text-anchor="start" x="30" y="-66.3" font-family="Helvetica,sans-Serif" font-size="11.00" fill="#000000">deletedOn</text>
<polygon fill="none" stroke="#000000" points="245,-59.2 245,-81.2 312,-81.2 312,-59.2 245,-59.2"/>
<text text-anchor="start" x="248" y="-66.9" font-family="Helvetica,sans-Serif" font-size="11.00" fill="#000000">date[10]</text>
<polygon fill="#ffffff" stroke="transparent" points="10,-40.2 10,-59.2 312,-59.2 312,-40.2 10,-40.2"/>
<polygon fill="none" stroke="#000000" points="10,-40.2 10,-59.2 312,-59.2 312,-40.2 10,-40.2"/>
<polygon fill="#ffffff" stroke="transparent" points="11,-41.2 11,-58.2 104,-58.2 104,-41.2 11,-41.2"/>
<text text-anchor="start" x="13" y="-46.3" font-family="Helvetica,sans-Serif" font-size="11.00" fill="#000000">&lt; 0</text>
<polygon fill="#ffffff" stroke="transparent" points="104,-41.2 104,-58.2 219,-58.2 219,-41.2 104,-41.2"/>
<text text-anchor="start" x="142.2478" y="-46.3" font-family="Helvetica,sans-Serif" font-size="11.00" fill="#000000">49 rows</text>
<polygon fill="#ffffff" stroke="transparent" points="219,-41.2 219,-58.2 311,-58.2 311,-41.2 219,-41.2"/>
<text text-anchor="start" x="293.4053" y="-46.3" font-family="Helvetica,sans-Serif" font-size="11.00" fill="#000000">0 &gt;</text>
<polygon fill="#000000" stroke="#000000" points="104,-41.2 104,-58.2 104,-58.2 104,-41.2 104,-41.2"/>
<polygon fill="#000000" stroke="#000000" points="219,-41.2 219,-58.2 219,-58.2 219,-41.2 219,-41.2"/>
<polygon fill="none" stroke="#000000" stroke-width="2" points="9,-39.2 9,-237.2 313,-237.2 313,-39.2 9,-39.2"/>
</a>
</g>
</g>
</g>
</svg>
