<?xml version="1.0" encoding="UTF-8" standalone="no"?>
<!DOCTYPE svg PUBLIC "-//W3C//DTD SVG 1.1//EN"
 "http://www.w3.org/Graphics/SVG/1.1/DTD/svg11.dtd">
<!-- Generated by graphviz version 2.40.1 (20161225.0304)
 -->
<!-- Title: twoDegreesRelationshipsDiagram Pages: 1 -->
<svg width="900pt" height="563pt"
 viewBox="0.00 0.00 900.00 562.70" xmlns="http://www.w3.org/2000/svg" xmlns:xlink="http://www.w3.org/1999/xlink">
<g id="graph0" class="graph" transform="scale(1 1) rotate(0) translate(4 558.7)">
<title>twoDegreesRelationshipsDiagram</title>
<polygon fill="#ffffff" stroke="transparent" points="-4,4 -4,-558.7 896,-558.7 896,4 -4,4"/>
<text text-anchor="middle" x="72.4936" y="-7.3" font-family="Helvetica,sans-Serif" font-size="11.00" fill="#000000">Generated by SchemaSpy</text>
<!-- bescheid -->
<g id="node1" class="node">
<title>bescheid</title>
<g id="a_node1"><a xlink:href="../../tables/bescheid.html" xlink:title="bescheid" target="_top">
<polygon fill="#ffffff" stroke="transparent" points="714.5,-54.2 714.5,-115.2 818.5,-115.2 818.5,-54.2 714.5,-54.2"/>
<polygon fill="#f5f5f5" stroke="transparent" points="714.5,-91.7 714.5,-114.7 818.5,-114.7 818.5,-91.7 714.5,-91.7"/>
<polygon fill="none" stroke="#000000" points="714.5,-91.7 714.5,-114.7 818.5,-114.7 818.5,-91.7 714.5,-91.7"/>
<text text-anchor="start" x="719.5" y="-100.3" font-family="Helvetica,sans-Serif" font-weight="bold" font-size="11.00" fill="#000000">bescheid</text>
<text text-anchor="start" x="784.0219" y="-99.8" font-family="Helvetica,sans-Serif" font-size="11.00" fill="#000000">[table]</text>
<polygon fill="none" stroke="#000000" points="714.5,-72.7 714.5,-91.7 818.5,-91.7 818.5,-72.7 714.5,-72.7"/>
<text text-anchor="start" x="717.5" y="-78.8" font-family="Helvetica,sans-Serif" font-size="11.00" fill="#000000">...</text>
<polygon fill="#ffffff" stroke="transparent" points="714.5,-53.7 714.5,-72.7 818.5,-72.7 818.5,-53.7 714.5,-53.7"/>
<polygon fill="none" stroke="#000000" points="714.5,-53.7 714.5,-72.7 818.5,-72.7 818.5,-53.7 714.5,-53.7"/>
<polygon fill="#ffffff" stroke="transparent" points="715.5,-54.7 715.5,-71.7 740.5,-71.7 740.5,-54.7 715.5,-54.7"/>
<text text-anchor="start" x="717.5" y="-59.8" font-family="Helvetica,sans-Serif" font-size="11.00" fill="#000000">&lt; 2</text>
<polygon fill="#ffffff" stroke="transparent" points="740.5,-54.7 740.5,-71.7 802.5,-71.7 802.5,-54.7 740.5,-54.7"/>
<text text-anchor="start" x="744.6045" y="-59.8" font-family="Helvetica,sans-Serif" font-size="11.00" fill="#000000">1,280 rows</text>
<polygon fill="#ffffff" stroke="transparent" points="802.5,-54.7 802.5,-71.7 817.5,-71.7 817.5,-54.7 802.5,-54.7"/>
<text text-anchor="start" x="809.3862" y="-59.8" font-family="Helvetica,sans-Serif" font-size="11.00" fill="#000000"> &#160;</text>
<polygon fill="#000000" stroke="#000000" points="740.5,-54.7 740.5,-71.7 740.5,-71.7 740.5,-54.7 740.5,-54.7"/>
<polygon fill="#000000" stroke="#000000" points="802.5,-54.7 802.5,-71.7 802.5,-71.7 802.5,-54.7 802.5,-54.7"/>
</a>
</g>
</g>
<!-- familienmitglied -->
<g id="node2" class="node">
<title>familienmitglied</title>
<g id="a_node2"><a xlink:href="../../tables/familienmitglied.html" xlink:title="familienmitglied" target="_top">
<polygon fill="#ffffff" stroke="transparent" points="419,-124.2 419,-185.2 577,-185.2 577,-124.2 419,-124.2"/>
<polygon fill="#f5f5f5" stroke="transparent" points="419,-161.7 419,-184.7 577,-184.7 577,-161.7 419,-161.7"/>
<polygon fill="none" stroke="#000000" points="419,-161.7 419,-184.7 577,-184.7 577,-161.7 419,-161.7"/>
<text text-anchor="start" x="424" y="-170.3" font-family="Helvetica,sans-Serif" font-weight="bold" font-size="11.00" fill="#000000">familienmitglied</text>
<text text-anchor="start" x="542.5219" y="-169.8" font-family="Helvetica,sans-Serif" font-size="11.00" fill="#000000">[table]</text>
<polygon fill="none" stroke="#000000" points="419,-142.7 419,-161.7 577,-161.7 577,-142.7 419,-142.7"/>
<text text-anchor="start" x="422" y="-148.8" font-family="Helvetica,sans-Serif" font-size="11.00" fill="#000000">...</text>
<polygon fill="#ffffff" stroke="transparent" points="419,-123.7 419,-142.7 577,-142.7 577,-123.7 419,-123.7"/>
<polygon fill="none" stroke="#000000" points="419,-123.7 419,-142.7 577,-142.7 577,-123.7 419,-123.7"/>
<polygon fill="#ffffff" stroke="transparent" points="420,-124.7 420,-141.7 460,-141.7 460,-124.7 420,-124.7"/>
<text text-anchor="start" x="422" y="-129.8" font-family="Helvetica,sans-Serif" font-size="11.00" fill="#000000">&lt; 3</text>
<polygon fill="#ffffff" stroke="transparent" points="460,-124.7 460,-141.7 537,-141.7 537,-124.7 460,-124.7"/>
<text text-anchor="start" x="471.6045" y="-129.8" font-family="Helvetica,sans-Serif" font-size="11.00" fill="#000000">1,525 rows</text>
<polygon fill="#ffffff" stroke="transparent" points="537,-124.7 537,-141.7 576,-141.7 576,-124.7 537,-124.7"/>
<text text-anchor="start" x="558.4053" y="-129.8" font-family="Helvetica,sans-Serif" font-size="11.00" fill="#000000">3 &gt;</text>
<polygon fill="#000000" stroke="#000000" points="460,-124.7 460,-141.7 460,-141.7 460,-124.7 460,-124.7"/>
<polygon fill="#000000" stroke="#000000" points="537,-124.7 537,-141.7 537,-141.7 537,-124.7 537,-124.7"/>
</a>
</g>
</g>
<!-- bescheid&#45;&gt;familienmitglied -->
<g id="edge1" class="edge">
<title>bescheid:w&#45;&gt;familienmitglied:e</title>
<path fill="none" stroke="#000000" d="M699.9491,-82.1787C651.7536,-85.2845 601.9424,-102.9878 563.8487,-120.124"/>
<polygon fill="#000000" stroke="#000000" points="706.5043,-81.9631 714.6184,-85.2981 710.5022,-81.8316 714.5,-81.7 714.5,-81.7 714.5,-81.7 710.5022,-81.8316 714.3816,-78.1019 706.5043,-81.9631 706.5043,-81.9631"/>
<ellipse fill="none" stroke="#000000" cx="703.3061" cy="-82.0683" rx="3.2" ry="3.2"/>
</g>
<!-- haushalt -->
<g id="node5" class="node">
<title>haushalt</title>
<g id="a_node5"><a xlink:href="../../tables/haushalt.html" xlink:title="haushalt" target="_top">
<polygon fill="#ffffff" stroke="transparent" points="227.5,-202.2 227.5,-263.2 329.5,-263.2 329.5,-202.2 227.5,-202.2"/>
<polygon fill="#f5f5f5" stroke="transparent" points="227.5,-239.7 227.5,-262.7 329.5,-262.7 329.5,-239.7 227.5,-239.7"/>
<polygon fill="none" stroke="#000000" points="227.5,-239.7 227.5,-262.7 329.5,-262.7 329.5,-239.7 227.5,-239.7"/>
<text text-anchor="start" x="232.5" y="-248.3" font-family="Helvetica,sans-Serif" font-weight="bold" font-size="11.00" fill="#000000">haushalt</text>
<text text-anchor="start" x="295.0219" y="-247.8" font-family="Helvetica,sans-Serif" font-size="11.00" fill="#000000">[table]</text>
<polygon fill="none" stroke="#000000" points="227.5,-220.7 227.5,-239.7 329.5,-239.7 329.5,-220.7 227.5,-220.7"/>
<text text-anchor="start" x="230.5" y="-226.8" font-family="Helvetica,sans-Serif" font-size="11.00" fill="#000000">...</text>
<polygon fill="#ffffff" stroke="transparent" points="227.5,-201.7 227.5,-220.7 329.5,-220.7 329.5,-201.7 227.5,-201.7"/>
<polygon fill="none" stroke="#000000" points="227.5,-201.7 227.5,-220.7 329.5,-220.7 329.5,-201.7 227.5,-201.7"/>
<polygon fill="#ffffff" stroke="transparent" points="228.5,-202.7 228.5,-219.7 252.5,-219.7 252.5,-202.7 228.5,-202.7"/>
<text text-anchor="start" x="230.5" y="-207.8" font-family="Helvetica,sans-Serif" font-size="11.00" fill="#000000">&lt; 3</text>
<polygon fill="#ffffff" stroke="transparent" points="252.5,-202.7 252.5,-219.7 305.5,-219.7 305.5,-202.7 252.5,-202.7"/>
<text text-anchor="start" x="256.6904" y="-207.8" font-family="Helvetica,sans-Serif" font-size="11.00" fill="#000000">639 rows</text>
<polygon fill="#ffffff" stroke="transparent" points="305.5,-202.7 305.5,-219.7 328.5,-219.7 328.5,-202.7 305.5,-202.7"/>
<text text-anchor="start" x="310.9053" y="-207.8" font-family="Helvetica,sans-Serif" font-size="11.00" fill="#000000">3 &gt;</text>
<polygon fill="#000000" stroke="#000000" points="252.5,-202.7 252.5,-219.7 252.5,-219.7 252.5,-202.7 252.5,-202.7"/>
<polygon fill="#000000" stroke="#000000" points="305.5,-202.7 305.5,-219.7 305.5,-219.7 305.5,-202.7 305.5,-202.7"/>
</a>
</g>
</g>
<!-- familienmitglied&#45;&gt;haushalt -->
<g id="edge7" class="edge">
<title>familienmitglied:w&#45;&gt;haushalt:e</title>
<path fill="none" stroke="#000000" d="M397.2902,-190.4876C376.9268,-197.7237 356.1456,-205.1084 337.7761,-211.636"/>
<polygon fill="#000000" stroke="#000000" points="403.3943,-188.3185 412.138,-189.0319 407.1634,-186.9791 410.9325,-185.6397 410.9325,-185.6397 410.9325,-185.6397 407.1634,-186.9791 409.7271,-182.2475 403.3943,-188.3185 403.3943,-188.3185"/>
<ellipse fill="none" stroke="#000000" cx="400.379" cy="-189.39" rx="3.2" ry="3.2"/>
</g>
<!-- berechtigung -->
<g id="node7" class="node">
<title>berechtigung</title>
<g id="a_node7"><a xlink:href="../../tables/berechtigung.html" xlink:title="berechtigung" target="_top">
<polygon fill="#ffffff" stroke="transparent" points="210,-38.2 210,-99.2 347,-99.2 347,-38.2 210,-38.2"/>
<polygon fill="#f5f5f5" stroke="transparent" points="210.5,-75.7 210.5,-98.7 347.5,-98.7 347.5,-75.7 210.5,-75.7"/>
<polygon fill="none" stroke="#000000" points="210.5,-75.7 210.5,-98.7 347.5,-98.7 347.5,-75.7 210.5,-75.7"/>
<text text-anchor="start" x="215.5" y="-84.3" font-family="Helvetica,sans-Serif" font-weight="bold" font-size="11.00" fill="#000000">berechtigung</text>
<text text-anchor="start" x="313.0219" y="-83.8" font-family="Helvetica,sans-Serif" font-size="11.00" fill="#000000">[table]</text>
<polygon fill="none" stroke="#000000" points="210.5,-56.7 210.5,-75.7 347.5,-75.7 347.5,-56.7 210.5,-56.7"/>
<text text-anchor="start" x="213.5" y="-62.8" font-family="Helvetica,sans-Serif" font-size="11.00" fill="#000000">...</text>
<polygon fill="#ffffff" stroke="transparent" points="210.5,-37.7 210.5,-56.7 347.5,-56.7 347.5,-37.7 210.5,-37.7"/>
<polygon fill="none" stroke="#000000" points="210.5,-37.7 210.5,-56.7 347.5,-56.7 347.5,-37.7 210.5,-37.7"/>
<polygon fill="#ffffff" stroke="transparent" points="211.5,-38.7 211.5,-55.7 245.5,-55.7 245.5,-38.7 211.5,-38.7"/>
<text text-anchor="start" x="213.5" y="-43.8" font-family="Helvetica,sans-Serif" font-size="11.00" fill="#000000"> &#160;</text>
<polygon fill="#ffffff" stroke="transparent" points="245.5,-38.7 245.5,-55.7 304.5,-55.7 304.5,-38.7 245.5,-38.7"/>
<text text-anchor="start" x="258.8053" y="-43.8" font-family="Helvetica,sans-Serif" font-size="11.00" fill="#000000">5 rows</text>
<polygon fill="#ffffff" stroke="transparent" points="304.5,-38.7 304.5,-55.7 346.5,-55.7 346.5,-38.7 304.5,-38.7"/>
<text text-anchor="start" x="328.9053" y="-43.8" font-family="Helvetica,sans-Serif" font-size="11.00" fill="#000000">1 &gt;</text>
<polygon fill="#000000" stroke="#000000" points="245.5,-38.7 245.5,-55.7 245.5,-55.7 245.5,-38.7 245.5,-38.7"/>
<polygon fill="#000000" stroke="#000000" points="304.5,-38.7 304.5,-55.7 304.5,-55.7 304.5,-38.7 304.5,-38.7"/>
</a>
</g>
</g>
<!-- familienmitglied&#45;&gt;berechtigung -->
<g id="edge6" class="edge">
<title>familienmitglied:w&#45;&gt;berechtigung:e</title>
<path fill="none" stroke="#000000" d="M452.2992,-110.5259C424.3471,-88.1678 386.5445,-65.7 347.5,-65.7"/>
<polygon fill="#000000" stroke="#000000" points="457.518,-114.898 461.3386,-122.795 460.5843,-117.4667 463.6505,-120.0354 463.6505,-120.0354 463.6505,-120.0354 460.5843,-117.4667 465.9623,-117.2758 457.518,-114.898 457.518,-114.898"/>
<ellipse fill="none" stroke="#000000" cx="455.0651" cy="-112.843" rx="3.2" ry="3.2"/>
</g>
<!-- nation -->
<g id="node8" class="node">
<title>nation</title>
<g id="a_node8"><a xlink:href="../../tables/nation.html" xlink:title="nation" target="_top">
<polygon fill="#ffffff" stroke="transparent" points="236,-120.2 236,-181.2 321,-181.2 321,-120.2 236,-120.2"/>
<polygon fill="#f5f5f5" stroke="transparent" points="236.5,-157.7 236.5,-180.7 321.5,-180.7 321.5,-157.7 236.5,-157.7"/>
<polygon fill="none" stroke="#000000" points="236.5,-157.7 236.5,-180.7 321.5,-180.7 321.5,-157.7 236.5,-157.7"/>
<text text-anchor="start" x="241.5" y="-166.3" font-family="Helvetica,sans-Serif" font-weight="bold" font-size="11.00" fill="#000000">nation</text>
<text text-anchor="start" x="287.0219" y="-165.8" font-family="Helvetica,sans-Serif" font-size="11.00" fill="#000000">[table]</text>
<polygon fill="none" stroke="#000000" points="236.5,-138.7 236.5,-157.7 321.5,-157.7 321.5,-138.7 236.5,-138.7"/>
<text text-anchor="start" x="239.5" y="-144.8" font-family="Helvetica,sans-Serif" font-size="11.00" fill="#000000">...</text>
<polygon fill="#ffffff" stroke="transparent" points="236.5,-119.7 236.5,-138.7 321.5,-138.7 321.5,-119.7 236.5,-119.7"/>
<polygon fill="none" stroke="#000000" points="236.5,-119.7 236.5,-138.7 321.5,-138.7 321.5,-119.7 236.5,-119.7"/>
<polygon fill="#ffffff" stroke="transparent" points="237.5,-120.7 237.5,-137.7 249.5,-137.7 249.5,-120.7 237.5,-120.7"/>
<text text-anchor="start" x="239.5" y="-125.8" font-family="Helvetica,sans-Serif" font-size="11.00" fill="#000000"> &#160;</text>
<polygon fill="#ffffff" stroke="transparent" points="249.5,-120.7 249.5,-137.7 299.5,-137.7 299.5,-120.7 249.5,-120.7"/>
<text text-anchor="start" x="252.1904" y="-125.8" font-family="Helvetica,sans-Serif" font-size="11.00" fill="#000000">190 rows</text>
<polygon fill="#ffffff" stroke="transparent" points="299.5,-120.7 299.5,-137.7 320.5,-137.7 320.5,-120.7 299.5,-120.7"/>
<text text-anchor="start" x="302.9053" y="-125.8" font-family="Helvetica,sans-Serif" font-size="11.00" fill="#000000">1 &gt;</text>
<polygon fill="#000000" stroke="#000000" points="249.5,-120.7 249.5,-137.7 249.5,-137.7 249.5,-120.7 249.5,-120.7"/>
<polygon fill="#000000" stroke="#000000" points="299.5,-120.7 299.5,-137.7 299.5,-137.7 299.5,-120.7 299.5,-120.7"/>
</a>
</g>
</g>
<!-- familienmitglied&#45;&gt;nation -->
<g id="edge8" class="edge">
<title>familienmitglied:w&#45;&gt;nation:e</title>
<path fill="none" stroke="#000000" d="M396.3344,-149.2899C371.8372,-148.3673 345.7397,-147.7 321.5,-147.7"/>
<polygon fill="#000000" stroke="#000000" points="402.9531,-149.5555 410.8023,-153.4736 406.9499,-149.716 410.9467,-149.8765 410.9467,-149.8765 410.9467,-149.8765 406.9499,-149.716 411.0911,-146.2794 402.9531,-149.5555 402.9531,-149.5555"/>
<ellipse fill="none" stroke="#000000" cx="399.7557" cy="-149.4272" rx="3.2" ry="3.2"/>
</g>
<!-- einkauf -->
<g id="node3" class="node">
<title>einkauf</title>
<g id="a_node3"><a xlink:href="../../tables/einkauf.html" xlink:title="einkauf" target="_top">
<polygon fill="#ffffff" stroke="transparent" points="649,-218.7 649,-550.7 884,-550.7 884,-218.7 649,-218.7"/>
<polygon fill="#f5f5f5" stroke="transparent" points="651.5,-525.7 651.5,-548.7 882.5,-548.7 882.5,-525.7 651.5,-525.7"/>
<polygon fill="none" stroke="#000000" points="651.5,-525.7 651.5,-548.7 882.5,-548.7 882.5,-525.7 651.5,-525.7"/>
<text text-anchor="start" x="656.5" y="-534.3" font-family="Helvetica,sans-Serif" font-weight="bold" font-size="11.00" fill="#000000">einkauf</text>
<text text-anchor="start" x="847.5437" y="-533.8" font-family="Helvetica,sans-Serif" font-size="11.00" fill="#000000">[table]</text>
<polygon fill="none" stroke="#000000" points="651.5,-503.7 651.5,-525.7 807.5,-525.7 807.5,-503.7 651.5,-503.7"/>
<image xlink:href="../../images/primaryKeys.png" width="11px" height="12px" preserveAspectRatio="xMinYMin meet" x="656.5" y="-520.7"/>
<text text-anchor="start" x="671.5" y="-510.8" font-family="Helvetica,sans-Serif" font-size="11.00" fill="#000000">einkaufId</text>
<polygon fill="none" stroke="#000000" points="807.5,-503.7 807.5,-525.7 882.5,-525.7 882.5,-503.7 807.5,-503.7"/>
<text text-anchor="start" x="810.5" y="-511.4" font-family="Helvetica,sans-Serif" font-size="11.00" fill="#000000">int[10]</text>
<polygon fill="#ffffff" stroke="transparent" points="651.5,-481.7 651.5,-503.7 807.5,-503.7 807.5,-481.7 651.5,-481.7"/>
<polygon fill="none" stroke="#000000" points="651.5,-481.7 651.5,-503.7 807.5,-503.7 807.5,-481.7 651.5,-481.7"/>
<image xlink:href="../../images/foreignKeys.png" width="11px" height="12px" preserveAspectRatio="xMinYMin meet" x="656.5" y="-498.7"/>
<text text-anchor="start" x="671.5" y="-488.8" font-family="Helvetica,sans-Serif" font-size="11.00" fill="#000000">warentyp</text>
<polygon fill="none" stroke="#000000" points="807.5,-481.7 807.5,-503.7 882.5,-503.7 882.5,-481.7 807.5,-481.7"/>
<text text-anchor="start" x="810.5" y="-489.4" font-family="Helvetica,sans-Serif" font-size="11.00" fill="#000000">int[10]</text>
<polygon fill="none" stroke="#000000" points="651.5,-459.7 651.5,-481.7 807.5,-481.7 807.5,-459.7 651.5,-459.7"/>
<text text-anchor="start" x="671.5" y="-466.8" font-family="Helvetica,sans-Serif" font-size="11.00" fill="#000000">storniertAm</text>
<polygon fill="none" stroke="#000000" points="807.5,-459.7 807.5,-481.7 882.5,-481.7 882.5,-459.7 807.5,-459.7"/>
<text text-anchor="start" x="810.4666" y="-467.4" font-family="Helvetica,sans-Serif" font-size="11.00" fill="#000000">timestamp[19]</text>
<polygon fill="none" stroke="#000000" points="651.5,-437.7 651.5,-459.7 807.5,-459.7 807.5,-437.7 651.5,-437.7"/>
<text text-anchor="start" x="671.5" y="-444.8" font-family="Helvetica,sans-Serif" font-size="11.00" fill="#000000">stornoText</text>
<polygon fill="none" stroke="#000000" points="807.5,-437.7 807.5,-459.7 882.5,-459.7 882.5,-437.7 807.5,-437.7"/>
<text text-anchor="start" x="810.5" y="-445.4" font-family="Helvetica,sans-Serif" font-size="11.00" fill="#000000">text[65535]</text>
<polygon fill="none" stroke="#000000" points="651.5,-415.7 651.5,-437.7 807.5,-437.7 807.5,-415.7 651.5,-415.7"/>
<text text-anchor="start" x="671.5" y="-422.8" font-family="Helvetica,sans-Serif" font-size="11.00" fill="#000000">buchungstext</text>
<polygon fill="none" stroke="#000000" points="807.5,-415.7 807.5,-437.7 882.5,-437.7 882.5,-415.7 807.5,-415.7"/>
<text text-anchor="start" x="810.5" y="-423.4" font-family="Helvetica,sans-Serif" font-size="11.00" fill="#000000">text[65535]</text>
<polygon fill="#ffffff" stroke="transparent" points="651.5,-393.7 651.5,-415.7 807.5,-415.7 807.5,-393.7 651.5,-393.7"/>
<polygon fill="none" stroke="#000000" points="651.5,-393.7 651.5,-415.7 807.5,-415.7 807.5,-393.7 651.5,-393.7"/>
<image xlink:href="../../images/foreignKeys.png" width="11px" height="12px" preserveAspectRatio="xMinYMin meet" x="656.5" y="-410.7"/>
<text text-anchor="start" x="671.5" y="-400.8" font-family="Helvetica,sans-Serif" font-size="11.00" fill="#000000">kunde</text>
<polygon fill="none" stroke="#000000" points="807.5,-393.7 807.5,-415.7 882.5,-415.7 882.5,-393.7 807.5,-393.7"/>
<text text-anchor="start" x="810.5" y="-401.4" font-family="Helvetica,sans-Serif" font-size="11.00" fill="#000000">int[10]</text>
<polygon fill="#ffffff" stroke="transparent" points="651.5,-371.7 651.5,-393.7 807.5,-393.7 807.5,-371.7 651.5,-371.7"/>
<polygon fill="none" stroke="#000000" points="651.5,-371.7 651.5,-393.7 807.5,-393.7 807.5,-371.7 651.5,-371.7"/>
<image xlink:href="../../images/foreignKeys.png" width="11px" height="12px" preserveAspectRatio="xMinYMin meet" x="656.5" y="-388.7"/>
<text text-anchor="start" x="671.5" y="-378.8" font-family="Helvetica,sans-Serif" font-size="11.00" fill="#000000">person</text>
<polygon fill="none" stroke="#000000" points="807.5,-371.7 807.5,-393.7 882.5,-393.7 882.5,-371.7 807.5,-371.7"/>
<text text-anchor="start" x="810.5" y="-379.4" font-family="Helvetica,sans-Serif" font-size="11.00" fill="#000000">int[10]</text>
<polygon fill="none" stroke="#000000" points="651.5,-349.7 651.5,-371.7 807.5,-371.7 807.5,-349.7 651.5,-349.7"/>
<text text-anchor="start" x="671.5" y="-356.8" font-family="Helvetica,sans-Serif" font-size="11.00" fill="#000000">erfassungsZeit</text>
<polygon fill="none" stroke="#000000" points="807.5,-349.7 807.5,-371.7 882.5,-371.7 882.5,-349.7 807.5,-349.7"/>
<text text-anchor="start" x="810.4666" y="-357.4" font-family="Helvetica,sans-Serif" font-size="11.00" fill="#000000">timestamp[19]</text>
<polygon fill="none" stroke="#000000" points="651.5,-327.7 651.5,-349.7 807.5,-349.7 807.5,-327.7 651.5,-327.7"/>
<text text-anchor="start" x="671.5" y="-334.8" font-family="Helvetica,sans-Serif" font-size="11.00" fill="#000000">summeEinkauf</text>
<polygon fill="none" stroke="#000000" points="807.5,-327.7 807.5,-349.7 882.5,-349.7 882.5,-327.7 807.5,-327.7"/>
<text text-anchor="start" x="810.5" y="-335.4" font-family="Helvetica,sans-Serif" font-size="11.00" fill="#000000">float[12]</text>
<polygon fill="none" stroke="#000000" points="651.5,-305.7 651.5,-327.7 807.5,-327.7 807.5,-305.7 651.5,-305.7"/>
<text text-anchor="start" x="671.5" y="-312.8" font-family="Helvetica,sans-Serif" font-size="11.00" fill="#000000">summeZahlung</text>
<polygon fill="none" stroke="#000000" points="807.5,-305.7 807.5,-327.7 882.5,-327.7 882.5,-305.7 807.5,-305.7"/>
<text text-anchor="start" x="810.5" y="-313.4" font-family="Helvetica,sans-Serif" font-size="11.00" fill="#000000">float[12]</text>
<polygon fill="#ffffff" stroke="transparent" points="651.5,-283.7 651.5,-305.7 807.5,-305.7 807.5,-283.7 651.5,-283.7"/>
<polygon fill="none" stroke="#000000" points="651.5,-283.7 651.5,-305.7 807.5,-305.7 807.5,-283.7 651.5,-283.7"/>
<image xlink:href="../../images/foreignKeys.png" width="11px" height="12px" preserveAspectRatio="xMinYMin meet" x="656.5" y="-300.7"/>
<text text-anchor="start" x="671.5" y="-290.8" font-family="Helvetica,sans-Serif" font-size="11.00" fill="#000000">beiVerteilstelle</text>
<polygon fill="none" stroke="#000000" points="807.5,-283.7 807.5,-305.7 882.5,-305.7 882.5,-283.7 807.5,-283.7"/>
<text text-anchor="start" x="810.5" y="-291.4" font-family="Helvetica,sans-Serif" font-size="11.00" fill="#000000">int[10]</text>
<polygon fill="none" stroke="#000000" points="651.5,-261.7 651.5,-283.7 807.5,-283.7 807.5,-261.7 651.5,-261.7"/>
<text text-anchor="start" x="671.5" y="-268.8" font-family="Helvetica,sans-Serif" font-size="11.00" fill="#000000">anzahlKinder</text>
<polygon fill="none" stroke="#000000" points="807.5,-261.7 807.5,-283.7 882.5,-283.7 882.5,-261.7 807.5,-261.7"/>
<text text-anchor="start" x="810.5" y="-269.4" font-family="Helvetica,sans-Serif" font-size="11.00" fill="#000000">int[10]</text>
<polygon fill="none" stroke="#000000" points="651.5,-239.7 651.5,-261.7 807.5,-261.7 807.5,-239.7 651.5,-239.7"/>
<text text-anchor="start" x="671.5" y="-246.8" font-family="Helvetica,sans-Serif" font-size="11.00" fill="#000000">anzahlErwachsene</text>
<polygon fill="none" stroke="#000000" points="807.5,-239.7 807.5,-261.7 882.5,-261.7 882.5,-239.7 807.5,-239.7"/>
<text text-anchor="start" x="810.5" y="-247.4" font-family="Helvetica,sans-Serif" font-size="11.00" fill="#000000">int[10]</text>
<polygon fill="#ffffff" stroke="transparent" points="651.5,-220.7 651.5,-239.7 882.5,-239.7 882.5,-220.7 651.5,-220.7"/>
<polygon fill="none" stroke="#000000" points="651.5,-220.7 651.5,-239.7 882.5,-239.7 882.5,-220.7 651.5,-220.7"/>
<polygon fill="#ffffff" stroke="transparent" points="652.5,-221.7 652.5,-238.7 716.5,-238.7 716.5,-221.7 652.5,-221.7"/>
<text text-anchor="start" x="654.5" y="-226.8" font-family="Helvetica,sans-Serif" font-size="11.00" fill="#000000">&lt; 4</text>
<polygon fill="#ffffff" stroke="transparent" points="716.5,-221.7 716.5,-238.7 818.5,-238.7 818.5,-221.7 716.5,-221.7"/>
<text text-anchor="start" x="740.6045" y="-226.8" font-family="Helvetica,sans-Serif" font-size="11.00" fill="#000000">3,276 rows</text>
<polygon fill="#ffffff" stroke="transparent" points="818.5,-221.7 818.5,-238.7 881.5,-238.7 881.5,-221.7 818.5,-221.7"/>
<text text-anchor="start" x="863.9053" y="-226.8" font-family="Helvetica,sans-Serif" font-size="11.00" fill="#000000">0 &gt;</text>
<polygon fill="#000000" stroke="#000000" points="716.5,-221.7 716.5,-238.7 716.5,-238.7 716.5,-221.7 716.5,-221.7"/>
<polygon fill="#000000" stroke="#000000" points="818.5,-221.7 818.5,-238.7 818.5,-238.7 818.5,-221.7 818.5,-221.7"/>
<polygon fill="none" stroke="#000000" stroke-width="2" points="650,-219.7 650,-549.7 883,-549.7 883,-219.7 650,-219.7"/>
</a>
</g>
</g>
<!-- einkauf&#45;&gt;familienmitglied -->
<g id="edge4" class="edge">
<title>einkauf:w&#45;&gt;familienmitglied:e</title>
<path fill="none" stroke="#000000" d="M637.1759,-380.0847C612.7525,-369.0431 628.517,-325.3092 608,-292.7 584.5048,-255.3573 552.637,-216.3611 529.2498,-189.387"/>
<polygon fill="#000000" stroke="#000000" points="643.6301,-381.2631 650.8534,-386.2415 647.565,-381.9815 651.5,-382.7 651.5,-382.7 651.5,-382.7 647.565,-381.9815 652.1466,-379.1585 643.6301,-381.2631 643.6301,-381.2631"/>
<ellipse fill="none" stroke="#000000" cx="640.4821" cy="-380.6883" rx="3.2" ry="3.2"/>
</g>
<!-- verteilstelle -->
<g id="node4" class="node">
<title>verteilstelle</title>
<g id="a_node4"><a xlink:href="../../tables/verteilstelle.html" xlink:title="verteilstelle" target="_top">
<polygon fill="#ffffff" stroke="transparent" points="21,-279.2 21,-340.2 148,-340.2 148,-279.2 21,-279.2"/>
<polygon fill="#f5f5f5" stroke="transparent" points="21.5,-316.7 21.5,-339.7 148.5,-339.7 148.5,-316.7 21.5,-316.7"/>
<polygon fill="none" stroke="#000000" points="21.5,-316.7 21.5,-339.7 148.5,-339.7 148.5,-316.7 21.5,-316.7"/>
<text text-anchor="start" x="26.5" y="-325.3" font-family="Helvetica,sans-Serif" font-weight="bold" font-size="11.00" fill="#000000">verteilstelle</text>
<text text-anchor="start" x="114.0219" y="-324.8" font-family="Helvetica,sans-Serif" font-size="11.00" fill="#000000">[table]</text>
<polygon fill="none" stroke="#000000" points="21.5,-297.7 21.5,-316.7 148.5,-316.7 148.5,-297.7 21.5,-297.7"/>
<text text-anchor="start" x="24.5" y="-303.8" font-family="Helvetica,sans-Serif" font-size="11.00" fill="#000000">...</text>
<polygon fill="#ffffff" stroke="transparent" points="21.5,-278.7 21.5,-297.7 148.5,-297.7 148.5,-278.7 21.5,-278.7"/>
<polygon fill="none" stroke="#000000" points="21.5,-278.7 21.5,-297.7 148.5,-297.7 148.5,-278.7 21.5,-278.7"/>
<polygon fill="#ffffff" stroke="transparent" points="22.5,-279.7 22.5,-296.7 52.5,-296.7 52.5,-279.7 22.5,-279.7"/>
<text text-anchor="start" x="24.5" y="-284.8" font-family="Helvetica,sans-Serif" font-size="11.00" fill="#000000"> &#160;</text>
<polygon fill="#ffffff" stroke="transparent" points="52.5,-279.7 52.5,-296.7 108.5,-296.7 108.5,-279.7 52.5,-279.7"/>
<text text-anchor="start" x="64.3053" y="-284.8" font-family="Helvetica,sans-Serif" font-size="11.00" fill="#000000">0 rows</text>
<polygon fill="#ffffff" stroke="transparent" points="108.5,-279.7 108.5,-296.7 147.5,-296.7 147.5,-279.7 108.5,-279.7"/>
<text text-anchor="start" x="129.9053" y="-284.8" font-family="Helvetica,sans-Serif" font-size="11.00" fill="#000000">2 &gt;</text>
<polygon fill="#000000" stroke="#000000" points="52.5,-279.7 52.5,-296.7 52.5,-296.7 52.5,-279.7 52.5,-279.7"/>
<polygon fill="#000000" stroke="#000000" points="108.5,-279.7 108.5,-296.7 108.5,-296.7 108.5,-279.7 108.5,-279.7"/>
</a>
</g>
</g>
<!-- einkauf&#45;&gt;verteilstelle -->
<g id="edge2" class="edge">
<title>einkauf:w&#45;&gt;verteilstelle:e</title>
<path fill="none" stroke="#000000" d="M637.0749,-294.716C462.0795,-295.1005 260.7385,-302.3164 156.0889,-306.592"/>
<polygon fill="#000000" stroke="#000000" points="643.5,-294.7089 651.504,-298.3 647.5,-294.7045 651.5,-294.7 651.5,-294.7 651.5,-294.7 647.5,-294.7045 651.496,-291.1 643.5,-294.7089 643.5,-294.7089"/>
<ellipse fill="none" stroke="#000000" cx="640.3" cy="-294.7125" rx="3.2" ry="3.2"/>
</g>
<!-- einkauf&#45;&gt;haushalt -->
<g id="edge3" class="edge">
<title>einkauf:w&#45;&gt;haushalt:e</title>
<path fill="none" stroke="#000000" d="M637.0186,-404.3462C511.6876,-398.281 385.1105,-315.6628 321.1752,-267.2999"/>
<polygon fill="#000000" stroke="#000000" points="643.5024,-404.5046 651.412,-408.2989 647.5012,-404.6023 651.5,-404.7 651.5,-404.7 651.5,-404.7 647.5012,-404.6023 651.588,-401.1011 643.5024,-404.5046 643.5024,-404.5046"/>
<ellipse fill="none" stroke="#000000" cx="640.3033" cy="-404.4264" rx="3.2" ry="3.2"/>
</g>
<!-- warentyp -->
<g id="node6" class="node">
<title>warentyp</title>
<g id="a_node6"><a xlink:href="../../tables/warentyp.html" xlink:title="warentyp" target="_top">
<polygon fill="#ffffff" stroke="transparent" points="396,-422.2 396,-527.2 600,-527.2 600,-422.2 396,-422.2"/>
<polygon fill="#f5f5f5" stroke="transparent" points="396,-503.7 396,-526.7 600,-526.7 600,-503.7 396,-503.7"/>
<polygon fill="none" stroke="#000000" points="396,-503.7 396,-526.7 600,-526.7 600,-503.7 396,-503.7"/>
<text text-anchor="start" x="401" y="-512.3" font-family="Helvetica,sans-Serif" font-weight="bold" font-size="11.00" fill="#000000">warentyp</text>
<text text-anchor="start" x="565.0437" y="-511.8" font-family="Helvetica,sans-Serif" font-size="11.00" fill="#000000">[table]</text>
<polygon fill="none" stroke="#000000" points="396,-481.7 396,-503.7 600,-503.7 600,-481.7 396,-481.7"/>
<image xlink:href="../../images/primaryKeys.png" width="11px" height="12px" preserveAspectRatio="xMinYMin meet" x="401" y="-498.7"/>
<text text-anchor="start" x="416" y="-488.8" font-family="Helvetica,sans-Serif" font-size="11.00" fill="#000000">warentypId</text>
<polygon fill="#ffffff" stroke="transparent" points="396,-459.7 396,-481.7 600,-481.7 600,-459.7 396,-459.7"/>
<polygon fill="none" stroke="#000000" points="396,-459.7 396,-481.7 600,-481.7 600,-459.7 396,-459.7"/>
<image xlink:href="../../images/foreignKeys.png" width="11px" height="12px" preserveAspectRatio="xMinYMin meet" x="401" y="-476.7"/>
<text text-anchor="start" x="416" y="-466.8" font-family="Helvetica,sans-Serif" font-size="11.00" fill="#000000">naechsterwarentypid</text>
<polygon fill="none" stroke="#000000" points="396,-440.7 396,-459.7 600,-459.7 600,-440.7 396,-440.7"/>
<text text-anchor="start" x="399" y="-446.8" font-family="Helvetica,sans-Serif" font-size="11.00" fill="#000000">...</text>
<polygon fill="#ffffff" stroke="transparent" points="396,-421.7 396,-440.7 600,-440.7 600,-421.7 396,-421.7"/>
<polygon fill="none" stroke="#000000" points="396,-421.7 396,-440.7 600,-440.7 600,-421.7 396,-421.7"/>
<polygon fill="#ffffff" stroke="transparent" points="397,-422.7 397,-439.7 459,-439.7 459,-422.7 397,-422.7"/>
<text text-anchor="start" x="399" y="-427.8" font-family="Helvetica,sans-Serif" font-size="11.00" fill="#000000">&lt; 1</text>
<polygon fill="#ffffff" stroke="transparent" points="459,-422.7 459,-439.7 538,-439.7 538,-422.7 459,-422.7"/>
<text text-anchor="start" x="482.3053" y="-427.8" font-family="Helvetica,sans-Serif" font-size="11.00" fill="#000000">2 rows</text>
<polygon fill="#ffffff" stroke="transparent" points="538,-422.7 538,-439.7 599,-439.7 599,-422.7 538,-422.7"/>
<text text-anchor="start" x="581.4053" y="-427.8" font-family="Helvetica,sans-Serif" font-size="11.00" fill="#000000">2 &gt;</text>
<polygon fill="#000000" stroke="#000000" points="459,-422.7 459,-439.7 459,-439.7 459,-422.7 459,-422.7"/>
<polygon fill="#000000" stroke="#000000" points="538,-422.7 538,-439.7 538,-439.7 538,-422.7 538,-422.7"/>
</a>
</g>
</g>
<!-- einkauf&#45;&gt;warentyp -->
<g id="edge5" class="edge">
<title>einkauf:w&#45;&gt;warentyp:e</title>
<path fill="none" stroke="#000000" d="M637.0156,-492.7C624.6771,-492.7 617.1667,-492.7 600,-492.7"/>
<polygon fill="#000000" stroke="#000000" points="643.5,-492.7001 651.5,-496.3 647.5,-492.7 651.5,-492.7 651.5,-492.7 651.5,-492.7 647.5,-492.7 651.5,-489.1 643.5,-492.7001 643.5,-492.7001"/>
<ellipse fill="none" stroke="#000000" cx="640.3" cy="-492.7001" rx="3.2" ry="3.2"/>
</g>
<!-- haushalt&#45;&gt;verteilstelle -->
<g id="edge11" class="edge">
<title>haushalt:w&#45;&gt;verteilstelle:e</title>
<path fill="none" stroke="#000000" d="M205.8319,-261.5425C189.5442,-268.0072 172.2779,-274.8603 156.0367,-281.3066"/>
<polygon fill="#000000" stroke="#000000" points="211.8037,-259.1723 220.5676,-259.567 215.5216,-257.6966 219.2395,-256.2209 219.2395,-256.2209 219.2395,-256.2209 215.5216,-257.6966 217.9114,-252.8749 211.8037,-259.1723 211.8037,-259.1723"/>
<ellipse fill="none" stroke="#000000" cx="208.8295" cy="-260.3528" rx="3.2" ry="3.2"/>
</g>
<!-- ausgabegruppe -->
<g id="node9" class="node">
<title>ausgabegruppe</title>
<g id="a_node9"><a xlink:href="../../tables/ausgabegruppe.html" xlink:title="ausgabegruppe" target="_top">
<polygon fill="#ffffff" stroke="transparent" points="8,-115.2 8,-176.2 161,-176.2 161,-115.2 8,-115.2"/>
<polygon fill="#f5f5f5" stroke="transparent" points="8.5,-152.7 8.5,-175.7 161.5,-175.7 161.5,-152.7 8.5,-152.7"/>
<polygon fill="none" stroke="#000000" points="8.5,-152.7 8.5,-175.7 161.5,-175.7 161.5,-152.7 8.5,-152.7"/>
<text text-anchor="start" x="13.5" y="-161.3" font-family="Helvetica,sans-Serif" font-weight="bold" font-size="11.00" fill="#000000">ausgabegruppe</text>
<text text-anchor="start" x="127.0219" y="-160.8" font-family="Helvetica,sans-Serif" font-size="11.00" fill="#000000">[table]</text>
<polygon fill="none" stroke="#000000" points="8.5,-133.7 8.5,-152.7 161.5,-152.7 161.5,-133.7 8.5,-133.7"/>
<text text-anchor="start" x="11.5" y="-139.8" font-family="Helvetica,sans-Serif" font-size="11.00" fill="#000000">...</text>
<polygon fill="#ffffff" stroke="transparent" points="8.5,-114.7 8.5,-133.7 161.5,-133.7 161.5,-114.7 8.5,-114.7"/>
<polygon fill="none" stroke="#000000" points="8.5,-114.7 8.5,-133.7 161.5,-133.7 161.5,-114.7 8.5,-114.7"/>
<polygon fill="#ffffff" stroke="transparent" points="9.5,-115.7 9.5,-132.7 46.5,-132.7 46.5,-115.7 9.5,-115.7"/>
<text text-anchor="start" x="11.5" y="-120.8" font-family="Helvetica,sans-Serif" font-size="11.00" fill="#000000"> &#160;</text>
<polygon fill="#ffffff" stroke="transparent" points="46.5,-115.7 46.5,-132.7 115.5,-132.7 115.5,-115.7 46.5,-115.7"/>
<text text-anchor="start" x="61.7478" y="-120.8" font-family="Helvetica,sans-Serif" font-size="11.00" fill="#000000">24 rows</text>
<polygon fill="#ffffff" stroke="transparent" points="115.5,-115.7 115.5,-132.7 160.5,-132.7 160.5,-115.7 115.5,-115.7"/>
<text text-anchor="start" x="142.9053" y="-120.8" font-family="Helvetica,sans-Serif" font-size="11.00" fill="#000000">2 &gt;</text>
<polygon fill="#000000" stroke="#000000" points="46.5,-115.7 46.5,-132.7 46.5,-132.7 46.5,-115.7 46.5,-115.7"/>
<polygon fill="#000000" stroke="#000000" points="115.5,-115.7 115.5,-132.7 115.5,-132.7 115.5,-115.7 115.5,-115.7"/>
</a>
</g>
</g>
<!-- haushalt&#45;&gt;ausgabegruppe -->
<g id="edge9" class="edge">
<title>haushalt:w&#45;&gt;ausgabegruppe:e</title>
<path fill="none" stroke="#000000" d="M207.4418,-195.9384C205.5781,-194.5542 203.7598,-193.1408 202,-191.7 180.1384,-173.8019 189.7537,-142.7 161.5,-142.7"/>
<polygon fill="#000000" stroke="#000000" points="212.7403,-199.5521 217.321,-207.0339 216.0449,-201.806 219.3495,-204.0598 219.3495,-204.0598 219.3495,-204.0598 216.0449,-201.806 221.3779,-201.0856 212.7403,-199.5521 212.7403,-199.5521"/>
<ellipse fill="none" stroke="#000000" cx="210.0966" cy="-197.7491" rx="3.2" ry="3.2"/>
</g>
<!-- plz -->
<g id="node10" class="node">
<title>plz</title>
<g id="a_node10"><a xlink:href="../../tables/plz.html" xlink:title="plz" target="_top">
<polygon fill="#ffffff" stroke="transparent" points="48,-197.2 48,-258.2 121,-258.2 121,-197.2 48,-197.2"/>
<polygon fill="#f5f5f5" stroke="transparent" points="48.5,-234.7 48.5,-257.7 121.5,-257.7 121.5,-234.7 48.5,-234.7"/>
<polygon fill="none" stroke="#000000" points="48.5,-234.7 48.5,-257.7 121.5,-257.7 121.5,-234.7 48.5,-234.7"/>
<text text-anchor="start" x="53.5" y="-243.3" font-family="Helvetica,sans-Serif" font-weight="bold" font-size="11.00" fill="#000000">plz</text>
<text text-anchor="start" x="86.5437" y="-242.8" font-family="Helvetica,sans-Serif" font-size="11.00" fill="#000000">[table]</text>
<polygon fill="none" stroke="#000000" points="48.5,-215.7 48.5,-234.7 121.5,-234.7 121.5,-215.7 48.5,-215.7"/>
<text text-anchor="start" x="51.5" y="-221.8" font-family="Helvetica,sans-Serif" font-size="11.00" fill="#000000">...</text>
<polygon fill="#ffffff" stroke="transparent" points="48.5,-196.7 48.5,-215.7 121.5,-215.7 121.5,-196.7 48.5,-196.7"/>
<polygon fill="none" stroke="#000000" points="48.5,-196.7 48.5,-215.7 121.5,-215.7 121.5,-196.7 48.5,-196.7"/>
<polygon fill="#ffffff" stroke="transparent" points="49.5,-197.7 49.5,-214.7 59.5,-214.7 59.5,-197.7 49.5,-197.7"/>
<text text-anchor="start" x="51.4431" y="-202.8" font-family="Helvetica,sans-Serif" font-size="11.00" fill="#000000"> &#160;</text>
<polygon fill="#ffffff" stroke="transparent" points="59.5,-197.7 59.5,-214.7 101.5,-214.7 101.5,-197.7 59.5,-197.7"/>
<text text-anchor="start" x="61.2478" y="-202.8" font-family="Helvetica,sans-Serif" font-size="11.00" fill="#000000">29 rows</text>
<polygon fill="#ffffff" stroke="transparent" points="101.5,-197.7 101.5,-214.7 120.5,-214.7 120.5,-197.7 101.5,-197.7"/>
<text text-anchor="start" x="103.2027" y="-202.8" font-family="Helvetica,sans-Serif" font-size="11.00" fill="#000000">2 &gt;</text>
<polygon fill="#000000" stroke="#000000" points="59.5,-197.7 59.5,-214.7 59.5,-214.7 59.5,-197.7 59.5,-197.7"/>
<polygon fill="#000000" stroke="#000000" points="101.5,-197.7 101.5,-214.7 101.5,-214.7 101.5,-197.7 101.5,-197.7"/>
</a>
</g>
</g>
<!-- haushalt&#45;&gt;plz -->
<g id="edge10" class="edge">
<title>haushalt:w&#45;&gt;plz:e</title>
<path fill="none" stroke="#000000" d="M204.6787,-227.3871C178.4325,-225.909 148.6617,-224.7 121.5,-224.7"/>
<polygon fill="#000000" stroke="#000000" points="211.2811,-227.7801 219.053,-231.8491 215.274,-228.0178 219.2669,-228.2555 219.2669,-228.2555 219.2669,-228.2555 215.274,-228.0178 219.4809,-224.6619 211.2811,-227.7801 211.2811,-227.7801"/>
<ellipse fill="none" stroke="#000000" cx="208.0867" cy="-227.5899" rx="3.2" ry="3.2"/>
</g>
<!-- vollmacht -->
<g id="node11" class="node">
<title>vollmacht</title>
<g id="a_node11"><a xlink:href="../../tables/vollmacht.html" xlink:title="vollmacht" target="_top">
<polygon fill="#ffffff" stroke="transparent" points="711.5,-136.2 711.5,-197.2 821.5,-197.2 821.5,-136.2 711.5,-136.2"/>
<polygon fill="#f5f5f5" stroke="transparent" points="711.5,-173.7 711.5,-196.7 821.5,-196.7 821.5,-173.7 711.5,-173.7"/>
<polygon fill="none" stroke="#000000" points="711.5,-173.7 711.5,-196.7 821.5,-196.7 821.5,-173.7 711.5,-173.7"/>
<text text-anchor="start" x="716.5" y="-182.3" font-family="Helvetica,sans-Serif" font-weight="bold" font-size="11.00" fill="#000000">vollmacht</text>
<text text-anchor="start" x="787.0219" y="-181.8" font-family="Helvetica,sans-Serif" font-size="11.00" fill="#000000">[table]</text>
<polygon fill="none" stroke="#000000" points="711.5,-154.7 711.5,-173.7 821.5,-173.7 821.5,-154.7 711.5,-154.7"/>
<text text-anchor="start" x="714.5" y="-160.8" font-family="Helvetica,sans-Serif" font-size="11.00" fill="#000000">...</text>
<polygon fill="#ffffff" stroke="transparent" points="711.5,-135.7 711.5,-154.7 821.5,-154.7 821.5,-135.7 711.5,-135.7"/>
<polygon fill="none" stroke="#000000" points="711.5,-135.7 711.5,-154.7 821.5,-154.7 821.5,-135.7 711.5,-135.7"/>
<polygon fill="#ffffff" stroke="transparent" points="712.5,-136.7 712.5,-153.7 746.5,-153.7 746.5,-136.7 712.5,-136.7"/>
<text text-anchor="start" x="714.5" y="-141.8" font-family="Helvetica,sans-Serif" font-size="11.00" fill="#000000">&lt; 2</text>
<polygon fill="#ffffff" stroke="transparent" points="746.5,-136.7 746.5,-153.7 796.5,-153.7 796.5,-136.7 746.5,-136.7"/>
<text text-anchor="start" x="755.3053" y="-141.8" font-family="Helvetica,sans-Serif" font-size="11.00" fill="#000000">0 rows</text>
<polygon fill="#ffffff" stroke="transparent" points="796.5,-136.7 796.5,-153.7 820.5,-153.7 820.5,-136.7 796.5,-136.7"/>
<text text-anchor="start" x="812.3862" y="-141.8" font-family="Helvetica,sans-Serif" font-size="11.00" fill="#000000"> &#160;</text>
<polygon fill="#000000" stroke="#000000" points="746.5,-136.7 746.5,-153.7 746.5,-153.7 746.5,-136.7 746.5,-136.7"/>
<polygon fill="#000000" stroke="#000000" points="796.5,-136.7 796.5,-153.7 796.5,-153.7 796.5,-136.7 796.5,-136.7"/>
</a>
</g>
</g>
<!-- vollmacht&#45;&gt;familienmitglied -->
<g id="edge12" class="edge">
<title>vollmacht:w&#45;&gt;familienmitglied:e</title>
<path fill="none" stroke="#000000" d="M696.7257,-163.6315C659.2556,-163.2933 619.3586,-161.7502 585.2206,-160.0394"/>
<polygon fill="#000000" stroke="#000000" points="703.5001,-163.6628 711.4833,-167.3 707.5,-163.6814 711.5,-163.7 711.5,-163.7 711.5,-163.7 707.5,-163.6814 711.5167,-160.1 703.5001,-163.6628 703.5001,-163.6628"/>
<ellipse fill="none" stroke="#000000" cx="700.3001" cy="-163.648" rx="3.2" ry="3.2"/>
</g>
<!-- vollmacht&#45;&gt;haushalt -->
<g id="edge13" class="edge">
<title>vollmacht:w&#45;&gt;haushalt:e</title>
<path fill="none" stroke="#000000" d="M697.0311,-164.4501C661.088,-168.3999 649.9769,-186.9353 608,-195.7 514.6012,-215.2014 404.0183,-224.9606 337.6567,-229.4179"/>
<polygon fill="#000000" stroke="#000000" points="703.5107,-164.1143 711.6864,-167.2952 707.5054,-163.9071 711.5,-163.7 711.5,-163.7 711.5,-163.7 707.5054,-163.9071 711.3136,-160.1048 703.5107,-164.1143 703.5107,-164.1143"/>
<ellipse fill="none" stroke="#000000" cx="700.315" cy="-164.28" rx="3.2" ry="3.2"/>
</g>
</g>
</svg>
