<?xml version="1.0" encoding="UTF-8" standalone="no"?>
<!DOCTYPE svg PUBLIC "-//W3C//DTD SVG 1.1//EN"
 "http://www.w3.org/Graphics/SVG/1.1/DTD/svg11.dtd">
<!-- Generated by graphviz version 2.40.1 (20161225.0304)
 -->
<!-- Title: oneDegreeRelationshipsDiagram Pages: 1 -->
<svg width="933pt" height="419pt"
 viewBox="0.00 0.00 933.00 419.25" xmlns="http://www.w3.org/2000/svg" xmlns:xlink="http://www.w3.org/1999/xlink">
<g id="graph0" class="graph" transform="scale(1 1) rotate(0) translate(4 415.2478)">
<title>oneDegreeRelationshipsDiagram</title>
<polygon fill="#ffffff" stroke="transparent" points="-4,4 -4,-415.2478 929,-415.2478 929,4 -4,4"/>
<text text-anchor="middle" x="72.4936" y="-7.3" font-family="Helvetica,sans-Serif" font-size="11.00" fill="#000000">Generated by SchemaSpy</text>
<!-- einkauf -->
<g id="node1" class="node">
<title>einkauf</title>
<g id="a_node1"><a xlink:href="../../tables/einkauf.html" xlink:title="einkauf" target="_top">
<polygon fill="#ffffff" stroke="transparent" points="682,-72.7478 682,-404.7478 917,-404.7478 917,-72.7478 682,-72.7478"/>
<polygon fill="#f5f5f5" stroke="transparent" points="684.5,-379.7478 684.5,-402.7478 915.5,-402.7478 915.5,-379.7478 684.5,-379.7478"/>
<polygon fill="none" stroke="#000000" points="684.5,-379.7478 684.5,-402.7478 915.5,-402.7478 915.5,-379.7478 684.5,-379.7478"/>
<text text-anchor="start" x="689.5" y="-388.3478" font-family="Helvetica,sans-Serif" font-weight="bold" font-size="11.00" fill="#000000">einkauf</text>
<text text-anchor="start" x="880.5437" y="-387.8478" font-family="Helvetica,sans-Serif" font-size="11.00" fill="#000000">[table]</text>
<polygon fill="none" stroke="#000000" points="684.5,-357.7478 684.5,-379.7478 840.5,-379.7478 840.5,-357.7478 684.5,-357.7478"/>
<image xlink:href="../../images/primaryKeys.png" width="11px" height="12px" preserveAspectRatio="xMinYMin meet" x="689.5" y="-374.748"/>
<text text-anchor="start" x="704.5" y="-364.8478" font-family="Helvetica,sans-Serif" font-size="11.00" fill="#000000">einkaufId</text>
<polygon fill="none" stroke="#000000" points="840.5,-357.7478 840.5,-379.7478 915.5,-379.7478 915.5,-357.7478 840.5,-357.7478"/>
<text text-anchor="start" x="843.5" y="-365.4478" font-family="Helvetica,sans-Serif" font-size="11.00" fill="#000000">int[10]</text>
<polygon fill="#ffffff" stroke="transparent" points="684.5,-335.7478 684.5,-357.7478 840.5,-357.7478 840.5,-335.7478 684.5,-335.7478"/>
<polygon fill="none" stroke="#000000" points="684.5,-335.7478 684.5,-357.7478 840.5,-357.7478 840.5,-335.7478 684.5,-335.7478"/>
<image xlink:href="../../images/foreignKeys.png" width="11px" height="12px" preserveAspectRatio="xMinYMin meet" x="689.5" y="-352.748"/>
<text text-anchor="start" x="704.5" y="-342.8478" font-family="Helvetica,sans-Serif" font-size="11.00" fill="#000000">warentyp</text>
<polygon fill="none" stroke="#000000" points="840.5,-335.7478 840.5,-357.7478 915.5,-357.7478 915.5,-335.7478 840.5,-335.7478"/>
<text text-anchor="start" x="843.5" y="-343.4478" font-family="Helvetica,sans-Serif" font-size="11.00" fill="#000000">int[10]</text>
<polygon fill="none" stroke="#000000" points="684.5,-313.7478 684.5,-335.7478 840.5,-335.7478 840.5,-313.7478 684.5,-313.7478"/>
<text text-anchor="start" x="704.5" y="-320.8478" font-family="Helvetica,sans-Serif" font-size="11.00" fill="#000000">storniertAm</text>
<polygon fill="none" stroke="#000000" points="840.5,-313.7478 840.5,-335.7478 915.5,-335.7478 915.5,-313.7478 840.5,-313.7478"/>
<text text-anchor="start" x="843.4666" y="-321.4478" font-family="Helvetica,sans-Serif" font-size="11.00" fill="#000000">timestamp[19]</text>
<polygon fill="none" stroke="#000000" points="684.5,-291.7478 684.5,-313.7478 840.5,-313.7478 840.5,-291.7478 684.5,-291.7478"/>
<text text-anchor="start" x="704.5" y="-298.8478" font-family="Helvetica,sans-Serif" font-size="11.00" fill="#000000">stornoText</text>
<polygon fill="none" stroke="#000000" points="840.5,-291.7478 840.5,-313.7478 915.5,-313.7478 915.5,-291.7478 840.5,-291.7478"/>
<text text-anchor="start" x="843.5" y="-299.4478" font-family="Helvetica,sans-Serif" font-size="11.00" fill="#000000">text[65535]</text>
<polygon fill="none" stroke="#000000" points="684.5,-269.7478 684.5,-291.7478 840.5,-291.7478 840.5,-269.7478 684.5,-269.7478"/>
<text text-anchor="start" x="704.5" y="-276.8478" font-family="Helvetica,sans-Serif" font-size="11.00" fill="#000000">buchungstext</text>
<polygon fill="none" stroke="#000000" points="840.5,-269.7478 840.5,-291.7478 915.5,-291.7478 915.5,-269.7478 840.5,-269.7478"/>
<text text-anchor="start" x="843.5" y="-277.4478" font-family="Helvetica,sans-Serif" font-size="11.00" fill="#000000">text[65535]</text>
<polygon fill="#ffffff" stroke="transparent" points="684.5,-247.7478 684.5,-269.7478 840.5,-269.7478 840.5,-247.7478 684.5,-247.7478"/>
<polygon fill="none" stroke="#000000" points="684.5,-247.7478 684.5,-269.7478 840.5,-269.7478 840.5,-247.7478 684.5,-247.7478"/>
<image xlink:href="../../images/foreignKeys.png" width="11px" height="12px" preserveAspectRatio="xMinYMin meet" x="689.5" y="-264.748"/>
<text text-anchor="start" x="704.5" y="-254.8478" font-family="Helvetica,sans-Serif" font-size="11.00" fill="#000000">kunde</text>
<polygon fill="none" stroke="#000000" points="840.5,-247.7478 840.5,-269.7478 915.5,-269.7478 915.5,-247.7478 840.5,-247.7478"/>
<text text-anchor="start" x="843.5" y="-255.4478" font-family="Helvetica,sans-Serif" font-size="11.00" fill="#000000">int[10]</text>
<polygon fill="#ffffff" stroke="transparent" points="684.5,-225.7478 684.5,-247.7478 840.5,-247.7478 840.5,-225.7478 684.5,-225.7478"/>
<polygon fill="none" stroke="#000000" points="684.5,-225.7478 684.5,-247.7478 840.5,-247.7478 840.5,-225.7478 684.5,-225.7478"/>
<image xlink:href="../../images/foreignKeys.png" width="11px" height="12px" preserveAspectRatio="xMinYMin meet" x="689.5" y="-242.748"/>
<text text-anchor="start" x="704.5" y="-232.8478" font-family="Helvetica,sans-Serif" font-size="11.00" fill="#000000">person</text>
<polygon fill="none" stroke="#000000" points="840.5,-225.7478 840.5,-247.7478 915.5,-247.7478 915.5,-225.7478 840.5,-225.7478"/>
<text text-anchor="start" x="843.5" y="-233.4478" font-family="Helvetica,sans-Serif" font-size="11.00" fill="#000000">int[10]</text>
<polygon fill="none" stroke="#000000" points="684.5,-203.7478 684.5,-225.7478 840.5,-225.7478 840.5,-203.7478 684.5,-203.7478"/>
<text text-anchor="start" x="704.5" y="-210.8478" font-family="Helvetica,sans-Serif" font-size="11.00" fill="#000000">erfassungsZeit</text>
<polygon fill="none" stroke="#000000" points="840.5,-203.7478 840.5,-225.7478 915.5,-225.7478 915.5,-203.7478 840.5,-203.7478"/>
<text text-anchor="start" x="843.4666" y="-211.4478" font-family="Helvetica,sans-Serif" font-size="11.00" fill="#000000">timestamp[19]</text>
<polygon fill="none" stroke="#000000" points="684.5,-181.7478 684.5,-203.7478 840.5,-203.7478 840.5,-181.7478 684.5,-181.7478"/>
<text text-anchor="start" x="704.5" y="-188.8478" font-family="Helvetica,sans-Serif" font-size="11.00" fill="#000000">summeEinkauf</text>
<polygon fill="none" stroke="#000000" points="840.5,-181.7478 840.5,-203.7478 915.5,-203.7478 915.5,-181.7478 840.5,-181.7478"/>
<text text-anchor="start" x="843.5" y="-189.4478" font-family="Helvetica,sans-Serif" font-size="11.00" fill="#000000">float[12]</text>
<polygon fill="none" stroke="#000000" points="684.5,-159.7478 684.5,-181.7478 840.5,-181.7478 840.5,-159.7478 684.5,-159.7478"/>
<text text-anchor="start" x="704.5" y="-166.8478" font-family="Helvetica,sans-Serif" font-size="11.00" fill="#000000">summeZahlung</text>
<polygon fill="none" stroke="#000000" points="840.5,-159.7478 840.5,-181.7478 915.5,-181.7478 915.5,-159.7478 840.5,-159.7478"/>
<text text-anchor="start" x="843.5" y="-167.4478" font-family="Helvetica,sans-Serif" font-size="11.00" fill="#000000">float[12]</text>
<polygon fill="#ffffff" stroke="transparent" points="684.5,-137.7478 684.5,-159.7478 840.5,-159.7478 840.5,-137.7478 684.5,-137.7478"/>
<polygon fill="none" stroke="#000000" points="684.5,-137.7478 684.5,-159.7478 840.5,-159.7478 840.5,-137.7478 684.5,-137.7478"/>
<image xlink:href="../../images/foreignKeys.png" width="11px" height="12px" preserveAspectRatio="xMinYMin meet" x="689.5" y="-154.748"/>
<text text-anchor="start" x="704.5" y="-144.8478" font-family="Helvetica,sans-Serif" font-size="11.00" fill="#000000">beiVerteilstelle</text>
<polygon fill="none" stroke="#000000" points="840.5,-137.7478 840.5,-159.7478 915.5,-159.7478 915.5,-137.7478 840.5,-137.7478"/>
<text text-anchor="start" x="843.5" y="-145.4478" font-family="Helvetica,sans-Serif" font-size="11.00" fill="#000000">int[10]</text>
<polygon fill="none" stroke="#000000" points="684.5,-115.7478 684.5,-137.7478 840.5,-137.7478 840.5,-115.7478 684.5,-115.7478"/>
<text text-anchor="start" x="704.5" y="-122.8478" font-family="Helvetica,sans-Serif" font-size="11.00" fill="#000000">anzahlKinder</text>
<polygon fill="none" stroke="#000000" points="840.5,-115.7478 840.5,-137.7478 915.5,-137.7478 915.5,-115.7478 840.5,-115.7478"/>
<text text-anchor="start" x="843.5" y="-123.4478" font-family="Helvetica,sans-Serif" font-size="11.00" fill="#000000">int[10]</text>
<polygon fill="none" stroke="#000000" points="684.5,-93.7478 684.5,-115.7478 840.5,-115.7478 840.5,-93.7478 684.5,-93.7478"/>
<text text-anchor="start" x="704.5" y="-100.8478" font-family="Helvetica,sans-Serif" font-size="11.00" fill="#000000">anzahlErwachsene</text>
<polygon fill="none" stroke="#000000" points="840.5,-93.7478 840.5,-115.7478 915.5,-115.7478 915.5,-93.7478 840.5,-93.7478"/>
<text text-anchor="start" x="843.5" y="-101.4478" font-family="Helvetica,sans-Serif" font-size="11.00" fill="#000000">int[10]</text>
<polygon fill="#ffffff" stroke="transparent" points="684.5,-74.7478 684.5,-93.7478 915.5,-93.7478 915.5,-74.7478 684.5,-74.7478"/>
<polygon fill="none" stroke="#000000" points="684.5,-74.7478 684.5,-93.7478 915.5,-93.7478 915.5,-74.7478 684.5,-74.7478"/>
<polygon fill="#ffffff" stroke="transparent" points="685.5,-75.7478 685.5,-92.7478 749.5,-92.7478 749.5,-75.7478 685.5,-75.7478"/>
<text text-anchor="start" x="687.5" y="-80.8478" font-family="Helvetica,sans-Serif" font-size="11.00" fill="#000000">&lt; 4</text>
<polygon fill="#ffffff" stroke="transparent" points="749.5,-75.7478 749.5,-92.7478 851.5,-92.7478 851.5,-75.7478 749.5,-75.7478"/>
<text text-anchor="start" x="773.6045" y="-80.8478" font-family="Helvetica,sans-Serif" font-size="11.00" fill="#000000">3,276 rows</text>
<polygon fill="#ffffff" stroke="transparent" points="851.5,-75.7478 851.5,-92.7478 914.5,-92.7478 914.5,-75.7478 851.5,-75.7478"/>
<text text-anchor="start" x="896.9053" y="-80.8478" font-family="Helvetica,sans-Serif" font-size="11.00" fill="#000000">0 &gt;</text>
<polygon fill="#000000" stroke="#000000" points="749.5,-75.7478 749.5,-92.7478 749.5,-92.7478 749.5,-75.7478 749.5,-75.7478"/>
<polygon fill="#000000" stroke="#000000" points="851.5,-75.7478 851.5,-92.7478 851.5,-92.7478 851.5,-75.7478 851.5,-75.7478"/>
<polygon fill="none" stroke="#000000" stroke-width="2" points="683,-73.7478 683,-403.7478 916,-403.7478 916,-73.7478 683,-73.7478"/>
</a>
</g>
</g>
<!-- verteilstelle -->
<g id="node2" class="node">
<title>verteilstelle</title>
<g id="a_node2"><a xlink:href="../../tables/verteilstelle.html" xlink:title="verteilstelle" target="_top">
<polygon fill="#ffffff" stroke="transparent" points="8,-78.2478 8,-161.2478 140,-161.2478 140,-78.2478 8,-78.2478"/>
<polygon fill="#f5f5f5" stroke="transparent" points="8,-137.7478 8,-160.7478 140,-160.7478 140,-137.7478 8,-137.7478"/>
<polygon fill="none" stroke="#000000" points="8,-137.7478 8,-160.7478 140,-160.7478 140,-137.7478 8,-137.7478"/>
<text text-anchor="start" x="13" y="-146.3478" font-family="Helvetica,sans-Serif" font-weight="bold" font-size="11.00" fill="#000000">verteilstelle</text>
<text text-anchor="start" x="105.0437" y="-145.8478" font-family="Helvetica,sans-Serif" font-size="11.00" fill="#000000">[table]</text>
<polygon fill="none" stroke="#000000" points="8,-115.7478 8,-137.7478 140,-137.7478 140,-115.7478 8,-115.7478"/>
<image xlink:href="../../images/primaryKeys.png" width="11px" height="12px" preserveAspectRatio="xMinYMin meet" x="13" y="-132.748"/>
<text text-anchor="start" x="28" y="-122.8478" font-family="Helvetica,sans-Serif" font-size="11.00" fill="#000000">verteilstellenId</text>
<polygon fill="none" stroke="#000000" points="8,-96.7478 8,-115.7478 140,-115.7478 140,-96.7478 8,-96.7478"/>
<text text-anchor="start" x="11" y="-102.8478" font-family="Helvetica,sans-Serif" font-size="11.00" fill="#000000">...</text>
<polygon fill="#ffffff" stroke="transparent" points="8,-77.7478 8,-96.7478 140,-96.7478 140,-77.7478 8,-77.7478"/>
<polygon fill="none" stroke="#000000" points="8,-77.7478 8,-96.7478 140,-96.7478 140,-77.7478 8,-77.7478"/>
<polygon fill="#ffffff" stroke="transparent" points="9,-78.7478 9,-95.7478 41,-95.7478 41,-78.7478 9,-78.7478"/>
<text text-anchor="start" x="11" y="-83.8478" font-family="Helvetica,sans-Serif" font-size="11.00" fill="#000000"> &#160;</text>
<polygon fill="#ffffff" stroke="transparent" points="41,-78.7478 41,-95.7478 99,-95.7478 99,-78.7478 41,-78.7478"/>
<text text-anchor="start" x="53.8053" y="-83.8478" font-family="Helvetica,sans-Serif" font-size="11.00" fill="#000000">0 rows</text>
<polygon fill="#ffffff" stroke="transparent" points="99,-78.7478 99,-95.7478 139,-95.7478 139,-78.7478 99,-78.7478"/>
<text text-anchor="start" x="121.4053" y="-83.8478" font-family="Helvetica,sans-Serif" font-size="11.00" fill="#000000">2 &gt;</text>
<polygon fill="#000000" stroke="#000000" points="41,-78.7478 41,-95.7478 41,-95.7478 41,-78.7478 41,-78.7478"/>
<polygon fill="#000000" stroke="#000000" points="99,-78.7478 99,-95.7478 99,-95.7478 99,-78.7478 99,-78.7478"/>
</a>
</g>
</g>
<!-- einkauf&#45;&gt;verteilstelle -->
<g id="edge1" class="edge">
<title>einkauf:w&#45;&gt;verteilstelle:e</title>
<path fill="none" stroke="#000000" d="M670.5518,-144.2012C657.9137,-133.0692 663.3541,-104.5684 641,-93.7478 456.9808,-4.6721 373.819,-25.7891 181,-93.7478 158.9387,-101.5233 163.3915,-126.7478 140,-126.7478"/>
<polygon fill="#000000" stroke="#000000" points="676.8939,-146.2684 683.3843,-152.1705 680.6969,-147.5081 684.5,-148.7478 684.5,-148.7478 684.5,-148.7478 680.6969,-147.5081 685.6157,-145.325 676.8939,-146.2684 676.8939,-146.2684"/>
<ellipse fill="none" stroke="#000000" cx="673.8514" cy="-145.2767" rx="3.2" ry="3.2"/>
</g>
<!-- haushalt -->
<g id="node3" class="node">
<title>haushalt</title>
<g id="a_node3"><a xlink:href="../../tables/haushalt.html" xlink:title="haushalt" target="_top">
<polygon fill="#ffffff" stroke="transparent" points="189,-104.2478 189,-253.2478 380,-253.2478 380,-104.2478 189,-104.2478"/>
<polygon fill="#f5f5f5" stroke="transparent" points="189.5,-229.7478 189.5,-252.7478 380.5,-252.7478 380.5,-229.7478 189.5,-229.7478"/>
<polygon fill="none" stroke="#000000" points="189.5,-229.7478 189.5,-252.7478 380.5,-252.7478 380.5,-229.7478 189.5,-229.7478"/>
<text text-anchor="start" x="194.5" y="-238.3478" font-family="Helvetica,sans-Serif" font-weight="bold" font-size="11.00" fill="#000000">haushalt</text>
<text text-anchor="start" x="345.5437" y="-237.8478" font-family="Helvetica,sans-Serif" font-size="11.00" fill="#000000">[table]</text>
<polygon fill="none" stroke="#000000" points="189.5,-207.7478 189.5,-229.7478 380.5,-229.7478 380.5,-207.7478 189.5,-207.7478"/>
<image xlink:href="../../images/primaryKeys.png" width="11px" height="12px" preserveAspectRatio="xMinYMin meet" x="194.5" y="-224.748"/>
<text text-anchor="start" x="209.5" y="-214.8478" font-family="Helvetica,sans-Serif" font-size="11.00" fill="#000000">kundennummer</text>
<polygon fill="#ffffff" stroke="transparent" points="189.5,-185.7478 189.5,-207.7478 380.5,-207.7478 380.5,-185.7478 189.5,-185.7478"/>
<polygon fill="none" stroke="#000000" points="189.5,-185.7478 189.5,-207.7478 380.5,-207.7478 380.5,-185.7478 189.5,-185.7478"/>
<image xlink:href="../../images/foreignKeys.png" width="11px" height="12px" preserveAspectRatio="xMinYMin meet" x="194.5" y="-202.748"/>
<text text-anchor="start" x="209.5" y="-192.8478" font-family="Helvetica,sans-Serif" font-size="11.00" fill="#000000">plz</text>
<polygon fill="#ffffff" stroke="transparent" points="189.5,-163.7478 189.5,-185.7478 380.5,-185.7478 380.5,-163.7478 189.5,-163.7478"/>
<polygon fill="none" stroke="#000000" points="189.5,-163.7478 189.5,-185.7478 380.5,-185.7478 380.5,-163.7478 189.5,-163.7478"/>
<image xlink:href="../../images/foreignKeys.png" width="11px" height="12px" preserveAspectRatio="xMinYMin meet" x="194.5" y="-180.748"/>
<text text-anchor="start" x="209.5" y="-170.8478" font-family="Helvetica,sans-Serif" font-size="11.00" fill="#000000">verteilstellenId</text>
<polygon fill="#ffffff" stroke="transparent" points="189.5,-141.7478 189.5,-163.7478 380.5,-163.7478 380.5,-141.7478 189.5,-141.7478"/>
<polygon fill="none" stroke="#000000" points="189.5,-141.7478 189.5,-163.7478 380.5,-163.7478 380.5,-141.7478 189.5,-141.7478"/>
<image xlink:href="../../images/foreignKeys.png" width="11px" height="12px" preserveAspectRatio="xMinYMin meet" x="194.5" y="-158.748"/>
<text text-anchor="start" x="209.5" y="-148.8478" font-family="Helvetica,sans-Serif" font-size="11.00" fill="#000000">ausgabeGruppeId</text>
<polygon fill="none" stroke="#000000" points="189.5,-122.7478 189.5,-141.7478 380.5,-141.7478 380.5,-122.7478 189.5,-122.7478"/>
<text text-anchor="start" x="192.5" y="-128.8478" font-family="Helvetica,sans-Serif" font-size="11.00" fill="#000000">...</text>
<polygon fill="#ffffff" stroke="transparent" points="189.5,-103.7478 189.5,-122.7478 380.5,-122.7478 380.5,-103.7478 189.5,-103.7478"/>
<polygon fill="none" stroke="#000000" points="189.5,-103.7478 189.5,-122.7478 380.5,-122.7478 380.5,-103.7478 189.5,-103.7478"/>
<polygon fill="#ffffff" stroke="transparent" points="190.5,-104.7478 190.5,-121.7478 244.5,-121.7478 244.5,-104.7478 190.5,-104.7478"/>
<text text-anchor="start" x="192.5" y="-109.8478" font-family="Helvetica,sans-Serif" font-size="11.00" fill="#000000">&lt; 3</text>
<polygon fill="#ffffff" stroke="transparent" points="244.5,-104.7478 244.5,-121.7478 326.5,-121.7478 326.5,-104.7478 244.5,-104.7478"/>
<text text-anchor="start" x="263.1904" y="-109.8478" font-family="Helvetica,sans-Serif" font-size="11.00" fill="#000000">639 rows</text>
<polygon fill="#ffffff" stroke="transparent" points="326.5,-104.7478 326.5,-121.7478 379.5,-121.7478 379.5,-104.7478 326.5,-104.7478"/>
<text text-anchor="start" x="361.9053" y="-109.8478" font-family="Helvetica,sans-Serif" font-size="11.00" fill="#000000">3 &gt;</text>
<polygon fill="#000000" stroke="#000000" points="244.5,-104.7478 244.5,-121.7478 244.5,-121.7478 244.5,-104.7478 244.5,-104.7478"/>
<polygon fill="#000000" stroke="#000000" points="326.5,-104.7478 326.5,-121.7478 326.5,-121.7478 326.5,-104.7478 326.5,-104.7478"/>
</a>
</g>
</g>
<!-- einkauf&#45;&gt;haushalt -->
<g id="edge2" class="edge">
<title>einkauf:w&#45;&gt;haushalt:e</title>
<path fill="none" stroke="#000000" d="M670.0084,-259.6419C660.8542,-260.8589 654.5091,-262.974 641,-263.7478 543.3822,-269.3396 510.32,-303.5276 421,-263.7478 396.4202,-252.8009 407.4072,-218.7478 380.5,-218.7478"/>
<polygon fill="#000000" stroke="#000000" points="676.5152,-259.2405 684.7217,-262.341 680.5076,-258.9942 684.5,-258.7478 684.5,-258.7478 684.5,-258.7478 680.5076,-258.9942 684.2783,-255.1546 676.5152,-259.2405 676.5152,-259.2405"/>
<ellipse fill="none" stroke="#000000" cx="673.3213" cy="-259.4376" rx="3.2" ry="3.2"/>
</g>
<!-- familienmitglied -->
<g id="node4" class="node">
<title>familienmitglied</title>
<g id="a_node4"><a xlink:href="../../tables/familienmitglied.html" xlink:title="familienmitglied" target="_top">
<polygon fill="#ffffff" stroke="transparent" points="445,-104.2478 445,-253.2478 617,-253.2478 617,-104.2478 445,-104.2478"/>
<polygon fill="#f5f5f5" stroke="transparent" points="445,-229.7478 445,-252.7478 617,-252.7478 617,-229.7478 445,-229.7478"/>
<polygon fill="none" stroke="#000000" points="445,-229.7478 445,-252.7478 617,-252.7478 617,-229.7478 445,-229.7478"/>
<text text-anchor="start" x="450" y="-238.3478" font-family="Helvetica,sans-Serif" font-weight="bold" font-size="11.00" fill="#000000">familienmitglied</text>
<text text-anchor="start" x="582.0437" y="-237.8478" font-family="Helvetica,sans-Serif" font-size="11.00" fill="#000000">[table]</text>
<polygon fill="none" stroke="#000000" points="445,-207.7478 445,-229.7478 617,-229.7478 617,-207.7478 445,-207.7478"/>
<image xlink:href="../../images/primaryKeys.png" width="11px" height="12px" preserveAspectRatio="xMinYMin meet" x="450" y="-224.748"/>
<text text-anchor="start" x="465" y="-214.8478" font-family="Helvetica,sans-Serif" font-size="11.00" fill="#000000">personId</text>
<polygon fill="#ffffff" stroke="transparent" points="445,-185.7478 445,-207.7478 617,-207.7478 617,-185.7478 445,-185.7478"/>
<polygon fill="none" stroke="#000000" points="445,-185.7478 445,-207.7478 617,-207.7478 617,-185.7478 445,-185.7478"/>
<image xlink:href="../../images/foreignKeys.png" width="11px" height="12px" preserveAspectRatio="xMinYMin meet" x="450" y="-202.748"/>
<text text-anchor="start" x="465" y="-192.8478" font-family="Helvetica,sans-Serif" font-size="11.00" fill="#000000">haushaltId</text>
<polygon fill="#ffffff" stroke="transparent" points="445,-163.7478 445,-185.7478 617,-185.7478 617,-163.7478 445,-163.7478"/>
<polygon fill="none" stroke="#000000" points="445,-163.7478 445,-185.7478 617,-185.7478 617,-163.7478 445,-163.7478"/>
<image xlink:href="../../images/foreignKeys.png" width="11px" height="12px" preserveAspectRatio="xMinYMin meet" x="450" y="-180.748"/>
<text text-anchor="start" x="465" y="-170.8478" font-family="Helvetica,sans-Serif" font-size="11.00" fill="#000000">nation</text>
<polygon fill="#ffffff" stroke="transparent" points="445,-141.7478 445,-163.7478 617,-163.7478 617,-141.7478 445,-141.7478"/>
<polygon fill="none" stroke="#000000" points="445,-141.7478 445,-163.7478 617,-163.7478 617,-141.7478 445,-141.7478"/>
<image xlink:href="../../images/foreignKeys.png" width="11px" height="12px" preserveAspectRatio="xMinYMin meet" x="450" y="-158.748"/>
<text text-anchor="start" x="465" y="-148.8478" font-family="Helvetica,sans-Serif" font-size="11.00" fill="#000000">berechtigungId</text>
<polygon fill="none" stroke="#000000" points="445,-122.7478 445,-141.7478 617,-141.7478 617,-122.7478 445,-122.7478"/>
<text text-anchor="start" x="448" y="-128.8478" font-family="Helvetica,sans-Serif" font-size="11.00" fill="#000000">...</text>
<polygon fill="#ffffff" stroke="transparent" points="445,-103.7478 445,-122.7478 617,-122.7478 617,-103.7478 445,-103.7478"/>
<polygon fill="none" stroke="#000000" points="445,-103.7478 445,-122.7478 617,-122.7478 617,-103.7478 445,-103.7478"/>
<polygon fill="#ffffff" stroke="transparent" points="446,-104.7478 446,-121.7478 490,-121.7478 490,-104.7478 446,-104.7478"/>
<text text-anchor="start" x="448" y="-109.8478" font-family="Helvetica,sans-Serif" font-size="11.00" fill="#000000">&lt; 3</text>
<polygon fill="#ffffff" stroke="transparent" points="490,-104.7478 490,-121.7478 572,-121.7478 572,-104.7478 490,-104.7478"/>
<text text-anchor="start" x="504.1045" y="-109.8478" font-family="Helvetica,sans-Serif" font-size="11.00" fill="#000000">1,525 rows</text>
<polygon fill="#ffffff" stroke="transparent" points="572,-104.7478 572,-121.7478 616,-121.7478 616,-104.7478 572,-104.7478"/>
<text text-anchor="start" x="598.4053" y="-109.8478" font-family="Helvetica,sans-Serif" font-size="11.00" fill="#000000">3 &gt;</text>
<polygon fill="#000000" stroke="#000000" points="490,-104.7478 490,-121.7478 490,-121.7478 490,-104.7478 490,-104.7478"/>
<polygon fill="#000000" stroke="#000000" points="572,-104.7478 572,-121.7478 572,-121.7478 572,-104.7478 572,-104.7478"/>
</a>
</g>
</g>
<!-- einkauf&#45;&gt;familienmitglied -->
<g id="edge3" class="edge">
<title>einkauf:w&#45;&gt;familienmitglied:e</title>
<path fill="none" stroke="#000000" d="M669.9495,-235.2131C650.6818,-230.8602 642.4693,-218.7478 617,-218.7478"/>
<polygon fill="#000000" stroke="#000000" points="676.5441,-235.9086 684.1224,-240.3279 680.5221,-236.3282 684.5,-236.7478 684.5,-236.7478 684.5,-236.7478 680.5221,-236.3282 684.8776,-233.1676 676.5441,-235.9086 676.5441,-235.9086"/>
<ellipse fill="none" stroke="#000000" cx="673.3618" cy="-235.573" rx="3.2" ry="3.2"/>
</g>
<!-- warentyp -->
<g id="node5" class="node">
<title>warentyp</title>
<g id="a_node5"><a xlink:href="../../tables/warentyp.html" xlink:title="warentyp" target="_top">
<polygon fill="#ffffff" stroke="transparent" points="429,-302.2478 429,-407.2478 633,-407.2478 633,-302.2478 429,-302.2478"/>
<polygon fill="#f5f5f5" stroke="transparent" points="429,-383.7478 429,-406.7478 633,-406.7478 633,-383.7478 429,-383.7478"/>
<polygon fill="none" stroke="#000000" points="429,-383.7478 429,-406.7478 633,-406.7478 633,-383.7478 429,-383.7478"/>
<text text-anchor="start" x="434" y="-392.3478" font-family="Helvetica,sans-Serif" font-weight="bold" font-size="11.00" fill="#000000">warentyp</text>
<text text-anchor="start" x="598.0437" y="-391.8478" font-family="Helvetica,sans-Serif" font-size="11.00" fill="#000000">[table]</text>
<polygon fill="none" stroke="#000000" points="429,-361.7478 429,-383.7478 633,-383.7478 633,-361.7478 429,-361.7478"/>
<image xlink:href="../../images/primaryKeys.png" width="11px" height="12px" preserveAspectRatio="xMinYMin meet" x="434" y="-378.748"/>
<text text-anchor="start" x="449" y="-368.8478" font-family="Helvetica,sans-Serif" font-size="11.00" fill="#000000">warentypId</text>
<polygon fill="#ffffff" stroke="transparent" points="429,-339.7478 429,-361.7478 633,-361.7478 633,-339.7478 429,-339.7478"/>
<polygon fill="none" stroke="#000000" points="429,-339.7478 429,-361.7478 633,-361.7478 633,-339.7478 429,-339.7478"/>
<image xlink:href="../../images/foreignKeys.png" width="11px" height="12px" preserveAspectRatio="xMinYMin meet" x="434" y="-356.748"/>
<text text-anchor="start" x="449" y="-346.8478" font-family="Helvetica,sans-Serif" font-size="11.00" fill="#000000">naechsterwarentypid</text>
<polygon fill="none" stroke="#000000" points="429,-320.7478 429,-339.7478 633,-339.7478 633,-320.7478 429,-320.7478"/>
<text text-anchor="start" x="432" y="-326.8478" font-family="Helvetica,sans-Serif" font-size="11.00" fill="#000000">...</text>
<polygon fill="#ffffff" stroke="transparent" points="429,-301.7478 429,-320.7478 633,-320.7478 633,-301.7478 429,-301.7478"/>
<polygon fill="none" stroke="#000000" points="429,-301.7478 429,-320.7478 633,-320.7478 633,-301.7478 429,-301.7478"/>
<polygon fill="#ffffff" stroke="transparent" points="430,-302.7478 430,-319.7478 492,-319.7478 492,-302.7478 430,-302.7478"/>
<text text-anchor="start" x="432" y="-307.8478" font-family="Helvetica,sans-Serif" font-size="11.00" fill="#000000">&lt; 1</text>
<polygon fill="#ffffff" stroke="transparent" points="492,-302.7478 492,-319.7478 571,-319.7478 571,-302.7478 492,-302.7478"/>
<text text-anchor="start" x="515.3053" y="-307.8478" font-family="Helvetica,sans-Serif" font-size="11.00" fill="#000000">2 rows</text>
<polygon fill="#ffffff" stroke="transparent" points="571,-302.7478 571,-319.7478 632,-319.7478 632,-302.7478 571,-302.7478"/>
<text text-anchor="start" x="614.4053" y="-307.8478" font-family="Helvetica,sans-Serif" font-size="11.00" fill="#000000">2 &gt;</text>
<polygon fill="#000000" stroke="#000000" points="492,-302.7478 492,-319.7478 492,-319.7478 492,-302.7478 492,-302.7478"/>
<polygon fill="#000000" stroke="#000000" points="571,-302.7478 571,-319.7478 571,-319.7478 571,-302.7478 571,-302.7478"/>
</a>
</g>
</g>
<!-- einkauf&#45;&gt;warentyp -->
<g id="edge4" class="edge">
<title>einkauf:w&#45;&gt;warentyp:e</title>
<path fill="none" stroke="#000000" d="M670.3959,-350.1468C657.4554,-357.1944 652.8313,-372.7478 633,-372.7478"/>
<polygon fill="#000000" stroke="#000000" points="676.7227,-348.6221 685.3435,-350.2476 680.6113,-347.685 684.5,-346.7478 684.5,-346.7478 684.5,-346.7478 680.6113,-347.685 683.6565,-343.248 676.7227,-348.6221 676.7227,-348.6221"/>
<ellipse fill="none" stroke="#000000" cx="673.6117" cy="-349.3719" rx="3.2" ry="3.2"/>
</g>
<!-- haushalt&#45;&gt;verteilstelle -->
<g id="edge6" class="edge">
<title>haushalt:w&#45;&gt;verteilstelle:e</title>
<path fill="none" stroke="#000000" d="M175.7679,-169.9699C161.8417,-157.8288 164.6596,-126.7478 140,-126.7478"/>
<polygon fill="#000000" stroke="#000000" points="181.9443,-172.1188 188.317,-178.1479 185.7221,-173.4333 189.5,-174.7478 189.5,-174.7478 189.5,-174.7478 185.7221,-173.4333 190.683,-171.3477 181.9443,-172.1188 181.9443,-172.1188"/>
<ellipse fill="none" stroke="#000000" cx="178.922" cy="-171.0672" rx="3.2" ry="3.2"/>
</g>
<!-- familienmitglied&#45;&gt;haushalt -->
<g id="edge5" class="edge">
<title>familienmitglied:w&#45;&gt;haushalt:e</title>
<path fill="none" stroke="#000000" d="M430.6575,-198.7001C412.3824,-204.0844 405.2276,-218.7478 380.5,-218.7478"/>
<polygon fill="#000000" stroke="#000000" points="437.0731,-197.8269 445.4856,-200.3149 441.0366,-197.2873 445,-196.7478 445,-196.7478 445,-196.7478 441.0366,-197.2873 444.5144,-193.1807 437.0731,-197.8269 437.0731,-197.8269"/>
<ellipse fill="none" stroke="#000000" cx="433.9023" cy="-198.2585" rx="3.2" ry="3.2"/>
</g>
</g>
</svg>
