<?xml version="1.0" encoding="UTF-8" standalone="no"?>
<!DOCTYPE svg PUBLIC "-//W3C//DTD SVG 1.1//EN"
 "http://www.w3.org/Graphics/SVG/1.1/DTD/svg11.dtd">
<!-- Generated by graphviz version 2.40.1 (20161225.0304)
 -->
<!-- Title: oneDegreeRelationshipsDiagram Pages: 1 -->
<svg width="323pt" height="294pt"
 viewBox="0.00 0.00 323.00 294.20" xmlns="http://www.w3.org/2000/svg" xmlns:xlink="http://www.w3.org/1999/xlink">
<g id="graph0" class="graph" transform="scale(1 1) rotate(0) translate(4 290.2)">
<title>oneDegreeRelationshipsDiagram</title>
<polygon fill="#ffffff" stroke="transparent" points="-4,4 -4,-290.2 319,-290.2 319,4 -4,4"/>
<text text-anchor="middle" x="72.4936" y="-7.3" font-family="Helvetica,sans-Serif" font-size="11.00" fill="#000000">Generated by SchemaSpy</text>
<!-- einstellungen -->
<g id="node1" class="node">
<title>einstellungen</title>
<g id="a_node1"><a xlink:href="../../tables/einstellungen.html" xlink:title="einstellungen" target="_top">
<polygon fill="#ffffff" stroke="transparent" points="8,-38.2 8,-282.2 307,-282.2 307,-38.2 8,-38.2"/>
<polygon fill="#f5f5f5" stroke="transparent" points="10.5,-257.2 10.5,-280.2 305.5,-280.2 305.5,-257.2 10.5,-257.2"/>
<polygon fill="none" stroke="#000000" points="10.5,-257.2 10.5,-280.2 305.5,-280.2 305.5,-257.2 10.5,-257.2"/>
<text text-anchor="start" x="15.5" y="-265.8" font-family="Helvetica,sans-Serif" font-weight="bold" font-size="11.00" fill="#000000">einstellungen</text>
<text text-anchor="start" x="270.5437" y="-265.3" font-family="Helvetica,sans-Serif" font-size="11.00" fill="#000000">[table]</text>
<polygon fill="none" stroke="#000000" points="10.5,-235.2 10.5,-257.2 238.5,-257.2 238.5,-235.2 10.5,-235.2"/>
<image xlink:href="../../images/primaryKeys.png" width="11px" height="12px" preserveAspectRatio="xMinYMin meet" x="15.5" y="-252.2"/>
<text text-anchor="start" x="30.5" y="-242.3" font-family="Helvetica,sans-Serif" font-size="11.00" fill="#000000">initialID</text>
<polygon fill="none" stroke="#000000" points="238.5,-235.2 238.5,-257.2 305.5,-257.2 305.5,-235.2 238.5,-235.2"/>
<text text-anchor="start" x="241.5" y="-242.9" font-family="Helvetica,sans-Serif" font-size="11.00" fill="#000000">int[10]</text>
<polygon fill="none" stroke="#000000" points="10.5,-213.2 10.5,-235.2 238.5,-235.2 238.5,-213.2 10.5,-213.2"/>
<text text-anchor="start" x="30.5" y="-220.3" font-family="Helvetica,sans-Serif" font-size="11.00" fill="#000000">kundenarchivieren</text>
<polygon fill="none" stroke="#000000" points="238.5,-213.2 238.5,-235.2 305.5,-235.2 305.5,-213.2 238.5,-213.2"/>
<text text-anchor="start" x="241.5" y="-220.9" font-family="Helvetica,sans-Serif" font-size="11.00" fill="#000000">int[10]</text>
<polygon fill="none" stroke="#000000" points="10.5,-191.2 10.5,-213.2 238.5,-213.2 238.5,-191.2 10.5,-191.2"/>
<text text-anchor="start" x="30.5" y="-198.3" font-family="Helvetica,sans-Serif" font-size="11.00" fill="#000000">gebuehrErwachsener</text>
<polygon fill="none" stroke="#000000" points="238.5,-191.2 238.5,-213.2 305.5,-213.2 305.5,-191.2 238.5,-191.2"/>
<text text-anchor="start" x="241.5" y="-198.9" font-family="Helvetica,sans-Serif" font-size="11.00" fill="#000000">int[10]</text>
<polygon fill="none" stroke="#000000" points="10.5,-169.2 10.5,-191.2 238.5,-191.2 238.5,-169.2 10.5,-169.2"/>
<text text-anchor="start" x="30.5" y="-176.3" font-family="Helvetica,sans-Serif" font-size="11.00" fill="#000000">alterErwachsener</text>
<polygon fill="none" stroke="#000000" points="238.5,-169.2 238.5,-191.2 305.5,-191.2 305.5,-169.2 238.5,-169.2"/>
<text text-anchor="start" x="241.5" y="-176.9" font-family="Helvetica,sans-Serif" font-size="11.00" fill="#000000">int[10]</text>
<polygon fill="none" stroke="#000000" points="10.5,-147.2 10.5,-169.2 238.5,-169.2 238.5,-147.2 10.5,-147.2"/>
<text text-anchor="start" x="30.5" y="-154.3" font-family="Helvetica,sans-Serif" font-size="11.00" fill="#000000">alterBescheid</text>
<polygon fill="none" stroke="#000000" points="238.5,-147.2 238.5,-169.2 305.5,-169.2 305.5,-147.2 238.5,-147.2"/>
<text text-anchor="start" x="241.5" y="-154.9" font-family="Helvetica,sans-Serif" font-size="11.00" fill="#000000">int[10]</text>
<polygon fill="none" stroke="#000000" points="10.5,-125.2 10.5,-147.2 238.5,-147.2 238.5,-125.2 10.5,-125.2"/>
<text text-anchor="start" x="30.5" y="-132.3" font-family="Helvetica,sans-Serif" font-size="11.00" fill="#000000">bescheidBenoetigt</text>
<polygon fill="none" stroke="#000000" points="238.5,-125.2 238.5,-147.2 305.5,-147.2 305.5,-125.2 238.5,-125.2"/>
<text text-anchor="start" x="241.5" y="-132.9" font-family="Helvetica,sans-Serif" font-size="11.00" fill="#000000">bit[1]</text>
<polygon fill="none" stroke="#000000" points="10.5,-103.2 10.5,-125.2 238.5,-125.2 238.5,-103.2 10.5,-103.2"/>
<text text-anchor="start" x="30.5" y="-110.3" font-family="Helvetica,sans-Serif" font-size="11.00" fill="#000000">datenschutzerklaerung</text>
<polygon fill="none" stroke="#000000" points="238.5,-103.2 238.5,-125.2 305.5,-125.2 305.5,-103.2 238.5,-103.2"/>
<text text-anchor="start" x="241.5" y="-110.9" font-family="Helvetica,sans-Serif" font-size="11.00" fill="#000000">bit[1]</text>
<polygon fill="none" stroke="#000000" points="10.5,-81.2 10.5,-103.2 238.5,-103.2 238.5,-81.2 10.5,-81.2"/>
<text text-anchor="start" x="30.5" y="-88.3" font-family="Helvetica,sans-Serif" font-size="11.00" fill="#000000">verteilstellenzugehoerigkeit</text>
<polygon fill="none" stroke="#000000" points="238.5,-81.2 238.5,-103.2 305.5,-103.2 305.5,-81.2 238.5,-81.2"/>
<text text-anchor="start" x="241.5" y="-88.9" font-family="Helvetica,sans-Serif" font-size="11.00" fill="#000000">bit[1]</text>
<polygon fill="none" stroke="#000000" points="10.5,-59.2 10.5,-81.2 238.5,-81.2 238.5,-59.2 10.5,-59.2"/>
<text text-anchor="start" x="30.5" y="-66.3" font-family="Helvetica,sans-Serif" font-size="11.00" fill="#000000">tafel_server_host</text>
<polygon fill="none" stroke="#000000" points="238.5,-59.2 238.5,-81.2 305.5,-81.2 305.5,-59.2 238.5,-59.2"/>
<text text-anchor="start" x="241.4365" y="-66.9" font-family="Helvetica,sans-Serif" font-size="11.00" fill="#000000">varchar[255]</text>
<polygon fill="#ffffff" stroke="transparent" points="10.5,-40.2 10.5,-59.2 305.5,-59.2 305.5,-40.2 10.5,-40.2"/>
<polygon fill="none" stroke="#000000" points="10.5,-40.2 10.5,-59.2 305.5,-59.2 305.5,-40.2 10.5,-40.2"/>
<polygon fill="#ffffff" stroke="transparent" points="11.5,-41.2 11.5,-58.2 103.5,-58.2 103.5,-41.2 11.5,-41.2"/>
<text text-anchor="start" x="13.5" y="-46.3" font-family="Helvetica,sans-Serif" font-size="11.00" fill="#000000">&lt; 0</text>
<polygon fill="#ffffff" stroke="transparent" points="103.5,-41.2 103.5,-58.2 212.5,-58.2 212.5,-41.2 103.5,-41.2"/>
<text text-anchor="start" x="141.8053" y="-46.3" font-family="Helvetica,sans-Serif" font-size="11.00" fill="#000000">0 rows</text>
<polygon fill="#ffffff" stroke="transparent" points="212.5,-41.2 212.5,-58.2 304.5,-58.2 304.5,-41.2 212.5,-41.2"/>
<text text-anchor="start" x="286.9053" y="-46.3" font-family="Helvetica,sans-Serif" font-size="11.00" fill="#000000">0 &gt;</text>
<polygon fill="#000000" stroke="#000000" points="103.5,-41.2 103.5,-58.2 103.5,-58.2 103.5,-41.2 103.5,-41.2"/>
<polygon fill="#000000" stroke="#000000" points="212.5,-41.2 212.5,-58.2 212.5,-58.2 212.5,-41.2 212.5,-41.2"/>
<polygon fill="none" stroke="#000000" stroke-width="2" points="9,-39.2 9,-281.2 306,-281.2 306,-39.2 9,-39.2"/>
</a>
</g>
</g>
</g>
</svg>
