<?xml version="1.0" encoding="UTF-8" standalone="no"?>
<!DOCTYPE svg PUBLIC "-//W3C//DTD SVG 1.1//EN"
 "http://www.w3.org/Graphics/SVG/1.1/DTD/svg11.dtd">
<!-- Generated by graphviz version 2.40.1 (20161225.0304)
 -->
<!-- Title: twoDegreesRelationshipsDiagram Pages: 1 -->
<svg width="833pt" height="784pt"
 viewBox="0.00 0.00 833.00 784.37" xmlns="http://www.w3.org/2000/svg" xmlns:xlink="http://www.w3.org/1999/xlink">
<g id="graph0" class="graph" transform="scale(1 1) rotate(0) translate(4 780.3749)">
<title>twoDegreesRelationshipsDiagram</title>
<polygon fill="#ffffff" stroke="transparent" points="-4,4 -4,-780.3749 829,-780.3749 829,4 -4,4"/>
<text text-anchor="middle" x="72.4936" y="-7.3" font-family="Helvetica,sans-Serif" font-size="11.00" fill="#000000">Generated by SchemaSpy</text>
<!-- bescheid -->
<g id="node1" class="node">
<title>bescheid</title>
<g id="a_node1"><a xlink:href="../../tables/bescheid.html" xlink:title="bescheid" target="_top">
<polygon fill="#ffffff" stroke="transparent" points="696,-645.3749 696,-772.3749 817,-772.3749 817,-645.3749 696,-645.3749"/>
<polygon fill="#f5f5f5" stroke="transparent" points="696.5,-748.8749 696.5,-771.8749 817.5,-771.8749 817.5,-748.8749 696.5,-748.8749"/>
<polygon fill="none" stroke="#000000" points="696.5,-748.8749 696.5,-771.8749 817.5,-771.8749 817.5,-748.8749 696.5,-748.8749"/>
<text text-anchor="start" x="701.5" y="-757.4749" font-family="Helvetica,sans-Serif" font-weight="bold" font-size="11.00" fill="#000000">bescheid</text>
<text text-anchor="start" x="782.5437" y="-756.9749" font-family="Helvetica,sans-Serif" font-size="11.00" fill="#000000">[table]</text>
<polygon fill="none" stroke="#000000" points="696.5,-726.8749 696.5,-748.8749 817.5,-748.8749 817.5,-726.8749 696.5,-726.8749"/>
<image xlink:href="../../images/primaryKeys.png" width="11px" height="12px" preserveAspectRatio="xMinYMin meet" x="701.5" y="-743.875"/>
<text text-anchor="start" x="716.5" y="-733.9749" font-family="Helvetica,sans-Serif" font-size="11.00" fill="#000000">bescheidId</text>
<polygon fill="#ffffff" stroke="transparent" points="696.5,-704.8749 696.5,-726.8749 817.5,-726.8749 817.5,-704.8749 696.5,-704.8749"/>
<polygon fill="none" stroke="#000000" points="696.5,-704.8749 696.5,-726.8749 817.5,-726.8749 817.5,-704.8749 696.5,-704.8749"/>
<image xlink:href="../../images/foreignKeys.png" width="11px" height="12px" preserveAspectRatio="xMinYMin meet" x="701.5" y="-721.875"/>
<text text-anchor="start" x="716.5" y="-711.9749" font-family="Helvetica,sans-Serif" font-size="11.00" fill="#000000">personId</text>
<polygon fill="#ffffff" stroke="transparent" points="696.5,-682.8749 696.5,-704.8749 817.5,-704.8749 817.5,-682.8749 696.5,-682.8749"/>
<polygon fill="none" stroke="#000000" points="696.5,-682.8749 696.5,-704.8749 817.5,-704.8749 817.5,-682.8749 696.5,-682.8749"/>
<image xlink:href="../../images/foreignKeys.png" width="11px" height="12px" preserveAspectRatio="xMinYMin meet" x="701.5" y="-699.875"/>
<text text-anchor="start" x="716.5" y="-689.9749" font-family="Helvetica,sans-Serif" font-size="11.00" fill="#000000">bescheidartId</text>
<polygon fill="none" stroke="#000000" points="696.5,-663.8749 696.5,-682.8749 817.5,-682.8749 817.5,-663.8749 696.5,-663.8749"/>
<text text-anchor="start" x="699.5" y="-669.9749" font-family="Helvetica,sans-Serif" font-size="11.00" fill="#000000">...</text>
<polygon fill="#ffffff" stroke="transparent" points="696.5,-644.8749 696.5,-663.8749 817.5,-663.8749 817.5,-644.8749 696.5,-644.8749"/>
<polygon fill="none" stroke="#000000" points="696.5,-644.8749 696.5,-663.8749 817.5,-663.8749 817.5,-644.8749 696.5,-644.8749"/>
<polygon fill="#ffffff" stroke="transparent" points="697.5,-645.8749 697.5,-662.8749 727.5,-662.8749 727.5,-645.8749 697.5,-645.8749"/>
<text text-anchor="start" x="699.5" y="-650.9749" font-family="Helvetica,sans-Serif" font-size="11.00" fill="#000000">&lt; 2</text>
<polygon fill="#ffffff" stroke="transparent" points="727.5,-645.8749 727.5,-662.8749 795.5,-662.8749 795.5,-645.8749 727.5,-645.8749"/>
<text text-anchor="start" x="734.6045" y="-650.9749" font-family="Helvetica,sans-Serif" font-size="11.00" fill="#000000">1,280 rows</text>
<polygon fill="#ffffff" stroke="transparent" points="795.5,-645.8749 795.5,-662.8749 816.5,-662.8749 816.5,-645.8749 795.5,-645.8749"/>
<text text-anchor="start" x="808.3862" y="-650.9749" font-family="Helvetica,sans-Serif" font-size="11.00" fill="#000000"> &#160;</text>
<polygon fill="#000000" stroke="#000000" points="727.5,-645.8749 727.5,-662.8749 727.5,-662.8749 727.5,-645.8749 727.5,-645.8749"/>
<polygon fill="#000000" stroke="#000000" points="795.5,-645.8749 795.5,-662.8749 795.5,-662.8749 795.5,-645.8749 795.5,-645.8749"/>
</a>
</g>
</g>
<!-- bescheidart -->
<g id="node2" class="node">
<title>bescheidart</title>
<g id="a_node2"><a xlink:href="../../tables/bescheidart.html" xlink:title="bescheidart" target="_top">
<polygon fill="#ffffff" stroke="transparent" points="459,-676.3749 459,-737.3749 584,-737.3749 584,-676.3749 459,-676.3749"/>
<polygon fill="#f5f5f5" stroke="transparent" points="459.5,-713.8749 459.5,-736.8749 584.5,-736.8749 584.5,-713.8749 459.5,-713.8749"/>
<polygon fill="none" stroke="#000000" points="459.5,-713.8749 459.5,-736.8749 584.5,-736.8749 584.5,-713.8749 459.5,-713.8749"/>
<text text-anchor="start" x="464.5" y="-722.4749" font-family="Helvetica,sans-Serif" font-weight="bold" font-size="11.00" fill="#000000">bescheidart</text>
<text text-anchor="start" x="550.0219" y="-721.9749" font-family="Helvetica,sans-Serif" font-size="11.00" fill="#000000">[table]</text>
<polygon fill="none" stroke="#000000" points="459.5,-694.8749 459.5,-713.8749 584.5,-713.8749 584.5,-694.8749 459.5,-694.8749"/>
<text text-anchor="start" x="462.5" y="-700.9749" font-family="Helvetica,sans-Serif" font-size="11.00" fill="#000000">...</text>
<polygon fill="#ffffff" stroke="transparent" points="459.5,-675.8749 459.5,-694.8749 584.5,-694.8749 584.5,-675.8749 459.5,-675.8749"/>
<polygon fill="none" stroke="#000000" points="459.5,-675.8749 459.5,-694.8749 584.5,-694.8749 584.5,-675.8749 459.5,-675.8749"/>
<polygon fill="#ffffff" stroke="transparent" points="460.5,-676.8749 460.5,-693.8749 488.5,-693.8749 488.5,-676.8749 460.5,-676.8749"/>
<text text-anchor="start" x="462.5" y="-681.9749" font-family="Helvetica,sans-Serif" font-size="11.00" fill="#000000"> &#160;</text>
<polygon fill="#ffffff" stroke="transparent" points="488.5,-676.8749 488.5,-693.8749 547.5,-693.8749 547.5,-676.8749 488.5,-676.8749"/>
<text text-anchor="start" x="498.7478" y="-681.9749" font-family="Helvetica,sans-Serif" font-size="11.00" fill="#000000">18 rows</text>
<polygon fill="#ffffff" stroke="transparent" points="547.5,-676.8749 547.5,-693.8749 583.5,-693.8749 583.5,-676.8749 547.5,-676.8749"/>
<text text-anchor="start" x="565.9053" y="-681.9749" font-family="Helvetica,sans-Serif" font-size="11.00" fill="#000000">1 &gt;</text>
<polygon fill="#000000" stroke="#000000" points="488.5,-676.8749 488.5,-693.8749 488.5,-693.8749 488.5,-676.8749 488.5,-676.8749"/>
<polygon fill="#000000" stroke="#000000" points="547.5,-676.8749 547.5,-693.8749 547.5,-693.8749 547.5,-676.8749 547.5,-676.8749"/>
</a>
</g>
</g>
<!-- bescheid&#45;&gt;bescheidart -->
<g id="edge1" class="edge">
<title>bescheid:w&#45;&gt;bescheidart:e</title>
<path fill="none" stroke="#000000" d="M681.864,-694.1852C643.5609,-695.873 629.2049,-703.8749 584.5,-703.8749"/>
<polygon fill="#000000" stroke="#000000" points="688.5018,-694.0445 696.5763,-697.4741 692.5009,-693.9597 696.5,-693.8749 696.5,-693.8749 696.5,-693.8749 692.5009,-693.9597 696.4237,-690.2757 688.5018,-694.0445 688.5018,-694.0445"/>
<ellipse fill="none" stroke="#000000" cx="685.3025" cy="-694.1123" rx="3.2" ry="3.2"/>
</g>
<!-- familienmitglied -->
<g id="node3" class="node">
<title>familienmitglied</title>
<g id="a_node3"><a xlink:href="../../tables/familienmitglied.html" xlink:title="familienmitglied" target="_top">
<polygon fill="#ffffff" stroke="transparent" points="396,-180.8749 396,-600.8749 647,-600.8749 647,-180.8749 396,-180.8749"/>
<polygon fill="#f5f5f5" stroke="transparent" points="398.5,-575.8749 398.5,-598.8749 645.5,-598.8749 645.5,-575.8749 398.5,-575.8749"/>
<polygon fill="none" stroke="#000000" points="398.5,-575.8749 398.5,-598.8749 645.5,-598.8749 645.5,-575.8749 398.5,-575.8749"/>
<text text-anchor="start" x="403.5" y="-584.4749" font-family="Helvetica,sans-Serif" font-weight="bold" font-size="11.00" fill="#000000">familienmitglied</text>
<text text-anchor="start" x="610.5437" y="-583.9749" font-family="Helvetica,sans-Serif" font-size="11.00" fill="#000000">[table]</text>
<polygon fill="none" stroke="#000000" points="398.5,-553.8749 398.5,-575.8749 570.5,-575.8749 570.5,-553.8749 398.5,-553.8749"/>
<image xlink:href="../../images/primaryKeys.png" width="11px" height="12px" preserveAspectRatio="xMinYMin meet" x="403.5" y="-570.875"/>
<text text-anchor="start" x="418.5" y="-560.9749" font-family="Helvetica,sans-Serif" font-size="11.00" fill="#000000">personId</text>
<polygon fill="none" stroke="#000000" points="570.5,-553.8749 570.5,-575.8749 645.5,-575.8749 645.5,-553.8749 570.5,-553.8749"/>
<text text-anchor="start" x="573.5" y="-561.5749" font-family="Helvetica,sans-Serif" font-size="11.00" fill="#000000">int[10]</text>
<polygon fill="#ffffff" stroke="transparent" points="398.5,-531.8749 398.5,-553.8749 570.5,-553.8749 570.5,-531.8749 398.5,-531.8749"/>
<polygon fill="none" stroke="#000000" points="398.5,-531.8749 398.5,-553.8749 570.5,-553.8749 570.5,-531.8749 398.5,-531.8749"/>
<image xlink:href="../../images/foreignKeys.png" width="11px" height="12px" preserveAspectRatio="xMinYMin meet" x="403.5" y="-548.875"/>
<text text-anchor="start" x="418.5" y="-538.9749" font-family="Helvetica,sans-Serif" font-size="11.00" fill="#000000">haushaltId</text>
<polygon fill="none" stroke="#000000" points="570.5,-531.8749 570.5,-553.8749 645.5,-553.8749 645.5,-531.8749 570.5,-531.8749"/>
<text text-anchor="start" x="573.5" y="-539.5749" font-family="Helvetica,sans-Serif" font-size="11.00" fill="#000000">int[10]</text>
<polygon fill="none" stroke="#000000" points="398.5,-509.8749 398.5,-531.8749 570.5,-531.8749 570.5,-509.8749 398.5,-509.8749"/>
<text text-anchor="start" x="418.5" y="-516.9749" font-family="Helvetica,sans-Serif" font-size="11.00" fill="#000000">anredeId</text>
<polygon fill="none" stroke="#000000" points="570.5,-509.8749 570.5,-531.8749 645.5,-531.8749 645.5,-509.8749 570.5,-509.8749"/>
<text text-anchor="start" x="573.5" y="-517.5749" font-family="Helvetica,sans-Serif" font-size="11.00" fill="#000000">int[10]</text>
<polygon fill="none" stroke="#000000" points="398.5,-487.8749 398.5,-509.8749 570.5,-509.8749 570.5,-487.8749 398.5,-487.8749"/>
<text text-anchor="start" x="418.5" y="-494.9749" font-family="Helvetica,sans-Serif" font-size="11.00" fill="#000000">genderId</text>
<polygon fill="none" stroke="#000000" points="570.5,-487.8749 570.5,-509.8749 645.5,-509.8749 645.5,-487.8749 570.5,-487.8749"/>
<text text-anchor="start" x="573.5" y="-495.5749" font-family="Helvetica,sans-Serif" font-size="11.00" fill="#000000">int[10]</text>
<polygon fill="none" stroke="#000000" points="398.5,-465.8749 398.5,-487.8749 570.5,-487.8749 570.5,-465.8749 398.5,-465.8749"/>
<text text-anchor="start" x="418.5" y="-472.9749" font-family="Helvetica,sans-Serif" font-size="11.00" fill="#000000">vName</text>
<polygon fill="none" stroke="#000000" points="570.5,-465.8749 570.5,-487.8749 645.5,-487.8749 645.5,-465.8749 570.5,-465.8749"/>
<text text-anchor="start" x="573.5" y="-473.5749" font-family="Helvetica,sans-Serif" font-size="11.00" fill="#000000">varchar[30]</text>
<polygon fill="none" stroke="#000000" points="398.5,-443.8749 398.5,-465.8749 570.5,-465.8749 570.5,-443.8749 398.5,-443.8749"/>
<text text-anchor="start" x="418.5" y="-450.9749" font-family="Helvetica,sans-Serif" font-size="11.00" fill="#000000">nName</text>
<polygon fill="none" stroke="#000000" points="570.5,-443.8749 570.5,-465.8749 645.5,-465.8749 645.5,-443.8749 570.5,-443.8749"/>
<text text-anchor="start" x="573.5" y="-451.5749" font-family="Helvetica,sans-Serif" font-size="11.00" fill="#000000">varchar[30]</text>
<polygon fill="none" stroke="#000000" points="398.5,-421.8749 398.5,-443.8749 570.5,-443.8749 570.5,-421.8749 398.5,-421.8749"/>
<text text-anchor="start" x="418.5" y="-428.9749" font-family="Helvetica,sans-Serif" font-size="11.00" fill="#000000">gDatum</text>
<polygon fill="none" stroke="#000000" points="570.5,-421.8749 570.5,-443.8749 645.5,-443.8749 645.5,-421.8749 570.5,-421.8749"/>
<text text-anchor="start" x="573.5" y="-429.5749" font-family="Helvetica,sans-Serif" font-size="11.00" fill="#000000">date[10]</text>
<polygon fill="none" stroke="#000000" points="398.5,-399.8749 398.5,-421.8749 570.5,-421.8749 570.5,-399.8749 398.5,-399.8749"/>
<text text-anchor="start" x="418.5" y="-406.9749" font-family="Helvetica,sans-Serif" font-size="11.00" fill="#000000">bemerkung</text>
<polygon fill="none" stroke="#000000" points="570.5,-399.8749 570.5,-421.8749 645.5,-421.8749 645.5,-399.8749 570.5,-399.8749"/>
<text text-anchor="start" x="573.5" y="-407.5749" font-family="Helvetica,sans-Serif" font-size="11.00" fill="#000000">text[65535]</text>
<polygon fill="none" stroke="#000000" points="398.5,-377.8749 398.5,-399.8749 570.5,-399.8749 570.5,-377.8749 398.5,-377.8749"/>
<text text-anchor="start" x="418.5" y="-384.9749" font-family="Helvetica,sans-Serif" font-size="11.00" fill="#000000">haushaltsVorstand</text>
<polygon fill="none" stroke="#000000" points="570.5,-377.8749 570.5,-399.8749 645.5,-399.8749 645.5,-377.8749 570.5,-377.8749"/>
<text text-anchor="start" x="573.5" y="-385.5749" font-family="Helvetica,sans-Serif" font-size="11.00" fill="#000000">bit[1]</text>
<polygon fill="none" stroke="#000000" points="398.5,-355.8749 398.5,-377.8749 570.5,-377.8749 570.5,-355.8749 398.5,-355.8749"/>
<text text-anchor="start" x="418.5" y="-362.9749" font-family="Helvetica,sans-Serif" font-size="11.00" fill="#000000">einkaufsBerechtigt</text>
<polygon fill="none" stroke="#000000" points="570.5,-355.8749 570.5,-377.8749 645.5,-377.8749 645.5,-355.8749 570.5,-355.8749"/>
<text text-anchor="start" x="573.5" y="-363.5749" font-family="Helvetica,sans-Serif" font-size="11.00" fill="#000000">bit[1]</text>
<polygon fill="none" stroke="#000000" points="398.5,-333.8749 398.5,-355.8749 570.5,-355.8749 570.5,-333.8749 398.5,-333.8749"/>
<text text-anchor="start" x="418.5" y="-340.9749" font-family="Helvetica,sans-Serif" font-size="11.00" fill="#000000">gebuehrenBefreiung</text>
<polygon fill="none" stroke="#000000" points="570.5,-333.8749 570.5,-355.8749 645.5,-355.8749 645.5,-333.8749 570.5,-333.8749"/>
<text text-anchor="start" x="573.5" y="-341.5749" font-family="Helvetica,sans-Serif" font-size="11.00" fill="#000000">bit[1]</text>
<polygon fill="#ffffff" stroke="transparent" points="398.5,-311.8749 398.5,-333.8749 570.5,-333.8749 570.5,-311.8749 398.5,-311.8749"/>
<polygon fill="none" stroke="#000000" points="398.5,-311.8749 398.5,-333.8749 570.5,-333.8749 570.5,-311.8749 398.5,-311.8749"/>
<image xlink:href="../../images/foreignKeys.png" width="11px" height="12px" preserveAspectRatio="xMinYMin meet" x="403.5" y="-328.875"/>
<text text-anchor="start" x="418.5" y="-318.9749" font-family="Helvetica,sans-Serif" font-size="11.00" fill="#000000">nation</text>
<polygon fill="none" stroke="#000000" points="570.5,-311.8749 570.5,-333.8749 645.5,-333.8749 645.5,-311.8749 570.5,-311.8749"/>
<text text-anchor="start" x="573.5" y="-319.5749" font-family="Helvetica,sans-Serif" font-size="11.00" fill="#000000">int[10]</text>
<polygon fill="#ffffff" stroke="transparent" points="398.5,-289.8749 398.5,-311.8749 570.5,-311.8749 570.5,-289.8749 398.5,-289.8749"/>
<polygon fill="none" stroke="#000000" points="398.5,-289.8749 398.5,-311.8749 570.5,-311.8749 570.5,-289.8749 398.5,-289.8749"/>
<image xlink:href="../../images/foreignKeys.png" width="11px" height="12px" preserveAspectRatio="xMinYMin meet" x="403.5" y="-306.875"/>
<text text-anchor="start" x="418.5" y="-296.9749" font-family="Helvetica,sans-Serif" font-size="11.00" fill="#000000">berechtigungId</text>
<polygon fill="none" stroke="#000000" points="570.5,-289.8749 570.5,-311.8749 645.5,-311.8749 645.5,-289.8749 570.5,-289.8749"/>
<text text-anchor="start" x="573.5" y="-297.5749" font-family="Helvetica,sans-Serif" font-size="11.00" fill="#000000">int[10]</text>
<polygon fill="none" stroke="#000000" points="398.5,-267.8749 398.5,-289.8749 570.5,-289.8749 570.5,-267.8749 398.5,-267.8749"/>
<text text-anchor="start" x="418.5" y="-274.9749" font-family="Helvetica,sans-Serif" font-size="11.00" fill="#000000">aufAusweis</text>
<polygon fill="none" stroke="#000000" points="570.5,-267.8749 570.5,-289.8749 645.5,-289.8749 645.5,-267.8749 570.5,-267.8749"/>
<text text-anchor="start" x="573.5" y="-275.5749" font-family="Helvetica,sans-Serif" font-size="11.00" fill="#000000">bit[1]</text>
<polygon fill="none" stroke="#000000" points="398.5,-245.8749 398.5,-267.8749 570.5,-267.8749 570.5,-245.8749 398.5,-245.8749"/>
<text text-anchor="start" x="418.5" y="-252.9749" font-family="Helvetica,sans-Serif" font-size="11.00" fill="#000000">dseSubmitted</text>
<polygon fill="none" stroke="#000000" points="570.5,-245.8749 570.5,-267.8749 645.5,-267.8749 645.5,-245.8749 570.5,-245.8749"/>
<text text-anchor="start" x="573.5" y="-253.5749" font-family="Helvetica,sans-Serif" font-size="11.00" fill="#000000">bit[1]</text>
<polygon fill="none" stroke="#000000" points="398.5,-223.8749 398.5,-245.8749 570.5,-245.8749 570.5,-223.8749 398.5,-223.8749"/>
<text text-anchor="start" x="418.5" y="-230.9749" font-family="Helvetica,sans-Serif" font-size="11.00" fill="#000000">hinzugefuegtAm</text>
<polygon fill="none" stroke="#000000" points="570.5,-223.8749 570.5,-245.8749 645.5,-245.8749 645.5,-223.8749 570.5,-223.8749"/>
<text text-anchor="start" x="573.4666" y="-231.5749" font-family="Helvetica,sans-Serif" font-size="11.00" fill="#000000">timestamp[19]</text>
<polygon fill="none" stroke="#000000" points="398.5,-201.8749 398.5,-223.8749 570.5,-223.8749 570.5,-201.8749 398.5,-201.8749"/>
<text text-anchor="start" x="418.5" y="-208.9749" font-family="Helvetica,sans-Serif" font-size="11.00" fill="#000000">geaendertAm</text>
<polygon fill="none" stroke="#000000" points="570.5,-201.8749 570.5,-223.8749 645.5,-223.8749 645.5,-201.8749 570.5,-201.8749"/>
<text text-anchor="start" x="573.4666" y="-209.5749" font-family="Helvetica,sans-Serif" font-size="11.00" fill="#000000">timestamp[19]</text>
<polygon fill="#ffffff" stroke="transparent" points="398.5,-182.8749 398.5,-201.8749 645.5,-201.8749 645.5,-182.8749 398.5,-182.8749"/>
<polygon fill="none" stroke="#000000" points="398.5,-182.8749 398.5,-201.8749 645.5,-201.8749 645.5,-182.8749 398.5,-182.8749"/>
<polygon fill="#ffffff" stroke="transparent" points="399.5,-183.8749 399.5,-200.8749 468.5,-200.8749 468.5,-183.8749 399.5,-183.8749"/>
<text text-anchor="start" x="401.5" y="-188.9749" font-family="Helvetica,sans-Serif" font-size="11.00" fill="#000000">&lt; 3</text>
<polygon fill="#ffffff" stroke="transparent" points="468.5,-183.8749 468.5,-200.8749 575.5,-200.8749 575.5,-183.8749 468.5,-183.8749"/>
<text text-anchor="start" x="495.1045" y="-188.9749" font-family="Helvetica,sans-Serif" font-size="11.00" fill="#000000">1,525 rows</text>
<polygon fill="#ffffff" stroke="transparent" points="575.5,-183.8749 575.5,-200.8749 644.5,-200.8749 644.5,-183.8749 575.5,-183.8749"/>
<text text-anchor="start" x="626.9053" y="-188.9749" font-family="Helvetica,sans-Serif" font-size="11.00" fill="#000000">3 &gt;</text>
<polygon fill="#000000" stroke="#000000" points="468.5,-183.8749 468.5,-200.8749 468.5,-200.8749 468.5,-183.8749 468.5,-183.8749"/>
<polygon fill="#000000" stroke="#000000" points="575.5,-183.8749 575.5,-200.8749 575.5,-200.8749 575.5,-183.8749 575.5,-183.8749"/>
<polygon fill="none" stroke="#000000" stroke-width="2" points="397,-181.8749 397,-599.8749 646,-599.8749 646,-181.8749 397,-181.8749"/>
</a>
</g>
</g>
<!-- bescheid&#45;&gt;familienmitglied -->
<g id="edge2" class="edge">
<title>bescheid:w&#45;&gt;familienmitglied:e</title>
<path fill="none" stroke="#000000" d="M682.1499,-712.9933C639.4534,-692.1176 710.5248,-564.8749 645.5,-564.8749"/>
<polygon fill="#000000" stroke="#000000" points="688.6566,-714.2999 695.7912,-719.4045 692.5783,-715.0874 696.5,-715.8749 696.5,-715.8749 696.5,-715.8749 692.5783,-715.0874 697.2088,-712.3454 688.6566,-714.2999 688.6566,-714.2999"/>
<ellipse fill="none" stroke="#000000" cx="685.5192" cy="-713.6698" rx="3.2" ry="3.2"/>
</g>
<!-- haushalt -->
<g id="node6" class="node">
<title>haushalt</title>
<g id="a_node6"><a xlink:href="../../tables/haushalt.html" xlink:title="haushalt" target="_top">
<polygon fill="#ffffff" stroke="transparent" points="227.5,-519.3749 227.5,-580.3749 329.5,-580.3749 329.5,-519.3749 227.5,-519.3749"/>
<polygon fill="#f5f5f5" stroke="transparent" points="227.5,-556.8749 227.5,-579.8749 329.5,-579.8749 329.5,-556.8749 227.5,-556.8749"/>
<polygon fill="none" stroke="#000000" points="227.5,-556.8749 227.5,-579.8749 329.5,-579.8749 329.5,-556.8749 227.5,-556.8749"/>
<text text-anchor="start" x="232.5" y="-565.4749" font-family="Helvetica,sans-Serif" font-weight="bold" font-size="11.00" fill="#000000">haushalt</text>
<text text-anchor="start" x="295.0219" y="-564.9749" font-family="Helvetica,sans-Serif" font-size="11.00" fill="#000000">[table]</text>
<polygon fill="none" stroke="#000000" points="227.5,-537.8749 227.5,-556.8749 329.5,-556.8749 329.5,-537.8749 227.5,-537.8749"/>
<text text-anchor="start" x="230.5" y="-543.9749" font-family="Helvetica,sans-Serif" font-size="11.00" fill="#000000">...</text>
<polygon fill="#ffffff" stroke="transparent" points="227.5,-518.8749 227.5,-537.8749 329.5,-537.8749 329.5,-518.8749 227.5,-518.8749"/>
<polygon fill="none" stroke="#000000" points="227.5,-518.8749 227.5,-537.8749 329.5,-537.8749 329.5,-518.8749 227.5,-518.8749"/>
<polygon fill="#ffffff" stroke="transparent" points="228.5,-519.8749 228.5,-536.8749 252.5,-536.8749 252.5,-519.8749 228.5,-519.8749"/>
<text text-anchor="start" x="230.5" y="-524.9749" font-family="Helvetica,sans-Serif" font-size="11.00" fill="#000000">&lt; 3</text>
<polygon fill="#ffffff" stroke="transparent" points="252.5,-519.8749 252.5,-536.8749 305.5,-536.8749 305.5,-519.8749 252.5,-519.8749"/>
<text text-anchor="start" x="256.6904" y="-524.9749" font-family="Helvetica,sans-Serif" font-size="11.00" fill="#000000">639 rows</text>
<polygon fill="#ffffff" stroke="transparent" points="305.5,-519.8749 305.5,-536.8749 328.5,-536.8749 328.5,-519.8749 305.5,-519.8749"/>
<text text-anchor="start" x="310.9053" y="-524.9749" font-family="Helvetica,sans-Serif" font-size="11.00" fill="#000000">3 &gt;</text>
<polygon fill="#000000" stroke="#000000" points="252.5,-519.8749 252.5,-536.8749 252.5,-536.8749 252.5,-519.8749 252.5,-519.8749"/>
<polygon fill="#000000" stroke="#000000" points="305.5,-519.8749 305.5,-536.8749 305.5,-536.8749 305.5,-519.8749 305.5,-519.8749"/>
</a>
</g>
</g>
<!-- familienmitglied&#45;&gt;haushalt -->
<g id="edge8" class="edge">
<title>familienmitglied:w&#45;&gt;haushalt:e</title>
<path fill="none" stroke="#000000" d="M383.8348,-543.0344C368.3273,-543.3564 352.3462,-544.1325 337.6649,-545.0514"/>
<polygon fill="#000000" stroke="#000000" points="390.5005,-542.9619 398.5392,-546.4747 394.5002,-542.9184 398.5,-542.8749 398.5,-542.8749 398.5,-542.8749 394.5002,-542.9184 398.4608,-539.2751 390.5005,-542.9619 390.5005,-542.9619"/>
<ellipse fill="none" stroke="#000000" cx="387.3007" cy="-542.9968" rx="3.2" ry="3.2"/>
</g>
<!-- berechtigung -->
<g id="node8" class="node">
<title>berechtigung</title>
<g id="a_node8"><a xlink:href="../../tables/berechtigung.html" xlink:title="berechtigung" target="_top">
<polygon fill="#ffffff" stroke="transparent" points="210,-211.3749 210,-294.3749 347,-294.3749 347,-211.3749 210,-211.3749"/>
<polygon fill="#f5f5f5" stroke="transparent" points="210.5,-270.8749 210.5,-293.8749 347.5,-293.8749 347.5,-270.8749 210.5,-270.8749"/>
<polygon fill="none" stroke="#000000" points="210.5,-270.8749 210.5,-293.8749 347.5,-293.8749 347.5,-270.8749 210.5,-270.8749"/>
<text text-anchor="start" x="215.5" y="-279.4749" font-family="Helvetica,sans-Serif" font-weight="bold" font-size="11.00" fill="#000000">berechtigung</text>
<text text-anchor="start" x="313.0219" y="-278.9749" font-family="Helvetica,sans-Serif" font-size="11.00" fill="#000000">[table]</text>
<polygon fill="none" stroke="#000000" points="210.5,-248.8749 210.5,-270.8749 347.5,-270.8749 347.5,-248.8749 210.5,-248.8749"/>
<image xlink:href="../../images/primaryKeys.png" width="11px" height="12px" preserveAspectRatio="xMinYMin meet" x="215.5" y="-265.875"/>
<text text-anchor="start" x="232.5" y="-255.9749" font-family="Helvetica,sans-Serif" font-size="11.00" fill="#000000">berechtigungId</text>
<polygon fill="none" stroke="#000000" points="210.5,-229.8749 210.5,-248.8749 347.5,-248.8749 347.5,-229.8749 210.5,-229.8749"/>
<text text-anchor="start" x="213.5" y="-235.9749" font-family="Helvetica,sans-Serif" font-size="11.00" fill="#000000">...</text>
<polygon fill="#ffffff" stroke="transparent" points="210.5,-210.8749 210.5,-229.8749 347.5,-229.8749 347.5,-210.8749 210.5,-210.8749"/>
<polygon fill="none" stroke="#000000" points="210.5,-210.8749 210.5,-229.8749 347.5,-229.8749 347.5,-210.8749 210.5,-210.8749"/>
<polygon fill="#ffffff" stroke="transparent" points="211.5,-211.8749 211.5,-228.8749 245.5,-228.8749 245.5,-211.8749 211.5,-211.8749"/>
<text text-anchor="start" x="213.5" y="-216.9749" font-family="Helvetica,sans-Serif" font-size="11.00" fill="#000000"> &#160;</text>
<polygon fill="#ffffff" stroke="transparent" points="245.5,-211.8749 245.5,-228.8749 304.5,-228.8749 304.5,-211.8749 245.5,-211.8749"/>
<text text-anchor="start" x="258.8053" y="-216.9749" font-family="Helvetica,sans-Serif" font-size="11.00" fill="#000000">5 rows</text>
<polygon fill="#ffffff" stroke="transparent" points="304.5,-211.8749 304.5,-228.8749 346.5,-228.8749 346.5,-211.8749 304.5,-211.8749"/>
<text text-anchor="start" x="328.9053" y="-216.9749" font-family="Helvetica,sans-Serif" font-size="11.00" fill="#000000">1 &gt;</text>
<polygon fill="#000000" stroke="#000000" points="245.5,-211.8749 245.5,-228.8749 245.5,-228.8749 245.5,-211.8749 245.5,-211.8749"/>
<polygon fill="#000000" stroke="#000000" points="304.5,-211.8749 304.5,-228.8749 304.5,-228.8749 304.5,-211.8749 304.5,-211.8749"/>
</a>
</g>
</g>
<!-- familienmitglied&#45;&gt;berechtigung -->
<g id="edge7" class="edge">
<title>familienmitglied:w&#45;&gt;berechtigung:e</title>
<path fill="none" stroke="#000000" d="M384.6568,-296.4872C370.8325,-285.9103 370.6756,-259.8749 347.5,-259.8749"/>
<polygon fill="#000000" stroke="#000000" points="390.8739,-298.4577 397.4123,-304.3067 394.6869,-299.6663 398.5,-300.8749 398.5,-300.8749 398.5,-300.8749 394.6869,-299.6663 399.5877,-297.4432 390.8739,-298.4577 390.8739,-298.4577"/>
<ellipse fill="none" stroke="#000000" cx="387.8235" cy="-297.4908" rx="3.2" ry="3.2"/>
</g>
<!-- nation -->
<g id="node9" class="node">
<title>nation</title>
<g id="a_node9"><a xlink:href="../../tables/nation.html" xlink:title="nation" target="_top">
<polygon fill="#ffffff" stroke="transparent" points="221,-315.3749 221,-398.3749 336,-398.3749 336,-315.3749 221,-315.3749"/>
<polygon fill="#f5f5f5" stroke="transparent" points="221.5,-374.8749 221.5,-397.8749 336.5,-397.8749 336.5,-374.8749 221.5,-374.8749"/>
<polygon fill="none" stroke="#000000" points="221.5,-374.8749 221.5,-397.8749 336.5,-397.8749 336.5,-374.8749 221.5,-374.8749"/>
<text text-anchor="start" x="226.5" y="-383.4749" font-family="Helvetica,sans-Serif" font-weight="bold" font-size="11.00" fill="#000000">nation</text>
<text text-anchor="start" x="301.5437" y="-382.9749" font-family="Helvetica,sans-Serif" font-size="11.00" fill="#000000">[table]</text>
<polygon fill="none" stroke="#000000" points="221.5,-352.8749 221.5,-374.8749 336.5,-374.8749 336.5,-352.8749 221.5,-352.8749"/>
<image xlink:href="../../images/primaryKeys.png" width="11px" height="12px" preserveAspectRatio="xMinYMin meet" x="226.5" y="-369.875"/>
<text text-anchor="start" x="241.5" y="-359.9749" font-family="Helvetica,sans-Serif" font-size="11.00" fill="#000000">nationId</text>
<polygon fill="none" stroke="#000000" points="221.5,-333.8749 221.5,-352.8749 336.5,-352.8749 336.5,-333.8749 221.5,-333.8749"/>
<text text-anchor="start" x="224.5" y="-339.9749" font-family="Helvetica,sans-Serif" font-size="11.00" fill="#000000">...</text>
<polygon fill="#ffffff" stroke="transparent" points="221.5,-314.8749 221.5,-333.8749 336.5,-333.8749 336.5,-314.8749 221.5,-314.8749"/>
<polygon fill="none" stroke="#000000" points="221.5,-314.8749 221.5,-333.8749 336.5,-333.8749 336.5,-314.8749 221.5,-314.8749"/>
<polygon fill="#ffffff" stroke="transparent" points="222.5,-315.8749 222.5,-332.8749 244.5,-332.8749 244.5,-315.8749 222.5,-315.8749"/>
<text text-anchor="start" x="224.5" y="-320.9749" font-family="Helvetica,sans-Serif" font-size="11.00" fill="#000000"> &#160;</text>
<polygon fill="#ffffff" stroke="transparent" points="244.5,-315.8749 244.5,-332.8749 304.5,-332.8749 304.5,-315.8749 244.5,-315.8749"/>
<text text-anchor="start" x="252.1904" y="-320.9749" font-family="Helvetica,sans-Serif" font-size="11.00" fill="#000000">190 rows</text>
<polygon fill="#ffffff" stroke="transparent" points="304.5,-315.8749 304.5,-332.8749 335.5,-332.8749 335.5,-315.8749 304.5,-315.8749"/>
<text text-anchor="start" x="317.9053" y="-320.9749" font-family="Helvetica,sans-Serif" font-size="11.00" fill="#000000">1 &gt;</text>
<polygon fill="#000000" stroke="#000000" points="244.5,-315.8749 244.5,-332.8749 244.5,-332.8749 244.5,-315.8749 244.5,-315.8749"/>
<polygon fill="#000000" stroke="#000000" points="304.5,-315.8749 304.5,-332.8749 304.5,-332.8749 304.5,-315.8749 304.5,-315.8749"/>
</a>
</g>
</g>
<!-- familienmitglied&#45;&gt;nation -->
<g id="edge9" class="edge">
<title>familienmitglied:w&#45;&gt;nation:e</title>
<path fill="none" stroke="#000000" d="M384.3777,-326.0921C365.7677,-335.7575 363.8577,-363.8749 336.5,-363.8749"/>
<polygon fill="#000000" stroke="#000000" points="390.6998,-324.6519 399.2996,-326.385 394.5999,-323.7634 398.5,-322.8749 398.5,-322.8749 398.5,-322.8749 394.5999,-323.7634 397.7004,-319.3648 390.6998,-324.6519 390.6998,-324.6519"/>
<ellipse fill="none" stroke="#000000" cx="387.5798" cy="-325.3627" rx="3.2" ry="3.2"/>
</g>
<!-- einkauf -->
<g id="node4" class="node">
<title>einkauf</title>
<g id="a_node4"><a xlink:href="../../tables/einkauf.html" xlink:title="einkauf" target="_top">
<polygon fill="#ffffff" stroke="transparent" points="710,-544.3749 710,-605.3749 803,-605.3749 803,-544.3749 710,-544.3749"/>
<polygon fill="#f5f5f5" stroke="transparent" points="710.5,-581.8749 710.5,-604.8749 803.5,-604.8749 803.5,-581.8749 710.5,-581.8749"/>
<polygon fill="none" stroke="#000000" points="710.5,-581.8749 710.5,-604.8749 803.5,-604.8749 803.5,-581.8749 710.5,-581.8749"/>
<text text-anchor="start" x="715.5" y="-590.4749" font-family="Helvetica,sans-Serif" font-weight="bold" font-size="11.00" fill="#000000">einkauf</text>
<text text-anchor="start" x="769.0219" y="-589.9749" font-family="Helvetica,sans-Serif" font-size="11.00" fill="#000000">[table]</text>
<polygon fill="none" stroke="#000000" points="710.5,-562.8749 710.5,-581.8749 803.5,-581.8749 803.5,-562.8749 710.5,-562.8749"/>
<text text-anchor="start" x="713.5" y="-568.9749" font-family="Helvetica,sans-Serif" font-size="11.00" fill="#000000">...</text>
<polygon fill="#ffffff" stroke="transparent" points="710.5,-543.8749 710.5,-562.8749 803.5,-562.8749 803.5,-543.8749 710.5,-543.8749"/>
<polygon fill="none" stroke="#000000" points="710.5,-543.8749 710.5,-562.8749 803.5,-562.8749 803.5,-543.8749 710.5,-543.8749"/>
<polygon fill="#ffffff" stroke="transparent" points="711.5,-544.8749 711.5,-561.8749 732.5,-561.8749 732.5,-544.8749 711.5,-544.8749"/>
<text text-anchor="start" x="713.5" y="-549.9749" font-family="Helvetica,sans-Serif" font-size="11.00" fill="#000000">&lt; 4</text>
<polygon fill="#ffffff" stroke="transparent" points="732.5,-544.8749 732.5,-561.8749 791.5,-561.8749 791.5,-544.8749 732.5,-544.8749"/>
<text text-anchor="start" x="735.1045" y="-549.9749" font-family="Helvetica,sans-Serif" font-size="11.00" fill="#000000">3,276 rows</text>
<polygon fill="#ffffff" stroke="transparent" points="791.5,-544.8749 791.5,-561.8749 802.5,-561.8749 802.5,-544.8749 791.5,-544.8749"/>
<text text-anchor="start" x="794.3862" y="-549.9749" font-family="Helvetica,sans-Serif" font-size="11.00" fill="#000000"> &#160;</text>
<polygon fill="#000000" stroke="#000000" points="732.5,-544.8749 732.5,-561.8749 732.5,-561.8749 732.5,-544.8749 732.5,-544.8749"/>
<polygon fill="#000000" stroke="#000000" points="791.5,-544.8749 791.5,-561.8749 791.5,-561.8749 791.5,-544.8749 791.5,-544.8749"/>
</a>
</g>
</g>
<!-- einkauf&#45;&gt;familienmitglied -->
<g id="edge5" class="edge">
<title>einkauf:w&#45;&gt;familienmitglied:e</title>
<path fill="none" stroke="#000000" d="M687.1699,-566.6982C673.384,-565.6176 658.9989,-564.8749 645.5,-564.8749"/>
<polygon fill="#000000" stroke="#000000" points="693.8541,-567.2847 701.5087,-571.5704 697.8388,-567.6344 701.8235,-567.9842 701.8235,-567.9842 701.8235,-567.9842 697.8388,-567.6344 702.1382,-564.3979 693.8541,-567.2847 693.8541,-567.2847"/>
<ellipse fill="none" stroke="#000000" cx="690.6664" cy="-567.0049" rx="3.2" ry="3.2"/>
</g>
<!-- verteilstelle -->
<g id="node5" class="node">
<title>verteilstelle</title>
<g id="a_node5"><a xlink:href="../../tables/verteilstelle.html" xlink:title="verteilstelle" target="_top">
<polygon fill="#ffffff" stroke="transparent" points="21,-621.3749 21,-682.3749 148,-682.3749 148,-621.3749 21,-621.3749"/>
<polygon fill="#f5f5f5" stroke="transparent" points="21.5,-658.8749 21.5,-681.8749 148.5,-681.8749 148.5,-658.8749 21.5,-658.8749"/>
<polygon fill="none" stroke="#000000" points="21.5,-658.8749 21.5,-681.8749 148.5,-681.8749 148.5,-658.8749 21.5,-658.8749"/>
<text text-anchor="start" x="26.5" y="-667.4749" font-family="Helvetica,sans-Serif" font-weight="bold" font-size="11.00" fill="#000000">verteilstelle</text>
<text text-anchor="start" x="114.0219" y="-666.9749" font-family="Helvetica,sans-Serif" font-size="11.00" fill="#000000">[table]</text>
<polygon fill="none" stroke="#000000" points="21.5,-639.8749 21.5,-658.8749 148.5,-658.8749 148.5,-639.8749 21.5,-639.8749"/>
<text text-anchor="start" x="24.5" y="-645.9749" font-family="Helvetica,sans-Serif" font-size="11.00" fill="#000000">...</text>
<polygon fill="#ffffff" stroke="transparent" points="21.5,-620.8749 21.5,-639.8749 148.5,-639.8749 148.5,-620.8749 21.5,-620.8749"/>
<polygon fill="none" stroke="#000000" points="21.5,-620.8749 21.5,-639.8749 148.5,-639.8749 148.5,-620.8749 21.5,-620.8749"/>
<polygon fill="#ffffff" stroke="transparent" points="22.5,-621.8749 22.5,-638.8749 52.5,-638.8749 52.5,-621.8749 22.5,-621.8749"/>
<text text-anchor="start" x="24.5" y="-626.9749" font-family="Helvetica,sans-Serif" font-size="11.00" fill="#000000"> &#160;</text>
<polygon fill="#ffffff" stroke="transparent" points="52.5,-621.8749 52.5,-638.8749 108.5,-638.8749 108.5,-621.8749 52.5,-621.8749"/>
<text text-anchor="start" x="64.3053" y="-626.9749" font-family="Helvetica,sans-Serif" font-size="11.00" fill="#000000">0 rows</text>
<polygon fill="#ffffff" stroke="transparent" points="108.5,-621.8749 108.5,-638.8749 147.5,-638.8749 147.5,-621.8749 108.5,-621.8749"/>
<text text-anchor="start" x="129.9053" y="-626.9749" font-family="Helvetica,sans-Serif" font-size="11.00" fill="#000000">2 &gt;</text>
<polygon fill="#000000" stroke="#000000" points="52.5,-621.8749 52.5,-638.8749 52.5,-638.8749 52.5,-621.8749 52.5,-621.8749"/>
<polygon fill="#000000" stroke="#000000" points="108.5,-621.8749 108.5,-638.8749 108.5,-638.8749 108.5,-621.8749 108.5,-621.8749"/>
</a>
</g>
</g>
<!-- einkauf&#45;&gt;verteilstelle -->
<g id="edge3" class="edge">
<title>einkauf:w&#45;&gt;verteilstelle:e</title>
<path fill="none" stroke="#000000" d="M691.7738,-616.3478C679.9406,-622.2346 667.4022,-627.4446 655,-630.8749 437.8982,-690.9233 373.7532,-648.8749 148.5,-648.8749"/>
<polygon fill="#000000" stroke="#000000" points="697.7154,-613.2094 706.4706,-612.656 701.2523,-611.3411 704.7891,-609.4728 704.7891,-609.4728 704.7891,-609.4728 701.2523,-611.3411 703.1077,-606.2896 697.7154,-613.2094 697.7154,-613.2094"/>
<ellipse fill="none" stroke="#000000" cx="694.8859" cy="-614.704" rx="3.2" ry="3.2"/>
</g>
<!-- einkauf&#45;&gt;haushalt -->
<g id="edge4" class="edge">
<title>einkauf:w&#45;&gt;haushalt:e</title>
<path fill="none" stroke="#000000" d="M687.912,-603.5099C677.069,-606.9731 665.8519,-609.9587 655,-611.8749 538.1413,-632.5101 502.7511,-642.1067 388,-611.8749 366.769,-606.2815 345.3318,-595.5245 327.1223,-584.5202"/>
<polygon fill="#000000" stroke="#000000" points="694.3188,-601.3198 703.0532,-602.1384 698.1037,-600.0258 701.8887,-598.7319 701.8887,-598.7319 701.8887,-598.7319 698.1037,-600.0258 700.7242,-595.3255 694.3188,-601.3198 694.3188,-601.3198"/>
<ellipse fill="none" stroke="#000000" cx="691.2908" cy="-602.3549" rx="3.2" ry="3.2"/>
</g>
<!-- warentyp -->
<g id="node7" class="node">
<title>warentyp</title>
<g id="a_node7"><a xlink:href="../../tables/warentyp.html" xlink:title="warentyp" target="_top">
<polygon fill="#ffffff" stroke="transparent" points="467.5,-98.3749 467.5,-159.3749 575.5,-159.3749 575.5,-98.3749 467.5,-98.3749"/>
<polygon fill="#f5f5f5" stroke="transparent" points="467.5,-135.8749 467.5,-158.8749 575.5,-158.8749 575.5,-135.8749 467.5,-135.8749"/>
<polygon fill="none" stroke="#000000" points="467.5,-135.8749 467.5,-158.8749 575.5,-158.8749 575.5,-135.8749 467.5,-135.8749"/>
<text text-anchor="start" x="472.5" y="-144.4749" font-family="Helvetica,sans-Serif" font-weight="bold" font-size="11.00" fill="#000000">warentyp</text>
<text text-anchor="start" x="541.0219" y="-143.9749" font-family="Helvetica,sans-Serif" font-size="11.00" fill="#000000">[table]</text>
<polygon fill="none" stroke="#000000" points="467.5,-116.8749 467.5,-135.8749 575.5,-135.8749 575.5,-116.8749 467.5,-116.8749"/>
<text text-anchor="start" x="470.5" y="-122.9749" font-family="Helvetica,sans-Serif" font-size="11.00" fill="#000000">...</text>
<polygon fill="#ffffff" stroke="transparent" points="467.5,-97.8749 467.5,-116.8749 575.5,-116.8749 575.5,-97.8749 467.5,-97.8749"/>
<polygon fill="none" stroke="#000000" points="467.5,-97.8749 467.5,-116.8749 575.5,-116.8749 575.5,-97.8749 467.5,-97.8749"/>
<polygon fill="#ffffff" stroke="transparent" points="468.5,-98.8749 468.5,-115.8749 498.5,-115.8749 498.5,-98.8749 468.5,-98.8749"/>
<text text-anchor="start" x="470.5" y="-103.9749" font-family="Helvetica,sans-Serif" font-size="11.00" fill="#000000">&lt; 1</text>
<polygon fill="#ffffff" stroke="transparent" points="498.5,-98.8749 498.5,-115.8749 545.5,-115.8749 545.5,-98.8749 498.5,-98.8749"/>
<text text-anchor="start" x="505.8053" y="-103.9749" font-family="Helvetica,sans-Serif" font-size="11.00" fill="#000000">2 rows</text>
<polygon fill="#ffffff" stroke="transparent" points="545.5,-98.8749 545.5,-115.8749 574.5,-115.8749 574.5,-98.8749 545.5,-98.8749"/>
<text text-anchor="start" x="556.9053" y="-103.9749" font-family="Helvetica,sans-Serif" font-size="11.00" fill="#000000">2 &gt;</text>
<polygon fill="#000000" stroke="#000000" points="498.5,-98.8749 498.5,-115.8749 498.5,-115.8749 498.5,-98.8749 498.5,-98.8749"/>
<polygon fill="#000000" stroke="#000000" points="545.5,-98.8749 545.5,-115.8749 545.5,-115.8749 545.5,-98.8749 545.5,-98.8749"/>
</a>
</g>
</g>
<!-- einkauf&#45;&gt;warentyp -->
<g id="edge6" class="edge">
<title>einkauf:w&#45;&gt;warentyp:e</title>
<path fill="none" stroke="#000000" d="M741.8122,-526.1826C727.2095,-476.9296 704.6448,-398.4812 688,-329.8749 670.881,-259.314 698.0313,-228.3574 655,-169.8749 631.0663,-137.3474 615.884,-125.8749 575.5,-125.8749"/>
<polygon fill="#000000" stroke="#000000" points="743.6982,-532.5151 742.5316,-541.2098 744.84,-536.3486 745.9818,-540.1822 745.9818,-540.1822 745.9818,-540.1822 744.84,-536.3486 749.4321,-539.1546 743.6982,-532.5151 743.6982,-532.5151"/>
<ellipse fill="none" stroke="#000000" cx="742.7848" cy="-529.4482" rx="3.2" ry="3.2"/>
</g>
<!-- haushalt&#45;&gt;verteilstelle -->
<g id="edge12" class="edge">
<title>haushalt:w&#45;&gt;verteilstelle:e</title>
<path fill="none" stroke="#000000" d="M244.363,-595.463C220.7292,-621.4457 186.727,-648.8749 148.5,-648.8749"/>
<polygon fill="#000000" stroke="#000000" points="248.6074,-590.5526 256.5626,-586.8545 251.2232,-587.5265 253.839,-584.5003 253.839,-584.5003 253.839,-584.5003 251.2232,-587.5265 251.1155,-582.1461 248.6074,-590.5526 248.6074,-590.5526"/>
<ellipse fill="none" stroke="#000000" cx="246.5148" cy="-592.9736" rx="3.2" ry="3.2"/>
</g>
<!-- ausgabegruppe -->
<g id="node10" class="node">
<title>ausgabegruppe</title>
<g id="a_node10"><a xlink:href="../../tables/ausgabegruppe.html" xlink:title="ausgabegruppe" target="_top">
<polygon fill="#ffffff" stroke="transparent" points="8,-526.3749 8,-587.3749 161,-587.3749 161,-526.3749 8,-526.3749"/>
<polygon fill="#f5f5f5" stroke="transparent" points="8.5,-563.8749 8.5,-586.8749 161.5,-586.8749 161.5,-563.8749 8.5,-563.8749"/>
<polygon fill="none" stroke="#000000" points="8.5,-563.8749 8.5,-586.8749 161.5,-586.8749 161.5,-563.8749 8.5,-563.8749"/>
<text text-anchor="start" x="13.5" y="-572.4749" font-family="Helvetica,sans-Serif" font-weight="bold" font-size="11.00" fill="#000000">ausgabegruppe</text>
<text text-anchor="start" x="127.0219" y="-571.9749" font-family="Helvetica,sans-Serif" font-size="11.00" fill="#000000">[table]</text>
<polygon fill="none" stroke="#000000" points="8.5,-544.8749 8.5,-563.8749 161.5,-563.8749 161.5,-544.8749 8.5,-544.8749"/>
<text text-anchor="start" x="11.5" y="-550.9749" font-family="Helvetica,sans-Serif" font-size="11.00" fill="#000000">...</text>
<polygon fill="#ffffff" stroke="transparent" points="8.5,-525.8749 8.5,-544.8749 161.5,-544.8749 161.5,-525.8749 8.5,-525.8749"/>
<polygon fill="none" stroke="#000000" points="8.5,-525.8749 8.5,-544.8749 161.5,-544.8749 161.5,-525.8749 8.5,-525.8749"/>
<polygon fill="#ffffff" stroke="transparent" points="9.5,-526.8749 9.5,-543.8749 46.5,-543.8749 46.5,-526.8749 9.5,-526.8749"/>
<text text-anchor="start" x="11.5" y="-531.9749" font-family="Helvetica,sans-Serif" font-size="11.00" fill="#000000"> &#160;</text>
<polygon fill="#ffffff" stroke="transparent" points="46.5,-526.8749 46.5,-543.8749 115.5,-543.8749 115.5,-526.8749 46.5,-526.8749"/>
<text text-anchor="start" x="61.7478" y="-531.9749" font-family="Helvetica,sans-Serif" font-size="11.00" fill="#000000">24 rows</text>
<polygon fill="#ffffff" stroke="transparent" points="115.5,-526.8749 115.5,-543.8749 160.5,-543.8749 160.5,-526.8749 115.5,-526.8749"/>
<text text-anchor="start" x="142.9053" y="-531.9749" font-family="Helvetica,sans-Serif" font-size="11.00" fill="#000000">2 &gt;</text>
<polygon fill="#000000" stroke="#000000" points="46.5,-526.8749 46.5,-543.8749 46.5,-543.8749 46.5,-526.8749 46.5,-526.8749"/>
<polygon fill="#000000" stroke="#000000" points="115.5,-526.8749 115.5,-543.8749 115.5,-543.8749 115.5,-526.8749 115.5,-526.8749"/>
</a>
</g>
</g>
<!-- haushalt&#45;&gt;ausgabegruppe -->
<g id="edge10" class="edge">
<title>haushalt:w&#45;&gt;ausgabegruppe:e</title>
<path fill="none" stroke="#000000" d="M204.6485,-553.1662C190.3369,-553.5872 175.4532,-553.8749 161.5,-553.8749"/>
<polygon fill="#000000" stroke="#000000" points="211.2971,-552.9481 219.4109,-556.2837 215.2949,-552.8168 219.2928,-552.6856 219.2928,-552.6856 219.2928,-552.6856 215.2949,-552.8168 219.1747,-549.0875 211.2971,-552.9481 211.2971,-552.9481"/>
<ellipse fill="none" stroke="#000000" cx="208.0988" cy="-553.053" rx="3.2" ry="3.2"/>
</g>
<!-- plz -->
<g id="node11" class="node">
<title>plz</title>
<g id="a_node11"><a xlink:href="../../tables/plz.html" xlink:title="plz" target="_top">
<polygon fill="#ffffff" stroke="transparent" points="48,-444.3749 48,-505.3749 121,-505.3749 121,-444.3749 48,-444.3749"/>
<polygon fill="#f5f5f5" stroke="transparent" points="48.5,-481.8749 48.5,-504.8749 121.5,-504.8749 121.5,-481.8749 48.5,-481.8749"/>
<polygon fill="none" stroke="#000000" points="48.5,-481.8749 48.5,-504.8749 121.5,-504.8749 121.5,-481.8749 48.5,-481.8749"/>
<text text-anchor="start" x="53.5" y="-490.4749" font-family="Helvetica,sans-Serif" font-weight="bold" font-size="11.00" fill="#000000">plz</text>
<text text-anchor="start" x="86.5437" y="-489.9749" font-family="Helvetica,sans-Serif" font-size="11.00" fill="#000000">[table]</text>
<polygon fill="none" stroke="#000000" points="48.5,-462.8749 48.5,-481.8749 121.5,-481.8749 121.5,-462.8749 48.5,-462.8749"/>
<text text-anchor="start" x="51.5" y="-468.9749" font-family="Helvetica,sans-Serif" font-size="11.00" fill="#000000">...</text>
<polygon fill="#ffffff" stroke="transparent" points="48.5,-443.8749 48.5,-462.8749 121.5,-462.8749 121.5,-443.8749 48.5,-443.8749"/>
<polygon fill="none" stroke="#000000" points="48.5,-443.8749 48.5,-462.8749 121.5,-462.8749 121.5,-443.8749 48.5,-443.8749"/>
<polygon fill="#ffffff" stroke="transparent" points="49.5,-444.8749 49.5,-461.8749 59.5,-461.8749 59.5,-444.8749 49.5,-444.8749"/>
<text text-anchor="start" x="51.4431" y="-449.9749" font-family="Helvetica,sans-Serif" font-size="11.00" fill="#000000"> &#160;</text>
<polygon fill="#ffffff" stroke="transparent" points="59.5,-444.8749 59.5,-461.8749 101.5,-461.8749 101.5,-444.8749 59.5,-444.8749"/>
<text text-anchor="start" x="61.2478" y="-449.9749" font-family="Helvetica,sans-Serif" font-size="11.00" fill="#000000">29 rows</text>
<polygon fill="#ffffff" stroke="transparent" points="101.5,-444.8749 101.5,-461.8749 120.5,-461.8749 120.5,-444.8749 101.5,-444.8749"/>
<text text-anchor="start" x="103.2027" y="-449.9749" font-family="Helvetica,sans-Serif" font-size="11.00" fill="#000000">2 &gt;</text>
<polygon fill="#000000" stroke="#000000" points="59.5,-444.8749 59.5,-461.8749 59.5,-461.8749 59.5,-444.8749 59.5,-444.8749"/>
<polygon fill="#000000" stroke="#000000" points="101.5,-444.8749 101.5,-461.8749 101.5,-461.8749 101.5,-444.8749 101.5,-444.8749"/>
</a>
</g>
</g>
<!-- haushalt&#45;&gt;plz -->
<g id="edge11" class="edge">
<title>haushalt:w&#45;&gt;plz:e</title>
<path fill="none" stroke="#000000" d="M223.4115,-507.1212C194.6646,-488.9495 157.9542,-471.8749 121.5,-471.8749"/>
<polygon fill="#000000" stroke="#000000" points="228.9538,-510.7915 233.636,-518.2102 232.2887,-513.0001 235.6237,-515.2087 235.6237,-515.2087 235.6237,-515.2087 232.2887,-513.0001 237.6115,-512.2072 228.9538,-510.7915 228.9538,-510.7915"/>
<ellipse fill="none" stroke="#000000" cx="226.2858" cy="-509.0246" rx="3.2" ry="3.2"/>
</g>
<!-- vollmacht -->
<g id="node12" class="node">
<title>vollmacht</title>
<g id="a_node12"><a xlink:href="../../tables/vollmacht.html" xlink:title="vollmacht" target="_top">
<polygon fill="#ffffff" stroke="transparent" points="701.5,-258.3749 701.5,-319.3749 811.5,-319.3749 811.5,-258.3749 701.5,-258.3749"/>
<polygon fill="#f5f5f5" stroke="transparent" points="701.5,-295.8749 701.5,-318.8749 811.5,-318.8749 811.5,-295.8749 701.5,-295.8749"/>
<polygon fill="none" stroke="#000000" points="701.5,-295.8749 701.5,-318.8749 811.5,-318.8749 811.5,-295.8749 701.5,-295.8749"/>
<text text-anchor="start" x="706.5" y="-304.4749" font-family="Helvetica,sans-Serif" font-weight="bold" font-size="11.00" fill="#000000">vollmacht</text>
<text text-anchor="start" x="777.0219" y="-303.9749" font-family="Helvetica,sans-Serif" font-size="11.00" fill="#000000">[table]</text>
<polygon fill="none" stroke="#000000" points="701.5,-276.8749 701.5,-295.8749 811.5,-295.8749 811.5,-276.8749 701.5,-276.8749"/>
<text text-anchor="start" x="704.5" y="-282.9749" font-family="Helvetica,sans-Serif" font-size="11.00" fill="#000000">...</text>
<polygon fill="#ffffff" stroke="transparent" points="701.5,-257.8749 701.5,-276.8749 811.5,-276.8749 811.5,-257.8749 701.5,-257.8749"/>
<polygon fill="none" stroke="#000000" points="701.5,-257.8749 701.5,-276.8749 811.5,-276.8749 811.5,-257.8749 701.5,-257.8749"/>
<polygon fill="#ffffff" stroke="transparent" points="702.5,-258.8749 702.5,-275.8749 736.5,-275.8749 736.5,-258.8749 702.5,-258.8749"/>
<text text-anchor="start" x="704.5" y="-263.9749" font-family="Helvetica,sans-Serif" font-size="11.00" fill="#000000">&lt; 2</text>
<polygon fill="#ffffff" stroke="transparent" points="736.5,-258.8749 736.5,-275.8749 786.5,-275.8749 786.5,-258.8749 736.5,-258.8749"/>
<text text-anchor="start" x="745.3053" y="-263.9749" font-family="Helvetica,sans-Serif" font-size="11.00" fill="#000000">0 rows</text>
<polygon fill="#ffffff" stroke="transparent" points="786.5,-258.8749 786.5,-275.8749 810.5,-275.8749 810.5,-258.8749 786.5,-258.8749"/>
<text text-anchor="start" x="802.3862" y="-263.9749" font-family="Helvetica,sans-Serif" font-size="11.00" fill="#000000"> &#160;</text>
<polygon fill="#000000" stroke="#000000" points="736.5,-258.8749 736.5,-275.8749 736.5,-275.8749 736.5,-258.8749 736.5,-258.8749"/>
<polygon fill="#000000" stroke="#000000" points="786.5,-258.8749 786.5,-275.8749 786.5,-275.8749 786.5,-258.8749 786.5,-258.8749"/>
</a>
</g>
</g>
<!-- vollmacht&#45;&gt;familienmitglied -->
<g id="edge13" class="edge">
<title>vollmacht:w&#45;&gt;familienmitglied:e</title>
<path fill="none" stroke="#000000" d="M747.2287,-337.9814C730.8325,-417.3124 693.8376,-564.8749 645.5,-564.8749"/>
<polygon fill="#000000" stroke="#000000" points="748.5577,-331.3931 753.6686,-324.2629 749.3487,-327.4721 750.1396,-323.551 750.1396,-323.551 750.1396,-323.551 749.3487,-327.4721 746.6107,-322.8391 748.5577,-331.3931 748.5577,-331.3931"/>
<ellipse fill="none" stroke="#000000" cx="747.9249" cy="-334.5299" rx="3.2" ry="3.2"/>
</g>
<!-- vollmacht&#45;&gt;haushalt -->
<g id="edge14" class="edge">
<title>vollmacht:w&#45;&gt;haushalt:e</title>
<path fill="none" stroke="#000000" d="M747.0551,-239.879C734.8845,-191.7304 708.5581,-120.8288 655,-87.8749 553.9324,-25.6888 476.0961,-8.3711 388,-87.8749 334.7642,-135.9184 376.1762,-340.3637 355,-408.8749 343.0748,-447.4564 320.1162,-487.5674 302.4488,-515.0976"/>
<polygon fill="#000000" stroke="#000000" points="748.5553,-246.2378 746.8885,-254.8507 749.4738,-250.1309 750.3923,-254.024 750.3923,-254.024 750.3923,-254.024 749.4738,-250.1309 753.8961,-253.1974 748.5553,-246.2378 748.5553,-246.2378"/>
<ellipse fill="none" stroke="#000000" cx="747.8205" cy="-243.1233" rx="3.2" ry="3.2"/>
</g>
</g>
</svg>
