<?xml version="1.0" encoding="UTF-8" standalone="no"?>
<!DOCTYPE svg PUBLIC "-//W3C//DTD SVG 1.1//EN"
 "http://www.w3.org/Graphics/SVG/1.1/DTD/svg11.dtd">
<!-- Generated by graphviz version 2.40.1 (20161225.0304)
 -->
<!-- Title: oneDegreeRelationshipsDiagram Pages: 1 -->
<svg width="777pt" height="683pt"
 viewBox="0.00 0.00 777.00 682.70" xmlns="http://www.w3.org/2000/svg" xmlns:xlink="http://www.w3.org/1999/xlink">
<g id="graph0" class="graph" transform="scale(1 1) rotate(0) translate(4 678.7)">
<title>oneDegreeRelationshipsDiagram</title>
<polygon fill="#ffffff" stroke="transparent" points="-4,4 -4,-678.7 773,-678.7 773,4 -4,4"/>
<text text-anchor="middle" x="72.4936" y="-7.3" font-family="Helvetica,sans-Serif" font-size="11.00" fill="#000000">Generated by SchemaSpy</text>
<!-- bescheid -->
<g id="node1" class="node">
<title>bescheid</title>
<g id="a_node1"><a xlink:href="../../tables/bescheid.html" xlink:title="bescheid" target="_top">
<polygon fill="#ffffff" stroke="transparent" points="594,-203.7 594,-330.7 715,-330.7 715,-203.7 594,-203.7"/>
<polygon fill="#f5f5f5" stroke="transparent" points="594.5,-307.2 594.5,-330.2 715.5,-330.2 715.5,-307.2 594.5,-307.2"/>
<polygon fill="none" stroke="#000000" points="594.5,-307.2 594.5,-330.2 715.5,-330.2 715.5,-307.2 594.5,-307.2"/>
<text text-anchor="start" x="599.5" y="-315.8" font-family="Helvetica,sans-Serif" font-weight="bold" font-size="11.00" fill="#000000">bescheid</text>
<text text-anchor="start" x="680.5437" y="-315.3" font-family="Helvetica,sans-Serif" font-size="11.00" fill="#000000">[table]</text>
<polygon fill="none" stroke="#000000" points="594.5,-285.2 594.5,-307.2 715.5,-307.2 715.5,-285.2 594.5,-285.2"/>
<image xlink:href="../../images/primaryKeys.png" width="11px" height="12px" preserveAspectRatio="xMinYMin meet" x="599.5" y="-302.2"/>
<text text-anchor="start" x="614.5" y="-292.3" font-family="Helvetica,sans-Serif" font-size="11.00" fill="#000000">bescheidId</text>
<polygon fill="#ffffff" stroke="transparent" points="594.5,-263.2 594.5,-285.2 715.5,-285.2 715.5,-263.2 594.5,-263.2"/>
<polygon fill="none" stroke="#000000" points="594.5,-263.2 594.5,-285.2 715.5,-285.2 715.5,-263.2 594.5,-263.2"/>
<image xlink:href="../../images/foreignKeys.png" width="11px" height="12px" preserveAspectRatio="xMinYMin meet" x="599.5" y="-280.2"/>
<text text-anchor="start" x="614.5" y="-270.3" font-family="Helvetica,sans-Serif" font-size="11.00" fill="#000000">personId</text>
<polygon fill="#ffffff" stroke="transparent" points="594.5,-241.2 594.5,-263.2 715.5,-263.2 715.5,-241.2 594.5,-241.2"/>
<polygon fill="none" stroke="#000000" points="594.5,-241.2 594.5,-263.2 715.5,-263.2 715.5,-241.2 594.5,-241.2"/>
<image xlink:href="../../images/foreignKeys.png" width="11px" height="12px" preserveAspectRatio="xMinYMin meet" x="599.5" y="-258.2"/>
<text text-anchor="start" x="614.5" y="-248.3" font-family="Helvetica,sans-Serif" font-size="11.00" fill="#000000">bescheidartId</text>
<polygon fill="none" stroke="#000000" points="594.5,-222.2 594.5,-241.2 715.5,-241.2 715.5,-222.2 594.5,-222.2"/>
<text text-anchor="start" x="597.5" y="-228.3" font-family="Helvetica,sans-Serif" font-size="11.00" fill="#000000">...</text>
<polygon fill="#ffffff" stroke="transparent" points="594.5,-203.2 594.5,-222.2 715.5,-222.2 715.5,-203.2 594.5,-203.2"/>
<polygon fill="none" stroke="#000000" points="594.5,-203.2 594.5,-222.2 715.5,-222.2 715.5,-203.2 594.5,-203.2"/>
<polygon fill="#ffffff" stroke="transparent" points="595.5,-204.2 595.5,-221.2 625.5,-221.2 625.5,-204.2 595.5,-204.2"/>
<text text-anchor="start" x="597.5" y="-209.3" font-family="Helvetica,sans-Serif" font-size="11.00" fill="#000000">&lt; 2</text>
<polygon fill="#ffffff" stroke="transparent" points="625.5,-204.2 625.5,-221.2 693.5,-221.2 693.5,-204.2 625.5,-204.2"/>
<text text-anchor="start" x="632.6045" y="-209.3" font-family="Helvetica,sans-Serif" font-size="11.00" fill="#000000">1,280 rows</text>
<polygon fill="#ffffff" stroke="transparent" points="693.5,-204.2 693.5,-221.2 714.5,-221.2 714.5,-204.2 693.5,-204.2"/>
<text text-anchor="start" x="706.3862" y="-209.3" font-family="Helvetica,sans-Serif" font-size="11.00" fill="#000000"> &#160;</text>
<polygon fill="#000000" stroke="#000000" points="625.5,-204.2 625.5,-221.2 625.5,-221.2 625.5,-204.2 625.5,-204.2"/>
<polygon fill="#000000" stroke="#000000" points="693.5,-204.2 693.5,-221.2 693.5,-221.2 693.5,-204.2 693.5,-204.2"/>
</a>
</g>
</g>
<!-- familienmitglied -->
<g id="node2" class="node">
<title>familienmitglied</title>
<g id="a_node2"><a xlink:href="../../tables/familienmitglied.html" xlink:title="familienmitglied" target="_top">
<polygon fill="#ffffff" stroke="transparent" points="248,-38.2 248,-458.2 499,-458.2 499,-38.2 248,-38.2"/>
<polygon fill="#f5f5f5" stroke="transparent" points="250.5,-433.2 250.5,-456.2 497.5,-456.2 497.5,-433.2 250.5,-433.2"/>
<polygon fill="none" stroke="#000000" points="250.5,-433.2 250.5,-456.2 497.5,-456.2 497.5,-433.2 250.5,-433.2"/>
<text text-anchor="start" x="255.5" y="-441.8" font-family="Helvetica,sans-Serif" font-weight="bold" font-size="11.00" fill="#000000">familienmitglied</text>
<text text-anchor="start" x="462.5437" y="-441.3" font-family="Helvetica,sans-Serif" font-size="11.00" fill="#000000">[table]</text>
<polygon fill="none" stroke="#000000" points="250.5,-411.2 250.5,-433.2 422.5,-433.2 422.5,-411.2 250.5,-411.2"/>
<image xlink:href="../../images/primaryKeys.png" width="11px" height="12px" preserveAspectRatio="xMinYMin meet" x="255.5" y="-428.2"/>
<text text-anchor="start" x="270.5" y="-418.3" font-family="Helvetica,sans-Serif" font-size="11.00" fill="#000000">personId</text>
<polygon fill="none" stroke="#000000" points="422.5,-411.2 422.5,-433.2 497.5,-433.2 497.5,-411.2 422.5,-411.2"/>
<text text-anchor="start" x="425.5" y="-418.9" font-family="Helvetica,sans-Serif" font-size="11.00" fill="#000000">int[10]</text>
<polygon fill="#ffffff" stroke="transparent" points="250.5,-389.2 250.5,-411.2 422.5,-411.2 422.5,-389.2 250.5,-389.2"/>
<polygon fill="none" stroke="#000000" points="250.5,-389.2 250.5,-411.2 422.5,-411.2 422.5,-389.2 250.5,-389.2"/>
<image xlink:href="../../images/foreignKeys.png" width="11px" height="12px" preserveAspectRatio="xMinYMin meet" x="255.5" y="-406.2"/>
<text text-anchor="start" x="270.5" y="-396.3" font-family="Helvetica,sans-Serif" font-size="11.00" fill="#000000">haushaltId</text>
<polygon fill="none" stroke="#000000" points="422.5,-389.2 422.5,-411.2 497.5,-411.2 497.5,-389.2 422.5,-389.2"/>
<text text-anchor="start" x="425.5" y="-396.9" font-family="Helvetica,sans-Serif" font-size="11.00" fill="#000000">int[10]</text>
<polygon fill="none" stroke="#000000" points="250.5,-367.2 250.5,-389.2 422.5,-389.2 422.5,-367.2 250.5,-367.2"/>
<text text-anchor="start" x="270.5" y="-374.3" font-family="Helvetica,sans-Serif" font-size="11.00" fill="#000000">anredeId</text>
<polygon fill="none" stroke="#000000" points="422.5,-367.2 422.5,-389.2 497.5,-389.2 497.5,-367.2 422.5,-367.2"/>
<text text-anchor="start" x="425.5" y="-374.9" font-family="Helvetica,sans-Serif" font-size="11.00" fill="#000000">int[10]</text>
<polygon fill="none" stroke="#000000" points="250.5,-345.2 250.5,-367.2 422.5,-367.2 422.5,-345.2 250.5,-345.2"/>
<text text-anchor="start" x="270.5" y="-352.3" font-family="Helvetica,sans-Serif" font-size="11.00" fill="#000000">genderId</text>
<polygon fill="none" stroke="#000000" points="422.5,-345.2 422.5,-367.2 497.5,-367.2 497.5,-345.2 422.5,-345.2"/>
<text text-anchor="start" x="425.5" y="-352.9" font-family="Helvetica,sans-Serif" font-size="11.00" fill="#000000">int[10]</text>
<polygon fill="none" stroke="#000000" points="250.5,-323.2 250.5,-345.2 422.5,-345.2 422.5,-323.2 250.5,-323.2"/>
<text text-anchor="start" x="270.5" y="-330.3" font-family="Helvetica,sans-Serif" font-size="11.00" fill="#000000">vName</text>
<polygon fill="none" stroke="#000000" points="422.5,-323.2 422.5,-345.2 497.5,-345.2 497.5,-323.2 422.5,-323.2"/>
<text text-anchor="start" x="425.5" y="-330.9" font-family="Helvetica,sans-Serif" font-size="11.00" fill="#000000">varchar[30]</text>
<polygon fill="none" stroke="#000000" points="250.5,-301.2 250.5,-323.2 422.5,-323.2 422.5,-301.2 250.5,-301.2"/>
<text text-anchor="start" x="270.5" y="-308.3" font-family="Helvetica,sans-Serif" font-size="11.00" fill="#000000">nName</text>
<polygon fill="none" stroke="#000000" points="422.5,-301.2 422.5,-323.2 497.5,-323.2 497.5,-301.2 422.5,-301.2"/>
<text text-anchor="start" x="425.5" y="-308.9" font-family="Helvetica,sans-Serif" font-size="11.00" fill="#000000">varchar[30]</text>
<polygon fill="none" stroke="#000000" points="250.5,-279.2 250.5,-301.2 422.5,-301.2 422.5,-279.2 250.5,-279.2"/>
<text text-anchor="start" x="270.5" y="-286.3" font-family="Helvetica,sans-Serif" font-size="11.00" fill="#000000">gDatum</text>
<polygon fill="none" stroke="#000000" points="422.5,-279.2 422.5,-301.2 497.5,-301.2 497.5,-279.2 422.5,-279.2"/>
<text text-anchor="start" x="425.5" y="-286.9" font-family="Helvetica,sans-Serif" font-size="11.00" fill="#000000">date[10]</text>
<polygon fill="none" stroke="#000000" points="250.5,-257.2 250.5,-279.2 422.5,-279.2 422.5,-257.2 250.5,-257.2"/>
<text text-anchor="start" x="270.5" y="-264.3" font-family="Helvetica,sans-Serif" font-size="11.00" fill="#000000">bemerkung</text>
<polygon fill="none" stroke="#000000" points="422.5,-257.2 422.5,-279.2 497.5,-279.2 497.5,-257.2 422.5,-257.2"/>
<text text-anchor="start" x="425.5" y="-264.9" font-family="Helvetica,sans-Serif" font-size="11.00" fill="#000000">text[65535]</text>
<polygon fill="none" stroke="#000000" points="250.5,-235.2 250.5,-257.2 422.5,-257.2 422.5,-235.2 250.5,-235.2"/>
<text text-anchor="start" x="270.5" y="-242.3" font-family="Helvetica,sans-Serif" font-size="11.00" fill="#000000">haushaltsVorstand</text>
<polygon fill="none" stroke="#000000" points="422.5,-235.2 422.5,-257.2 497.5,-257.2 497.5,-235.2 422.5,-235.2"/>
<text text-anchor="start" x="425.5" y="-242.9" font-family="Helvetica,sans-Serif" font-size="11.00" fill="#000000">bit[1]</text>
<polygon fill="none" stroke="#000000" points="250.5,-213.2 250.5,-235.2 422.5,-235.2 422.5,-213.2 250.5,-213.2"/>
<text text-anchor="start" x="270.5" y="-220.3" font-family="Helvetica,sans-Serif" font-size="11.00" fill="#000000">einkaufsBerechtigt</text>
<polygon fill="none" stroke="#000000" points="422.5,-213.2 422.5,-235.2 497.5,-235.2 497.5,-213.2 422.5,-213.2"/>
<text text-anchor="start" x="425.5" y="-220.9" font-family="Helvetica,sans-Serif" font-size="11.00" fill="#000000">bit[1]</text>
<polygon fill="none" stroke="#000000" points="250.5,-191.2 250.5,-213.2 422.5,-213.2 422.5,-191.2 250.5,-191.2"/>
<text text-anchor="start" x="270.5" y="-198.3" font-family="Helvetica,sans-Serif" font-size="11.00" fill="#000000">gebuehrenBefreiung</text>
<polygon fill="none" stroke="#000000" points="422.5,-191.2 422.5,-213.2 497.5,-213.2 497.5,-191.2 422.5,-191.2"/>
<text text-anchor="start" x="425.5" y="-198.9" font-family="Helvetica,sans-Serif" font-size="11.00" fill="#000000">bit[1]</text>
<polygon fill="#ffffff" stroke="transparent" points="250.5,-169.2 250.5,-191.2 422.5,-191.2 422.5,-169.2 250.5,-169.2"/>
<polygon fill="none" stroke="#000000" points="250.5,-169.2 250.5,-191.2 422.5,-191.2 422.5,-169.2 250.5,-169.2"/>
<image xlink:href="../../images/foreignKeys.png" width="11px" height="12px" preserveAspectRatio="xMinYMin meet" x="255.5" y="-186.2"/>
<text text-anchor="start" x="270.5" y="-176.3" font-family="Helvetica,sans-Serif" font-size="11.00" fill="#000000">nation</text>
<polygon fill="none" stroke="#000000" points="422.5,-169.2 422.5,-191.2 497.5,-191.2 497.5,-169.2 422.5,-169.2"/>
<text text-anchor="start" x="425.5" y="-176.9" font-family="Helvetica,sans-Serif" font-size="11.00" fill="#000000">int[10]</text>
<polygon fill="#ffffff" stroke="transparent" points="250.5,-147.2 250.5,-169.2 422.5,-169.2 422.5,-147.2 250.5,-147.2"/>
<polygon fill="none" stroke="#000000" points="250.5,-147.2 250.5,-169.2 422.5,-169.2 422.5,-147.2 250.5,-147.2"/>
<image xlink:href="../../images/foreignKeys.png" width="11px" height="12px" preserveAspectRatio="xMinYMin meet" x="255.5" y="-164.2"/>
<text text-anchor="start" x="270.5" y="-154.3" font-family="Helvetica,sans-Serif" font-size="11.00" fill="#000000">berechtigungId</text>
<polygon fill="none" stroke="#000000" points="422.5,-147.2 422.5,-169.2 497.5,-169.2 497.5,-147.2 422.5,-147.2"/>
<text text-anchor="start" x="425.5" y="-154.9" font-family="Helvetica,sans-Serif" font-size="11.00" fill="#000000">int[10]</text>
<polygon fill="none" stroke="#000000" points="250.5,-125.2 250.5,-147.2 422.5,-147.2 422.5,-125.2 250.5,-125.2"/>
<text text-anchor="start" x="270.5" y="-132.3" font-family="Helvetica,sans-Serif" font-size="11.00" fill="#000000">aufAusweis</text>
<polygon fill="none" stroke="#000000" points="422.5,-125.2 422.5,-147.2 497.5,-147.2 497.5,-125.2 422.5,-125.2"/>
<text text-anchor="start" x="425.5" y="-132.9" font-family="Helvetica,sans-Serif" font-size="11.00" fill="#000000">bit[1]</text>
<polygon fill="none" stroke="#000000" points="250.5,-103.2 250.5,-125.2 422.5,-125.2 422.5,-103.2 250.5,-103.2"/>
<text text-anchor="start" x="270.5" y="-110.3" font-family="Helvetica,sans-Serif" font-size="11.00" fill="#000000">dseSubmitted</text>
<polygon fill="none" stroke="#000000" points="422.5,-103.2 422.5,-125.2 497.5,-125.2 497.5,-103.2 422.5,-103.2"/>
<text text-anchor="start" x="425.5" y="-110.9" font-family="Helvetica,sans-Serif" font-size="11.00" fill="#000000">bit[1]</text>
<polygon fill="none" stroke="#000000" points="250.5,-81.2 250.5,-103.2 422.5,-103.2 422.5,-81.2 250.5,-81.2"/>
<text text-anchor="start" x="270.5" y="-88.3" font-family="Helvetica,sans-Serif" font-size="11.00" fill="#000000">hinzugefuegtAm</text>
<polygon fill="none" stroke="#000000" points="422.5,-81.2 422.5,-103.2 497.5,-103.2 497.5,-81.2 422.5,-81.2"/>
<text text-anchor="start" x="425.4666" y="-88.9" font-family="Helvetica,sans-Serif" font-size="11.00" fill="#000000">timestamp[19]</text>
<polygon fill="none" stroke="#000000" points="250.5,-59.2 250.5,-81.2 422.5,-81.2 422.5,-59.2 250.5,-59.2"/>
<text text-anchor="start" x="270.5" y="-66.3" font-family="Helvetica,sans-Serif" font-size="11.00" fill="#000000">geaendertAm</text>
<polygon fill="none" stroke="#000000" points="422.5,-59.2 422.5,-81.2 497.5,-81.2 497.5,-59.2 422.5,-59.2"/>
<text text-anchor="start" x="425.4666" y="-66.9" font-family="Helvetica,sans-Serif" font-size="11.00" fill="#000000">timestamp[19]</text>
<polygon fill="#ffffff" stroke="transparent" points="250.5,-40.2 250.5,-59.2 497.5,-59.2 497.5,-40.2 250.5,-40.2"/>
<polygon fill="none" stroke="#000000" points="250.5,-40.2 250.5,-59.2 497.5,-59.2 497.5,-40.2 250.5,-40.2"/>
<polygon fill="#ffffff" stroke="transparent" points="251.5,-41.2 251.5,-58.2 320.5,-58.2 320.5,-41.2 251.5,-41.2"/>
<text text-anchor="start" x="253.5" y="-46.3" font-family="Helvetica,sans-Serif" font-size="11.00" fill="#000000">&lt; 3</text>
<polygon fill="#ffffff" stroke="transparent" points="320.5,-41.2 320.5,-58.2 427.5,-58.2 427.5,-41.2 320.5,-41.2"/>
<text text-anchor="start" x="347.1045" y="-46.3" font-family="Helvetica,sans-Serif" font-size="11.00" fill="#000000">1,525 rows</text>
<polygon fill="#ffffff" stroke="transparent" points="427.5,-41.2 427.5,-58.2 496.5,-58.2 496.5,-41.2 427.5,-41.2"/>
<text text-anchor="start" x="478.9053" y="-46.3" font-family="Helvetica,sans-Serif" font-size="11.00" fill="#000000">3 &gt;</text>
<polygon fill="#000000" stroke="#000000" points="320.5,-41.2 320.5,-58.2 320.5,-58.2 320.5,-41.2 320.5,-41.2"/>
<polygon fill="#000000" stroke="#000000" points="427.5,-41.2 427.5,-58.2 427.5,-58.2 427.5,-41.2 427.5,-41.2"/>
<polygon fill="none" stroke="#000000" stroke-width="2" points="249,-39.2 249,-457.2 498,-457.2 498,-39.2 249,-39.2"/>
</a>
</g>
</g>
<!-- bescheid&#45;&gt;familienmitglied -->
<g id="edge1" class="edge">
<title>bescheid:w&#45;&gt;familienmitglied:e</title>
<path fill="none" stroke="#000000" d="M580.0481,-276.3868C557.0284,-284.5135 557.9966,-313.9127 540,-341.2 517.617,-375.1381 538.1545,-422.2 497.5,-422.2"/>
<polygon fill="#000000" stroke="#000000" points="586.59,-275.3969 595.0386,-277.7595 590.545,-274.7985 594.5,-274.2 594.5,-274.2 594.5,-274.2 590.545,-274.7985 593.9614,-270.6405 586.59,-275.3969 586.59,-275.3969"/>
<ellipse fill="none" stroke="#000000" cx="583.4261" cy="-275.8757" rx="3.2" ry="3.2"/>
</g>
<!-- haushalt -->
<g id="node4" class="node">
<title>haushalt</title>
<g id="a_node4"><a xlink:href="../../tables/haushalt.html" xlink:title="haushalt" target="_top">
<polygon fill="#ffffff" stroke="transparent" points="8,-367.7 8,-516.7 199,-516.7 199,-367.7 8,-367.7"/>
<polygon fill="#f5f5f5" stroke="transparent" points="8.5,-493.2 8.5,-516.2 199.5,-516.2 199.5,-493.2 8.5,-493.2"/>
<polygon fill="none" stroke="#000000" points="8.5,-493.2 8.5,-516.2 199.5,-516.2 199.5,-493.2 8.5,-493.2"/>
<text text-anchor="start" x="13.5" y="-501.8" font-family="Helvetica,sans-Serif" font-weight="bold" font-size="11.00" fill="#000000">haushalt</text>
<text text-anchor="start" x="164.5437" y="-501.3" font-family="Helvetica,sans-Serif" font-size="11.00" fill="#000000">[table]</text>
<polygon fill="none" stroke="#000000" points="8.5,-471.2 8.5,-493.2 199.5,-493.2 199.5,-471.2 8.5,-471.2"/>
<image xlink:href="../../images/primaryKeys.png" width="11px" height="12px" preserveAspectRatio="xMinYMin meet" x="13.5" y="-488.2"/>
<text text-anchor="start" x="28.5" y="-478.3" font-family="Helvetica,sans-Serif" font-size="11.00" fill="#000000">kundennummer</text>
<polygon fill="#ffffff" stroke="transparent" points="8.5,-449.2 8.5,-471.2 199.5,-471.2 199.5,-449.2 8.5,-449.2"/>
<polygon fill="none" stroke="#000000" points="8.5,-449.2 8.5,-471.2 199.5,-471.2 199.5,-449.2 8.5,-449.2"/>
<image xlink:href="../../images/foreignKeys.png" width="11px" height="12px" preserveAspectRatio="xMinYMin meet" x="13.5" y="-466.2"/>
<text text-anchor="start" x="28.5" y="-456.3" font-family="Helvetica,sans-Serif" font-size="11.00" fill="#000000">plz</text>
<polygon fill="#ffffff" stroke="transparent" points="8.5,-427.2 8.5,-449.2 199.5,-449.2 199.5,-427.2 8.5,-427.2"/>
<polygon fill="none" stroke="#000000" points="8.5,-427.2 8.5,-449.2 199.5,-449.2 199.5,-427.2 8.5,-427.2"/>
<image xlink:href="../../images/foreignKeys.png" width="11px" height="12px" preserveAspectRatio="xMinYMin meet" x="13.5" y="-444.2"/>
<text text-anchor="start" x="28.5" y="-434.3" font-family="Helvetica,sans-Serif" font-size="11.00" fill="#000000">verteilstellenId</text>
<polygon fill="#ffffff" stroke="transparent" points="8.5,-405.2 8.5,-427.2 199.5,-427.2 199.5,-405.2 8.5,-405.2"/>
<polygon fill="none" stroke="#000000" points="8.5,-405.2 8.5,-427.2 199.5,-427.2 199.5,-405.2 8.5,-405.2"/>
<image xlink:href="../../images/foreignKeys.png" width="11px" height="12px" preserveAspectRatio="xMinYMin meet" x="13.5" y="-422.2"/>
<text text-anchor="start" x="28.5" y="-412.3" font-family="Helvetica,sans-Serif" font-size="11.00" fill="#000000">ausgabeGruppeId</text>
<polygon fill="none" stroke="#000000" points="8.5,-386.2 8.5,-405.2 199.5,-405.2 199.5,-386.2 8.5,-386.2"/>
<text text-anchor="start" x="11.5" y="-392.3" font-family="Helvetica,sans-Serif" font-size="11.00" fill="#000000">...</text>
<polygon fill="#ffffff" stroke="transparent" points="8.5,-367.2 8.5,-386.2 199.5,-386.2 199.5,-367.2 8.5,-367.2"/>
<polygon fill="none" stroke="#000000" points="8.5,-367.2 8.5,-386.2 199.5,-386.2 199.5,-367.2 8.5,-367.2"/>
<polygon fill="#ffffff" stroke="transparent" points="9.5,-368.2 9.5,-385.2 63.5,-385.2 63.5,-368.2 9.5,-368.2"/>
<text text-anchor="start" x="11.5" y="-373.3" font-family="Helvetica,sans-Serif" font-size="11.00" fill="#000000">&lt; 3</text>
<polygon fill="#ffffff" stroke="transparent" points="63.5,-368.2 63.5,-385.2 145.5,-385.2 145.5,-368.2 63.5,-368.2"/>
<text text-anchor="start" x="82.1904" y="-373.3" font-family="Helvetica,sans-Serif" font-size="11.00" fill="#000000">639 rows</text>
<polygon fill="#ffffff" stroke="transparent" points="145.5,-368.2 145.5,-385.2 198.5,-385.2 198.5,-368.2 145.5,-368.2"/>
<text text-anchor="start" x="180.9053" y="-373.3" font-family="Helvetica,sans-Serif" font-size="11.00" fill="#000000">3 &gt;</text>
<polygon fill="#000000" stroke="#000000" points="63.5,-368.2 63.5,-385.2 63.5,-385.2 63.5,-368.2 63.5,-368.2"/>
<polygon fill="#000000" stroke="#000000" points="145.5,-368.2 145.5,-385.2 145.5,-385.2 145.5,-368.2 145.5,-368.2"/>
</a>
</g>
</g>
<!-- familienmitglied&#45;&gt;haushalt -->
<g id="edge5" class="edge">
<title>familienmitglied:w&#45;&gt;haushalt:e</title>
<path fill="none" stroke="#000000" d="M236.5743,-404.6087C215.8419,-421.6409 236.3829,-482.2 199.5,-482.2"/>
<polygon fill="#000000" stroke="#000000" points="242.8731,-402.6146 251.5866,-403.6321 246.6865,-401.4073 250.5,-400.2 250.5,-400.2 250.5,-400.2 246.6865,-401.4073 249.4134,-396.7679 242.8731,-402.6146 242.8731,-402.6146"/>
<ellipse fill="none" stroke="#000000" cx="239.8223" cy="-403.5805" rx="3.2" ry="3.2"/>
</g>
<!-- berechtigung -->
<g id="node5" class="node">
<title>berechtigung</title>
<g id="a_node5"><a xlink:href="../../tables/berechtigung.html" xlink:title="berechtigung" target="_top">
<polygon fill="#ffffff" stroke="transparent" points="35,-68.7 35,-151.7 172,-151.7 172,-68.7 35,-68.7"/>
<polygon fill="#f5f5f5" stroke="transparent" points="35.5,-128.2 35.5,-151.2 172.5,-151.2 172.5,-128.2 35.5,-128.2"/>
<polygon fill="none" stroke="#000000" points="35.5,-128.2 35.5,-151.2 172.5,-151.2 172.5,-128.2 35.5,-128.2"/>
<text text-anchor="start" x="40.5" y="-136.8" font-family="Helvetica,sans-Serif" font-weight="bold" font-size="11.00" fill="#000000">berechtigung</text>
<text text-anchor="start" x="138.0219" y="-136.3" font-family="Helvetica,sans-Serif" font-size="11.00" fill="#000000">[table]</text>
<polygon fill="none" stroke="#000000" points="35.5,-106.2 35.5,-128.2 172.5,-128.2 172.5,-106.2 35.5,-106.2"/>
<image xlink:href="../../images/primaryKeys.png" width="11px" height="12px" preserveAspectRatio="xMinYMin meet" x="40.5" y="-123.2"/>
<text text-anchor="start" x="57.5" y="-113.3" font-family="Helvetica,sans-Serif" font-size="11.00" fill="#000000">berechtigungId</text>
<polygon fill="none" stroke="#000000" points="35.5,-87.2 35.5,-106.2 172.5,-106.2 172.5,-87.2 35.5,-87.2"/>
<text text-anchor="start" x="38.5" y="-93.3" font-family="Helvetica,sans-Serif" font-size="11.00" fill="#000000">...</text>
<polygon fill="#ffffff" stroke="transparent" points="35.5,-68.2 35.5,-87.2 172.5,-87.2 172.5,-68.2 35.5,-68.2"/>
<polygon fill="none" stroke="#000000" points="35.5,-68.2 35.5,-87.2 172.5,-87.2 172.5,-68.2 35.5,-68.2"/>
<polygon fill="#ffffff" stroke="transparent" points="36.5,-69.2 36.5,-86.2 70.5,-86.2 70.5,-69.2 36.5,-69.2"/>
<text text-anchor="start" x="38.5" y="-74.3" font-family="Helvetica,sans-Serif" font-size="11.00" fill="#000000"> &#160;</text>
<polygon fill="#ffffff" stroke="transparent" points="70.5,-69.2 70.5,-86.2 129.5,-86.2 129.5,-69.2 70.5,-69.2"/>
<text text-anchor="start" x="83.8053" y="-74.3" font-family="Helvetica,sans-Serif" font-size="11.00" fill="#000000">5 rows</text>
<polygon fill="#ffffff" stroke="transparent" points="129.5,-69.2 129.5,-86.2 171.5,-86.2 171.5,-69.2 129.5,-69.2"/>
<text text-anchor="start" x="153.9053" y="-74.3" font-family="Helvetica,sans-Serif" font-size="11.00" fill="#000000">1 &gt;</text>
<polygon fill="#000000" stroke="#000000" points="70.5,-69.2 70.5,-86.2 70.5,-86.2 70.5,-69.2 70.5,-69.2"/>
<polygon fill="#000000" stroke="#000000" points="129.5,-69.2 129.5,-86.2 129.5,-86.2 129.5,-69.2 129.5,-69.2"/>
</a>
</g>
</g>
<!-- familienmitglied&#45;&gt;berechtigung -->
<g id="edge4" class="edge">
<title>familienmitglied:w&#45;&gt;berechtigung:e</title>
<path fill="none" stroke="#000000" d="M236.1009,-155.9957C210.6472,-147.4795 206.1567,-117.2 172.5,-117.2"/>
<polygon fill="#000000" stroke="#000000" points="242.5921,-156.9893 249.9552,-161.7585 246.5461,-157.5947 250.5,-158.2 250.5,-158.2 250.5,-158.2 246.5461,-157.5947 251.0448,-154.6415 242.5921,-156.9893 242.5921,-156.9893"/>
<ellipse fill="none" stroke="#000000" cx="239.429" cy="-156.5051" rx="3.2" ry="3.2"/>
</g>
<!-- nation -->
<g id="node6" class="node">
<title>nation</title>
<g id="a_node6"><a xlink:href="../../tables/nation.html" xlink:title="nation" target="_top">
<polygon fill="#ffffff" stroke="transparent" points="46,-172.7 46,-255.7 161,-255.7 161,-172.7 46,-172.7"/>
<polygon fill="#f5f5f5" stroke="transparent" points="46.5,-232.2 46.5,-255.2 161.5,-255.2 161.5,-232.2 46.5,-232.2"/>
<polygon fill="none" stroke="#000000" points="46.5,-232.2 46.5,-255.2 161.5,-255.2 161.5,-232.2 46.5,-232.2"/>
<text text-anchor="start" x="51.5" y="-240.8" font-family="Helvetica,sans-Serif" font-weight="bold" font-size="11.00" fill="#000000">nation</text>
<text text-anchor="start" x="126.5437" y="-240.3" font-family="Helvetica,sans-Serif" font-size="11.00" fill="#000000">[table]</text>
<polygon fill="none" stroke="#000000" points="46.5,-210.2 46.5,-232.2 161.5,-232.2 161.5,-210.2 46.5,-210.2"/>
<image xlink:href="../../images/primaryKeys.png" width="11px" height="12px" preserveAspectRatio="xMinYMin meet" x="51.5" y="-227.2"/>
<text text-anchor="start" x="66.5" y="-217.3" font-family="Helvetica,sans-Serif" font-size="11.00" fill="#000000">nationId</text>
<polygon fill="none" stroke="#000000" points="46.5,-191.2 46.5,-210.2 161.5,-210.2 161.5,-191.2 46.5,-191.2"/>
<text text-anchor="start" x="49.5" y="-197.3" font-family="Helvetica,sans-Serif" font-size="11.00" fill="#000000">...</text>
<polygon fill="#ffffff" stroke="transparent" points="46.5,-172.2 46.5,-191.2 161.5,-191.2 161.5,-172.2 46.5,-172.2"/>
<polygon fill="none" stroke="#000000" points="46.5,-172.2 46.5,-191.2 161.5,-191.2 161.5,-172.2 46.5,-172.2"/>
<polygon fill="#ffffff" stroke="transparent" points="47.5,-173.2 47.5,-190.2 69.5,-190.2 69.5,-173.2 47.5,-173.2"/>
<text text-anchor="start" x="49.5" y="-178.3" font-family="Helvetica,sans-Serif" font-size="11.00" fill="#000000"> &#160;</text>
<polygon fill="#ffffff" stroke="transparent" points="69.5,-173.2 69.5,-190.2 129.5,-190.2 129.5,-173.2 69.5,-173.2"/>
<text text-anchor="start" x="77.1904" y="-178.3" font-family="Helvetica,sans-Serif" font-size="11.00" fill="#000000">190 rows</text>
<polygon fill="#ffffff" stroke="transparent" points="129.5,-173.2 129.5,-190.2 160.5,-190.2 160.5,-173.2 129.5,-173.2"/>
<text text-anchor="start" x="142.9053" y="-178.3" font-family="Helvetica,sans-Serif" font-size="11.00" fill="#000000">1 &gt;</text>
<polygon fill="#000000" stroke="#000000" points="69.5,-173.2 69.5,-190.2 69.5,-190.2 69.5,-173.2 69.5,-173.2"/>
<polygon fill="#000000" stroke="#000000" points="129.5,-173.2 129.5,-190.2 129.5,-190.2 129.5,-173.2 129.5,-173.2"/>
</a>
</g>
</g>
<!-- familienmitglied&#45;&gt;nation -->
<g id="edge6" class="edge">
<title>familienmitglied:w&#45;&gt;nation:e</title>
<path fill="none" stroke="#000000" d="M235.9581,-181.9617C205.8237,-189.8094 199.6071,-221.2 161.5,-221.2"/>
<polygon fill="#000000" stroke="#000000" points="242.5581,-181.1622 250.933,-183.7739 246.529,-180.6811 250.5,-180.2 250.5,-180.2 250.5,-180.2 246.529,-180.6811 250.067,-176.6261 242.5581,-181.1622 242.5581,-181.1622"/>
<ellipse fill="none" stroke="#000000" cx="239.3813" cy="-181.5471" rx="3.2" ry="3.2"/>
</g>
<!-- einkauf -->
<g id="node3" class="node">
<title>einkauf</title>
<g id="a_node3"><a xlink:href="../../tables/einkauf.html" xlink:title="einkauf" target="_top">
<polygon fill="#ffffff" stroke="transparent" points="576.5,-351.7 576.5,-522.7 732.5,-522.7 732.5,-351.7 576.5,-351.7"/>
<polygon fill="#f5f5f5" stroke="transparent" points="576.5,-499.2 576.5,-522.2 732.5,-522.2 732.5,-499.2 576.5,-499.2"/>
<polygon fill="none" stroke="#000000" points="576.5,-499.2 576.5,-522.2 732.5,-522.2 732.5,-499.2 576.5,-499.2"/>
<text text-anchor="start" x="581.5" y="-507.8" font-family="Helvetica,sans-Serif" font-weight="bold" font-size="11.00" fill="#000000">einkauf</text>
<text text-anchor="start" x="697.5437" y="-507.3" font-family="Helvetica,sans-Serif" font-size="11.00" fill="#000000">[table]</text>
<polygon fill="none" stroke="#000000" points="576.5,-477.2 576.5,-499.2 732.5,-499.2 732.5,-477.2 576.5,-477.2"/>
<image xlink:href="../../images/primaryKeys.png" width="11px" height="12px" preserveAspectRatio="xMinYMin meet" x="581.5" y="-494.2"/>
<text text-anchor="start" x="596.5" y="-484.3" font-family="Helvetica,sans-Serif" font-size="11.00" fill="#000000">einkaufId</text>
<polygon fill="#ffffff" stroke="transparent" points="576.5,-455.2 576.5,-477.2 732.5,-477.2 732.5,-455.2 576.5,-455.2"/>
<polygon fill="none" stroke="#000000" points="576.5,-455.2 576.5,-477.2 732.5,-477.2 732.5,-455.2 576.5,-455.2"/>
<image xlink:href="../../images/foreignKeys.png" width="11px" height="12px" preserveAspectRatio="xMinYMin meet" x="581.5" y="-472.2"/>
<text text-anchor="start" x="596.5" y="-462.3" font-family="Helvetica,sans-Serif" font-size="11.00" fill="#000000">warentyp</text>
<polygon fill="#ffffff" stroke="transparent" points="576.5,-433.2 576.5,-455.2 732.5,-455.2 732.5,-433.2 576.5,-433.2"/>
<polygon fill="none" stroke="#000000" points="576.5,-433.2 576.5,-455.2 732.5,-455.2 732.5,-433.2 576.5,-433.2"/>
<image xlink:href="../../images/foreignKeys.png" width="11px" height="12px" preserveAspectRatio="xMinYMin meet" x="581.5" y="-450.2"/>
<text text-anchor="start" x="596.5" y="-440.3" font-family="Helvetica,sans-Serif" font-size="11.00" fill="#000000">kunde</text>
<polygon fill="#ffffff" stroke="transparent" points="576.5,-411.2 576.5,-433.2 732.5,-433.2 732.5,-411.2 576.5,-411.2"/>
<polygon fill="none" stroke="#000000" points="576.5,-411.2 576.5,-433.2 732.5,-433.2 732.5,-411.2 576.5,-411.2"/>
<image xlink:href="../../images/foreignKeys.png" width="11px" height="12px" preserveAspectRatio="xMinYMin meet" x="581.5" y="-428.2"/>
<text text-anchor="start" x="596.5" y="-418.3" font-family="Helvetica,sans-Serif" font-size="11.00" fill="#000000">person</text>
<polygon fill="#ffffff" stroke="transparent" points="576.5,-389.2 576.5,-411.2 732.5,-411.2 732.5,-389.2 576.5,-389.2"/>
<polygon fill="none" stroke="#000000" points="576.5,-389.2 576.5,-411.2 732.5,-411.2 732.5,-389.2 576.5,-389.2"/>
<image xlink:href="../../images/foreignKeys.png" width="11px" height="12px" preserveAspectRatio="xMinYMin meet" x="581.5" y="-406.2"/>
<text text-anchor="start" x="596.5" y="-396.3" font-family="Helvetica,sans-Serif" font-size="11.00" fill="#000000">beiVerteilstelle</text>
<polygon fill="none" stroke="#000000" points="576.5,-370.2 576.5,-389.2 732.5,-389.2 732.5,-370.2 576.5,-370.2"/>
<text text-anchor="start" x="579.5" y="-376.3" font-family="Helvetica,sans-Serif" font-size="11.00" fill="#000000">...</text>
<polygon fill="#ffffff" stroke="transparent" points="576.5,-351.2 576.5,-370.2 732.5,-370.2 732.5,-351.2 576.5,-351.2"/>
<polygon fill="none" stroke="#000000" points="576.5,-351.2 576.5,-370.2 732.5,-370.2 732.5,-351.2 576.5,-351.2"/>
<polygon fill="#ffffff" stroke="transparent" points="577.5,-352.2 577.5,-369.2 619.5,-369.2 619.5,-352.2 577.5,-352.2"/>
<text text-anchor="start" x="579.5" y="-357.3" font-family="Helvetica,sans-Serif" font-size="11.00" fill="#000000">&lt; 4</text>
<polygon fill="#ffffff" stroke="transparent" points="619.5,-352.2 619.5,-369.2 699.5,-369.2 699.5,-352.2 619.5,-352.2"/>
<text text-anchor="start" x="632.6045" y="-357.3" font-family="Helvetica,sans-Serif" font-size="11.00" fill="#000000">3,276 rows</text>
<polygon fill="#ffffff" stroke="transparent" points="699.5,-352.2 699.5,-369.2 731.5,-369.2 731.5,-352.2 699.5,-352.2"/>
<text text-anchor="start" x="723.3862" y="-357.3" font-family="Helvetica,sans-Serif" font-size="11.00" fill="#000000"> &#160;</text>
<polygon fill="#000000" stroke="#000000" points="619.5,-352.2 619.5,-369.2 619.5,-369.2 619.5,-352.2 619.5,-352.2"/>
<polygon fill="#000000" stroke="#000000" points="699.5,-352.2 699.5,-369.2 699.5,-369.2 699.5,-352.2 699.5,-352.2"/>
</a>
</g>
</g>
<!-- einkauf&#45;&gt;familienmitglied -->
<g id="edge3" class="edge">
<title>einkauf:w&#45;&gt;familienmitglied:e</title>
<path fill="none" stroke="#000000" d="M561.7695,-422.2C538.0029,-422.2 527.125,-422.2 497.5,-422.2"/>
<polygon fill="#000000" stroke="#000000" points="568.5,-422.2001 576.5,-425.8 572.5,-422.2 576.5,-422.2 576.5,-422.2 576.5,-422.2 572.5,-422.2 576.5,-418.6 568.5,-422.2001 568.5,-422.2001"/>
<ellipse fill="none" stroke="#000000" cx="565.3" cy="-422.2001" rx="3.2" ry="3.2"/>
</g>
<!-- einkauf&#45;&gt;haushalt -->
<g id="edge2" class="edge">
<title>einkauf:w&#45;&gt;haushalt:e</title>
<path fill="none" stroke="#000000" d="M562.0934,-445.6339C541.3918,-450.1262 533.8015,-463.9405 507,-469.2 372.7714,-495.5408 336.2887,-482.2 199.5,-482.2"/>
<polygon fill="#000000" stroke="#000000" points="568.5393,-444.9924 576.8566,-447.7823 572.5197,-444.5962 576.5,-444.2 576.5,-444.2 576.5,-444.2 572.5197,-444.5962 576.1434,-440.6177 568.5393,-444.9924 568.5393,-444.9924"/>
<ellipse fill="none" stroke="#000000" cx="565.3551" cy="-445.3093" rx="3.2" ry="3.2"/>
</g>
<!-- vollmacht -->
<g id="node7" class="node">
<title>vollmacht</title>
<g id="a_node7"><a xlink:href="../../tables/vollmacht.html" xlink:title="vollmacht" target="_top">
<polygon fill="#ffffff" stroke="transparent" points="548,-543.7 548,-670.7 761,-670.7 761,-543.7 548,-543.7"/>
<polygon fill="#f5f5f5" stroke="transparent" points="548.5,-647.2 548.5,-670.2 761.5,-670.2 761.5,-647.2 548.5,-647.2"/>
<polygon fill="none" stroke="#000000" points="548.5,-647.2 548.5,-670.2 761.5,-670.2 761.5,-647.2 548.5,-647.2"/>
<text text-anchor="start" x="553.5" y="-655.8" font-family="Helvetica,sans-Serif" font-weight="bold" font-size="11.00" fill="#000000">vollmacht</text>
<text text-anchor="start" x="726.5437" y="-655.3" font-family="Helvetica,sans-Serif" font-size="11.00" fill="#000000">[table]</text>
<polygon fill="none" stroke="#000000" points="548.5,-625.2 548.5,-647.2 761.5,-647.2 761.5,-625.2 548.5,-625.2"/>
<image xlink:href="../../images/primaryKeys.png" width="11px" height="12px" preserveAspectRatio="xMinYMin meet" x="553.5" y="-642.2"/>
<text text-anchor="start" x="568.5" y="-632.3" font-family="Helvetica,sans-Serif" font-size="11.00" fill="#000000">vollmachtId</text>
<polygon fill="#ffffff" stroke="transparent" points="548.5,-603.2 548.5,-625.2 761.5,-625.2 761.5,-603.2 548.5,-603.2"/>
<polygon fill="none" stroke="#000000" points="548.5,-603.2 548.5,-625.2 761.5,-625.2 761.5,-603.2 548.5,-603.2"/>
<image xlink:href="../../images/foreignKeys.png" width="11px" height="12px" preserveAspectRatio="xMinYMin meet" x="553.5" y="-620.2"/>
<text text-anchor="start" x="568.5" y="-610.3" font-family="Helvetica,sans-Serif" font-size="11.00" fill="#000000">haushaltId</text>
<polygon fill="#ffffff" stroke="transparent" points="548.5,-581.2 548.5,-603.2 761.5,-603.2 761.5,-581.2 548.5,-581.2"/>
<polygon fill="none" stroke="#000000" points="548.5,-581.2 548.5,-603.2 761.5,-603.2 761.5,-581.2 548.5,-581.2"/>
<image xlink:href="../../images/foreignKeys.png" width="11px" height="12px" preserveAspectRatio="xMinYMin meet" x="553.5" y="-598.2"/>
<text text-anchor="start" x="568.5" y="-588.3" font-family="Helvetica,sans-Serif" font-size="11.00" fill="#000000">bevollmaechtigtePersonId</text>
<polygon fill="none" stroke="#000000" points="548.5,-562.2 548.5,-581.2 761.5,-581.2 761.5,-562.2 548.5,-562.2"/>
<text text-anchor="start" x="551.5" y="-568.3" font-family="Helvetica,sans-Serif" font-size="11.00" fill="#000000">...</text>
<polygon fill="#ffffff" stroke="transparent" points="548.5,-543.2 548.5,-562.2 761.5,-562.2 761.5,-543.2 548.5,-543.2"/>
<polygon fill="none" stroke="#000000" points="548.5,-543.2 548.5,-562.2 761.5,-562.2 761.5,-543.2 548.5,-543.2"/>
<polygon fill="#ffffff" stroke="transparent" points="549.5,-544.2 549.5,-561.2 617.5,-561.2 617.5,-544.2 549.5,-544.2"/>
<text text-anchor="start" x="551.5" y="-549.3" font-family="Helvetica,sans-Serif" font-size="11.00" fill="#000000">&lt; 2</text>
<polygon fill="#ffffff" stroke="transparent" points="617.5,-544.2 617.5,-561.2 702.5,-561.2 702.5,-544.2 617.5,-544.2"/>
<text text-anchor="start" x="643.8053" y="-549.3" font-family="Helvetica,sans-Serif" font-size="11.00" fill="#000000">0 rows</text>
<polygon fill="#ffffff" stroke="transparent" points="702.5,-544.2 702.5,-561.2 760.5,-561.2 760.5,-544.2 702.5,-544.2"/>
<text text-anchor="start" x="752.3862" y="-549.3" font-family="Helvetica,sans-Serif" font-size="11.00" fill="#000000"> &#160;</text>
<polygon fill="#000000" stroke="#000000" points="617.5,-544.2 617.5,-561.2 617.5,-561.2 617.5,-544.2 617.5,-544.2"/>
<polygon fill="#000000" stroke="#000000" points="702.5,-544.2 702.5,-561.2 702.5,-561.2 702.5,-544.2 702.5,-544.2"/>
</a>
</g>
</g>
<!-- vollmacht&#45;&gt;familienmitglied -->
<g id="edge7" class="edge">
<title>vollmacht:w&#45;&gt;familienmitglied:e</title>
<path fill="none" stroke="#000000" d="M534.167,-589.6649C484.079,-568.5175 570.6818,-422.2 497.5,-422.2"/>
<polygon fill="#000000" stroke="#000000" points="540.6223,-590.8066 547.873,-595.745 544.5611,-591.5033 548.5,-592.2 548.5,-592.2 548.5,-592.2 544.5611,-591.5033 549.127,-588.655 540.6223,-590.8066 540.6223,-590.8066"/>
<ellipse fill="none" stroke="#000000" cx="537.4712" cy="-590.2493" rx="3.2" ry="3.2"/>
</g>
<!-- vollmacht&#45;&gt;haushalt -->
<g id="edge8" class="edge">
<title>vollmacht:w&#45;&gt;haushalt:e</title>
<path fill="none" stroke="#000000" d="M534.0297,-613.0589C445.8487,-600.1573 277.8829,-482.2 199.5,-482.2"/>
<polygon fill="#000000" stroke="#000000" points="540.5248,-613.571 548.217,-617.7889 544.5124,-613.8855 548.5,-614.2 548.5,-614.2 548.5,-614.2 544.5124,-613.8855 548.783,-610.6111 540.5248,-613.571 540.5248,-613.571"/>
<ellipse fill="none" stroke="#000000" cx="537.3347" cy="-613.3194" rx="3.2" ry="3.2"/>
</g>
</g>
</svg>
