<?xml version="1.0" encoding="UTF-8" standalone="no"?>
<!DOCTYPE svg PUBLIC "-//W3C//DTD SVG 1.1//EN"
 "http://www.w3.org/Graphics/SVG/1.1/DTD/svg11.dtd">
<!-- Generated by graphviz version 2.40.1 (20161225.0304)
 -->
<!-- Title: oneDegreeRelationshipsDiagram Pages: 1 -->
<svg width="251pt" height="272pt"
 viewBox="0.00 0.00 251.00 272.20" xmlns="http://www.w3.org/2000/svg" xmlns:xlink="http://www.w3.org/1999/xlink">
<g id="graph0" class="graph" transform="scale(1 1) rotate(0) translate(4 268.2)">
<title>oneDegreeRelationshipsDiagram</title>
<polygon fill="#ffffff" stroke="transparent" points="-4,4 -4,-268.2 247,-268.2 247,4 -4,4"/>
<text text-anchor="middle" x="72.4936" y="-7.3" font-family="Helvetica,sans-Serif" font-size="11.00" fill="#000000">Generated by SchemaSpy</text>
<!-- guthabenstatistik -->
<g id="node1" class="node">
<title>guthabenstatistik</title>
<g id="a_node1"><a xlink:href="../../tables/guthabenstatistik.html" xlink:title="guthabenstatistik" target="_top">
<polygon fill="#ffffff" stroke="transparent" points="8,-38.2 8,-260.2 235,-260.2 235,-38.2 8,-38.2"/>
<polygon fill="#f5f5f5" stroke="transparent" points="10.5,-235.2 10.5,-258.2 233.5,-258.2 233.5,-235.2 10.5,-235.2"/>
<polygon fill="none" stroke="#000000" points="10.5,-235.2 10.5,-258.2 233.5,-258.2 233.5,-235.2 10.5,-235.2"/>
<text text-anchor="start" x="15.5" y="-243.8" font-family="Helvetica,sans-Serif" font-weight="bold" font-size="11.00" fill="#000000">guthabenstatistik</text>
<text text-anchor="start" x="198.5437" y="-243.3" font-family="Helvetica,sans-Serif" font-size="11.00" fill="#000000">[table]</text>
<polygon fill="none" stroke="#000000" points="10.5,-213.2 10.5,-235.2 166.5,-235.2 166.5,-213.2 10.5,-213.2"/>
<text text-anchor="start" x="30.5" y="-220.3" font-family="Helvetica,sans-Serif" font-size="11.00" fill="#000000">kunde</text>
<polygon fill="none" stroke="#000000" points="166.5,-213.2 166.5,-235.2 233.5,-235.2 233.5,-213.2 166.5,-213.2"/>
<text text-anchor="start" x="169.4365" y="-220.9" font-family="Helvetica,sans-Serif" font-size="11.00" fill="#000000">varchar[255]</text>
<polygon fill="none" stroke="#000000" points="10.5,-191.2 10.5,-213.2 166.5,-213.2 166.5,-191.2 10.5,-191.2"/>
<image xlink:href="../../images/primaryKeys.png" width="11px" height="12px" preserveAspectRatio="xMinYMin meet" x="15.5" y="-208.2"/>
<text text-anchor="start" x="30.5" y="-198.3" font-family="Helvetica,sans-Serif" font-size="11.00" fill="#000000">einkaufId</text>
<polygon fill="none" stroke="#000000" points="166.5,-191.2 166.5,-213.2 233.5,-213.2 233.5,-191.2 166.5,-191.2"/>
<text text-anchor="start" x="169.5" y="-198.9" font-family="Helvetica,sans-Serif" font-size="11.00" fill="#000000">int[10]</text>
<polygon fill="none" stroke="#000000" points="10.5,-169.2 10.5,-191.2 166.5,-191.2 166.5,-169.2 10.5,-169.2"/>
<text text-anchor="start" x="30.5" y="-176.3" font-family="Helvetica,sans-Serif" font-size="11.00" fill="#000000">warentyp</text>
<polygon fill="none" stroke="#000000" points="166.5,-169.2 166.5,-191.2 233.5,-191.2 233.5,-169.2 166.5,-169.2"/>
<text text-anchor="start" x="169.4365" y="-176.9" font-family="Helvetica,sans-Serif" font-size="11.00" fill="#000000">varchar[255]</text>
<polygon fill="none" stroke="#000000" points="10.5,-147.2 10.5,-169.2 166.5,-169.2 166.5,-147.2 10.5,-147.2"/>
<text text-anchor="start" x="30.5" y="-154.3" font-family="Helvetica,sans-Serif" font-size="11.00" fill="#000000">saldo</text>
<polygon fill="none" stroke="#000000" points="166.5,-147.2 166.5,-169.2 233.5,-169.2 233.5,-147.2 166.5,-147.2"/>
<text text-anchor="start" x="169.5" y="-154.9" font-family="Helvetica,sans-Serif" font-size="11.00" fill="#000000">double[22]</text>
<polygon fill="none" stroke="#000000" points="10.5,-125.2 10.5,-147.2 166.5,-147.2 166.5,-125.2 10.5,-125.2"/>
<text text-anchor="start" x="30.5" y="-132.3" font-family="Helvetica,sans-Serif" font-size="11.00" fill="#000000">summeEinkauf</text>
<polygon fill="none" stroke="#000000" points="166.5,-125.2 166.5,-147.2 233.5,-147.2 233.5,-125.2 166.5,-125.2"/>
<text text-anchor="start" x="169.5" y="-132.9" font-family="Helvetica,sans-Serif" font-size="11.00" fill="#000000">double[22]</text>
<polygon fill="none" stroke="#000000" points="10.5,-103.2 10.5,-125.2 166.5,-125.2 166.5,-103.2 10.5,-103.2"/>
<text text-anchor="start" x="30.5" y="-110.3" font-family="Helvetica,sans-Serif" font-size="11.00" fill="#000000">summeZahlung</text>
<polygon fill="none" stroke="#000000" points="166.5,-103.2 166.5,-125.2 233.5,-125.2 233.5,-103.2 166.5,-103.2"/>
<text text-anchor="start" x="169.5" y="-110.9" font-family="Helvetica,sans-Serif" font-size="11.00" fill="#000000">double[22]</text>
<polygon fill="none" stroke="#000000" points="10.5,-81.2 10.5,-103.2 166.5,-103.2 166.5,-81.2 10.5,-81.2"/>
<text text-anchor="start" x="30.5" y="-88.3" font-family="Helvetica,sans-Serif" font-size="11.00" fill="#000000">anzahlKinder</text>
<polygon fill="none" stroke="#000000" points="166.5,-81.2 166.5,-103.2 233.5,-103.2 233.5,-81.2 166.5,-81.2"/>
<text text-anchor="start" x="169.5" y="-88.9" font-family="Helvetica,sans-Serif" font-size="11.00" fill="#000000">int[10]</text>
<polygon fill="none" stroke="#000000" points="10.5,-59.2 10.5,-81.2 166.5,-81.2 166.5,-59.2 10.5,-59.2"/>
<text text-anchor="start" x="30.5" y="-66.3" font-family="Helvetica,sans-Serif" font-size="11.00" fill="#000000">anzahlErwachsene</text>
<polygon fill="none" stroke="#000000" points="166.5,-59.2 166.5,-81.2 233.5,-81.2 233.5,-59.2 166.5,-59.2"/>
<text text-anchor="start" x="169.5" y="-66.9" font-family="Helvetica,sans-Serif" font-size="11.00" fill="#000000">int[10]</text>
<polygon fill="#ffffff" stroke="transparent" points="10.5,-40.2 10.5,-59.2 233.5,-59.2 233.5,-40.2 10.5,-40.2"/>
<polygon fill="none" stroke="#000000" points="10.5,-40.2 10.5,-59.2 233.5,-59.2 233.5,-40.2 10.5,-40.2"/>
<polygon fill="#ffffff" stroke="transparent" points="11.5,-41.2 11.5,-58.2 75.5,-58.2 75.5,-41.2 11.5,-41.2"/>
<text text-anchor="start" x="13.5" y="-46.3" font-family="Helvetica,sans-Serif" font-size="11.00" fill="#000000">&lt; 0</text>
<polygon fill="#ffffff" stroke="transparent" points="75.5,-41.2 75.5,-58.2 168.5,-58.2 168.5,-41.2 75.5,-41.2"/>
<text text-anchor="start" x="99.6904" y="-46.3" font-family="Helvetica,sans-Serif" font-size="11.00" fill="#000000">165 rows</text>
<polygon fill="#ffffff" stroke="transparent" points="168.5,-41.2 168.5,-58.2 232.5,-58.2 232.5,-41.2 168.5,-41.2"/>
<text text-anchor="start" x="214.9053" y="-46.3" font-family="Helvetica,sans-Serif" font-size="11.00" fill="#000000">0 &gt;</text>
<polygon fill="#000000" stroke="#000000" points="75.5,-41.2 75.5,-58.2 75.5,-58.2 75.5,-41.2 75.5,-41.2"/>
<polygon fill="#000000" stroke="#000000" points="168.5,-41.2 168.5,-58.2 168.5,-58.2 168.5,-41.2 168.5,-41.2"/>
<polygon fill="none" stroke="#000000" stroke-width="2" points="9,-39.2 9,-259.2 234,-259.2 234,-39.2 9,-39.2"/>
</a>
</g>
</g>
</g>
</svg>
