<?xml version="1.0" encoding="UTF-8" standalone="no"?>
<!DOCTYPE svg PUBLIC "-//W3C//DTD SVG 1.1//EN"
 "http://www.w3.org/Graphics/SVG/1.1/DTD/svg11.dtd">
<!-- Generated by graphviz version 2.40.1 (20161225.0304)
 -->
<!-- Title: oneDegreeRelationshipsDiagram Pages: 1 -->
<svg width="965pt" height="566pt"
 viewBox="0.00 0.00 965.00 565.70" xmlns="http://www.w3.org/2000/svg" xmlns:xlink="http://www.w3.org/1999/xlink">
<g id="graph0" class="graph" transform="scale(1 1) rotate(0) translate(4 561.7)">
<title>oneDegreeRelationshipsDiagram</title>
<polygon fill="#ffffff" stroke="transparent" points="-4,4 -4,-561.7 961,-561.7 961,4 -4,4"/>
<text text-anchor="middle" x="72.4936" y="-7.3" font-family="Helvetica,sans-Serif" font-size="11.00" fill="#000000">Generated by SchemaSpy</text>
<!-- einkauf -->
<g id="node1" class="node">
<title>einkauf</title>
<g id="a_node1"><a xlink:href="../../tables/einkauf.html" xlink:title="einkauf" target="_top">
<polygon fill="#ffffff" stroke="transparent" points="764.5,-382.7 764.5,-553.7 920.5,-553.7 920.5,-382.7 764.5,-382.7"/>
<polygon fill="#f5f5f5" stroke="transparent" points="764.5,-530.2 764.5,-553.2 920.5,-553.2 920.5,-530.2 764.5,-530.2"/>
<polygon fill="none" stroke="#000000" points="764.5,-530.2 764.5,-553.2 920.5,-553.2 920.5,-530.2 764.5,-530.2"/>
<text text-anchor="start" x="769.5" y="-538.8" font-family="Helvetica,sans-Serif" font-weight="bold" font-size="11.00" fill="#000000">einkauf</text>
<text text-anchor="start" x="885.5437" y="-538.3" font-family="Helvetica,sans-Serif" font-size="11.00" fill="#000000">[table]</text>
<polygon fill="none" stroke="#000000" points="764.5,-508.2 764.5,-530.2 920.5,-530.2 920.5,-508.2 764.5,-508.2"/>
<image xlink:href="../../images/primaryKeys.png" width="11px" height="12px" preserveAspectRatio="xMinYMin meet" x="769.5" y="-525.2"/>
<text text-anchor="start" x="784.5" y="-515.3" font-family="Helvetica,sans-Serif" font-size="11.00" fill="#000000">einkaufId</text>
<polygon fill="#ffffff" stroke="transparent" points="764.5,-486.2 764.5,-508.2 920.5,-508.2 920.5,-486.2 764.5,-486.2"/>
<polygon fill="none" stroke="#000000" points="764.5,-486.2 764.5,-508.2 920.5,-508.2 920.5,-486.2 764.5,-486.2"/>
<image xlink:href="../../images/foreignKeys.png" width="11px" height="12px" preserveAspectRatio="xMinYMin meet" x="769.5" y="-503.2"/>
<text text-anchor="start" x="784.5" y="-493.3" font-family="Helvetica,sans-Serif" font-size="11.00" fill="#000000">warentyp</text>
<polygon fill="#ffffff" stroke="transparent" points="764.5,-464.2 764.5,-486.2 920.5,-486.2 920.5,-464.2 764.5,-464.2"/>
<polygon fill="none" stroke="#000000" points="764.5,-464.2 764.5,-486.2 920.5,-486.2 920.5,-464.2 764.5,-464.2"/>
<image xlink:href="../../images/foreignKeys.png" width="11px" height="12px" preserveAspectRatio="xMinYMin meet" x="769.5" y="-481.2"/>
<text text-anchor="start" x="784.5" y="-471.3" font-family="Helvetica,sans-Serif" font-size="11.00" fill="#000000">kunde</text>
<polygon fill="#ffffff" stroke="transparent" points="764.5,-442.2 764.5,-464.2 920.5,-464.2 920.5,-442.2 764.5,-442.2"/>
<polygon fill="none" stroke="#000000" points="764.5,-442.2 764.5,-464.2 920.5,-464.2 920.5,-442.2 764.5,-442.2"/>
<image xlink:href="../../images/foreignKeys.png" width="11px" height="12px" preserveAspectRatio="xMinYMin meet" x="769.5" y="-459.2"/>
<text text-anchor="start" x="784.5" y="-449.3" font-family="Helvetica,sans-Serif" font-size="11.00" fill="#000000">person</text>
<polygon fill="#ffffff" stroke="transparent" points="764.5,-420.2 764.5,-442.2 920.5,-442.2 920.5,-420.2 764.5,-420.2"/>
<polygon fill="none" stroke="#000000" points="764.5,-420.2 764.5,-442.2 920.5,-442.2 920.5,-420.2 764.5,-420.2"/>
<image xlink:href="../../images/foreignKeys.png" width="11px" height="12px" preserveAspectRatio="xMinYMin meet" x="769.5" y="-437.2"/>
<text text-anchor="start" x="784.5" y="-427.3" font-family="Helvetica,sans-Serif" font-size="11.00" fill="#000000">beiVerteilstelle</text>
<polygon fill="none" stroke="#000000" points="764.5,-401.2 764.5,-420.2 920.5,-420.2 920.5,-401.2 764.5,-401.2"/>
<text text-anchor="start" x="767.5" y="-407.3" font-family="Helvetica,sans-Serif" font-size="11.00" fill="#000000">...</text>
<polygon fill="#ffffff" stroke="transparent" points="764.5,-382.2 764.5,-401.2 920.5,-401.2 920.5,-382.2 764.5,-382.2"/>
<polygon fill="none" stroke="#000000" points="764.5,-382.2 764.5,-401.2 920.5,-401.2 920.5,-382.2 764.5,-382.2"/>
<polygon fill="#ffffff" stroke="transparent" points="765.5,-383.2 765.5,-400.2 807.5,-400.2 807.5,-383.2 765.5,-383.2"/>
<text text-anchor="start" x="767.5" y="-388.3" font-family="Helvetica,sans-Serif" font-size="11.00" fill="#000000">&lt; 4</text>
<polygon fill="#ffffff" stroke="transparent" points="807.5,-383.2 807.5,-400.2 887.5,-400.2 887.5,-383.2 807.5,-383.2"/>
<text text-anchor="start" x="820.6045" y="-388.3" font-family="Helvetica,sans-Serif" font-size="11.00" fill="#000000">3,276 rows</text>
<polygon fill="#ffffff" stroke="transparent" points="887.5,-383.2 887.5,-400.2 919.5,-400.2 919.5,-383.2 887.5,-383.2"/>
<text text-anchor="start" x="911.3862" y="-388.3" font-family="Helvetica,sans-Serif" font-size="11.00" fill="#000000"> &#160;</text>
<polygon fill="#000000" stroke="#000000" points="807.5,-383.2 807.5,-400.2 807.5,-400.2 807.5,-383.2 807.5,-383.2"/>
<polygon fill="#000000" stroke="#000000" points="887.5,-383.2 887.5,-400.2 887.5,-400.2 887.5,-383.2 887.5,-383.2"/>
</a>
</g>
</g>
<!-- verteilstelle -->
<g id="node2" class="node">
<title>verteilstelle</title>
<g id="a_node2"><a xlink:href="../../tables/verteilstelle.html" xlink:title="verteilstelle" target="_top">
<polygon fill="#ffffff" stroke="transparent" points="18.5,-383.7 18.5,-466.7 150.5,-466.7 150.5,-383.7 18.5,-383.7"/>
<polygon fill="#f5f5f5" stroke="transparent" points="18.5,-443.2 18.5,-466.2 150.5,-466.2 150.5,-443.2 18.5,-443.2"/>
<polygon fill="none" stroke="#000000" points="18.5,-443.2 18.5,-466.2 150.5,-466.2 150.5,-443.2 18.5,-443.2"/>
<text text-anchor="start" x="23.5" y="-451.8" font-family="Helvetica,sans-Serif" font-weight="bold" font-size="11.00" fill="#000000">verteilstelle</text>
<text text-anchor="start" x="115.5437" y="-451.3" font-family="Helvetica,sans-Serif" font-size="11.00" fill="#000000">[table]</text>
<polygon fill="none" stroke="#000000" points="18.5,-421.2 18.5,-443.2 150.5,-443.2 150.5,-421.2 18.5,-421.2"/>
<image xlink:href="../../images/primaryKeys.png" width="11px" height="12px" preserveAspectRatio="xMinYMin meet" x="23.5" y="-438.2"/>
<text text-anchor="start" x="38.5" y="-428.3" font-family="Helvetica,sans-Serif" font-size="11.00" fill="#000000">verteilstellenId</text>
<polygon fill="none" stroke="#000000" points="18.5,-402.2 18.5,-421.2 150.5,-421.2 150.5,-402.2 18.5,-402.2"/>
<text text-anchor="start" x="21.5" y="-408.3" font-family="Helvetica,sans-Serif" font-size="11.00" fill="#000000">...</text>
<polygon fill="#ffffff" stroke="transparent" points="18.5,-383.2 18.5,-402.2 150.5,-402.2 150.5,-383.2 18.5,-383.2"/>
<polygon fill="none" stroke="#000000" points="18.5,-383.2 18.5,-402.2 150.5,-402.2 150.5,-383.2 18.5,-383.2"/>
<polygon fill="#ffffff" stroke="transparent" points="19.5,-384.2 19.5,-401.2 51.5,-401.2 51.5,-384.2 19.5,-384.2"/>
<text text-anchor="start" x="21.5" y="-389.3" font-family="Helvetica,sans-Serif" font-size="11.00" fill="#000000"> &#160;</text>
<polygon fill="#ffffff" stroke="transparent" points="51.5,-384.2 51.5,-401.2 109.5,-401.2 109.5,-384.2 51.5,-384.2"/>
<text text-anchor="start" x="64.3053" y="-389.3" font-family="Helvetica,sans-Serif" font-size="11.00" fill="#000000">0 rows</text>
<polygon fill="#ffffff" stroke="transparent" points="109.5,-384.2 109.5,-401.2 149.5,-401.2 149.5,-384.2 109.5,-384.2"/>
<text text-anchor="start" x="131.9053" y="-389.3" font-family="Helvetica,sans-Serif" font-size="11.00" fill="#000000">2 &gt;</text>
<polygon fill="#000000" stroke="#000000" points="51.5,-384.2 51.5,-401.2 51.5,-401.2 51.5,-384.2 51.5,-384.2"/>
<polygon fill="#000000" stroke="#000000" points="109.5,-384.2 109.5,-401.2 109.5,-401.2 109.5,-384.2 109.5,-384.2"/>
</a>
</g>
</g>
<!-- einkauf&#45;&gt;verteilstelle -->
<g id="edge1" class="edge">
<title>einkauf:w&#45;&gt;verteilstelle:e</title>
<path fill="none" stroke="#000000" d="M750.0981,-431.3946C730.1672,-431.9688 720.477,-433.6504 695,-434.2 618.3553,-435.8534 222.0754,-432.2 150.5,-432.2"/>
<polygon fill="#000000" stroke="#000000" points="756.5007,-431.3081 764.5487,-434.7997 760.5004,-431.2541 764.5,-431.2 764.5,-431.2 764.5,-431.2 760.5004,-431.2541 764.4513,-427.6003 756.5007,-431.3081 756.5007,-431.3081"/>
<ellipse fill="none" stroke="#000000" cx="753.301" cy="-431.3514" rx="3.2" ry="3.2"/>
</g>
<!-- haushalt -->
<g id="node3" class="node">
<title>haushalt</title>
<g id="a_node3"><a xlink:href="../../tables/haushalt.html" xlink:title="haushalt" target="_top">
<polygon fill="#ffffff" stroke="transparent" points="210,-38.2 210,-414.2 466,-414.2 466,-38.2 210,-38.2"/>
<polygon fill="#f5f5f5" stroke="transparent" points="212,-389.2 212,-412.2 464,-412.2 464,-389.2 212,-389.2"/>
<polygon fill="none" stroke="#000000" points="212,-389.2 212,-412.2 464,-412.2 464,-389.2 212,-389.2"/>
<text text-anchor="start" x="217" y="-397.8" font-family="Helvetica,sans-Serif" font-weight="bold" font-size="11.00" fill="#000000">haushalt</text>
<text text-anchor="start" x="429.0437" y="-397.3" font-family="Helvetica,sans-Serif" font-size="11.00" fill="#000000">[table]</text>
<polygon fill="none" stroke="#000000" points="212,-367.2 212,-389.2 403,-389.2 403,-367.2 212,-367.2"/>
<image xlink:href="../../images/primaryKeys.png" width="11px" height="12px" preserveAspectRatio="xMinYMin meet" x="217" y="-384.2"/>
<text text-anchor="start" x="232" y="-374.3" font-family="Helvetica,sans-Serif" font-size="11.00" fill="#000000">kundennummer</text>
<polygon fill="none" stroke="#000000" points="403,-367.2 403,-389.2 464,-389.2 464,-367.2 403,-367.2"/>
<text text-anchor="start" x="406" y="-374.9" font-family="Helvetica,sans-Serif" font-size="11.00" fill="#000000">int[10]</text>
<polygon fill="none" stroke="#000000" points="212,-345.2 212,-367.2 403,-367.2 403,-345.2 212,-345.2"/>
<text text-anchor="start" x="232" y="-352.3" font-family="Helvetica,sans-Serif" font-size="11.00" fill="#000000">strasse</text>
<polygon fill="none" stroke="#000000" points="403,-345.2 403,-367.2 464,-367.2 464,-345.2 403,-345.2"/>
<text text-anchor="start" x="405.994" y="-352.9" font-family="Helvetica,sans-Serif" font-size="11.00" fill="#000000">varchar[30]</text>
<polygon fill="none" stroke="#000000" points="212,-323.2 212,-345.2 403,-345.2 403,-323.2 212,-323.2"/>
<text text-anchor="start" x="232" y="-330.3" font-family="Helvetica,sans-Serif" font-size="11.00" fill="#000000">hausnummer</text>
<polygon fill="none" stroke="#000000" points="403,-323.2 403,-345.2 464,-345.2 464,-323.2 403,-323.2"/>
<text text-anchor="start" x="405.994" y="-330.9" font-family="Helvetica,sans-Serif" font-size="11.00" fill="#000000">varchar[10]</text>
<polygon fill="#ffffff" stroke="transparent" points="212,-301.2 212,-323.2 403,-323.2 403,-301.2 212,-301.2"/>
<polygon fill="none" stroke="#000000" points="212,-301.2 212,-323.2 403,-323.2 403,-301.2 212,-301.2"/>
<image xlink:href="../../images/foreignKeys.png" width="11px" height="12px" preserveAspectRatio="xMinYMin meet" x="217" y="-318.2"/>
<text text-anchor="start" x="232" y="-308.3" font-family="Helvetica,sans-Serif" font-size="11.00" fill="#000000">plz</text>
<polygon fill="none" stroke="#000000" points="403,-301.2 403,-323.2 464,-323.2 464,-301.2 403,-301.2"/>
<text text-anchor="start" x="406" y="-308.9" font-family="Helvetica,sans-Serif" font-size="11.00" fill="#000000">int[10]</text>
<polygon fill="none" stroke="#000000" points="212,-279.2 212,-301.2 403,-301.2 403,-279.2 212,-279.2"/>
<text text-anchor="start" x="232" y="-286.3" font-family="Helvetica,sans-Serif" font-size="11.00" fill="#000000">telefonnummer</text>
<polygon fill="none" stroke="#000000" points="403,-279.2 403,-301.2 464,-301.2 464,-279.2 403,-279.2"/>
<text text-anchor="start" x="405.994" y="-286.9" font-family="Helvetica,sans-Serif" font-size="11.00" fill="#000000">varchar[20]</text>
<polygon fill="none" stroke="#000000" points="212,-257.2 212,-279.2 403,-279.2 403,-257.2 212,-257.2"/>
<text text-anchor="start" x="232" y="-264.3" font-family="Helvetica,sans-Serif" font-size="11.00" fill="#000000">mobilnummer</text>
<polygon fill="none" stroke="#000000" points="403,-257.2 403,-279.2 464,-279.2 464,-257.2 403,-257.2"/>
<text text-anchor="start" x="405.994" y="-264.9" font-family="Helvetica,sans-Serif" font-size="11.00" fill="#000000">varchar[15]</text>
<polygon fill="none" stroke="#000000" points="212,-235.2 212,-257.2 403,-257.2 403,-235.2 212,-235.2"/>
<text text-anchor="start" x="232" y="-242.3" font-family="Helvetica,sans-Serif" font-size="11.00" fill="#000000">bemerkung</text>
<polygon fill="none" stroke="#000000" points="403,-235.2 403,-257.2 464,-257.2 464,-235.2 403,-235.2"/>
<text text-anchor="start" x="406" y="-242.9" font-family="Helvetica,sans-Serif" font-size="11.00" fill="#000000">text[65535]</text>
<polygon fill="none" stroke="#000000" points="212,-213.2 212,-235.2 403,-235.2 403,-213.2 212,-213.2"/>
<text text-anchor="start" x="232" y="-220.3" font-family="Helvetica,sans-Serif" font-size="11.00" fill="#000000">kundeSeit</text>
<polygon fill="none" stroke="#000000" points="403,-213.2 403,-235.2 464,-235.2 464,-213.2 403,-213.2"/>
<text text-anchor="start" x="406" y="-220.9" font-family="Helvetica,sans-Serif" font-size="11.00" fill="#000000">date[10]</text>
<polygon fill="none" stroke="#000000" points="212,-191.2 212,-213.2 403,-213.2 403,-191.2 212,-191.2"/>
<text text-anchor="start" x="232" y="-198.3" font-family="Helvetica,sans-Serif" font-size="11.00" fill="#000000">saldo</text>
<polygon fill="none" stroke="#000000" points="403,-191.2 403,-213.2 464,-213.2 464,-191.2 403,-191.2"/>
<text text-anchor="start" x="406" y="-198.9" font-family="Helvetica,sans-Serif" font-size="11.00" fill="#000000">float[12]</text>
<polygon fill="#ffffff" stroke="transparent" points="212,-169.2 212,-191.2 403,-191.2 403,-169.2 212,-169.2"/>
<polygon fill="none" stroke="#000000" points="212,-169.2 212,-191.2 403,-191.2 403,-169.2 212,-169.2"/>
<image xlink:href="../../images/foreignKeys.png" width="11px" height="12px" preserveAspectRatio="xMinYMin meet" x="217" y="-186.2"/>
<text text-anchor="start" x="232" y="-176.3" font-family="Helvetica,sans-Serif" font-size="11.00" fill="#000000">verteilstellenId</text>
<polygon fill="none" stroke="#000000" points="403,-169.2 403,-191.2 464,-191.2 464,-169.2 403,-169.2"/>
<text text-anchor="start" x="406" y="-176.9" font-family="Helvetica,sans-Serif" font-size="11.00" fill="#000000">int[10]</text>
<polygon fill="none" stroke="#000000" points="212,-147.2 212,-169.2 403,-169.2 403,-147.2 212,-147.2"/>
<text text-anchor="start" x="232" y="-154.3" font-family="Helvetica,sans-Serif" font-size="11.00" fill="#000000">istArchiviert</text>
<polygon fill="none" stroke="#000000" points="403,-147.2 403,-169.2 464,-169.2 464,-147.2 403,-147.2"/>
<text text-anchor="start" x="406" y="-154.9" font-family="Helvetica,sans-Serif" font-size="11.00" fill="#000000">bit[1]</text>
<polygon fill="none" stroke="#000000" points="212,-125.2 212,-147.2 403,-147.2 403,-125.2 212,-125.2"/>
<text text-anchor="start" x="232" y="-132.3" font-family="Helvetica,sans-Serif" font-size="11.00" fill="#000000">istGesperrt</text>
<polygon fill="none" stroke="#000000" points="403,-125.2 403,-147.2 464,-147.2 464,-125.2 403,-125.2"/>
<text text-anchor="start" x="406" y="-132.9" font-family="Helvetica,sans-Serif" font-size="11.00" fill="#000000">bit[1]</text>
<polygon fill="#ffffff" stroke="transparent" points="212,-103.2 212,-125.2 403,-125.2 403,-103.2 212,-103.2"/>
<polygon fill="none" stroke="#000000" points="212,-103.2 212,-125.2 403,-125.2 403,-103.2 212,-103.2"/>
<image xlink:href="../../images/foreignKeys.png" width="11px" height="12px" preserveAspectRatio="xMinYMin meet" x="217" y="-120.2"/>
<text text-anchor="start" x="232" y="-110.3" font-family="Helvetica,sans-Serif" font-size="11.00" fill="#000000">ausgabeGruppeId</text>
<polygon fill="none" stroke="#000000" points="403,-103.2 403,-125.2 464,-125.2 464,-103.2 403,-103.2"/>
<text text-anchor="start" x="406" y="-110.9" font-family="Helvetica,sans-Serif" font-size="11.00" fill="#000000">int[10]</text>
<polygon fill="none" stroke="#000000" points="212,-81.2 212,-103.2 403,-103.2 403,-81.2 212,-81.2"/>
<text text-anchor="start" x="232" y="-88.3" font-family="Helvetica,sans-Serif" font-size="11.00" fill="#000000">belieferung</text>
<polygon fill="none" stroke="#000000" points="403,-81.2 403,-103.2 464,-103.2 464,-81.2 403,-81.2"/>
<text text-anchor="start" x="406" y="-88.9" font-family="Helvetica,sans-Serif" font-size="11.00" fill="#000000">bit[1]</text>
<polygon fill="none" stroke="#000000" points="212,-59.2 212,-81.2 403,-81.2 403,-59.2 212,-59.2"/>
<text text-anchor="start" x="232" y="-66.3" font-family="Helvetica,sans-Serif" font-size="11.00" fill="#000000">datenschutzerklaerung</text>
<polygon fill="none" stroke="#000000" points="403,-59.2 403,-81.2 464,-81.2 464,-59.2 403,-59.2"/>
<text text-anchor="start" x="406" y="-66.9" font-family="Helvetica,sans-Serif" font-size="11.00" fill="#000000">bit[1]</text>
<polygon fill="#ffffff" stroke="transparent" points="212,-40.2 212,-59.2 464,-59.2 464,-40.2 212,-40.2"/>
<polygon fill="none" stroke="#000000" points="212,-40.2 212,-59.2 464,-59.2 464,-40.2 212,-40.2"/>
<polygon fill="#ffffff" stroke="transparent" points="213,-41.2 213,-58.2 287,-58.2 287,-41.2 213,-41.2"/>
<text text-anchor="start" x="215" y="-46.3" font-family="Helvetica,sans-Serif" font-size="11.00" fill="#000000">&lt; 3</text>
<polygon fill="#ffffff" stroke="transparent" points="287,-41.2 287,-58.2 390,-58.2 390,-41.2 287,-41.2"/>
<text text-anchor="start" x="316.1904" y="-46.3" font-family="Helvetica,sans-Serif" font-size="11.00" fill="#000000">639 rows</text>
<polygon fill="#ffffff" stroke="transparent" points="390,-41.2 390,-58.2 463,-58.2 463,-41.2 390,-41.2"/>
<text text-anchor="start" x="445.4053" y="-46.3" font-family="Helvetica,sans-Serif" font-size="11.00" fill="#000000">3 &gt;</text>
<polygon fill="#000000" stroke="#000000" points="287,-41.2 287,-58.2 287,-58.2 287,-41.2 287,-41.2"/>
<polygon fill="#000000" stroke="#000000" points="390,-41.2 390,-58.2 390,-58.2 390,-41.2 390,-41.2"/>
<polygon fill="none" stroke="#000000" stroke-width="2" points="211,-39.2 211,-413.2 465,-413.2 465,-39.2 211,-39.2"/>
</a>
</g>
</g>
<!-- einkauf&#45;&gt;haushalt -->
<g id="edge2" class="edge">
<title>einkauf:w&#45;&gt;haushalt:e</title>
<path fill="none" stroke="#000000" d="M749.9602,-475.2936C644.8953,-476.6274 602.3001,-490.9289 507,-434.2 480.0359,-418.1492 495.3798,-378.2 464,-378.2"/>
<polygon fill="#000000" stroke="#000000" points="756.5002,-475.2516 764.5232,-478.7999 760.5001,-475.2258 764.5,-475.2 764.5,-475.2 764.5,-475.2 760.5001,-475.2258 764.4768,-471.6001 756.5002,-475.2516 756.5002,-475.2516"/>
<ellipse fill="none" stroke="#000000" cx="753.3002" cy="-475.2722" rx="3.2" ry="3.2"/>
</g>
<!-- familienmitglied -->
<g id="node4" class="node">
<title>familienmitglied</title>
<g id="a_node4"><a xlink:href="../../tables/familienmitglied.html" xlink:title="familienmitglied" target="_top">
<polygon fill="#ffffff" stroke="transparent" points="515,-274.7 515,-423.7 687,-423.7 687,-274.7 515,-274.7"/>
<polygon fill="#f5f5f5" stroke="transparent" points="515,-400.2 515,-423.2 687,-423.2 687,-400.2 515,-400.2"/>
<polygon fill="none" stroke="#000000" points="515,-400.2 515,-423.2 687,-423.2 687,-400.2 515,-400.2"/>
<text text-anchor="start" x="520" y="-408.8" font-family="Helvetica,sans-Serif" font-weight="bold" font-size="11.00" fill="#000000">familienmitglied</text>
<text text-anchor="start" x="652.0437" y="-408.3" font-family="Helvetica,sans-Serif" font-size="11.00" fill="#000000">[table]</text>
<polygon fill="none" stroke="#000000" points="515,-378.2 515,-400.2 687,-400.2 687,-378.2 515,-378.2"/>
<image xlink:href="../../images/primaryKeys.png" width="11px" height="12px" preserveAspectRatio="xMinYMin meet" x="520" y="-395.2"/>
<text text-anchor="start" x="535" y="-385.3" font-family="Helvetica,sans-Serif" font-size="11.00" fill="#000000">personId</text>
<polygon fill="#ffffff" stroke="transparent" points="515,-356.2 515,-378.2 687,-378.2 687,-356.2 515,-356.2"/>
<polygon fill="none" stroke="#000000" points="515,-356.2 515,-378.2 687,-378.2 687,-356.2 515,-356.2"/>
<image xlink:href="../../images/foreignKeys.png" width="11px" height="12px" preserveAspectRatio="xMinYMin meet" x="520" y="-373.2"/>
<text text-anchor="start" x="535" y="-363.3" font-family="Helvetica,sans-Serif" font-size="11.00" fill="#000000">haushaltId</text>
<polygon fill="#ffffff" stroke="transparent" points="515,-334.2 515,-356.2 687,-356.2 687,-334.2 515,-334.2"/>
<polygon fill="none" stroke="#000000" points="515,-334.2 515,-356.2 687,-356.2 687,-334.2 515,-334.2"/>
<image xlink:href="../../images/foreignKeys.png" width="11px" height="12px" preserveAspectRatio="xMinYMin meet" x="520" y="-351.2"/>
<text text-anchor="start" x="535" y="-341.3" font-family="Helvetica,sans-Serif" font-size="11.00" fill="#000000">nation</text>
<polygon fill="#ffffff" stroke="transparent" points="515,-312.2 515,-334.2 687,-334.2 687,-312.2 515,-312.2"/>
<polygon fill="none" stroke="#000000" points="515,-312.2 515,-334.2 687,-334.2 687,-312.2 515,-312.2"/>
<image xlink:href="../../images/foreignKeys.png" width="11px" height="12px" preserveAspectRatio="xMinYMin meet" x="520" y="-329.2"/>
<text text-anchor="start" x="535" y="-319.3" font-family="Helvetica,sans-Serif" font-size="11.00" fill="#000000">berechtigungId</text>
<polygon fill="none" stroke="#000000" points="515,-293.2 515,-312.2 687,-312.2 687,-293.2 515,-293.2"/>
<text text-anchor="start" x="518" y="-299.3" font-family="Helvetica,sans-Serif" font-size="11.00" fill="#000000">...</text>
<polygon fill="#ffffff" stroke="transparent" points="515,-274.2 515,-293.2 687,-293.2 687,-274.2 515,-274.2"/>
<polygon fill="none" stroke="#000000" points="515,-274.2 515,-293.2 687,-293.2 687,-274.2 515,-274.2"/>
<polygon fill="#ffffff" stroke="transparent" points="516,-275.2 516,-292.2 560,-292.2 560,-275.2 516,-275.2"/>
<text text-anchor="start" x="518" y="-280.3" font-family="Helvetica,sans-Serif" font-size="11.00" fill="#000000">&lt; 3</text>
<polygon fill="#ffffff" stroke="transparent" points="560,-275.2 560,-292.2 642,-292.2 642,-275.2 560,-275.2"/>
<text text-anchor="start" x="574.1045" y="-280.3" font-family="Helvetica,sans-Serif" font-size="11.00" fill="#000000">1,525 rows</text>
<polygon fill="#ffffff" stroke="transparent" points="642,-275.2 642,-292.2 686,-292.2 686,-275.2 642,-275.2"/>
<text text-anchor="start" x="668.4053" y="-280.3" font-family="Helvetica,sans-Serif" font-size="11.00" fill="#000000">3 &gt;</text>
<polygon fill="#000000" stroke="#000000" points="560,-275.2 560,-292.2 560,-292.2 560,-275.2 560,-275.2"/>
<polygon fill="#000000" stroke="#000000" points="642,-275.2 642,-292.2 642,-292.2 642,-275.2 642,-275.2"/>
</a>
</g>
</g>
<!-- einkauf&#45;&gt;familienmitglied -->
<g id="edge3" class="edge">
<title>einkauf:w&#45;&gt;familienmitglied:e</title>
<path fill="none" stroke="#000000" d="M750.1766,-450.45C721.9064,-438.2 726.0872,-389.2 687,-389.2"/>
<polygon fill="#000000" stroke="#000000" points="756.6435,-451.6916 763.8212,-456.7354 760.5717,-452.4458 764.5,-453.2 764.5,-453.2 764.5,-453.2 760.5717,-452.4458 765.1788,-449.6646 756.6435,-451.6916 756.6435,-451.6916"/>
<ellipse fill="none" stroke="#000000" cx="753.5009" cy="-451.0882" rx="3.2" ry="3.2"/>
</g>
<!-- haushalt&#45;&gt;verteilstelle -->
<g id="edge7" class="edge">
<title>haushalt:w&#45;&gt;verteilstelle:e</title>
<path fill="none" stroke="#000000" d="M197.6036,-181.8092C111.9388,-203.2713 260.383,-432.2 150.5,-432.2"/>
<polygon fill="#000000" stroke="#000000" points="204.0495,-181.0888 212.3999,-183.7777 208.0248,-180.6444 212,-180.2 212,-180.2 212,-180.2 208.0248,-180.6444 211.6001,-176.6223 204.0495,-181.0888 204.0495,-181.0888"/>
<ellipse fill="none" stroke="#000000" cx="200.8693" cy="-181.4443" rx="3.2" ry="3.2"/>
</g>
<!-- ausgabegruppe -->
<g id="node5" class="node">
<title>ausgabegruppe</title>
<g id="a_node5"><a xlink:href="../../tables/ausgabegruppe.html" xlink:title="ausgabegruppe" target="_top">
<polygon fill="#ffffff" stroke="transparent" points="8,-65.7 8,-148.7 161,-148.7 161,-65.7 8,-65.7"/>
<polygon fill="#f5f5f5" stroke="transparent" points="8.5,-125.2 8.5,-148.2 161.5,-148.2 161.5,-125.2 8.5,-125.2"/>
<polygon fill="none" stroke="#000000" points="8.5,-125.2 8.5,-148.2 161.5,-148.2 161.5,-125.2 8.5,-125.2"/>
<text text-anchor="start" x="13.5" y="-133.8" font-family="Helvetica,sans-Serif" font-weight="bold" font-size="11.00" fill="#000000">ausgabegruppe</text>
<text text-anchor="start" x="127.0219" y="-133.3" font-family="Helvetica,sans-Serif" font-size="11.00" fill="#000000">[table]</text>
<polygon fill="none" stroke="#000000" points="8.5,-103.2 8.5,-125.2 161.5,-125.2 161.5,-103.2 8.5,-103.2"/>
<image xlink:href="../../images/primaryKeys.png" width="11px" height="12px" preserveAspectRatio="xMinYMin meet" x="13.5" y="-120.2"/>
<text text-anchor="start" x="30.5" y="-110.3" font-family="Helvetica,sans-Serif" font-size="11.00" fill="#000000">ausgabegruppeId</text>
<polygon fill="none" stroke="#000000" points="8.5,-84.2 8.5,-103.2 161.5,-103.2 161.5,-84.2 8.5,-84.2"/>
<text text-anchor="start" x="11.5" y="-90.3" font-family="Helvetica,sans-Serif" font-size="11.00" fill="#000000">...</text>
<polygon fill="#ffffff" stroke="transparent" points="8.5,-65.2 8.5,-84.2 161.5,-84.2 161.5,-65.2 8.5,-65.2"/>
<polygon fill="none" stroke="#000000" points="8.5,-65.2 8.5,-84.2 161.5,-84.2 161.5,-65.2 8.5,-65.2"/>
<polygon fill="#ffffff" stroke="transparent" points="9.5,-66.2 9.5,-83.2 46.5,-83.2 46.5,-66.2 9.5,-66.2"/>
<text text-anchor="start" x="11.5" y="-71.3" font-family="Helvetica,sans-Serif" font-size="11.00" fill="#000000"> &#160;</text>
<polygon fill="#ffffff" stroke="transparent" points="46.5,-66.2 46.5,-83.2 115.5,-83.2 115.5,-66.2 46.5,-66.2"/>
<text text-anchor="start" x="61.7478" y="-71.3" font-family="Helvetica,sans-Serif" font-size="11.00" fill="#000000">24 rows</text>
<polygon fill="#ffffff" stroke="transparent" points="115.5,-66.2 115.5,-83.2 160.5,-83.2 160.5,-66.2 115.5,-66.2"/>
<text text-anchor="start" x="142.9053" y="-71.3" font-family="Helvetica,sans-Serif" font-size="11.00" fill="#000000">2 &gt;</text>
<polygon fill="#000000" stroke="#000000" points="46.5,-66.2 46.5,-83.2 46.5,-83.2 46.5,-66.2 46.5,-66.2"/>
<polygon fill="#000000" stroke="#000000" points="115.5,-66.2 115.5,-83.2 115.5,-83.2 115.5,-66.2 115.5,-66.2"/>
</a>
</g>
</g>
<!-- haushalt&#45;&gt;ausgabegruppe -->
<g id="edge5" class="edge">
<title>haushalt:w&#45;&gt;ausgabegruppe:e</title>
<path fill="none" stroke="#000000" d="M197.4203,-114.2C185.5435,-114.2 178.158,-114.2 161.5,-114.2"/>
<polygon fill="#000000" stroke="#000000" points="204,-114.2001 212,-117.8 208,-114.2 212,-114.2 212,-114.2 212,-114.2 208,-114.2 212,-110.6 204,-114.2001 204,-114.2001"/>
<ellipse fill="none" stroke="#000000" cx="200.8" cy="-114.2001" rx="3.2" ry="3.2"/>
</g>
<!-- plz -->
<g id="node6" class="node">
<title>plz</title>
<g id="a_node6"><a xlink:href="../../tables/plz.html" xlink:title="plz" target="_top">
<polygon fill="#ffffff" stroke="transparent" points="48,-263.7 48,-346.7 121,-346.7 121,-263.7 48,-263.7"/>
<polygon fill="#f5f5f5" stroke="transparent" points="48.5,-323.2 48.5,-346.2 121.5,-346.2 121.5,-323.2 48.5,-323.2"/>
<polygon fill="none" stroke="#000000" points="48.5,-323.2 48.5,-346.2 121.5,-346.2 121.5,-323.2 48.5,-323.2"/>
<text text-anchor="start" x="53.5" y="-331.8" font-family="Helvetica,sans-Serif" font-weight="bold" font-size="11.00" fill="#000000">plz</text>
<text text-anchor="start" x="86.5437" y="-331.3" font-family="Helvetica,sans-Serif" font-size="11.00" fill="#000000">[table]</text>
<polygon fill="none" stroke="#000000" points="48.5,-301.2 48.5,-323.2 121.5,-323.2 121.5,-301.2 48.5,-301.2"/>
<image xlink:href="../../images/primaryKeys.png" width="11px" height="12px" preserveAspectRatio="xMinYMin meet" x="53.5" y="-318.2"/>
<text text-anchor="start" x="77.5" y="-308.3" font-family="Helvetica,sans-Serif" font-size="11.00" fill="#000000">plzId</text>
<polygon fill="none" stroke="#000000" points="48.5,-282.2 48.5,-301.2 121.5,-301.2 121.5,-282.2 48.5,-282.2"/>
<text text-anchor="start" x="51.5" y="-288.3" font-family="Helvetica,sans-Serif" font-size="11.00" fill="#000000">...</text>
<polygon fill="#ffffff" stroke="transparent" points="48.5,-263.2 48.5,-282.2 121.5,-282.2 121.5,-263.2 48.5,-263.2"/>
<polygon fill="none" stroke="#000000" points="48.5,-263.2 48.5,-282.2 121.5,-282.2 121.5,-263.2 48.5,-263.2"/>
<polygon fill="#ffffff" stroke="transparent" points="49.5,-264.2 49.5,-281.2 59.5,-281.2 59.5,-264.2 49.5,-264.2"/>
<text text-anchor="start" x="51.4431" y="-269.3" font-family="Helvetica,sans-Serif" font-size="11.00" fill="#000000"> &#160;</text>
<polygon fill="#ffffff" stroke="transparent" points="59.5,-264.2 59.5,-281.2 101.5,-281.2 101.5,-264.2 59.5,-264.2"/>
<text text-anchor="start" x="61.2478" y="-269.3" font-family="Helvetica,sans-Serif" font-size="11.00" fill="#000000">29 rows</text>
<polygon fill="#ffffff" stroke="transparent" points="101.5,-264.2 101.5,-281.2 120.5,-281.2 120.5,-264.2 101.5,-264.2"/>
<text text-anchor="start" x="103.2027" y="-269.3" font-family="Helvetica,sans-Serif" font-size="11.00" fill="#000000">2 &gt;</text>
<polygon fill="#000000" stroke="#000000" points="59.5,-264.2 59.5,-281.2 59.5,-281.2 59.5,-264.2 59.5,-264.2"/>
<polygon fill="#000000" stroke="#000000" points="101.5,-264.2 101.5,-281.2 101.5,-281.2 101.5,-264.2 101.5,-264.2"/>
</a>
</g>
</g>
<!-- haushalt&#45;&gt;plz -->
<g id="edge6" class="edge">
<title>haushalt:w&#45;&gt;plz:e</title>
<path fill="none" stroke="#000000" d="M197.429,-312.2C168.5747,-312.2 156.3802,-312.2 121.5,-312.2"/>
<polygon fill="#000000" stroke="#000000" points="204,-312.2001 212,-315.8 208,-312.2 212,-312.2 212,-312.2 212,-312.2 208,-312.2 212,-308.6 204,-312.2001 204,-312.2001"/>
<ellipse fill="none" stroke="#000000" cx="200.8" cy="-312.2001" rx="3.2" ry="3.2"/>
</g>
<!-- familienmitglied&#45;&gt;haushalt -->
<g id="edge4" class="edge">
<title>familienmitglied:w&#45;&gt;haushalt:e</title>
<path fill="none" stroke="#000000" d="M500.5097,-368.9188C488.3398,-372.0125 481.3909,-378.2 464,-378.2"/>
<polygon fill="#000000" stroke="#000000" points="507.0557,-368.1424 515.4241,-370.7749 511.0278,-367.6712 515,-367.2 515,-367.2 515,-367.2 511.0278,-367.6712 514.5759,-363.6251 507.0557,-368.1424 507.0557,-368.1424"/>
<ellipse fill="none" stroke="#000000" cx="503.878" cy="-368.5193" rx="3.2" ry="3.2"/>
</g>
<!-- vollmacht -->
<g id="node7" class="node">
<title>vollmacht</title>
<g id="a_node7"><a xlink:href="../../tables/vollmacht.html" xlink:title="vollmacht" target="_top">
<polygon fill="#ffffff" stroke="transparent" points="736,-206.7 736,-333.7 949,-333.7 949,-206.7 736,-206.7"/>
<polygon fill="#f5f5f5" stroke="transparent" points="736.5,-310.2 736.5,-333.2 949.5,-333.2 949.5,-310.2 736.5,-310.2"/>
<polygon fill="none" stroke="#000000" points="736.5,-310.2 736.5,-333.2 949.5,-333.2 949.5,-310.2 736.5,-310.2"/>
<text text-anchor="start" x="741.5" y="-318.8" font-family="Helvetica,sans-Serif" font-weight="bold" font-size="11.00" fill="#000000">vollmacht</text>
<text text-anchor="start" x="914.5437" y="-318.3" font-family="Helvetica,sans-Serif" font-size="11.00" fill="#000000">[table]</text>
<polygon fill="none" stroke="#000000" points="736.5,-288.2 736.5,-310.2 949.5,-310.2 949.5,-288.2 736.5,-288.2"/>
<image xlink:href="../../images/primaryKeys.png" width="11px" height="12px" preserveAspectRatio="xMinYMin meet" x="741.5" y="-305.2"/>
<text text-anchor="start" x="756.5" y="-295.3" font-family="Helvetica,sans-Serif" font-size="11.00" fill="#000000">vollmachtId</text>
<polygon fill="#ffffff" stroke="transparent" points="736.5,-266.2 736.5,-288.2 949.5,-288.2 949.5,-266.2 736.5,-266.2"/>
<polygon fill="none" stroke="#000000" points="736.5,-266.2 736.5,-288.2 949.5,-288.2 949.5,-266.2 736.5,-266.2"/>
<image xlink:href="../../images/foreignKeys.png" width="11px" height="12px" preserveAspectRatio="xMinYMin meet" x="741.5" y="-283.2"/>
<text text-anchor="start" x="756.5" y="-273.3" font-family="Helvetica,sans-Serif" font-size="11.00" fill="#000000">haushaltId</text>
<polygon fill="#ffffff" stroke="transparent" points="736.5,-244.2 736.5,-266.2 949.5,-266.2 949.5,-244.2 736.5,-244.2"/>
<polygon fill="none" stroke="#000000" points="736.5,-244.2 736.5,-266.2 949.5,-266.2 949.5,-244.2 736.5,-244.2"/>
<image xlink:href="../../images/foreignKeys.png" width="11px" height="12px" preserveAspectRatio="xMinYMin meet" x="741.5" y="-261.2"/>
<text text-anchor="start" x="756.5" y="-251.3" font-family="Helvetica,sans-Serif" font-size="11.00" fill="#000000">bevollmaechtigtePersonId</text>
<polygon fill="none" stroke="#000000" points="736.5,-225.2 736.5,-244.2 949.5,-244.2 949.5,-225.2 736.5,-225.2"/>
<text text-anchor="start" x="739.5" y="-231.3" font-family="Helvetica,sans-Serif" font-size="11.00" fill="#000000">...</text>
<polygon fill="#ffffff" stroke="transparent" points="736.5,-206.2 736.5,-225.2 949.5,-225.2 949.5,-206.2 736.5,-206.2"/>
<polygon fill="none" stroke="#000000" points="736.5,-206.2 736.5,-225.2 949.5,-225.2 949.5,-206.2 736.5,-206.2"/>
<polygon fill="#ffffff" stroke="transparent" points="737.5,-207.2 737.5,-224.2 805.5,-224.2 805.5,-207.2 737.5,-207.2"/>
<text text-anchor="start" x="739.5" y="-212.3" font-family="Helvetica,sans-Serif" font-size="11.00" fill="#000000">&lt; 2</text>
<polygon fill="#ffffff" stroke="transparent" points="805.5,-207.2 805.5,-224.2 890.5,-224.2 890.5,-207.2 805.5,-207.2"/>
<text text-anchor="start" x="831.8053" y="-212.3" font-family="Helvetica,sans-Serif" font-size="11.00" fill="#000000">0 rows</text>
<polygon fill="#ffffff" stroke="transparent" points="890.5,-207.2 890.5,-224.2 948.5,-224.2 948.5,-207.2 890.5,-207.2"/>
<text text-anchor="start" x="940.3862" y="-212.3" font-family="Helvetica,sans-Serif" font-size="11.00" fill="#000000"> &#160;</text>
<polygon fill="#000000" stroke="#000000" points="805.5,-207.2 805.5,-224.2 805.5,-224.2 805.5,-207.2 805.5,-207.2"/>
<polygon fill="#000000" stroke="#000000" points="890.5,-207.2 890.5,-224.2 890.5,-224.2 890.5,-207.2 890.5,-207.2"/>
</a>
</g>
</g>
<!-- vollmacht&#45;&gt;haushalt -->
<g id="edge9" class="edge">
<title>vollmacht:w&#45;&gt;haushalt:e</title>
<path fill="none" stroke="#000000" d="M722.1584,-274.7735C713.6892,-271.6003 708.1354,-266.2092 695,-264.2 612.4051,-251.5661 575.7221,-216.6732 507,-264.2 462.4622,-295.0014 518.1511,-378.2 464,-378.2"/>
<polygon fill="#000000" stroke="#000000" points="728.6121,-275.8654 735.8994,-280.7496 732.5561,-276.5327 736.5,-277.2 736.5,-277.2 736.5,-277.2 732.5561,-276.5327 737.1006,-273.6504 728.6121,-275.8654 728.6121,-275.8654"/>
<ellipse fill="none" stroke="#000000" cx="725.4569" cy="-275.3315" rx="3.2" ry="3.2"/>
</g>
<!-- vollmacht&#45;&gt;familienmitglied -->
<g id="edge8" class="edge">
<title>vollmacht:w&#45;&gt;familienmitglied:e</title>
<path fill="none" stroke="#000000" d="M722.1283,-258.5124C686.2991,-279.1473 744.537,-389.2 687,-389.2"/>
<polygon fill="#000000" stroke="#000000" points="728.7044,-256.9968 737.3085,-258.708 732.6022,-256.0984 736.5,-255.2 736.5,-255.2 736.5,-255.2 732.6022,-256.0984 735.6915,-251.692 728.7044,-256.9968 728.7044,-256.9968"/>
<ellipse fill="none" stroke="#000000" cx="725.5861" cy="-257.7155" rx="3.2" ry="3.2"/>
</g>
</g>
</svg>
