<?xml version="1.0" encoding="UTF-8" standalone="no"?>
<!DOCTYPE svg PUBLIC "-//W3C//DTD SVG 1.1//EN"
 "http://www.w3.org/Graphics/SVG/1.1/DTD/svg11.dtd">
<!-- Generated by graphviz version 2.40.1 (20161225.0304)
 -->
<!-- Title: twoDegreesRelationshipsDiagram Pages: 1 -->
<svg width="865pt" height="782pt"
 viewBox="0.00 0.00 865.00 782.20" xmlns="http://www.w3.org/2000/svg" xmlns:xlink="http://www.w3.org/1999/xlink">
<g id="graph0" class="graph" transform="scale(1 1) rotate(0) translate(4 778.2)">
<title>twoDegreesRelationshipsDiagram</title>
<polygon fill="#ffffff" stroke="transparent" points="-4,4 -4,-778.2 861,-778.2 861,4 -4,4"/>
<text text-anchor="middle" x="72.4936" y="-7.3" font-family="Helvetica,sans-Serif" font-size="11.00" fill="#000000">Generated by SchemaSpy</text>
<!-- ausgabegruppe_ausgabetagzeit -->
<g id="node1" class="node">
<title>ausgabegruppe_ausgabetagzeit</title>
<g id="a_node1"><a xlink:href="../../tables/ausgabegruppe_ausgabetagzeit.html" xlink:title="ausgabegruppe_ausgabetagzeit" target="_top">
<polygon fill="#ffffff" stroke="transparent" points="210,-38.2 210,-99.2 483,-99.2 483,-38.2 210,-38.2"/>
<polygon fill="#f5f5f5" stroke="transparent" points="210.5,-75.7 210.5,-98.7 483.5,-98.7 483.5,-75.7 210.5,-75.7"/>
<polygon fill="none" stroke="#000000" points="210.5,-75.7 210.5,-98.7 483.5,-98.7 483.5,-75.7 210.5,-75.7"/>
<text text-anchor="start" x="215.5" y="-84.3" font-family="Helvetica,sans-Serif" font-weight="bold" font-size="11.00" fill="#000000">ausgabegruppe_ausgabetagzeit</text>
<text text-anchor="start" x="449.0219" y="-83.8" font-family="Helvetica,sans-Serif" font-size="11.00" fill="#000000">[table]</text>
<polygon fill="none" stroke="#000000" points="210.5,-56.7 210.5,-75.7 483.5,-75.7 483.5,-56.7 210.5,-56.7"/>
<text text-anchor="start" x="213.5" y="-62.8" font-family="Helvetica,sans-Serif" font-size="11.00" fill="#000000">...</text>
<polygon fill="#ffffff" stroke="transparent" points="210.5,-37.7 210.5,-56.7 483.5,-56.7 483.5,-37.7 210.5,-37.7"/>
<polygon fill="none" stroke="#000000" points="210.5,-37.7 210.5,-56.7 483.5,-56.7 483.5,-37.7 210.5,-37.7"/>
<polygon fill="#ffffff" stroke="transparent" points="211.5,-38.7 211.5,-55.7 299.5,-55.7 299.5,-38.7 211.5,-38.7"/>
<text text-anchor="start" x="213.5" y="-43.8" font-family="Helvetica,sans-Serif" font-size="11.00" fill="#000000">&lt; 2</text>
<polygon fill="#ffffff" stroke="transparent" points="299.5,-38.7 299.5,-55.7 404.5,-55.7 404.5,-38.7 299.5,-38.7"/>
<text text-anchor="start" x="335.8053" y="-43.8" font-family="Helvetica,sans-Serif" font-size="11.00" fill="#000000">0 rows</text>
<polygon fill="#ffffff" stroke="transparent" points="404.5,-38.7 404.5,-55.7 482.5,-55.7 482.5,-38.7 404.5,-38.7"/>
<text text-anchor="start" x="474.3862" y="-43.8" font-family="Helvetica,sans-Serif" font-size="11.00" fill="#000000"> &#160;</text>
<polygon fill="#000000" stroke="#000000" points="299.5,-38.7 299.5,-55.7 299.5,-55.7 299.5,-38.7 299.5,-38.7"/>
<polygon fill="#000000" stroke="#000000" points="404.5,-38.7 404.5,-55.7 404.5,-55.7 404.5,-38.7 404.5,-38.7"/>
</a>
</g>
</g>
<!-- ausgabegruppe -->
<g id="node2" class="node">
<title>ausgabegruppe</title>
<g id="a_node2"><a xlink:href="../../tables/ausgabegruppe.html" xlink:title="ausgabegruppe" target="_top">
<polygon fill="#ffffff" stroke="transparent" points="8,-52.2 8,-135.2 161,-135.2 161,-52.2 8,-52.2"/>
<polygon fill="#f5f5f5" stroke="transparent" points="8.5,-111.7 8.5,-134.7 161.5,-134.7 161.5,-111.7 8.5,-111.7"/>
<polygon fill="none" stroke="#000000" points="8.5,-111.7 8.5,-134.7 161.5,-134.7 161.5,-111.7 8.5,-111.7"/>
<text text-anchor="start" x="13.5" y="-120.3" font-family="Helvetica,sans-Serif" font-weight="bold" font-size="11.00" fill="#000000">ausgabegruppe</text>
<text text-anchor="start" x="127.0219" y="-119.8" font-family="Helvetica,sans-Serif" font-size="11.00" fill="#000000">[table]</text>
<polygon fill="none" stroke="#000000" points="8.5,-89.7 8.5,-111.7 161.5,-111.7 161.5,-89.7 8.5,-89.7"/>
<image xlink:href="../../images/primaryKeys.png" width="11px" height="12px" preserveAspectRatio="xMinYMin meet" x="13.5" y="-106.7"/>
<text text-anchor="start" x="30.5" y="-96.8" font-family="Helvetica,sans-Serif" font-size="11.00" fill="#000000">ausgabegruppeId</text>
<polygon fill="none" stroke="#000000" points="8.5,-70.7 8.5,-89.7 161.5,-89.7 161.5,-70.7 8.5,-70.7"/>
<text text-anchor="start" x="11.5" y="-76.8" font-family="Helvetica,sans-Serif" font-size="11.00" fill="#000000">...</text>
<polygon fill="#ffffff" stroke="transparent" points="8.5,-51.7 8.5,-70.7 161.5,-70.7 161.5,-51.7 8.5,-51.7"/>
<polygon fill="none" stroke="#000000" points="8.5,-51.7 8.5,-70.7 161.5,-70.7 161.5,-51.7 8.5,-51.7"/>
<polygon fill="#ffffff" stroke="transparent" points="9.5,-52.7 9.5,-69.7 46.5,-69.7 46.5,-52.7 9.5,-52.7"/>
<text text-anchor="start" x="11.5" y="-57.8" font-family="Helvetica,sans-Serif" font-size="11.00" fill="#000000"> &#160;</text>
<polygon fill="#ffffff" stroke="transparent" points="46.5,-52.7 46.5,-69.7 115.5,-69.7 115.5,-52.7 46.5,-52.7"/>
<text text-anchor="start" x="61.7478" y="-57.8" font-family="Helvetica,sans-Serif" font-size="11.00" fill="#000000">24 rows</text>
<polygon fill="#ffffff" stroke="transparent" points="115.5,-52.7 115.5,-69.7 160.5,-69.7 160.5,-52.7 115.5,-52.7"/>
<text text-anchor="start" x="142.9053" y="-57.8" font-family="Helvetica,sans-Serif" font-size="11.00" fill="#000000">2 &gt;</text>
<polygon fill="#000000" stroke="#000000" points="46.5,-52.7 46.5,-69.7 46.5,-69.7 46.5,-52.7 46.5,-52.7"/>
<polygon fill="#000000" stroke="#000000" points="115.5,-52.7 115.5,-69.7 115.5,-69.7 115.5,-52.7 115.5,-52.7"/>
</a>
</g>
</g>
<!-- ausgabegruppe_ausgabetagzeit&#45;&gt;ausgabegruppe -->
<g id="edge1" class="edge">
<title>ausgabegruppe_ausgabetagzeit:w&#45;&gt;ausgabegruppe:e</title>
<path fill="none" stroke="#000000" d="M196.4001,-70.2756C184.1818,-79.7628 182.1993,-100.7 161.5,-100.7"/>
<polygon fill="#000000" stroke="#000000" points="202.8906,-68.1694 211.6112,-69.1242 206.6953,-66.9347 210.5,-65.7 210.5,-65.7 210.5,-65.7 206.6953,-66.9347 209.3888,-62.2758 202.8906,-68.1694 202.8906,-68.1694"/>
<ellipse fill="none" stroke="#000000" cx="199.8469" cy="-69.1571" rx="3.2" ry="3.2"/>
</g>
<!-- bescheid -->
<g id="node3" class="node">
<title>bescheid</title>
<g id="a_node3"><a xlink:href="../../tables/bescheid.html" xlink:title="bescheid" target="_top">
<polygon fill="#ffffff" stroke="transparent" points="742,-539.2 742,-600.2 846,-600.2 846,-539.2 742,-539.2"/>
<polygon fill="#f5f5f5" stroke="transparent" points="742,-576.7 742,-599.7 846,-599.7 846,-576.7 742,-576.7"/>
<polygon fill="none" stroke="#000000" points="742,-576.7 742,-599.7 846,-599.7 846,-576.7 742,-576.7"/>
<text text-anchor="start" x="747" y="-585.3" font-family="Helvetica,sans-Serif" font-weight="bold" font-size="11.00" fill="#000000">bescheid</text>
<text text-anchor="start" x="811.5219" y="-584.8" font-family="Helvetica,sans-Serif" font-size="11.00" fill="#000000">[table]</text>
<polygon fill="none" stroke="#000000" points="742,-557.7 742,-576.7 846,-576.7 846,-557.7 742,-557.7"/>
<text text-anchor="start" x="745" y="-563.8" font-family="Helvetica,sans-Serif" font-size="11.00" fill="#000000">...</text>
<polygon fill="#ffffff" stroke="transparent" points="742,-538.7 742,-557.7 846,-557.7 846,-538.7 742,-538.7"/>
<polygon fill="none" stroke="#000000" points="742,-538.7 742,-557.7 846,-557.7 846,-538.7 742,-538.7"/>
<polygon fill="#ffffff" stroke="transparent" points="743,-539.7 743,-556.7 768,-556.7 768,-539.7 743,-539.7"/>
<text text-anchor="start" x="745" y="-544.8" font-family="Helvetica,sans-Serif" font-size="11.00" fill="#000000">&lt; 2</text>
<polygon fill="#ffffff" stroke="transparent" points="768,-539.7 768,-556.7 830,-556.7 830,-539.7 768,-539.7"/>
<text text-anchor="start" x="772.1045" y="-544.8" font-family="Helvetica,sans-Serif" font-size="11.00" fill="#000000">1,280 rows</text>
<polygon fill="#ffffff" stroke="transparent" points="830,-539.7 830,-556.7 845,-556.7 845,-539.7 830,-539.7"/>
<text text-anchor="start" x="836.8862" y="-544.8" font-family="Helvetica,sans-Serif" font-size="11.00" fill="#000000"> &#160;</text>
<polygon fill="#000000" stroke="#000000" points="768,-539.7 768,-556.7 768,-556.7 768,-539.7 768,-539.7"/>
<polygon fill="#000000" stroke="#000000" points="830,-539.7 830,-556.7 830,-556.7 830,-539.7 830,-539.7"/>
</a>
</g>
</g>
<!-- familienmitglied -->
<g id="node4" class="node">
<title>familienmitglied</title>
<g id="a_node4"><a xlink:href="../../tables/familienmitglied.html" xlink:title="familienmitglied" target="_top">
<polygon fill="#ffffff" stroke="transparent" points="532,-524.2 532,-585.2 690,-585.2 690,-524.2 532,-524.2"/>
<polygon fill="#f5f5f5" stroke="transparent" points="532,-561.7 532,-584.7 690,-584.7 690,-561.7 532,-561.7"/>
<polygon fill="none" stroke="#000000" points="532,-561.7 532,-584.7 690,-584.7 690,-561.7 532,-561.7"/>
<text text-anchor="start" x="537" y="-570.3" font-family="Helvetica,sans-Serif" font-weight="bold" font-size="11.00" fill="#000000">familienmitglied</text>
<text text-anchor="start" x="655.5219" y="-569.8" font-family="Helvetica,sans-Serif" font-size="11.00" fill="#000000">[table]</text>
<polygon fill="none" stroke="#000000" points="532,-542.7 532,-561.7 690,-561.7 690,-542.7 532,-542.7"/>
<text text-anchor="start" x="535" y="-548.8" font-family="Helvetica,sans-Serif" font-size="11.00" fill="#000000">...</text>
<polygon fill="#ffffff" stroke="transparent" points="532,-523.7 532,-542.7 690,-542.7 690,-523.7 532,-523.7"/>
<polygon fill="none" stroke="#000000" points="532,-523.7 532,-542.7 690,-542.7 690,-523.7 532,-523.7"/>
<polygon fill="#ffffff" stroke="transparent" points="533,-524.7 533,-541.7 573,-541.7 573,-524.7 533,-524.7"/>
<text text-anchor="start" x="535" y="-529.8" font-family="Helvetica,sans-Serif" font-size="11.00" fill="#000000">&lt; 3</text>
<polygon fill="#ffffff" stroke="transparent" points="573,-524.7 573,-541.7 650,-541.7 650,-524.7 573,-524.7"/>
<text text-anchor="start" x="584.6045" y="-529.8" font-family="Helvetica,sans-Serif" font-size="11.00" fill="#000000">1,525 rows</text>
<polygon fill="#ffffff" stroke="transparent" points="650,-524.7 650,-541.7 689,-541.7 689,-524.7 650,-524.7"/>
<text text-anchor="start" x="671.4053" y="-529.8" font-family="Helvetica,sans-Serif" font-size="11.00" fill="#000000">3 &gt;</text>
<polygon fill="#000000" stroke="#000000" points="573,-524.7 573,-541.7 573,-541.7 573,-524.7 573,-524.7"/>
<polygon fill="#000000" stroke="#000000" points="650,-524.7 650,-541.7 650,-541.7 650,-524.7 650,-524.7"/>
</a>
</g>
</g>
<!-- bescheid&#45;&gt;familienmitglied -->
<g id="edge2" class="edge">
<title>bescheid:w&#45;&gt;familienmitglied:e</title>
<path fill="none" stroke="#000000" d="M727.4969,-566.4746C717.818,-566.1861 707.9575,-565.6378 698.2756,-564.9294"/>
<polygon fill="#000000" stroke="#000000" points="734.001,-566.5756 741.944,-570.2996 738.0005,-566.6378 742,-566.7 742,-566.7 742,-566.7 738.0005,-566.6378 742.056,-563.1004 734.001,-566.5756 734.001,-566.5756"/>
<ellipse fill="none" stroke="#000000" cx="730.8014" cy="-566.5259" rx="3.2" ry="3.2"/>
</g>
<!-- haushalt -->
<g id="node7" class="node">
<title>haushalt</title>
<g id="a_node7"><a xlink:href="../../tables/haushalt.html" xlink:title="haushalt" target="_top">
<polygon fill="#ffffff" stroke="transparent" points="218.5,-147.7 218.5,-523.7 474.5,-523.7 474.5,-147.7 218.5,-147.7"/>
<polygon fill="#f5f5f5" stroke="transparent" points="220.5,-498.7 220.5,-521.7 472.5,-521.7 472.5,-498.7 220.5,-498.7"/>
<polygon fill="none" stroke="#000000" points="220.5,-498.7 220.5,-521.7 472.5,-521.7 472.5,-498.7 220.5,-498.7"/>
<text text-anchor="start" x="225.5" y="-507.3" font-family="Helvetica,sans-Serif" font-weight="bold" font-size="11.00" fill="#000000">haushalt</text>
<text text-anchor="start" x="437.5437" y="-506.8" font-family="Helvetica,sans-Serif" font-size="11.00" fill="#000000">[table]</text>
<polygon fill="none" stroke="#000000" points="220.5,-476.7 220.5,-498.7 411.5,-498.7 411.5,-476.7 220.5,-476.7"/>
<image xlink:href="../../images/primaryKeys.png" width="11px" height="12px" preserveAspectRatio="xMinYMin meet" x="225.5" y="-493.7"/>
<text text-anchor="start" x="240.5" y="-483.8" font-family="Helvetica,sans-Serif" font-size="11.00" fill="#000000">kundennummer</text>
<polygon fill="none" stroke="#000000" points="411.5,-476.7 411.5,-498.7 472.5,-498.7 472.5,-476.7 411.5,-476.7"/>
<text text-anchor="start" x="414.5" y="-484.4" font-family="Helvetica,sans-Serif" font-size="11.00" fill="#000000">int[10]</text>
<polygon fill="none" stroke="#000000" points="220.5,-454.7 220.5,-476.7 411.5,-476.7 411.5,-454.7 220.5,-454.7"/>
<text text-anchor="start" x="240.5" y="-461.8" font-family="Helvetica,sans-Serif" font-size="11.00" fill="#000000">strasse</text>
<polygon fill="none" stroke="#000000" points="411.5,-454.7 411.5,-476.7 472.5,-476.7 472.5,-454.7 411.5,-454.7"/>
<text text-anchor="start" x="414.494" y="-462.4" font-family="Helvetica,sans-Serif" font-size="11.00" fill="#000000">varchar[30]</text>
<polygon fill="none" stroke="#000000" points="220.5,-432.7 220.5,-454.7 411.5,-454.7 411.5,-432.7 220.5,-432.7"/>
<text text-anchor="start" x="240.5" y="-439.8" font-family="Helvetica,sans-Serif" font-size="11.00" fill="#000000">hausnummer</text>
<polygon fill="none" stroke="#000000" points="411.5,-432.7 411.5,-454.7 472.5,-454.7 472.5,-432.7 411.5,-432.7"/>
<text text-anchor="start" x="414.494" y="-440.4" font-family="Helvetica,sans-Serif" font-size="11.00" fill="#000000">varchar[10]</text>
<polygon fill="#ffffff" stroke="transparent" points="220.5,-410.7 220.5,-432.7 411.5,-432.7 411.5,-410.7 220.5,-410.7"/>
<polygon fill="none" stroke="#000000" points="220.5,-410.7 220.5,-432.7 411.5,-432.7 411.5,-410.7 220.5,-410.7"/>
<image xlink:href="../../images/foreignKeys.png" width="11px" height="12px" preserveAspectRatio="xMinYMin meet" x="225.5" y="-427.7"/>
<text text-anchor="start" x="240.5" y="-417.8" font-family="Helvetica,sans-Serif" font-size="11.00" fill="#000000">plz</text>
<polygon fill="none" stroke="#000000" points="411.5,-410.7 411.5,-432.7 472.5,-432.7 472.5,-410.7 411.5,-410.7"/>
<text text-anchor="start" x="414.5" y="-418.4" font-family="Helvetica,sans-Serif" font-size="11.00" fill="#000000">int[10]</text>
<polygon fill="none" stroke="#000000" points="220.5,-388.7 220.5,-410.7 411.5,-410.7 411.5,-388.7 220.5,-388.7"/>
<text text-anchor="start" x="240.5" y="-395.8" font-family="Helvetica,sans-Serif" font-size="11.00" fill="#000000">telefonnummer</text>
<polygon fill="none" stroke="#000000" points="411.5,-388.7 411.5,-410.7 472.5,-410.7 472.5,-388.7 411.5,-388.7"/>
<text text-anchor="start" x="414.494" y="-396.4" font-family="Helvetica,sans-Serif" font-size="11.00" fill="#000000">varchar[20]</text>
<polygon fill="none" stroke="#000000" points="220.5,-366.7 220.5,-388.7 411.5,-388.7 411.5,-366.7 220.5,-366.7"/>
<text text-anchor="start" x="240.5" y="-373.8" font-family="Helvetica,sans-Serif" font-size="11.00" fill="#000000">mobilnummer</text>
<polygon fill="none" stroke="#000000" points="411.5,-366.7 411.5,-388.7 472.5,-388.7 472.5,-366.7 411.5,-366.7"/>
<text text-anchor="start" x="414.494" y="-374.4" font-family="Helvetica,sans-Serif" font-size="11.00" fill="#000000">varchar[15]</text>
<polygon fill="none" stroke="#000000" points="220.5,-344.7 220.5,-366.7 411.5,-366.7 411.5,-344.7 220.5,-344.7"/>
<text text-anchor="start" x="240.5" y="-351.8" font-family="Helvetica,sans-Serif" font-size="11.00" fill="#000000">bemerkung</text>
<polygon fill="none" stroke="#000000" points="411.5,-344.7 411.5,-366.7 472.5,-366.7 472.5,-344.7 411.5,-344.7"/>
<text text-anchor="start" x="414.5" y="-352.4" font-family="Helvetica,sans-Serif" font-size="11.00" fill="#000000">text[65535]</text>
<polygon fill="none" stroke="#000000" points="220.5,-322.7 220.5,-344.7 411.5,-344.7 411.5,-322.7 220.5,-322.7"/>
<text text-anchor="start" x="240.5" y="-329.8" font-family="Helvetica,sans-Serif" font-size="11.00" fill="#000000">kundeSeit</text>
<polygon fill="none" stroke="#000000" points="411.5,-322.7 411.5,-344.7 472.5,-344.7 472.5,-322.7 411.5,-322.7"/>
<text text-anchor="start" x="414.5" y="-330.4" font-family="Helvetica,sans-Serif" font-size="11.00" fill="#000000">date[10]</text>
<polygon fill="none" stroke="#000000" points="220.5,-300.7 220.5,-322.7 411.5,-322.7 411.5,-300.7 220.5,-300.7"/>
<text text-anchor="start" x="240.5" y="-307.8" font-family="Helvetica,sans-Serif" font-size="11.00" fill="#000000">saldo</text>
<polygon fill="none" stroke="#000000" points="411.5,-300.7 411.5,-322.7 472.5,-322.7 472.5,-300.7 411.5,-300.7"/>
<text text-anchor="start" x="414.5" y="-308.4" font-family="Helvetica,sans-Serif" font-size="11.00" fill="#000000">float[12]</text>
<polygon fill="#ffffff" stroke="transparent" points="220.5,-278.7 220.5,-300.7 411.5,-300.7 411.5,-278.7 220.5,-278.7"/>
<polygon fill="none" stroke="#000000" points="220.5,-278.7 220.5,-300.7 411.5,-300.7 411.5,-278.7 220.5,-278.7"/>
<image xlink:href="../../images/foreignKeys.png" width="11px" height="12px" preserveAspectRatio="xMinYMin meet" x="225.5" y="-295.7"/>
<text text-anchor="start" x="240.5" y="-285.8" font-family="Helvetica,sans-Serif" font-size="11.00" fill="#000000">verteilstellenId</text>
<polygon fill="none" stroke="#000000" points="411.5,-278.7 411.5,-300.7 472.5,-300.7 472.5,-278.7 411.5,-278.7"/>
<text text-anchor="start" x="414.5" y="-286.4" font-family="Helvetica,sans-Serif" font-size="11.00" fill="#000000">int[10]</text>
<polygon fill="none" stroke="#000000" points="220.5,-256.7 220.5,-278.7 411.5,-278.7 411.5,-256.7 220.5,-256.7"/>
<text text-anchor="start" x="240.5" y="-263.8" font-family="Helvetica,sans-Serif" font-size="11.00" fill="#000000">istArchiviert</text>
<polygon fill="none" stroke="#000000" points="411.5,-256.7 411.5,-278.7 472.5,-278.7 472.5,-256.7 411.5,-256.7"/>
<text text-anchor="start" x="414.5" y="-264.4" font-family="Helvetica,sans-Serif" font-size="11.00" fill="#000000">bit[1]</text>
<polygon fill="none" stroke="#000000" points="220.5,-234.7 220.5,-256.7 411.5,-256.7 411.5,-234.7 220.5,-234.7"/>
<text text-anchor="start" x="240.5" y="-241.8" font-family="Helvetica,sans-Serif" font-size="11.00" fill="#000000">istGesperrt</text>
<polygon fill="none" stroke="#000000" points="411.5,-234.7 411.5,-256.7 472.5,-256.7 472.5,-234.7 411.5,-234.7"/>
<text text-anchor="start" x="414.5" y="-242.4" font-family="Helvetica,sans-Serif" font-size="11.00" fill="#000000">bit[1]</text>
<polygon fill="#ffffff" stroke="transparent" points="220.5,-212.7 220.5,-234.7 411.5,-234.7 411.5,-212.7 220.5,-212.7"/>
<polygon fill="none" stroke="#000000" points="220.5,-212.7 220.5,-234.7 411.5,-234.7 411.5,-212.7 220.5,-212.7"/>
<image xlink:href="../../images/foreignKeys.png" width="11px" height="12px" preserveAspectRatio="xMinYMin meet" x="225.5" y="-229.7"/>
<text text-anchor="start" x="240.5" y="-219.8" font-family="Helvetica,sans-Serif" font-size="11.00" fill="#000000">ausgabeGruppeId</text>
<polygon fill="none" stroke="#000000" points="411.5,-212.7 411.5,-234.7 472.5,-234.7 472.5,-212.7 411.5,-212.7"/>
<text text-anchor="start" x="414.5" y="-220.4" font-family="Helvetica,sans-Serif" font-size="11.00" fill="#000000">int[10]</text>
<polygon fill="none" stroke="#000000" points="220.5,-190.7 220.5,-212.7 411.5,-212.7 411.5,-190.7 220.5,-190.7"/>
<text text-anchor="start" x="240.5" y="-197.8" font-family="Helvetica,sans-Serif" font-size="11.00" fill="#000000">belieferung</text>
<polygon fill="none" stroke="#000000" points="411.5,-190.7 411.5,-212.7 472.5,-212.7 472.5,-190.7 411.5,-190.7"/>
<text text-anchor="start" x="414.5" y="-198.4" font-family="Helvetica,sans-Serif" font-size="11.00" fill="#000000">bit[1]</text>
<polygon fill="none" stroke="#000000" points="220.5,-168.7 220.5,-190.7 411.5,-190.7 411.5,-168.7 220.5,-168.7"/>
<text text-anchor="start" x="240.5" y="-175.8" font-family="Helvetica,sans-Serif" font-size="11.00" fill="#000000">datenschutzerklaerung</text>
<polygon fill="none" stroke="#000000" points="411.5,-168.7 411.5,-190.7 472.5,-190.7 472.5,-168.7 411.5,-168.7"/>
<text text-anchor="start" x="414.5" y="-176.4" font-family="Helvetica,sans-Serif" font-size="11.00" fill="#000000">bit[1]</text>
<polygon fill="#ffffff" stroke="transparent" points="220.5,-149.7 220.5,-168.7 472.5,-168.7 472.5,-149.7 220.5,-149.7"/>
<polygon fill="none" stroke="#000000" points="220.5,-149.7 220.5,-168.7 472.5,-168.7 472.5,-149.7 220.5,-149.7"/>
<polygon fill="#ffffff" stroke="transparent" points="221.5,-150.7 221.5,-167.7 295.5,-167.7 295.5,-150.7 221.5,-150.7"/>
<text text-anchor="start" x="223.5" y="-155.8" font-family="Helvetica,sans-Serif" font-size="11.00" fill="#000000">&lt; 3</text>
<polygon fill="#ffffff" stroke="transparent" points="295.5,-150.7 295.5,-167.7 398.5,-167.7 398.5,-150.7 295.5,-150.7"/>
<text text-anchor="start" x="324.6904" y="-155.8" font-family="Helvetica,sans-Serif" font-size="11.00" fill="#000000">639 rows</text>
<polygon fill="#ffffff" stroke="transparent" points="398.5,-150.7 398.5,-167.7 471.5,-167.7 471.5,-150.7 398.5,-150.7"/>
<text text-anchor="start" x="453.9053" y="-155.8" font-family="Helvetica,sans-Serif" font-size="11.00" fill="#000000">3 &gt;</text>
<polygon fill="#000000" stroke="#000000" points="295.5,-150.7 295.5,-167.7 295.5,-167.7 295.5,-150.7 295.5,-150.7"/>
<polygon fill="#000000" stroke="#000000" points="398.5,-150.7 398.5,-167.7 398.5,-167.7 398.5,-150.7 398.5,-150.7"/>
<polygon fill="none" stroke="#000000" stroke-width="2" points="219.5,-148.7 219.5,-522.7 473.5,-522.7 473.5,-148.7 219.5,-148.7"/>
</a>
</g>
</g>
<!-- familienmitglied&#45;&gt;haushalt -->
<g id="edge8" class="edge">
<title>familienmitglied:w&#45;&gt;haushalt:e</title>
<path fill="none" stroke="#000000" d="M552.876,-512.4461C529.1386,-499.0721 500.6716,-487.7 472.5,-487.7"/>
<polygon fill="#000000" stroke="#000000" points="558.679,-515.9164 563.6972,-523.1121 562.1119,-517.9695 565.5449,-520.0225 565.5449,-520.0225 565.5449,-520.0225 562.1119,-517.9695 567.3926,-516.9328 558.679,-515.9164 558.679,-515.9164"/>
<ellipse fill="none" stroke="#000000" cx="555.9326" cy="-514.274" rx="3.2" ry="3.2"/>
</g>
<!-- berechtigung -->
<g id="node9" class="node">
<title>berechtigung</title>
<g id="a_node9"><a xlink:href="../../tables/berechtigung.html" xlink:title="berechtigung" target="_top">
<polygon fill="#ffffff" stroke="transparent" points="278,-627.2 278,-688.2 415,-688.2 415,-627.2 278,-627.2"/>
<polygon fill="#f5f5f5" stroke="transparent" points="278.5,-664.7 278.5,-687.7 415.5,-687.7 415.5,-664.7 278.5,-664.7"/>
<polygon fill="none" stroke="#000000" points="278.5,-664.7 278.5,-687.7 415.5,-687.7 415.5,-664.7 278.5,-664.7"/>
<text text-anchor="start" x="283.5" y="-673.3" font-family="Helvetica,sans-Serif" font-weight="bold" font-size="11.00" fill="#000000">berechtigung</text>
<text text-anchor="start" x="381.0219" y="-672.8" font-family="Helvetica,sans-Serif" font-size="11.00" fill="#000000">[table]</text>
<polygon fill="none" stroke="#000000" points="278.5,-645.7 278.5,-664.7 415.5,-664.7 415.5,-645.7 278.5,-645.7"/>
<text text-anchor="start" x="281.5" y="-651.8" font-family="Helvetica,sans-Serif" font-size="11.00" fill="#000000">...</text>
<polygon fill="#ffffff" stroke="transparent" points="278.5,-626.7 278.5,-645.7 415.5,-645.7 415.5,-626.7 278.5,-626.7"/>
<polygon fill="none" stroke="#000000" points="278.5,-626.7 278.5,-645.7 415.5,-645.7 415.5,-626.7 278.5,-626.7"/>
<polygon fill="#ffffff" stroke="transparent" points="279.5,-627.7 279.5,-644.7 313.5,-644.7 313.5,-627.7 279.5,-627.7"/>
<text text-anchor="start" x="281.5" y="-632.8" font-family="Helvetica,sans-Serif" font-size="11.00" fill="#000000"> &#160;</text>
<polygon fill="#ffffff" stroke="transparent" points="313.5,-627.7 313.5,-644.7 372.5,-644.7 372.5,-627.7 313.5,-627.7"/>
<text text-anchor="start" x="326.8053" y="-632.8" font-family="Helvetica,sans-Serif" font-size="11.00" fill="#000000">5 rows</text>
<polygon fill="#ffffff" stroke="transparent" points="372.5,-627.7 372.5,-644.7 414.5,-644.7 414.5,-627.7 372.5,-627.7"/>
<text text-anchor="start" x="396.9053" y="-632.8" font-family="Helvetica,sans-Serif" font-size="11.00" fill="#000000">1 &gt;</text>
<polygon fill="#000000" stroke="#000000" points="313.5,-627.7 313.5,-644.7 313.5,-644.7 313.5,-627.7 313.5,-627.7"/>
<polygon fill="#000000" stroke="#000000" points="372.5,-627.7 372.5,-644.7 372.5,-644.7 372.5,-627.7 372.5,-627.7"/>
</a>
</g>
</g>
<!-- familienmitglied&#45;&gt;berechtigung -->
<g id="edge7" class="edge">
<title>familienmitglied:w&#45;&gt;berechtigung:e</title>
<path fill="none" stroke="#000000" d="M559.3585,-598.0309C521.8887,-625.0434 468.6487,-654.7 415.5,-654.7"/>
<polygon fill="#000000" stroke="#000000" points="564.5347,-594.1743 573.1007,-592.2813 567.7423,-591.7844 570.9498,-589.3945 570.9498,-589.3945 570.9498,-589.3945 567.7423,-591.7844 568.7989,-586.5077 564.5347,-594.1743 564.5347,-594.1743"/>
<ellipse fill="none" stroke="#000000" cx="561.9686" cy="-596.0862" rx="3.2" ry="3.2"/>
</g>
<!-- nation -->
<g id="node10" class="node">
<title>nation</title>
<g id="a_node10"><a xlink:href="../../tables/nation.html" xlink:title="nation" target="_top">
<polygon fill="#ffffff" stroke="transparent" points="304,-545.2 304,-606.2 389,-606.2 389,-545.2 304,-545.2"/>
<polygon fill="#f5f5f5" stroke="transparent" points="304.5,-582.7 304.5,-605.7 389.5,-605.7 389.5,-582.7 304.5,-582.7"/>
<polygon fill="none" stroke="#000000" points="304.5,-582.7 304.5,-605.7 389.5,-605.7 389.5,-582.7 304.5,-582.7"/>
<text text-anchor="start" x="309.5" y="-591.3" font-family="Helvetica,sans-Serif" font-weight="bold" font-size="11.00" fill="#000000">nation</text>
<text text-anchor="start" x="355.0219" y="-590.8" font-family="Helvetica,sans-Serif" font-size="11.00" fill="#000000">[table]</text>
<polygon fill="none" stroke="#000000" points="304.5,-563.7 304.5,-582.7 389.5,-582.7 389.5,-563.7 304.5,-563.7"/>
<text text-anchor="start" x="307.5" y="-569.8" font-family="Helvetica,sans-Serif" font-size="11.00" fill="#000000">...</text>
<polygon fill="#ffffff" stroke="transparent" points="304.5,-544.7 304.5,-563.7 389.5,-563.7 389.5,-544.7 304.5,-544.7"/>
<polygon fill="none" stroke="#000000" points="304.5,-544.7 304.5,-563.7 389.5,-563.7 389.5,-544.7 304.5,-544.7"/>
<polygon fill="#ffffff" stroke="transparent" points="305.5,-545.7 305.5,-562.7 317.5,-562.7 317.5,-545.7 305.5,-545.7"/>
<text text-anchor="start" x="307.5" y="-550.8" font-family="Helvetica,sans-Serif" font-size="11.00" fill="#000000"> &#160;</text>
<polygon fill="#ffffff" stroke="transparent" points="317.5,-545.7 317.5,-562.7 367.5,-562.7 367.5,-545.7 317.5,-545.7"/>
<text text-anchor="start" x="320.1904" y="-550.8" font-family="Helvetica,sans-Serif" font-size="11.00" fill="#000000">190 rows</text>
<polygon fill="#ffffff" stroke="transparent" points="367.5,-545.7 367.5,-562.7 388.5,-562.7 388.5,-545.7 367.5,-545.7"/>
<text text-anchor="start" x="370.9053" y="-550.8" font-family="Helvetica,sans-Serif" font-size="11.00" fill="#000000">1 &gt;</text>
<polygon fill="#000000" stroke="#000000" points="317.5,-545.7 317.5,-562.7 317.5,-562.7 317.5,-545.7 317.5,-545.7"/>
<polygon fill="#000000" stroke="#000000" points="367.5,-545.7 367.5,-562.7 367.5,-562.7 367.5,-545.7 367.5,-545.7"/>
</a>
</g>
</g>
<!-- familienmitglied&#45;&gt;nation -->
<g id="edge9" class="edge">
<title>familienmitglied:w&#45;&gt;nation:e</title>
<path fill="none" stroke="#000000" d="M509.1646,-566.4526C471.6074,-569.8691 428.6694,-572.7 389.5,-572.7"/>
<polygon fill="#000000" stroke="#000000" points="515.8507,-565.82 524.1543,-568.6504 519.8329,-565.4432 523.8152,-565.0664 523.8152,-565.0664 523.8152,-565.0664 519.8329,-565.4432 523.476,-561.4824 515.8507,-565.82 515.8507,-565.82"/>
<ellipse fill="none" stroke="#000000" cx="512.665" cy="-566.1215" rx="3.2" ry="3.2"/>
</g>
<!-- einkauf -->
<g id="node5" class="node">
<title>einkauf</title>
<g id="a_node5"><a xlink:href="../../tables/einkauf.html" xlink:title="einkauf" target="_top">
<polygon fill="#ffffff" stroke="transparent" points="747.5,-241.2 747.5,-302.2 840.5,-302.2 840.5,-241.2 747.5,-241.2"/>
<polygon fill="#f5f5f5" stroke="transparent" points="748,-278.7 748,-301.7 841,-301.7 841,-278.7 748,-278.7"/>
<polygon fill="none" stroke="#000000" points="748,-278.7 748,-301.7 841,-301.7 841,-278.7 748,-278.7"/>
<text text-anchor="start" x="753" y="-287.3" font-family="Helvetica,sans-Serif" font-weight="bold" font-size="11.00" fill="#000000">einkauf</text>
<text text-anchor="start" x="806.5219" y="-286.8" font-family="Helvetica,sans-Serif" font-size="11.00" fill="#000000">[table]</text>
<polygon fill="none" stroke="#000000" points="748,-259.7 748,-278.7 841,-278.7 841,-259.7 748,-259.7"/>
<text text-anchor="start" x="751" y="-265.8" font-family="Helvetica,sans-Serif" font-size="11.00" fill="#000000">...</text>
<polygon fill="#ffffff" stroke="transparent" points="748,-240.7 748,-259.7 841,-259.7 841,-240.7 748,-240.7"/>
<polygon fill="none" stroke="#000000" points="748,-240.7 748,-259.7 841,-259.7 841,-240.7 748,-240.7"/>
<polygon fill="#ffffff" stroke="transparent" points="749,-241.7 749,-258.7 770,-258.7 770,-241.7 749,-241.7"/>
<text text-anchor="start" x="751" y="-246.8" font-family="Helvetica,sans-Serif" font-size="11.00" fill="#000000">&lt; 4</text>
<polygon fill="#ffffff" stroke="transparent" points="770,-241.7 770,-258.7 829,-258.7 829,-241.7 770,-241.7"/>
<text text-anchor="start" x="772.6045" y="-246.8" font-family="Helvetica,sans-Serif" font-size="11.00" fill="#000000">3,276 rows</text>
<polygon fill="#ffffff" stroke="transparent" points="829,-241.7 829,-258.7 840,-258.7 840,-241.7 829,-241.7"/>
<text text-anchor="start" x="831.8862" y="-246.8" font-family="Helvetica,sans-Serif" font-size="11.00" fill="#000000"> &#160;</text>
<polygon fill="#000000" stroke="#000000" points="770,-241.7 770,-258.7 770,-258.7 770,-241.7 770,-241.7"/>
<polygon fill="#000000" stroke="#000000" points="829,-241.7 829,-258.7 829,-258.7 829,-241.7 829,-241.7"/>
</a>
</g>
</g>
<!-- einkauf&#45;&gt;familienmitglied -->
<g id="edge5" class="edge">
<title>einkauf:w&#45;&gt;familienmitglied:e</title>
<path fill="none" stroke="#000000" d="M763.6705,-318.603C726.9625,-375.37 666.019,-469.616 633.3364,-520.1579"/>
<polygon fill="#000000" stroke="#000000" points="767.2165,-313.1192 774.5836,-308.3562 769.3886,-309.7603 771.5606,-306.4014 771.5606,-306.4014 771.5606,-306.4014 769.3886,-309.7603 768.5376,-304.4465 767.2165,-313.1192 767.2165,-313.1192"/>
<ellipse fill="none" stroke="#000000" cx="765.4789" cy="-315.8063" rx="3.2" ry="3.2"/>
</g>
<!-- verteilstelle -->
<g id="node6" class="node">
<title>verteilstelle</title>
<g id="a_node6"><a xlink:href="../../tables/verteilstelle.html" xlink:title="verteilstelle" target="_top">
<polygon fill="#ffffff" stroke="transparent" points="21,-190.2 21,-251.2 148,-251.2 148,-190.2 21,-190.2"/>
<polygon fill="#f5f5f5" stroke="transparent" points="21.5,-227.7 21.5,-250.7 148.5,-250.7 148.5,-227.7 21.5,-227.7"/>
<polygon fill="none" stroke="#000000" points="21.5,-227.7 21.5,-250.7 148.5,-250.7 148.5,-227.7 21.5,-227.7"/>
<text text-anchor="start" x="26.5" y="-236.3" font-family="Helvetica,sans-Serif" font-weight="bold" font-size="11.00" fill="#000000">verteilstelle</text>
<text text-anchor="start" x="114.0219" y="-235.8" font-family="Helvetica,sans-Serif" font-size="11.00" fill="#000000">[table]</text>
<polygon fill="none" stroke="#000000" points="21.5,-208.7 21.5,-227.7 148.5,-227.7 148.5,-208.7 21.5,-208.7"/>
<text text-anchor="start" x="24.5" y="-214.8" font-family="Helvetica,sans-Serif" font-size="11.00" fill="#000000">...</text>
<polygon fill="#ffffff" stroke="transparent" points="21.5,-189.7 21.5,-208.7 148.5,-208.7 148.5,-189.7 21.5,-189.7"/>
<polygon fill="none" stroke="#000000" points="21.5,-189.7 21.5,-208.7 148.5,-208.7 148.5,-189.7 21.5,-189.7"/>
<polygon fill="#ffffff" stroke="transparent" points="22.5,-190.7 22.5,-207.7 52.5,-207.7 52.5,-190.7 22.5,-190.7"/>
<text text-anchor="start" x="24.5" y="-195.8" font-family="Helvetica,sans-Serif" font-size="11.00" fill="#000000"> &#160;</text>
<polygon fill="#ffffff" stroke="transparent" points="52.5,-190.7 52.5,-207.7 108.5,-207.7 108.5,-190.7 52.5,-190.7"/>
<text text-anchor="start" x="64.3053" y="-195.8" font-family="Helvetica,sans-Serif" font-size="11.00" fill="#000000">0 rows</text>
<polygon fill="#ffffff" stroke="transparent" points="108.5,-190.7 108.5,-207.7 147.5,-207.7 147.5,-190.7 108.5,-190.7"/>
<text text-anchor="start" x="129.9053" y="-195.8" font-family="Helvetica,sans-Serif" font-size="11.00" fill="#000000">2 &gt;</text>
<polygon fill="#000000" stroke="#000000" points="52.5,-190.7 52.5,-207.7 52.5,-207.7 52.5,-190.7 52.5,-190.7"/>
<polygon fill="#000000" stroke="#000000" points="108.5,-190.7 108.5,-207.7 108.5,-207.7 108.5,-190.7 108.5,-190.7"/>
</a>
</g>
</g>
<!-- einkauf&#45;&gt;verteilstelle -->
<g id="edge3" class="edge">
<title>einkauf:w&#45;&gt;verteilstelle:e</title>
<path fill="none" stroke="#000000" d="M726.8343,-231.8859C667.2156,-199.0063 576.54,-154.8939 491,-136.7 365.3659,-109.9783 324.3092,-97.477 202,-136.7 171.4359,-146.5015 142.0609,-167.5015 120.3269,-186.0511"/>
<polygon fill="#000000" stroke="#000000" points="732.4575,-235.0265 737.6866,-242.0704 735.9497,-236.9769 739.442,-238.9274 739.442,-238.9274 739.442,-238.9274 735.9497,-236.9769 741.1974,-235.7844 732.4575,-235.0265 732.4575,-235.0265"/>
<ellipse fill="none" stroke="#000000" cx="729.6637" cy="-233.4661" rx="3.2" ry="3.2"/>
</g>
<!-- einkauf&#45;&gt;haushalt -->
<g id="edge4" class="edge">
<title>einkauf:w&#45;&gt;haushalt:e</title>
<path fill="none" stroke="#000000" d="M743.4241,-316.1403C669.3236,-379.3639 533.4564,-487.7 472.5,-487.7"/>
<polygon fill="#000000" stroke="#000000" points="748.6953,-311.6151 757.1104,-309.1357 751.7304,-309.0096 754.7654,-306.4041 754.7654,-306.4041 754.7654,-306.4041 751.7304,-309.0096 752.4205,-303.6726 748.6953,-311.6151 748.6953,-311.6151"/>
<ellipse fill="none" stroke="#000000" cx="746.2673" cy="-313.6995" rx="3.2" ry="3.2"/>
</g>
<!-- warentyp -->
<g id="node8" class="node">
<title>warentyp</title>
<g id="a_node8"><a xlink:href="../../tables/warentyp.html" xlink:title="warentyp" target="_top">
<polygon fill="#ffffff" stroke="transparent" points="557,-38.2 557,-99.2 665,-99.2 665,-38.2 557,-38.2"/>
<polygon fill="#f5f5f5" stroke="transparent" points="557,-75.7 557,-98.7 665,-98.7 665,-75.7 557,-75.7"/>
<polygon fill="none" stroke="#000000" points="557,-75.7 557,-98.7 665,-98.7 665,-75.7 557,-75.7"/>
<text text-anchor="start" x="562" y="-84.3" font-family="Helvetica,sans-Serif" font-weight="bold" font-size="11.00" fill="#000000">warentyp</text>
<text text-anchor="start" x="630.5219" y="-83.8" font-family="Helvetica,sans-Serif" font-size="11.00" fill="#000000">[table]</text>
<polygon fill="none" stroke="#000000" points="557,-56.7 557,-75.7 665,-75.7 665,-56.7 557,-56.7"/>
<text text-anchor="start" x="560" y="-62.8" font-family="Helvetica,sans-Serif" font-size="11.00" fill="#000000">...</text>
<polygon fill="#ffffff" stroke="transparent" points="557,-37.7 557,-56.7 665,-56.7 665,-37.7 557,-37.7"/>
<polygon fill="none" stroke="#000000" points="557,-37.7 557,-56.7 665,-56.7 665,-37.7 557,-37.7"/>
<polygon fill="#ffffff" stroke="transparent" points="558,-38.7 558,-55.7 588,-55.7 588,-38.7 558,-38.7"/>
<text text-anchor="start" x="560" y="-43.8" font-family="Helvetica,sans-Serif" font-size="11.00" fill="#000000">&lt; 1</text>
<polygon fill="#ffffff" stroke="transparent" points="588,-38.7 588,-55.7 635,-55.7 635,-38.7 588,-38.7"/>
<text text-anchor="start" x="595.3053" y="-43.8" font-family="Helvetica,sans-Serif" font-size="11.00" fill="#000000">2 rows</text>
<polygon fill="#ffffff" stroke="transparent" points="635,-38.7 635,-55.7 664,-55.7 664,-38.7 635,-38.7"/>
<text text-anchor="start" x="646.4053" y="-43.8" font-family="Helvetica,sans-Serif" font-size="11.00" fill="#000000">2 &gt;</text>
<polygon fill="#000000" stroke="#000000" points="588,-38.7 588,-55.7 588,-55.7 588,-38.7 588,-38.7"/>
<polygon fill="#000000" stroke="#000000" points="635,-38.7 635,-55.7 635,-55.7 635,-38.7 635,-38.7"/>
</a>
</g>
</g>
<!-- einkauf&#45;&gt;warentyp -->
<g id="edge6" class="edge">
<title>einkauf:w&#45;&gt;warentyp:e</title>
<path fill="none" stroke="#000000" d="M785.5148,-222.4663C771.8617,-161.5282 738.6783,-65.7 665,-65.7"/>
<polygon fill="#000000" stroke="#000000" points="786.8665,-228.9246 784.9818,-237.4924 787.6859,-232.8397 788.5054,-236.7549 788.5054,-236.7549 788.5054,-236.7549 787.6859,-232.8397 792.0291,-236.0174 786.8665,-228.9246 786.8665,-228.9246"/>
<ellipse fill="none" stroke="#000000" cx="786.2109" cy="-225.7924" rx="3.2" ry="3.2"/>
</g>
<!-- haushalt&#45;&gt;ausgabegruppe -->
<g id="edge10" class="edge">
<title>haushalt:w&#45;&gt;ausgabegruppe:e</title>
<path fill="none" stroke="#000000" d="M206.0242,-220.41C170.8579,-200.8496 216.2095,-100.7 161.5,-100.7"/>
<polygon fill="#000000" stroke="#000000" points="212.6989,-221.927 219.7021,-227.2105 216.5995,-222.8135 220.5,-223.7 220.5,-223.7 220.5,-223.7 216.5995,-222.8135 221.2979,-220.1895 212.6989,-221.927 212.6989,-221.927"/>
<ellipse fill="none" stroke="#000000" cx="209.5785" cy="-221.2178" rx="3.2" ry="3.2"/>
</g>
<!-- haushalt&#45;&gt;verteilstelle -->
<g id="edge12" class="edge">
<title>haushalt:w&#45;&gt;verteilstelle:e</title>
<path fill="none" stroke="#000000" d="M205.8819,-288.6789C177.1282,-284.7512 149.1915,-270.1011 127.3825,-255.4021"/>
<polygon fill="#000000" stroke="#000000" points="212.5194,-289.1425 220.2491,-293.2912 216.5097,-289.4212 220.5,-289.7 220.5,-289.7 220.5,-289.7 216.5097,-289.4212 220.7509,-286.1088 212.5194,-289.1425 212.5194,-289.1425"/>
<ellipse fill="none" stroke="#000000" cx="209.3272" cy="-288.9195" rx="3.2" ry="3.2"/>
</g>
<!-- plz -->
<g id="node11" class="node">
<title>plz</title>
<g id="a_node11"><a xlink:href="../../tables/plz.html" xlink:title="plz" target="_top">
<polygon fill="#ffffff" stroke="transparent" points="48,-530.2 48,-613.2 121,-613.2 121,-530.2 48,-530.2"/>
<polygon fill="#f5f5f5" stroke="transparent" points="48.5,-589.7 48.5,-612.7 121.5,-612.7 121.5,-589.7 48.5,-589.7"/>
<polygon fill="none" stroke="#000000" points="48.5,-589.7 48.5,-612.7 121.5,-612.7 121.5,-589.7 48.5,-589.7"/>
<text text-anchor="start" x="53.5" y="-598.3" font-family="Helvetica,sans-Serif" font-weight="bold" font-size="11.00" fill="#000000">plz</text>
<text text-anchor="start" x="86.5437" y="-597.8" font-family="Helvetica,sans-Serif" font-size="11.00" fill="#000000">[table]</text>
<polygon fill="none" stroke="#000000" points="48.5,-567.7 48.5,-589.7 121.5,-589.7 121.5,-567.7 48.5,-567.7"/>
<image xlink:href="../../images/primaryKeys.png" width="11px" height="12px" preserveAspectRatio="xMinYMin meet" x="53.5" y="-584.7"/>
<text text-anchor="start" x="77.5" y="-574.8" font-family="Helvetica,sans-Serif" font-size="11.00" fill="#000000">plzId</text>
<polygon fill="none" stroke="#000000" points="48.5,-548.7 48.5,-567.7 121.5,-567.7 121.5,-548.7 48.5,-548.7"/>
<text text-anchor="start" x="51.5" y="-554.8" font-family="Helvetica,sans-Serif" font-size="11.00" fill="#000000">...</text>
<polygon fill="#ffffff" stroke="transparent" points="48.5,-529.7 48.5,-548.7 121.5,-548.7 121.5,-529.7 48.5,-529.7"/>
<polygon fill="none" stroke="#000000" points="48.5,-529.7 48.5,-548.7 121.5,-548.7 121.5,-529.7 48.5,-529.7"/>
<polygon fill="#ffffff" stroke="transparent" points="49.5,-530.7 49.5,-547.7 59.5,-547.7 59.5,-530.7 49.5,-530.7"/>
<text text-anchor="start" x="51.4431" y="-535.8" font-family="Helvetica,sans-Serif" font-size="11.00" fill="#000000"> &#160;</text>
<polygon fill="#ffffff" stroke="transparent" points="59.5,-530.7 59.5,-547.7 101.5,-547.7 101.5,-530.7 59.5,-530.7"/>
<text text-anchor="start" x="61.2478" y="-535.8" font-family="Helvetica,sans-Serif" font-size="11.00" fill="#000000">29 rows</text>
<polygon fill="#ffffff" stroke="transparent" points="101.5,-530.7 101.5,-547.7 120.5,-547.7 120.5,-530.7 101.5,-530.7"/>
<text text-anchor="start" x="103.2027" y="-535.8" font-family="Helvetica,sans-Serif" font-size="11.00" fill="#000000">2 &gt;</text>
<polygon fill="#000000" stroke="#000000" points="59.5,-530.7 59.5,-547.7 59.5,-547.7 59.5,-530.7 59.5,-530.7"/>
<polygon fill="#000000" stroke="#000000" points="101.5,-530.7 101.5,-547.7 101.5,-547.7 101.5,-530.7 101.5,-530.7"/>
</a>
</g>
</g>
<!-- haushalt&#45;&gt;plz -->
<g id="edge11" class="edge">
<title>haushalt:w&#45;&gt;plz:e</title>
<path fill="none" stroke="#000000" d="M205.9433,-423.6851C146.1167,-441.8592 198.5141,-578.7 121.5,-578.7"/>
<polygon fill="#000000" stroke="#000000" points="212.5734,-422.781 220.9864,-425.267 216.5367,-422.2405 220.5,-421.7 220.5,-421.7 220.5,-421.7 216.5367,-422.2405 220.0136,-418.133 212.5734,-422.781 212.5734,-422.781"/>
<ellipse fill="none" stroke="#000000" cx="209.4027" cy="-423.2134" rx="3.2" ry="3.2"/>
</g>
<!-- ortsteil -->
<g id="node12" class="node">
<title>ortsteil</title>
<g id="a_node12"><a xlink:href="../../tables/ortsteil.html" xlink:title="ortsteil" target="_top">
<polygon fill="#ffffff" stroke="transparent" points="300.5,-709.2 300.5,-770.2 392.5,-770.2 392.5,-709.2 300.5,-709.2"/>
<polygon fill="#f5f5f5" stroke="transparent" points="300.5,-746.7 300.5,-769.7 392.5,-769.7 392.5,-746.7 300.5,-746.7"/>
<polygon fill="none" stroke="#000000" points="300.5,-746.7 300.5,-769.7 392.5,-769.7 392.5,-746.7 300.5,-746.7"/>
<text text-anchor="start" x="305.5" y="-755.3" font-family="Helvetica,sans-Serif" font-weight="bold" font-size="11.00" fill="#000000">ortsteil</text>
<text text-anchor="start" x="358.0219" y="-754.8" font-family="Helvetica,sans-Serif" font-size="11.00" fill="#000000">[table]</text>
<polygon fill="none" stroke="#000000" points="300.5,-727.7 300.5,-746.7 392.5,-746.7 392.5,-727.7 300.5,-727.7"/>
<text text-anchor="start" x="303.5" y="-733.8" font-family="Helvetica,sans-Serif" font-size="11.00" fill="#000000">...</text>
<polygon fill="#ffffff" stroke="transparent" points="300.5,-708.7 300.5,-727.7 392.5,-727.7 392.5,-708.7 300.5,-708.7"/>
<polygon fill="none" stroke="#000000" points="300.5,-708.7 300.5,-727.7 392.5,-727.7 392.5,-708.7 300.5,-708.7"/>
<polygon fill="#ffffff" stroke="transparent" points="301.5,-709.7 301.5,-726.7 329.5,-726.7 329.5,-709.7 301.5,-709.7"/>
<text text-anchor="start" x="303.5" y="-714.8" font-family="Helvetica,sans-Serif" font-size="11.00" fill="#000000">&lt; 1</text>
<polygon fill="#ffffff" stroke="transparent" points="329.5,-709.7 329.5,-726.7 373.5,-726.7 373.5,-709.7 329.5,-709.7"/>
<text text-anchor="start" x="335.3053" y="-714.8" font-family="Helvetica,sans-Serif" font-size="11.00" fill="#000000">0 rows</text>
<polygon fill="#ffffff" stroke="transparent" points="373.5,-709.7 373.5,-726.7 391.5,-726.7 391.5,-709.7 373.5,-709.7"/>
<text text-anchor="start" x="383.3862" y="-714.8" font-family="Helvetica,sans-Serif" font-size="11.00" fill="#000000"> &#160;</text>
<polygon fill="#000000" stroke="#000000" points="329.5,-709.7 329.5,-726.7 329.5,-726.7 329.5,-709.7 329.5,-709.7"/>
<polygon fill="#000000" stroke="#000000" points="373.5,-709.7 373.5,-726.7 373.5,-726.7 373.5,-709.7 373.5,-709.7"/>
</a>
</g>
</g>
<!-- ortsteil&#45;&gt;plz -->
<g id="edge13" class="edge">
<title>ortsteil:w&#45;&gt;plz:e</title>
<path fill="none" stroke="#000000" d="M285.7077,-736.3473C249.9188,-734.462 234.5076,-724.6695 202,-698.7 151.8233,-658.6151 185.7222,-578.7 121.5,-578.7"/>
<polygon fill="#000000" stroke="#000000" points="292.5023,-736.5093 300.4142,-740.299 296.5011,-736.6046 300.5,-736.7 300.5,-736.7 300.5,-736.7 296.5011,-736.6046 300.5858,-733.101 292.5023,-736.5093 292.5023,-736.5093"/>
<ellipse fill="none" stroke="#000000" cx="289.3032" cy="-736.433" rx="3.2" ry="3.2"/>
</g>
<!-- vollmacht -->
<g id="node13" class="node">
<title>vollmacht</title>
<g id="a_node13"><a xlink:href="../../tables/vollmacht.html" xlink:title="vollmacht" target="_top">
<polygon fill="#ffffff" stroke="transparent" points="739,-457.2 739,-518.2 849,-518.2 849,-457.2 739,-457.2"/>
<polygon fill="#f5f5f5" stroke="transparent" points="739,-494.7 739,-517.7 849,-517.7 849,-494.7 739,-494.7"/>
<polygon fill="none" stroke="#000000" points="739,-494.7 739,-517.7 849,-517.7 849,-494.7 739,-494.7"/>
<text text-anchor="start" x="744" y="-503.3" font-family="Helvetica,sans-Serif" font-weight="bold" font-size="11.00" fill="#000000">vollmacht</text>
<text text-anchor="start" x="814.5219" y="-502.8" font-family="Helvetica,sans-Serif" font-size="11.00" fill="#000000">[table]</text>
<polygon fill="none" stroke="#000000" points="739,-475.7 739,-494.7 849,-494.7 849,-475.7 739,-475.7"/>
<text text-anchor="start" x="742" y="-481.8" font-family="Helvetica,sans-Serif" font-size="11.00" fill="#000000">...</text>
<polygon fill="#ffffff" stroke="transparent" points="739,-456.7 739,-475.7 849,-475.7 849,-456.7 739,-456.7"/>
<polygon fill="none" stroke="#000000" points="739,-456.7 739,-475.7 849,-475.7 849,-456.7 739,-456.7"/>
<polygon fill="#ffffff" stroke="transparent" points="740,-457.7 740,-474.7 774,-474.7 774,-457.7 740,-457.7"/>
<text text-anchor="start" x="742" y="-462.8" font-family="Helvetica,sans-Serif" font-size="11.00" fill="#000000">&lt; 2</text>
<polygon fill="#ffffff" stroke="transparent" points="774,-457.7 774,-474.7 824,-474.7 824,-457.7 774,-457.7"/>
<text text-anchor="start" x="782.8053" y="-462.8" font-family="Helvetica,sans-Serif" font-size="11.00" fill="#000000">0 rows</text>
<polygon fill="#ffffff" stroke="transparent" points="824,-457.7 824,-474.7 848,-474.7 848,-457.7 824,-457.7"/>
<text text-anchor="start" x="839.8862" y="-462.8" font-family="Helvetica,sans-Serif" font-size="11.00" fill="#000000"> &#160;</text>
<polygon fill="#000000" stroke="#000000" points="774,-457.7 774,-474.7 774,-474.7 774,-457.7 774,-457.7"/>
<polygon fill="#000000" stroke="#000000" points="824,-457.7 824,-474.7 824,-474.7 824,-457.7 824,-457.7"/>
</a>
</g>
</g>
<!-- vollmacht&#45;&gt;familienmitglied -->
<g id="edge14" class="edge">
<title>vollmacht:w&#45;&gt;familienmitglied:e</title>
<path fill="none" stroke="#000000" d="M717.1806,-515.8252C710.8836,-518.1306 704.4915,-520.4709 698.1276,-522.8008"/>
<polygon fill="#000000" stroke="#000000" points="723.2532,-513.6019 732.0032,-514.232 727.0094,-512.2266 730.7655,-510.8514 730.7655,-510.8514 730.7655,-510.8514 727.0094,-512.2266 729.5278,-507.4709 723.2532,-513.6019 723.2532,-513.6019"/>
<ellipse fill="none" stroke="#000000" cx="720.2483" cy="-514.7021" rx="3.2" ry="3.2"/>
</g>
<!-- vollmacht&#45;&gt;haushalt -->
<g id="edge15" class="edge">
<title>vollmacht:w&#45;&gt;haushalt:e</title>
<path fill="none" stroke="#000000" d="M716.216,-487.7C651.1033,-487.7 555.7402,-487.7 472.5,-487.7"/>
<polygon fill="#000000" stroke="#000000" points="722.8611,-487.7001 730.8611,-491.3 726.8611,-487.7 730.8611,-487.7 730.8611,-487.7 730.8611,-487.7 726.8611,-487.7 730.8611,-484.1 722.8611,-487.7001 722.8611,-487.7001"/>
<ellipse fill="none" stroke="#000000" cx="719.6611" cy="-487.7001" rx="3.2" ry="3.2"/>
</g>
</g>
</svg>
