<?xml version="1.0" encoding="UTF-8" standalone="no"?>
<!DOCTYPE svg PUBLIC "-//W3C//DTD SVG 1.1//EN"
 "http://www.w3.org/Graphics/SVG/1.1/DTD/svg11.dtd">
<!-- Generated by graphviz version 2.40.1 (20161225.0304)
 -->
<!-- Title: oneDegreeRelationshipsDiagram Pages: 1 -->
<svg width="270pt" height="206pt"
 viewBox="0.00 0.00 270.00 206.20" xmlns="http://www.w3.org/2000/svg" xmlns:xlink="http://www.w3.org/1999/xlink">
<g id="graph0" class="graph" transform="scale(1 1) rotate(0) translate(4 202.2)">
<title>oneDegreeRelationshipsDiagram</title>
<polygon fill="#ffffff" stroke="transparent" points="-4,4 -4,-202.2 266,-202.2 266,4 -4,4"/>
<text text-anchor="middle" x="72.4936" y="-7.3" font-family="Helvetica,sans-Serif" font-size="11.00" fill="#000000">Generated by SchemaSpy</text>
<!-- herkunftstatistik -->
<g id="node1" class="node">
<title>herkunftstatistik</title>
<g id="a_node1"><a xlink:href="../../tables/herkunftstatistik.html" xlink:title="herkunftstatistik" target="_top">
<polygon fill="#ffffff" stroke="transparent" points="8,-38.2 8,-194.2 254,-194.2 254,-38.2 8,-38.2"/>
<polygon fill="#f5f5f5" stroke="transparent" points="10,-169.2 10,-192.2 252,-192.2 252,-169.2 10,-169.2"/>
<polygon fill="none" stroke="#000000" points="10,-169.2 10,-192.2 252,-192.2 252,-169.2 10,-169.2"/>
<text text-anchor="start" x="15" y="-177.8" font-family="Helvetica,sans-Serif" font-weight="bold" font-size="11.00" fill="#000000">herkunftstatistik</text>
<text text-anchor="start" x="217.0437" y="-177.3" font-family="Helvetica,sans-Serif" font-size="11.00" fill="#000000">[table]</text>
<polygon fill="none" stroke="#000000" points="10,-147.2 10,-169.2 154,-169.2 154,-147.2 10,-147.2"/>
<image xlink:href="../../images/primaryKeys.png" width="11px" height="12px" preserveAspectRatio="xMinYMin meet" x="15" y="-164.2"/>
<text text-anchor="start" x="30" y="-154.3" font-family="Helvetica,sans-Serif" font-size="11.00" fill="#000000">id</text>
<polygon fill="none" stroke="#000000" points="154,-147.2 154,-169.2 252,-169.2 252,-147.2 154,-147.2"/>
<text text-anchor="start" x="156.8429" y="-154.9" font-family="Helvetica,sans-Serif" font-size="11.00" fill="#000000">bigint unsigned[20]</text>
<polygon fill="#ffffff" stroke="transparent" points="10,-125.2 10,-147.2 154,-147.2 154,-125.2 10,-125.2"/>
<polygon fill="none" stroke="#000000" points="10,-125.2 10,-147.2 154,-147.2 154,-125.2 10,-125.2"/>
<text text-anchor="start" x="30" y="-132.3" font-family="Helvetica,sans-Serif" font-size="11.00" fill="#000000">ort</text>
<polygon fill="none" stroke="#000000" points="154,-125.2 154,-147.2 252,-147.2 252,-125.2 154,-125.2"/>
<text text-anchor="start" x="157" y="-132.9" font-family="Helvetica,sans-Serif" font-size="11.00" fill="#000000">varchar[255]</text>
<polygon fill="#ffffff" stroke="transparent" points="10,-103.2 10,-125.2 154,-125.2 154,-103.2 10,-103.2"/>
<polygon fill="none" stroke="#000000" points="10,-103.2 10,-125.2 154,-125.2 154,-103.2 10,-103.2"/>
<text text-anchor="start" x="30" y="-110.3" font-family="Helvetica,sans-Serif" font-size="11.00" fill="#000000">hausnummer</text>
<polygon fill="none" stroke="#000000" points="154,-103.2 154,-125.2 252,-125.2 252,-103.2 154,-103.2"/>
<text text-anchor="start" x="157" y="-110.9" font-family="Helvetica,sans-Serif" font-size="11.00" fill="#000000">varchar[50]</text>
<polygon fill="#ffffff" stroke="transparent" points="10,-81.2 10,-103.2 154,-103.2 154,-81.2 10,-81.2"/>
<polygon fill="none" stroke="#000000" points="10,-81.2 10,-103.2 154,-103.2 154,-81.2 10,-81.2"/>
<text text-anchor="start" x="30" y="-88.3" font-family="Helvetica,sans-Serif" font-size="11.00" fill="#000000">plz</text>
<polygon fill="none" stroke="#000000" points="154,-81.2 154,-103.2 252,-103.2 252,-81.2 154,-81.2"/>
<text text-anchor="start" x="157" y="-88.9" font-family="Helvetica,sans-Serif" font-size="11.00" fill="#000000">varchar[10]</text>
<polygon fill="none" stroke="#000000" points="10,-59.2 10,-81.2 154,-81.2 154,-59.2 10,-59.2"/>
<text text-anchor="start" x="30" y="-66.3" font-family="Helvetica,sans-Serif" font-size="11.00" fill="#000000">anzahlHaushalte</text>
<polygon fill="none" stroke="#000000" points="154,-59.2 154,-81.2 252,-81.2 252,-59.2 154,-59.2"/>
<text text-anchor="start" x="157" y="-66.9" font-family="Helvetica,sans-Serif" font-size="11.00" fill="#000000">int[10]</text>
<polygon fill="#ffffff" stroke="transparent" points="10,-40.2 10,-59.2 252,-59.2 252,-40.2 10,-40.2"/>
<polygon fill="none" stroke="#000000" points="10,-40.2 10,-59.2 252,-59.2 252,-40.2 10,-40.2"/>
<polygon fill="#ffffff" stroke="transparent" points="11,-41.2 11,-58.2 86,-58.2 86,-41.2 11,-41.2"/>
<text text-anchor="start" x="13" y="-46.3" font-family="Helvetica,sans-Serif" font-size="11.00" fill="#000000">&lt; 0</text>
<polygon fill="#ffffff" stroke="transparent" points="86,-41.2 86,-58.2 177,-58.2 177,-41.2 86,-41.2"/>
<text text-anchor="start" x="115.3053" y="-46.3" font-family="Helvetica,sans-Serif" font-size="11.00" fill="#000000">0 rows</text>
<polygon fill="#ffffff" stroke="transparent" points="177,-41.2 177,-58.2 251,-58.2 251,-41.2 177,-41.2"/>
<text text-anchor="start" x="233.4053" y="-46.3" font-family="Helvetica,sans-Serif" font-size="11.00" fill="#000000">0 &gt;</text>
<polygon fill="#000000" stroke="#000000" points="86,-41.2 86,-58.2 86,-58.2 86,-41.2 86,-41.2"/>
<polygon fill="#000000" stroke="#000000" points="177,-41.2 177,-58.2 177,-58.2 177,-41.2 177,-41.2"/>
<polygon fill="none" stroke="#000000" stroke-width="2" points="9,-39.2 9,-193.2 253,-193.2 253,-39.2 9,-39.2"/>
</a>
</g>
</g>
</g>
</svg>
