<?xml version="1.0" encoding="UTF-8" standalone="no"?>
<!DOCTYPE svg PUBLIC "-//W3C//DTD SVG 1.1//EN"
 "http://www.w3.org/Graphics/SVG/1.1/DTD/svg11.dtd">
<!-- Generated by graphviz version 2.40.1 (20161225.0304)
 -->
<!-- Title: oneDegreeRelationshipsDiagramImplied Pages: 1 -->
<svg width="402pt" height="199pt"
 viewBox="0.00 0.00 402.00 199.20" xmlns="http://www.w3.org/2000/svg" xmlns:xlink="http://www.w3.org/1999/xlink">
<g id="graph0" class="graph" transform="scale(1 1) rotate(0) translate(4 195.2)">
<title>oneDegreeRelationshipsDiagramImplied</title>
<polygon fill="#ffffff" stroke="transparent" points="-4,4 -4,-195.2 398,-195.2 398,4 -4,4"/>
<text text-anchor="middle" x="72.4936" y="-7.3" font-family="Helvetica,sans-Serif" font-size="11.00" fill="#000000">Generated by SchemaSpy</text>
<!-- altersgruppen -->
<g id="node1" class="node">
<title>altersgruppen</title>
<g id="a_node1"><a xlink:href="../../tables/altersgruppen.html" xlink:title="altersgruppen" target="_top">
<polygon fill="#ffffff" stroke="transparent" points="243,-38.2 243,-187.2 386,-187.2 386,-38.2 243,-38.2"/>
<polygon fill="#f5f5f5" stroke="transparent" points="243.5,-163.7 243.5,-186.7 386.5,-186.7 386.5,-163.7 243.5,-163.7"/>
<polygon fill="none" stroke="#000000" points="243.5,-163.7 243.5,-186.7 386.5,-186.7 386.5,-163.7 243.5,-163.7"/>
<text text-anchor="start" x="248.5" y="-172.3" font-family="Helvetica,sans-Serif" font-weight="bold" font-size="11.00" fill="#000000">altersgruppen</text>
<text text-anchor="start" x="352.0219" y="-171.8" font-family="Helvetica,sans-Serif" font-size="11.00" fill="#000000">[table]</text>
<polygon fill="none" stroke="#000000" points="243.5,-141.7 243.5,-163.7 386.5,-163.7 386.5,-141.7 243.5,-141.7"/>
<image xlink:href="../../images/primaryKeys.png" width="11px" height="12px" preserveAspectRatio="xMinYMin meet" x="248.5" y="-158.7"/>
<text text-anchor="start" x="270.5" y="-148.8" font-family="Helvetica,sans-Serif" font-size="11.00" fill="#000000">id</text>
<polygon fill="#ffffff" stroke="transparent" points="243.5,-119.7 243.5,-141.7 386.5,-141.7 386.5,-119.7 243.5,-119.7"/>
<polygon fill="none" stroke="#000000" points="243.5,-119.7 243.5,-141.7 386.5,-141.7 386.5,-119.7 243.5,-119.7"/>
<image xlink:href="../../images/foreignKeys.png" width="11px" height="12px" preserveAspectRatio="xMinYMin meet" x="248.5" y="-136.7"/>
<text text-anchor="start" x="270.5" y="-126.8" font-family="Helvetica,sans-Serif" font-size="11.00" fill="#000000">year</text>
<polygon fill="#ffffff" stroke="transparent" points="243.5,-97.7 243.5,-119.7 386.5,-119.7 386.5,-97.7 243.5,-97.7"/>
<polygon fill="none" stroke="#000000" points="243.5,-97.7 243.5,-119.7 386.5,-119.7 386.5,-97.7 243.5,-97.7"/>
<text text-anchor="start" x="270.5" y="-104.8" font-family="Helvetica,sans-Serif" font-size="11.00" fill="#000000">startAlter</text>
<polygon fill="#ffffff" stroke="transparent" points="243.5,-75.7 243.5,-97.7 386.5,-97.7 386.5,-75.7 243.5,-75.7"/>
<polygon fill="none" stroke="#000000" points="243.5,-75.7 243.5,-97.7 386.5,-97.7 386.5,-75.7 243.5,-75.7"/>
<text text-anchor="start" x="270.5" y="-82.8" font-family="Helvetica,sans-Serif" font-size="11.00" fill="#000000">endAlter</text>
<polygon fill="none" stroke="#000000" points="243.5,-56.7 243.5,-75.7 386.5,-75.7 386.5,-56.7 243.5,-56.7"/>
<text text-anchor="start" x="246.5" y="-62.8" font-family="Helvetica,sans-Serif" font-size="11.00" fill="#000000">...</text>
<polygon fill="#ffffff" stroke="transparent" points="243.5,-37.7 243.5,-56.7 386.5,-56.7 386.5,-37.7 243.5,-37.7"/>
<polygon fill="none" stroke="#000000" points="243.5,-37.7 243.5,-56.7 386.5,-56.7 386.5,-37.7 243.5,-37.7"/>
<polygon fill="#ffffff" stroke="transparent" points="244.5,-38.7 244.5,-55.7 289.5,-55.7 289.5,-38.7 244.5,-38.7"/>
<text text-anchor="start" x="246.5" y="-43.8" font-family="Helvetica,sans-Serif" font-size="11.00" fill="#000000">&lt; 1</text>
<polygon fill="#ffffff" stroke="transparent" points="289.5,-38.7 289.5,-55.7 350.5,-55.7 350.5,-38.7 289.5,-38.7"/>
<text text-anchor="start" x="303.8053" y="-43.8" font-family="Helvetica,sans-Serif" font-size="11.00" fill="#000000">0 rows</text>
<polygon fill="#ffffff" stroke="transparent" points="350.5,-38.7 350.5,-55.7 385.5,-55.7 385.5,-38.7 350.5,-38.7"/>
<text text-anchor="start" x="377.3862" y="-43.8" font-family="Helvetica,sans-Serif" font-size="11.00" fill="#000000"> &#160;</text>
<polygon fill="#000000" stroke="#000000" points="289.5,-38.7 289.5,-55.7 289.5,-55.7 289.5,-38.7 289.5,-38.7"/>
<polygon fill="#000000" stroke="#000000" points="350.5,-38.7 350.5,-55.7 350.5,-55.7 350.5,-38.7 350.5,-38.7"/>
</a>
</g>
</g>
<!-- jahresergebnisse -->
<g id="node2" class="node">
<title>jahresergebnisse</title>
<g id="a_node2"><a xlink:href="../../tables/jahresergebnisse.html" xlink:title="jahresergebnisse" target="_top">
<polygon fill="#ffffff" stroke="transparent" points="8,-76.7 8,-166.7 194,-166.7 194,-76.7 8,-76.7"/>
<polygon fill="#f5f5f5" stroke="transparent" points="10,-141.7 10,-164.7 192,-164.7 192,-141.7 10,-141.7"/>
<polygon fill="none" stroke="#000000" points="10,-141.7 10,-164.7 192,-164.7 192,-141.7 10,-141.7"/>
<text text-anchor="start" x="15" y="-150.3" font-family="Helvetica,sans-Serif" font-weight="bold" font-size="11.00" fill="#000000">jahresergebnisse</text>
<text text-anchor="start" x="157.0437" y="-149.8" font-family="Helvetica,sans-Serif" font-size="11.00" fill="#000000">[table]</text>
<polygon fill="none" stroke="#000000" points="10,-119.7 10,-141.7 157,-141.7 157,-119.7 10,-119.7"/>
<image xlink:href="../../images/primaryKeys.png" width="11px" height="12px" preserveAspectRatio="xMinYMin meet" x="15" y="-136.7"/>
<text text-anchor="start" x="30" y="-126.8" font-family="Helvetica,sans-Serif" font-size="11.00" fill="#000000">year</text>
<polygon fill="none" stroke="#000000" points="157,-119.7 157,-141.7 192,-141.7 192,-119.7 157,-119.7"/>
<text text-anchor="start" x="159.5219" y="-127.4" font-family="Helvetica,sans-Serif" font-size="11.00" fill="#000000">int[10]</text>
<polygon fill="none" stroke="#000000" points="10,-97.7 10,-119.7 157,-119.7 157,-97.7 10,-97.7"/>
<text text-anchor="start" x="30" y="-104.8" font-family="Helvetica,sans-Serif" font-size="11.00" fill="#000000">jahresergebnis</text>
<polygon fill="none" stroke="#000000" points="157,-97.7 157,-119.7 192,-119.7 192,-97.7 157,-97.7"/>
<text text-anchor="start" x="159.5219" y="-105.4" font-family="Helvetica,sans-Serif" font-size="11.00" fill="#000000">int[10]</text>
<polygon fill="#ffffff" stroke="transparent" points="10,-78.7 10,-97.7 192,-97.7 192,-78.7 10,-78.7"/>
<polygon fill="none" stroke="#000000" points="10,-78.7 10,-97.7 192,-97.7 192,-78.7 10,-78.7"/>
<polygon fill="#ffffff" stroke="transparent" points="11,-79.7 11,-96.7 66,-96.7 66,-79.7 11,-79.7"/>
<text text-anchor="start" x="13" y="-84.8" font-family="Helvetica,sans-Serif" font-size="11.00" fill="#000000">&lt; 0</text>
<polygon fill="#ffffff" stroke="transparent" points="66,-79.7 66,-96.7 137,-96.7 137,-79.7 66,-79.7"/>
<text text-anchor="start" x="85.3053" y="-84.8" font-family="Helvetica,sans-Serif" font-size="11.00" fill="#000000">0 rows</text>
<polygon fill="#ffffff" stroke="transparent" points="137,-79.7 137,-96.7 191,-96.7 191,-79.7 137,-79.7"/>
<text text-anchor="start" x="173.4053" y="-84.8" font-family="Helvetica,sans-Serif" font-size="11.00" fill="#000000">1 &gt;</text>
<polygon fill="#000000" stroke="#000000" points="66,-79.7 66,-96.7 66,-96.7 66,-79.7 66,-79.7"/>
<polygon fill="#000000" stroke="#000000" points="137,-79.7 137,-96.7 137,-96.7 137,-79.7 137,-79.7"/>
<polygon fill="none" stroke="#000000" stroke-width="2" points="9,-77.7 9,-165.7 193,-165.7 193,-77.7 9,-77.7"/>
</a>
</g>
</g>
<!-- altersgruppen&#45;&gt;jahresergebnisse -->
<g id="edge1" class="edge">
<title>altersgruppen:w&#45;&gt;jahresergebnisse:e</title>
<path fill="none" stroke="#000000" stroke-dasharray="5,2" d="M229.0156,-130.7C216.6771,-130.7 209.1667,-130.7 192,-130.7"/>
<polygon fill="#000000" stroke="#000000" points="235.5,-130.7001 243.5,-134.3 239.5,-130.7 243.5,-130.7 243.5,-130.7 243.5,-130.7 239.5,-130.7 243.5,-127.1 235.5,-130.7001 235.5,-130.7001"/>
<ellipse fill="none" stroke="#000000" cx="232.3" cy="-130.7001" rx="3.2" ry="3.2"/>
</g>
</g>
</svg>
