<?xml version="1.0" encoding="UTF-8" standalone="no"?>
<!DOCTYPE svg PUBLIC "-//W3C//DTD SVG 1.1//EN"
 "http://www.w3.org/Graphics/SVG/1.1/DTD/svg11.dtd">
<!-- Generated by graphviz version 2.40.1 (20161225.0304)
 -->
<!-- Title: oneDegreeRelationshipsDiagram Pages: 1 -->
<svg width="303pt" height="206pt"
 viewBox="0.00 0.00 303.00 206.20" xmlns="http://www.w3.org/2000/svg" xmlns:xlink="http://www.w3.org/1999/xlink">
<g id="graph0" class="graph" transform="scale(1 1) rotate(0) translate(4 202.2)">
<title>oneDegreeRelationshipsDiagram</title>
<polygon fill="#ffffff" stroke="transparent" points="-4,4 -4,-202.2 299,-202.2 299,4 -4,4"/>
<text text-anchor="middle" x="72.4936" y="-7.3" font-family="Helvetica,sans-Serif" font-size="11.00" fill="#000000">Generated by SchemaSpy</text>
<!-- jahresuebersichtstatistik -->
<g id="node1" class="node">
<title>jahresuebersichtstatistik</title>
<g id="a_node1"><a xlink:href="../../tables/jahresuebersichtstatistik.html" xlink:title="jahresuebersichtstatistik" target="_top">
<polygon fill="#ffffff" stroke="transparent" points="8,-38.2 8,-194.2 287,-194.2 287,-38.2 8,-38.2"/>
<polygon fill="#f5f5f5" stroke="transparent" points="10.5,-169.2 10.5,-192.2 285.5,-192.2 285.5,-169.2 10.5,-169.2"/>
<polygon fill="none" stroke="#000000" points="10.5,-169.2 10.5,-192.2 285.5,-192.2 285.5,-169.2 10.5,-169.2"/>
<text text-anchor="start" x="15.5" y="-177.8" font-family="Helvetica,sans-Serif" font-weight="bold" font-size="11.00" fill="#000000">jahresuebersichtstatistik</text>
<text text-anchor="start" x="250.5437" y="-177.3" font-family="Helvetica,sans-Serif" font-size="11.00" fill="#000000">[table]</text>
<polygon fill="none" stroke="#000000" points="10.5,-147.2 10.5,-169.2 214.5,-169.2 214.5,-147.2 10.5,-147.2"/>
<text text-anchor="start" x="30.5" y="-154.3" font-family="Helvetica,sans-Serif" font-size="11.00" fill="#000000">monat</text>
<polygon fill="none" stroke="#000000" points="214.5,-147.2 214.5,-169.2 285.5,-169.2 285.5,-147.2 214.5,-147.2"/>
<text text-anchor="start" x="217.5" y="-154.9" font-family="Helvetica,sans-Serif" font-size="11.00" fill="#000000">varchar[20]</text>
<polygon fill="none" stroke="#000000" points="10.5,-125.2 10.5,-147.2 214.5,-147.2 214.5,-125.2 10.5,-125.2"/>
<text text-anchor="start" x="30.5" y="-132.3" font-family="Helvetica,sans-Serif" font-size="11.00" fill="#000000">anzahlPersonen</text>
<polygon fill="none" stroke="#000000" points="214.5,-125.2 214.5,-147.2 285.5,-147.2 285.5,-125.2 214.5,-125.2"/>
<text text-anchor="start" x="217.5" y="-132.9" font-family="Helvetica,sans-Serif" font-size="11.00" fill="#000000">int[10]</text>
<polygon fill="none" stroke="#000000" points="10.5,-103.2 10.5,-125.2 214.5,-125.2 214.5,-103.2 10.5,-103.2"/>
<text text-anchor="start" x="30.5" y="-110.3" font-family="Helvetica,sans-Serif" font-size="11.00" fill="#000000">gesamtUmsatzHaushalt</text>
<polygon fill="none" stroke="#000000" points="214.5,-103.2 214.5,-125.2 285.5,-125.2 285.5,-103.2 214.5,-103.2"/>
<text text-anchor="start" x="217.2981" y="-110.9" font-family="Helvetica,sans-Serif" font-size="11.00" fill="#000000">decimal[10,2]</text>
<polygon fill="none" stroke="#000000" points="10.5,-81.2 10.5,-103.2 214.5,-103.2 214.5,-81.2 10.5,-81.2"/>
<text text-anchor="start" x="30.5" y="-88.3" font-family="Helvetica,sans-Serif" font-size="11.00" fill="#000000">gesamtUmsatzEinkauf</text>
<polygon fill="none" stroke="#000000" points="214.5,-81.2 214.5,-103.2 285.5,-103.2 285.5,-81.2 214.5,-81.2"/>
<text text-anchor="start" x="217.2981" y="-88.9" font-family="Helvetica,sans-Serif" font-size="11.00" fill="#000000">decimal[10,2]</text>
<polygon fill="none" stroke="#000000" points="10.5,-59.2 10.5,-81.2 214.5,-81.2 214.5,-59.2 10.5,-59.2"/>
<text text-anchor="start" x="30.5" y="-66.3" font-family="Helvetica,sans-Serif" font-size="11.00" fill="#000000">neuzugaenge</text>
<polygon fill="none" stroke="#000000" points="214.5,-59.2 214.5,-81.2 285.5,-81.2 285.5,-59.2 214.5,-59.2"/>
<text text-anchor="start" x="217.5" y="-66.9" font-family="Helvetica,sans-Serif" font-size="11.00" fill="#000000">int[10]</text>
<polygon fill="#ffffff" stroke="transparent" points="10.5,-40.2 10.5,-59.2 285.5,-59.2 285.5,-40.2 10.5,-40.2"/>
<polygon fill="none" stroke="#000000" points="10.5,-40.2 10.5,-59.2 285.5,-59.2 285.5,-40.2 10.5,-40.2"/>
<polygon fill="#ffffff" stroke="transparent" points="11.5,-41.2 11.5,-58.2 95.5,-58.2 95.5,-41.2 11.5,-41.2"/>
<text text-anchor="start" x="13.5" y="-46.3" font-family="Helvetica,sans-Serif" font-size="11.00" fill="#000000">&lt; 0</text>
<polygon fill="#ffffff" stroke="transparent" points="95.5,-41.2 95.5,-58.2 201.5,-58.2 201.5,-41.2 95.5,-41.2"/>
<text text-anchor="start" x="129.2478" y="-46.3" font-family="Helvetica,sans-Serif" font-size="11.00" fill="#000000">14 rows</text>
<polygon fill="#ffffff" stroke="transparent" points="201.5,-41.2 201.5,-58.2 284.5,-58.2 284.5,-41.2 201.5,-41.2"/>
<text text-anchor="start" x="266.9053" y="-46.3" font-family="Helvetica,sans-Serif" font-size="11.00" fill="#000000">0 &gt;</text>
<polygon fill="#000000" stroke="#000000" points="95.5,-41.2 95.5,-58.2 95.5,-58.2 95.5,-41.2 95.5,-41.2"/>
<polygon fill="#000000" stroke="#000000" points="201.5,-41.2 201.5,-58.2 201.5,-58.2 201.5,-41.2 201.5,-41.2"/>
<polygon fill="none" stroke="#000000" stroke-width="2" points="9,-39.2 9,-193.2 286,-193.2 286,-39.2 9,-39.2"/>
</a>
</g>
</g>
</g>
</svg>
