<?xml version="1.0" encoding="UTF-8" standalone="no"?>
<!DOCTYPE svg PUBLIC "-//W3C//DTD SVG 1.1//EN"
 "http://www.w3.org/Graphics/SVG/1.1/DTD/svg11.dtd">
<!-- Generated by graphviz version 2.40.1 (20161225.0304)
 -->
<!-- Title: twoDegreesRelationshipsDiagram Pages: 1 -->
<svg width="590pt" height="385pt"
 viewBox="0.00 0.00 590.00 385.20" xmlns="http://www.w3.org/2000/svg" xmlns:xlink="http://www.w3.org/1999/xlink">
<g id="graph0" class="graph" transform="scale(1 1) rotate(0) translate(4 381.2)">
<title>twoDegreesRelationshipsDiagram</title>
<polygon fill="#ffffff" stroke="transparent" points="-4,4 -4,-381.2 586,-381.2 586,4 -4,4"/>
<text text-anchor="middle" x="72.4936" y="-7.3" font-family="Helvetica,sans-Serif" font-size="11.00" fill="#000000">Generated by SchemaSpy</text>
<!-- bescheid -->
<g id="node1" class="node">
<title>bescheid</title>
<g id="a_node1"><a xlink:href="../../tables/bescheid.html" xlink:title="bescheid" target="_top">
<polygon fill="#ffffff" stroke="transparent" points="467,-148.2 467,-209.2 571,-209.2 571,-148.2 467,-148.2"/>
<polygon fill="#f5f5f5" stroke="transparent" points="467,-185.7 467,-208.7 571,-208.7 571,-185.7 467,-185.7"/>
<polygon fill="none" stroke="#000000" points="467,-185.7 467,-208.7 571,-208.7 571,-185.7 467,-185.7"/>
<text text-anchor="start" x="472" y="-194.3" font-family="Helvetica,sans-Serif" font-weight="bold" font-size="11.00" fill="#000000">bescheid</text>
<text text-anchor="start" x="536.5219" y="-193.8" font-family="Helvetica,sans-Serif" font-size="11.00" fill="#000000">[table]</text>
<polygon fill="none" stroke="#000000" points="467,-166.7 467,-185.7 571,-185.7 571,-166.7 467,-166.7"/>
<text text-anchor="start" x="470" y="-172.8" font-family="Helvetica,sans-Serif" font-size="11.00" fill="#000000">...</text>
<polygon fill="#ffffff" stroke="transparent" points="467,-147.7 467,-166.7 571,-166.7 571,-147.7 467,-147.7"/>
<polygon fill="none" stroke="#000000" points="467,-147.7 467,-166.7 571,-166.7 571,-147.7 467,-147.7"/>
<polygon fill="#ffffff" stroke="transparent" points="468,-148.7 468,-165.7 493,-165.7 493,-148.7 468,-148.7"/>
<text text-anchor="start" x="470" y="-153.8" font-family="Helvetica,sans-Serif" font-size="11.00" fill="#000000">&lt; 2</text>
<polygon fill="#ffffff" stroke="transparent" points="493,-148.7 493,-165.7 555,-165.7 555,-148.7 493,-148.7"/>
<text text-anchor="start" x="497.1045" y="-153.8" font-family="Helvetica,sans-Serif" font-size="11.00" fill="#000000">1,280 rows</text>
<polygon fill="#ffffff" stroke="transparent" points="555,-148.7 555,-165.7 570,-165.7 570,-148.7 555,-148.7"/>
<text text-anchor="start" x="561.8862" y="-153.8" font-family="Helvetica,sans-Serif" font-size="11.00" fill="#000000"> &#160;</text>
<polygon fill="#000000" stroke="#000000" points="493,-148.7 493,-165.7 493,-165.7 493,-148.7 493,-148.7"/>
<polygon fill="#000000" stroke="#000000" points="555,-148.7 555,-165.7 555,-165.7 555,-148.7 555,-148.7"/>
</a>
</g>
</g>
<!-- familienmitglied -->
<g id="node2" class="node">
<title>familienmitglied</title>
<g id="a_node2"><a xlink:href="../../tables/familienmitglied.html" xlink:title="familienmitglied" target="_top">
<polygon fill="#ffffff" stroke="transparent" points="243,-139.2 243,-288.2 415,-288.2 415,-139.2 243,-139.2"/>
<polygon fill="#f5f5f5" stroke="transparent" points="243,-264.7 243,-287.7 415,-287.7 415,-264.7 243,-264.7"/>
<polygon fill="none" stroke="#000000" points="243,-264.7 243,-287.7 415,-287.7 415,-264.7 243,-264.7"/>
<text text-anchor="start" x="248" y="-273.3" font-family="Helvetica,sans-Serif" font-weight="bold" font-size="11.00" fill="#000000">familienmitglied</text>
<text text-anchor="start" x="380.0437" y="-272.8" font-family="Helvetica,sans-Serif" font-size="11.00" fill="#000000">[table]</text>
<polygon fill="none" stroke="#000000" points="243,-242.7 243,-264.7 415,-264.7 415,-242.7 243,-242.7"/>
<image xlink:href="../../images/primaryKeys.png" width="11px" height="12px" preserveAspectRatio="xMinYMin meet" x="248" y="-259.7"/>
<text text-anchor="start" x="263" y="-249.8" font-family="Helvetica,sans-Serif" font-size="11.00" fill="#000000">personId</text>
<polygon fill="#ffffff" stroke="transparent" points="243,-220.7 243,-242.7 415,-242.7 415,-220.7 243,-220.7"/>
<polygon fill="none" stroke="#000000" points="243,-220.7 243,-242.7 415,-242.7 415,-220.7 243,-220.7"/>
<image xlink:href="../../images/foreignKeys.png" width="11px" height="12px" preserveAspectRatio="xMinYMin meet" x="248" y="-237.7"/>
<text text-anchor="start" x="263" y="-227.8" font-family="Helvetica,sans-Serif" font-size="11.00" fill="#000000">haushaltId</text>
<polygon fill="#ffffff" stroke="transparent" points="243,-198.7 243,-220.7 415,-220.7 415,-198.7 243,-198.7"/>
<polygon fill="none" stroke="#000000" points="243,-198.7 243,-220.7 415,-220.7 415,-198.7 243,-198.7"/>
<image xlink:href="../../images/foreignKeys.png" width="11px" height="12px" preserveAspectRatio="xMinYMin meet" x="248" y="-215.7"/>
<text text-anchor="start" x="263" y="-205.8" font-family="Helvetica,sans-Serif" font-size="11.00" fill="#000000">nation</text>
<polygon fill="#ffffff" stroke="transparent" points="243,-176.7 243,-198.7 415,-198.7 415,-176.7 243,-176.7"/>
<polygon fill="none" stroke="#000000" points="243,-176.7 243,-198.7 415,-198.7 415,-176.7 243,-176.7"/>
<image xlink:href="../../images/foreignKeys.png" width="11px" height="12px" preserveAspectRatio="xMinYMin meet" x="248" y="-193.7"/>
<text text-anchor="start" x="263" y="-183.8" font-family="Helvetica,sans-Serif" font-size="11.00" fill="#000000">berechtigungId</text>
<polygon fill="none" stroke="#000000" points="243,-157.7 243,-176.7 415,-176.7 415,-157.7 243,-157.7"/>
<text text-anchor="start" x="246" y="-163.8" font-family="Helvetica,sans-Serif" font-size="11.00" fill="#000000">...</text>
<polygon fill="#ffffff" stroke="transparent" points="243,-138.7 243,-157.7 415,-157.7 415,-138.7 243,-138.7"/>
<polygon fill="none" stroke="#000000" points="243,-138.7 243,-157.7 415,-157.7 415,-138.7 243,-138.7"/>
<polygon fill="#ffffff" stroke="transparent" points="244,-139.7 244,-156.7 288,-156.7 288,-139.7 244,-139.7"/>
<text text-anchor="start" x="246" y="-144.8" font-family="Helvetica,sans-Serif" font-size="11.00" fill="#000000">&lt; 3</text>
<polygon fill="#ffffff" stroke="transparent" points="288,-139.7 288,-156.7 370,-156.7 370,-139.7 288,-139.7"/>
<text text-anchor="start" x="302.1045" y="-144.8" font-family="Helvetica,sans-Serif" font-size="11.00" fill="#000000">1,525 rows</text>
<polygon fill="#ffffff" stroke="transparent" points="370,-139.7 370,-156.7 414,-156.7 414,-139.7 370,-139.7"/>
<text text-anchor="start" x="396.4053" y="-144.8" font-family="Helvetica,sans-Serif" font-size="11.00" fill="#000000">3 &gt;</text>
<polygon fill="#000000" stroke="#000000" points="288,-139.7 288,-156.7 288,-156.7 288,-139.7 288,-139.7"/>
<polygon fill="#000000" stroke="#000000" points="370,-139.7 370,-156.7 370,-156.7 370,-139.7 370,-139.7"/>
</a>
</g>
</g>
<!-- bescheid&#45;&gt;familienmitglied -->
<g id="edge1" class="edge">
<title>bescheid:w&#45;&gt;familienmitglied:e</title>
<path fill="none" stroke="#000000" d="M453.0682,-180.1171C432.8669,-196.6175 450.6424,-253.7 415,-253.7"/>
<polygon fill="#000000" stroke="#000000" points="459.3741,-178.1178 468.088,-179.1317 463.1871,-176.9089 467,-175.7 467,-175.7 467,-175.7 463.1871,-176.9089 465.912,-172.2683 459.3741,-178.1178 459.3741,-178.1178"/>
<ellipse fill="none" stroke="#000000" cx="456.3237" cy="-179.085" rx="3.2" ry="3.2"/>
</g>
<!-- haushalt -->
<g id="node4" class="node">
<title>haushalt</title>
<g id="a_node4"><a xlink:href="../../tables/haushalt.html" xlink:title="haushalt" target="_top">
<polygon fill="#ffffff" stroke="transparent" points="50,-285.2 50,-346.2 152,-346.2 152,-285.2 50,-285.2"/>
<polygon fill="#f5f5f5" stroke="transparent" points="50,-322.7 50,-345.7 152,-345.7 152,-322.7 50,-322.7"/>
<polygon fill="none" stroke="#000000" points="50,-322.7 50,-345.7 152,-345.7 152,-322.7 50,-322.7"/>
<text text-anchor="start" x="55" y="-331.3" font-family="Helvetica,sans-Serif" font-weight="bold" font-size="11.00" fill="#000000">haushalt</text>
<text text-anchor="start" x="117.5219" y="-330.8" font-family="Helvetica,sans-Serif" font-size="11.00" fill="#000000">[table]</text>
<polygon fill="none" stroke="#000000" points="50,-303.7 50,-322.7 152,-322.7 152,-303.7 50,-303.7"/>
<text text-anchor="start" x="53" y="-309.8" font-family="Helvetica,sans-Serif" font-size="11.00" fill="#000000">...</text>
<polygon fill="#ffffff" stroke="transparent" points="50,-284.7 50,-303.7 152,-303.7 152,-284.7 50,-284.7"/>
<polygon fill="none" stroke="#000000" points="50,-284.7 50,-303.7 152,-303.7 152,-284.7 50,-284.7"/>
<polygon fill="#ffffff" stroke="transparent" points="51,-285.7 51,-302.7 75,-302.7 75,-285.7 51,-285.7"/>
<text text-anchor="start" x="53" y="-290.8" font-family="Helvetica,sans-Serif" font-size="11.00" fill="#000000">&lt; 3</text>
<polygon fill="#ffffff" stroke="transparent" points="75,-285.7 75,-302.7 128,-302.7 128,-285.7 75,-285.7"/>
<text text-anchor="start" x="79.1904" y="-290.8" font-family="Helvetica,sans-Serif" font-size="11.00" fill="#000000">639 rows</text>
<polygon fill="#ffffff" stroke="transparent" points="128,-285.7 128,-302.7 151,-302.7 151,-285.7 128,-285.7"/>
<text text-anchor="start" x="133.4053" y="-290.8" font-family="Helvetica,sans-Serif" font-size="11.00" fill="#000000">3 &gt;</text>
<polygon fill="#000000" stroke="#000000" points="75,-285.7 75,-302.7 75,-302.7 75,-285.7 75,-285.7"/>
<polygon fill="#000000" stroke="#000000" points="128,-285.7 128,-302.7 128,-302.7 128,-285.7 128,-285.7"/>
</a>
</g>
</g>
<!-- familienmitglied&#45;&gt;haushalt -->
<g id="edge5" class="edge">
<title>familienmitglied:w&#45;&gt;haushalt:e</title>
<path fill="none" stroke="#000000" d="M229.32,-237.2675C204.3732,-255.5677 174.7369,-312.7 152,-312.7"/>
<polygon fill="#000000" stroke="#000000" points="235.5901,-234.7157 244.3571,-235.0344 239.2951,-233.2078 243,-231.7 243,-231.7 243,-231.7 239.2951,-233.2078 241.6429,-228.3656 235.5901,-234.7157 235.5901,-234.7157"/>
<ellipse fill="none" stroke="#000000" cx="232.6262" cy="-235.922" rx="3.2" ry="3.2"/>
</g>
<!-- berechtigung -->
<g id="node5" class="node">
<title>berechtigung</title>
<g id="a_node5"><a xlink:href="../../tables/berechtigung.html" xlink:title="berechtigung" target="_top">
<polygon fill="#ffffff" stroke="transparent" points="32.5,-38.2 32.5,-99.2 169.5,-99.2 169.5,-38.2 32.5,-38.2"/>
<polygon fill="#f5f5f5" stroke="transparent" points="33,-75.7 33,-98.7 170,-98.7 170,-75.7 33,-75.7"/>
<polygon fill="none" stroke="#000000" points="33,-75.7 33,-98.7 170,-98.7 170,-75.7 33,-75.7"/>
<text text-anchor="start" x="38" y="-84.3" font-family="Helvetica,sans-Serif" font-weight="bold" font-size="11.00" fill="#000000">berechtigung</text>
<text text-anchor="start" x="135.5219" y="-83.8" font-family="Helvetica,sans-Serif" font-size="11.00" fill="#000000">[table]</text>
<polygon fill="none" stroke="#000000" points="33,-56.7 33,-75.7 170,-75.7 170,-56.7 33,-56.7"/>
<text text-anchor="start" x="36" y="-62.8" font-family="Helvetica,sans-Serif" font-size="11.00" fill="#000000">...</text>
<polygon fill="#ffffff" stroke="transparent" points="33,-37.7 33,-56.7 170,-56.7 170,-37.7 33,-37.7"/>
<polygon fill="none" stroke="#000000" points="33,-37.7 33,-56.7 170,-56.7 170,-37.7 33,-37.7"/>
<polygon fill="#ffffff" stroke="transparent" points="34,-38.7 34,-55.7 68,-55.7 68,-38.7 34,-38.7"/>
<text text-anchor="start" x="36" y="-43.8" font-family="Helvetica,sans-Serif" font-size="11.00" fill="#000000"> &#160;</text>
<polygon fill="#ffffff" stroke="transparent" points="68,-38.7 68,-55.7 127,-55.7 127,-38.7 68,-38.7"/>
<text text-anchor="start" x="81.3053" y="-43.8" font-family="Helvetica,sans-Serif" font-size="11.00" fill="#000000">5 rows</text>
<polygon fill="#ffffff" stroke="transparent" points="127,-38.7 127,-55.7 169,-55.7 169,-38.7 127,-38.7"/>
<text text-anchor="start" x="151.4053" y="-43.8" font-family="Helvetica,sans-Serif" font-size="11.00" fill="#000000">1 &gt;</text>
<polygon fill="#000000" stroke="#000000" points="68,-38.7 68,-55.7 68,-55.7 68,-38.7 68,-38.7"/>
<polygon fill="#000000" stroke="#000000" points="127,-38.7 127,-55.7 127,-55.7 127,-38.7 127,-38.7"/>
</a>
</g>
</g>
<!-- familienmitglied&#45;&gt;berechtigung -->
<g id="edge4" class="edge">
<title>familienmitglied:w&#45;&gt;berechtigung:e</title>
<path fill="none" stroke="#000000" d="M228.6225,-184.9226C188.4623,-166.7629 227.5107,-65.7 170,-65.7"/>
<polygon fill="#000000" stroke="#000000" points="235.1452,-186.1826 242.3172,-191.2347 239.0726,-186.9413 243,-187.7 243,-187.7 243,-187.7 239.0726,-186.9413 243.6828,-184.1653 235.1452,-186.1826 235.1452,-186.1826"/>
<ellipse fill="none" stroke="#000000" cx="232.0033" cy="-185.5757" rx="3.2" ry="3.2"/>
</g>
<!-- nation -->
<g id="node6" class="node">
<title>nation</title>
<g id="a_node6"><a xlink:href="../../tables/nation.html" xlink:title="nation" target="_top">
<polygon fill="#ffffff" stroke="transparent" points="8,-120.7 8,-254.7 194,-254.7 194,-120.7 8,-120.7"/>
<polygon fill="#f5f5f5" stroke="transparent" points="10,-229.7 10,-252.7 192,-252.7 192,-229.7 10,-229.7"/>
<polygon fill="none" stroke="#000000" points="10,-229.7 10,-252.7 192,-252.7 192,-229.7 10,-229.7"/>
<text text-anchor="start" x="15" y="-238.3" font-family="Helvetica,sans-Serif" font-weight="bold" font-size="11.00" fill="#000000">nation</text>
<text text-anchor="start" x="157.0437" y="-237.8" font-family="Helvetica,sans-Serif" font-size="11.00" fill="#000000">[table]</text>
<polygon fill="none" stroke="#000000" points="10,-207.7 10,-229.7 125,-229.7 125,-207.7 10,-207.7"/>
<image xlink:href="../../images/primaryKeys.png" width="11px" height="12px" preserveAspectRatio="xMinYMin meet" x="15" y="-224.7"/>
<text text-anchor="start" x="30" y="-214.8" font-family="Helvetica,sans-Serif" font-size="11.00" fill="#000000">nationId</text>
<polygon fill="none" stroke="#000000" points="125,-207.7 125,-229.7 192,-229.7 192,-207.7 125,-207.7"/>
<text text-anchor="start" x="128" y="-215.4" font-family="Helvetica,sans-Serif" font-size="11.00" fill="#000000">int[10]</text>
<polygon fill="none" stroke="#000000" points="10,-185.7 10,-207.7 125,-207.7 125,-185.7 10,-185.7"/>
<text text-anchor="start" x="30" y="-192.8" font-family="Helvetica,sans-Serif" font-size="11.00" fill="#000000">name</text>
<polygon fill="none" stroke="#000000" points="125,-185.7 125,-207.7 192,-207.7 192,-185.7 125,-185.7"/>
<text text-anchor="start" x="127.9365" y="-193.4" font-family="Helvetica,sans-Serif" font-size="11.00" fill="#000000">varchar[100]</text>
<polygon fill="none" stroke="#000000" points="10,-163.7 10,-185.7 125,-185.7 125,-163.7 10,-163.7"/>
<text text-anchor="start" x="30" y="-170.8" font-family="Helvetica,sans-Serif" font-size="11.00" fill="#000000">nationalitaet</text>
<polygon fill="none" stroke="#000000" points="125,-163.7 125,-185.7 192,-185.7 192,-163.7 125,-163.7"/>
<text text-anchor="start" x="128" y="-171.4" font-family="Helvetica,sans-Serif" font-size="11.00" fill="#000000">varchar[50]</text>
<polygon fill="none" stroke="#000000" points="10,-141.7 10,-163.7 125,-163.7 125,-141.7 10,-141.7"/>
<text text-anchor="start" x="30" y="-148.8" font-family="Helvetica,sans-Serif" font-size="11.00" fill="#000000">aktiv</text>
<polygon fill="none" stroke="#000000" points="125,-141.7 125,-163.7 192,-163.7 192,-141.7 125,-141.7"/>
<text text-anchor="start" x="128" y="-149.4" font-family="Helvetica,sans-Serif" font-size="11.00" fill="#000000">bit[1]</text>
<polygon fill="#ffffff" stroke="transparent" points="10,-122.7 10,-141.7 192,-141.7 192,-122.7 10,-122.7"/>
<polygon fill="none" stroke="#000000" points="10,-122.7 10,-141.7 192,-141.7 192,-122.7 10,-122.7"/>
<polygon fill="#ffffff" stroke="transparent" points="11,-123.7 11,-140.7 62,-140.7 62,-123.7 11,-123.7"/>
<text text-anchor="start" x="13" y="-128.8" font-family="Helvetica,sans-Serif" font-size="11.00" fill="#000000">&lt; 0</text>
<polygon fill="#ffffff" stroke="transparent" points="62,-123.7 62,-140.7 141,-140.7 141,-123.7 62,-123.7"/>
<text text-anchor="start" x="79.1904" y="-128.8" font-family="Helvetica,sans-Serif" font-size="11.00" fill="#000000">190 rows</text>
<polygon fill="#ffffff" stroke="transparent" points="141,-123.7 141,-140.7 191,-140.7 191,-123.7 141,-123.7"/>
<text text-anchor="start" x="173.4053" y="-128.8" font-family="Helvetica,sans-Serif" font-size="11.00" fill="#000000">1 &gt;</text>
<polygon fill="#000000" stroke="#000000" points="62,-123.7 62,-140.7 62,-140.7 62,-123.7 62,-123.7"/>
<polygon fill="#000000" stroke="#000000" points="141,-123.7 141,-140.7 141,-140.7 141,-123.7 141,-123.7"/>
<polygon fill="none" stroke="#000000" stroke-width="2" points="9,-121.7 9,-253.7 193,-253.7 193,-121.7 9,-121.7"/>
</a>
</g>
</g>
<!-- familienmitglied&#45;&gt;nation -->
<g id="edge6" class="edge">
<title>familienmitglied:w&#45;&gt;nation:e</title>
<path fill="none" stroke="#000000" d="M228.5577,-211.1063C216.3718,-213.6375 209.2627,-218.7 192,-218.7"/>
<polygon fill="#000000" stroke="#000000" points="235.0377,-210.4753 243.3489,-213.2831 239.0188,-210.0877 243,-209.7 243,-209.7 243,-209.7 239.0188,-210.0877 242.6511,-206.1169 235.0377,-210.4753 235.0377,-210.4753"/>
<ellipse fill="none" stroke="#000000" cx="231.8527" cy="-210.7855" rx="3.2" ry="3.2"/>
</g>
<!-- einkauf -->
<g id="node3" class="node">
<title>einkauf</title>
<g id="a_node3"><a xlink:href="../../tables/einkauf.html" xlink:title="einkauf" target="_top">
<polygon fill="#ffffff" stroke="transparent" points="472.5,-230.2 472.5,-291.2 565.5,-291.2 565.5,-230.2 472.5,-230.2"/>
<polygon fill="#f5f5f5" stroke="transparent" points="473,-267.7 473,-290.7 566,-290.7 566,-267.7 473,-267.7"/>
<polygon fill="none" stroke="#000000" points="473,-267.7 473,-290.7 566,-290.7 566,-267.7 473,-267.7"/>
<text text-anchor="start" x="478" y="-276.3" font-family="Helvetica,sans-Serif" font-weight="bold" font-size="11.00" fill="#000000">einkauf</text>
<text text-anchor="start" x="531.5219" y="-275.8" font-family="Helvetica,sans-Serif" font-size="11.00" fill="#000000">[table]</text>
<polygon fill="none" stroke="#000000" points="473,-248.7 473,-267.7 566,-267.7 566,-248.7 473,-248.7"/>
<text text-anchor="start" x="476" y="-254.8" font-family="Helvetica,sans-Serif" font-size="11.00" fill="#000000">...</text>
<polygon fill="#ffffff" stroke="transparent" points="473,-229.7 473,-248.7 566,-248.7 566,-229.7 473,-229.7"/>
<polygon fill="none" stroke="#000000" points="473,-229.7 473,-248.7 566,-248.7 566,-229.7 473,-229.7"/>
<polygon fill="#ffffff" stroke="transparent" points="474,-230.7 474,-247.7 495,-247.7 495,-230.7 474,-230.7"/>
<text text-anchor="start" x="476" y="-235.8" font-family="Helvetica,sans-Serif" font-size="11.00" fill="#000000">&lt; 4</text>
<polygon fill="#ffffff" stroke="transparent" points="495,-230.7 495,-247.7 554,-247.7 554,-230.7 495,-230.7"/>
<text text-anchor="start" x="497.6045" y="-235.8" font-family="Helvetica,sans-Serif" font-size="11.00" fill="#000000">3,276 rows</text>
<polygon fill="#ffffff" stroke="transparent" points="554,-230.7 554,-247.7 565,-247.7 565,-230.7 554,-230.7"/>
<text text-anchor="start" x="556.8862" y="-235.8" font-family="Helvetica,sans-Serif" font-size="11.00" fill="#000000"> &#160;</text>
<polygon fill="#000000" stroke="#000000" points="495,-230.7 495,-247.7 495,-247.7 495,-230.7 495,-230.7"/>
<polygon fill="#000000" stroke="#000000" points="554,-230.7 554,-247.7 554,-247.7 554,-230.7 554,-230.7"/>
</a>
</g>
</g>
<!-- einkauf&#45;&gt;familienmitglied -->
<g id="edge3" class="edge">
<title>einkauf:w&#45;&gt;familienmitglied:e</title>
<path fill="none" stroke="#000000" d="M458.4363,-257.2095C443.4612,-256.1414 435.1867,-253.7 415,-253.7"/>
<polygon fill="#000000" stroke="#000000" points="465.0045,-257.4307 472.8788,-261.298 469.0023,-257.5653 473,-257.7 473,-257.7 473,-257.7 469.0023,-257.5653 473.1212,-254.102 465.0045,-257.4307 465.0045,-257.4307"/>
<ellipse fill="none" stroke="#000000" cx="461.8063" cy="-257.3229" rx="3.2" ry="3.2"/>
</g>
<!-- einkauf&#45;&gt;haushalt -->
<g id="edge2" class="edge">
<title>einkauf:w&#45;&gt;haushalt:e</title>
<path fill="none" stroke="#000000" d="M458.7644,-261.3109C445.1599,-269.7202 444.148,-290.5165 423,-298.7 310.5225,-342.2245 272.6051,-312.7 152,-312.7"/>
<polygon fill="#000000" stroke="#000000" points="465.2456,-259.667 473.8851,-261.1895 469.1228,-258.6835 473,-257.7 473,-257.7 473,-257.7 469.1228,-258.6835 472.1149,-254.2105 465.2456,-259.667 465.2456,-259.667"/>
<ellipse fill="none" stroke="#000000" cx="462.1438" cy="-260.4537" rx="3.2" ry="3.2"/>
</g>
<!-- vollmacht -->
<g id="node7" class="node">
<title>vollmacht</title>
<g id="a_node7"><a xlink:href="../../tables/vollmacht.html" xlink:title="vollmacht" target="_top">
<polygon fill="#ffffff" stroke="transparent" points="464,-312.2 464,-373.2 574,-373.2 574,-312.2 464,-312.2"/>
<polygon fill="#f5f5f5" stroke="transparent" points="464,-349.7 464,-372.7 574,-372.7 574,-349.7 464,-349.7"/>
<polygon fill="none" stroke="#000000" points="464,-349.7 464,-372.7 574,-372.7 574,-349.7 464,-349.7"/>
<text text-anchor="start" x="469" y="-358.3" font-family="Helvetica,sans-Serif" font-weight="bold" font-size="11.00" fill="#000000">vollmacht</text>
<text text-anchor="start" x="539.5219" y="-357.8" font-family="Helvetica,sans-Serif" font-size="11.00" fill="#000000">[table]</text>
<polygon fill="none" stroke="#000000" points="464,-330.7 464,-349.7 574,-349.7 574,-330.7 464,-330.7"/>
<text text-anchor="start" x="467" y="-336.8" font-family="Helvetica,sans-Serif" font-size="11.00" fill="#000000">...</text>
<polygon fill="#ffffff" stroke="transparent" points="464,-311.7 464,-330.7 574,-330.7 574,-311.7 464,-311.7"/>
<polygon fill="none" stroke="#000000" points="464,-311.7 464,-330.7 574,-330.7 574,-311.7 464,-311.7"/>
<polygon fill="#ffffff" stroke="transparent" points="465,-312.7 465,-329.7 499,-329.7 499,-312.7 465,-312.7"/>
<text text-anchor="start" x="467" y="-317.8" font-family="Helvetica,sans-Serif" font-size="11.00" fill="#000000">&lt; 2</text>
<polygon fill="#ffffff" stroke="transparent" points="499,-312.7 499,-329.7 549,-329.7 549,-312.7 499,-312.7"/>
<text text-anchor="start" x="507.8053" y="-317.8" font-family="Helvetica,sans-Serif" font-size="11.00" fill="#000000">0 rows</text>
<polygon fill="#ffffff" stroke="transparent" points="549,-312.7 549,-329.7 573,-329.7 573,-312.7 549,-312.7"/>
<text text-anchor="start" x="564.8862" y="-317.8" font-family="Helvetica,sans-Serif" font-size="11.00" fill="#000000"> &#160;</text>
<polygon fill="#000000" stroke="#000000" points="499,-312.7 499,-329.7 499,-329.7 499,-312.7 499,-312.7"/>
<polygon fill="#000000" stroke="#000000" points="549,-312.7 549,-329.7 549,-329.7 549,-312.7 549,-312.7"/>
</a>
</g>
</g>
<!-- vollmacht&#45;&gt;familienmitglied -->
<g id="edge7" class="edge">
<title>vollmacht:w&#45;&gt;familienmitglied:e</title>
<path fill="none" stroke="#000000" d="M450.1855,-335.317C429.1172,-317.7919 452.9766,-253.7 415,-253.7"/>
<polygon fill="#000000" stroke="#000000" points="456.3746,-337.2806 462.9113,-343.1314 460.1873,-338.4903 464,-339.7 464,-339.7 464,-339.7 460.1873,-338.4903 465.0887,-336.2686 456.3746,-337.2806 456.3746,-337.2806"/>
<ellipse fill="none" stroke="#000000" cx="453.3244" cy="-336.3129" rx="3.2" ry="3.2"/>
</g>
<!-- vollmacht&#45;&gt;haushalt -->
<g id="edge8" class="edge">
<title>vollmacht:w&#45;&gt;haushalt:e</title>
<path fill="none" stroke="#000000" d="M449.5809,-339.6496C359.2835,-338.9985 331.6182,-332.1017 235,-322.7 198.019,-319.1015 189.1557,-312.7 152,-312.7"/>
<polygon fill="#000000" stroke="#000000" points="456,-339.672 463.9874,-343.3 460,-339.686 464,-339.7 464,-339.7 464,-339.7 460,-339.686 464.0126,-336.1 456,-339.672 456,-339.672"/>
<ellipse fill="none" stroke="#000000" cx="452.8001" cy="-339.6608" rx="3.2" ry="3.2"/>
</g>
</g>
</svg>
