<?xml version="1.0" encoding="UTF-8" standalone="no"?>
<!DOCTYPE svg PUBLIC "-//W3C//DTD SVG 1.1//EN"
 "http://www.w3.org/Graphics/SVG/1.1/DTD/svg11.dtd">
<!-- Generated by graphviz version 2.40.1 (20161225.0304)
 -->
<!-- Title: oneDegreeRelationshipsDiagram Pages: 1 -->
<svg width="431pt" height="227pt"
 viewBox="0.00 0.00 431.00 226.70" xmlns="http://www.w3.org/2000/svg" xmlns:xlink="http://www.w3.org/1999/xlink">
<g id="graph0" class="graph" transform="scale(1 1) rotate(0) translate(4 222.7)">
<title>oneDegreeRelationshipsDiagram</title>
<polygon fill="#ffffff" stroke="transparent" points="-4,4 -4,-222.7 427,-222.7 427,4 -4,4"/>
<text text-anchor="middle" x="72.4936" y="-7.3" font-family="Helvetica,sans-Serif" font-size="11.00" fill="#000000">Generated by SchemaSpy</text>
<!-- familienmitglied -->
<g id="node1" class="node">
<title>familienmitglied</title>
<g id="a_node1"><a xlink:href="../../tables/familienmitglied.html" xlink:title="familienmitglied" target="_top">
<polygon fill="#ffffff" stroke="transparent" points="243,-65.7 243,-214.7 415,-214.7 415,-65.7 243,-65.7"/>
<polygon fill="#f5f5f5" stroke="transparent" points="243,-191.2 243,-214.2 415,-214.2 415,-191.2 243,-191.2"/>
<polygon fill="none" stroke="#000000" points="243,-191.2 243,-214.2 415,-214.2 415,-191.2 243,-191.2"/>
<text text-anchor="start" x="248" y="-199.8" font-family="Helvetica,sans-Serif" font-weight="bold" font-size="11.00" fill="#000000">familienmitglied</text>
<text text-anchor="start" x="380.0437" y="-199.3" font-family="Helvetica,sans-Serif" font-size="11.00" fill="#000000">[table]</text>
<polygon fill="none" stroke="#000000" points="243,-169.2 243,-191.2 415,-191.2 415,-169.2 243,-169.2"/>
<image xlink:href="../../images/primaryKeys.png" width="11px" height="12px" preserveAspectRatio="xMinYMin meet" x="248" y="-186.2"/>
<text text-anchor="start" x="263" y="-176.3" font-family="Helvetica,sans-Serif" font-size="11.00" fill="#000000">personId</text>
<polygon fill="#ffffff" stroke="transparent" points="243,-147.2 243,-169.2 415,-169.2 415,-147.2 243,-147.2"/>
<polygon fill="none" stroke="#000000" points="243,-147.2 243,-169.2 415,-169.2 415,-147.2 243,-147.2"/>
<image xlink:href="../../images/foreignKeys.png" width="11px" height="12px" preserveAspectRatio="xMinYMin meet" x="248" y="-164.2"/>
<text text-anchor="start" x="263" y="-154.3" font-family="Helvetica,sans-Serif" font-size="11.00" fill="#000000">haushaltId</text>
<polygon fill="#ffffff" stroke="transparent" points="243,-125.2 243,-147.2 415,-147.2 415,-125.2 243,-125.2"/>
<polygon fill="none" stroke="#000000" points="243,-125.2 243,-147.2 415,-147.2 415,-125.2 243,-125.2"/>
<image xlink:href="../../images/foreignKeys.png" width="11px" height="12px" preserveAspectRatio="xMinYMin meet" x="248" y="-142.2"/>
<text text-anchor="start" x="263" y="-132.3" font-family="Helvetica,sans-Serif" font-size="11.00" fill="#000000">nation</text>
<polygon fill="#ffffff" stroke="transparent" points="243,-103.2 243,-125.2 415,-125.2 415,-103.2 243,-103.2"/>
<polygon fill="none" stroke="#000000" points="243,-103.2 243,-125.2 415,-125.2 415,-103.2 243,-103.2"/>
<image xlink:href="../../images/foreignKeys.png" width="11px" height="12px" preserveAspectRatio="xMinYMin meet" x="248" y="-120.2"/>
<text text-anchor="start" x="263" y="-110.3" font-family="Helvetica,sans-Serif" font-size="11.00" fill="#000000">berechtigungId</text>
<polygon fill="none" stroke="#000000" points="243,-84.2 243,-103.2 415,-103.2 415,-84.2 243,-84.2"/>
<text text-anchor="start" x="246" y="-90.3" font-family="Helvetica,sans-Serif" font-size="11.00" fill="#000000">...</text>
<polygon fill="#ffffff" stroke="transparent" points="243,-65.2 243,-84.2 415,-84.2 415,-65.2 243,-65.2"/>
<polygon fill="none" stroke="#000000" points="243,-65.2 243,-84.2 415,-84.2 415,-65.2 243,-65.2"/>
<polygon fill="#ffffff" stroke="transparent" points="244,-66.2 244,-83.2 288,-83.2 288,-66.2 244,-66.2"/>
<text text-anchor="start" x="246" y="-71.3" font-family="Helvetica,sans-Serif" font-size="11.00" fill="#000000">&lt; 3</text>
<polygon fill="#ffffff" stroke="transparent" points="288,-66.2 288,-83.2 370,-83.2 370,-66.2 288,-66.2"/>
<text text-anchor="start" x="302.1045" y="-71.3" font-family="Helvetica,sans-Serif" font-size="11.00" fill="#000000">1,525 rows</text>
<polygon fill="#ffffff" stroke="transparent" points="370,-66.2 370,-83.2 414,-83.2 414,-66.2 370,-66.2"/>
<text text-anchor="start" x="396.4053" y="-71.3" font-family="Helvetica,sans-Serif" font-size="11.00" fill="#000000">3 &gt;</text>
<polygon fill="#000000" stroke="#000000" points="288,-66.2 288,-83.2 288,-83.2 288,-66.2 288,-66.2"/>
<polygon fill="#000000" stroke="#000000" points="370,-66.2 370,-83.2 370,-83.2 370,-66.2 370,-66.2"/>
</a>
</g>
</g>
<!-- nation -->
<g id="node2" class="node">
<title>nation</title>
<g id="a_node2"><a xlink:href="../../tables/nation.html" xlink:title="nation" target="_top">
<polygon fill="#ffffff" stroke="transparent" points="8,-38.2 8,-172.2 194,-172.2 194,-38.2 8,-38.2"/>
<polygon fill="#f5f5f5" stroke="transparent" points="10,-147.2 10,-170.2 192,-170.2 192,-147.2 10,-147.2"/>
<polygon fill="none" stroke="#000000" points="10,-147.2 10,-170.2 192,-170.2 192,-147.2 10,-147.2"/>
<text text-anchor="start" x="15" y="-155.8" font-family="Helvetica,sans-Serif" font-weight="bold" font-size="11.00" fill="#000000">nation</text>
<text text-anchor="start" x="157.0437" y="-155.3" font-family="Helvetica,sans-Serif" font-size="11.00" fill="#000000">[table]</text>
<polygon fill="none" stroke="#000000" points="10,-125.2 10,-147.2 125,-147.2 125,-125.2 10,-125.2"/>
<image xlink:href="../../images/primaryKeys.png" width="11px" height="12px" preserveAspectRatio="xMinYMin meet" x="15" y="-142.2"/>
<text text-anchor="start" x="30" y="-132.3" font-family="Helvetica,sans-Serif" font-size="11.00" fill="#000000">nationId</text>
<polygon fill="none" stroke="#000000" points="125,-125.2 125,-147.2 192,-147.2 192,-125.2 125,-125.2"/>
<text text-anchor="start" x="128" y="-132.9" font-family="Helvetica,sans-Serif" font-size="11.00" fill="#000000">int[10]</text>
<polygon fill="none" stroke="#000000" points="10,-103.2 10,-125.2 125,-125.2 125,-103.2 10,-103.2"/>
<text text-anchor="start" x="30" y="-110.3" font-family="Helvetica,sans-Serif" font-size="11.00" fill="#000000">name</text>
<polygon fill="none" stroke="#000000" points="125,-103.2 125,-125.2 192,-125.2 192,-103.2 125,-103.2"/>
<text text-anchor="start" x="127.9365" y="-110.9" font-family="Helvetica,sans-Serif" font-size="11.00" fill="#000000">varchar[100]</text>
<polygon fill="none" stroke="#000000" points="10,-81.2 10,-103.2 125,-103.2 125,-81.2 10,-81.2"/>
<text text-anchor="start" x="30" y="-88.3" font-family="Helvetica,sans-Serif" font-size="11.00" fill="#000000">nationalitaet</text>
<polygon fill="none" stroke="#000000" points="125,-81.2 125,-103.2 192,-103.2 192,-81.2 125,-81.2"/>
<text text-anchor="start" x="128" y="-88.9" font-family="Helvetica,sans-Serif" font-size="11.00" fill="#000000">varchar[50]</text>
<polygon fill="none" stroke="#000000" points="10,-59.2 10,-81.2 125,-81.2 125,-59.2 10,-59.2"/>
<text text-anchor="start" x="30" y="-66.3" font-family="Helvetica,sans-Serif" font-size="11.00" fill="#000000">aktiv</text>
<polygon fill="none" stroke="#000000" points="125,-59.2 125,-81.2 192,-81.2 192,-59.2 125,-59.2"/>
<text text-anchor="start" x="128" y="-66.9" font-family="Helvetica,sans-Serif" font-size="11.00" fill="#000000">bit[1]</text>
<polygon fill="#ffffff" stroke="transparent" points="10,-40.2 10,-59.2 192,-59.2 192,-40.2 10,-40.2"/>
<polygon fill="none" stroke="#000000" points="10,-40.2 10,-59.2 192,-59.2 192,-40.2 10,-40.2"/>
<polygon fill="#ffffff" stroke="transparent" points="11,-41.2 11,-58.2 62,-58.2 62,-41.2 11,-41.2"/>
<text text-anchor="start" x="13" y="-46.3" font-family="Helvetica,sans-Serif" font-size="11.00" fill="#000000">&lt; 0</text>
<polygon fill="#ffffff" stroke="transparent" points="62,-41.2 62,-58.2 141,-58.2 141,-41.2 62,-41.2"/>
<text text-anchor="start" x="79.1904" y="-46.3" font-family="Helvetica,sans-Serif" font-size="11.00" fill="#000000">190 rows</text>
<polygon fill="#ffffff" stroke="transparent" points="141,-41.2 141,-58.2 191,-58.2 191,-41.2 141,-41.2"/>
<text text-anchor="start" x="173.4053" y="-46.3" font-family="Helvetica,sans-Serif" font-size="11.00" fill="#000000">1 &gt;</text>
<polygon fill="#000000" stroke="#000000" points="62,-41.2 62,-58.2 62,-58.2 62,-41.2 62,-41.2"/>
<polygon fill="#000000" stroke="#000000" points="141,-41.2 141,-58.2 141,-58.2 141,-41.2 141,-41.2"/>
<polygon fill="none" stroke="#000000" stroke-width="2" points="9,-39.2 9,-171.2 193,-171.2 193,-39.2 9,-39.2"/>
</a>
</g>
</g>
<!-- familienmitglied&#45;&gt;nation -->
<g id="edge1" class="edge">
<title>familienmitglied:w&#45;&gt;nation:e</title>
<path fill="none" stroke="#000000" d="M228.276,-136.2C216.2815,-136.2 208.8229,-136.2 192,-136.2"/>
<polygon fill="#000000" stroke="#000000" points="235,-136.2001 243,-139.8 239,-136.2 243,-136.2 243,-136.2 243,-136.2 239,-136.2 243,-132.6 235,-136.2001 235,-136.2001"/>
<ellipse fill="none" stroke="#000000" cx="231.8" cy="-136.2001" rx="3.2" ry="3.2"/>
</g>
</g>
</svg>
