<?xml version="1.0" encoding="UTF-8" standalone="no"?>
<!DOCTYPE svg PUBLIC "-//W3C//DTD SVG 1.1//EN"
 "http://www.w3.org/Graphics/SVG/1.1/DTD/svg11.dtd">
<!-- Generated by graphviz version 2.40.1 (20161225.0304)
 -->
<!-- Title: twoDegreesRelationshipsDiagram Pages: 1 -->
<svg width="299pt" height="245pt"
 viewBox="0.00 0.00 299.00 244.70" xmlns="http://www.w3.org/2000/svg" xmlns:xlink="http://www.w3.org/1999/xlink">
<g id="graph0" class="graph" transform="scale(1 1) rotate(0) translate(4 240.7)">
<title>twoDegreesRelationshipsDiagram</title>
<polygon fill="#ffffff" stroke="transparent" points="-4,4 -4,-240.7 295,-240.7 295,4 -4,4"/>
<text text-anchor="middle" x="72.4936" y="-7.3" font-family="Helvetica,sans-Serif" font-size="11.00" fill="#000000">Generated by SchemaSpy</text>
<!-- haushalt -->
<g id="node1" class="node">
<title>haushalt</title>
<g id="a_node1"><a xlink:href="../../tables/haushalt.html" xlink:title="haushalt" target="_top">
<polygon fill="#ffffff" stroke="transparent" points="155.5,-171.7 155.5,-232.7 257.5,-232.7 257.5,-171.7 155.5,-171.7"/>
<polygon fill="#f5f5f5" stroke="transparent" points="155.5,-209.2 155.5,-232.2 257.5,-232.2 257.5,-209.2 155.5,-209.2"/>
<polygon fill="none" stroke="#000000" points="155.5,-209.2 155.5,-232.2 257.5,-232.2 257.5,-209.2 155.5,-209.2"/>
<text text-anchor="start" x="160.5" y="-217.8" font-family="Helvetica,sans-Serif" font-weight="bold" font-size="11.00" fill="#000000">haushalt</text>
<text text-anchor="start" x="223.0219" y="-217.3" font-family="Helvetica,sans-Serif" font-size="11.00" fill="#000000">[table]</text>
<polygon fill="none" stroke="#000000" points="155.5,-190.2 155.5,-209.2 257.5,-209.2 257.5,-190.2 155.5,-190.2"/>
<text text-anchor="start" x="158.5" y="-196.3" font-family="Helvetica,sans-Serif" font-size="11.00" fill="#000000">...</text>
<polygon fill="#ffffff" stroke="transparent" points="155.5,-171.2 155.5,-190.2 257.5,-190.2 257.5,-171.2 155.5,-171.2"/>
<polygon fill="none" stroke="#000000" points="155.5,-171.2 155.5,-190.2 257.5,-190.2 257.5,-171.2 155.5,-171.2"/>
<polygon fill="#ffffff" stroke="transparent" points="156.5,-172.2 156.5,-189.2 180.5,-189.2 180.5,-172.2 156.5,-172.2"/>
<text text-anchor="start" x="158.5" y="-177.3" font-family="Helvetica,sans-Serif" font-size="11.00" fill="#000000">&lt; 3</text>
<polygon fill="#ffffff" stroke="transparent" points="180.5,-172.2 180.5,-189.2 233.5,-189.2 233.5,-172.2 180.5,-172.2"/>
<text text-anchor="start" x="184.6904" y="-177.3" font-family="Helvetica,sans-Serif" font-size="11.00" fill="#000000">639 rows</text>
<polygon fill="#ffffff" stroke="transparent" points="233.5,-172.2 233.5,-189.2 256.5,-189.2 256.5,-172.2 233.5,-172.2"/>
<text text-anchor="start" x="238.9053" y="-177.3" font-family="Helvetica,sans-Serif" font-size="11.00" fill="#000000">3 &gt;</text>
<polygon fill="#000000" stroke="#000000" points="180.5,-172.2 180.5,-189.2 180.5,-189.2 180.5,-172.2 180.5,-172.2"/>
<polygon fill="#000000" stroke="#000000" points="233.5,-172.2 233.5,-189.2 233.5,-189.2 233.5,-172.2 233.5,-172.2"/>
</a>
</g>
</g>
<!-- plz -->
<g id="node2" class="node">
<title>plz</title>
<g id="a_node2"><a xlink:href="../../tables/plz.html" xlink:title="plz" target="_top">
<polygon fill="#ffffff" stroke="transparent" points="8,-85.7 8,-168.7 81,-168.7 81,-85.7 8,-85.7"/>
<polygon fill="#f5f5f5" stroke="transparent" points="8.5,-145.2 8.5,-168.2 81.5,-168.2 81.5,-145.2 8.5,-145.2"/>
<polygon fill="none" stroke="#000000" points="8.5,-145.2 8.5,-168.2 81.5,-168.2 81.5,-145.2 8.5,-145.2"/>
<text text-anchor="start" x="13.5" y="-153.8" font-family="Helvetica,sans-Serif" font-weight="bold" font-size="11.00" fill="#000000">plz</text>
<text text-anchor="start" x="46.5437" y="-153.3" font-family="Helvetica,sans-Serif" font-size="11.00" fill="#000000">[table]</text>
<polygon fill="none" stroke="#000000" points="8.5,-123.2 8.5,-145.2 81.5,-145.2 81.5,-123.2 8.5,-123.2"/>
<image xlink:href="../../images/primaryKeys.png" width="11px" height="12px" preserveAspectRatio="xMinYMin meet" x="13.5" y="-140.2"/>
<text text-anchor="start" x="37.5" y="-130.3" font-family="Helvetica,sans-Serif" font-size="11.00" fill="#000000">plzId</text>
<polygon fill="none" stroke="#000000" points="8.5,-104.2 8.5,-123.2 81.5,-123.2 81.5,-104.2 8.5,-104.2"/>
<text text-anchor="start" x="11.5" y="-110.3" font-family="Helvetica,sans-Serif" font-size="11.00" fill="#000000">...</text>
<polygon fill="#ffffff" stroke="transparent" points="8.5,-85.2 8.5,-104.2 81.5,-104.2 81.5,-85.2 8.5,-85.2"/>
<polygon fill="none" stroke="#000000" points="8.5,-85.2 8.5,-104.2 81.5,-104.2 81.5,-85.2 8.5,-85.2"/>
<polygon fill="#ffffff" stroke="transparent" points="9.5,-86.2 9.5,-103.2 19.5,-103.2 19.5,-86.2 9.5,-86.2"/>
<text text-anchor="start" x="11.4431" y="-91.3" font-family="Helvetica,sans-Serif" font-size="11.00" fill="#000000"> &#160;</text>
<polygon fill="#ffffff" stroke="transparent" points="19.5,-86.2 19.5,-103.2 61.5,-103.2 61.5,-86.2 19.5,-86.2"/>
<text text-anchor="start" x="21.2478" y="-91.3" font-family="Helvetica,sans-Serif" font-size="11.00" fill="#000000">29 rows</text>
<polygon fill="#ffffff" stroke="transparent" points="61.5,-86.2 61.5,-103.2 80.5,-103.2 80.5,-86.2 61.5,-86.2"/>
<text text-anchor="start" x="63.2027" y="-91.3" font-family="Helvetica,sans-Serif" font-size="11.00" fill="#000000">2 &gt;</text>
<polygon fill="#000000" stroke="#000000" points="19.5,-86.2 19.5,-103.2 19.5,-103.2 19.5,-86.2 19.5,-86.2"/>
<polygon fill="#000000" stroke="#000000" points="61.5,-86.2 61.5,-103.2 61.5,-103.2 61.5,-86.2 61.5,-86.2"/>
</a>
</g>
</g>
<!-- haushalt&#45;&gt;plz -->
<g id="edge1" class="edge">
<title>haushalt:w&#45;&gt;plz:e</title>
<path fill="none" stroke="#000000" d="M141.1835,-196.2382C114.2658,-183.5223 119.6321,-134.2 81.5,-134.2"/>
<polygon fill="#000000" stroke="#000000" points="147.6659,-197.5792 154.7707,-202.7253 151.5829,-198.3896 155.5,-199.2 155.5,-199.2 155.5,-199.2 151.5829,-198.3896 156.2293,-195.6747 147.6659,-197.5792 147.6659,-197.5792"/>
<ellipse fill="none" stroke="#000000" cx="144.5322" cy="-196.9309" rx="3.2" ry="3.2"/>
</g>
<!-- ortsteil -->
<g id="node3" class="node">
<title>ortsteil</title>
<g id="a_node3"><a xlink:href="../../tables/ortsteil.html" xlink:title="ortsteil" target="_top">
<polygon fill="#ffffff" stroke="transparent" points="130,-38.2 130,-150.2 283,-150.2 283,-38.2 130,-38.2"/>
<polygon fill="#f5f5f5" stroke="transparent" points="132.5,-125.2 132.5,-148.2 281.5,-148.2 281.5,-125.2 132.5,-125.2"/>
<polygon fill="none" stroke="#000000" points="132.5,-125.2 132.5,-148.2 281.5,-148.2 281.5,-125.2 132.5,-125.2"/>
<text text-anchor="start" x="137.5" y="-133.8" font-family="Helvetica,sans-Serif" font-weight="bold" font-size="11.00" fill="#000000">ortsteil</text>
<text text-anchor="start" x="246.5437" y="-133.3" font-family="Helvetica,sans-Serif" font-size="11.00" fill="#000000">[table]</text>
<polygon fill="none" stroke="#000000" points="132.5,-103.2 132.5,-125.2 220.5,-125.2 220.5,-103.2 132.5,-103.2"/>
<image xlink:href="../../images/primaryKeys.png" width="11px" height="12px" preserveAspectRatio="xMinYMin meet" x="137.5" y="-120.2"/>
<text text-anchor="start" x="152.5" y="-110.3" font-family="Helvetica,sans-Serif" font-size="11.00" fill="#000000">ortsteilId</text>
<polygon fill="none" stroke="#000000" points="220.5,-103.2 220.5,-125.2 281.5,-125.2 281.5,-103.2 220.5,-103.2"/>
<text text-anchor="start" x="223.5" y="-110.9" font-family="Helvetica,sans-Serif" font-size="11.00" fill="#000000">int[10]</text>
<polygon fill="none" stroke="#000000" points="132.5,-81.2 132.5,-103.2 220.5,-103.2 220.5,-81.2 132.5,-81.2"/>
<text text-anchor="start" x="152.5" y="-88.3" font-family="Helvetica,sans-Serif" font-size="11.00" fill="#000000">name</text>
<polygon fill="none" stroke="#000000" points="220.5,-81.2 220.5,-103.2 281.5,-103.2 281.5,-81.2 220.5,-81.2"/>
<text text-anchor="start" x="223.494" y="-88.9" font-family="Helvetica,sans-Serif" font-size="11.00" fill="#000000">varchar[50]</text>
<polygon fill="#ffffff" stroke="transparent" points="132.5,-59.2 132.5,-81.2 220.5,-81.2 220.5,-59.2 132.5,-59.2"/>
<polygon fill="none" stroke="#000000" points="132.5,-59.2 132.5,-81.2 220.5,-81.2 220.5,-59.2 132.5,-59.2"/>
<image xlink:href="../../images/foreignKeys.png" width="11px" height="12px" preserveAspectRatio="xMinYMin meet" x="137.5" y="-76.2"/>
<text text-anchor="start" x="152.5" y="-66.3" font-family="Helvetica,sans-Serif" font-size="11.00" fill="#000000">plz</text>
<polygon fill="none" stroke="#000000" points="220.5,-59.2 220.5,-81.2 281.5,-81.2 281.5,-59.2 220.5,-59.2"/>
<text text-anchor="start" x="223.5" y="-66.9" font-family="Helvetica,sans-Serif" font-size="11.00" fill="#000000">int[10]</text>
<polygon fill="#ffffff" stroke="transparent" points="132.5,-40.2 132.5,-59.2 281.5,-59.2 281.5,-40.2 132.5,-40.2"/>
<polygon fill="none" stroke="#000000" points="132.5,-40.2 132.5,-59.2 281.5,-59.2 281.5,-40.2 132.5,-40.2"/>
<polygon fill="#ffffff" stroke="transparent" points="133.5,-41.2 133.5,-58.2 177.5,-58.2 177.5,-41.2 133.5,-41.2"/>
<text text-anchor="start" x="135.5" y="-46.3" font-family="Helvetica,sans-Serif" font-size="11.00" fill="#000000">&lt; 1</text>
<polygon fill="#ffffff" stroke="transparent" points="177.5,-41.2 177.5,-58.2 237.5,-58.2 237.5,-41.2 177.5,-41.2"/>
<text text-anchor="start" x="191.3053" y="-46.3" font-family="Helvetica,sans-Serif" font-size="11.00" fill="#000000">0 rows</text>
<polygon fill="#ffffff" stroke="transparent" points="237.5,-41.2 237.5,-58.2 280.5,-58.2 280.5,-41.2 237.5,-41.2"/>
<text text-anchor="start" x="262.9053" y="-46.3" font-family="Helvetica,sans-Serif" font-size="11.00" fill="#000000">0 &gt;</text>
<polygon fill="#000000" stroke="#000000" points="177.5,-41.2 177.5,-58.2 177.5,-58.2 177.5,-41.2 177.5,-41.2"/>
<polygon fill="#000000" stroke="#000000" points="237.5,-41.2 237.5,-58.2 237.5,-58.2 237.5,-41.2 237.5,-41.2"/>
<polygon fill="none" stroke="#000000" stroke-width="2" points="131,-39.2 131,-149.2 282,-149.2 282,-39.2 131,-39.2"/>
</a>
</g>
</g>
<!-- ortsteil&#45;&gt;plz -->
<g id="edge2" class="edge">
<title>ortsteil:w&#45;&gt;plz:e</title>
<path fill="none" stroke="#000000" d="M118.7779,-74.8027C101.6988,-89.4773 111.9041,-134.2 81.5,-134.2"/>
<polygon fill="#000000" stroke="#000000" points="124.9153,-72.7441 133.6449,-73.6131 128.7077,-71.4721 132.5,-70.2 132.5,-70.2 132.5,-70.2 128.7077,-71.4721 131.3551,-66.7869 124.9153,-72.7441 124.9153,-72.7441"/>
<ellipse fill="none" stroke="#000000" cx="121.8814" cy="-73.7618" rx="3.2" ry="3.2"/>
</g>
</g>
</svg>
