<?xml version="1.0" encoding="UTF-8" standalone="no"?>
<!DOCTYPE svg PUBLIC "-//W3C//DTD SVG 1.1//EN"
 "http://www.w3.org/Graphics/SVG/1.1/DTD/svg11.dtd">
<!-- Generated by graphviz version 2.40.1 (20161225.0304)
 -->
<!-- Title: oneDegreeRelationshipsDiagram Pages: 1 -->
<svg width="299pt" height="179pt"
 viewBox="0.00 0.00 299.00 178.70" xmlns="http://www.w3.org/2000/svg" xmlns:xlink="http://www.w3.org/1999/xlink">
<g id="graph0" class="graph" transform="scale(1 1) rotate(0) translate(4 174.7)">
<title>oneDegreeRelationshipsDiagram</title>
<polygon fill="#ffffff" stroke="transparent" points="-4,4 -4,-174.7 295,-174.7 295,4 -4,4"/>
<text text-anchor="middle" x="72.4936" y="-7.3" font-family="Helvetica,sans-Serif" font-size="11.00" fill="#000000">Generated by SchemaSpy</text>
<!-- ortsteil -->
<g id="node1" class="node">
<title>ortsteil</title>
<g id="a_node1"><a xlink:href="../../tables/ortsteil.html" xlink:title="ortsteil" target="_top">
<polygon fill="#ffffff" stroke="transparent" points="130,-54.7 130,-166.7 283,-166.7 283,-54.7 130,-54.7"/>
<polygon fill="#f5f5f5" stroke="transparent" points="132.5,-141.7 132.5,-164.7 281.5,-164.7 281.5,-141.7 132.5,-141.7"/>
<polygon fill="none" stroke="#000000" points="132.5,-141.7 132.5,-164.7 281.5,-164.7 281.5,-141.7 132.5,-141.7"/>
<text text-anchor="start" x="137.5" y="-150.3" font-family="Helvetica,sans-Serif" font-weight="bold" font-size="11.00" fill="#000000">ortsteil</text>
<text text-anchor="start" x="246.5437" y="-149.8" font-family="Helvetica,sans-Serif" font-size="11.00" fill="#000000">[table]</text>
<polygon fill="none" stroke="#000000" points="132.5,-119.7 132.5,-141.7 220.5,-141.7 220.5,-119.7 132.5,-119.7"/>
<image xlink:href="../../images/primaryKeys.png" width="11px" height="12px" preserveAspectRatio="xMinYMin meet" x="137.5" y="-136.7"/>
<text text-anchor="start" x="152.5" y="-126.8" font-family="Helvetica,sans-Serif" font-size="11.00" fill="#000000">ortsteilId</text>
<polygon fill="none" stroke="#000000" points="220.5,-119.7 220.5,-141.7 281.5,-141.7 281.5,-119.7 220.5,-119.7"/>
<text text-anchor="start" x="223.5" y="-127.4" font-family="Helvetica,sans-Serif" font-size="11.00" fill="#000000">int[10]</text>
<polygon fill="none" stroke="#000000" points="132.5,-97.7 132.5,-119.7 220.5,-119.7 220.5,-97.7 132.5,-97.7"/>
<text text-anchor="start" x="152.5" y="-104.8" font-family="Helvetica,sans-Serif" font-size="11.00" fill="#000000">name</text>
<polygon fill="none" stroke="#000000" points="220.5,-97.7 220.5,-119.7 281.5,-119.7 281.5,-97.7 220.5,-97.7"/>
<text text-anchor="start" x="223.494" y="-105.4" font-family="Helvetica,sans-Serif" font-size="11.00" fill="#000000">varchar[50]</text>
<polygon fill="#ffffff" stroke="transparent" points="132.5,-75.7 132.5,-97.7 220.5,-97.7 220.5,-75.7 132.5,-75.7"/>
<polygon fill="none" stroke="#000000" points="132.5,-75.7 132.5,-97.7 220.5,-97.7 220.5,-75.7 132.5,-75.7"/>
<image xlink:href="../../images/foreignKeys.png" width="11px" height="12px" preserveAspectRatio="xMinYMin meet" x="137.5" y="-92.7"/>
<text text-anchor="start" x="152.5" y="-82.8" font-family="Helvetica,sans-Serif" font-size="11.00" fill="#000000">plz</text>
<polygon fill="none" stroke="#000000" points="220.5,-75.7 220.5,-97.7 281.5,-97.7 281.5,-75.7 220.5,-75.7"/>
<text text-anchor="start" x="223.5" y="-83.4" font-family="Helvetica,sans-Serif" font-size="11.00" fill="#000000">int[10]</text>
<polygon fill="#ffffff" stroke="transparent" points="132.5,-56.7 132.5,-75.7 281.5,-75.7 281.5,-56.7 132.5,-56.7"/>
<polygon fill="none" stroke="#000000" points="132.5,-56.7 132.5,-75.7 281.5,-75.7 281.5,-56.7 132.5,-56.7"/>
<polygon fill="#ffffff" stroke="transparent" points="133.5,-57.7 133.5,-74.7 177.5,-74.7 177.5,-57.7 133.5,-57.7"/>
<text text-anchor="start" x="135.5" y="-62.8" font-family="Helvetica,sans-Serif" font-size="11.00" fill="#000000">&lt; 1</text>
<polygon fill="#ffffff" stroke="transparent" points="177.5,-57.7 177.5,-74.7 237.5,-74.7 237.5,-57.7 177.5,-57.7"/>
<text text-anchor="start" x="191.3053" y="-62.8" font-family="Helvetica,sans-Serif" font-size="11.00" fill="#000000">0 rows</text>
<polygon fill="#ffffff" stroke="transparent" points="237.5,-57.7 237.5,-74.7 280.5,-74.7 280.5,-57.7 237.5,-57.7"/>
<text text-anchor="start" x="262.9053" y="-62.8" font-family="Helvetica,sans-Serif" font-size="11.00" fill="#000000">0 &gt;</text>
<polygon fill="#000000" stroke="#000000" points="177.5,-57.7 177.5,-74.7 177.5,-74.7 177.5,-57.7 177.5,-57.7"/>
<polygon fill="#000000" stroke="#000000" points="237.5,-57.7 237.5,-74.7 237.5,-74.7 237.5,-57.7 237.5,-57.7"/>
<polygon fill="none" stroke="#000000" stroke-width="2" points="131,-55.7 131,-165.7 282,-165.7 282,-55.7 131,-55.7"/>
</a>
</g>
</g>
<!-- plz -->
<g id="node2" class="node">
<title>plz</title>
<g id="a_node2"><a xlink:href="../../tables/plz.html" xlink:title="plz" target="_top">
<polygon fill="#ffffff" stroke="transparent" points="8,-38.2 8,-121.2 81,-121.2 81,-38.2 8,-38.2"/>
<polygon fill="#f5f5f5" stroke="transparent" points="8.5,-97.7 8.5,-120.7 81.5,-120.7 81.5,-97.7 8.5,-97.7"/>
<polygon fill="none" stroke="#000000" points="8.5,-97.7 8.5,-120.7 81.5,-120.7 81.5,-97.7 8.5,-97.7"/>
<text text-anchor="start" x="13.5" y="-106.3" font-family="Helvetica,sans-Serif" font-weight="bold" font-size="11.00" fill="#000000">plz</text>
<text text-anchor="start" x="46.5437" y="-105.8" font-family="Helvetica,sans-Serif" font-size="11.00" fill="#000000">[table]</text>
<polygon fill="none" stroke="#000000" points="8.5,-75.7 8.5,-97.7 81.5,-97.7 81.5,-75.7 8.5,-75.7"/>
<image xlink:href="../../images/primaryKeys.png" width="11px" height="12px" preserveAspectRatio="xMinYMin meet" x="13.5" y="-92.7"/>
<text text-anchor="start" x="37.5" y="-82.8" font-family="Helvetica,sans-Serif" font-size="11.00" fill="#000000">plzId</text>
<polygon fill="none" stroke="#000000" points="8.5,-56.7 8.5,-75.7 81.5,-75.7 81.5,-56.7 8.5,-56.7"/>
<text text-anchor="start" x="11.5" y="-62.8" font-family="Helvetica,sans-Serif" font-size="11.00" fill="#000000">...</text>
<polygon fill="#ffffff" stroke="transparent" points="8.5,-37.7 8.5,-56.7 81.5,-56.7 81.5,-37.7 8.5,-37.7"/>
<polygon fill="none" stroke="#000000" points="8.5,-37.7 8.5,-56.7 81.5,-56.7 81.5,-37.7 8.5,-37.7"/>
<polygon fill="#ffffff" stroke="transparent" points="9.5,-38.7 9.5,-55.7 19.5,-55.7 19.5,-38.7 9.5,-38.7"/>
<text text-anchor="start" x="11.4431" y="-43.8" font-family="Helvetica,sans-Serif" font-size="11.00" fill="#000000"> &#160;</text>
<polygon fill="#ffffff" stroke="transparent" points="19.5,-38.7 19.5,-55.7 61.5,-55.7 61.5,-38.7 19.5,-38.7"/>
<text text-anchor="start" x="21.2478" y="-43.8" font-family="Helvetica,sans-Serif" font-size="11.00" fill="#000000">29 rows</text>
<polygon fill="#ffffff" stroke="transparent" points="61.5,-38.7 61.5,-55.7 80.5,-55.7 80.5,-38.7 61.5,-38.7"/>
<text text-anchor="start" x="63.2027" y="-43.8" font-family="Helvetica,sans-Serif" font-size="11.00" fill="#000000">2 &gt;</text>
<polygon fill="#000000" stroke="#000000" points="19.5,-38.7 19.5,-55.7 19.5,-55.7 19.5,-38.7 19.5,-38.7"/>
<polygon fill="#000000" stroke="#000000" points="61.5,-38.7 61.5,-55.7 61.5,-55.7 61.5,-38.7 61.5,-38.7"/>
</a>
</g>
</g>
<!-- ortsteil&#45;&gt;plz -->
<g id="edge1" class="edge">
<title>ortsteil:w&#45;&gt;plz:e</title>
<path fill="none" stroke="#000000" d="M117.776,-86.7C105.7815,-86.7 98.3229,-86.7 81.5,-86.7"/>
<polygon fill="#000000" stroke="#000000" points="124.5,-86.7001 132.5,-90.3 128.5,-86.7 132.5,-86.7 132.5,-86.7 132.5,-86.7 128.5,-86.7 132.5,-83.1 124.5,-86.7001 124.5,-86.7001"/>
<ellipse fill="none" stroke="#000000" cx="121.3" cy="-86.7001" rx="3.2" ry="3.2"/>
</g>
</g>
</svg>
