<?xml version="1.0" encoding="UTF-8" standalone="no"?>
<!DOCTYPE svg PUBLIC "-//W3C//DTD SVG 1.1//EN"
 "http://www.w3.org/Graphics/SVG/1.1/DTD/svg11.dtd">
<!-- Generated by graphviz version 2.40.1 (20161225.0304)
 -->
<!-- Title: oneDegreeRelationshipsDiagram Pages: 1 -->
<svg width="385pt" height="325pt"
 viewBox="0.00 0.00 385.00 325.20" xmlns="http://www.w3.org/2000/svg" xmlns:xlink="http://www.w3.org/1999/xlink">
<g id="graph0" class="graph" transform="scale(1 1) rotate(0) translate(4 321.2)">
<title>oneDegreeRelationshipsDiagram</title>
<polygon fill="#ffffff" stroke="transparent" points="-4,4 -4,-321.2 381,-321.2 381,4 -4,4"/>
<text text-anchor="middle" x="72.4936" y="-7.3" font-family="Helvetica,sans-Serif" font-size="11.00" fill="#000000">Generated by SchemaSpy</text>
<!-- haushalt -->
<g id="node1" class="node">
<title>haushalt</title>
<g id="a_node1"><a xlink:href="../../tables/haushalt.html" xlink:title="haushalt" target="_top">
<polygon fill="#ffffff" stroke="transparent" points="178,-164.2 178,-313.2 369,-313.2 369,-164.2 178,-164.2"/>
<polygon fill="#f5f5f5" stroke="transparent" points="178.5,-289.7 178.5,-312.7 369.5,-312.7 369.5,-289.7 178.5,-289.7"/>
<polygon fill="none" stroke="#000000" points="178.5,-289.7 178.5,-312.7 369.5,-312.7 369.5,-289.7 178.5,-289.7"/>
<text text-anchor="start" x="183.5" y="-298.3" font-family="Helvetica,sans-Serif" font-weight="bold" font-size="11.00" fill="#000000">haushalt</text>
<text text-anchor="start" x="334.5437" y="-297.8" font-family="Helvetica,sans-Serif" font-size="11.00" fill="#000000">[table]</text>
<polygon fill="none" stroke="#000000" points="178.5,-267.7 178.5,-289.7 369.5,-289.7 369.5,-267.7 178.5,-267.7"/>
<image xlink:href="../../images/primaryKeys.png" width="11px" height="12px" preserveAspectRatio="xMinYMin meet" x="183.5" y="-284.7"/>
<text text-anchor="start" x="198.5" y="-274.8" font-family="Helvetica,sans-Serif" font-size="11.00" fill="#000000">kundennummer</text>
<polygon fill="#ffffff" stroke="transparent" points="178.5,-245.7 178.5,-267.7 369.5,-267.7 369.5,-245.7 178.5,-245.7"/>
<polygon fill="none" stroke="#000000" points="178.5,-245.7 178.5,-267.7 369.5,-267.7 369.5,-245.7 178.5,-245.7"/>
<image xlink:href="../../images/foreignKeys.png" width="11px" height="12px" preserveAspectRatio="xMinYMin meet" x="183.5" y="-262.7"/>
<text text-anchor="start" x="198.5" y="-252.8" font-family="Helvetica,sans-Serif" font-size="11.00" fill="#000000">plz</text>
<polygon fill="#ffffff" stroke="transparent" points="178.5,-223.7 178.5,-245.7 369.5,-245.7 369.5,-223.7 178.5,-223.7"/>
<polygon fill="none" stroke="#000000" points="178.5,-223.7 178.5,-245.7 369.5,-245.7 369.5,-223.7 178.5,-223.7"/>
<image xlink:href="../../images/foreignKeys.png" width="11px" height="12px" preserveAspectRatio="xMinYMin meet" x="183.5" y="-240.7"/>
<text text-anchor="start" x="198.5" y="-230.8" font-family="Helvetica,sans-Serif" font-size="11.00" fill="#000000">verteilstellenId</text>
<polygon fill="#ffffff" stroke="transparent" points="178.5,-201.7 178.5,-223.7 369.5,-223.7 369.5,-201.7 178.5,-201.7"/>
<polygon fill="none" stroke="#000000" points="178.5,-201.7 178.5,-223.7 369.5,-223.7 369.5,-201.7 178.5,-201.7"/>
<image xlink:href="../../images/foreignKeys.png" width="11px" height="12px" preserveAspectRatio="xMinYMin meet" x="183.5" y="-218.7"/>
<text text-anchor="start" x="198.5" y="-208.8" font-family="Helvetica,sans-Serif" font-size="11.00" fill="#000000">ausgabeGruppeId</text>
<polygon fill="none" stroke="#000000" points="178.5,-182.7 178.5,-201.7 369.5,-201.7 369.5,-182.7 178.5,-182.7"/>
<text text-anchor="start" x="181.5" y="-188.8" font-family="Helvetica,sans-Serif" font-size="11.00" fill="#000000">...</text>
<polygon fill="#ffffff" stroke="transparent" points="178.5,-163.7 178.5,-182.7 369.5,-182.7 369.5,-163.7 178.5,-163.7"/>
<polygon fill="none" stroke="#000000" points="178.5,-163.7 178.5,-182.7 369.5,-182.7 369.5,-163.7 178.5,-163.7"/>
<polygon fill="#ffffff" stroke="transparent" points="179.5,-164.7 179.5,-181.7 233.5,-181.7 233.5,-164.7 179.5,-164.7"/>
<text text-anchor="start" x="181.5" y="-169.8" font-family="Helvetica,sans-Serif" font-size="11.00" fill="#000000">&lt; 3</text>
<polygon fill="#ffffff" stroke="transparent" points="233.5,-164.7 233.5,-181.7 315.5,-181.7 315.5,-164.7 233.5,-164.7"/>
<text text-anchor="start" x="252.1904" y="-169.8" font-family="Helvetica,sans-Serif" font-size="11.00" fill="#000000">639 rows</text>
<polygon fill="#ffffff" stroke="transparent" points="315.5,-164.7 315.5,-181.7 368.5,-181.7 368.5,-164.7 315.5,-164.7"/>
<text text-anchor="start" x="350.9053" y="-169.8" font-family="Helvetica,sans-Serif" font-size="11.00" fill="#000000">3 &gt;</text>
<polygon fill="#000000" stroke="#000000" points="233.5,-164.7 233.5,-181.7 233.5,-181.7 233.5,-164.7 233.5,-164.7"/>
<polygon fill="#000000" stroke="#000000" points="315.5,-164.7 315.5,-181.7 315.5,-181.7 315.5,-164.7 315.5,-164.7"/>
</a>
</g>
</g>
<!-- plz -->
<g id="node2" class="node">
<title>plz</title>
<g id="a_node2"><a xlink:href="../../tables/plz.html" xlink:title="plz" target="_top">
<polygon fill="#ffffff" stroke="transparent" points="8,-95.7 8,-207.7 129,-207.7 129,-95.7 8,-95.7"/>
<polygon fill="#f5f5f5" stroke="transparent" points="10.5,-182.7 10.5,-205.7 127.5,-205.7 127.5,-182.7 10.5,-182.7"/>
<polygon fill="none" stroke="#000000" points="10.5,-182.7 10.5,-205.7 127.5,-205.7 127.5,-182.7 10.5,-182.7"/>
<text text-anchor="start" x="15.5" y="-191.3" font-family="Helvetica,sans-Serif" font-weight="bold" font-size="11.00" fill="#000000">plz</text>
<text text-anchor="start" x="92.5437" y="-190.8" font-family="Helvetica,sans-Serif" font-size="11.00" fill="#000000">[table]</text>
<polygon fill="none" stroke="#000000" points="10.5,-160.7 10.5,-182.7 66.5,-182.7 66.5,-160.7 10.5,-160.7"/>
<image xlink:href="../../images/primaryKeys.png" width="11px" height="12px" preserveAspectRatio="xMinYMin meet" x="15.5" y="-177.7"/>
<text text-anchor="start" x="30.5" y="-167.8" font-family="Helvetica,sans-Serif" font-size="11.00" fill="#000000">plzId</text>
<polygon fill="none" stroke="#000000" points="66.5,-160.7 66.5,-182.7 127.5,-182.7 127.5,-160.7 66.5,-160.7"/>
<text text-anchor="start" x="69.5" y="-168.4" font-family="Helvetica,sans-Serif" font-size="11.00" fill="#000000">int[10]</text>
<polygon fill="none" stroke="#000000" points="10.5,-138.7 10.5,-160.7 66.5,-160.7 66.5,-138.7 10.5,-138.7"/>
<text text-anchor="start" x="30.5" y="-145.8" font-family="Helvetica,sans-Serif" font-size="11.00" fill="#000000">plz</text>
<polygon fill="none" stroke="#000000" points="66.5,-138.7 66.5,-160.7 127.5,-160.7 127.5,-138.7 66.5,-138.7"/>
<text text-anchor="start" x="69.5" y="-146.4" font-family="Helvetica,sans-Serif" font-size="11.00" fill="#000000">varchar[5]</text>
<polygon fill="none" stroke="#000000" points="10.5,-116.7 10.5,-138.7 66.5,-138.7 66.5,-116.7 10.5,-116.7"/>
<text text-anchor="start" x="30.5" y="-123.8" font-family="Helvetica,sans-Serif" font-size="11.00" fill="#000000">ort</text>
<polygon fill="none" stroke="#000000" points="66.5,-116.7 66.5,-138.7 127.5,-138.7 127.5,-116.7 66.5,-116.7"/>
<text text-anchor="start" x="69.494" y="-124.4" font-family="Helvetica,sans-Serif" font-size="11.00" fill="#000000">varchar[40]</text>
<polygon fill="#ffffff" stroke="transparent" points="10.5,-97.7 10.5,-116.7 127.5,-116.7 127.5,-97.7 10.5,-97.7"/>
<polygon fill="none" stroke="#000000" points="10.5,-97.7 10.5,-116.7 127.5,-116.7 127.5,-97.7 10.5,-97.7"/>
<polygon fill="#ffffff" stroke="transparent" points="11.5,-98.7 11.5,-115.7 42.5,-115.7 42.5,-98.7 11.5,-98.7"/>
<text text-anchor="start" x="13.5" y="-103.8" font-family="Helvetica,sans-Serif" font-size="11.00" fill="#000000">&lt; 0</text>
<polygon fill="#ffffff" stroke="transparent" points="42.5,-98.7 42.5,-115.7 96.5,-115.7 96.5,-98.7 42.5,-98.7"/>
<text text-anchor="start" x="50.2478" y="-103.8" font-family="Helvetica,sans-Serif" font-size="11.00" fill="#000000">29 rows</text>
<polygon fill="#ffffff" stroke="transparent" points="96.5,-98.7 96.5,-115.7 126.5,-115.7 126.5,-98.7 96.5,-98.7"/>
<text text-anchor="start" x="108.9053" y="-103.8" font-family="Helvetica,sans-Serif" font-size="11.00" fill="#000000">2 &gt;</text>
<polygon fill="#000000" stroke="#000000" points="42.5,-98.7 42.5,-115.7 42.5,-115.7 42.5,-98.7 42.5,-98.7"/>
<polygon fill="#000000" stroke="#000000" points="96.5,-98.7 96.5,-115.7 96.5,-115.7 96.5,-98.7 96.5,-98.7"/>
<polygon fill="none" stroke="#000000" stroke-width="2" points="9,-96.7 9,-206.7 128,-206.7 128,-96.7 9,-96.7"/>
</a>
</g>
</g>
<!-- haushalt&#45;&gt;plz -->
<g id="edge1" class="edge">
<title>haushalt:w&#45;&gt;plz:e</title>
<path fill="none" stroke="#000000" d="M164.5669,-252.368C143.0746,-235.0466 165.5328,-171.7 127.5,-171.7"/>
<polygon fill="#000000" stroke="#000000" points="170.8607,-254.3248 177.4312,-260.1377 174.6804,-255.5124 178.5,-256.7 178.5,-256.7 178.5,-256.7 174.6804,-255.5124 179.5688,-253.2623 170.8607,-254.3248 170.8607,-254.3248"/>
<ellipse fill="none" stroke="#000000" cx="167.805" cy="-253.3747" rx="3.2" ry="3.2"/>
</g>
<!-- ortsteil -->
<g id="node3" class="node">
<title>ortsteil</title>
<g id="a_node3"><a xlink:href="../../tables/ortsteil.html" xlink:title="ortsteil" target="_top">
<polygon fill="#ffffff" stroke="transparent" points="227.5,-38.2 227.5,-143.2 319.5,-143.2 319.5,-38.2 227.5,-38.2"/>
<polygon fill="#f5f5f5" stroke="transparent" points="227.5,-119.7 227.5,-142.7 319.5,-142.7 319.5,-119.7 227.5,-119.7"/>
<polygon fill="none" stroke="#000000" points="227.5,-119.7 227.5,-142.7 319.5,-142.7 319.5,-119.7 227.5,-119.7"/>
<text text-anchor="start" x="232.5" y="-128.3" font-family="Helvetica,sans-Serif" font-weight="bold" font-size="11.00" fill="#000000">ortsteil</text>
<text text-anchor="start" x="285.0219" y="-127.8" font-family="Helvetica,sans-Serif" font-size="11.00" fill="#000000">[table]</text>
<polygon fill="none" stroke="#000000" points="227.5,-97.7 227.5,-119.7 319.5,-119.7 319.5,-97.7 227.5,-97.7"/>
<image xlink:href="../../images/primaryKeys.png" width="11px" height="12px" preserveAspectRatio="xMinYMin meet" x="232.5" y="-114.7"/>
<text text-anchor="start" x="249.5" y="-104.8" font-family="Helvetica,sans-Serif" font-size="11.00" fill="#000000">ortsteilId</text>
<polygon fill="#ffffff" stroke="transparent" points="227.5,-75.7 227.5,-97.7 319.5,-97.7 319.5,-75.7 227.5,-75.7"/>
<polygon fill="none" stroke="#000000" points="227.5,-75.7 227.5,-97.7 319.5,-97.7 319.5,-75.7 227.5,-75.7"/>
<image xlink:href="../../images/foreignKeys.png" width="11px" height="12px" preserveAspectRatio="xMinYMin meet" x="232.5" y="-92.7"/>
<text text-anchor="start" x="249.5" y="-82.8" font-family="Helvetica,sans-Serif" font-size="11.00" fill="#000000">plz</text>
<polygon fill="none" stroke="#000000" points="227.5,-56.7 227.5,-75.7 319.5,-75.7 319.5,-56.7 227.5,-56.7"/>
<text text-anchor="start" x="230.5" y="-62.8" font-family="Helvetica,sans-Serif" font-size="11.00" fill="#000000">...</text>
<polygon fill="#ffffff" stroke="transparent" points="227.5,-37.7 227.5,-56.7 319.5,-56.7 319.5,-37.7 227.5,-37.7"/>
<polygon fill="none" stroke="#000000" points="227.5,-37.7 227.5,-56.7 319.5,-56.7 319.5,-37.7 227.5,-37.7"/>
<polygon fill="#ffffff" stroke="transparent" points="228.5,-38.7 228.5,-55.7 256.5,-55.7 256.5,-38.7 228.5,-38.7"/>
<text text-anchor="start" x="230.5" y="-43.8" font-family="Helvetica,sans-Serif" font-size="11.00" fill="#000000">&lt; 1</text>
<polygon fill="#ffffff" stroke="transparent" points="256.5,-38.7 256.5,-55.7 300.5,-55.7 300.5,-38.7 256.5,-38.7"/>
<text text-anchor="start" x="262.3053" y="-43.8" font-family="Helvetica,sans-Serif" font-size="11.00" fill="#000000">0 rows</text>
<polygon fill="#ffffff" stroke="transparent" points="300.5,-38.7 300.5,-55.7 318.5,-55.7 318.5,-38.7 300.5,-38.7"/>
<text text-anchor="start" x="310.3862" y="-43.8" font-family="Helvetica,sans-Serif" font-size="11.00" fill="#000000"> &#160;</text>
<polygon fill="#000000" stroke="#000000" points="256.5,-38.7 256.5,-55.7 256.5,-55.7 256.5,-38.7 256.5,-38.7"/>
<polygon fill="#000000" stroke="#000000" points="300.5,-38.7 300.5,-55.7 300.5,-55.7 300.5,-38.7 300.5,-38.7"/>
</a>
</g>
</g>
<!-- ortsteil&#45;&gt;plz -->
<g id="edge2" class="edge">
<title>ortsteil:w&#45;&gt;plz:e</title>
<path fill="none" stroke="#000000" d="M213.2161,-88.7173C171.5963,-101.5892 180.4761,-171.7 127.5,-171.7"/>
<polygon fill="#000000" stroke="#000000" points="219.5786,-87.8188 228.0034,-90.2646 223.5393,-87.2594 227.5,-86.7 227.5,-86.7 227.5,-86.7 223.5393,-87.2594 226.9966,-83.1354 219.5786,-87.8188 219.5786,-87.8188"/>
<ellipse fill="none" stroke="#000000" cx="216.4101" cy="-88.2663" rx="3.2" ry="3.2"/>
</g>
</g>
</svg>
