<?xml version="1.0" encoding="UTF-8" standalone="no"?>
<!DOCTYPE svg PUBLIC "-//W3C//DTD SVG 1.1//EN"
 "http://www.w3.org/Graphics/SVG/1.1/DTD/svg11.dtd">
<!-- Generated by graphviz version 2.40.1 (20161225.0304)
 -->
<!-- Title: twoDegreesRelationshipsDiagram Pages: 1 -->
<svg width="783pt" height="361pt"
 viewBox="0.00 0.00 783.00 361.20" xmlns="http://www.w3.org/2000/svg" xmlns:xlink="http://www.w3.org/1999/xlink">
<g id="graph0" class="graph" transform="scale(1 1) rotate(0) translate(4 357.2)">
<title>twoDegreesRelationshipsDiagram</title>
<polygon fill="#ffffff" stroke="transparent" points="-4,4 -4,-357.2 779,-357.2 779,4 -4,4"/>
<text text-anchor="middle" x="72.4936" y="-7.3" font-family="Helvetica,sans-Serif" font-size="11.00" fill="#000000">Generated by SchemaSpy</text>
<!-- einkauf -->
<g id="node1" class="node">
<title>einkauf</title>
<g id="a_node1"><a xlink:href="../../tables/einkauf.html" xlink:title="einkauf" target="_top">
<polygon fill="#ffffff" stroke="transparent" points="665.5,-161.2 665.5,-222.2 758.5,-222.2 758.5,-161.2 665.5,-161.2"/>
<polygon fill="#f5f5f5" stroke="transparent" points="666,-198.7 666,-221.7 759,-221.7 759,-198.7 666,-198.7"/>
<polygon fill="none" stroke="#000000" points="666,-198.7 666,-221.7 759,-221.7 759,-198.7 666,-198.7"/>
<text text-anchor="start" x="671" y="-207.3" font-family="Helvetica,sans-Serif" font-weight="bold" font-size="11.00" fill="#000000">einkauf</text>
<text text-anchor="start" x="724.5219" y="-206.8" font-family="Helvetica,sans-Serif" font-size="11.00" fill="#000000">[table]</text>
<polygon fill="none" stroke="#000000" points="666,-179.7 666,-198.7 759,-198.7 759,-179.7 666,-179.7"/>
<text text-anchor="start" x="669" y="-185.8" font-family="Helvetica,sans-Serif" font-size="11.00" fill="#000000">...</text>
<polygon fill="#ffffff" stroke="transparent" points="666,-160.7 666,-179.7 759,-179.7 759,-160.7 666,-160.7"/>
<polygon fill="none" stroke="#000000" points="666,-160.7 666,-179.7 759,-179.7 759,-160.7 666,-160.7"/>
<polygon fill="#ffffff" stroke="transparent" points="667,-161.7 667,-178.7 688,-178.7 688,-161.7 667,-161.7"/>
<text text-anchor="start" x="669" y="-166.8" font-family="Helvetica,sans-Serif" font-size="11.00" fill="#000000">&lt; 4</text>
<polygon fill="#ffffff" stroke="transparent" points="688,-161.7 688,-178.7 747,-178.7 747,-161.7 688,-161.7"/>
<text text-anchor="start" x="690.6045" y="-166.8" font-family="Helvetica,sans-Serif" font-size="11.00" fill="#000000">3,276 rows</text>
<polygon fill="#ffffff" stroke="transparent" points="747,-161.7 747,-178.7 758,-178.7 758,-161.7 747,-161.7"/>
<text text-anchor="start" x="749.8862" y="-166.8" font-family="Helvetica,sans-Serif" font-size="11.00" fill="#000000"> &#160;</text>
<polygon fill="#000000" stroke="#000000" points="688,-161.7 688,-178.7 688,-178.7 688,-161.7 688,-161.7"/>
<polygon fill="#000000" stroke="#000000" points="747,-161.7 747,-178.7 747,-178.7 747,-161.7 747,-161.7"/>
</a>
</g>
</g>
<!-- verteilstelle -->
<g id="node2" class="node">
<title>verteilstelle</title>
<g id="a_node2"><a xlink:href="../../tables/verteilstelle.html" xlink:title="verteilstelle" target="_top">
<polygon fill="#ffffff" stroke="transparent" points="21,-134.2 21,-195.2 148,-195.2 148,-134.2 21,-134.2"/>
<polygon fill="#f5f5f5" stroke="transparent" points="21.5,-171.7 21.5,-194.7 148.5,-194.7 148.5,-171.7 21.5,-171.7"/>
<polygon fill="none" stroke="#000000" points="21.5,-171.7 21.5,-194.7 148.5,-194.7 148.5,-171.7 21.5,-171.7"/>
<text text-anchor="start" x="26.5" y="-180.3" font-family="Helvetica,sans-Serif" font-weight="bold" font-size="11.00" fill="#000000">verteilstelle</text>
<text text-anchor="start" x="114.0219" y="-179.8" font-family="Helvetica,sans-Serif" font-size="11.00" fill="#000000">[table]</text>
<polygon fill="none" stroke="#000000" points="21.5,-152.7 21.5,-171.7 148.5,-171.7 148.5,-152.7 21.5,-152.7"/>
<text text-anchor="start" x="24.5" y="-158.8" font-family="Helvetica,sans-Serif" font-size="11.00" fill="#000000">...</text>
<polygon fill="#ffffff" stroke="transparent" points="21.5,-133.7 21.5,-152.7 148.5,-152.7 148.5,-133.7 21.5,-133.7"/>
<polygon fill="none" stroke="#000000" points="21.5,-133.7 21.5,-152.7 148.5,-152.7 148.5,-133.7 21.5,-133.7"/>
<polygon fill="#ffffff" stroke="transparent" points="22.5,-134.7 22.5,-151.7 52.5,-151.7 52.5,-134.7 22.5,-134.7"/>
<text text-anchor="start" x="24.5" y="-139.8" font-family="Helvetica,sans-Serif" font-size="11.00" fill="#000000"> &#160;</text>
<polygon fill="#ffffff" stroke="transparent" points="52.5,-134.7 52.5,-151.7 108.5,-151.7 108.5,-134.7 52.5,-134.7"/>
<text text-anchor="start" x="64.3053" y="-139.8" font-family="Helvetica,sans-Serif" font-size="11.00" fill="#000000">0 rows</text>
<polygon fill="#ffffff" stroke="transparent" points="108.5,-134.7 108.5,-151.7 147.5,-151.7 147.5,-134.7 108.5,-134.7"/>
<text text-anchor="start" x="129.9053" y="-139.8" font-family="Helvetica,sans-Serif" font-size="11.00" fill="#000000">2 &gt;</text>
<polygon fill="#000000" stroke="#000000" points="52.5,-134.7 52.5,-151.7 52.5,-151.7 52.5,-134.7 52.5,-134.7"/>
<polygon fill="#000000" stroke="#000000" points="108.5,-134.7 108.5,-151.7 108.5,-151.7 108.5,-134.7 108.5,-134.7"/>
</a>
</g>
</g>
<!-- einkauf&#45;&gt;verteilstelle -->
<g id="edge1" class="edge">
<title>einkauf:w&#45;&gt;verteilstelle:e</title>
<path fill="none" stroke="#000000" d="M651.5405,-189.1891C639.7819,-190.0533 632.5234,-191.8402 616,-192.7 432.2352,-202.2625 378.0027,-251.4028 202,-197.7 174.5879,-189.3359 177.1598,-161.7 148.5,-161.7"/>
<polygon fill="#000000" stroke="#000000" points="658.0046,-188.9705 666.1217,-192.2979 662.0023,-188.8352 666,-188.7 666,-188.7 666,-188.7 662.0023,-188.8352 665.8783,-185.1021 658.0046,-188.9705 658.0046,-188.9705"/>
<ellipse fill="none" stroke="#000000" cx="654.8064" cy="-189.0787" rx="3.2" ry="3.2"/>
</g>
<!-- haushalt -->
<g id="node3" class="node">
<title>haushalt</title>
<g id="a_node3"><a xlink:href="../../tables/haushalt.html" xlink:title="haushalt" target="_top">
<polygon fill="#ffffff" stroke="transparent" points="210,-38.2 210,-187.2 401,-187.2 401,-38.2 210,-38.2"/>
<polygon fill="#f5f5f5" stroke="transparent" points="210.5,-163.7 210.5,-186.7 401.5,-186.7 401.5,-163.7 210.5,-163.7"/>
<polygon fill="none" stroke="#000000" points="210.5,-163.7 210.5,-186.7 401.5,-186.7 401.5,-163.7 210.5,-163.7"/>
<text text-anchor="start" x="215.5" y="-172.3" font-family="Helvetica,sans-Serif" font-weight="bold" font-size="11.00" fill="#000000">haushalt</text>
<text text-anchor="start" x="366.5437" y="-171.8" font-family="Helvetica,sans-Serif" font-size="11.00" fill="#000000">[table]</text>
<polygon fill="none" stroke="#000000" points="210.5,-141.7 210.5,-163.7 401.5,-163.7 401.5,-141.7 210.5,-141.7"/>
<image xlink:href="../../images/primaryKeys.png" width="11px" height="12px" preserveAspectRatio="xMinYMin meet" x="215.5" y="-158.7"/>
<text text-anchor="start" x="230.5" y="-148.8" font-family="Helvetica,sans-Serif" font-size="11.00" fill="#000000">kundennummer</text>
<polygon fill="#ffffff" stroke="transparent" points="210.5,-119.7 210.5,-141.7 401.5,-141.7 401.5,-119.7 210.5,-119.7"/>
<polygon fill="none" stroke="#000000" points="210.5,-119.7 210.5,-141.7 401.5,-141.7 401.5,-119.7 210.5,-119.7"/>
<image xlink:href="../../images/foreignKeys.png" width="11px" height="12px" preserveAspectRatio="xMinYMin meet" x="215.5" y="-136.7"/>
<text text-anchor="start" x="230.5" y="-126.8" font-family="Helvetica,sans-Serif" font-size="11.00" fill="#000000">plz</text>
<polygon fill="#ffffff" stroke="transparent" points="210.5,-97.7 210.5,-119.7 401.5,-119.7 401.5,-97.7 210.5,-97.7"/>
<polygon fill="none" stroke="#000000" points="210.5,-97.7 210.5,-119.7 401.5,-119.7 401.5,-97.7 210.5,-97.7"/>
<image xlink:href="../../images/foreignKeys.png" width="11px" height="12px" preserveAspectRatio="xMinYMin meet" x="215.5" y="-114.7"/>
<text text-anchor="start" x="230.5" y="-104.8" font-family="Helvetica,sans-Serif" font-size="11.00" fill="#000000">verteilstellenId</text>
<polygon fill="#ffffff" stroke="transparent" points="210.5,-75.7 210.5,-97.7 401.5,-97.7 401.5,-75.7 210.5,-75.7"/>
<polygon fill="none" stroke="#000000" points="210.5,-75.7 210.5,-97.7 401.5,-97.7 401.5,-75.7 210.5,-75.7"/>
<image xlink:href="../../images/foreignKeys.png" width="11px" height="12px" preserveAspectRatio="xMinYMin meet" x="215.5" y="-92.7"/>
<text text-anchor="start" x="230.5" y="-82.8" font-family="Helvetica,sans-Serif" font-size="11.00" fill="#000000">ausgabeGruppeId</text>
<polygon fill="none" stroke="#000000" points="210.5,-56.7 210.5,-75.7 401.5,-75.7 401.5,-56.7 210.5,-56.7"/>
<text text-anchor="start" x="213.5" y="-62.8" font-family="Helvetica,sans-Serif" font-size="11.00" fill="#000000">...</text>
<polygon fill="#ffffff" stroke="transparent" points="210.5,-37.7 210.5,-56.7 401.5,-56.7 401.5,-37.7 210.5,-37.7"/>
<polygon fill="none" stroke="#000000" points="210.5,-37.7 210.5,-56.7 401.5,-56.7 401.5,-37.7 210.5,-37.7"/>
<polygon fill="#ffffff" stroke="transparent" points="211.5,-38.7 211.5,-55.7 265.5,-55.7 265.5,-38.7 211.5,-38.7"/>
<text text-anchor="start" x="213.5" y="-43.8" font-family="Helvetica,sans-Serif" font-size="11.00" fill="#000000">&lt; 3</text>
<polygon fill="#ffffff" stroke="transparent" points="265.5,-38.7 265.5,-55.7 347.5,-55.7 347.5,-38.7 265.5,-38.7"/>
<text text-anchor="start" x="284.1904" y="-43.8" font-family="Helvetica,sans-Serif" font-size="11.00" fill="#000000">639 rows</text>
<polygon fill="#ffffff" stroke="transparent" points="347.5,-38.7 347.5,-55.7 400.5,-55.7 400.5,-38.7 347.5,-38.7"/>
<text text-anchor="start" x="382.9053" y="-43.8" font-family="Helvetica,sans-Serif" font-size="11.00" fill="#000000">3 &gt;</text>
<polygon fill="#000000" stroke="#000000" points="265.5,-38.7 265.5,-55.7 265.5,-55.7 265.5,-38.7 265.5,-38.7"/>
<polygon fill="#000000" stroke="#000000" points="347.5,-38.7 347.5,-55.7 347.5,-55.7 347.5,-38.7 347.5,-38.7"/>
</a>
</g>
</g>
<!-- einkauf&#45;&gt;haushalt -->
<g id="edge2" class="edge">
<title>einkauf:w&#45;&gt;haushalt:e</title>
<path fill="none" stroke="#000000" d="M651.3376,-188.7978C563.1933,-189.9719 532.9965,-200.8681 442,-174.7 422.3136,-169.0387 421.9843,-152.7 401.5,-152.7"/>
<polygon fill="#000000" stroke="#000000" points="658.0002,-188.7534 666.024,-192.2999 662.0001,-188.7267 666,-188.7 666,-188.7 666,-188.7 662.0001,-188.7267 665.976,-185.1001 658.0002,-188.7534 658.0002,-188.7534"/>
<ellipse fill="none" stroke="#000000" cx="654.8002" cy="-188.7748" rx="3.2" ry="3.2"/>
</g>
<!-- familienmitglied -->
<g id="node4" class="node">
<title>familienmitglied</title>
<g id="a_node4"><a xlink:href="../../tables/familienmitglied.html" xlink:title="familienmitglied" target="_top">
<polygon fill="#ffffff" stroke="transparent" points="450,-103.2 450,-164.2 608,-164.2 608,-103.2 450,-103.2"/>
<polygon fill="#f5f5f5" stroke="transparent" points="450,-140.7 450,-163.7 608,-163.7 608,-140.7 450,-140.7"/>
<polygon fill="none" stroke="#000000" points="450,-140.7 450,-163.7 608,-163.7 608,-140.7 450,-140.7"/>
<text text-anchor="start" x="455" y="-149.3" font-family="Helvetica,sans-Serif" font-weight="bold" font-size="11.00" fill="#000000">familienmitglied</text>
<text text-anchor="start" x="573.5219" y="-148.8" font-family="Helvetica,sans-Serif" font-size="11.00" fill="#000000">[table]</text>
<polygon fill="none" stroke="#000000" points="450,-121.7 450,-140.7 608,-140.7 608,-121.7 450,-121.7"/>
<text text-anchor="start" x="453" y="-127.8" font-family="Helvetica,sans-Serif" font-size="11.00" fill="#000000">...</text>
<polygon fill="#ffffff" stroke="transparent" points="450,-102.7 450,-121.7 608,-121.7 608,-102.7 450,-102.7"/>
<polygon fill="none" stroke="#000000" points="450,-102.7 450,-121.7 608,-121.7 608,-102.7 450,-102.7"/>
<polygon fill="#ffffff" stroke="transparent" points="451,-103.7 451,-120.7 491,-120.7 491,-103.7 451,-103.7"/>
<text text-anchor="start" x="453" y="-108.8" font-family="Helvetica,sans-Serif" font-size="11.00" fill="#000000">&lt; 3</text>
<polygon fill="#ffffff" stroke="transparent" points="491,-103.7 491,-120.7 568,-120.7 568,-103.7 491,-103.7"/>
<text text-anchor="start" x="502.6045" y="-108.8" font-family="Helvetica,sans-Serif" font-size="11.00" fill="#000000">1,525 rows</text>
<polygon fill="#ffffff" stroke="transparent" points="568,-103.7 568,-120.7 607,-120.7 607,-103.7 568,-103.7"/>
<text text-anchor="start" x="589.4053" y="-108.8" font-family="Helvetica,sans-Serif" font-size="11.00" fill="#000000">3 &gt;</text>
<polygon fill="#000000" stroke="#000000" points="491,-103.7 491,-120.7 491,-120.7 491,-103.7 491,-103.7"/>
<polygon fill="#000000" stroke="#000000" points="568,-103.7 568,-120.7 568,-120.7 568,-103.7 568,-103.7"/>
</a>
</g>
</g>
<!-- einkauf&#45;&gt;familienmitglied -->
<g id="edge3" class="edge">
<title>einkauf:w&#45;&gt;familienmitglied:e</title>
<path fill="none" stroke="#000000" d="M652.015,-184.7134C633.0032,-171.6096 638.6167,-130.7 608,-130.7"/>
<polygon fill="#000000" stroke="#000000" points="658.3065,-186.5068 665.0131,-192.1621 662.1532,-187.6034 666,-188.7 666,-188.7 666,-188.7 662.1532,-187.6034 666.9869,-185.2379 658.3065,-186.5068 658.3065,-186.5068"/>
<ellipse fill="none" stroke="#000000" cx="655.2291" cy="-185.6296" rx="3.2" ry="3.2"/>
</g>
<!-- haushalt&#45;&gt;verteilstelle -->
<g id="edge7" class="edge">
<title>haushalt:w&#45;&gt;verteilstelle:e</title>
<path fill="none" stroke="#000000" d="M196.2959,-112.3429C176.4135,-124.3171 178.9456,-161.7 148.5,-161.7"/>
<polygon fill="#000000" stroke="#000000" points="202.7508,-110.6875 211.3944,-112.1871 206.6254,-109.6937 210.5,-108.7 210.5,-108.7 210.5,-108.7 206.6254,-109.6937 209.6056,-105.2129 202.7508,-110.6875 202.7508,-110.6875"/>
<ellipse fill="none" stroke="#000000" cx="199.6511" cy="-111.4825" rx="3.2" ry="3.2"/>
</g>
<!-- ausgabegruppe -->
<g id="node5" class="node">
<title>ausgabegruppe</title>
<g id="a_node5"><a xlink:href="../../tables/ausgabegruppe.html" xlink:title="ausgabegruppe" target="_top">
<polygon fill="#ffffff" stroke="transparent" points="8,-52.2 8,-113.2 161,-113.2 161,-52.2 8,-52.2"/>
<polygon fill="#f5f5f5" stroke="transparent" points="8.5,-89.7 8.5,-112.7 161.5,-112.7 161.5,-89.7 8.5,-89.7"/>
<polygon fill="none" stroke="#000000" points="8.5,-89.7 8.5,-112.7 161.5,-112.7 161.5,-89.7 8.5,-89.7"/>
<text text-anchor="start" x="13.5" y="-98.3" font-family="Helvetica,sans-Serif" font-weight="bold" font-size="11.00" fill="#000000">ausgabegruppe</text>
<text text-anchor="start" x="127.0219" y="-97.8" font-family="Helvetica,sans-Serif" font-size="11.00" fill="#000000">[table]</text>
<polygon fill="none" stroke="#000000" points="8.5,-70.7 8.5,-89.7 161.5,-89.7 161.5,-70.7 8.5,-70.7"/>
<text text-anchor="start" x="11.5" y="-76.8" font-family="Helvetica,sans-Serif" font-size="11.00" fill="#000000">...</text>
<polygon fill="#ffffff" stroke="transparent" points="8.5,-51.7 8.5,-70.7 161.5,-70.7 161.5,-51.7 8.5,-51.7"/>
<polygon fill="none" stroke="#000000" points="8.5,-51.7 8.5,-70.7 161.5,-70.7 161.5,-51.7 8.5,-51.7"/>
<polygon fill="#ffffff" stroke="transparent" points="9.5,-52.7 9.5,-69.7 46.5,-69.7 46.5,-52.7 9.5,-52.7"/>
<text text-anchor="start" x="11.5" y="-57.8" font-family="Helvetica,sans-Serif" font-size="11.00" fill="#000000"> &#160;</text>
<polygon fill="#ffffff" stroke="transparent" points="46.5,-52.7 46.5,-69.7 115.5,-69.7 115.5,-52.7 46.5,-52.7"/>
<text text-anchor="start" x="61.7478" y="-57.8" font-family="Helvetica,sans-Serif" font-size="11.00" fill="#000000">24 rows</text>
<polygon fill="#ffffff" stroke="transparent" points="115.5,-52.7 115.5,-69.7 160.5,-69.7 160.5,-52.7 115.5,-52.7"/>
<text text-anchor="start" x="142.9053" y="-57.8" font-family="Helvetica,sans-Serif" font-size="11.00" fill="#000000">2 &gt;</text>
<polygon fill="#000000" stroke="#000000" points="46.5,-52.7 46.5,-69.7 46.5,-69.7 46.5,-52.7 46.5,-52.7"/>
<polygon fill="#000000" stroke="#000000" points="115.5,-52.7 115.5,-69.7 115.5,-69.7 115.5,-52.7 115.5,-52.7"/>
</a>
</g>
</g>
<!-- haushalt&#45;&gt;ausgabegruppe -->
<g id="edge5" class="edge">
<title>haushalt:w&#45;&gt;ausgabegruppe:e</title>
<path fill="none" stroke="#000000" d="M195.9302,-85.4807C184.6445,-83.4751 177.6554,-79.7 161.5,-79.7"/>
<polygon fill="#000000" stroke="#000000" points="202.5279,-86.0328 210.1998,-90.2875 206.5139,-86.3664 210.5,-86.7 210.5,-86.7 210.5,-86.7 206.5139,-86.3664 210.8002,-83.1125 202.5279,-86.0328 202.5279,-86.0328"/>
<ellipse fill="none" stroke="#000000" cx="199.339" cy="-85.7659" rx="3.2" ry="3.2"/>
</g>
<!-- plz -->
<g id="node6" class="node">
<title>plz</title>
<g id="a_node6"><a xlink:href="../../tables/plz.html" xlink:title="plz" target="_top">
<polygon fill="#ffffff" stroke="transparent" points="24,-216.7 24,-328.7 145,-328.7 145,-216.7 24,-216.7"/>
<polygon fill="#f5f5f5" stroke="transparent" points="26.5,-303.7 26.5,-326.7 143.5,-326.7 143.5,-303.7 26.5,-303.7"/>
<polygon fill="none" stroke="#000000" points="26.5,-303.7 26.5,-326.7 143.5,-326.7 143.5,-303.7 26.5,-303.7"/>
<text text-anchor="start" x="31.5" y="-312.3" font-family="Helvetica,sans-Serif" font-weight="bold" font-size="11.00" fill="#000000">plz</text>
<text text-anchor="start" x="108.5437" y="-311.8" font-family="Helvetica,sans-Serif" font-size="11.00" fill="#000000">[table]</text>
<polygon fill="none" stroke="#000000" points="26.5,-281.7 26.5,-303.7 82.5,-303.7 82.5,-281.7 26.5,-281.7"/>
<image xlink:href="../../images/primaryKeys.png" width="11px" height="12px" preserveAspectRatio="xMinYMin meet" x="31.5" y="-298.7"/>
<text text-anchor="start" x="46.5" y="-288.8" font-family="Helvetica,sans-Serif" font-size="11.00" fill="#000000">plzId</text>
<polygon fill="none" stroke="#000000" points="82.5,-281.7 82.5,-303.7 143.5,-303.7 143.5,-281.7 82.5,-281.7"/>
<text text-anchor="start" x="85.5" y="-289.4" font-family="Helvetica,sans-Serif" font-size="11.00" fill="#000000">int[10]</text>
<polygon fill="none" stroke="#000000" points="26.5,-259.7 26.5,-281.7 82.5,-281.7 82.5,-259.7 26.5,-259.7"/>
<text text-anchor="start" x="46.5" y="-266.8" font-family="Helvetica,sans-Serif" font-size="11.00" fill="#000000">plz</text>
<polygon fill="none" stroke="#000000" points="82.5,-259.7 82.5,-281.7 143.5,-281.7 143.5,-259.7 82.5,-259.7"/>
<text text-anchor="start" x="85.5" y="-267.4" font-family="Helvetica,sans-Serif" font-size="11.00" fill="#000000">varchar[5]</text>
<polygon fill="none" stroke="#000000" points="26.5,-237.7 26.5,-259.7 82.5,-259.7 82.5,-237.7 26.5,-237.7"/>
<text text-anchor="start" x="46.5" y="-244.8" font-family="Helvetica,sans-Serif" font-size="11.00" fill="#000000">ort</text>
<polygon fill="none" stroke="#000000" points="82.5,-237.7 82.5,-259.7 143.5,-259.7 143.5,-237.7 82.5,-237.7"/>
<text text-anchor="start" x="85.494" y="-245.4" font-family="Helvetica,sans-Serif" font-size="11.00" fill="#000000">varchar[40]</text>
<polygon fill="#ffffff" stroke="transparent" points="26.5,-218.7 26.5,-237.7 143.5,-237.7 143.5,-218.7 26.5,-218.7"/>
<polygon fill="none" stroke="#000000" points="26.5,-218.7 26.5,-237.7 143.5,-237.7 143.5,-218.7 26.5,-218.7"/>
<polygon fill="#ffffff" stroke="transparent" points="27.5,-219.7 27.5,-236.7 58.5,-236.7 58.5,-219.7 27.5,-219.7"/>
<text text-anchor="start" x="29.5" y="-224.8" font-family="Helvetica,sans-Serif" font-size="11.00" fill="#000000">&lt; 0</text>
<polygon fill="#ffffff" stroke="transparent" points="58.5,-219.7 58.5,-236.7 112.5,-236.7 112.5,-219.7 58.5,-219.7"/>
<text text-anchor="start" x="66.2478" y="-224.8" font-family="Helvetica,sans-Serif" font-size="11.00" fill="#000000">29 rows</text>
<polygon fill="#ffffff" stroke="transparent" points="112.5,-219.7 112.5,-236.7 142.5,-236.7 142.5,-219.7 112.5,-219.7"/>
<text text-anchor="start" x="124.9053" y="-224.8" font-family="Helvetica,sans-Serif" font-size="11.00" fill="#000000">2 &gt;</text>
<polygon fill="#000000" stroke="#000000" points="58.5,-219.7 58.5,-236.7 58.5,-236.7 58.5,-219.7 58.5,-219.7"/>
<polygon fill="#000000" stroke="#000000" points="112.5,-219.7 112.5,-236.7 112.5,-236.7 112.5,-219.7 112.5,-219.7"/>
<polygon fill="none" stroke="#000000" stroke-width="2" points="25,-217.7 25,-327.7 144,-327.7 144,-217.7 25,-217.7"/>
</a>
</g>
</g>
<!-- haushalt&#45;&gt;plz -->
<g id="edge6" class="edge">
<title>haushalt:w&#45;&gt;plz:e</title>
<path fill="none" stroke="#000000" d="M196.0948,-133.1158C144.5531,-153.268 215.7842,-292.7 143.5,-292.7"/>
<polygon fill="#000000" stroke="#000000" points="202.6102,-132.0232 211.0954,-134.2504 206.5551,-131.3616 210.5,-130.7 210.5,-130.7 210.5,-130.7 206.5551,-131.3616 209.9046,-127.1496 202.6102,-132.0232 202.6102,-132.0232"/>
<ellipse fill="none" stroke="#000000" cx="199.4542" cy="-132.5525" rx="3.2" ry="3.2"/>
</g>
<!-- familienmitglied&#45;&gt;haushalt -->
<g id="edge4" class="edge">
<title>familienmitglied:w&#45;&gt;haushalt:e</title>
<path fill="none" stroke="#000000" d="M435.7648,-134.1375C424.3432,-140.325 419.2522,-152.7 401.5,-152.7"/>
<polygon fill="#000000" stroke="#000000" points="442.2235,-132.5779 450.8451,-134.1994 446.1118,-131.6389 450,-130.7 450,-130.7 450,-130.7 446.1118,-131.6389 449.1549,-127.2006 442.2235,-132.5779 442.2235,-132.5779"/>
<ellipse fill="none" stroke="#000000" cx="439.1129" cy="-133.3291" rx="3.2" ry="3.2"/>
</g>
<!-- ortsteil -->
<g id="node7" class="node">
<title>ortsteil</title>
<g id="a_node7"><a xlink:href="../../tables/ortsteil.html" xlink:title="ortsteil" target="_top">
<polygon fill="#ffffff" stroke="transparent" points="259.5,-244.2 259.5,-349.2 351.5,-349.2 351.5,-244.2 259.5,-244.2"/>
<polygon fill="#f5f5f5" stroke="transparent" points="259.5,-325.7 259.5,-348.7 351.5,-348.7 351.5,-325.7 259.5,-325.7"/>
<polygon fill="none" stroke="#000000" points="259.5,-325.7 259.5,-348.7 351.5,-348.7 351.5,-325.7 259.5,-325.7"/>
<text text-anchor="start" x="264.5" y="-334.3" font-family="Helvetica,sans-Serif" font-weight="bold" font-size="11.00" fill="#000000">ortsteil</text>
<text text-anchor="start" x="317.0219" y="-333.8" font-family="Helvetica,sans-Serif" font-size="11.00" fill="#000000">[table]</text>
<polygon fill="none" stroke="#000000" points="259.5,-303.7 259.5,-325.7 351.5,-325.7 351.5,-303.7 259.5,-303.7"/>
<image xlink:href="../../images/primaryKeys.png" width="11px" height="12px" preserveAspectRatio="xMinYMin meet" x="264.5" y="-320.7"/>
<text text-anchor="start" x="281.5" y="-310.8" font-family="Helvetica,sans-Serif" font-size="11.00" fill="#000000">ortsteilId</text>
<polygon fill="#ffffff" stroke="transparent" points="259.5,-281.7 259.5,-303.7 351.5,-303.7 351.5,-281.7 259.5,-281.7"/>
<polygon fill="none" stroke="#000000" points="259.5,-281.7 259.5,-303.7 351.5,-303.7 351.5,-281.7 259.5,-281.7"/>
<image xlink:href="../../images/foreignKeys.png" width="11px" height="12px" preserveAspectRatio="xMinYMin meet" x="264.5" y="-298.7"/>
<text text-anchor="start" x="281.5" y="-288.8" font-family="Helvetica,sans-Serif" font-size="11.00" fill="#000000">plz</text>
<polygon fill="none" stroke="#000000" points="259.5,-262.7 259.5,-281.7 351.5,-281.7 351.5,-262.7 259.5,-262.7"/>
<text text-anchor="start" x="262.5" y="-268.8" font-family="Helvetica,sans-Serif" font-size="11.00" fill="#000000">...</text>
<polygon fill="#ffffff" stroke="transparent" points="259.5,-243.7 259.5,-262.7 351.5,-262.7 351.5,-243.7 259.5,-243.7"/>
<polygon fill="none" stroke="#000000" points="259.5,-243.7 259.5,-262.7 351.5,-262.7 351.5,-243.7 259.5,-243.7"/>
<polygon fill="#ffffff" stroke="transparent" points="260.5,-244.7 260.5,-261.7 288.5,-261.7 288.5,-244.7 260.5,-244.7"/>
<text text-anchor="start" x="262.5" y="-249.8" font-family="Helvetica,sans-Serif" font-size="11.00" fill="#000000">&lt; 1</text>
<polygon fill="#ffffff" stroke="transparent" points="288.5,-244.7 288.5,-261.7 332.5,-261.7 332.5,-244.7 288.5,-244.7"/>
<text text-anchor="start" x="294.3053" y="-249.8" font-family="Helvetica,sans-Serif" font-size="11.00" fill="#000000">0 rows</text>
<polygon fill="#ffffff" stroke="transparent" points="332.5,-244.7 332.5,-261.7 350.5,-261.7 350.5,-244.7 332.5,-244.7"/>
<text text-anchor="start" x="342.3862" y="-249.8" font-family="Helvetica,sans-Serif" font-size="11.00" fill="#000000"> &#160;</text>
<polygon fill="#000000" stroke="#000000" points="288.5,-244.7 288.5,-261.7 288.5,-261.7 288.5,-244.7 288.5,-244.7"/>
<polygon fill="#000000" stroke="#000000" points="332.5,-244.7 332.5,-261.7 332.5,-261.7 332.5,-244.7 332.5,-244.7"/>
</a>
</g>
</g>
<!-- ortsteil&#45;&gt;plz -->
<g id="edge8" class="edge">
<title>ortsteil:w&#45;&gt;plz:e</title>
<path fill="none" stroke="#000000" d="M244.9072,-292.7C204.9275,-292.7 189.8194,-292.7 143.5,-292.7"/>
<polygon fill="#000000" stroke="#000000" points="251.5,-292.7001 259.5,-296.3 255.5,-292.7 259.5,-292.7 259.5,-292.7 259.5,-292.7 255.5,-292.7 259.5,-289.1 251.5,-292.7001 251.5,-292.7001"/>
<ellipse fill="none" stroke="#000000" cx="248.3" cy="-292.7001" rx="3.2" ry="3.2"/>
</g>
<!-- vollmacht -->
<g id="node8" class="node">
<title>vollmacht</title>
<g id="a_node8"><a xlink:href="../../tables/vollmacht.html" xlink:title="vollmacht" target="_top">
<polygon fill="#ffffff" stroke="transparent" points="657,-65.2 657,-126.2 767,-126.2 767,-65.2 657,-65.2"/>
<polygon fill="#f5f5f5" stroke="transparent" points="657,-102.7 657,-125.7 767,-125.7 767,-102.7 657,-102.7"/>
<polygon fill="none" stroke="#000000" points="657,-102.7 657,-125.7 767,-125.7 767,-102.7 657,-102.7"/>
<text text-anchor="start" x="662" y="-111.3" font-family="Helvetica,sans-Serif" font-weight="bold" font-size="11.00" fill="#000000">vollmacht</text>
<text text-anchor="start" x="732.5219" y="-110.8" font-family="Helvetica,sans-Serif" font-size="11.00" fill="#000000">[table]</text>
<polygon fill="none" stroke="#000000" points="657,-83.7 657,-102.7 767,-102.7 767,-83.7 657,-83.7"/>
<text text-anchor="start" x="660" y="-89.8" font-family="Helvetica,sans-Serif" font-size="11.00" fill="#000000">...</text>
<polygon fill="#ffffff" stroke="transparent" points="657,-64.7 657,-83.7 767,-83.7 767,-64.7 657,-64.7"/>
<polygon fill="none" stroke="#000000" points="657,-64.7 657,-83.7 767,-83.7 767,-64.7 657,-64.7"/>
<polygon fill="#ffffff" stroke="transparent" points="658,-65.7 658,-82.7 692,-82.7 692,-65.7 658,-65.7"/>
<text text-anchor="start" x="660" y="-70.8" font-family="Helvetica,sans-Serif" font-size="11.00" fill="#000000">&lt; 2</text>
<polygon fill="#ffffff" stroke="transparent" points="692,-65.7 692,-82.7 742,-82.7 742,-65.7 692,-65.7"/>
<text text-anchor="start" x="700.8053" y="-70.8" font-family="Helvetica,sans-Serif" font-size="11.00" fill="#000000">0 rows</text>
<polygon fill="#ffffff" stroke="transparent" points="742,-65.7 742,-82.7 766,-82.7 766,-65.7 742,-65.7"/>
<text text-anchor="start" x="757.8862" y="-70.8" font-family="Helvetica,sans-Serif" font-size="11.00" fill="#000000"> &#160;</text>
<polygon fill="#000000" stroke="#000000" points="692,-65.7 692,-82.7 692,-82.7 692,-65.7 692,-65.7"/>
<polygon fill="#000000" stroke="#000000" points="742,-65.7 742,-82.7 742,-82.7 742,-65.7 742,-65.7"/>
</a>
</g>
</g>
<!-- vollmacht&#45;&gt;haushalt -->
<g id="edge10" class="edge">
<title>vollmacht:w&#45;&gt;haushalt:e</title>
<path fill="none" stroke="#000000" d="M642.3714,-92.3456C557.6089,-88.2195 521.9285,-50.2186 442,-92.7 413.5903,-107.7996 433.6731,-152.7 401.5,-152.7"/>
<polygon fill="#000000" stroke="#000000" points="649.0023,-92.5062 656.9128,-96.2989 653.0012,-92.6031 657,-92.7 657,-92.7 657,-92.7 653.0012,-92.6031 657.0872,-89.1011 649.0023,-92.5062 649.0023,-92.5062"/>
<ellipse fill="none" stroke="#000000" cx="645.8033" cy="-92.4287" rx="3.2" ry="3.2"/>
</g>
<!-- vollmacht&#45;&gt;familienmitglied -->
<g id="edge9" class="edge">
<title>vollmacht:w&#45;&gt;familienmitglied:e</title>
<path fill="none" stroke="#000000" d="M643.0438,-97.3595C630.5061,-107.5066 629.5306,-130.7 608,-130.7"/>
<polygon fill="#000000" stroke="#000000" points="649.4118,-95.2335 658.1401,-96.1147 653.2059,-93.9668 657,-92.7 657,-92.7 657,-92.7 653.2059,-93.9668 655.8599,-89.2853 649.4118,-95.2335 649.4118,-95.2335"/>
<ellipse fill="none" stroke="#000000" cx="646.3765" cy="-96.2469" rx="3.2" ry="3.2"/>
</g>
</g>
</svg>
