<?xml version="1.0" encoding="UTF-8" standalone="no"?>
<!DOCTYPE svg PUBLIC "-//W3C//DTD SVG 1.1//EN"
 "http://www.w3.org/Graphics/SVG/1.1/DTD/svg11.dtd">
<!-- Generated by graphviz version 2.40.1 (20161225.0304)
 -->
<!-- Title: oneDegreeRelationshipsDiagram Pages: 1 -->
<svg width="344pt" height="404pt"
 viewBox="0.00 0.00 344.00 404.20" xmlns="http://www.w3.org/2000/svg" xmlns:xlink="http://www.w3.org/1999/xlink">
<g id="graph0" class="graph" transform="scale(1 1) rotate(0) translate(4 400.2)">
<title>oneDegreeRelationshipsDiagram</title>
<polygon fill="#ffffff" stroke="transparent" points="-4,4 -4,-400.2 340,-400.2 340,4 -4,4"/>
<text text-anchor="middle" x="72.4936" y="-7.3" font-family="Helvetica,sans-Serif" font-size="11.00" fill="#000000">Generated by SchemaSpy</text>
<!-- statistiktool -->
<g id="node1" class="node">
<title>statistiktool</title>
<g id="a_node1"><a xlink:href="../../tables/statistiktool.html" xlink:title="statistiktool" target="_top">
<polygon fill="#ffffff" stroke="transparent" points="8,-38.2 8,-392.2 328,-392.2 328,-38.2 8,-38.2"/>
<polygon fill="#f5f5f5" stroke="transparent" points="10,-367.2 10,-390.2 326,-390.2 326,-367.2 10,-367.2"/>
<polygon fill="none" stroke="#000000" points="10,-367.2 10,-390.2 326,-390.2 326,-367.2 10,-367.2"/>
<text text-anchor="start" x="15" y="-375.8" font-family="Helvetica,sans-Serif" font-weight="bold" font-size="11.00" fill="#000000">statistiktool</text>
<text text-anchor="start" x="291.0437" y="-375.3" font-family="Helvetica,sans-Serif" font-size="11.00" fill="#000000">[table]</text>
<polygon fill="none" stroke="#000000" points="10,-345.2 10,-367.2 259,-367.2 259,-345.2 10,-345.2"/>
<image xlink:href="../../images/primaryKeys.png" width="11px" height="12px" preserveAspectRatio="xMinYMin meet" x="15" y="-362.2"/>
<text text-anchor="start" x="30" y="-352.3" font-family="Helvetica,sans-Serif" font-size="11.00" fill="#000000">id</text>
<polygon fill="none" stroke="#000000" points="259,-345.2 259,-367.2 326,-367.2 326,-345.2 259,-345.2"/>
<text text-anchor="start" x="262" y="-352.9" font-family="Helvetica,sans-Serif" font-size="11.00" fill="#000000">int[10]</text>
<polygon fill="none" stroke="#000000" points="10,-323.2 10,-345.2 259,-345.2 259,-323.2 10,-323.2"/>
<text text-anchor="start" x="30" y="-330.3" font-family="Helvetica,sans-Serif" font-size="11.00" fill="#000000">Nationalitäten</text>
<polygon fill="none" stroke="#000000" points="259,-323.2 259,-345.2 326,-345.2 326,-323.2 259,-323.2"/>
<text text-anchor="start" x="261.9365" y="-330.9" font-family="Helvetica,sans-Serif" font-size="11.00" fill="#000000">varchar[255]</text>
<polygon fill="none" stroke="#000000" points="10,-301.2 10,-323.2 259,-323.2 259,-301.2 10,-301.2"/>
<text text-anchor="start" x="30" y="-308.3" font-family="Helvetica,sans-Serif" font-size="11.00" fill="#000000">Altersstatistik</text>
<polygon fill="none" stroke="#000000" points="259,-301.2 259,-323.2 326,-323.2 326,-301.2 259,-301.2"/>
<text text-anchor="start" x="261.9365" y="-308.9" font-family="Helvetica,sans-Serif" font-size="11.00" fill="#000000">varchar[255]</text>
<polygon fill="none" stroke="#000000" points="10,-279.2 10,-301.2 259,-301.2 259,-279.2 10,-279.2"/>
<text text-anchor="start" x="30" y="-286.3" font-family="Helvetica,sans-Serif" font-size="11.00" fill="#000000">Guthaben_und_offene_Beiträge</text>
<polygon fill="none" stroke="#000000" points="259,-279.2 259,-301.2 326,-301.2 326,-279.2 259,-279.2"/>
<text text-anchor="start" x="262" y="-286.9" font-family="Helvetica,sans-Serif" font-size="11.00" fill="#000000">double[22]</text>
<polygon fill="none" stroke="#000000" points="10,-257.2 10,-279.2 259,-279.2 259,-257.2 10,-257.2"/>
<text text-anchor="start" x="30" y="-264.3" font-family="Helvetica,sans-Serif" font-size="11.00" fill="#000000">Herkunft_der_Kunden</text>
<polygon fill="none" stroke="#000000" points="259,-257.2 259,-279.2 326,-279.2 326,-257.2 259,-257.2"/>
<text text-anchor="start" x="261.9365" y="-264.9" font-family="Helvetica,sans-Serif" font-size="11.00" fill="#000000">varchar[255]</text>
<polygon fill="none" stroke="#000000" points="10,-235.2 10,-257.2 259,-257.2 259,-235.2 10,-235.2"/>
<text text-anchor="start" x="30" y="-242.3" font-family="Helvetica,sans-Serif" font-size="11.00" fill="#000000">Archivierte_Kunden</text>
<polygon fill="none" stroke="#000000" points="259,-235.2 259,-257.2 326,-257.2 326,-235.2 259,-235.2"/>
<text text-anchor="start" x="262" y="-242.9" font-family="Helvetica,sans-Serif" font-size="11.00" fill="#000000">int[10]</text>
<polygon fill="none" stroke="#000000" points="10,-213.2 10,-235.2 259,-235.2 259,-213.2 10,-213.2"/>
<text text-anchor="start" x="30" y="-220.3" font-family="Helvetica,sans-Serif" font-size="11.00" fill="#000000">Gesperrte_Kunden</text>
<polygon fill="none" stroke="#000000" points="259,-213.2 259,-235.2 326,-235.2 326,-213.2 259,-213.2"/>
<text text-anchor="start" x="262" y="-220.9" font-family="Helvetica,sans-Serif" font-size="11.00" fill="#000000">int[10]</text>
<polygon fill="none" stroke="#000000" points="10,-191.2 10,-213.2 259,-213.2 259,-191.2 10,-191.2"/>
<text text-anchor="start" x="30" y="-198.3" font-family="Helvetica,sans-Serif" font-size="11.00" fill="#000000">Anzahl_der_Haushalte</text>
<polygon fill="none" stroke="#000000" points="259,-191.2 259,-213.2 326,-213.2 326,-191.2 259,-191.2"/>
<text text-anchor="start" x="262" y="-198.9" font-family="Helvetica,sans-Serif" font-size="11.00" fill="#000000">int[10]</text>
<polygon fill="none" stroke="#000000" points="10,-169.2 10,-191.2 259,-191.2 259,-169.2 10,-169.2"/>
<text text-anchor="start" x="30" y="-176.3" font-family="Helvetica,sans-Serif" font-size="11.00" fill="#000000">Anzahl_der_Personen</text>
<polygon fill="none" stroke="#000000" points="259,-169.2 259,-191.2 326,-191.2 326,-169.2 259,-169.2"/>
<text text-anchor="start" x="262" y="-176.9" font-family="Helvetica,sans-Serif" font-size="11.00" fill="#000000">int[10]</text>
<polygon fill="none" stroke="#000000" points="10,-147.2 10,-169.2 259,-169.2 259,-147.2 10,-147.2"/>
<text text-anchor="start" x="30" y="-154.3" font-family="Helvetica,sans-Serif" font-size="11.00" fill="#000000">Beschwerde_Art_Statistik</text>
<polygon fill="none" stroke="#000000" points="259,-147.2 259,-169.2 326,-169.2 326,-147.2 259,-147.2"/>
<text text-anchor="start" x="261.9365" y="-154.9" font-family="Helvetica,sans-Serif" font-size="11.00" fill="#000000">varchar[255]</text>
<polygon fill="none" stroke="#000000" points="10,-125.2 10,-147.2 259,-147.2 259,-125.2 10,-125.2"/>
<text text-anchor="start" x="30" y="-132.3" font-family="Helvetica,sans-Serif" font-size="11.00" fill="#000000">Personen_ohne_Beschwerde</text>
<polygon fill="none" stroke="#000000" points="259,-125.2 259,-147.2 326,-147.2 326,-125.2 259,-125.2"/>
<text text-anchor="start" x="262" y="-132.9" font-family="Helvetica,sans-Serif" font-size="11.00" fill="#000000">int[10]</text>
<polygon fill="none" stroke="#000000" points="10,-103.2 10,-125.2 259,-125.2 259,-103.2 10,-103.2"/>
<text text-anchor="start" x="30" y="-110.3" font-family="Helvetica,sans-Serif" font-size="11.00" fill="#000000">Anzahl_der_Einkäufe</text>
<polygon fill="none" stroke="#000000" points="259,-103.2 259,-125.2 326,-125.2 326,-103.2 259,-103.2"/>
<text text-anchor="start" x="262" y="-110.9" font-family="Helvetica,sans-Serif" font-size="11.00" fill="#000000">int[10]</text>
<polygon fill="none" stroke="#000000" points="10,-81.2 10,-103.2 259,-103.2 259,-81.2 10,-81.2"/>
<text text-anchor="start" x="30" y="-88.3" font-family="Helvetica,sans-Serif" font-size="11.00" fill="#000000">Umsatzauswertung</text>
<polygon fill="none" stroke="#000000" points="259,-81.2 259,-103.2 326,-103.2 326,-81.2 259,-81.2"/>
<text text-anchor="start" x="262" y="-88.9" font-family="Helvetica,sans-Serif" font-size="11.00" fill="#000000">double[22]</text>
<polygon fill="none" stroke="#000000" points="10,-59.2 10,-81.2 259,-81.2 259,-59.2 10,-59.2"/>
<text text-anchor="start" x="30" y="-66.3" font-family="Helvetica,sans-Serif" font-size="11.00" fill="#000000">Tagesstatistik_Warengruppen</text>
<polygon fill="none" stroke="#000000" points="259,-59.2 259,-81.2 326,-81.2 326,-59.2 259,-59.2"/>
<text text-anchor="start" x="261.9365" y="-66.9" font-family="Helvetica,sans-Serif" font-size="11.00" fill="#000000">varchar[255]</text>
<polygon fill="#ffffff" stroke="transparent" points="10,-40.2 10,-59.2 326,-59.2 326,-40.2 10,-40.2"/>
<polygon fill="none" stroke="#000000" points="10,-40.2 10,-59.2 326,-59.2 326,-40.2 10,-40.2"/>
<polygon fill="#ffffff" stroke="transparent" points="11,-41.2 11,-58.2 110,-58.2 110,-41.2 11,-41.2"/>
<text text-anchor="start" x="13" y="-46.3" font-family="Helvetica,sans-Serif" font-size="11.00" fill="#000000">&lt; 0</text>
<polygon fill="#ffffff" stroke="transparent" points="110,-41.2 110,-58.2 226,-58.2 226,-41.2 110,-41.2"/>
<text text-anchor="start" x="151.8053" y="-46.3" font-family="Helvetica,sans-Serif" font-size="11.00" fill="#000000">0 rows</text>
<polygon fill="#ffffff" stroke="transparent" points="226,-41.2 226,-58.2 325,-58.2 325,-41.2 226,-41.2"/>
<text text-anchor="start" x="307.4053" y="-46.3" font-family="Helvetica,sans-Serif" font-size="11.00" fill="#000000">0 &gt;</text>
<polygon fill="#000000" stroke="#000000" points="110,-41.2 110,-58.2 110,-58.2 110,-41.2 110,-41.2"/>
<polygon fill="#000000" stroke="#000000" points="226,-41.2 226,-58.2 226,-58.2 226,-41.2 226,-41.2"/>
<polygon fill="none" stroke="#000000" stroke-width="2" points="9,-39.2 9,-391.2 327,-391.2 327,-39.2 9,-39.2"/>
</a>
</g>
</g>
</g>
</svg>
