<?xml version="1.0" encoding="UTF-8" standalone="no"?>
<!DOCTYPE svg PUBLIC "-//W3C//DTD SVG 1.1//EN"
 "http://www.w3.org/Graphics/SVG/1.1/DTD/svg11.dtd">
<!-- Generated by graphviz version 2.40.1 (20161225.0304)
 -->
<!-- Title: oneDegreeRelationshipsDiagram Pages: 1 -->
<svg width="506pt" height="272pt"
 viewBox="0.00 0.00 506.00 272.20" xmlns="http://www.w3.org/2000/svg" xmlns:xlink="http://www.w3.org/1999/xlink">
<g id="graph0" class="graph" transform="scale(1 1) rotate(0) translate(4 268.2)">
<title>oneDegreeRelationshipsDiagram</title>
<polygon fill="#ffffff" stroke="transparent" points="-4,4 -4,-268.2 502,-268.2 502,4 -4,4"/>
<text text-anchor="middle" x="72.4936" y="-7.3" font-family="Helvetica,sans-Serif" font-size="11.00" fill="#000000">Generated by SchemaSpy</text>
<!-- table_column_preferences -->
<g id="node1" class="node">
<title>table_column_preferences</title>
<g id="a_node1"><a xlink:href="../../tables/table_column_preferences.html" xlink:title="table_column_preferences" target="_top">
<polygon fill="#ffffff" stroke="transparent" points="214,-38.2 214,-260.2 490,-260.2 490,-38.2 214,-38.2"/>
<polygon fill="#f5f5f5" stroke="transparent" points="216,-235.2 216,-258.2 488,-258.2 488,-235.2 216,-235.2"/>
<polygon fill="none" stroke="#000000" points="216,-235.2 216,-258.2 488,-258.2 488,-235.2 216,-235.2"/>
<text text-anchor="start" x="221" y="-243.8" font-family="Helvetica,sans-Serif" font-weight="bold" font-size="11.00" fill="#000000">table_column_preferences</text>
<text text-anchor="start" x="453.0437" y="-243.3" font-family="Helvetica,sans-Serif" font-size="11.00" fill="#000000">[table]</text>
<polygon fill="none" stroke="#000000" points="216,-213.2 216,-235.2 428,-235.2 428,-213.2 216,-213.2"/>
<image xlink:href="../../images/primaryKeys.png" width="11px" height="12px" preserveAspectRatio="xMinYMin meet" x="221" y="-230.2"/>
<text text-anchor="start" x="236" y="-220.3" font-family="Helvetica,sans-Serif" font-size="11.00" fill="#000000">id</text>
<polygon fill="none" stroke="#000000" points="428,-213.2 428,-235.2 488,-235.2 488,-213.2 428,-213.2"/>
<text text-anchor="start" x="431" y="-220.9" font-family="Helvetica,sans-Serif" font-size="11.00" fill="#000000">int[10]</text>
<polygon fill="#ffffff" stroke="transparent" points="216,-191.2 216,-213.2 428,-213.2 428,-191.2 216,-191.2"/>
<polygon fill="none" stroke="#000000" points="216,-191.2 216,-213.2 428,-213.2 428,-191.2 216,-191.2"/>
<image xlink:href="../../images/foreignKeys.png" width="11px" height="12px" preserveAspectRatio="xMinYMin meet" x="221" y="-208.2"/>
<text text-anchor="start" x="236" y="-198.3" font-family="Helvetica,sans-Serif" font-size="11.00" fill="#000000">userId</text>
<polygon fill="none" stroke="#000000" points="428,-191.2 428,-213.2 488,-213.2 488,-191.2 428,-191.2"/>
<text text-anchor="start" x="431" y="-198.9" font-family="Helvetica,sans-Serif" font-size="11.00" fill="#000000">int[10]</text>
<polygon fill="none" stroke="#000000" points="216,-169.2 216,-191.2 428,-191.2 428,-169.2 216,-169.2"/>
<text text-anchor="start" x="236" y="-176.3" font-family="Helvetica,sans-Serif" font-size="11.00" fill="#000000">table_name</text>
<polygon fill="none" stroke="#000000" points="428,-169.2 428,-191.2 488,-191.2 488,-169.2 428,-169.2"/>
<text text-anchor="start" x="430.7915" y="-176.9" font-family="Helvetica,sans-Serif" font-size="11.00" fill="#000000">text[65535]</text>
<polygon fill="none" stroke="#000000" points="216,-147.2 216,-169.2 428,-169.2 428,-147.2 216,-147.2"/>
<text text-anchor="start" x="236" y="-154.3" font-family="Helvetica,sans-Serif" font-size="11.00" fill="#000000">column_id</text>
<polygon fill="none" stroke="#000000" points="428,-147.2 428,-169.2 488,-169.2 488,-147.2 428,-147.2"/>
<text text-anchor="start" x="430.7915" y="-154.9" font-family="Helvetica,sans-Serif" font-size="11.00" fill="#000000">text[65535]</text>
<polygon fill="none" stroke="#000000" points="216,-125.2 216,-147.2 428,-147.2 428,-125.2 216,-125.2"/>
<text text-anchor="start" x="236" y="-132.3" font-family="Helvetica,sans-Serif" font-size="11.00" fill="#000000">width</text>
<polygon fill="none" stroke="#000000" points="428,-125.2 428,-147.2 488,-147.2 488,-125.2 428,-125.2"/>
<text text-anchor="start" x="431" y="-132.9" font-family="Helvetica,sans-Serif" font-size="11.00" fill="#000000">double[22]</text>
<polygon fill="none" stroke="#000000" points="216,-103.2 216,-125.2 428,-125.2 428,-103.2 216,-103.2"/>
<text text-anchor="start" x="236" y="-110.3" font-family="Helvetica,sans-Serif" font-size="11.00" fill="#000000">order_index</text>
<polygon fill="none" stroke="#000000" points="428,-103.2 428,-125.2 488,-125.2 488,-103.2 428,-103.2"/>
<text text-anchor="start" x="431" y="-110.9" font-family="Helvetica,sans-Serif" font-size="11.00" fill="#000000">int[10]</text>
<polygon fill="none" stroke="#000000" points="216,-81.2 216,-103.2 428,-103.2 428,-81.2 216,-81.2"/>
<text text-anchor="start" x="236" y="-88.3" font-family="Helvetica,sans-Serif" font-size="11.00" fill="#000000">visible</text>
<polygon fill="none" stroke="#000000" points="428,-81.2 428,-103.2 488,-103.2 488,-81.2 428,-81.2"/>
<text text-anchor="start" x="431" y="-88.9" font-family="Helvetica,sans-Serif" font-size="11.00" fill="#000000">bit[1]</text>
<polygon fill="none" stroke="#000000" points="216,-59.2 216,-81.2 428,-81.2 428,-59.2 216,-59.2"/>
<text text-anchor="start" x="236" y="-66.3" font-family="Helvetica,sans-Serif" font-size="11.00" fill="#000000">sort_type</text>
<polygon fill="none" stroke="#000000" points="428,-59.2 428,-81.2 488,-81.2 488,-59.2 428,-59.2"/>
<text text-anchor="start" x="430.7915" y="-66.9" font-family="Helvetica,sans-Serif" font-size="11.00" fill="#000000">text[65535]</text>
<polygon fill="#ffffff" stroke="transparent" points="216,-40.2 216,-59.2 488,-59.2 488,-40.2 216,-40.2"/>
<polygon fill="none" stroke="#000000" points="216,-40.2 216,-59.2 488,-59.2 488,-40.2 216,-40.2"/>
<polygon fill="#ffffff" stroke="transparent" points="217,-41.2 217,-58.2 298,-58.2 298,-41.2 217,-41.2"/>
<text text-anchor="start" x="219" y="-46.3" font-family="Helvetica,sans-Serif" font-size="11.00" fill="#000000">&lt; 1</text>
<polygon fill="#ffffff" stroke="transparent" points="298,-41.2 298,-58.2 407,-58.2 407,-41.2 298,-41.2"/>
<text text-anchor="start" x="330.1904" y="-46.3" font-family="Helvetica,sans-Serif" font-size="11.00" fill="#000000">139 rows</text>
<polygon fill="#ffffff" stroke="transparent" points="407,-41.2 407,-58.2 487,-58.2 487,-41.2 407,-41.2"/>
<text text-anchor="start" x="469.4053" y="-46.3" font-family="Helvetica,sans-Serif" font-size="11.00" fill="#000000">0 &gt;</text>
<polygon fill="#000000" stroke="#000000" points="298,-41.2 298,-58.2 298,-58.2 298,-41.2 298,-41.2"/>
<polygon fill="#000000" stroke="#000000" points="407,-41.2 407,-58.2 407,-58.2 407,-41.2 407,-41.2"/>
<polygon fill="none" stroke="#000000" stroke-width="2" points="215,-39.2 215,-259.2 489,-259.2 489,-39.2 215,-39.2"/>
</a>
</g>
</g>
<!-- users -->
<g id="node2" class="node">
<title>users</title>
<g id="a_node2"><a xlink:href="../../tables/users.html" xlink:title="users" target="_top">
<polygon fill="#ffffff" stroke="transparent" points="8,-131.7 8,-236.7 165,-236.7 165,-131.7 8,-131.7"/>
<polygon fill="#f5f5f5" stroke="transparent" points="8.5,-213.2 8.5,-236.2 165.5,-236.2 165.5,-213.2 8.5,-213.2"/>
<polygon fill="none" stroke="#000000" points="8.5,-213.2 8.5,-236.2 165.5,-236.2 165.5,-213.2 8.5,-213.2"/>
<text text-anchor="start" x="13.5" y="-221.8" font-family="Helvetica,sans-Serif" font-weight="bold" font-size="11.00" fill="#000000">users</text>
<text text-anchor="start" x="130.5437" y="-221.3" font-family="Helvetica,sans-Serif" font-size="11.00" fill="#000000">[table]</text>
<polygon fill="none" stroke="#000000" points="8.5,-191.2 8.5,-213.2 165.5,-213.2 165.5,-191.2 8.5,-191.2"/>
<image xlink:href="../../images/primaryKeys.png" width="11px" height="12px" preserveAspectRatio="xMinYMin meet" x="13.5" y="-208.2"/>
<text text-anchor="start" x="28.5" y="-198.3" font-family="Helvetica,sans-Serif" font-size="11.00" fill="#000000">userId</text>
<polygon fill="#ffffff" stroke="transparent" points="8.5,-169.2 8.5,-191.2 165.5,-191.2 165.5,-169.2 8.5,-169.2"/>
<polygon fill="none" stroke="#000000" points="8.5,-169.2 8.5,-191.2 165.5,-191.2 165.5,-169.2 8.5,-169.2"/>
<text text-anchor="start" x="28.5" y="-176.3" font-family="Helvetica,sans-Serif" font-size="11.00" fill="#000000">userName</text>
<polygon fill="none" stroke="#000000" points="8.5,-150.2 8.5,-169.2 165.5,-169.2 165.5,-150.2 8.5,-150.2"/>
<text text-anchor="start" x="11.5" y="-156.3" font-family="Helvetica,sans-Serif" font-size="11.00" fill="#000000">...</text>
<polygon fill="#ffffff" stroke="transparent" points="8.5,-131.2 8.5,-150.2 165.5,-150.2 165.5,-131.2 8.5,-131.2"/>
<polygon fill="none" stroke="#000000" points="8.5,-131.2 8.5,-150.2 165.5,-150.2 165.5,-131.2 8.5,-131.2"/>
<polygon fill="#ffffff" stroke="transparent" points="9.5,-132.2 9.5,-149.2 49.5,-149.2 49.5,-132.2 9.5,-132.2"/>
<text text-anchor="start" x="11.5" y="-137.3" font-family="Helvetica,sans-Serif" font-size="11.00" fill="#000000"> &#160;</text>
<polygon fill="#ffffff" stroke="transparent" points="49.5,-132.2 49.5,-149.2 115.5,-149.2 115.5,-132.2 49.5,-132.2"/>
<text text-anchor="start" x="66.3053" y="-137.3" font-family="Helvetica,sans-Serif" font-size="11.00" fill="#000000">2 rows</text>
<polygon fill="#ffffff" stroke="transparent" points="115.5,-132.2 115.5,-149.2 164.5,-149.2 164.5,-132.2 115.5,-132.2"/>
<text text-anchor="start" x="146.9053" y="-137.3" font-family="Helvetica,sans-Serif" font-size="11.00" fill="#000000">1 &gt;</text>
<polygon fill="#000000" stroke="#000000" points="49.5,-132.2 49.5,-149.2 49.5,-149.2 49.5,-132.2 49.5,-132.2"/>
<polygon fill="#000000" stroke="#000000" points="115.5,-132.2 115.5,-149.2 115.5,-149.2 115.5,-132.2 115.5,-132.2"/>
</a>
</g>
</g>
<!-- table_column_preferences&#45;&gt;users -->
<g id="edge1" class="edge">
<title>table_column_preferences:w&#45;&gt;users:e</title>
<path fill="none" stroke="#000000" d="M201.4203,-202.2C189.5435,-202.2 182.158,-202.2 165.5,-202.2"/>
<polygon fill="#000000" stroke="#000000" points="208,-202.2001 216,-205.8 212,-202.2 216,-202.2 216,-202.2 216,-202.2 212,-202.2 216,-198.6 208,-202.2001 208,-202.2001"/>
<ellipse fill="none" stroke="#000000" cx="204.8" cy="-202.2001" rx="3.2" ry="3.2"/>
</g>
</g>
</svg>
