<?xml version="1.0" encoding="UTF-8" standalone="no"?>
<!DOCTYPE svg PUBLIC "-//W3C//DTD SVG 1.1//EN"
 "http://www.w3.org/Graphics/SVG/1.1/DTD/svg11.dtd">
<!-- Generated by graphviz version 2.40.1 (20161225.0304)
 -->
<!-- Title: oneDegreeRelationshipsDiagram Pages: 1 -->
<svg width="539pt" height="315pt"
 viewBox="0.00 0.00 539.00 314.70" xmlns="http://www.w3.org/2000/svg" xmlns:xlink="http://www.w3.org/1999/xlink">
<g id="graph0" class="graph" transform="scale(1 1) rotate(0) translate(4 310.7)">
<title>oneDegreeRelationshipsDiagram</title>
<polygon fill="#ffffff" stroke="transparent" points="-4,4 -4,-310.7 535,-310.7 535,4 -4,4"/>
<text text-anchor="middle" x="72.4936" y="-7.3" font-family="Helvetica,sans-Serif" font-size="11.00" fill="#000000">Generated by SchemaSpy</text>
<!-- table_column_preferences -->
<g id="node1" class="node">
<title>table_column_preferences</title>
<g id="a_node1"><a xlink:href="../../tables/table_column_preferences.html" xlink:title="table_column_preferences" target="_top">
<polygon fill="#ffffff" stroke="transparent" points="293,-197.7 293,-302.7 523,-302.7 523,-197.7 293,-197.7"/>
<polygon fill="#f5f5f5" stroke="transparent" points="293,-279.2 293,-302.2 523,-302.2 523,-279.2 293,-279.2"/>
<polygon fill="none" stroke="#000000" points="293,-279.2 293,-302.2 523,-302.2 523,-279.2 293,-279.2"/>
<text text-anchor="start" x="298" y="-287.8" font-family="Helvetica,sans-Serif" font-weight="bold" font-size="11.00" fill="#000000">table_column_preferences</text>
<text text-anchor="start" x="488.5219" y="-287.3" font-family="Helvetica,sans-Serif" font-size="11.00" fill="#000000">[table]</text>
<polygon fill="none" stroke="#000000" points="293,-257.2 293,-279.2 523,-279.2 523,-257.2 293,-257.2"/>
<image xlink:href="../../images/primaryKeys.png" width="11px" height="12px" preserveAspectRatio="xMinYMin meet" x="298" y="-274.2"/>
<text text-anchor="start" x="322" y="-264.3" font-family="Helvetica,sans-Serif" font-size="11.00" fill="#000000">id</text>
<polygon fill="#ffffff" stroke="transparent" points="293,-235.2 293,-257.2 523,-257.2 523,-235.2 293,-235.2"/>
<polygon fill="none" stroke="#000000" points="293,-235.2 293,-257.2 523,-257.2 523,-235.2 293,-235.2"/>
<image xlink:href="../../images/foreignKeys.png" width="11px" height="12px" preserveAspectRatio="xMinYMin meet" x="298" y="-252.2"/>
<text text-anchor="start" x="322" y="-242.3" font-family="Helvetica,sans-Serif" font-size="11.00" fill="#000000">userId</text>
<polygon fill="none" stroke="#000000" points="293,-216.2 293,-235.2 523,-235.2 523,-216.2 293,-216.2"/>
<text text-anchor="start" x="296" y="-222.3" font-family="Helvetica,sans-Serif" font-size="11.00" fill="#000000">...</text>
<polygon fill="#ffffff" stroke="transparent" points="293,-197.2 293,-216.2 523,-216.2 523,-197.2 293,-197.2"/>
<polygon fill="none" stroke="#000000" points="293,-197.2 293,-216.2 523,-216.2 523,-197.2 293,-197.2"/>
<polygon fill="#ffffff" stroke="transparent" points="294,-198.2 294,-215.2 364,-215.2 364,-198.2 294,-198.2"/>
<text text-anchor="start" x="296" y="-203.3" font-family="Helvetica,sans-Serif" font-size="11.00" fill="#000000">&lt; 1</text>
<polygon fill="#ffffff" stroke="transparent" points="364,-198.2 364,-215.2 462,-215.2 462,-198.2 364,-198.2"/>
<text text-anchor="start" x="390.6904" y="-203.3" font-family="Helvetica,sans-Serif" font-size="11.00" fill="#000000">139 rows</text>
<polygon fill="#ffffff" stroke="transparent" points="462,-198.2 462,-215.2 522,-215.2 522,-198.2 462,-198.2"/>
<text text-anchor="start" x="513.8862" y="-203.3" font-family="Helvetica,sans-Serif" font-size="11.00" fill="#000000"> &#160;</text>
<polygon fill="#000000" stroke="#000000" points="364,-198.2 364,-215.2 364,-215.2 364,-198.2 364,-198.2"/>
<polygon fill="#000000" stroke="#000000" points="462,-198.2 462,-215.2 462,-215.2 462,-198.2 462,-198.2"/>
</a>
</g>
</g>
<!-- users -->
<g id="node2" class="node">
<title>users</title>
<g id="a_node2"><a xlink:href="../../tables/users.html" xlink:title="users" target="_top">
<polygon fill="#ffffff" stroke="transparent" points="8,-38.2 8,-282.2 244,-282.2 244,-38.2 8,-38.2"/>
<polygon fill="#f5f5f5" stroke="transparent" points="10,-257.2 10,-280.2 242,-280.2 242,-257.2 10,-257.2"/>
<polygon fill="none" stroke="#000000" points="10,-257.2 10,-280.2 242,-280.2 242,-257.2 10,-257.2"/>
<text text-anchor="start" x="15" y="-265.8" font-family="Helvetica,sans-Serif" font-weight="bold" font-size="11.00" fill="#000000">users</text>
<text text-anchor="start" x="207.0437" y="-265.3" font-family="Helvetica,sans-Serif" font-size="11.00" fill="#000000">[table]</text>
<polygon fill="none" stroke="#000000" points="10,-235.2 10,-257.2 167,-257.2 167,-235.2 10,-235.2"/>
<image xlink:href="../../images/primaryKeys.png" width="11px" height="12px" preserveAspectRatio="xMinYMin meet" x="15" y="-252.2"/>
<text text-anchor="start" x="30" y="-242.3" font-family="Helvetica,sans-Serif" font-size="11.00" fill="#000000">userId</text>
<polygon fill="none" stroke="#000000" points="167,-235.2 167,-257.2 242,-257.2 242,-235.2 167,-235.2"/>
<text text-anchor="start" x="170" y="-242.9" font-family="Helvetica,sans-Serif" font-size="11.00" fill="#000000">int[10]</text>
<polygon fill="#ffffff" stroke="transparent" points="10,-213.2 10,-235.2 167,-235.2 167,-213.2 10,-213.2"/>
<polygon fill="none" stroke="#000000" points="10,-213.2 10,-235.2 167,-235.2 167,-213.2 10,-213.2"/>
<text text-anchor="start" x="30" y="-220.3" font-family="Helvetica,sans-Serif" font-size="11.00" fill="#000000">userName</text>
<polygon fill="none" stroke="#000000" points="167,-213.2 167,-235.2 242,-235.2 242,-213.2 167,-213.2"/>
<text text-anchor="start" x="170" y="-220.9" font-family="Helvetica,sans-Serif" font-size="11.00" fill="#000000">varchar[45]</text>
<polygon fill="none" stroke="#000000" points="10,-191.2 10,-213.2 167,-213.2 167,-191.2 10,-191.2"/>
<text text-anchor="start" x="30" y="-198.3" font-family="Helvetica,sans-Serif" font-size="11.00" fill="#000000">firstName</text>
<polygon fill="none" stroke="#000000" points="167,-191.2 167,-213.2 242,-213.2 242,-191.2 167,-191.2"/>
<text text-anchor="start" x="170" y="-198.9" font-family="Helvetica,sans-Serif" font-size="11.00" fill="#000000">varchar[45]</text>
<polygon fill="none" stroke="#000000" points="10,-169.2 10,-191.2 167,-191.2 167,-169.2 10,-169.2"/>
<text text-anchor="start" x="30" y="-176.3" font-family="Helvetica,sans-Serif" font-size="11.00" fill="#000000">surname</text>
<polygon fill="none" stroke="#000000" points="167,-169.2 167,-191.2 242,-191.2 242,-169.2 167,-169.2"/>
<text text-anchor="start" x="170" y="-176.9" font-family="Helvetica,sans-Serif" font-size="11.00" fill="#000000">varchar[45]</text>
<polygon fill="none" stroke="#000000" points="10,-147.2 10,-169.2 167,-169.2 167,-147.2 10,-147.2"/>
<text text-anchor="start" x="30" y="-154.3" font-family="Helvetica,sans-Serif" font-size="11.00" fill="#000000">birthday</text>
<polygon fill="none" stroke="#000000" points="167,-147.2 167,-169.2 242,-169.2 242,-147.2 167,-147.2"/>
<text text-anchor="start" x="170" y="-154.9" font-family="Helvetica,sans-Serif" font-size="11.00" fill="#000000">date[10]</text>
<polygon fill="none" stroke="#000000" points="10,-125.2 10,-147.2 167,-147.2 167,-125.2 10,-125.2"/>
<text text-anchor="start" x="30" y="-132.3" font-family="Helvetica,sans-Serif" font-size="11.00" fill="#000000">password</text>
<polygon fill="none" stroke="#000000" points="167,-125.2 167,-147.2 242,-147.2 242,-125.2 167,-125.2"/>
<text text-anchor="start" x="170" y="-132.9" font-family="Helvetica,sans-Serif" font-size="11.00" fill="#000000">varchar[255]</text>
<polygon fill="none" stroke="#000000" points="10,-103.2 10,-125.2 167,-125.2 167,-103.2 10,-103.2"/>
<text text-anchor="start" x="30" y="-110.3" font-family="Helvetica,sans-Serif" font-size="11.00" fill="#000000">userRights</text>
<polygon fill="none" stroke="#000000" points="167,-103.2 167,-125.2 242,-125.2 242,-103.2 167,-103.2"/>
<text text-anchor="start" x="170" y="-110.9" font-family="Helvetica,sans-Serif" font-size="11.00" fill="#000000">varchar[45]</text>
<polygon fill="none" stroke="#000000" points="10,-81.2 10,-103.2 167,-103.2 167,-81.2 10,-81.2"/>
<text text-anchor="start" x="30" y="-88.3" font-family="Helvetica,sans-Serif" font-size="11.00" fill="#000000">blockedUntil</text>
<polygon fill="none" stroke="#000000" points="167,-81.2 167,-103.2 242,-103.2 242,-81.2 167,-81.2"/>
<text text-anchor="start" x="169.9666" y="-88.9" font-family="Helvetica,sans-Serif" font-size="11.00" fill="#000000">timestamp[19]</text>
<polygon fill="none" stroke="#000000" points="10,-59.2 10,-81.2 167,-81.2 167,-59.2 10,-59.2"/>
<text text-anchor="start" x="30" y="-66.3" font-family="Helvetica,sans-Serif" font-size="11.00" fill="#000000">numberOfMistrials</text>
<polygon fill="none" stroke="#000000" points="167,-59.2 167,-81.2 242,-81.2 242,-59.2 167,-59.2"/>
<text text-anchor="start" x="170" y="-66.9" font-family="Helvetica,sans-Serif" font-size="11.00" fill="#000000">int[10]</text>
<polygon fill="#ffffff" stroke="transparent" points="10,-40.2 10,-59.2 242,-59.2 242,-40.2 10,-40.2"/>
<polygon fill="none" stroke="#000000" points="10,-40.2 10,-59.2 242,-59.2 242,-40.2 10,-40.2"/>
<polygon fill="#ffffff" stroke="transparent" points="11,-41.2 11,-58.2 82,-58.2 82,-41.2 11,-41.2"/>
<text text-anchor="start" x="13" y="-46.3" font-family="Helvetica,sans-Serif" font-size="11.00" fill="#000000">&lt; 0</text>
<polygon fill="#ffffff" stroke="transparent" points="82,-41.2 82,-58.2 170,-58.2 170,-41.2 82,-41.2"/>
<text text-anchor="start" x="109.8053" y="-46.3" font-family="Helvetica,sans-Serif" font-size="11.00" fill="#000000">2 rows</text>
<polygon fill="#ffffff" stroke="transparent" points="170,-41.2 170,-58.2 241,-58.2 241,-41.2 170,-41.2"/>
<text text-anchor="start" x="223.4053" y="-46.3" font-family="Helvetica,sans-Serif" font-size="11.00" fill="#000000">1 &gt;</text>
<polygon fill="#000000" stroke="#000000" points="82,-41.2 82,-58.2 82,-58.2 82,-41.2 82,-41.2"/>
<polygon fill="#000000" stroke="#000000" points="170,-41.2 170,-58.2 170,-58.2 170,-41.2 170,-41.2"/>
<polygon fill="none" stroke="#000000" stroke-width="2" points="9,-39.2 9,-281.2 243,-281.2 243,-39.2 9,-39.2"/>
</a>
</g>
</g>
<!-- table_column_preferences&#45;&gt;users -->
<g id="edge1" class="edge">
<title>table_column_preferences:w&#45;&gt;users:e</title>
<path fill="none" stroke="#000000" d="M278.276,-246.2C266.2815,-246.2 258.8229,-246.2 242,-246.2"/>
<polygon fill="#000000" stroke="#000000" points="285,-246.2001 293,-249.8 289,-246.2 293,-246.2 293,-246.2 293,-246.2 289,-246.2 293,-242.6 285,-246.2001 285,-246.2001"/>
<ellipse fill="none" stroke="#000000" cx="281.8" cy="-246.2001" rx="3.2" ry="3.2"/>
</g>
</g>
</svg>
