<?xml version="1.0" encoding="UTF-8" standalone="no"?>
<!DOCTYPE svg PUBLIC "-//W3C//DTD SVG 1.1//EN"
 "http://www.w3.org/Graphics/SVG/1.1/DTD/svg11.dtd">
<!-- Generated by graphviz version 2.40.1 (20161225.0304)
 -->
<!-- Title: oneDegreeRelationshipsDiagram Pages: 1 -->
<svg width="666pt" height="275pt"
 viewBox="0.00 0.00 666.00 274.70" xmlns="http://www.w3.org/2000/svg" xmlns:xlink="http://www.w3.org/1999/xlink">
<g id="graph0" class="graph" transform="scale(1 1) rotate(0) translate(4 270.7)">
<title>oneDegreeRelationshipsDiagram</title>
<polygon fill="#ffffff" stroke="transparent" points="-4,4 -4,-270.7 662,-270.7 662,4 -4,4"/>
<text text-anchor="middle" x="72.4936" y="-7.3" font-family="Helvetica,sans-Serif" font-size="11.00" fill="#000000">Generated by SchemaSpy</text>
<!-- einkauf -->
<g id="node1" class="node">
<title>einkauf</title>
<g id="a_node1"><a xlink:href="../../tables/einkauf.html" xlink:title="einkauf" target="_top">
<polygon fill="#ffffff" stroke="transparent" points="494,-87.7 494,-258.7 650,-258.7 650,-87.7 494,-87.7"/>
<polygon fill="#f5f5f5" stroke="transparent" points="494,-235.2 494,-258.2 650,-258.2 650,-235.2 494,-235.2"/>
<polygon fill="none" stroke="#000000" points="494,-235.2 494,-258.2 650,-258.2 650,-235.2 494,-235.2"/>
<text text-anchor="start" x="499" y="-243.8" font-family="Helvetica,sans-Serif" font-weight="bold" font-size="11.00" fill="#000000">einkauf</text>
<text text-anchor="start" x="615.0437" y="-243.3" font-family="Helvetica,sans-Serif" font-size="11.00" fill="#000000">[table]</text>
<polygon fill="none" stroke="#000000" points="494,-213.2 494,-235.2 650,-235.2 650,-213.2 494,-213.2"/>
<image xlink:href="../../images/primaryKeys.png" width="11px" height="12px" preserveAspectRatio="xMinYMin meet" x="499" y="-230.2"/>
<text text-anchor="start" x="514" y="-220.3" font-family="Helvetica,sans-Serif" font-size="11.00" fill="#000000">einkaufId</text>
<polygon fill="#ffffff" stroke="transparent" points="494,-191.2 494,-213.2 650,-213.2 650,-191.2 494,-191.2"/>
<polygon fill="none" stroke="#000000" points="494,-191.2 494,-213.2 650,-213.2 650,-191.2 494,-191.2"/>
<image xlink:href="../../images/foreignKeys.png" width="11px" height="12px" preserveAspectRatio="xMinYMin meet" x="499" y="-208.2"/>
<text text-anchor="start" x="514" y="-198.3" font-family="Helvetica,sans-Serif" font-size="11.00" fill="#000000">warentyp</text>
<polygon fill="#ffffff" stroke="transparent" points="494,-169.2 494,-191.2 650,-191.2 650,-169.2 494,-169.2"/>
<polygon fill="none" stroke="#000000" points="494,-169.2 494,-191.2 650,-191.2 650,-169.2 494,-169.2"/>
<image xlink:href="../../images/foreignKeys.png" width="11px" height="12px" preserveAspectRatio="xMinYMin meet" x="499" y="-186.2"/>
<text text-anchor="start" x="514" y="-176.3" font-family="Helvetica,sans-Serif" font-size="11.00" fill="#000000">kunde</text>
<polygon fill="#ffffff" stroke="transparent" points="494,-147.2 494,-169.2 650,-169.2 650,-147.2 494,-147.2"/>
<polygon fill="none" stroke="#000000" points="494,-147.2 494,-169.2 650,-169.2 650,-147.2 494,-147.2"/>
<image xlink:href="../../images/foreignKeys.png" width="11px" height="12px" preserveAspectRatio="xMinYMin meet" x="499" y="-164.2"/>
<text text-anchor="start" x="514" y="-154.3" font-family="Helvetica,sans-Serif" font-size="11.00" fill="#000000">person</text>
<polygon fill="#ffffff" stroke="transparent" points="494,-125.2 494,-147.2 650,-147.2 650,-125.2 494,-125.2"/>
<polygon fill="none" stroke="#000000" points="494,-125.2 494,-147.2 650,-147.2 650,-125.2 494,-125.2"/>
<image xlink:href="../../images/foreignKeys.png" width="11px" height="12px" preserveAspectRatio="xMinYMin meet" x="499" y="-142.2"/>
<text text-anchor="start" x="514" y="-132.3" font-family="Helvetica,sans-Serif" font-size="11.00" fill="#000000">beiVerteilstelle</text>
<polygon fill="none" stroke="#000000" points="494,-106.2 494,-125.2 650,-125.2 650,-106.2 494,-106.2"/>
<text text-anchor="start" x="497" y="-112.3" font-family="Helvetica,sans-Serif" font-size="11.00" fill="#000000">...</text>
<polygon fill="#ffffff" stroke="transparent" points="494,-87.2 494,-106.2 650,-106.2 650,-87.2 494,-87.2"/>
<polygon fill="none" stroke="#000000" points="494,-87.2 494,-106.2 650,-106.2 650,-87.2 494,-87.2"/>
<polygon fill="#ffffff" stroke="transparent" points="495,-88.2 495,-105.2 537,-105.2 537,-88.2 495,-88.2"/>
<text text-anchor="start" x="497" y="-93.3" font-family="Helvetica,sans-Serif" font-size="11.00" fill="#000000">&lt; 4</text>
<polygon fill="#ffffff" stroke="transparent" points="537,-88.2 537,-105.2 617,-105.2 617,-88.2 537,-88.2"/>
<text text-anchor="start" x="550.1045" y="-93.3" font-family="Helvetica,sans-Serif" font-size="11.00" fill="#000000">3,276 rows</text>
<polygon fill="#ffffff" stroke="transparent" points="617,-88.2 617,-105.2 649,-105.2 649,-88.2 617,-88.2"/>
<text text-anchor="start" x="640.8862" y="-93.3" font-family="Helvetica,sans-Serif" font-size="11.00" fill="#000000"> &#160;</text>
<polygon fill="#000000" stroke="#000000" points="537,-88.2 537,-105.2 537,-105.2 537,-88.2 537,-88.2"/>
<polygon fill="#000000" stroke="#000000" points="617,-88.2 617,-105.2 617,-105.2 617,-88.2 617,-88.2"/>
</a>
</g>
</g>
<!-- verteilstelle -->
<g id="node2" class="node">
<title>verteilstelle</title>
<g id="a_node2"><a xlink:href="../../tables/verteilstelle.html" xlink:title="verteilstelle" target="_top">
<polygon fill="#ffffff" stroke="transparent" points="8,-38.2 8,-172.2 205,-172.2 205,-38.2 8,-38.2"/>
<polygon fill="#f5f5f5" stroke="transparent" points="10.5,-147.2 10.5,-170.2 203.5,-170.2 203.5,-147.2 10.5,-147.2"/>
<polygon fill="none" stroke="#000000" points="10.5,-147.2 10.5,-170.2 203.5,-170.2 203.5,-147.2 10.5,-147.2"/>
<text text-anchor="start" x="15.5" y="-155.8" font-family="Helvetica,sans-Serif" font-weight="bold" font-size="11.00" fill="#000000">verteilstelle</text>
<text text-anchor="start" x="168.5437" y="-155.3" font-family="Helvetica,sans-Serif" font-size="11.00" fill="#000000">[table]</text>
<polygon fill="none" stroke="#000000" points="10.5,-125.2 10.5,-147.2 142.5,-147.2 142.5,-125.2 10.5,-125.2"/>
<image xlink:href="../../images/primaryKeys.png" width="11px" height="12px" preserveAspectRatio="xMinYMin meet" x="15.5" y="-142.2"/>
<text text-anchor="start" x="30.5" y="-132.3" font-family="Helvetica,sans-Serif" font-size="11.00" fill="#000000">verteilstellenId</text>
<polygon fill="none" stroke="#000000" points="142.5,-125.2 142.5,-147.2 203.5,-147.2 203.5,-125.2 142.5,-125.2"/>
<text text-anchor="start" x="145.5" y="-132.9" font-family="Helvetica,sans-Serif" font-size="11.00" fill="#000000">int[10]</text>
<polygon fill="none" stroke="#000000" points="10.5,-103.2 10.5,-125.2 142.5,-125.2 142.5,-103.2 10.5,-103.2"/>
<text text-anchor="start" x="30.5" y="-110.3" font-family="Helvetica,sans-Serif" font-size="11.00" fill="#000000">bezeichnung</text>
<polygon fill="none" stroke="#000000" points="142.5,-103.2 142.5,-125.2 203.5,-125.2 203.5,-103.2 142.5,-103.2"/>
<text text-anchor="start" x="145.494" y="-110.9" font-family="Helvetica,sans-Serif" font-size="11.00" fill="#000000">varchar[50]</text>
<polygon fill="none" stroke="#000000" points="10.5,-81.2 10.5,-103.2 142.5,-103.2 142.5,-81.2 10.5,-81.2"/>
<text text-anchor="start" x="30.5" y="-88.3" font-family="Helvetica,sans-Serif" font-size="11.00" fill="#000000">adresse</text>
<polygon fill="none" stroke="#000000" points="142.5,-81.2 142.5,-103.2 203.5,-103.2 203.5,-81.2 142.5,-81.2"/>
<text text-anchor="start" x="145.494" y="-88.9" font-family="Helvetica,sans-Serif" font-size="11.00" fill="#000000">varchar[30]</text>
<polygon fill="none" stroke="#000000" points="10.5,-59.2 10.5,-81.2 142.5,-81.2 142.5,-59.2 10.5,-59.2"/>
<text text-anchor="start" x="30.5" y="-66.3" font-family="Helvetica,sans-Serif" font-size="11.00" fill="#000000">listennummer</text>
<polygon fill="none" stroke="#000000" points="142.5,-59.2 142.5,-81.2 203.5,-81.2 203.5,-59.2 142.5,-59.2"/>
<text text-anchor="start" x="145.5" y="-66.9" font-family="Helvetica,sans-Serif" font-size="11.00" fill="#000000">int[10]</text>
<polygon fill="#ffffff" stroke="transparent" points="10.5,-40.2 10.5,-59.2 203.5,-59.2 203.5,-40.2 10.5,-40.2"/>
<polygon fill="none" stroke="#000000" points="10.5,-40.2 10.5,-59.2 203.5,-59.2 203.5,-40.2 10.5,-40.2"/>
<polygon fill="#ffffff" stroke="transparent" points="11.5,-41.2 11.5,-58.2 69.5,-58.2 69.5,-41.2 11.5,-41.2"/>
<text text-anchor="start" x="13.5" y="-46.3" font-family="Helvetica,sans-Serif" font-size="11.00" fill="#000000">&lt; 0</text>
<polygon fill="#ffffff" stroke="transparent" points="69.5,-41.2 69.5,-58.2 144.5,-58.2 144.5,-41.2 69.5,-41.2"/>
<text text-anchor="start" x="90.8053" y="-46.3" font-family="Helvetica,sans-Serif" font-size="11.00" fill="#000000">0 rows</text>
<polygon fill="#ffffff" stroke="transparent" points="144.5,-41.2 144.5,-58.2 202.5,-58.2 202.5,-41.2 144.5,-41.2"/>
<text text-anchor="start" x="184.9053" y="-46.3" font-family="Helvetica,sans-Serif" font-size="11.00" fill="#000000">2 &gt;</text>
<polygon fill="#000000" stroke="#000000" points="69.5,-41.2 69.5,-58.2 69.5,-58.2 69.5,-41.2 69.5,-41.2"/>
<polygon fill="#000000" stroke="#000000" points="144.5,-41.2 144.5,-58.2 144.5,-58.2 144.5,-41.2 144.5,-41.2"/>
<polygon fill="none" stroke="#000000" stroke-width="2" points="9,-39.2 9,-171.2 204,-171.2 204,-39.2 9,-39.2"/>
</a>
</g>
</g>
<!-- einkauf&#45;&gt;verteilstelle -->
<g id="edge1" class="edge">
<title>einkauf:w&#45;&gt;verteilstelle:e</title>
<path fill="none" stroke="#000000" d="M480.235,-131.6605C471.1033,-124.0306 469.2013,-108.9101 453,-103.2 366.2315,-72.6186 333.0325,-73.3781 246,-103.2 223.3768,-110.9519 227.4145,-136.2 203.5,-136.2"/>
<polygon fill="#000000" stroke="#000000" points="486.4025,-133.6944 492.8725,-139.6189 490.2012,-134.9472 494,-136.2 494,-136.2 494,-136.2 490.2012,-134.9472 495.1275,-132.7811 486.4025,-133.6944 486.4025,-133.6944"/>
<ellipse fill="none" stroke="#000000" cx="483.3635" cy="-132.6922" rx="3.2" ry="3.2"/>
</g>
<!-- haushalt -->
<g id="node3" class="node">
<title>haushalt</title>
<g id="a_node3"><a xlink:href="../../tables/haushalt.html" xlink:title="haushalt" target="_top">
<polygon fill="#ffffff" stroke="transparent" points="254,-113.7 254,-262.7 445,-262.7 445,-113.7 254,-113.7"/>
<polygon fill="#f5f5f5" stroke="transparent" points="254.5,-239.2 254.5,-262.2 445.5,-262.2 445.5,-239.2 254.5,-239.2"/>
<polygon fill="none" stroke="#000000" points="254.5,-239.2 254.5,-262.2 445.5,-262.2 445.5,-239.2 254.5,-239.2"/>
<text text-anchor="start" x="259.5" y="-247.8" font-family="Helvetica,sans-Serif" font-weight="bold" font-size="11.00" fill="#000000">haushalt</text>
<text text-anchor="start" x="410.5437" y="-247.3" font-family="Helvetica,sans-Serif" font-size="11.00" fill="#000000">[table]</text>
<polygon fill="none" stroke="#000000" points="254.5,-217.2 254.5,-239.2 445.5,-239.2 445.5,-217.2 254.5,-217.2"/>
<image xlink:href="../../images/primaryKeys.png" width="11px" height="12px" preserveAspectRatio="xMinYMin meet" x="259.5" y="-234.2"/>
<text text-anchor="start" x="274.5" y="-224.3" font-family="Helvetica,sans-Serif" font-size="11.00" fill="#000000">kundennummer</text>
<polygon fill="#ffffff" stroke="transparent" points="254.5,-195.2 254.5,-217.2 445.5,-217.2 445.5,-195.2 254.5,-195.2"/>
<polygon fill="none" stroke="#000000" points="254.5,-195.2 254.5,-217.2 445.5,-217.2 445.5,-195.2 254.5,-195.2"/>
<image xlink:href="../../images/foreignKeys.png" width="11px" height="12px" preserveAspectRatio="xMinYMin meet" x="259.5" y="-212.2"/>
<text text-anchor="start" x="274.5" y="-202.3" font-family="Helvetica,sans-Serif" font-size="11.00" fill="#000000">plz</text>
<polygon fill="#ffffff" stroke="transparent" points="254.5,-173.2 254.5,-195.2 445.5,-195.2 445.5,-173.2 254.5,-173.2"/>
<polygon fill="none" stroke="#000000" points="254.5,-173.2 254.5,-195.2 445.5,-195.2 445.5,-173.2 254.5,-173.2"/>
<image xlink:href="../../images/foreignKeys.png" width="11px" height="12px" preserveAspectRatio="xMinYMin meet" x="259.5" y="-190.2"/>
<text text-anchor="start" x="274.5" y="-180.3" font-family="Helvetica,sans-Serif" font-size="11.00" fill="#000000">verteilstellenId</text>
<polygon fill="#ffffff" stroke="transparent" points="254.5,-151.2 254.5,-173.2 445.5,-173.2 445.5,-151.2 254.5,-151.2"/>
<polygon fill="none" stroke="#000000" points="254.5,-151.2 254.5,-173.2 445.5,-173.2 445.5,-151.2 254.5,-151.2"/>
<image xlink:href="../../images/foreignKeys.png" width="11px" height="12px" preserveAspectRatio="xMinYMin meet" x="259.5" y="-168.2"/>
<text text-anchor="start" x="274.5" y="-158.3" font-family="Helvetica,sans-Serif" font-size="11.00" fill="#000000">ausgabeGruppeId</text>
<polygon fill="none" stroke="#000000" points="254.5,-132.2 254.5,-151.2 445.5,-151.2 445.5,-132.2 254.5,-132.2"/>
<text text-anchor="start" x="257.5" y="-138.3" font-family="Helvetica,sans-Serif" font-size="11.00" fill="#000000">...</text>
<polygon fill="#ffffff" stroke="transparent" points="254.5,-113.2 254.5,-132.2 445.5,-132.2 445.5,-113.2 254.5,-113.2"/>
<polygon fill="none" stroke="#000000" points="254.5,-113.2 254.5,-132.2 445.5,-132.2 445.5,-113.2 254.5,-113.2"/>
<polygon fill="#ffffff" stroke="transparent" points="255.5,-114.2 255.5,-131.2 309.5,-131.2 309.5,-114.2 255.5,-114.2"/>
<text text-anchor="start" x="257.5" y="-119.3" font-family="Helvetica,sans-Serif" font-size="11.00" fill="#000000">&lt; 3</text>
<polygon fill="#ffffff" stroke="transparent" points="309.5,-114.2 309.5,-131.2 391.5,-131.2 391.5,-114.2 309.5,-114.2"/>
<text text-anchor="start" x="328.1904" y="-119.3" font-family="Helvetica,sans-Serif" font-size="11.00" fill="#000000">639 rows</text>
<polygon fill="#ffffff" stroke="transparent" points="391.5,-114.2 391.5,-131.2 444.5,-131.2 444.5,-114.2 391.5,-114.2"/>
<text text-anchor="start" x="426.9053" y="-119.3" font-family="Helvetica,sans-Serif" font-size="11.00" fill="#000000">3 &gt;</text>
<polygon fill="#000000" stroke="#000000" points="309.5,-114.2 309.5,-131.2 309.5,-131.2 309.5,-114.2 309.5,-114.2"/>
<polygon fill="#000000" stroke="#000000" points="391.5,-114.2 391.5,-131.2 391.5,-131.2 391.5,-114.2 391.5,-114.2"/>
</a>
</g>
</g>
<!-- einkauf&#45;&gt;haushalt -->
<g id="edge2" class="edge">
<title>einkauf:w&#45;&gt;haushalt:e</title>
<path fill="none" stroke="#000000" d="M480.0656,-185.3368C466.8577,-197.7195 469.6672,-228.2 445.5,-228.2"/>
<polygon fill="#000000" stroke="#000000" points="486.4938,-182.9672 495.2452,-183.5778 490.2469,-181.5836 494,-180.2 494,-180.2 494,-180.2 490.2469,-181.5836 492.7548,-176.8222 486.4938,-182.9672 486.4938,-182.9672"/>
<ellipse fill="none" stroke="#000000" cx="483.4913" cy="-184.074" rx="3.2" ry="3.2"/>
</g>
<!-- haushalt&#45;&gt;verteilstelle -->
<g id="edge3" class="edge">
<title>haushalt:w&#45;&gt;verteilstelle:e</title>
<path fill="none" stroke="#000000" d="M240.4801,-179.4221C226.1524,-167.2811 228.5475,-136.2 203.5,-136.2"/>
<polygon fill="#000000" stroke="#000000" points="246.9277,-181.6193 253.3387,-187.6076 250.7138,-182.9097 254.5,-184.2 254.5,-184.2 254.5,-184.2 250.7138,-182.9097 255.6613,-180.7924 246.9277,-181.6193 246.9277,-181.6193"/>
<ellipse fill="none" stroke="#000000" cx="243.8987" cy="-180.5871" rx="3.2" ry="3.2"/>
</g>
</g>
</svg>
