<?xml version="1.0" encoding="UTF-8" standalone="no"?>
<!DOCTYPE svg PUBLIC "-//W3C//DTD SVG 1.1//EN"
 "http://www.w3.org/Graphics/SVG/1.1/DTD/svg11.dtd">
<!-- Generated by graphviz version 2.40.1 (20161225.0304)
 -->
<!-- Title: twoDegreesRelationshipsDiagram Pages: 1 -->
<svg width="738pt" height="356pt"
 viewBox="0.00 0.00 738.00 355.70" xmlns="http://www.w3.org/2000/svg" xmlns:xlink="http://www.w3.org/1999/xlink">
<g id="graph0" class="graph" transform="scale(1 1) rotate(0) translate(4 351.7)">
<title>twoDegreesRelationshipsDiagram</title>
<polygon fill="#ffffff" stroke="transparent" points="-4,4 -4,-351.7 734,-351.7 734,4 -4,4"/>
<text text-anchor="middle" x="72.4936" y="-7.3" font-family="Helvetica,sans-Serif" font-size="11.00" fill="#000000">Generated by SchemaSpy</text>
<!-- einkauf -->
<g id="node1" class="node">
<title>einkauf</title>
<g id="a_node1"><a xlink:href="../../tables/einkauf.html" xlink:title="einkauf" target="_top">
<polygon fill="#ffffff" stroke="transparent" points="620.5,-208.2 620.5,-269.2 713.5,-269.2 713.5,-208.2 620.5,-208.2"/>
<polygon fill="#f5f5f5" stroke="transparent" points="621,-245.7 621,-268.7 714,-268.7 714,-245.7 621,-245.7"/>
<polygon fill="none" stroke="#000000" points="621,-245.7 621,-268.7 714,-268.7 714,-245.7 621,-245.7"/>
<text text-anchor="start" x="626" y="-254.3" font-family="Helvetica,sans-Serif" font-weight="bold" font-size="11.00" fill="#000000">einkauf</text>
<text text-anchor="start" x="679.5219" y="-253.8" font-family="Helvetica,sans-Serif" font-size="11.00" fill="#000000">[table]</text>
<polygon fill="none" stroke="#000000" points="621,-226.7 621,-245.7 714,-245.7 714,-226.7 621,-226.7"/>
<text text-anchor="start" x="624" y="-232.8" font-family="Helvetica,sans-Serif" font-size="11.00" fill="#000000">...</text>
<polygon fill="#ffffff" stroke="transparent" points="621,-207.7 621,-226.7 714,-226.7 714,-207.7 621,-207.7"/>
<polygon fill="none" stroke="#000000" points="621,-207.7 621,-226.7 714,-226.7 714,-207.7 621,-207.7"/>
<polygon fill="#ffffff" stroke="transparent" points="622,-208.7 622,-225.7 643,-225.7 643,-208.7 622,-208.7"/>
<text text-anchor="start" x="624" y="-213.8" font-family="Helvetica,sans-Serif" font-size="11.00" fill="#000000">&lt; 4</text>
<polygon fill="#ffffff" stroke="transparent" points="643,-208.7 643,-225.7 702,-225.7 702,-208.7 643,-208.7"/>
<text text-anchor="start" x="645.6045" y="-213.8" font-family="Helvetica,sans-Serif" font-size="11.00" fill="#000000">3,276 rows</text>
<polygon fill="#ffffff" stroke="transparent" points="702,-208.7 702,-225.7 713,-225.7 713,-208.7 702,-208.7"/>
<text text-anchor="start" x="704.8862" y="-213.8" font-family="Helvetica,sans-Serif" font-size="11.00" fill="#000000"> &#160;</text>
<polygon fill="#000000" stroke="#000000" points="643,-208.7 643,-225.7 643,-225.7 643,-208.7 643,-208.7"/>
<polygon fill="#000000" stroke="#000000" points="702,-208.7 702,-225.7 702,-225.7 702,-208.7 702,-208.7"/>
</a>
</g>
</g>
<!-- verteilstelle -->
<g id="node2" class="node">
<title>verteilstelle</title>
<g id="a_node2"><a xlink:href="../../tables/verteilstelle.html" xlink:title="verteilstelle" target="_top">
<polygon fill="#ffffff" stroke="transparent" points="8,-209.7 8,-343.7 205,-343.7 205,-209.7 8,-209.7"/>
<polygon fill="#f5f5f5" stroke="transparent" points="10.5,-318.7 10.5,-341.7 203.5,-341.7 203.5,-318.7 10.5,-318.7"/>
<polygon fill="none" stroke="#000000" points="10.5,-318.7 10.5,-341.7 203.5,-341.7 203.5,-318.7 10.5,-318.7"/>
<text text-anchor="start" x="15.5" y="-327.3" font-family="Helvetica,sans-Serif" font-weight="bold" font-size="11.00" fill="#000000">verteilstelle</text>
<text text-anchor="start" x="168.5437" y="-326.8" font-family="Helvetica,sans-Serif" font-size="11.00" fill="#000000">[table]</text>
<polygon fill="none" stroke="#000000" points="10.5,-296.7 10.5,-318.7 142.5,-318.7 142.5,-296.7 10.5,-296.7"/>
<image xlink:href="../../images/primaryKeys.png" width="11px" height="12px" preserveAspectRatio="xMinYMin meet" x="15.5" y="-313.7"/>
<text text-anchor="start" x="30.5" y="-303.8" font-family="Helvetica,sans-Serif" font-size="11.00" fill="#000000">verteilstellenId</text>
<polygon fill="none" stroke="#000000" points="142.5,-296.7 142.5,-318.7 203.5,-318.7 203.5,-296.7 142.5,-296.7"/>
<text text-anchor="start" x="145.5" y="-304.4" font-family="Helvetica,sans-Serif" font-size="11.00" fill="#000000">int[10]</text>
<polygon fill="none" stroke="#000000" points="10.5,-274.7 10.5,-296.7 142.5,-296.7 142.5,-274.7 10.5,-274.7"/>
<text text-anchor="start" x="30.5" y="-281.8" font-family="Helvetica,sans-Serif" font-size="11.00" fill="#000000">bezeichnung</text>
<polygon fill="none" stroke="#000000" points="142.5,-274.7 142.5,-296.7 203.5,-296.7 203.5,-274.7 142.5,-274.7"/>
<text text-anchor="start" x="145.494" y="-282.4" font-family="Helvetica,sans-Serif" font-size="11.00" fill="#000000">varchar[50]</text>
<polygon fill="none" stroke="#000000" points="10.5,-252.7 10.5,-274.7 142.5,-274.7 142.5,-252.7 10.5,-252.7"/>
<text text-anchor="start" x="30.5" y="-259.8" font-family="Helvetica,sans-Serif" font-size="11.00" fill="#000000">adresse</text>
<polygon fill="none" stroke="#000000" points="142.5,-252.7 142.5,-274.7 203.5,-274.7 203.5,-252.7 142.5,-252.7"/>
<text text-anchor="start" x="145.494" y="-260.4" font-family="Helvetica,sans-Serif" font-size="11.00" fill="#000000">varchar[30]</text>
<polygon fill="none" stroke="#000000" points="10.5,-230.7 10.5,-252.7 142.5,-252.7 142.5,-230.7 10.5,-230.7"/>
<text text-anchor="start" x="30.5" y="-237.8" font-family="Helvetica,sans-Serif" font-size="11.00" fill="#000000">listennummer</text>
<polygon fill="none" stroke="#000000" points="142.5,-230.7 142.5,-252.7 203.5,-252.7 203.5,-230.7 142.5,-230.7"/>
<text text-anchor="start" x="145.5" y="-238.4" font-family="Helvetica,sans-Serif" font-size="11.00" fill="#000000">int[10]</text>
<polygon fill="#ffffff" stroke="transparent" points="10.5,-211.7 10.5,-230.7 203.5,-230.7 203.5,-211.7 10.5,-211.7"/>
<polygon fill="none" stroke="#000000" points="10.5,-211.7 10.5,-230.7 203.5,-230.7 203.5,-211.7 10.5,-211.7"/>
<polygon fill="#ffffff" stroke="transparent" points="11.5,-212.7 11.5,-229.7 69.5,-229.7 69.5,-212.7 11.5,-212.7"/>
<text text-anchor="start" x="13.5" y="-217.8" font-family="Helvetica,sans-Serif" font-size="11.00" fill="#000000">&lt; 0</text>
<polygon fill="#ffffff" stroke="transparent" points="69.5,-212.7 69.5,-229.7 144.5,-229.7 144.5,-212.7 69.5,-212.7"/>
<text text-anchor="start" x="90.8053" y="-217.8" font-family="Helvetica,sans-Serif" font-size="11.00" fill="#000000">0 rows</text>
<polygon fill="#ffffff" stroke="transparent" points="144.5,-212.7 144.5,-229.7 202.5,-229.7 202.5,-212.7 144.5,-212.7"/>
<text text-anchor="start" x="184.9053" y="-217.8" font-family="Helvetica,sans-Serif" font-size="11.00" fill="#000000">2 &gt;</text>
<polygon fill="#000000" stroke="#000000" points="69.5,-212.7 69.5,-229.7 69.5,-229.7 69.5,-212.7 69.5,-212.7"/>
<polygon fill="#000000" stroke="#000000" points="144.5,-212.7 144.5,-229.7 144.5,-229.7 144.5,-212.7 144.5,-212.7"/>
<polygon fill="none" stroke="#000000" stroke-width="2" points="9,-210.7 9,-342.7 204,-342.7 204,-210.7 9,-210.7"/>
</a>
</g>
</g>
<!-- einkauf&#45;&gt;verteilstelle -->
<g id="edge1" class="edge">
<title>einkauf:w&#45;&gt;verteilstelle:e</title>
<path fill="none" stroke="#000000" d="M599.0931,-278.5197C589.8896,-282.581 580.3801,-286.1452 571,-288.7 413.1969,-331.68 367.0515,-307.7 203.5,-307.7"/>
<polygon fill="#000000" stroke="#000000" points="605.0748,-275.6923 613.846,-275.5283 608.6912,-273.9829 612.3076,-272.2735 612.3076,-272.2735 612.3076,-272.2735 608.6912,-273.9829 610.7691,-269.0188 605.0748,-275.6923 605.0748,-275.6923"/>
<ellipse fill="none" stroke="#000000" cx="602.1818" cy="-277.0598" rx="3.2" ry="3.2"/>
</g>
<!-- haushalt -->
<g id="node3" class="node">
<title>haushalt</title>
<g id="a_node3"><a xlink:href="../../tables/haushalt.html" xlink:title="haushalt" target="_top">
<polygon fill="#ffffff" stroke="transparent" points="254,-115.2 254,-176.2 356,-176.2 356,-115.2 254,-115.2"/>
<polygon fill="#f5f5f5" stroke="transparent" points="254,-152.7 254,-175.7 356,-175.7 356,-152.7 254,-152.7"/>
<polygon fill="none" stroke="#000000" points="254,-152.7 254,-175.7 356,-175.7 356,-152.7 254,-152.7"/>
<text text-anchor="start" x="259" y="-161.3" font-family="Helvetica,sans-Serif" font-weight="bold" font-size="11.00" fill="#000000">haushalt</text>
<text text-anchor="start" x="321.5219" y="-160.8" font-family="Helvetica,sans-Serif" font-size="11.00" fill="#000000">[table]</text>
<polygon fill="none" stroke="#000000" points="254,-133.7 254,-152.7 356,-152.7 356,-133.7 254,-133.7"/>
<text text-anchor="start" x="257" y="-139.8" font-family="Helvetica,sans-Serif" font-size="11.00" fill="#000000">...</text>
<polygon fill="#ffffff" stroke="transparent" points="254,-114.7 254,-133.7 356,-133.7 356,-114.7 254,-114.7"/>
<polygon fill="none" stroke="#000000" points="254,-114.7 254,-133.7 356,-133.7 356,-114.7 254,-114.7"/>
<polygon fill="#ffffff" stroke="transparent" points="255,-115.7 255,-132.7 279,-132.7 279,-115.7 255,-115.7"/>
<text text-anchor="start" x="257" y="-120.8" font-family="Helvetica,sans-Serif" font-size="11.00" fill="#000000">&lt; 3</text>
<polygon fill="#ffffff" stroke="transparent" points="279,-115.7 279,-132.7 332,-132.7 332,-115.7 279,-115.7"/>
<text text-anchor="start" x="283.1904" y="-120.8" font-family="Helvetica,sans-Serif" font-size="11.00" fill="#000000">639 rows</text>
<polygon fill="#ffffff" stroke="transparent" points="332,-115.7 332,-132.7 355,-132.7 355,-115.7 332,-115.7"/>
<text text-anchor="start" x="337.4053" y="-120.8" font-family="Helvetica,sans-Serif" font-size="11.00" fill="#000000">3 &gt;</text>
<polygon fill="#000000" stroke="#000000" points="279,-115.7 279,-132.7 279,-132.7 279,-115.7 279,-115.7"/>
<polygon fill="#000000" stroke="#000000" points="332,-115.7 332,-132.7 332,-132.7 332,-115.7 332,-115.7"/>
</a>
</g>
</g>
<!-- einkauf&#45;&gt;haushalt -->
<g id="edge2" class="edge">
<title>einkauf:w&#45;&gt;haushalt:e</title>
<path fill="none" stroke="#000000" d="M598.4936,-266.7672C541.5871,-285.495 460.0409,-301.4249 397,-269.7 360.125,-251.1429 334.3225,-210.0395 319.6151,-180.2312"/>
<polygon fill="#000000" stroke="#000000" points="604.8408,-264.5796 613.5772,-265.3764 608.6225,-263.2763 612.4042,-261.9729 612.4042,-261.9729 612.4042,-261.9729 608.6225,-263.2763 611.2311,-258.5693 604.8408,-264.5796 604.8408,-264.5796"/>
<ellipse fill="none" stroke="#000000" cx="601.8154" cy="-265.6223" rx="3.2" ry="3.2"/>
</g>
<!-- familienmitglied -->
<g id="node4" class="node">
<title>familienmitglied</title>
<g id="a_node4"><a xlink:href="../../tables/familienmitglied.html" xlink:title="familienmitglied" target="_top">
<polygon fill="#ffffff" stroke="transparent" points="405,-116.2 405,-177.2 563,-177.2 563,-116.2 405,-116.2"/>
<polygon fill="#f5f5f5" stroke="transparent" points="405,-153.7 405,-176.7 563,-176.7 563,-153.7 405,-153.7"/>
<polygon fill="none" stroke="#000000" points="405,-153.7 405,-176.7 563,-176.7 563,-153.7 405,-153.7"/>
<text text-anchor="start" x="410" y="-162.3" font-family="Helvetica,sans-Serif" font-weight="bold" font-size="11.00" fill="#000000">familienmitglied</text>
<text text-anchor="start" x="528.5219" y="-161.8" font-family="Helvetica,sans-Serif" font-size="11.00" fill="#000000">[table]</text>
<polygon fill="none" stroke="#000000" points="405,-134.7 405,-153.7 563,-153.7 563,-134.7 405,-134.7"/>
<text text-anchor="start" x="408" y="-140.8" font-family="Helvetica,sans-Serif" font-size="11.00" fill="#000000">...</text>
<polygon fill="#ffffff" stroke="transparent" points="405,-115.7 405,-134.7 563,-134.7 563,-115.7 405,-115.7"/>
<polygon fill="none" stroke="#000000" points="405,-115.7 405,-134.7 563,-134.7 563,-115.7 405,-115.7"/>
<polygon fill="#ffffff" stroke="transparent" points="406,-116.7 406,-133.7 446,-133.7 446,-116.7 406,-116.7"/>
<text text-anchor="start" x="408" y="-121.8" font-family="Helvetica,sans-Serif" font-size="11.00" fill="#000000">&lt; 3</text>
<polygon fill="#ffffff" stroke="transparent" points="446,-116.7 446,-133.7 523,-133.7 523,-116.7 446,-116.7"/>
<text text-anchor="start" x="457.6045" y="-121.8" font-family="Helvetica,sans-Serif" font-size="11.00" fill="#000000">1,525 rows</text>
<polygon fill="#ffffff" stroke="transparent" points="523,-116.7 523,-133.7 562,-133.7 562,-116.7 523,-116.7"/>
<text text-anchor="start" x="544.4053" y="-121.8" font-family="Helvetica,sans-Serif" font-size="11.00" fill="#000000">3 &gt;</text>
<polygon fill="#000000" stroke="#000000" points="446,-116.7 446,-133.7 446,-133.7 446,-116.7 446,-116.7"/>
<polygon fill="#000000" stroke="#000000" points="523,-116.7 523,-133.7 523,-133.7 523,-116.7 523,-116.7"/>
</a>
</g>
</g>
<!-- einkauf&#45;&gt;familienmitglied -->
<g id="edge3" class="edge">
<title>einkauf:w&#45;&gt;familienmitglied:e</title>
<path fill="none" stroke="#000000" d="M623.4318,-193.7386C598.7021,-169.1733 571.1044,-143.7 563,-143.7"/>
<polygon fill="#000000" stroke="#000000" points="628.1429,-198.4669 631.2392,-206.675 630.9662,-201.3005 633.7895,-204.1341 633.7895,-204.1341 633.7895,-204.1341 630.9662,-201.3005 636.3397,-201.5931 628.1429,-198.4669 628.1429,-198.4669"/>
<ellipse fill="none" stroke="#000000" cx="625.8843" cy="-196.2" rx="3.2" ry="3.2"/>
</g>
<!-- warentyp -->
<g id="node5" class="node">
<title>warentyp</title>
<g id="a_node5"><a xlink:href="../../tables/warentyp.html" xlink:title="warentyp" target="_top">
<polygon fill="#ffffff" stroke="transparent" points="430,-198.2 430,-259.2 538,-259.2 538,-198.2 430,-198.2"/>
<polygon fill="#f5f5f5" stroke="transparent" points="430,-235.7 430,-258.7 538,-258.7 538,-235.7 430,-235.7"/>
<polygon fill="none" stroke="#000000" points="430,-235.7 430,-258.7 538,-258.7 538,-235.7 430,-235.7"/>
<text text-anchor="start" x="435" y="-244.3" font-family="Helvetica,sans-Serif" font-weight="bold" font-size="11.00" fill="#000000">warentyp</text>
<text text-anchor="start" x="503.5219" y="-243.8" font-family="Helvetica,sans-Serif" font-size="11.00" fill="#000000">[table]</text>
<polygon fill="none" stroke="#000000" points="430,-216.7 430,-235.7 538,-235.7 538,-216.7 430,-216.7"/>
<text text-anchor="start" x="433" y="-222.8" font-family="Helvetica,sans-Serif" font-size="11.00" fill="#000000">...</text>
<polygon fill="#ffffff" stroke="transparent" points="430,-197.7 430,-216.7 538,-216.7 538,-197.7 430,-197.7"/>
<polygon fill="none" stroke="#000000" points="430,-197.7 430,-216.7 538,-216.7 538,-197.7 430,-197.7"/>
<polygon fill="#ffffff" stroke="transparent" points="431,-198.7 431,-215.7 461,-215.7 461,-198.7 431,-198.7"/>
<text text-anchor="start" x="433" y="-203.8" font-family="Helvetica,sans-Serif" font-size="11.00" fill="#000000">&lt; 1</text>
<polygon fill="#ffffff" stroke="transparent" points="461,-198.7 461,-215.7 508,-215.7 508,-198.7 461,-198.7"/>
<text text-anchor="start" x="468.3053" y="-203.8" font-family="Helvetica,sans-Serif" font-size="11.00" fill="#000000">2 rows</text>
<polygon fill="#ffffff" stroke="transparent" points="508,-198.7 508,-215.7 537,-215.7 537,-198.7 508,-198.7"/>
<text text-anchor="start" x="519.4053" y="-203.8" font-family="Helvetica,sans-Serif" font-size="11.00" fill="#000000">2 &gt;</text>
<polygon fill="#000000" stroke="#000000" points="461,-198.7 461,-215.7 461,-215.7 461,-198.7 461,-198.7"/>
<polygon fill="#000000" stroke="#000000" points="508,-198.7 508,-215.7 508,-215.7 508,-198.7 508,-198.7"/>
</a>
</g>
</g>
<!-- einkauf&#45;&gt;warentyp -->
<g id="edge4" class="edge">
<title>einkauf:w&#45;&gt;warentyp:e</title>
<path fill="none" stroke="#000000" d="M597.8117,-229.147C578.4922,-227.1829 557.4617,-225.7 538,-225.7"/>
<polygon fill="#000000" stroke="#000000" points="604.2455,-229.8532 611.8049,-234.3046 608.2216,-230.2897 612.1977,-230.7261 612.1977,-230.7261 612.1977,-230.7261 608.2216,-230.2897 612.5906,-227.1476 604.2455,-229.8532 604.2455,-229.8532"/>
<ellipse fill="none" stroke="#000000" cx="601.0646" cy="-229.504" rx="3.2" ry="3.2"/>
</g>
<!-- haushalt&#45;&gt;verteilstelle -->
<g id="edge8" class="edge">
<title>haushalt:w&#45;&gt;verteilstelle:e</title>
<path fill="none" stroke="#000000" d="M295.8927,-194.5937C283.849,-242.2876 257.4898,-307.7 203.5,-307.7"/>
<polygon fill="#000000" stroke="#000000" points="297.3711,-188.2446 302.6917,-181.2695 298.2783,-184.3488 299.1855,-180.4531 299.1855,-180.4531 299.1855,-180.4531 298.2783,-184.3488 295.6793,-179.6366 297.3711,-188.2446 297.3711,-188.2446"/>
<ellipse fill="none" stroke="#000000" cx="296.6454" cy="-191.3612" rx="3.2" ry="3.2"/>
</g>
<!-- ausgabegruppe -->
<g id="node6" class="node">
<title>ausgabegruppe</title>
<g id="a_node6"><a xlink:href="../../tables/ausgabegruppe.html" xlink:title="ausgabegruppe" target="_top">
<polygon fill="#ffffff" stroke="transparent" points="30,-120.2 30,-181.2 183,-181.2 183,-120.2 30,-120.2"/>
<polygon fill="#f5f5f5" stroke="transparent" points="30.5,-157.7 30.5,-180.7 183.5,-180.7 183.5,-157.7 30.5,-157.7"/>
<polygon fill="none" stroke="#000000" points="30.5,-157.7 30.5,-180.7 183.5,-180.7 183.5,-157.7 30.5,-157.7"/>
<text text-anchor="start" x="35.5" y="-166.3" font-family="Helvetica,sans-Serif" font-weight="bold" font-size="11.00" fill="#000000">ausgabegruppe</text>
<text text-anchor="start" x="149.0219" y="-165.8" font-family="Helvetica,sans-Serif" font-size="11.00" fill="#000000">[table]</text>
<polygon fill="none" stroke="#000000" points="30.5,-138.7 30.5,-157.7 183.5,-157.7 183.5,-138.7 30.5,-138.7"/>
<text text-anchor="start" x="33.5" y="-144.8" font-family="Helvetica,sans-Serif" font-size="11.00" fill="#000000">...</text>
<polygon fill="#ffffff" stroke="transparent" points="30.5,-119.7 30.5,-138.7 183.5,-138.7 183.5,-119.7 30.5,-119.7"/>
<polygon fill="none" stroke="#000000" points="30.5,-119.7 30.5,-138.7 183.5,-138.7 183.5,-119.7 30.5,-119.7"/>
<polygon fill="#ffffff" stroke="transparent" points="31.5,-120.7 31.5,-137.7 68.5,-137.7 68.5,-120.7 31.5,-120.7"/>
<text text-anchor="start" x="33.5" y="-125.8" font-family="Helvetica,sans-Serif" font-size="11.00" fill="#000000"> &#160;</text>
<polygon fill="#ffffff" stroke="transparent" points="68.5,-120.7 68.5,-137.7 137.5,-137.7 137.5,-120.7 68.5,-120.7"/>
<text text-anchor="start" x="83.7478" y="-125.8" font-family="Helvetica,sans-Serif" font-size="11.00" fill="#000000">24 rows</text>
<polygon fill="#ffffff" stroke="transparent" points="137.5,-120.7 137.5,-137.7 182.5,-137.7 182.5,-120.7 137.5,-120.7"/>
<text text-anchor="start" x="164.9053" y="-125.8" font-family="Helvetica,sans-Serif" font-size="11.00" fill="#000000">2 &gt;</text>
<polygon fill="#000000" stroke="#000000" points="68.5,-120.7 68.5,-137.7 68.5,-137.7 68.5,-120.7 68.5,-120.7"/>
<polygon fill="#000000" stroke="#000000" points="137.5,-120.7 137.5,-137.7 137.5,-137.7 137.5,-120.7 137.5,-120.7"/>
</a>
</g>
</g>
<!-- haushalt&#45;&gt;ausgabegruppe -->
<g id="edge6" class="edge">
<title>haushalt:w&#45;&gt;ausgabegruppe:e</title>
<path fill="none" stroke="#000000" d="M231.1968,-147.3036C215.4559,-147.5368 198.9277,-147.7 183.5,-147.7"/>
<polygon fill="#000000" stroke="#000000" points="237.9869,-147.1926 246.0447,-150.6612 241.9864,-147.1271 245.9858,-147.0617 245.9858,-147.0617 245.9858,-147.0617 241.9864,-147.1271 245.9269,-143.4622 237.9869,-147.1926 237.9869,-147.1926"/>
<ellipse fill="none" stroke="#000000" cx="234.7873" cy="-147.245" rx="3.2" ry="3.2"/>
</g>
<!-- plz -->
<g id="node7" class="node">
<title>plz</title>
<g id="a_node7"><a xlink:href="../../tables/plz.html" xlink:title="plz" target="_top">
<polygon fill="#ffffff" stroke="transparent" points="70,-38.2 70,-99.2 143,-99.2 143,-38.2 70,-38.2"/>
<polygon fill="#f5f5f5" stroke="transparent" points="70.5,-75.7 70.5,-98.7 143.5,-98.7 143.5,-75.7 70.5,-75.7"/>
<polygon fill="none" stroke="#000000" points="70.5,-75.7 70.5,-98.7 143.5,-98.7 143.5,-75.7 70.5,-75.7"/>
<text text-anchor="start" x="75.5" y="-84.3" font-family="Helvetica,sans-Serif" font-weight="bold" font-size="11.00" fill="#000000">plz</text>
<text text-anchor="start" x="108.5437" y="-83.8" font-family="Helvetica,sans-Serif" font-size="11.00" fill="#000000">[table]</text>
<polygon fill="none" stroke="#000000" points="70.5,-56.7 70.5,-75.7 143.5,-75.7 143.5,-56.7 70.5,-56.7"/>
<text text-anchor="start" x="73.5" y="-62.8" font-family="Helvetica,sans-Serif" font-size="11.00" fill="#000000">...</text>
<polygon fill="#ffffff" stroke="transparent" points="70.5,-37.7 70.5,-56.7 143.5,-56.7 143.5,-37.7 70.5,-37.7"/>
<polygon fill="none" stroke="#000000" points="70.5,-37.7 70.5,-56.7 143.5,-56.7 143.5,-37.7 70.5,-37.7"/>
<polygon fill="#ffffff" stroke="transparent" points="71.5,-38.7 71.5,-55.7 81.5,-55.7 81.5,-38.7 71.5,-38.7"/>
<text text-anchor="start" x="73.4431" y="-43.8" font-family="Helvetica,sans-Serif" font-size="11.00" fill="#000000"> &#160;</text>
<polygon fill="#ffffff" stroke="transparent" points="81.5,-38.7 81.5,-55.7 123.5,-55.7 123.5,-38.7 81.5,-38.7"/>
<text text-anchor="start" x="83.2478" y="-43.8" font-family="Helvetica,sans-Serif" font-size="11.00" fill="#000000">29 rows</text>
<polygon fill="#ffffff" stroke="transparent" points="123.5,-38.7 123.5,-55.7 142.5,-55.7 142.5,-38.7 123.5,-38.7"/>
<text text-anchor="start" x="125.2027" y="-43.8" font-family="Helvetica,sans-Serif" font-size="11.00" fill="#000000">2 &gt;</text>
<polygon fill="#000000" stroke="#000000" points="81.5,-38.7 81.5,-55.7 81.5,-55.7 81.5,-38.7 81.5,-38.7"/>
<polygon fill="#000000" stroke="#000000" points="123.5,-38.7 123.5,-55.7 123.5,-55.7 123.5,-38.7 123.5,-38.7"/>
</a>
</g>
</g>
<!-- haushalt&#45;&gt;plz -->
<g id="edge7" class="edge">
<title>haushalt:w&#45;&gt;plz:e</title>
<path fill="none" stroke="#000000" d="M249.9992,-102.9188C220.1807,-83.8876 181.6929,-65.7 143.5,-65.7"/>
<polygon fill="#000000" stroke="#000000" points="255.5675,-106.6351 260.2232,-114.0705 258.8946,-108.8556 262.2217,-111.0761 262.2217,-111.0761 262.2217,-111.0761 258.8946,-108.8556 264.2201,-108.0818 255.5675,-106.6351 255.5675,-106.6351"/>
<ellipse fill="none" stroke="#000000" cx="252.9059" cy="-104.8587" rx="3.2" ry="3.2"/>
</g>
<!-- familienmitglied&#45;&gt;haushalt -->
<g id="edge5" class="edge">
<title>familienmitglied:w&#45;&gt;haushalt:e</title>
<path fill="none" stroke="#000000" d="M390.474,-143.7634C381.7137,-143.8359 372.8093,-143.9654 364.2193,-144.1241"/>
<polygon fill="#000000" stroke="#000000" points="397.0001,-143.735 405.0157,-147.3 401,-143.7175 405,-143.7 405,-143.7 405,-143.7 401,-143.7175 404.9843,-140.1 397.0001,-143.735 397.0001,-143.735"/>
<ellipse fill="none" stroke="#000000" cx="393.8001" cy="-143.749" rx="3.2" ry="3.2"/>
</g>
<!-- vollmacht -->
<g id="node8" class="node">
<title>vollmacht</title>
<g id="a_node8"><a xlink:href="../../tables/vollmacht.html" xlink:title="vollmacht" target="_top">
<polygon fill="#ffffff" stroke="transparent" points="612,-102.2 612,-163.2 722,-163.2 722,-102.2 612,-102.2"/>
<polygon fill="#f5f5f5" stroke="transparent" points="612,-139.7 612,-162.7 722,-162.7 722,-139.7 612,-139.7"/>
<polygon fill="none" stroke="#000000" points="612,-139.7 612,-162.7 722,-162.7 722,-139.7 612,-139.7"/>
<text text-anchor="start" x="617" y="-148.3" font-family="Helvetica,sans-Serif" font-weight="bold" font-size="11.00" fill="#000000">vollmacht</text>
<text text-anchor="start" x="687.5219" y="-147.8" font-family="Helvetica,sans-Serif" font-size="11.00" fill="#000000">[table]</text>
<polygon fill="none" stroke="#000000" points="612,-120.7 612,-139.7 722,-139.7 722,-120.7 612,-120.7"/>
<text text-anchor="start" x="615" y="-126.8" font-family="Helvetica,sans-Serif" font-size="11.00" fill="#000000">...</text>
<polygon fill="#ffffff" stroke="transparent" points="612,-101.7 612,-120.7 722,-120.7 722,-101.7 612,-101.7"/>
<polygon fill="none" stroke="#000000" points="612,-101.7 612,-120.7 722,-120.7 722,-101.7 612,-101.7"/>
<polygon fill="#ffffff" stroke="transparent" points="613,-102.7 613,-119.7 647,-119.7 647,-102.7 613,-102.7"/>
<text text-anchor="start" x="615" y="-107.8" font-family="Helvetica,sans-Serif" font-size="11.00" fill="#000000">&lt; 2</text>
<polygon fill="#ffffff" stroke="transparent" points="647,-102.7 647,-119.7 697,-119.7 697,-102.7 647,-102.7"/>
<text text-anchor="start" x="655.8053" y="-107.8" font-family="Helvetica,sans-Serif" font-size="11.00" fill="#000000">0 rows</text>
<polygon fill="#ffffff" stroke="transparent" points="697,-102.7 697,-119.7 721,-119.7 721,-102.7 697,-102.7"/>
<text text-anchor="start" x="712.8862" y="-107.8" font-family="Helvetica,sans-Serif" font-size="11.00" fill="#000000"> &#160;</text>
<polygon fill="#000000" stroke="#000000" points="647,-102.7 647,-119.7 647,-119.7 647,-102.7 647,-102.7"/>
<polygon fill="#000000" stroke="#000000" points="697,-102.7 697,-119.7 697,-119.7 697,-102.7 697,-102.7"/>
</a>
</g>
</g>
<!-- vollmacht&#45;&gt;haushalt -->
<g id="edge10" class="edge">
<title>vollmacht:w&#45;&gt;haushalt:e</title>
<path fill="none" stroke="#000000" d="M598.0801,-125.828C589.4266,-120.1016 585.488,-109.6286 571,-105.7 496.362,-85.461 472.713,-89.9527 397,-105.7 386.0869,-107.9698 374.8804,-111.6047 364.2092,-115.7803"/>
<polygon fill="#000000" stroke="#000000" points="604.2926,-127.5561 611.0352,-133.1683 608.1463,-128.628 612,-129.7 612,-129.7 612,-129.7 608.1463,-128.628 612.9648,-126.2317 604.2926,-127.5561 604.2926,-127.5561"/>
<ellipse fill="none" stroke="#000000" cx="601.2097" cy="-126.6985" rx="3.2" ry="3.2"/>
</g>
<!-- vollmacht&#45;&gt;familienmitglied -->
<g id="edge9" class="edge">
<title>vollmacht:w&#45;&gt;familienmitglied:e</title>
<path fill="none" stroke="#000000" d="M597.6111,-132.0118C586.1828,-135.9882 579.81,-143.7 563,-143.7"/>
<polygon fill="#000000" stroke="#000000" points="604.1013,-130.9691 612.5711,-133.2544 608.0506,-130.3346 612,-129.7 612,-129.7 612,-129.7 608.0506,-130.3346 611.4289,-126.1456 604.1013,-130.9691 604.1013,-130.9691"/>
<ellipse fill="none" stroke="#000000" cx="600.9418" cy="-131.4767" rx="3.2" ry="3.2"/>
</g>
</g>
</svg>
