<?xml version="1.0" encoding="UTF-8" standalone="no"?>
<!DOCTYPE svg PUBLIC "-//W3C//DTD SVG 1.1//EN"
 "http://www.w3.org/Graphics/SVG/1.1/DTD/svg11.dtd">
<!-- Generated by graphviz version 2.40.1 (20161225.0304)
 -->
<!-- Title: twoDegreesRelationshipsDiagram Pages: 1 -->
<svg width="881pt" height="387pt"
 viewBox="0.00 0.00 881.00 387.20" xmlns="http://www.w3.org/2000/svg" xmlns:xlink="http://www.w3.org/1999/xlink">
<g id="graph0" class="graph" transform="scale(1 1) rotate(0) translate(4 383.2)">
<title>twoDegreesRelationshipsDiagram</title>
<polygon fill="#ffffff" stroke="transparent" points="-4,4 -4,-383.2 877,-383.2 877,4 -4,4"/>
<text text-anchor="middle" x="72.4936" y="-7.3" font-family="Helvetica,sans-Serif" font-size="11.00" fill="#000000">Generated by SchemaSpy</text>
<!-- bescheid -->
<g id="node1" class="node">
<title>bescheid</title>
<g id="a_node1"><a xlink:href="../../tables/bescheid.html" xlink:title="bescheid" target="_top">
<polygon fill="#ffffff" stroke="transparent" points="682,-38.2 682,-99.2 786,-99.2 786,-38.2 682,-38.2"/>
<polygon fill="#f5f5f5" stroke="transparent" points="682,-75.7 682,-98.7 786,-98.7 786,-75.7 682,-75.7"/>
<polygon fill="none" stroke="#000000" points="682,-75.7 682,-98.7 786,-98.7 786,-75.7 682,-75.7"/>
<text text-anchor="start" x="687" y="-84.3" font-family="Helvetica,sans-Serif" font-weight="bold" font-size="11.00" fill="#000000">bescheid</text>
<text text-anchor="start" x="751.5219" y="-83.8" font-family="Helvetica,sans-Serif" font-size="11.00" fill="#000000">[table]</text>
<polygon fill="none" stroke="#000000" points="682,-56.7 682,-75.7 786,-75.7 786,-56.7 682,-56.7"/>
<text text-anchor="start" x="685" y="-62.8" font-family="Helvetica,sans-Serif" font-size="11.00" fill="#000000">...</text>
<polygon fill="#ffffff" stroke="transparent" points="682,-37.7 682,-56.7 786,-56.7 786,-37.7 682,-37.7"/>
<polygon fill="none" stroke="#000000" points="682,-37.7 682,-56.7 786,-56.7 786,-37.7 682,-37.7"/>
<polygon fill="#ffffff" stroke="transparent" points="683,-38.7 683,-55.7 708,-55.7 708,-38.7 683,-38.7"/>
<text text-anchor="start" x="685" y="-43.8" font-family="Helvetica,sans-Serif" font-size="11.00" fill="#000000">&lt; 2</text>
<polygon fill="#ffffff" stroke="transparent" points="708,-38.7 708,-55.7 770,-55.7 770,-38.7 708,-38.7"/>
<text text-anchor="start" x="712.1045" y="-43.8" font-family="Helvetica,sans-Serif" font-size="11.00" fill="#000000">1,280 rows</text>
<polygon fill="#ffffff" stroke="transparent" points="770,-38.7 770,-55.7 785,-55.7 785,-38.7 770,-38.7"/>
<text text-anchor="start" x="776.8862" y="-43.8" font-family="Helvetica,sans-Serif" font-size="11.00" fill="#000000"> &#160;</text>
<polygon fill="#000000" stroke="#000000" points="708,-38.7 708,-55.7 708,-55.7 708,-38.7 708,-38.7"/>
<polygon fill="#000000" stroke="#000000" points="770,-38.7 770,-55.7 770,-55.7 770,-38.7 770,-38.7"/>
</a>
</g>
</g>
<!-- familienmitglied -->
<g id="node2" class="node">
<title>familienmitglied</title>
<g id="a_node2"><a xlink:href="../../tables/familienmitglied.html" xlink:title="familienmitglied" target="_top">
<polygon fill="#ffffff" stroke="transparent" points="396,-156.2 396,-217.2 554,-217.2 554,-156.2 396,-156.2"/>
<polygon fill="#f5f5f5" stroke="transparent" points="396,-193.7 396,-216.7 554,-216.7 554,-193.7 396,-193.7"/>
<polygon fill="none" stroke="#000000" points="396,-193.7 396,-216.7 554,-216.7 554,-193.7 396,-193.7"/>
<text text-anchor="start" x="401" y="-202.3" font-family="Helvetica,sans-Serif" font-weight="bold" font-size="11.00" fill="#000000">familienmitglied</text>
<text text-anchor="start" x="519.5219" y="-201.8" font-family="Helvetica,sans-Serif" font-size="11.00" fill="#000000">[table]</text>
<polygon fill="none" stroke="#000000" points="396,-174.7 396,-193.7 554,-193.7 554,-174.7 396,-174.7"/>
<text text-anchor="start" x="399" y="-180.8" font-family="Helvetica,sans-Serif" font-size="11.00" fill="#000000">...</text>
<polygon fill="#ffffff" stroke="transparent" points="396,-155.7 396,-174.7 554,-174.7 554,-155.7 396,-155.7"/>
<polygon fill="none" stroke="#000000" points="396,-155.7 396,-174.7 554,-174.7 554,-155.7 396,-155.7"/>
<polygon fill="#ffffff" stroke="transparent" points="397,-156.7 397,-173.7 437,-173.7 437,-156.7 397,-156.7"/>
<text text-anchor="start" x="399" y="-161.8" font-family="Helvetica,sans-Serif" font-size="11.00" fill="#000000">&lt; 3</text>
<polygon fill="#ffffff" stroke="transparent" points="437,-156.7 437,-173.7 514,-173.7 514,-156.7 437,-156.7"/>
<text text-anchor="start" x="448.6045" y="-161.8" font-family="Helvetica,sans-Serif" font-size="11.00" fill="#000000">1,525 rows</text>
<polygon fill="#ffffff" stroke="transparent" points="514,-156.7 514,-173.7 553,-173.7 553,-156.7 514,-156.7"/>
<text text-anchor="start" x="535.4053" y="-161.8" font-family="Helvetica,sans-Serif" font-size="11.00" fill="#000000">3 &gt;</text>
<polygon fill="#000000" stroke="#000000" points="437,-156.7 437,-173.7 437,-173.7 437,-156.7 437,-156.7"/>
<polygon fill="#000000" stroke="#000000" points="514,-156.7 514,-173.7 514,-173.7 514,-156.7 514,-156.7"/>
</a>
</g>
</g>
<!-- bescheid&#45;&gt;familienmitglied -->
<g id="edge1" class="edge">
<title>bescheid:w&#45;&gt;familienmitglied:e</title>
<path fill="none" stroke="#000000" d="M667.5149,-66.4273C603.9184,-72.7383 544.0847,-118.785 508.4887,-152.0263"/>
<polygon fill="#000000" stroke="#000000" points="674.0101,-66.1012 682.1806,-69.2955 678.005,-65.9006 682,-65.7 682,-65.7 682,-65.7 678.005,-65.9006 681.8194,-62.1045 674.0101,-66.1012 674.0101,-66.1012"/>
<ellipse fill="none" stroke="#000000" cx="670.8141" cy="-66.2617" rx="3.2" ry="3.2"/>
</g>
<!-- haushalt -->
<g id="node5" class="node">
<title>haushalt</title>
<g id="a_node5"><a xlink:href="../../tables/haushalt.html" xlink:title="haushalt" target="_top">
<polygon fill="#ffffff" stroke="transparent" points="227.5,-236.2 227.5,-297.2 329.5,-297.2 329.5,-236.2 227.5,-236.2"/>
<polygon fill="#f5f5f5" stroke="transparent" points="227.5,-273.7 227.5,-296.7 329.5,-296.7 329.5,-273.7 227.5,-273.7"/>
<polygon fill="none" stroke="#000000" points="227.5,-273.7 227.5,-296.7 329.5,-296.7 329.5,-273.7 227.5,-273.7"/>
<text text-anchor="start" x="232.5" y="-282.3" font-family="Helvetica,sans-Serif" font-weight="bold" font-size="11.00" fill="#000000">haushalt</text>
<text text-anchor="start" x="295.0219" y="-281.8" font-family="Helvetica,sans-Serif" font-size="11.00" fill="#000000">[table]</text>
<polygon fill="none" stroke="#000000" points="227.5,-254.7 227.5,-273.7 329.5,-273.7 329.5,-254.7 227.5,-254.7"/>
<text text-anchor="start" x="230.5" y="-260.8" font-family="Helvetica,sans-Serif" font-size="11.00" fill="#000000">...</text>
<polygon fill="#ffffff" stroke="transparent" points="227.5,-235.7 227.5,-254.7 329.5,-254.7 329.5,-235.7 227.5,-235.7"/>
<polygon fill="none" stroke="#000000" points="227.5,-235.7 227.5,-254.7 329.5,-254.7 329.5,-235.7 227.5,-235.7"/>
<polygon fill="#ffffff" stroke="transparent" points="228.5,-236.7 228.5,-253.7 252.5,-253.7 252.5,-236.7 228.5,-236.7"/>
<text text-anchor="start" x="230.5" y="-241.8" font-family="Helvetica,sans-Serif" font-size="11.00" fill="#000000">&lt; 3</text>
<polygon fill="#ffffff" stroke="transparent" points="252.5,-236.7 252.5,-253.7 305.5,-253.7 305.5,-236.7 252.5,-236.7"/>
<text text-anchor="start" x="256.6904" y="-241.8" font-family="Helvetica,sans-Serif" font-size="11.00" fill="#000000">639 rows</text>
<polygon fill="#ffffff" stroke="transparent" points="305.5,-236.7 305.5,-253.7 328.5,-253.7 328.5,-236.7 305.5,-236.7"/>
<text text-anchor="start" x="310.9053" y="-241.8" font-family="Helvetica,sans-Serif" font-size="11.00" fill="#000000">3 &gt;</text>
<polygon fill="#000000" stroke="#000000" points="252.5,-236.7 252.5,-253.7 252.5,-253.7 252.5,-236.7 252.5,-236.7"/>
<polygon fill="#000000" stroke="#000000" points="305.5,-236.7 305.5,-253.7 305.5,-253.7 305.5,-236.7 305.5,-236.7"/>
</a>
</g>
</g>
<!-- familienmitglied&#45;&gt;haushalt -->
<g id="edge6" class="edge">
<title>familienmitglied:w&#45;&gt;haushalt:e</title>
<path fill="none" stroke="#000000" d="M376.8437,-226.6618C363.4089,-232.1315 349.9718,-237.6021 337.5371,-242.6645"/>
<polygon fill="#000000" stroke="#000000" points="382.8311,-224.2243 391.598,-224.5419 386.5358,-222.716 390.2406,-221.2077 390.2406,-221.2077 390.2406,-221.2077 386.5358,-222.716 388.8831,-217.8734 382.8311,-224.2243 382.8311,-224.2243"/>
<ellipse fill="none" stroke="#000000" cx="379.8673" cy="-225.4309" rx="3.2" ry="3.2"/>
</g>
<!-- berechtigung -->
<g id="node6" class="node">
<title>berechtigung</title>
<g id="a_node6"><a xlink:href="../../tables/berechtigung.html" xlink:title="berechtigung" target="_top">
<polygon fill="#ffffff" stroke="transparent" points="210,-154.2 210,-215.2 347,-215.2 347,-154.2 210,-154.2"/>
<polygon fill="#f5f5f5" stroke="transparent" points="210.5,-191.7 210.5,-214.7 347.5,-214.7 347.5,-191.7 210.5,-191.7"/>
<polygon fill="none" stroke="#000000" points="210.5,-191.7 210.5,-214.7 347.5,-214.7 347.5,-191.7 210.5,-191.7"/>
<text text-anchor="start" x="215.5" y="-200.3" font-family="Helvetica,sans-Serif" font-weight="bold" font-size="11.00" fill="#000000">berechtigung</text>
<text text-anchor="start" x="313.0219" y="-199.8" font-family="Helvetica,sans-Serif" font-size="11.00" fill="#000000">[table]</text>
<polygon fill="none" stroke="#000000" points="210.5,-172.7 210.5,-191.7 347.5,-191.7 347.5,-172.7 210.5,-172.7"/>
<text text-anchor="start" x="213.5" y="-178.8" font-family="Helvetica,sans-Serif" font-size="11.00" fill="#000000">...</text>
<polygon fill="#ffffff" stroke="transparent" points="210.5,-153.7 210.5,-172.7 347.5,-172.7 347.5,-153.7 210.5,-153.7"/>
<polygon fill="none" stroke="#000000" points="210.5,-153.7 210.5,-172.7 347.5,-172.7 347.5,-153.7 210.5,-153.7"/>
<polygon fill="#ffffff" stroke="transparent" points="211.5,-154.7 211.5,-171.7 245.5,-171.7 245.5,-154.7 211.5,-154.7"/>
<text text-anchor="start" x="213.5" y="-159.8" font-family="Helvetica,sans-Serif" font-size="11.00" fill="#000000"> &#160;</text>
<polygon fill="#ffffff" stroke="transparent" points="245.5,-154.7 245.5,-171.7 304.5,-171.7 304.5,-154.7 245.5,-154.7"/>
<text text-anchor="start" x="258.8053" y="-159.8" font-family="Helvetica,sans-Serif" font-size="11.00" fill="#000000">5 rows</text>
<polygon fill="#ffffff" stroke="transparent" points="304.5,-154.7 304.5,-171.7 346.5,-171.7 346.5,-154.7 304.5,-154.7"/>
<text text-anchor="start" x="328.9053" y="-159.8" font-family="Helvetica,sans-Serif" font-size="11.00" fill="#000000">1 &gt;</text>
<polygon fill="#000000" stroke="#000000" points="245.5,-154.7 245.5,-171.7 245.5,-171.7 245.5,-154.7 245.5,-154.7"/>
<polygon fill="#000000" stroke="#000000" points="304.5,-154.7 304.5,-171.7 304.5,-171.7 304.5,-154.7 304.5,-154.7"/>
</a>
</g>
</g>
<!-- familienmitglied&#45;&gt;berechtigung -->
<g id="edge5" class="edge">
<title>familienmitglied:w&#45;&gt;berechtigung:e</title>
<path fill="none" stroke="#000000" d="M373.2664,-181.9948C364.5528,-181.809 355.8729,-181.7 347.5,-181.7"/>
<polygon fill="#000000" stroke="#000000" points="379.9171,-182.1671 387.8211,-185.9731 383.9158,-182.2707 387.9144,-182.3743 387.9144,-182.3743 387.9144,-182.3743 383.9158,-182.2707 388.0077,-178.7755 379.9171,-182.1671 379.9171,-182.1671"/>
<ellipse fill="none" stroke="#000000" cx="376.7182" cy="-182.0842" rx="3.2" ry="3.2"/>
</g>
<!-- nation -->
<g id="node7" class="node">
<title>nation</title>
<g id="a_node7"><a xlink:href="../../tables/nation.html" xlink:title="nation" target="_top">
<polygon fill="#ffffff" stroke="transparent" points="236,-72.2 236,-133.2 321,-133.2 321,-72.2 236,-72.2"/>
<polygon fill="#f5f5f5" stroke="transparent" points="236.5,-109.7 236.5,-132.7 321.5,-132.7 321.5,-109.7 236.5,-109.7"/>
<polygon fill="none" stroke="#000000" points="236.5,-109.7 236.5,-132.7 321.5,-132.7 321.5,-109.7 236.5,-109.7"/>
<text text-anchor="start" x="241.5" y="-118.3" font-family="Helvetica,sans-Serif" font-weight="bold" font-size="11.00" fill="#000000">nation</text>
<text text-anchor="start" x="287.0219" y="-117.8" font-family="Helvetica,sans-Serif" font-size="11.00" fill="#000000">[table]</text>
<polygon fill="none" stroke="#000000" points="236.5,-90.7 236.5,-109.7 321.5,-109.7 321.5,-90.7 236.5,-90.7"/>
<text text-anchor="start" x="239.5" y="-96.8" font-family="Helvetica,sans-Serif" font-size="11.00" fill="#000000">...</text>
<polygon fill="#ffffff" stroke="transparent" points="236.5,-71.7 236.5,-90.7 321.5,-90.7 321.5,-71.7 236.5,-71.7"/>
<polygon fill="none" stroke="#000000" points="236.5,-71.7 236.5,-90.7 321.5,-90.7 321.5,-71.7 236.5,-71.7"/>
<polygon fill="#ffffff" stroke="transparent" points="237.5,-72.7 237.5,-89.7 249.5,-89.7 249.5,-72.7 237.5,-72.7"/>
<text text-anchor="start" x="239.5" y="-77.8" font-family="Helvetica,sans-Serif" font-size="11.00" fill="#000000"> &#160;</text>
<polygon fill="#ffffff" stroke="transparent" points="249.5,-72.7 249.5,-89.7 299.5,-89.7 299.5,-72.7 249.5,-72.7"/>
<text text-anchor="start" x="252.1904" y="-77.8" font-family="Helvetica,sans-Serif" font-size="11.00" fill="#000000">190 rows</text>
<polygon fill="#ffffff" stroke="transparent" points="299.5,-72.7 299.5,-89.7 320.5,-89.7 320.5,-72.7 299.5,-72.7"/>
<text text-anchor="start" x="302.9053" y="-77.8" font-family="Helvetica,sans-Serif" font-size="11.00" fill="#000000">1 &gt;</text>
<polygon fill="#000000" stroke="#000000" points="249.5,-72.7 249.5,-89.7 249.5,-89.7 249.5,-72.7 249.5,-72.7"/>
<polygon fill="#000000" stroke="#000000" points="299.5,-72.7 299.5,-89.7 299.5,-89.7 299.5,-72.7 299.5,-72.7"/>
</a>
</g>
</g>
<!-- familienmitglied&#45;&gt;nation -->
<g id="edge7" class="edge">
<title>familienmitglied:w&#45;&gt;nation:e</title>
<path fill="none" stroke="#000000" d="M427.1955,-142.8495C398.6717,-121.217 360.4984,-99.7 321.5,-99.7"/>
<polygon fill="#000000" stroke="#000000" points="432.5379,-147.091 436.565,-154.8848 435.6707,-149.5782 438.8035,-152.0653 438.8035,-152.0653 438.8035,-152.0653 435.6707,-149.5782 441.0419,-149.2458 432.5379,-147.091 432.5379,-147.091"/>
<ellipse fill="none" stroke="#000000" cx="430.0317" cy="-145.1013" rx="3.2" ry="3.2"/>
</g>
<!-- einkauf -->
<g id="node3" class="node">
<title>einkauf</title>
<g id="a_node3"><a xlink:href="../../tables/einkauf.html" xlink:title="einkauf" target="_top">
<polygon fill="#ffffff" stroke="transparent" points="687.5,-298.2 687.5,-359.2 780.5,-359.2 780.5,-298.2 687.5,-298.2"/>
<polygon fill="#f5f5f5" stroke="transparent" points="688,-335.7 688,-358.7 781,-358.7 781,-335.7 688,-335.7"/>
<polygon fill="none" stroke="#000000" points="688,-335.7 688,-358.7 781,-358.7 781,-335.7 688,-335.7"/>
<text text-anchor="start" x="693" y="-344.3" font-family="Helvetica,sans-Serif" font-weight="bold" font-size="11.00" fill="#000000">einkauf</text>
<text text-anchor="start" x="746.5219" y="-343.8" font-family="Helvetica,sans-Serif" font-size="11.00" fill="#000000">[table]</text>
<polygon fill="none" stroke="#000000" points="688,-316.7 688,-335.7 781,-335.7 781,-316.7 688,-316.7"/>
<text text-anchor="start" x="691" y="-322.8" font-family="Helvetica,sans-Serif" font-size="11.00" fill="#000000">...</text>
<polygon fill="#ffffff" stroke="transparent" points="688,-297.7 688,-316.7 781,-316.7 781,-297.7 688,-297.7"/>
<polygon fill="none" stroke="#000000" points="688,-297.7 688,-316.7 781,-316.7 781,-297.7 688,-297.7"/>
<polygon fill="#ffffff" stroke="transparent" points="689,-298.7 689,-315.7 710,-315.7 710,-298.7 689,-298.7"/>
<text text-anchor="start" x="691" y="-303.8" font-family="Helvetica,sans-Serif" font-size="11.00" fill="#000000">&lt; 4</text>
<polygon fill="#ffffff" stroke="transparent" points="710,-298.7 710,-315.7 769,-315.7 769,-298.7 710,-298.7"/>
<text text-anchor="start" x="712.6045" y="-303.8" font-family="Helvetica,sans-Serif" font-size="11.00" fill="#000000">3,276 rows</text>
<polygon fill="#ffffff" stroke="transparent" points="769,-298.7 769,-315.7 780,-315.7 780,-298.7 769,-298.7"/>
<text text-anchor="start" x="771.8862" y="-303.8" font-family="Helvetica,sans-Serif" font-size="11.00" fill="#000000"> &#160;</text>
<polygon fill="#000000" stroke="#000000" points="710,-298.7 710,-315.7 710,-315.7 710,-298.7 710,-298.7"/>
<polygon fill="#000000" stroke="#000000" points="769,-298.7 769,-315.7 769,-315.7 769,-298.7 769,-298.7"/>
</a>
</g>
</g>
<!-- einkauf&#45;&gt;familienmitglied -->
<g id="edge4" class="edge">
<title>einkauf:w&#45;&gt;familienmitglied:e</title>
<path fill="none" stroke="#000000" d="M673.3529,-324.9362C602.9117,-317.6556 539.1688,-259.9342 503.8886,-221.417"/>
<polygon fill="#000000" stroke="#000000" points="680.0109,-325.2834 687.8125,-329.2951 684.0054,-325.4917 688,-325.7 688,-325.7 688,-325.7 684.0054,-325.4917 688.1875,-322.1049 680.0109,-325.2834 680.0109,-325.2834"/>
<ellipse fill="none" stroke="#000000" cx="676.8152" cy="-325.1167" rx="3.2" ry="3.2"/>
</g>
<!-- verteilstelle -->
<g id="node4" class="node">
<title>verteilstelle</title>
<g id="a_node4"><a xlink:href="../../tables/verteilstelle.html" xlink:title="verteilstelle" target="_top">
<polygon fill="#ffffff" stroke="transparent" points="21,-314.2 21,-375.2 148,-375.2 148,-314.2 21,-314.2"/>
<polygon fill="#f5f5f5" stroke="transparent" points="21.5,-351.7 21.5,-374.7 148.5,-374.7 148.5,-351.7 21.5,-351.7"/>
<polygon fill="none" stroke="#000000" points="21.5,-351.7 21.5,-374.7 148.5,-374.7 148.5,-351.7 21.5,-351.7"/>
<text text-anchor="start" x="26.5" y="-360.3" font-family="Helvetica,sans-Serif" font-weight="bold" font-size="11.00" fill="#000000">verteilstelle</text>
<text text-anchor="start" x="114.0219" y="-359.8" font-family="Helvetica,sans-Serif" font-size="11.00" fill="#000000">[table]</text>
<polygon fill="none" stroke="#000000" points="21.5,-332.7 21.5,-351.7 148.5,-351.7 148.5,-332.7 21.5,-332.7"/>
<text text-anchor="start" x="24.5" y="-338.8" font-family="Helvetica,sans-Serif" font-size="11.00" fill="#000000">...</text>
<polygon fill="#ffffff" stroke="transparent" points="21.5,-313.7 21.5,-332.7 148.5,-332.7 148.5,-313.7 21.5,-313.7"/>
<polygon fill="none" stroke="#000000" points="21.5,-313.7 21.5,-332.7 148.5,-332.7 148.5,-313.7 21.5,-313.7"/>
<polygon fill="#ffffff" stroke="transparent" points="22.5,-314.7 22.5,-331.7 52.5,-331.7 52.5,-314.7 22.5,-314.7"/>
<text text-anchor="start" x="24.5" y="-319.8" font-family="Helvetica,sans-Serif" font-size="11.00" fill="#000000"> &#160;</text>
<polygon fill="#ffffff" stroke="transparent" points="52.5,-314.7 52.5,-331.7 108.5,-331.7 108.5,-314.7 52.5,-314.7"/>
<text text-anchor="start" x="64.3053" y="-319.8" font-family="Helvetica,sans-Serif" font-size="11.00" fill="#000000">0 rows</text>
<polygon fill="#ffffff" stroke="transparent" points="108.5,-314.7 108.5,-331.7 147.5,-331.7 147.5,-314.7 108.5,-314.7"/>
<text text-anchor="start" x="129.9053" y="-319.8" font-family="Helvetica,sans-Serif" font-size="11.00" fill="#000000">2 &gt;</text>
<polygon fill="#000000" stroke="#000000" points="52.5,-314.7 52.5,-331.7 52.5,-331.7 52.5,-314.7 52.5,-314.7"/>
<polygon fill="#000000" stroke="#000000" points="108.5,-314.7 108.5,-331.7 108.5,-331.7 108.5,-314.7 108.5,-314.7"/>
</a>
</g>
</g>
<!-- einkauf&#45;&gt;verteilstelle -->
<g id="edge2" class="edge">
<title>einkauf:w&#45;&gt;verteilstelle:e</title>
<path fill="none" stroke="#000000" d="M673.4658,-325.7199C445.591,-326.3495 383.4637,-341.7 148.5,-341.7"/>
<polygon fill="#000000" stroke="#000000" points="680,-325.711 688.005,-329.3 684,-325.7055 688,-325.7 688,-325.7 688,-325.7 684,-325.7055 687.995,-322.1 680,-325.711 680,-325.711"/>
<ellipse fill="none" stroke="#000000" cx="676.8" cy="-325.7154" rx="3.2" ry="3.2"/>
</g>
<!-- einkauf&#45;&gt;haushalt -->
<g id="edge3" class="edge">
<title>einkauf:w&#45;&gt;haushalt:e</title>
<path fill="none" stroke="#000000" d="M673.5578,-325.5821C551.3363,-323.6146 414.0764,-297.4648 337.7936,-280.6822"/>
<polygon fill="#000000" stroke="#000000" points="680.0003,-325.6346 687.9706,-329.2999 684.0001,-325.6673 688,-325.7 688,-325.7 688,-325.7 684.0001,-325.6673 688.0294,-322.1001 680.0003,-325.6346 680.0003,-325.6346"/>
<ellipse fill="none" stroke="#000000" cx="676.8004" cy="-325.6085" rx="3.2" ry="3.2"/>
</g>
<!-- haushalt&#45;&gt;verteilstelle -->
<g id="edge10" class="edge">
<title>haushalt:w&#45;&gt;verteilstelle:e</title>
<path fill="none" stroke="#000000" d="M218.0209,-309.4095C191.7752,-326.2713 163.6271,-341.7 148.5,-341.7"/>
<polygon fill="#000000" stroke="#000000" points="223.603,-305.7403 232.2655,-304.3543 226.9456,-303.5431 230.2881,-301.346 230.2881,-301.346 230.2881,-301.346 226.9456,-303.5431 228.3107,-298.3377 223.603,-305.7403 223.603,-305.7403"/>
<ellipse fill="none" stroke="#000000" cx="220.929" cy="-307.498" rx="3.2" ry="3.2"/>
</g>
<!-- ausgabegruppe -->
<g id="node8" class="node">
<title>ausgabegruppe</title>
<g id="a_node8"><a xlink:href="../../tables/ausgabegruppe.html" xlink:title="ausgabegruppe" target="_top">
<polygon fill="#ffffff" stroke="transparent" points="8,-150.2 8,-211.2 161,-211.2 161,-150.2 8,-150.2"/>
<polygon fill="#f5f5f5" stroke="transparent" points="8.5,-187.7 8.5,-210.7 161.5,-210.7 161.5,-187.7 8.5,-187.7"/>
<polygon fill="none" stroke="#000000" points="8.5,-187.7 8.5,-210.7 161.5,-210.7 161.5,-187.7 8.5,-187.7"/>
<text text-anchor="start" x="13.5" y="-196.3" font-family="Helvetica,sans-Serif" font-weight="bold" font-size="11.00" fill="#000000">ausgabegruppe</text>
<text text-anchor="start" x="127.0219" y="-195.8" font-family="Helvetica,sans-Serif" font-size="11.00" fill="#000000">[table]</text>
<polygon fill="none" stroke="#000000" points="8.5,-168.7 8.5,-187.7 161.5,-187.7 161.5,-168.7 8.5,-168.7"/>
<text text-anchor="start" x="11.5" y="-174.8" font-family="Helvetica,sans-Serif" font-size="11.00" fill="#000000">...</text>
<polygon fill="#ffffff" stroke="transparent" points="8.5,-149.7 8.5,-168.7 161.5,-168.7 161.5,-149.7 8.5,-149.7"/>
<polygon fill="none" stroke="#000000" points="8.5,-149.7 8.5,-168.7 161.5,-168.7 161.5,-149.7 8.5,-149.7"/>
<polygon fill="#ffffff" stroke="transparent" points="9.5,-150.7 9.5,-167.7 46.5,-167.7 46.5,-150.7 9.5,-150.7"/>
<text text-anchor="start" x="11.5" y="-155.8" font-family="Helvetica,sans-Serif" font-size="11.00" fill="#000000"> &#160;</text>
<polygon fill="#ffffff" stroke="transparent" points="46.5,-150.7 46.5,-167.7 115.5,-167.7 115.5,-150.7 46.5,-150.7"/>
<text text-anchor="start" x="61.7478" y="-155.8" font-family="Helvetica,sans-Serif" font-size="11.00" fill="#000000">24 rows</text>
<polygon fill="#ffffff" stroke="transparent" points="115.5,-150.7 115.5,-167.7 160.5,-167.7 160.5,-150.7 115.5,-150.7"/>
<text text-anchor="start" x="142.9053" y="-155.8" font-family="Helvetica,sans-Serif" font-size="11.00" fill="#000000">2 &gt;</text>
<polygon fill="#000000" stroke="#000000" points="46.5,-150.7 46.5,-167.7 46.5,-167.7 46.5,-150.7 46.5,-150.7"/>
<polygon fill="#000000" stroke="#000000" points="115.5,-150.7 115.5,-167.7 115.5,-167.7 115.5,-150.7 115.5,-150.7"/>
</a>
</g>
</g>
<!-- haushalt&#45;&gt;ausgabegruppe -->
<g id="edge8" class="edge">
<title>haushalt:w&#45;&gt;ausgabegruppe:e</title>
<path fill="none" stroke="#000000" d="M207.4611,-229.9147C205.5918,-228.5373 203.7671,-227.1318 202,-225.7 180.3129,-208.1278 189.4126,-177.7 161.5,-177.7"/>
<polygon fill="#000000" stroke="#000000" points="212.7726,-233.5156 217.3742,-240.9845 216.0834,-235.7602 219.3943,-238.0048 219.3943,-238.0048 219.3943,-238.0048 216.0834,-235.7602 221.4144,-235.025 212.7726,-233.5156 212.7726,-233.5156"/>
<ellipse fill="none" stroke="#000000" cx="210.1239" cy="-231.7199" rx="3.2" ry="3.2"/>
</g>
<!-- plz -->
<g id="node9" class="node">
<title>plz</title>
<g id="a_node9"><a xlink:href="../../tables/plz.html" xlink:title="plz" target="_top">
<polygon fill="#ffffff" stroke="transparent" points="48,-232.2 48,-293.2 121,-293.2 121,-232.2 48,-232.2"/>
<polygon fill="#f5f5f5" stroke="transparent" points="48.5,-269.7 48.5,-292.7 121.5,-292.7 121.5,-269.7 48.5,-269.7"/>
<polygon fill="none" stroke="#000000" points="48.5,-269.7 48.5,-292.7 121.5,-292.7 121.5,-269.7 48.5,-269.7"/>
<text text-anchor="start" x="53.5" y="-278.3" font-family="Helvetica,sans-Serif" font-weight="bold" font-size="11.00" fill="#000000">plz</text>
<text text-anchor="start" x="86.5437" y="-277.8" font-family="Helvetica,sans-Serif" font-size="11.00" fill="#000000">[table]</text>
<polygon fill="none" stroke="#000000" points="48.5,-250.7 48.5,-269.7 121.5,-269.7 121.5,-250.7 48.5,-250.7"/>
<text text-anchor="start" x="51.5" y="-256.8" font-family="Helvetica,sans-Serif" font-size="11.00" fill="#000000">...</text>
<polygon fill="#ffffff" stroke="transparent" points="48.5,-231.7 48.5,-250.7 121.5,-250.7 121.5,-231.7 48.5,-231.7"/>
<polygon fill="none" stroke="#000000" points="48.5,-231.7 48.5,-250.7 121.5,-250.7 121.5,-231.7 48.5,-231.7"/>
<polygon fill="#ffffff" stroke="transparent" points="49.5,-232.7 49.5,-249.7 59.5,-249.7 59.5,-232.7 49.5,-232.7"/>
<text text-anchor="start" x="51.4431" y="-237.8" font-family="Helvetica,sans-Serif" font-size="11.00" fill="#000000"> &#160;</text>
<polygon fill="#ffffff" stroke="transparent" points="59.5,-232.7 59.5,-249.7 101.5,-249.7 101.5,-232.7 59.5,-232.7"/>
<text text-anchor="start" x="61.2478" y="-237.8" font-family="Helvetica,sans-Serif" font-size="11.00" fill="#000000">29 rows</text>
<polygon fill="#ffffff" stroke="transparent" points="101.5,-232.7 101.5,-249.7 120.5,-249.7 120.5,-232.7 101.5,-232.7"/>
<text text-anchor="start" x="103.2027" y="-237.8" font-family="Helvetica,sans-Serif" font-size="11.00" fill="#000000">2 &gt;</text>
<polygon fill="#000000" stroke="#000000" points="59.5,-232.7 59.5,-249.7 59.5,-249.7 59.5,-232.7 59.5,-232.7"/>
<polygon fill="#000000" stroke="#000000" points="101.5,-232.7 101.5,-249.7 101.5,-249.7 101.5,-232.7 101.5,-232.7"/>
</a>
</g>
</g>
<!-- haushalt&#45;&gt;plz -->
<g id="edge9" class="edge">
<title>haushalt:w&#45;&gt;plz:e</title>
<path fill="none" stroke="#000000" d="M204.6695,-262.0512C178.4224,-260.7579 148.6535,-259.7 121.5,-259.7"/>
<polygon fill="#000000" stroke="#000000" points="211.2693,-262.3949 219.0712,-266.4062 215.2639,-262.603 219.2584,-262.8111 219.2584,-262.8111 219.2584,-262.8111 215.2639,-262.603 219.4457,-259.2159 211.2693,-262.3949 211.2693,-262.3949"/>
<ellipse fill="none" stroke="#000000" cx="208.0736" cy="-262.2284" rx="3.2" ry="3.2"/>
</g>
<!-- vollmacht -->
<g id="node10" class="node">
<title>vollmacht</title>
<g id="a_node10"><a xlink:href="../../tables/vollmacht.html" xlink:title="vollmacht" target="_top">
<polygon fill="#ffffff" stroke="transparent" points="603,-120.7 603,-276.7 865,-276.7 865,-120.7 603,-120.7"/>
<polygon fill="#f5f5f5" stroke="transparent" points="605,-251.7 605,-274.7 863,-274.7 863,-251.7 605,-251.7"/>
<polygon fill="none" stroke="#000000" points="605,-251.7 605,-274.7 863,-274.7 863,-251.7 605,-251.7"/>
<text text-anchor="start" x="610" y="-260.3" font-family="Helvetica,sans-Serif" font-weight="bold" font-size="11.00" fill="#000000">vollmacht</text>
<text text-anchor="start" x="828.0437" y="-259.8" font-family="Helvetica,sans-Serif" font-size="11.00" fill="#000000">[table]</text>
<polygon fill="none" stroke="#000000" points="605,-229.7 605,-251.7 818,-251.7 818,-229.7 605,-229.7"/>
<image xlink:href="../../images/primaryKeys.png" width="11px" height="12px" preserveAspectRatio="xMinYMin meet" x="610" y="-246.7"/>
<text text-anchor="start" x="625" y="-236.8" font-family="Helvetica,sans-Serif" font-size="11.00" fill="#000000">vollmachtId</text>
<polygon fill="none" stroke="#000000" points="818,-229.7 818,-251.7 863,-251.7 863,-229.7 818,-229.7"/>
<text text-anchor="start" x="821" y="-237.4" font-family="Helvetica,sans-Serif" font-size="11.00" fill="#000000">int[10]</text>
<polygon fill="#ffffff" stroke="transparent" points="605,-207.7 605,-229.7 818,-229.7 818,-207.7 605,-207.7"/>
<polygon fill="none" stroke="#000000" points="605,-207.7 605,-229.7 818,-229.7 818,-207.7 605,-207.7"/>
<image xlink:href="../../images/foreignKeys.png" width="11px" height="12px" preserveAspectRatio="xMinYMin meet" x="610" y="-224.7"/>
<text text-anchor="start" x="625" y="-214.8" font-family="Helvetica,sans-Serif" font-size="11.00" fill="#000000">haushaltId</text>
<polygon fill="none" stroke="#000000" points="818,-207.7 818,-229.7 863,-229.7 863,-207.7 818,-207.7"/>
<text text-anchor="start" x="821" y="-215.4" font-family="Helvetica,sans-Serif" font-size="11.00" fill="#000000">int[10]</text>
<polygon fill="#ffffff" stroke="transparent" points="605,-185.7 605,-207.7 818,-207.7 818,-185.7 605,-185.7"/>
<polygon fill="none" stroke="#000000" points="605,-185.7 605,-207.7 818,-207.7 818,-185.7 605,-185.7"/>
<image xlink:href="../../images/foreignKeys.png" width="11px" height="12px" preserveAspectRatio="xMinYMin meet" x="610" y="-202.7"/>
<text text-anchor="start" x="625" y="-192.8" font-family="Helvetica,sans-Serif" font-size="11.00" fill="#000000">bevollmaechtigtePersonId</text>
<polygon fill="none" stroke="#000000" points="818,-185.7 818,-207.7 863,-207.7 863,-185.7 818,-185.7"/>
<text text-anchor="start" x="821" y="-193.4" font-family="Helvetica,sans-Serif" font-size="11.00" fill="#000000">int[10]</text>
<polygon fill="none" stroke="#000000" points="605,-163.7 605,-185.7 818,-185.7 818,-163.7 605,-163.7"/>
<text text-anchor="start" x="625" y="-170.8" font-family="Helvetica,sans-Serif" font-size="11.00" fill="#000000">ausgestelltAm</text>
<polygon fill="none" stroke="#000000" points="818,-163.7 818,-185.7 863,-185.7 863,-163.7 818,-163.7"/>
<text text-anchor="start" x="820.6274" y="-171.4" font-family="Helvetica,sans-Serif" font-size="11.00" fill="#000000">date[10]</text>
<polygon fill="none" stroke="#000000" points="605,-141.7 605,-163.7 818,-163.7 818,-141.7 605,-141.7"/>
<text text-anchor="start" x="625" y="-148.8" font-family="Helvetica,sans-Serif" font-size="11.00" fill="#000000">ablaufDatum</text>
<polygon fill="none" stroke="#000000" points="818,-141.7 818,-163.7 863,-163.7 863,-141.7 818,-141.7"/>
<text text-anchor="start" x="820.6274" y="-149.4" font-family="Helvetica,sans-Serif" font-size="11.00" fill="#000000">date[10]</text>
<polygon fill="#ffffff" stroke="transparent" points="605,-122.7 605,-141.7 863,-141.7 863,-122.7 605,-122.7"/>
<polygon fill="none" stroke="#000000" points="605,-122.7 605,-141.7 863,-141.7 863,-122.7 605,-122.7"/>
<polygon fill="#ffffff" stroke="transparent" points="606,-123.7 606,-140.7 686,-140.7 686,-123.7 606,-123.7"/>
<text text-anchor="start" x="608" y="-128.8" font-family="Helvetica,sans-Serif" font-size="11.00" fill="#000000">&lt; 2</text>
<polygon fill="#ffffff" stroke="transparent" points="686,-123.7 686,-140.7 783,-140.7 783,-123.7 686,-123.7"/>
<text text-anchor="start" x="718.3053" y="-128.8" font-family="Helvetica,sans-Serif" font-size="11.00" fill="#000000">0 rows</text>
<polygon fill="#ffffff" stroke="transparent" points="783,-123.7 783,-140.7 862,-140.7 862,-123.7 783,-123.7"/>
<text text-anchor="start" x="844.4053" y="-128.8" font-family="Helvetica,sans-Serif" font-size="11.00" fill="#000000">0 &gt;</text>
<polygon fill="#000000" stroke="#000000" points="686,-123.7 686,-140.7 686,-140.7 686,-123.7 686,-123.7"/>
<polygon fill="#000000" stroke="#000000" points="783,-123.7 783,-140.7 783,-140.7 783,-123.7 783,-123.7"/>
<polygon fill="none" stroke="#000000" stroke-width="2" points="604,-121.7 604,-275.7 864,-275.7 864,-121.7 604,-121.7"/>
</a>
</g>
</g>
<!-- vollmacht&#45;&gt;familienmitglied -->
<g id="edge11" class="edge">
<title>vollmacht:w&#45;&gt;familienmitglied:e</title>
<path fill="none" stroke="#000000" d="M590.524,-196.5097C581.1915,-196.2745 571.6868,-195.8349 562.3393,-195.2672"/>
<polygon fill="#000000" stroke="#000000" points="597.0007,-196.5948 604.9527,-200.2997 601.0003,-196.6474 605,-196.7 605,-196.7 605,-196.7 601.0003,-196.6474 605.0473,-193.1003 597.0007,-196.5948 597.0007,-196.5948"/>
<ellipse fill="none" stroke="#000000" cx="593.801" cy="-196.5527" rx="3.2" ry="3.2"/>
</g>
<!-- vollmacht&#45;&gt;haushalt -->
<g id="edge12" class="edge">
<title>vollmacht:w&#45;&gt;haushalt:e</title>
<path fill="none" stroke="#000000" d="M590.554,-220.0521C581.5007,-221.9369 575.3769,-225.3829 562,-227.7 484.7762,-241.0765 395.0752,-252.7765 337.5973,-259.7868"/>
<polygon fill="#000000" stroke="#000000" points="597.0348,-219.4455 605.3355,-222.2843 601.0174,-219.0728 605,-218.7 605,-218.7 605,-218.7 601.0174,-219.0728 604.6645,-215.1157 597.0348,-219.4455 597.0348,-219.4455"/>
<ellipse fill="none" stroke="#000000" cx="593.8487" cy="-219.7438" rx="3.2" ry="3.2"/>
</g>
</g>
</svg>
