<?xml version="1.0" encoding="UTF-8" standalone="no"?>
<!DOCTYPE svg PUBLIC "-//W3C//DTD SVG 1.1//EN"
 "http://www.w3.org/Graphics/SVG/1.1/DTD/svg11.dtd">
<!-- Generated by graphviz version 2.40.1 (20161225.0304)
 -->
<!-- Title: oneDegreeRelationshipsDiagram Pages: 1 -->
<svg width="270pt" height="316pt"
 viewBox="0.00 0.00 270.00 316.20" xmlns="http://www.w3.org/2000/svg" xmlns:xlink="http://www.w3.org/1999/xlink">
<g id="graph0" class="graph" transform="scale(1 1) rotate(0) translate(4 312.2)">
<title>oneDegreeRelationshipsDiagram</title>
<polygon fill="#ffffff" stroke="transparent" points="-4,4 -4,-312.2 266,-312.2 266,4 -4,4"/>
<text text-anchor="middle" x="72.4936" y="-7.3" font-family="Helvetica,sans-Serif" font-size="11.00" fill="#000000">Generated by SchemaSpy</text>
<!-- vorlage -->
<g id="node1" class="node">
<title>vorlage</title>
<g id="a_node1"><a xlink:href="../../tables/vorlage.html" xlink:title="vorlage" target="_top">
<polygon fill="#ffffff" stroke="transparent" points="8,-38.2 8,-304.2 254,-304.2 254,-38.2 8,-38.2"/>
<polygon fill="#f5f5f5" stroke="transparent" points="10,-279.2 10,-302.2 252,-302.2 252,-279.2 10,-279.2"/>
<polygon fill="none" stroke="#000000" points="10,-279.2 10,-302.2 252,-302.2 252,-279.2 10,-279.2"/>
<text text-anchor="start" x="15" y="-287.8" font-family="Helvetica,sans-Serif" font-weight="bold" font-size="11.00" fill="#000000">vorlage</text>
<text text-anchor="start" x="217.0437" y="-287.3" font-family="Helvetica,sans-Serif" font-size="11.00" fill="#000000">[table]</text>
<polygon fill="none" stroke="#000000" points="10,-257.2 10,-279.2 132,-279.2 132,-257.2 10,-257.2"/>
<image xlink:href="../../images/primaryKeys.png" width="11px" height="12px" preserveAspectRatio="xMinYMin meet" x="15" y="-274.2"/>
<text text-anchor="start" x="30" y="-264.3" font-family="Helvetica,sans-Serif" font-size="11.00" fill="#000000">vorlageId</text>
<polygon fill="none" stroke="#000000" points="132,-257.2 132,-279.2 252,-279.2 252,-257.2 132,-257.2"/>
<text text-anchor="start" x="135" y="-264.9" font-family="Helvetica,sans-Serif" font-size="11.00" fill="#000000">int[10]</text>
<polygon fill="none" stroke="#000000" points="10,-235.2 10,-257.2 132,-257.2 132,-235.2 10,-235.2"/>
<text text-anchor="start" x="30" y="-242.3" font-family="Helvetica,sans-Serif" font-size="11.00" fill="#000000">templateType</text>
<polygon fill="none" stroke="#000000" points="132,-235.2 132,-257.2 252,-257.2 252,-235.2 132,-235.2"/>
<text text-anchor="start" x="135" y="-242.9" font-family="Helvetica,sans-Serif" font-size="11.00" fill="#000000">varchar[30]</text>
<polygon fill="none" stroke="#000000" points="10,-213.2 10,-235.2 132,-235.2 132,-213.2 10,-213.2"/>
<text text-anchor="start" x="30" y="-220.3" font-family="Helvetica,sans-Serif" font-size="11.00" fill="#000000">name</text>
<polygon fill="none" stroke="#000000" points="132,-213.2 132,-235.2 252,-235.2 252,-213.2 132,-213.2"/>
<text text-anchor="start" x="135" y="-220.9" font-family="Helvetica,sans-Serif" font-size="11.00" fill="#000000">varchar[30]</text>
<polygon fill="none" stroke="#000000" points="10,-191.2 10,-213.2 132,-213.2 132,-191.2 10,-191.2"/>
<text text-anchor="start" x="30" y="-198.3" font-family="Helvetica,sans-Serif" font-size="11.00" fill="#000000">autor</text>
<polygon fill="none" stroke="#000000" points="132,-191.2 132,-213.2 252,-213.2 252,-191.2 132,-191.2"/>
<text text-anchor="start" x="135" y="-198.9" font-family="Helvetica,sans-Serif" font-size="11.00" fill="#000000">varchar[30]</text>
<polygon fill="none" stroke="#000000" points="10,-169.2 10,-191.2 132,-191.2 132,-169.2 10,-169.2"/>
<text text-anchor="start" x="30" y="-176.3" font-family="Helvetica,sans-Serif" font-size="11.00" fill="#000000">fileVersion</text>
<polygon fill="none" stroke="#000000" points="132,-169.2 132,-191.2 252,-191.2 252,-169.2 132,-169.2"/>
<text text-anchor="start" x="135" y="-176.9" font-family="Helvetica,sans-Serif" font-size="11.00" fill="#000000">varchar[15]</text>
<polygon fill="none" stroke="#000000" points="10,-147.2 10,-169.2 132,-169.2 132,-147.2 10,-147.2"/>
<text text-anchor="start" x="30" y="-154.3" font-family="Helvetica,sans-Serif" font-size="11.00" fill="#000000">fileTypes</text>
<polygon fill="none" stroke="#000000" points="132,-147.2 132,-169.2 252,-169.2 252,-147.2 132,-147.2"/>
<text text-anchor="start" x="135" y="-154.9" font-family="Helvetica,sans-Serif" font-size="11.00" fill="#000000">varchar[100]</text>
<polygon fill="none" stroke="#000000" points="10,-125.2 10,-147.2 132,-147.2 132,-125.2 10,-125.2"/>
<text text-anchor="start" x="30" y="-132.3" font-family="Helvetica,sans-Serif" font-size="11.00" fill="#000000">defaultText</text>
<polygon fill="none" stroke="#000000" points="132,-125.2 132,-147.2 252,-147.2 252,-125.2 132,-125.2"/>
<text text-anchor="start" x="135" y="-132.9" font-family="Helvetica,sans-Serif" font-size="11.00" fill="#000000">tinytext[255]</text>
<polygon fill="none" stroke="#000000" points="10,-103.2 10,-125.2 132,-125.2 132,-103.2 10,-103.2"/>
<text text-anchor="start" x="30" y="-110.3" font-family="Helvetica,sans-Serif" font-size="11.00" fill="#000000">passwort</text>
<polygon fill="none" stroke="#000000" points="132,-103.2 132,-125.2 252,-125.2 252,-103.2 132,-103.2"/>
<text text-anchor="start" x="135" y="-110.9" font-family="Helvetica,sans-Serif" font-size="11.00" fill="#000000">int[10]</text>
<polygon fill="none" stroke="#000000" points="10,-81.2 10,-103.2 132,-103.2 132,-81.2 10,-81.2"/>
<text text-anchor="start" x="30" y="-88.3" font-family="Helvetica,sans-Serif" font-size="11.00" fill="#000000">aktiv</text>
<polygon fill="none" stroke="#000000" points="132,-81.2 132,-103.2 252,-103.2 252,-81.2 132,-81.2"/>
<text text-anchor="start" x="135" y="-88.9" font-family="Helvetica,sans-Serif" font-size="11.00" fill="#000000">bit[1]</text>
<polygon fill="none" stroke="#000000" points="10,-59.2 10,-81.2 132,-81.2 132,-59.2 10,-59.2"/>
<text text-anchor="start" x="30" y="-66.3" font-family="Helvetica,sans-Serif" font-size="11.00" fill="#000000">daten</text>
<polygon fill="none" stroke="#000000" points="132,-59.2 132,-81.2 252,-81.2 252,-59.2 132,-59.2"/>
<text text-anchor="start" x="134.536" y="-66.9" font-family="Helvetica,sans-Serif" font-size="11.00" fill="#000000">mediumblob[16777215]</text>
<polygon fill="#ffffff" stroke="transparent" points="10,-40.2 10,-59.2 252,-59.2 252,-40.2 10,-40.2"/>
<polygon fill="none" stroke="#000000" points="10,-40.2 10,-59.2 252,-59.2 252,-40.2 10,-40.2"/>
<polygon fill="#ffffff" stroke="transparent" points="11,-41.2 11,-58.2 84,-58.2 84,-41.2 11,-41.2"/>
<text text-anchor="start" x="13" y="-46.3" font-family="Helvetica,sans-Serif" font-size="11.00" fill="#000000">&lt; 0</text>
<polygon fill="#ffffff" stroke="transparent" points="84,-41.2 84,-58.2 179,-58.2 179,-41.2 84,-41.2"/>
<text text-anchor="start" x="112.2478" y="-46.3" font-family="Helvetica,sans-Serif" font-size="11.00" fill="#000000">10 rows</text>
<polygon fill="#ffffff" stroke="transparent" points="179,-41.2 179,-58.2 251,-58.2 251,-41.2 179,-41.2"/>
<text text-anchor="start" x="233.4053" y="-46.3" font-family="Helvetica,sans-Serif" font-size="11.00" fill="#000000">0 &gt;</text>
<polygon fill="#000000" stroke="#000000" points="84,-41.2 84,-58.2 84,-58.2 84,-41.2 84,-41.2"/>
<polygon fill="#000000" stroke="#000000" points="179,-41.2 179,-58.2 179,-58.2 179,-41.2 179,-41.2"/>
<polygon fill="none" stroke="#000000" stroke-width="2" points="9,-39.2 9,-303.2 253,-303.2 253,-39.2 9,-39.2"/>
</a>
</g>
</g>
</g>
</svg>
