<?xml version="1.0" encoding="UTF-8" standalone="no"?>
<!DOCTYPE svg PUBLIC "-//W3C//DTD SVG 1.1//EN"
 "http://www.w3.org/Graphics/SVG/1.1/DTD/svg11.dtd">
<!-- Generated by graphviz version 2.40.1 (20161225.0304)
 -->
<!-- Title: twoDegreesRelationshipsDiagram Pages: 1 -->
<svg width="825pt" height="619pt"
 viewBox="0.00 0.00 825.00 618.93" xmlns="http://www.w3.org/2000/svg" xmlns:xlink="http://www.w3.org/1999/xlink">
<g id="graph0" class="graph" transform="scale(1 1) rotate(0) translate(4 614.9253)">
<title>twoDegreesRelationshipsDiagram</title>
<polygon fill="#ffffff" stroke="transparent" points="-4,4 -4,-614.9253 821,-614.9253 821,4 -4,4"/>
<text text-anchor="middle" x="72.4936" y="-7.3" font-family="Helvetica,sans-Serif" font-size="11.00" fill="#000000">Generated by SchemaSpy</text>
<!-- einkauf -->
<g id="node1" class="node">
<title>einkauf</title>
<g id="a_node1"><a xlink:href="../../tables/einkauf.html" xlink:title="einkauf" target="_top">
<polygon fill="#ffffff" stroke="transparent" points="653,-56.4253 653,-227.4253 809,-227.4253 809,-56.4253 653,-56.4253"/>
<polygon fill="#f5f5f5" stroke="transparent" points="653,-203.9253 653,-226.9253 809,-226.9253 809,-203.9253 653,-203.9253"/>
<polygon fill="none" stroke="#000000" points="653,-203.9253 653,-226.9253 809,-226.9253 809,-203.9253 653,-203.9253"/>
<text text-anchor="start" x="658" y="-212.5253" font-family="Helvetica,sans-Serif" font-weight="bold" font-size="11.00" fill="#000000">einkauf</text>
<text text-anchor="start" x="774.0437" y="-212.0253" font-family="Helvetica,sans-Serif" font-size="11.00" fill="#000000">[table]</text>
<polygon fill="none" stroke="#000000" points="653,-181.9253 653,-203.9253 809,-203.9253 809,-181.9253 653,-181.9253"/>
<image xlink:href="../../images/primaryKeys.png" width="11px" height="12px" preserveAspectRatio="xMinYMin meet" x="658" y="-198.925"/>
<text text-anchor="start" x="673" y="-189.0253" font-family="Helvetica,sans-Serif" font-size="11.00" fill="#000000">einkaufId</text>
<polygon fill="#ffffff" stroke="transparent" points="653,-159.9253 653,-181.9253 809,-181.9253 809,-159.9253 653,-159.9253"/>
<polygon fill="none" stroke="#000000" points="653,-159.9253 653,-181.9253 809,-181.9253 809,-159.9253 653,-159.9253"/>
<image xlink:href="../../images/foreignKeys.png" width="11px" height="12px" preserveAspectRatio="xMinYMin meet" x="658" y="-176.925"/>
<text text-anchor="start" x="673" y="-167.0253" font-family="Helvetica,sans-Serif" font-size="11.00" fill="#000000">warentyp</text>
<polygon fill="#ffffff" stroke="transparent" points="653,-137.9253 653,-159.9253 809,-159.9253 809,-137.9253 653,-137.9253"/>
<polygon fill="none" stroke="#000000" points="653,-137.9253 653,-159.9253 809,-159.9253 809,-137.9253 653,-137.9253"/>
<image xlink:href="../../images/foreignKeys.png" width="11px" height="12px" preserveAspectRatio="xMinYMin meet" x="658" y="-154.925"/>
<text text-anchor="start" x="673" y="-145.0253" font-family="Helvetica,sans-Serif" font-size="11.00" fill="#000000">kunde</text>
<polygon fill="#ffffff" stroke="transparent" points="653,-115.9253 653,-137.9253 809,-137.9253 809,-115.9253 653,-115.9253"/>
<polygon fill="none" stroke="#000000" points="653,-115.9253 653,-137.9253 809,-137.9253 809,-115.9253 653,-115.9253"/>
<image xlink:href="../../images/foreignKeys.png" width="11px" height="12px" preserveAspectRatio="xMinYMin meet" x="658" y="-132.925"/>
<text text-anchor="start" x="673" y="-123.0253" font-family="Helvetica,sans-Serif" font-size="11.00" fill="#000000">person</text>
<polygon fill="#ffffff" stroke="transparent" points="653,-93.9253 653,-115.9253 809,-115.9253 809,-93.9253 653,-93.9253"/>
<polygon fill="none" stroke="#000000" points="653,-93.9253 653,-115.9253 809,-115.9253 809,-93.9253 653,-93.9253"/>
<image xlink:href="../../images/foreignKeys.png" width="11px" height="12px" preserveAspectRatio="xMinYMin meet" x="658" y="-110.925"/>
<text text-anchor="start" x="673" y="-101.0253" font-family="Helvetica,sans-Serif" font-size="11.00" fill="#000000">beiVerteilstelle</text>
<polygon fill="none" stroke="#000000" points="653,-74.9253 653,-93.9253 809,-93.9253 809,-74.9253 653,-74.9253"/>
<text text-anchor="start" x="656" y="-81.0253" font-family="Helvetica,sans-Serif" font-size="11.00" fill="#000000">...</text>
<polygon fill="#ffffff" stroke="transparent" points="653,-55.9253 653,-74.9253 809,-74.9253 809,-55.9253 653,-55.9253"/>
<polygon fill="none" stroke="#000000" points="653,-55.9253 653,-74.9253 809,-74.9253 809,-55.9253 653,-55.9253"/>
<polygon fill="#ffffff" stroke="transparent" points="654,-56.9253 654,-73.9253 696,-73.9253 696,-56.9253 654,-56.9253"/>
<text text-anchor="start" x="656" y="-62.0253" font-family="Helvetica,sans-Serif" font-size="11.00" fill="#000000">&lt; 4</text>
<polygon fill="#ffffff" stroke="transparent" points="696,-56.9253 696,-73.9253 776,-73.9253 776,-56.9253 696,-56.9253"/>
<text text-anchor="start" x="709.1045" y="-62.0253" font-family="Helvetica,sans-Serif" font-size="11.00" fill="#000000">3,276 rows</text>
<polygon fill="#ffffff" stroke="transparent" points="776,-56.9253 776,-73.9253 808,-73.9253 808,-56.9253 776,-56.9253"/>
<text text-anchor="start" x="799.8862" y="-62.0253" font-family="Helvetica,sans-Serif" font-size="11.00" fill="#000000"> &#160;</text>
<polygon fill="#000000" stroke="#000000" points="696,-56.9253 696,-73.9253 696,-73.9253 696,-56.9253 696,-56.9253"/>
<polygon fill="#000000" stroke="#000000" points="776,-56.9253 776,-73.9253 776,-73.9253 776,-56.9253 776,-56.9253"/>
</a>
</g>
</g>
<!-- verteilstelle -->
<g id="node2" class="node">
<title>verteilstelle</title>
<g id="a_node2"><a xlink:href="../../tables/verteilstelle.html" xlink:title="verteilstelle" target="_top">
<polygon fill="#ffffff" stroke="transparent" points="8,-55.4253 8,-116.4253 135,-116.4253 135,-55.4253 8,-55.4253"/>
<polygon fill="#f5f5f5" stroke="transparent" points="8.5,-92.9253 8.5,-115.9253 135.5,-115.9253 135.5,-92.9253 8.5,-92.9253"/>
<polygon fill="none" stroke="#000000" points="8.5,-92.9253 8.5,-115.9253 135.5,-115.9253 135.5,-92.9253 8.5,-92.9253"/>
<text text-anchor="start" x="13.5" y="-101.5253" font-family="Helvetica,sans-Serif" font-weight="bold" font-size="11.00" fill="#000000">verteilstelle</text>
<text text-anchor="start" x="101.0219" y="-101.0253" font-family="Helvetica,sans-Serif" font-size="11.00" fill="#000000">[table]</text>
<polygon fill="none" stroke="#000000" points="8.5,-73.9253 8.5,-92.9253 135.5,-92.9253 135.5,-73.9253 8.5,-73.9253"/>
<text text-anchor="start" x="11.5" y="-80.0253" font-family="Helvetica,sans-Serif" font-size="11.00" fill="#000000">...</text>
<polygon fill="#ffffff" stroke="transparent" points="8.5,-54.9253 8.5,-73.9253 135.5,-73.9253 135.5,-54.9253 8.5,-54.9253"/>
<polygon fill="none" stroke="#000000" points="8.5,-54.9253 8.5,-73.9253 135.5,-73.9253 135.5,-54.9253 8.5,-54.9253"/>
<polygon fill="#ffffff" stroke="transparent" points="9.5,-55.9253 9.5,-72.9253 39.5,-72.9253 39.5,-55.9253 9.5,-55.9253"/>
<text text-anchor="start" x="11.5" y="-61.0253" font-family="Helvetica,sans-Serif" font-size="11.00" fill="#000000"> &#160;</text>
<polygon fill="#ffffff" stroke="transparent" points="39.5,-55.9253 39.5,-72.9253 95.5,-72.9253 95.5,-55.9253 39.5,-55.9253"/>
<text text-anchor="start" x="51.3053" y="-61.0253" font-family="Helvetica,sans-Serif" font-size="11.00" fill="#000000">0 rows</text>
<polygon fill="#ffffff" stroke="transparent" points="95.5,-55.9253 95.5,-72.9253 134.5,-72.9253 134.5,-55.9253 95.5,-55.9253"/>
<text text-anchor="start" x="116.9053" y="-61.0253" font-family="Helvetica,sans-Serif" font-size="11.00" fill="#000000">2 &gt;</text>
<polygon fill="#000000" stroke="#000000" points="39.5,-55.9253 39.5,-72.9253 39.5,-72.9253 39.5,-55.9253 39.5,-55.9253"/>
<polygon fill="#000000" stroke="#000000" points="95.5,-55.9253 95.5,-72.9253 95.5,-72.9253 95.5,-55.9253 95.5,-55.9253"/>
</a>
</g>
</g>
<!-- einkauf&#45;&gt;verteilstelle -->
<g id="edge1" class="edge">
<title>einkauf:w&#45;&gt;verteilstelle:e</title>
<path fill="none" stroke="#000000" d="M639.1463,-100.2515C630.0325,-92.3953 628.3534,-76.8238 612,-70.9253 429.7171,-5.1775 367.7714,-43.1123 176,-70.9253 157.4209,-73.6198 154.2735,-82.9253 135.5,-82.9253"/>
<polygon fill="#000000" stroke="#000000" points="645.4198,-102.3679 651.8492,-108.3364 649.2099,-103.6466 653,-104.9253 653,-104.9253 653,-104.9253 649.2099,-103.6466 654.1508,-101.5142 645.4198,-102.3679 645.4198,-102.3679"/>
<ellipse fill="none" stroke="#000000" cx="642.3877" cy="-101.345" rx="3.2" ry="3.2"/>
</g>
<!-- haushalt -->
<g id="node3" class="node">
<title>haushalt</title>
<g id="a_node3"><a xlink:href="../../tables/haushalt.html" xlink:title="haushalt" target="_top">
<polygon fill="#ffffff" stroke="transparent" points="184,-81.4253 184,-142.4253 286,-142.4253 286,-81.4253 184,-81.4253"/>
<polygon fill="#f5f5f5" stroke="transparent" points="184,-118.9253 184,-141.9253 286,-141.9253 286,-118.9253 184,-118.9253"/>
<polygon fill="none" stroke="#000000" points="184,-118.9253 184,-141.9253 286,-141.9253 286,-118.9253 184,-118.9253"/>
<text text-anchor="start" x="189" y="-127.5253" font-family="Helvetica,sans-Serif" font-weight="bold" font-size="11.00" fill="#000000">haushalt</text>
<text text-anchor="start" x="251.5219" y="-127.0253" font-family="Helvetica,sans-Serif" font-size="11.00" fill="#000000">[table]</text>
<polygon fill="none" stroke="#000000" points="184,-99.9253 184,-118.9253 286,-118.9253 286,-99.9253 184,-99.9253"/>
<text text-anchor="start" x="187" y="-106.0253" font-family="Helvetica,sans-Serif" font-size="11.00" fill="#000000">...</text>
<polygon fill="#ffffff" stroke="transparent" points="184,-80.9253 184,-99.9253 286,-99.9253 286,-80.9253 184,-80.9253"/>
<polygon fill="none" stroke="#000000" points="184,-80.9253 184,-99.9253 286,-99.9253 286,-80.9253 184,-80.9253"/>
<polygon fill="#ffffff" stroke="transparent" points="185,-81.9253 185,-98.9253 209,-98.9253 209,-81.9253 185,-81.9253"/>
<text text-anchor="start" x="187" y="-87.0253" font-family="Helvetica,sans-Serif" font-size="11.00" fill="#000000">&lt; 3</text>
<polygon fill="#ffffff" stroke="transparent" points="209,-81.9253 209,-98.9253 262,-98.9253 262,-81.9253 209,-81.9253"/>
<text text-anchor="start" x="213.1904" y="-87.0253" font-family="Helvetica,sans-Serif" font-size="11.00" fill="#000000">639 rows</text>
<polygon fill="#ffffff" stroke="transparent" points="262,-81.9253 262,-98.9253 285,-98.9253 285,-81.9253 262,-81.9253"/>
<text text-anchor="start" x="267.4053" y="-87.0253" font-family="Helvetica,sans-Serif" font-size="11.00" fill="#000000">3 &gt;</text>
<polygon fill="#000000" stroke="#000000" points="209,-81.9253 209,-98.9253 209,-98.9253 209,-81.9253 209,-81.9253"/>
<polygon fill="#000000" stroke="#000000" points="262,-81.9253 262,-98.9253 262,-98.9253 262,-81.9253 262,-81.9253"/>
</a>
</g>
</g>
<!-- einkauf&#45;&gt;haushalt -->
<g id="edge2" class="edge">
<title>einkauf:w&#45;&gt;haushalt:e</title>
<path fill="none" stroke="#000000" d="M638.4868,-149.7415C630.3063,-150.7272 624.2866,-152.3274 612,-152.9253 485.4831,-159.0822 443.1515,-203.4552 327,-152.9253 302.4894,-142.2623 312.7296,-108.9253 286,-108.9253"/>
<polygon fill="#000000" stroke="#000000" points="645.0126,-149.3746 653.2022,-152.5196 649.0063,-149.1499 653,-148.9253 653,-148.9253 653,-148.9253 649.0063,-149.1499 652.7978,-145.331 645.0126,-149.3746 645.0126,-149.3746"/>
<ellipse fill="none" stroke="#000000" cx="641.8177" cy="-149.5543" rx="3.2" ry="3.2"/>
</g>
<!-- familienmitglied -->
<g id="node4" class="node">
<title>familienmitglied</title>
<g id="a_node4"><a xlink:href="../../tables/familienmitglied.html" xlink:title="familienmitglied" target="_top">
<polygon fill="#ffffff" stroke="transparent" points="390.5,-81.4253 390.5,-142.4253 548.5,-142.4253 548.5,-81.4253 390.5,-81.4253"/>
<polygon fill="#f5f5f5" stroke="transparent" points="390.5,-118.9253 390.5,-141.9253 548.5,-141.9253 548.5,-118.9253 390.5,-118.9253"/>
<polygon fill="none" stroke="#000000" points="390.5,-118.9253 390.5,-141.9253 548.5,-141.9253 548.5,-118.9253 390.5,-118.9253"/>
<text text-anchor="start" x="395.5" y="-127.5253" font-family="Helvetica,sans-Serif" font-weight="bold" font-size="11.00" fill="#000000">familienmitglied</text>
<text text-anchor="start" x="514.0219" y="-127.0253" font-family="Helvetica,sans-Serif" font-size="11.00" fill="#000000">[table]</text>
<polygon fill="none" stroke="#000000" points="390.5,-99.9253 390.5,-118.9253 548.5,-118.9253 548.5,-99.9253 390.5,-99.9253"/>
<text text-anchor="start" x="393.5" y="-106.0253" font-family="Helvetica,sans-Serif" font-size="11.00" fill="#000000">...</text>
<polygon fill="#ffffff" stroke="transparent" points="390.5,-80.9253 390.5,-99.9253 548.5,-99.9253 548.5,-80.9253 390.5,-80.9253"/>
<polygon fill="none" stroke="#000000" points="390.5,-80.9253 390.5,-99.9253 548.5,-99.9253 548.5,-80.9253 390.5,-80.9253"/>
<polygon fill="#ffffff" stroke="transparent" points="391.5,-81.9253 391.5,-98.9253 431.5,-98.9253 431.5,-81.9253 391.5,-81.9253"/>
<text text-anchor="start" x="393.5" y="-87.0253" font-family="Helvetica,sans-Serif" font-size="11.00" fill="#000000">&lt; 3</text>
<polygon fill="#ffffff" stroke="transparent" points="431.5,-81.9253 431.5,-98.9253 508.5,-98.9253 508.5,-81.9253 431.5,-81.9253"/>
<text text-anchor="start" x="443.1045" y="-87.0253" font-family="Helvetica,sans-Serif" font-size="11.00" fill="#000000">1,525 rows</text>
<polygon fill="#ffffff" stroke="transparent" points="508.5,-81.9253 508.5,-98.9253 547.5,-98.9253 547.5,-81.9253 508.5,-81.9253"/>
<text text-anchor="start" x="529.9053" y="-87.0253" font-family="Helvetica,sans-Serif" font-size="11.00" fill="#000000">3 &gt;</text>
<polygon fill="#000000" stroke="#000000" points="431.5,-81.9253 431.5,-98.9253 431.5,-98.9253 431.5,-81.9253 431.5,-81.9253"/>
<polygon fill="#000000" stroke="#000000" points="508.5,-81.9253 508.5,-98.9253 508.5,-98.9253 508.5,-81.9253 508.5,-81.9253"/>
</a>
</g>
</g>
<!-- einkauf&#45;&gt;familienmitglied -->
<g id="edge3" class="edge">
<title>einkauf:w&#45;&gt;familienmitglied:e</title>
<path fill="none" stroke="#000000" d="M638.2965,-126.2846C603.0775,-123.0781 590.2896,-108.9253 548.5,-108.9253"/>
<polygon fill="#000000" stroke="#000000" points="645.0076,-126.577 652.8433,-130.5219 649.0038,-126.7511 653,-126.9253 653,-126.9253 653,-126.9253 649.0038,-126.7511 653.1567,-123.3287 645.0076,-126.577 645.0076,-126.577"/>
<ellipse fill="none" stroke="#000000" cx="641.8106" cy="-126.4377" rx="3.2" ry="3.2"/>
</g>
<!-- warentyp -->
<g id="node5" class="node">
<title>warentyp</title>
<g id="a_node5"><a xlink:href="../../tables/warentyp.html" xlink:title="warentyp" target="_top">
<polygon fill="#ffffff" stroke="transparent" points="335,-190.9253 335,-588.9253 604,-588.9253 604,-190.9253 335,-190.9253"/>
<polygon fill="#f5f5f5" stroke="transparent" points="337.5,-563.9253 337.5,-586.9253 602.5,-586.9253 602.5,-563.9253 337.5,-563.9253"/>
<polygon fill="none" stroke="#000000" points="337.5,-563.9253 337.5,-586.9253 602.5,-586.9253 602.5,-563.9253 337.5,-563.9253"/>
<text text-anchor="start" x="342.5" y="-572.5253" font-family="Helvetica,sans-Serif" font-weight="bold" font-size="11.00" fill="#000000">warentyp</text>
<text text-anchor="start" x="567.5437" y="-572.0253" font-family="Helvetica,sans-Serif" font-size="11.00" fill="#000000">[table]</text>
<polygon fill="none" stroke="#000000" points="337.5,-541.9253 337.5,-563.9253 541.5,-563.9253 541.5,-541.9253 337.5,-541.9253"/>
<image xlink:href="../../images/primaryKeys.png" width="11px" height="12px" preserveAspectRatio="xMinYMin meet" x="342.5" y="-558.925"/>
<text text-anchor="start" x="357.5" y="-549.0253" font-family="Helvetica,sans-Serif" font-size="11.00" fill="#000000">warentypId</text>
<polygon fill="none" stroke="#000000" points="541.5,-541.9253 541.5,-563.9253 602.5,-563.9253 602.5,-541.9253 541.5,-541.9253"/>
<text text-anchor="start" x="544.5" y="-549.6253" font-family="Helvetica,sans-Serif" font-size="11.00" fill="#000000">int[10]</text>
<polygon fill="none" stroke="#000000" points="337.5,-519.9253 337.5,-541.9253 541.5,-541.9253 541.5,-519.9253 337.5,-519.9253"/>
<text text-anchor="start" x="357.5" y="-527.0253" font-family="Helvetica,sans-Serif" font-size="11.00" fill="#000000">name</text>
<polygon fill="none" stroke="#000000" points="541.5,-519.9253 541.5,-541.9253 602.5,-541.9253 602.5,-519.9253 541.5,-519.9253"/>
<text text-anchor="start" x="544.494" y="-527.6253" font-family="Helvetica,sans-Serif" font-size="11.00" fill="#000000">varchar[30]</text>
<polygon fill="none" stroke="#000000" points="337.5,-497.9253 337.5,-519.9253 541.5,-519.9253 541.5,-497.9253 337.5,-497.9253"/>
<text text-anchor="start" x="357.5" y="-505.0253" font-family="Helvetica,sans-Serif" font-size="11.00" fill="#000000">preisErwachsener</text>
<polygon fill="none" stroke="#000000" points="541.5,-497.9253 541.5,-519.9253 602.5,-519.9253 602.5,-497.9253 541.5,-497.9253"/>
<text text-anchor="start" x="544.5" y="-505.6253" font-family="Helvetica,sans-Serif" font-size="11.00" fill="#000000">float[12]</text>
<polygon fill="none" stroke="#000000" points="337.5,-475.9253 337.5,-497.9253 541.5,-497.9253 541.5,-475.9253 337.5,-475.9253"/>
<text text-anchor="start" x="357.5" y="-483.0253" font-family="Helvetica,sans-Serif" font-size="11.00" fill="#000000">preisKinder</text>
<polygon fill="none" stroke="#000000" points="541.5,-475.9253 541.5,-497.9253 602.5,-497.9253 602.5,-475.9253 541.5,-475.9253"/>
<text text-anchor="start" x="544.5" y="-483.6253" font-family="Helvetica,sans-Serif" font-size="11.00" fill="#000000">float[12]</text>
<polygon fill="none" stroke="#000000" points="337.5,-453.9253 337.5,-475.9253 541.5,-475.9253 541.5,-453.9253 337.5,-453.9253"/>
<text text-anchor="start" x="357.5" y="-461.0253" font-family="Helvetica,sans-Serif" font-size="11.00" fill="#000000">aktiv</text>
<polygon fill="none" stroke="#000000" points="541.5,-453.9253 541.5,-475.9253 602.5,-475.9253 602.5,-453.9253 541.5,-453.9253"/>
<text text-anchor="start" x="544.5" y="-461.6253" font-family="Helvetica,sans-Serif" font-size="11.00" fill="#000000">bit[1]</text>
<polygon fill="none" stroke="#000000" points="337.5,-431.9253 337.5,-453.9253 541.5,-453.9253 541.5,-431.9253 337.5,-431.9253"/>
<text text-anchor="start" x="357.5" y="-439.0253" font-family="Helvetica,sans-Serif" font-size="11.00" fill="#000000">haushaltspauschale</text>
<polygon fill="none" stroke="#000000" points="541.5,-431.9253 541.5,-453.9253 602.5,-453.9253 602.5,-431.9253 541.5,-431.9253"/>
<text text-anchor="start" x="544.5" y="-439.6253" font-family="Helvetica,sans-Serif" font-size="11.00" fill="#000000">float[12]</text>
<polygon fill="none" stroke="#000000" points="337.5,-409.9253 337.5,-431.9253 541.5,-431.9253 541.5,-409.9253 337.5,-409.9253"/>
<text text-anchor="start" x="357.5" y="-417.0253" font-family="Helvetica,sans-Serif" font-size="11.00" fill="#000000">deckelbetrag</text>
<polygon fill="none" stroke="#000000" points="541.5,-409.9253 541.5,-431.9253 602.5,-431.9253 602.5,-409.9253 541.5,-409.9253"/>
<text text-anchor="start" x="544.5" y="-417.6253" font-family="Helvetica,sans-Serif" font-size="11.00" fill="#000000">float[12]</text>
<polygon fill="none" stroke="#000000" points="337.5,-387.9253 337.5,-409.9253 541.5,-409.9253 541.5,-387.9253 337.5,-387.9253"/>
<text text-anchor="start" x="357.5" y="-395.0253" font-family="Helvetica,sans-Serif" font-size="11.00" fill="#000000">minbetrag</text>
<polygon fill="none" stroke="#000000" points="541.5,-387.9253 541.5,-409.9253 602.5,-409.9253 602.5,-387.9253 541.5,-387.9253"/>
<text text-anchor="start" x="544.5" y="-395.6253" font-family="Helvetica,sans-Serif" font-size="11.00" fill="#000000">float[12]</text>
<polygon fill="none" stroke="#000000" points="337.5,-365.9253 337.5,-387.9253 541.5,-387.9253 541.5,-365.9253 337.5,-365.9253"/>
<text text-anchor="start" x="357.5" y="-373.0253" font-family="Helvetica,sans-Serif" font-size="11.00" fill="#000000">manuelleberechnung</text>
<polygon fill="none" stroke="#000000" points="541.5,-365.9253 541.5,-387.9253 602.5,-387.9253 602.5,-365.9253 541.5,-365.9253"/>
<text text-anchor="start" x="544.5" y="-373.6253" font-family="Helvetica,sans-Serif" font-size="11.00" fill="#000000">bit[1]</text>
<polygon fill="none" stroke="#000000" points="337.5,-343.9253 337.5,-365.9253 541.5,-365.9253 541.5,-343.9253 337.5,-343.9253"/>
<text text-anchor="start" x="357.5" y="-351.0253" font-family="Helvetica,sans-Serif" font-size="11.00" fill="#000000">zuordnungperson</text>
<polygon fill="none" stroke="#000000" points="541.5,-343.9253 541.5,-365.9253 602.5,-365.9253 602.5,-343.9253 541.5,-343.9253"/>
<text text-anchor="start" x="544.5" y="-351.6253" font-family="Helvetica,sans-Serif" font-size="11.00" fill="#000000">int[10]</text>
<polygon fill="none" stroke="#000000" points="337.5,-321.9253 337.5,-343.9253 541.5,-343.9253 541.5,-321.9253 337.5,-321.9253"/>
<text text-anchor="start" x="357.5" y="-329.0253" font-family="Helvetica,sans-Serif" font-size="11.00" fill="#000000">zuordnungbuchungstext</text>
<polygon fill="none" stroke="#000000" points="541.5,-321.9253 541.5,-343.9253 602.5,-343.9253 602.5,-321.9253 541.5,-321.9253"/>
<text text-anchor="start" x="544.5" y="-329.6253" font-family="Helvetica,sans-Serif" font-size="11.00" fill="#000000">int[10]</text>
<polygon fill="none" stroke="#000000" points="337.5,-299.9253 337.5,-321.9253 541.5,-321.9253 541.5,-299.9253 337.5,-299.9253"/>
<text text-anchor="start" x="357.5" y="-307.0253" font-family="Helvetica,sans-Serif" font-size="11.00" fill="#000000">warentyplimitanzahl</text>
<polygon fill="none" stroke="#000000" points="541.5,-299.9253 541.5,-321.9253 602.5,-321.9253 602.5,-299.9253 541.5,-299.9253"/>
<text text-anchor="start" x="544.5" y="-307.6253" font-family="Helvetica,sans-Serif" font-size="11.00" fill="#000000">int[10]</text>
<polygon fill="none" stroke="#000000" points="337.5,-277.9253 337.5,-299.9253 541.5,-299.9253 541.5,-277.9253 337.5,-277.9253"/>
<text text-anchor="start" x="357.5" y="-285.0253" font-family="Helvetica,sans-Serif" font-size="11.00" fill="#000000">warentyplimitart</text>
<polygon fill="none" stroke="#000000" points="541.5,-277.9253 541.5,-299.9253 602.5,-299.9253 602.5,-277.9253 541.5,-277.9253"/>
<text text-anchor="start" x="544.5" y="-285.6253" font-family="Helvetica,sans-Serif" font-size="11.00" fill="#000000">int[10]</text>
<polygon fill="none" stroke="#000000" points="337.5,-255.9253 337.5,-277.9253 541.5,-277.9253 541.5,-255.9253 337.5,-255.9253"/>
<text text-anchor="start" x="357.5" y="-263.0253" font-family="Helvetica,sans-Serif" font-size="11.00" fill="#000000">warentyplimitabstand</text>
<polygon fill="none" stroke="#000000" points="541.5,-255.9253 541.5,-277.9253 602.5,-277.9253 602.5,-255.9253 541.5,-255.9253"/>
<text text-anchor="start" x="544.5" y="-263.6253" font-family="Helvetica,sans-Serif" font-size="11.00" fill="#000000">int[10]</text>
<polygon fill="none" stroke="#000000" points="337.5,-233.9253 337.5,-255.9253 541.5,-255.9253 541.5,-233.9253 337.5,-233.9253"/>
<text text-anchor="start" x="357.5" y="-241.0253" font-family="Helvetica,sans-Serif" font-size="11.00" fill="#000000">warentyplimitabstandart</text>
<polygon fill="none" stroke="#000000" points="541.5,-233.9253 541.5,-255.9253 602.5,-255.9253 602.5,-233.9253 541.5,-233.9253"/>
<text text-anchor="start" x="544.5" y="-241.6253" font-family="Helvetica,sans-Serif" font-size="11.00" fill="#000000">int[10]</text>
<polygon fill="#ffffff" stroke="transparent" points="337.5,-211.9253 337.5,-233.9253 541.5,-233.9253 541.5,-211.9253 337.5,-211.9253"/>
<polygon fill="none" stroke="#000000" points="337.5,-211.9253 337.5,-233.9253 541.5,-233.9253 541.5,-211.9253 337.5,-211.9253"/>
<image xlink:href="../../images/foreignKeys.png" width="11px" height="12px" preserveAspectRatio="xMinYMin meet" x="342.5" y="-228.925"/>
<text text-anchor="start" x="357.5" y="-219.0253" font-family="Helvetica,sans-Serif" font-size="11.00" fill="#000000">naechsterwarentypid</text>
<polygon fill="none" stroke="#000000" points="541.5,-211.9253 541.5,-233.9253 602.5,-233.9253 602.5,-211.9253 541.5,-211.9253"/>
<text text-anchor="start" x="544.5" y="-219.6253" font-family="Helvetica,sans-Serif" font-size="11.00" fill="#000000">int[10]</text>
<polygon fill="#ffffff" stroke="transparent" points="337.5,-192.9253 337.5,-211.9253 602.5,-211.9253 602.5,-192.9253 337.5,-192.9253"/>
<polygon fill="none" stroke="#000000" points="337.5,-192.9253 337.5,-211.9253 602.5,-211.9253 602.5,-192.9253 337.5,-192.9253"/>
<polygon fill="#ffffff" stroke="transparent" points="338.5,-193.9253 338.5,-210.9253 420.5,-210.9253 420.5,-193.9253 338.5,-193.9253"/>
<text text-anchor="start" x="340.5" y="-199.0253" font-family="Helvetica,sans-Serif" font-size="11.00" fill="#000000">&lt; 1</text>
<polygon fill="#ffffff" stroke="transparent" points="420.5,-193.9253 420.5,-210.9253 519.5,-210.9253 519.5,-193.9253 420.5,-193.9253"/>
<text text-anchor="start" x="453.8053" y="-199.0253" font-family="Helvetica,sans-Serif" font-size="11.00" fill="#000000">2 rows</text>
<polygon fill="#ffffff" stroke="transparent" points="519.5,-193.9253 519.5,-210.9253 601.5,-210.9253 601.5,-193.9253 519.5,-193.9253"/>
<text text-anchor="start" x="583.9053" y="-199.0253" font-family="Helvetica,sans-Serif" font-size="11.00" fill="#000000">2 &gt;</text>
<polygon fill="#000000" stroke="#000000" points="420.5,-193.9253 420.5,-210.9253 420.5,-210.9253 420.5,-193.9253 420.5,-193.9253"/>
<polygon fill="#000000" stroke="#000000" points="519.5,-193.9253 519.5,-210.9253 519.5,-210.9253 519.5,-193.9253 519.5,-193.9253"/>
<polygon fill="none" stroke="#000000" stroke-width="2" points="336,-191.9253 336,-587.9253 603,-587.9253 603,-191.9253 336,-191.9253"/>
</a>
</g>
</g>
<!-- einkauf&#45;&gt;warentyp -->
<g id="edge4" class="edge">
<title>einkauf:w&#45;&gt;warentyp:e</title>
<path fill="none" stroke="#000000" d="M638.9047,-175.4814C582.0812,-218.5806 682.6085,-552.9253 602.5,-552.9253"/>
<polygon fill="#000000" stroke="#000000" points="645.3878,-173.3859 654.1073,-174.3508 649.1939,-172.1556 653,-170.9253 653,-170.9253 653,-170.9253 649.1939,-172.1556 651.8927,-167.4998 645.3878,-173.3859 645.3878,-173.3859"/>
<ellipse fill="none" stroke="#000000" cx="642.3429" cy="-174.3701" rx="3.2" ry="3.2"/>
</g>
<!-- haushalt&#45;&gt;verteilstelle -->
<g id="edge6" class="edge">
<title>haushalt:w&#45;&gt;verteilstelle:e</title>
<path fill="none" stroke="#000000" d="M169.9001,-105.0889C158.2846,-97.8566 154.0343,-82.9253 135.5,-82.9253"/>
<polygon fill="#000000" stroke="#000000" points="176.2806,-106.8249 183.0548,-112.399 180.1403,-107.8751 184,-108.9253 184,-108.9253 184,-108.9253 180.1403,-107.8751 184.9452,-105.4516 176.2806,-106.8249 176.2806,-106.8249"/>
<ellipse fill="none" stroke="#000000" cx="173.1929" cy="-105.9848" rx="3.2" ry="3.2"/>
</g>
<!-- familienmitglied&#45;&gt;haushalt -->
<g id="edge5" class="edge">
<title>familienmitglied:w&#45;&gt;haushalt:e</title>
<path fill="none" stroke="#000000" d="M375.9559,-108.9253C340.9779,-108.9253 327.1832,-108.9253 286,-108.9253"/>
<polygon fill="#000000" stroke="#000000" points="382.5,-108.9253 390.5,-112.5253 386.5,-108.9253 390.5,-108.9253 390.5,-108.9253 390.5,-108.9253 386.5,-108.9253 390.5,-105.3253 382.5,-108.9253 382.5,-108.9253"/>
<ellipse fill="none" stroke="#000000" cx="379.3" cy="-108.9254" rx="3.2" ry="3.2"/>
</g>
<!-- warentyp&#45;&gt;warentyp -->
<g id="edge7" class="edge">
<title>warentyp:w&#45;&gt;warentyp:e</title>
<path fill="none" stroke="#000000" d="M329.3645,-235.1176C279.4554,-324.5549 288.3262,-605.9253 470,-605.9253 661,-605.9253 661,-597.2586 602.5,-552.9253"/>
<polygon fill="#000000" stroke="#000000" points="333.0596,-229.5799 340.4946,-224.9234 335.2798,-226.2526 337.5,-222.9253 337.5,-222.9253 337.5,-222.9253 335.2798,-226.2526 334.5054,-220.9271 333.0596,-229.5799 333.0596,-229.5799"/>
<ellipse fill="none" stroke="#000000" cx="331.2835" cy="-232.2417" rx="3.2" ry="3.2"/>
</g>
</g>
</svg>
