<?xml version="1.0" encoding="UTF-8" standalone="no"?>
<!DOCTYPE svg PUBLIC "-//W3C//DTD SVG 1.1//EN"
 "http://www.w3.org/Graphics/SVG/1.1/DTD/svg11.dtd">
<!-- Generated by graphviz version 2.40.1 (20161225.0304)
 -->
<!-- Title: oneDegreeRelationshipsDiagram Pages: 1 -->
<svg width="527pt" height="469pt"
 viewBox="0.00 0.00 526.81 468.70" xmlns="http://www.w3.org/2000/svg" xmlns:xlink="http://www.w3.org/1999/xlink">
<g id="graph0" class="graph" transform="scale(1 1) rotate(0) translate(4 464.7)">
<title>oneDegreeRelationshipsDiagram</title>
<polygon fill="#ffffff" stroke="transparent" points="-4,4 -4,-464.7 522.8058,-464.7 522.8058,4 -4,4"/>
<text text-anchor="middle" x="72.4936" y="-7.3" font-family="Helvetica,sans-Serif" font-size="11.00" fill="#000000">Generated by SchemaSpy</text>
<!-- einkauf -->
<g id="node1" class="node">
<title>einkauf</title>
<g id="a_node1"><a xlink:href="../../tables/einkauf.html" xlink:title="einkauf" target="_top">
<polygon fill="#ffffff" stroke="transparent" points="354.8058,-285.7 354.8058,-456.7 510.8058,-456.7 510.8058,-285.7 354.8058,-285.7"/>
<polygon fill="#f5f5f5" stroke="transparent" points="354.8058,-433.2 354.8058,-456.2 510.8058,-456.2 510.8058,-433.2 354.8058,-433.2"/>
<polygon fill="none" stroke="#000000" points="354.8058,-433.2 354.8058,-456.2 510.8058,-456.2 510.8058,-433.2 354.8058,-433.2"/>
<text text-anchor="start" x="359.8058" y="-441.8" font-family="Helvetica,sans-Serif" font-weight="bold" font-size="11.00" fill="#000000">einkauf</text>
<text text-anchor="start" x="475.8495" y="-441.3" font-family="Helvetica,sans-Serif" font-size="11.00" fill="#000000">[table]</text>
<polygon fill="none" stroke="#000000" points="354.8058,-411.2 354.8058,-433.2 510.8058,-433.2 510.8058,-411.2 354.8058,-411.2"/>
<image xlink:href="../../images/primaryKeys.png" width="11px" height="12px" preserveAspectRatio="xMinYMin meet" x="359.806" y="-428.2"/>
<text text-anchor="start" x="374.8058" y="-418.3" font-family="Helvetica,sans-Serif" font-size="11.00" fill="#000000">einkaufId</text>
<polygon fill="#ffffff" stroke="transparent" points="354.8058,-389.2 354.8058,-411.2 510.8058,-411.2 510.8058,-389.2 354.8058,-389.2"/>
<polygon fill="none" stroke="#000000" points="354.8058,-389.2 354.8058,-411.2 510.8058,-411.2 510.8058,-389.2 354.8058,-389.2"/>
<image xlink:href="../../images/foreignKeys.png" width="11px" height="12px" preserveAspectRatio="xMinYMin meet" x="359.806" y="-406.2"/>
<text text-anchor="start" x="374.8058" y="-396.3" font-family="Helvetica,sans-Serif" font-size="11.00" fill="#000000">warentyp</text>
<polygon fill="#ffffff" stroke="transparent" points="354.8058,-367.2 354.8058,-389.2 510.8058,-389.2 510.8058,-367.2 354.8058,-367.2"/>
<polygon fill="none" stroke="#000000" points="354.8058,-367.2 354.8058,-389.2 510.8058,-389.2 510.8058,-367.2 354.8058,-367.2"/>
<image xlink:href="../../images/foreignKeys.png" width="11px" height="12px" preserveAspectRatio="xMinYMin meet" x="359.806" y="-384.2"/>
<text text-anchor="start" x="374.8058" y="-374.3" font-family="Helvetica,sans-Serif" font-size="11.00" fill="#000000">kunde</text>
<polygon fill="#ffffff" stroke="transparent" points="354.8058,-345.2 354.8058,-367.2 510.8058,-367.2 510.8058,-345.2 354.8058,-345.2"/>
<polygon fill="none" stroke="#000000" points="354.8058,-345.2 354.8058,-367.2 510.8058,-367.2 510.8058,-345.2 354.8058,-345.2"/>
<image xlink:href="../../images/foreignKeys.png" width="11px" height="12px" preserveAspectRatio="xMinYMin meet" x="359.806" y="-362.2"/>
<text text-anchor="start" x="374.8058" y="-352.3" font-family="Helvetica,sans-Serif" font-size="11.00" fill="#000000">person</text>
<polygon fill="#ffffff" stroke="transparent" points="354.8058,-323.2 354.8058,-345.2 510.8058,-345.2 510.8058,-323.2 354.8058,-323.2"/>
<polygon fill="none" stroke="#000000" points="354.8058,-323.2 354.8058,-345.2 510.8058,-345.2 510.8058,-323.2 354.8058,-323.2"/>
<image xlink:href="../../images/foreignKeys.png" width="11px" height="12px" preserveAspectRatio="xMinYMin meet" x="359.806" y="-340.2"/>
<text text-anchor="start" x="374.8058" y="-330.3" font-family="Helvetica,sans-Serif" font-size="11.00" fill="#000000">beiVerteilstelle</text>
<polygon fill="none" stroke="#000000" points="354.8058,-304.2 354.8058,-323.2 510.8058,-323.2 510.8058,-304.2 354.8058,-304.2"/>
<text text-anchor="start" x="357.8058" y="-310.3" font-family="Helvetica,sans-Serif" font-size="11.00" fill="#000000">...</text>
<polygon fill="#ffffff" stroke="transparent" points="354.8058,-285.2 354.8058,-304.2 510.8058,-304.2 510.8058,-285.2 354.8058,-285.2"/>
<polygon fill="none" stroke="#000000" points="354.8058,-285.2 354.8058,-304.2 510.8058,-304.2 510.8058,-285.2 354.8058,-285.2"/>
<polygon fill="#ffffff" stroke="transparent" points="355.8058,-286.2 355.8058,-303.2 397.8058,-303.2 397.8058,-286.2 355.8058,-286.2"/>
<text text-anchor="start" x="357.8058" y="-291.3" font-family="Helvetica,sans-Serif" font-size="11.00" fill="#000000">&lt; 4</text>
<polygon fill="#ffffff" stroke="transparent" points="397.8058,-286.2 397.8058,-303.2 477.8058,-303.2 477.8058,-286.2 397.8058,-286.2"/>
<text text-anchor="start" x="410.9103" y="-291.3" font-family="Helvetica,sans-Serif" font-size="11.00" fill="#000000">3,276 rows</text>
<polygon fill="#ffffff" stroke="transparent" points="477.8058,-286.2 477.8058,-303.2 509.8058,-303.2 509.8058,-286.2 477.8058,-286.2"/>
<text text-anchor="start" x="501.692" y="-291.3" font-family="Helvetica,sans-Serif" font-size="11.00" fill="#000000"> &#160;</text>
<polygon fill="#000000" stroke="#000000" points="397.8058,-286.2 397.8058,-303.2 397.8058,-303.2 397.8058,-286.2 397.8058,-286.2"/>
<polygon fill="#000000" stroke="#000000" points="477.8058,-286.2 477.8058,-303.2 477.8058,-303.2 477.8058,-286.2 477.8058,-286.2"/>
</a>
</g>
</g>
<!-- warentyp -->
<g id="node2" class="node">
<title>warentyp</title>
<g id="a_node2"><a xlink:href="../../tables/warentyp.html" xlink:title="warentyp" target="_top">
<polygon fill="#ffffff" stroke="transparent" points="36.8058,-38.2 36.8058,-436.2 305.8058,-436.2 305.8058,-38.2 36.8058,-38.2"/>
<polygon fill="#f5f5f5" stroke="transparent" points="39.3058,-411.2 39.3058,-434.2 304.3058,-434.2 304.3058,-411.2 39.3058,-411.2"/>
<polygon fill="none" stroke="#000000" points="39.3058,-411.2 39.3058,-434.2 304.3058,-434.2 304.3058,-411.2 39.3058,-411.2"/>
<text text-anchor="start" x="44.3058" y="-419.8" font-family="Helvetica,sans-Serif" font-weight="bold" font-size="11.00" fill="#000000">warentyp</text>
<text text-anchor="start" x="269.3495" y="-419.3" font-family="Helvetica,sans-Serif" font-size="11.00" fill="#000000">[table]</text>
<polygon fill="none" stroke="#000000" points="39.3058,-389.2 39.3058,-411.2 243.3058,-411.2 243.3058,-389.2 39.3058,-389.2"/>
<image xlink:href="../../images/primaryKeys.png" width="11px" height="12px" preserveAspectRatio="xMinYMin meet" x="44.3058" y="-406.2"/>
<text text-anchor="start" x="59.3058" y="-396.3" font-family="Helvetica,sans-Serif" font-size="11.00" fill="#000000">warentypId</text>
<polygon fill="none" stroke="#000000" points="243.3058,-389.2 243.3058,-411.2 304.3058,-411.2 304.3058,-389.2 243.3058,-389.2"/>
<text text-anchor="start" x="246.3058" y="-396.9" font-family="Helvetica,sans-Serif" font-size="11.00" fill="#000000">int[10]</text>
<polygon fill="none" stroke="#000000" points="39.3058,-367.2 39.3058,-389.2 243.3058,-389.2 243.3058,-367.2 39.3058,-367.2"/>
<text text-anchor="start" x="59.3058" y="-374.3" font-family="Helvetica,sans-Serif" font-size="11.00" fill="#000000">name</text>
<polygon fill="none" stroke="#000000" points="243.3058,-367.2 243.3058,-389.2 304.3058,-389.2 304.3058,-367.2 243.3058,-367.2"/>
<text text-anchor="start" x="246.2998" y="-374.9" font-family="Helvetica,sans-Serif" font-size="11.00" fill="#000000">varchar[30]</text>
<polygon fill="none" stroke="#000000" points="39.3058,-345.2 39.3058,-367.2 243.3058,-367.2 243.3058,-345.2 39.3058,-345.2"/>
<text text-anchor="start" x="59.3058" y="-352.3" font-family="Helvetica,sans-Serif" font-size="11.00" fill="#000000">preisErwachsener</text>
<polygon fill="none" stroke="#000000" points="243.3058,-345.2 243.3058,-367.2 304.3058,-367.2 304.3058,-345.2 243.3058,-345.2"/>
<text text-anchor="start" x="246.3058" y="-352.9" font-family="Helvetica,sans-Serif" font-size="11.00" fill="#000000">float[12]</text>
<polygon fill="none" stroke="#000000" points="39.3058,-323.2 39.3058,-345.2 243.3058,-345.2 243.3058,-323.2 39.3058,-323.2"/>
<text text-anchor="start" x="59.3058" y="-330.3" font-family="Helvetica,sans-Serif" font-size="11.00" fill="#000000">preisKinder</text>
<polygon fill="none" stroke="#000000" points="243.3058,-323.2 243.3058,-345.2 304.3058,-345.2 304.3058,-323.2 243.3058,-323.2"/>
<text text-anchor="start" x="246.3058" y="-330.9" font-family="Helvetica,sans-Serif" font-size="11.00" fill="#000000">float[12]</text>
<polygon fill="none" stroke="#000000" points="39.3058,-301.2 39.3058,-323.2 243.3058,-323.2 243.3058,-301.2 39.3058,-301.2"/>
<text text-anchor="start" x="59.3058" y="-308.3" font-family="Helvetica,sans-Serif" font-size="11.00" fill="#000000">aktiv</text>
<polygon fill="none" stroke="#000000" points="243.3058,-301.2 243.3058,-323.2 304.3058,-323.2 304.3058,-301.2 243.3058,-301.2"/>
<text text-anchor="start" x="246.3058" y="-308.9" font-family="Helvetica,sans-Serif" font-size="11.00" fill="#000000">bit[1]</text>
<polygon fill="none" stroke="#000000" points="39.3058,-279.2 39.3058,-301.2 243.3058,-301.2 243.3058,-279.2 39.3058,-279.2"/>
<text text-anchor="start" x="59.3058" y="-286.3" font-family="Helvetica,sans-Serif" font-size="11.00" fill="#000000">haushaltspauschale</text>
<polygon fill="none" stroke="#000000" points="243.3058,-279.2 243.3058,-301.2 304.3058,-301.2 304.3058,-279.2 243.3058,-279.2"/>
<text text-anchor="start" x="246.3058" y="-286.9" font-family="Helvetica,sans-Serif" font-size="11.00" fill="#000000">float[12]</text>
<polygon fill="none" stroke="#000000" points="39.3058,-257.2 39.3058,-279.2 243.3058,-279.2 243.3058,-257.2 39.3058,-257.2"/>
<text text-anchor="start" x="59.3058" y="-264.3" font-family="Helvetica,sans-Serif" font-size="11.00" fill="#000000">deckelbetrag</text>
<polygon fill="none" stroke="#000000" points="243.3058,-257.2 243.3058,-279.2 304.3058,-279.2 304.3058,-257.2 243.3058,-257.2"/>
<text text-anchor="start" x="246.3058" y="-264.9" font-family="Helvetica,sans-Serif" font-size="11.00" fill="#000000">float[12]</text>
<polygon fill="none" stroke="#000000" points="39.3058,-235.2 39.3058,-257.2 243.3058,-257.2 243.3058,-235.2 39.3058,-235.2"/>
<text text-anchor="start" x="59.3058" y="-242.3" font-family="Helvetica,sans-Serif" font-size="11.00" fill="#000000">minbetrag</text>
<polygon fill="none" stroke="#000000" points="243.3058,-235.2 243.3058,-257.2 304.3058,-257.2 304.3058,-235.2 243.3058,-235.2"/>
<text text-anchor="start" x="246.3058" y="-242.9" font-family="Helvetica,sans-Serif" font-size="11.00" fill="#000000">float[12]</text>
<polygon fill="none" stroke="#000000" points="39.3058,-213.2 39.3058,-235.2 243.3058,-235.2 243.3058,-213.2 39.3058,-213.2"/>
<text text-anchor="start" x="59.3058" y="-220.3" font-family="Helvetica,sans-Serif" font-size="11.00" fill="#000000">manuelleberechnung</text>
<polygon fill="none" stroke="#000000" points="243.3058,-213.2 243.3058,-235.2 304.3058,-235.2 304.3058,-213.2 243.3058,-213.2"/>
<text text-anchor="start" x="246.3058" y="-220.9" font-family="Helvetica,sans-Serif" font-size="11.00" fill="#000000">bit[1]</text>
<polygon fill="none" stroke="#000000" points="39.3058,-191.2 39.3058,-213.2 243.3058,-213.2 243.3058,-191.2 39.3058,-191.2"/>
<text text-anchor="start" x="59.3058" y="-198.3" font-family="Helvetica,sans-Serif" font-size="11.00" fill="#000000">zuordnungperson</text>
<polygon fill="none" stroke="#000000" points="243.3058,-191.2 243.3058,-213.2 304.3058,-213.2 304.3058,-191.2 243.3058,-191.2"/>
<text text-anchor="start" x="246.3058" y="-198.9" font-family="Helvetica,sans-Serif" font-size="11.00" fill="#000000">int[10]</text>
<polygon fill="none" stroke="#000000" points="39.3058,-169.2 39.3058,-191.2 243.3058,-191.2 243.3058,-169.2 39.3058,-169.2"/>
<text text-anchor="start" x="59.3058" y="-176.3" font-family="Helvetica,sans-Serif" font-size="11.00" fill="#000000">zuordnungbuchungstext</text>
<polygon fill="none" stroke="#000000" points="243.3058,-169.2 243.3058,-191.2 304.3058,-191.2 304.3058,-169.2 243.3058,-169.2"/>
<text text-anchor="start" x="246.3058" y="-176.9" font-family="Helvetica,sans-Serif" font-size="11.00" fill="#000000">int[10]</text>
<polygon fill="none" stroke="#000000" points="39.3058,-147.2 39.3058,-169.2 243.3058,-169.2 243.3058,-147.2 39.3058,-147.2"/>
<text text-anchor="start" x="59.3058" y="-154.3" font-family="Helvetica,sans-Serif" font-size="11.00" fill="#000000">warentyplimitanzahl</text>
<polygon fill="none" stroke="#000000" points="243.3058,-147.2 243.3058,-169.2 304.3058,-169.2 304.3058,-147.2 243.3058,-147.2"/>
<text text-anchor="start" x="246.3058" y="-154.9" font-family="Helvetica,sans-Serif" font-size="11.00" fill="#000000">int[10]</text>
<polygon fill="none" stroke="#000000" points="39.3058,-125.2 39.3058,-147.2 243.3058,-147.2 243.3058,-125.2 39.3058,-125.2"/>
<text text-anchor="start" x="59.3058" y="-132.3" font-family="Helvetica,sans-Serif" font-size="11.00" fill="#000000">warentyplimitart</text>
<polygon fill="none" stroke="#000000" points="243.3058,-125.2 243.3058,-147.2 304.3058,-147.2 304.3058,-125.2 243.3058,-125.2"/>
<text text-anchor="start" x="246.3058" y="-132.9" font-family="Helvetica,sans-Serif" font-size="11.00" fill="#000000">int[10]</text>
<polygon fill="none" stroke="#000000" points="39.3058,-103.2 39.3058,-125.2 243.3058,-125.2 243.3058,-103.2 39.3058,-103.2"/>
<text text-anchor="start" x="59.3058" y="-110.3" font-family="Helvetica,sans-Serif" font-size="11.00" fill="#000000">warentyplimitabstand</text>
<polygon fill="none" stroke="#000000" points="243.3058,-103.2 243.3058,-125.2 304.3058,-125.2 304.3058,-103.2 243.3058,-103.2"/>
<text text-anchor="start" x="246.3058" y="-110.9" font-family="Helvetica,sans-Serif" font-size="11.00" fill="#000000">int[10]</text>
<polygon fill="none" stroke="#000000" points="39.3058,-81.2 39.3058,-103.2 243.3058,-103.2 243.3058,-81.2 39.3058,-81.2"/>
<text text-anchor="start" x="59.3058" y="-88.3" font-family="Helvetica,sans-Serif" font-size="11.00" fill="#000000">warentyplimitabstandart</text>
<polygon fill="none" stroke="#000000" points="243.3058,-81.2 243.3058,-103.2 304.3058,-103.2 304.3058,-81.2 243.3058,-81.2"/>
<text text-anchor="start" x="246.3058" y="-88.9" font-family="Helvetica,sans-Serif" font-size="11.00" fill="#000000">int[10]</text>
<polygon fill="#ffffff" stroke="transparent" points="39.3058,-59.2 39.3058,-81.2 243.3058,-81.2 243.3058,-59.2 39.3058,-59.2"/>
<polygon fill="none" stroke="#000000" points="39.3058,-59.2 39.3058,-81.2 243.3058,-81.2 243.3058,-59.2 39.3058,-59.2"/>
<image xlink:href="../../images/foreignKeys.png" width="11px" height="12px" preserveAspectRatio="xMinYMin meet" x="44.3058" y="-76.2"/>
<text text-anchor="start" x="59.3058" y="-66.3" font-family="Helvetica,sans-Serif" font-size="11.00" fill="#000000">naechsterwarentypid</text>
<polygon fill="none" stroke="#000000" points="243.3058,-59.2 243.3058,-81.2 304.3058,-81.2 304.3058,-59.2 243.3058,-59.2"/>
<text text-anchor="start" x="246.3058" y="-66.9" font-family="Helvetica,sans-Serif" font-size="11.00" fill="#000000">int[10]</text>
<polygon fill="#ffffff" stroke="transparent" points="39.3058,-40.2 39.3058,-59.2 304.3058,-59.2 304.3058,-40.2 39.3058,-40.2"/>
<polygon fill="none" stroke="#000000" points="39.3058,-40.2 39.3058,-59.2 304.3058,-59.2 304.3058,-40.2 39.3058,-40.2"/>
<polygon fill="#ffffff" stroke="transparent" points="40.3058,-41.2 40.3058,-58.2 122.3058,-58.2 122.3058,-41.2 40.3058,-41.2"/>
<text text-anchor="start" x="42.3058" y="-46.3" font-family="Helvetica,sans-Serif" font-size="11.00" fill="#000000">&lt; 1</text>
<polygon fill="#ffffff" stroke="transparent" points="122.3058,-41.2 122.3058,-58.2 221.3058,-58.2 221.3058,-41.2 122.3058,-41.2"/>
<text text-anchor="start" x="155.6111" y="-46.3" font-family="Helvetica,sans-Serif" font-size="11.00" fill="#000000">2 rows</text>
<polygon fill="#ffffff" stroke="transparent" points="221.3058,-41.2 221.3058,-58.2 303.3058,-58.2 303.3058,-41.2 221.3058,-41.2"/>
<text text-anchor="start" x="285.7111" y="-46.3" font-family="Helvetica,sans-Serif" font-size="11.00" fill="#000000">2 &gt;</text>
<polygon fill="#000000" stroke="#000000" points="122.3058,-41.2 122.3058,-58.2 122.3058,-58.2 122.3058,-41.2 122.3058,-41.2"/>
<polygon fill="#000000" stroke="#000000" points="221.3058,-41.2 221.3058,-58.2 221.3058,-58.2 221.3058,-41.2 221.3058,-41.2"/>
<polygon fill="none" stroke="#000000" stroke-width="2" points="37.8058,-39.2 37.8058,-435.2 304.8058,-435.2 304.8058,-39.2 37.8058,-39.2"/>
</a>
</g>
</g>
<!-- einkauf&#45;&gt;warentyp -->
<g id="edge1" class="edge">
<title>einkauf:w&#45;&gt;warentyp:e</title>
<path fill="none" stroke="#000000" d="M340.2261,-400.2C328.3493,-400.2 320.9638,-400.2 304.3058,-400.2"/>
<polygon fill="#000000" stroke="#000000" points="346.8058,-400.2001 354.8058,-403.8 350.8058,-400.2 354.8058,-400.2 354.8058,-400.2 354.8058,-400.2 350.8058,-400.2 354.8058,-396.6 346.8058,-400.2001 346.8058,-400.2001"/>
<ellipse fill="none" stroke="#000000" cx="343.6058" cy="-400.2001" rx="3.2" ry="3.2"/>
</g>
<!-- warentyp&#45;&gt;warentyp -->
<g id="edge2" class="edge">
<title>warentyp:w&#45;&gt;warentyp:e</title>
<path fill="none" stroke="#000000" d="M30.6073,-81.8438C-25.2602,-170.6729 -16.4364,-453.2 171.8058,-453.2 369.3058,-453.2 369.3058,-444.5333 304.3058,-400.2"/>
<polygon fill="#000000" stroke="#000000" points="34.5179,-76.6091 42.1899,-72.3546 36.9119,-73.4045 39.3058,-70.2 39.3058,-70.2 39.3058,-70.2 36.9119,-73.4045 36.4217,-68.0454 34.5179,-76.6091 34.5179,-76.6091"/>
<ellipse fill="none" stroke="#000000" cx="32.6027" cy="-79.1727" rx="3.2" ry="3.2"/>
</g>
</g>
</svg>
